<?xml version="1.0" encoding="utf-8" standalone="no"?>
<!DOCTYPE svg PUBLIC "-//W3C//DTD SVG 1.1//EN"
  "http://www.w3.org/Graphics/SVG/1.1/DTD/svg11.dtd">
<svg xmlns:xlink="http://www.w3.org/1999/xlink" width="432pt" height="288pt" viewBox="0 0 432 288" xmlns="http://www.w3.org/2000/svg" version="1.1">
 <metadata>
  <rdf:RDF xmlns:dc="http://purl.org/dc/elements/1.1/" xmlns:cc="http://creativecommons.org/ns#" xmlns:rdf="http://www.w3.org/1999/02/22-rdf-syntax-ns#">
   <cc:Work>
    <dc:type rdf:resource="http://purl.org/dc/dcmitype/StillImage"/>
    <dc:date>2023-04-16T13:29:43.664077</dc:date>
    <dc:format>image/svg+xml</dc:format>
    <dc:creator>
     <cc:Agent>
      <dc:title>Matplotlib v3.5.1, https://matplotlib.org/</dc:title>
     </cc:Agent>
    </dc:creator>
   </cc:Work>
  </rdf:RDF>
 </metadata>
 <defs>
  <style type="text/css">*{stroke-linejoin: round; stroke-linecap: butt}</style>
 </defs>
 <g id="figure_1">
  <g id="patch_1">
   <path d="M 0 288 
L 432 288 
L 432 0 
L 0 0 
L 0 288 
z
" style="fill: none"/>
  </g>
  <g id="axes_1">
   <g id="patch_2">
    <path d="M 54 252 
L 388.8 252 
L 388.8 34.56 
L 54 34.56 
z
" style="fill: #ffffff"/>
   </g>
   <g id="matplotlib.axis_1">
    <g id="xtick_1">
     <g id="line2d_1">
      <defs>
       <path id="m5cbce49631" d="M 0 0 
L 0 3.5 
" style="stroke: #000000; stroke-width: 0.8"/>
      </defs>
      <g>
       <use xlink:href="#m5cbce49631" x="148.041234" y="252" style="stroke: #000000; stroke-width: 0.8"/>
      </g>
     </g>
     <g id="text_1">
      <!-- $\mathdefault{10^{1}}$ -->
      <g transform="translate(139.241234 266.598437)scale(0.1 -0.1)">
       <defs>
        <path id="DejaVuSans-31" d="M 794 531 
L 1825 531 
L 1825 4091 
L 703 3866 
L 703 4441 
L 1819 4666 
L 2450 4666 
L 2450 531 
L 3481 531 
L 3481 0 
L 794 0 
L 794 531 
z
" transform="scale(0.015625)"/>
        <path id="DejaVuSans-30" d="M 2034 4250 
Q 1547 4250 1301 3770 
Q 1056 3291 1056 2328 
Q 1056 1369 1301 889 
Q 1547 409 2034 409 
Q 2525 409 2770 889 
Q 3016 1369 3016 2328 
Q 3016 3291 2770 3770 
Q 2525 4250 2034 4250 
z
M 2034 4750 
Q 2819 4750 3233 4129 
Q 3647 3509 3647 2328 
Q 3647 1150 3233 529 
Q 2819 -91 2034 -91 
Q 1250 -91 836 529 
Q 422 1150 422 2328 
Q 422 3509 836 4129 
Q 1250 4750 2034 4750 
z
" transform="scale(0.015625)"/>
       </defs>
       <use xlink:href="#DejaVuSans-31" transform="translate(0 0.684375)"/>
       <use xlink:href="#DejaVuSans-30" transform="translate(63.623047 0.684375)"/>
       <use xlink:href="#DejaVuSans-31" transform="translate(128.203125 38.965625)scale(0.7)"/>
      </g>
     </g>
    </g>
    <g id="xtick_2">
     <g id="line2d_2">
      <g>
       <use xlink:href="#m5cbce49631" x="260.811526" y="252" style="stroke: #000000; stroke-width: 0.8"/>
      </g>
     </g>
     <g id="text_2">
      <!-- $\mathdefault{10^{2}}$ -->
      <g transform="translate(252.011526 266.598437)scale(0.1 -0.1)">
       <defs>
        <path id="DejaVuSans-32" d="M 1228 531 
L 3431 531 
L 3431 0 
L 469 0 
L 469 531 
Q 828 903 1448 1529 
Q 2069 2156 2228 2338 
Q 2531 2678 2651 2914 
Q 2772 3150 2772 3378 
Q 2772 3750 2511 3984 
Q 2250 4219 1831 4219 
Q 1534 4219 1204 4116 
Q 875 4013 500 3803 
L 500 4441 
Q 881 4594 1212 4672 
Q 1544 4750 1819 4750 
Q 2544 4750 2975 4387 
Q 3406 4025 3406 3419 
Q 3406 3131 3298 2873 
Q 3191 2616 2906 2266 
Q 2828 2175 2409 1742 
Q 1991 1309 1228 531 
z
" transform="scale(0.015625)"/>
       </defs>
       <use xlink:href="#DejaVuSans-31" transform="translate(0 0.765625)"/>
       <use xlink:href="#DejaVuSans-30" transform="translate(63.623047 0.765625)"/>
       <use xlink:href="#DejaVuSans-32" transform="translate(128.203125 39.046875)scale(0.7)"/>
      </g>
     </g>
    </g>
    <g id="xtick_3">
     <g id="line2d_3">
      <g>
       <use xlink:href="#m5cbce49631" x="373.581818" y="252" style="stroke: #000000; stroke-width: 0.8"/>
      </g>
     </g>
     <g id="text_3">
      <!-- $\mathdefault{10^{3}}$ -->
      <g transform="translate(364.781818 266.598437)scale(0.1 -0.1)">
       <defs>
        <path id="DejaVuSans-33" d="M 2597 2516 
Q 3050 2419 3304 2112 
Q 3559 1806 3559 1356 
Q 3559 666 3084 287 
Q 2609 -91 1734 -91 
Q 1441 -91 1130 -33 
Q 819 25 488 141 
L 488 750 
Q 750 597 1062 519 
Q 1375 441 1716 441 
Q 2309 441 2620 675 
Q 2931 909 2931 1356 
Q 2931 1769 2642 2001 
Q 2353 2234 1838 2234 
L 1294 2234 
L 1294 2753 
L 1863 2753 
Q 2328 2753 2575 2939 
Q 2822 3125 2822 3475 
Q 2822 3834 2567 4026 
Q 2313 4219 1838 4219 
Q 1578 4219 1281 4162 
Q 984 4106 628 3988 
L 628 4550 
Q 988 4650 1302 4700 
Q 1616 4750 1894 4750 
Q 2613 4750 3031 4423 
Q 3450 4097 3450 3541 
Q 3450 3153 3228 2886 
Q 3006 2619 2597 2516 
z
" transform="scale(0.015625)"/>
       </defs>
       <use xlink:href="#DejaVuSans-31" transform="translate(0 0.765625)"/>
       <use xlink:href="#DejaVuSans-30" transform="translate(63.623047 0.765625)"/>
       <use xlink:href="#DejaVuSans-33" transform="translate(128.203125 39.046875)scale(0.7)"/>
      </g>
     </g>
    </g>
    <g id="xtick_4">
     <g id="line2d_4">
      <defs>
       <path id="m7b7d22d153" d="M 0 0 
L 0 2 
" style="stroke: #000000; stroke-width: 0.6"/>
      </defs>
      <g>
       <use xlink:href="#m7b7d22d153" x="69.218182" y="252" style="stroke: #000000; stroke-width: 0.6"/>
      </g>
     </g>
    </g>
    <g id="xtick_5">
     <g id="line2d_5">
      <g>
       <use xlink:href="#m7b7d22d153" x="89.076045" y="252" style="stroke: #000000; stroke-width: 0.6"/>
      </g>
     </g>
    </g>
    <g id="xtick_6">
     <g id="line2d_6">
      <g>
       <use xlink:href="#m7b7d22d153" x="103.165422" y="252" style="stroke: #000000; stroke-width: 0.6"/>
      </g>
     </g>
    </g>
    <g id="xtick_7">
     <g id="line2d_7">
      <g>
       <use xlink:href="#m7b7d22d153" x="114.093993" y="252" style="stroke: #000000; stroke-width: 0.6"/>
      </g>
     </g>
    </g>
    <g id="xtick_8">
     <g id="line2d_8">
      <g>
       <use xlink:href="#m7b7d22d153" x="123.023285" y="252" style="stroke: #000000; stroke-width: 0.6"/>
      </g>
     </g>
    </g>
    <g id="xtick_9">
     <g id="line2d_9">
      <g>
       <use xlink:href="#m7b7d22d153" x="130.572894" y="252" style="stroke: #000000; stroke-width: 0.6"/>
      </g>
     </g>
    </g>
    <g id="xtick_10">
     <g id="line2d_10">
      <g>
       <use xlink:href="#m7b7d22d153" x="137.112663" y="252" style="stroke: #000000; stroke-width: 0.6"/>
      </g>
     </g>
    </g>
    <g id="xtick_11">
     <g id="line2d_11">
      <g>
       <use xlink:href="#m7b7d22d153" x="142.881148" y="252" style="stroke: #000000; stroke-width: 0.6"/>
      </g>
     </g>
    </g>
    <g id="xtick_12">
     <g id="line2d_12">
      <g>
       <use xlink:href="#m7b7d22d153" x="181.988474" y="252" style="stroke: #000000; stroke-width: 0.6"/>
      </g>
     </g>
    </g>
    <g id="xtick_13">
     <g id="line2d_13">
      <g>
       <use xlink:href="#m7b7d22d153" x="201.846337" y="252" style="stroke: #000000; stroke-width: 0.6"/>
      </g>
     </g>
    </g>
    <g id="xtick_14">
     <g id="line2d_14">
      <g>
       <use xlink:href="#m7b7d22d153" x="215.935715" y="252" style="stroke: #000000; stroke-width: 0.6"/>
      </g>
     </g>
    </g>
    <g id="xtick_15">
     <g id="line2d_15">
      <g>
       <use xlink:href="#m7b7d22d153" x="226.864285" y="252" style="stroke: #000000; stroke-width: 0.6"/>
      </g>
     </g>
    </g>
    <g id="xtick_16">
     <g id="line2d_16">
      <g>
       <use xlink:href="#m7b7d22d153" x="235.793578" y="252" style="stroke: #000000; stroke-width: 0.6"/>
      </g>
     </g>
    </g>
    <g id="xtick_17">
     <g id="line2d_17">
      <g>
       <use xlink:href="#m7b7d22d153" x="243.343187" y="252" style="stroke: #000000; stroke-width: 0.6"/>
      </g>
     </g>
    </g>
    <g id="xtick_18">
     <g id="line2d_18">
      <g>
       <use xlink:href="#m7b7d22d153" x="249.882955" y="252" style="stroke: #000000; stroke-width: 0.6"/>
      </g>
     </g>
    </g>
    <g id="xtick_19">
     <g id="line2d_19">
      <g>
       <use xlink:href="#m7b7d22d153" x="255.65144" y="252" style="stroke: #000000; stroke-width: 0.6"/>
      </g>
     </g>
    </g>
    <g id="xtick_20">
     <g id="line2d_20">
      <g>
       <use xlink:href="#m7b7d22d153" x="294.758766" y="252" style="stroke: #000000; stroke-width: 0.6"/>
      </g>
     </g>
    </g>
    <g id="xtick_21">
     <g id="line2d_21">
      <g>
       <use xlink:href="#m7b7d22d153" x="314.616629" y="252" style="stroke: #000000; stroke-width: 0.6"/>
      </g>
     </g>
    </g>
    <g id="xtick_22">
     <g id="line2d_22">
      <g>
       <use xlink:href="#m7b7d22d153" x="328.706007" y="252" style="stroke: #000000; stroke-width: 0.6"/>
      </g>
     </g>
    </g>
    <g id="xtick_23">
     <g id="line2d_23">
      <g>
       <use xlink:href="#m7b7d22d153" x="339.634578" y="252" style="stroke: #000000; stroke-width: 0.6"/>
      </g>
     </g>
    </g>
    <g id="xtick_24">
     <g id="line2d_24">
      <g>
       <use xlink:href="#m7b7d22d153" x="348.56387" y="252" style="stroke: #000000; stroke-width: 0.6"/>
      </g>
     </g>
    </g>
    <g id="xtick_25">
     <g id="line2d_25">
      <g>
       <use xlink:href="#m7b7d22d153" x="356.113479" y="252" style="stroke: #000000; stroke-width: 0.6"/>
      </g>
     </g>
    </g>
    <g id="xtick_26">
     <g id="line2d_26">
      <g>
       <use xlink:href="#m7b7d22d153" x="362.653248" y="252" style="stroke: #000000; stroke-width: 0.6"/>
      </g>
     </g>
    </g>
    <g id="xtick_27">
     <g id="line2d_27">
      <g>
       <use xlink:href="#m7b7d22d153" x="368.421733" y="252" style="stroke: #000000; stroke-width: 0.6"/>
      </g>
     </g>
    </g>
    <g id="text_4">
     <!-- Number of players $n$ -->
     <g transform="translate(170.2 280.278125)scale(0.1 -0.1)">
      <defs>
       <path id="DejaVuSans-4e" d="M 628 4666 
L 1478 4666 
L 3547 763 
L 3547 4666 
L 4159 4666 
L 4159 0 
L 3309 0 
L 1241 3903 
L 1241 0 
L 628 0 
L 628 4666 
z
" transform="scale(0.015625)"/>
       <path id="DejaVuSans-75" d="M 544 1381 
L 544 3500 
L 1119 3500 
L 1119 1403 
Q 1119 906 1312 657 
Q 1506 409 1894 409 
Q 2359 409 2629 706 
Q 2900 1003 2900 1516 
L 2900 3500 
L 3475 3500 
L 3475 0 
L 2900 0 
L 2900 538 
Q 2691 219 2414 64 
Q 2138 -91 1772 -91 
Q 1169 -91 856 284 
Q 544 659 544 1381 
z
M 1991 3584 
L 1991 3584 
z
" transform="scale(0.015625)"/>
       <path id="DejaVuSans-6d" d="M 3328 2828 
Q 3544 3216 3844 3400 
Q 4144 3584 4550 3584 
Q 5097 3584 5394 3201 
Q 5691 2819 5691 2113 
L 5691 0 
L 5113 0 
L 5113 2094 
Q 5113 2597 4934 2840 
Q 4756 3084 4391 3084 
Q 3944 3084 3684 2787 
Q 3425 2491 3425 1978 
L 3425 0 
L 2847 0 
L 2847 2094 
Q 2847 2600 2669 2842 
Q 2491 3084 2119 3084 
Q 1678 3084 1418 2786 
Q 1159 2488 1159 1978 
L 1159 0 
L 581 0 
L 581 3500 
L 1159 3500 
L 1159 2956 
Q 1356 3278 1631 3431 
Q 1906 3584 2284 3584 
Q 2666 3584 2933 3390 
Q 3200 3197 3328 2828 
z
" transform="scale(0.015625)"/>
       <path id="DejaVuSans-62" d="M 3116 1747 
Q 3116 2381 2855 2742 
Q 2594 3103 2138 3103 
Q 1681 3103 1420 2742 
Q 1159 2381 1159 1747 
Q 1159 1113 1420 752 
Q 1681 391 2138 391 
Q 2594 391 2855 752 
Q 3116 1113 3116 1747 
z
M 1159 2969 
Q 1341 3281 1617 3432 
Q 1894 3584 2278 3584 
Q 2916 3584 3314 3078 
Q 3713 2572 3713 1747 
Q 3713 922 3314 415 
Q 2916 -91 2278 -91 
Q 1894 -91 1617 61 
Q 1341 213 1159 525 
L 1159 0 
L 581 0 
L 581 4863 
L 1159 4863 
L 1159 2969 
z
" transform="scale(0.015625)"/>
       <path id="DejaVuSans-65" d="M 3597 1894 
L 3597 1613 
L 953 1613 
Q 991 1019 1311 708 
Q 1631 397 2203 397 
Q 2534 397 2845 478 
Q 3156 559 3463 722 
L 3463 178 
Q 3153 47 2828 -22 
Q 2503 -91 2169 -91 
Q 1331 -91 842 396 
Q 353 884 353 1716 
Q 353 2575 817 3079 
Q 1281 3584 2069 3584 
Q 2775 3584 3186 3129 
Q 3597 2675 3597 1894 
z
M 3022 2063 
Q 3016 2534 2758 2815 
Q 2500 3097 2075 3097 
Q 1594 3097 1305 2825 
Q 1016 2553 972 2059 
L 3022 2063 
z
" transform="scale(0.015625)"/>
       <path id="DejaVuSans-72" d="M 2631 2963 
Q 2534 3019 2420 3045 
Q 2306 3072 2169 3072 
Q 1681 3072 1420 2755 
Q 1159 2438 1159 1844 
L 1159 0 
L 581 0 
L 581 3500 
L 1159 3500 
L 1159 2956 
Q 1341 3275 1631 3429 
Q 1922 3584 2338 3584 
Q 2397 3584 2469 3576 
Q 2541 3569 2628 3553 
L 2631 2963 
z
" transform="scale(0.015625)"/>
       <path id="DejaVuSans-20" transform="scale(0.015625)"/>
       <path id="DejaVuSans-6f" d="M 1959 3097 
Q 1497 3097 1228 2736 
Q 959 2375 959 1747 
Q 959 1119 1226 758 
Q 1494 397 1959 397 
Q 2419 397 2687 759 
Q 2956 1122 2956 1747 
Q 2956 2369 2687 2733 
Q 2419 3097 1959 3097 
z
M 1959 3584 
Q 2709 3584 3137 3096 
Q 3566 2609 3566 1747 
Q 3566 888 3137 398 
Q 2709 -91 1959 -91 
Q 1206 -91 779 398 
Q 353 888 353 1747 
Q 353 2609 779 3096 
Q 1206 3584 1959 3584 
z
" transform="scale(0.015625)"/>
       <path id="DejaVuSans-66" d="M 2375 4863 
L 2375 4384 
L 1825 4384 
Q 1516 4384 1395 4259 
Q 1275 4134 1275 3809 
L 1275 3500 
L 2222 3500 
L 2222 3053 
L 1275 3053 
L 1275 0 
L 697 0 
L 697 3053 
L 147 3053 
L 147 3500 
L 697 3500 
L 697 3744 
Q 697 4328 969 4595 
Q 1241 4863 1831 4863 
L 2375 4863 
z
" transform="scale(0.015625)"/>
       <path id="DejaVuSans-70" d="M 1159 525 
L 1159 -1331 
L 581 -1331 
L 581 3500 
L 1159 3500 
L 1159 2969 
Q 1341 3281 1617 3432 
Q 1894 3584 2278 3584 
Q 2916 3584 3314 3078 
Q 3713 2572 3713 1747 
Q 3713 922 3314 415 
Q 2916 -91 2278 -91 
Q 1894 -91 1617 61 
Q 1341 213 1159 525 
z
M 3116 1747 
Q 3116 2381 2855 2742 
Q 2594 3103 2138 3103 
Q 1681 3103 1420 2742 
Q 1159 2381 1159 1747 
Q 1159 1113 1420 752 
Q 1681 391 2138 391 
Q 2594 391 2855 752 
Q 3116 1113 3116 1747 
z
" transform="scale(0.015625)"/>
       <path id="DejaVuSans-6c" d="M 603 4863 
L 1178 4863 
L 1178 0 
L 603 0 
L 603 4863 
z
" transform="scale(0.015625)"/>
       <path id="DejaVuSans-61" d="M 2194 1759 
Q 1497 1759 1228 1600 
Q 959 1441 959 1056 
Q 959 750 1161 570 
Q 1363 391 1709 391 
Q 2188 391 2477 730 
Q 2766 1069 2766 1631 
L 2766 1759 
L 2194 1759 
z
M 3341 1997 
L 3341 0 
L 2766 0 
L 2766 531 
Q 2569 213 2275 61 
Q 1981 -91 1556 -91 
Q 1019 -91 701 211 
Q 384 513 384 1019 
Q 384 1609 779 1909 
Q 1175 2209 1959 2209 
L 2766 2209 
L 2766 2266 
Q 2766 2663 2505 2880 
Q 2244 3097 1772 3097 
Q 1472 3097 1187 3025 
Q 903 2953 641 2809 
L 641 3341 
Q 956 3463 1253 3523 
Q 1550 3584 1831 3584 
Q 2591 3584 2966 3190 
Q 3341 2797 3341 1997 
z
" transform="scale(0.015625)"/>
       <path id="DejaVuSans-79" d="M 2059 -325 
Q 1816 -950 1584 -1140 
Q 1353 -1331 966 -1331 
L 506 -1331 
L 506 -850 
L 844 -850 
Q 1081 -850 1212 -737 
Q 1344 -625 1503 -206 
L 1606 56 
L 191 3500 
L 800 3500 
L 1894 763 
L 2988 3500 
L 3597 3500 
L 2059 -325 
z
" transform="scale(0.015625)"/>
       <path id="DejaVuSans-73" d="M 2834 3397 
L 2834 2853 
Q 2591 2978 2328 3040 
Q 2066 3103 1784 3103 
Q 1356 3103 1142 2972 
Q 928 2841 928 2578 
Q 928 2378 1081 2264 
Q 1234 2150 1697 2047 
L 1894 2003 
Q 2506 1872 2764 1633 
Q 3022 1394 3022 966 
Q 3022 478 2636 193 
Q 2250 -91 1575 -91 
Q 1294 -91 989 -36 
Q 684 19 347 128 
L 347 722 
Q 666 556 975 473 
Q 1284 391 1588 391 
Q 1994 391 2212 530 
Q 2431 669 2431 922 
Q 2431 1156 2273 1281 
Q 2116 1406 1581 1522 
L 1381 1569 
Q 847 1681 609 1914 
Q 372 2147 372 2553 
Q 372 3047 722 3315 
Q 1072 3584 1716 3584 
Q 2034 3584 2315 3537 
Q 2597 3491 2834 3397 
z
" transform="scale(0.015625)"/>
       <path id="DejaVuSans-Oblique-6e" d="M 3566 2113 
L 3156 0 
L 2578 0 
L 2988 2091 
Q 3016 2238 3031 2350 
Q 3047 2463 3047 2528 
Q 3047 2791 2881 2937 
Q 2716 3084 2419 3084 
Q 1956 3084 1622 2776 
Q 1288 2469 1184 1941 
L 800 0 
L 225 0 
L 903 3500 
L 1478 3500 
L 1363 2950 
Q 1603 3253 1940 3418 
Q 2278 3584 2650 3584 
Q 3113 3584 3367 3334 
Q 3622 3084 3622 2631 
Q 3622 2519 3608 2391 
Q 3594 2263 3566 2113 
z
" transform="scale(0.015625)"/>
      </defs>
      <use xlink:href="#DejaVuSans-4e" transform="translate(0 0.015625)"/>
      <use xlink:href="#DejaVuSans-75" transform="translate(74.804688 0.015625)"/>
      <use xlink:href="#DejaVuSans-6d" transform="translate(138.183594 0.015625)"/>
      <use xlink:href="#DejaVuSans-62" transform="translate(235.595703 0.015625)"/>
      <use xlink:href="#DejaVuSans-65" transform="translate(299.072266 0.015625)"/>
      <use xlink:href="#DejaVuSans-72" transform="translate(360.595703 0.015625)"/>
      <use xlink:href="#DejaVuSans-20" transform="translate(401.708984 0.015625)"/>
      <use xlink:href="#DejaVuSans-6f" transform="translate(433.496094 0.015625)"/>
      <use xlink:href="#DejaVuSans-66" transform="translate(494.677734 0.015625)"/>
      <use xlink:href="#DejaVuSans-20" transform="translate(529.882812 0.015625)"/>
      <use xlink:href="#DejaVuSans-70" transform="translate(561.669922 0.015625)"/>
      <use xlink:href="#DejaVuSans-6c" transform="translate(625.146484 0.015625)"/>
      <use xlink:href="#DejaVuSans-61" transform="translate(652.929688 0.015625)"/>
      <use xlink:href="#DejaVuSans-79" transform="translate(714.208984 0.015625)"/>
      <use xlink:href="#DejaVuSans-65" transform="translate(773.388672 0.015625)"/>
      <use xlink:href="#DejaVuSans-72" transform="translate(834.912109 0.015625)"/>
      <use xlink:href="#DejaVuSans-73" transform="translate(876.025391 0.015625)"/>
      <use xlink:href="#DejaVuSans-20" transform="translate(928.125 0.015625)"/>
      <use xlink:href="#DejaVuSans-Oblique-6e" transform="translate(959.912109 0.015625)"/>
     </g>
    </g>
   </g>
   <g id="matplotlib.axis_2">
    <g id="ytick_1">
     <g id="line2d_28">
      <defs>
       <path id="mfa6fce8506" d="M 0 0 
L -3.5 0 
" style="stroke: #000000; stroke-width: 0.8"/>
      </defs>
      <g>
       <use xlink:href="#mfa6fce8506" x="54" y="252" style="stroke: #000000; stroke-width: 0.8"/>
      </g>
     </g>
     <g id="text_5">
      <!-- $\mathdefault{10^{-2}}$ -->
      <g transform="translate(23.5 255.799219)scale(0.1 -0.1)">
       <defs>
        <path id="DejaVuSans-2212" d="M 678 2272 
L 4684 2272 
L 4684 1741 
L 678 1741 
L 678 2272 
z
" transform="scale(0.015625)"/>
       </defs>
       <use xlink:href="#DejaVuSans-31" transform="translate(0 0.765625)"/>
       <use xlink:href="#DejaVuSans-30" transform="translate(63.623047 0.765625)"/>
       <use xlink:href="#DejaVuSans-2212" transform="translate(128.203125 39.046875)scale(0.7)"/>
       <use xlink:href="#DejaVuSans-32" transform="translate(186.855469 39.046875)scale(0.7)"/>
      </g>
     </g>
    </g>
    <g id="ytick_2">
     <g id="line2d_29">
      <g>
       <use xlink:href="#mfa6fce8506" x="54" y="143.28" style="stroke: #000000; stroke-width: 0.8"/>
      </g>
     </g>
     <g id="text_6">
      <!-- $\mathdefault{10^{-1}}$ -->
      <g transform="translate(23.5 147.079219)scale(0.1 -0.1)">
       <use xlink:href="#DejaVuSans-31" transform="translate(0 0.684375)"/>
       <use xlink:href="#DejaVuSans-30" transform="translate(63.623047 0.684375)"/>
       <use xlink:href="#DejaVuSans-2212" transform="translate(128.203125 38.965625)scale(0.7)"/>
       <use xlink:href="#DejaVuSans-31" transform="translate(186.855469 38.965625)scale(0.7)"/>
      </g>
     </g>
    </g>
    <g id="ytick_3">
     <g id="line2d_30">
      <g>
       <use xlink:href="#mfa6fce8506" x="54" y="34.56" style="stroke: #000000; stroke-width: 0.8"/>
      </g>
     </g>
     <g id="text_7">
      <!-- $\mathdefault{10^{0}}$ -->
      <g transform="translate(29.4 38.359219)scale(0.1 -0.1)">
       <use xlink:href="#DejaVuSans-31" transform="translate(0 0.765625)"/>
       <use xlink:href="#DejaVuSans-30" transform="translate(63.623047 0.765625)"/>
       <use xlink:href="#DejaVuSans-30" transform="translate(128.203125 39.046875)scale(0.7)"/>
      </g>
     </g>
    </g>
    <g id="ytick_4">
     <g id="line2d_31">
      <defs>
       <path id="m8be13f72d2" d="M 0 0 
L -2 0 
" style="stroke: #000000; stroke-width: 0.6"/>
      </defs>
      <g>
       <use xlink:href="#m8be13f72d2" x="54" y="219.272019" style="stroke: #000000; stroke-width: 0.6"/>
      </g>
     </g>
    </g>
    <g id="ytick_5">
     <g id="line2d_32">
      <g>
       <use xlink:href="#m8be13f72d2" x="54" y="200.127377" style="stroke: #000000; stroke-width: 0.6"/>
      </g>
     </g>
    </g>
    <g id="ytick_6">
     <g id="line2d_33">
      <g>
       <use xlink:href="#m8be13f72d2" x="54" y="186.544038" style="stroke: #000000; stroke-width: 0.6"/>
      </g>
     </g>
    </g>
    <g id="ytick_7">
     <g id="line2d_34">
      <g>
       <use xlink:href="#m8be13f72d2" x="54" y="176.007981" style="stroke: #000000; stroke-width: 0.6"/>
      </g>
     </g>
    </g>
    <g id="ytick_8">
     <g id="line2d_35">
      <g>
       <use xlink:href="#m8be13f72d2" x="54" y="167.399396" style="stroke: #000000; stroke-width: 0.6"/>
      </g>
     </g>
    </g>
    <g id="ytick_9">
     <g id="line2d_36">
      <g>
       <use xlink:href="#m8be13f72d2" x="54" y="160.120941" style="stroke: #000000; stroke-width: 0.6"/>
      </g>
     </g>
    </g>
    <g id="ytick_10">
     <g id="line2d_37">
      <g>
       <use xlink:href="#m8be13f72d2" x="54" y="153.816057" style="stroke: #000000; stroke-width: 0.6"/>
      </g>
     </g>
    </g>
    <g id="ytick_11">
     <g id="line2d_38">
      <g>
       <use xlink:href="#m8be13f72d2" x="54" y="148.254754" style="stroke: #000000; stroke-width: 0.6"/>
      </g>
     </g>
    </g>
    <g id="ytick_12">
     <g id="line2d_39">
      <g>
       <use xlink:href="#m8be13f72d2" x="54" y="110.552019" style="stroke: #000000; stroke-width: 0.6"/>
      </g>
     </g>
    </g>
    <g id="ytick_13">
     <g id="line2d_40">
      <g>
       <use xlink:href="#m8be13f72d2" x="54" y="91.407377" style="stroke: #000000; stroke-width: 0.6"/>
      </g>
     </g>
    </g>
    <g id="ytick_14">
     <g id="line2d_41">
      <g>
       <use xlink:href="#m8be13f72d2" x="54" y="77.824038" style="stroke: #000000; stroke-width: 0.6"/>
      </g>
     </g>
    </g>
    <g id="ytick_15">
     <g id="line2d_42">
      <g>
       <use xlink:href="#m8be13f72d2" x="54" y="67.287981" style="stroke: #000000; stroke-width: 0.6"/>
      </g>
     </g>
    </g>
    <g id="ytick_16">
     <g id="line2d_43">
      <g>
       <use xlink:href="#m8be13f72d2" x="54" y="58.679396" style="stroke: #000000; stroke-width: 0.6"/>
      </g>
     </g>
    </g>
    <g id="ytick_17">
     <g id="line2d_44">
      <g>
       <use xlink:href="#m8be13f72d2" x="54" y="51.400941" style="stroke: #000000; stroke-width: 0.6"/>
      </g>
     </g>
    </g>
    <g id="ytick_18">
     <g id="line2d_45">
      <g>
       <use xlink:href="#m8be13f72d2" x="54" y="45.096057" style="stroke: #000000; stroke-width: 0.6"/>
      </g>
     </g>
    </g>
    <g id="ytick_19">
     <g id="line2d_46">
      <g>
       <use xlink:href="#m8be13f72d2" x="54" y="39.534754" style="stroke: #000000; stroke-width: 0.6"/>
      </g>
     </g>
    </g>
    <g id="text_8">
     <!-- Efficiency -->
     <g transform="translate(17.420312 167.440938)rotate(-90)scale(0.1 -0.1)">
      <defs>
       <path id="DejaVuSans-45" d="M 628 4666 
L 3578 4666 
L 3578 4134 
L 1259 4134 
L 1259 2753 
L 3481 2753 
L 3481 2222 
L 1259 2222 
L 1259 531 
L 3634 531 
L 3634 0 
L 628 0 
L 628 4666 
z
" transform="scale(0.015625)"/>
       <path id="DejaVuSans-69" d="M 603 3500 
L 1178 3500 
L 1178 0 
L 603 0 
L 603 3500 
z
M 603 4863 
L 1178 4863 
L 1178 4134 
L 603 4134 
L 603 4863 
z
" transform="scale(0.015625)"/>
       <path id="DejaVuSans-63" d="M 3122 3366 
L 3122 2828 
Q 2878 2963 2633 3030 
Q 2388 3097 2138 3097 
Q 1578 3097 1268 2742 
Q 959 2388 959 1747 
Q 959 1106 1268 751 
Q 1578 397 2138 397 
Q 2388 397 2633 464 
Q 2878 531 3122 666 
L 3122 134 
Q 2881 22 2623 -34 
Q 2366 -91 2075 -91 
Q 1284 -91 818 406 
Q 353 903 353 1747 
Q 353 2603 823 3093 
Q 1294 3584 2113 3584 
Q 2378 3584 2631 3529 
Q 2884 3475 3122 3366 
z
" transform="scale(0.015625)"/>
       <path id="DejaVuSans-6e" d="M 3513 2113 
L 3513 0 
L 2938 0 
L 2938 2094 
Q 2938 2591 2744 2837 
Q 2550 3084 2163 3084 
Q 1697 3084 1428 2787 
Q 1159 2491 1159 1978 
L 1159 0 
L 581 0 
L 581 3500 
L 1159 3500 
L 1159 2956 
Q 1366 3272 1645 3428 
Q 1925 3584 2291 3584 
Q 2894 3584 3203 3211 
Q 3513 2838 3513 2113 
z
" transform="scale(0.015625)"/>
      </defs>
      <use xlink:href="#DejaVuSans-45"/>
      <use xlink:href="#DejaVuSans-66" x="63.183594"/>
      <use xlink:href="#DejaVuSans-66" x="98.388672"/>
      <use xlink:href="#DejaVuSans-69" x="133.59375"/>
      <use xlink:href="#DejaVuSans-63" x="161.376953"/>
      <use xlink:href="#DejaVuSans-69" x="216.357422"/>
      <use xlink:href="#DejaVuSans-65" x="244.140625"/>
      <use xlink:href="#DejaVuSans-6e" x="305.664062"/>
      <use xlink:href="#DejaVuSans-63" x="369.042969"/>
      <use xlink:href="#DejaVuSans-79" x="424.023438"/>
     </g>
    </g>
   </g>
   <g id="line2d_47">
    <path d="M 69.218182 69.995426 
L 89.076045 109.924254 
L 103.165422 173.594255 
L 114.093993 264.0631 
L 115.881361 289 
" clip-path="url(#p61665d1af1)" style="fill: none; stroke: #000000; stroke-width: 1.5; stroke-linecap: square"/>
   </g>
   <g id="line2d_48">
    <path d="M 69.218182 63.422074 
L 89.076045 82.901453 
L 103.165422 106.193839 
L 114.093993 135.963592 
L 130.572894 223.792064 
L 137.112663 281.858276 
L 137.697913 289 
" clip-path="url(#p61665d1af1)" style="fill: none; stroke-dasharray: 5.55,2.4; stroke-dashoffset: 0; stroke: #000000; stroke-width: 1.5"/>
   </g>
   <g id="line2d_49">
    <path d="M 69.218182 59.176742 
L 89.076045 68.654301 
L 103.165422 76.33771 
L 114.093993 83.287058 
L 130.572894 96.217486 
L 137.112663 102.486496 
L 148.041234 115.05342 
L 160.890659 134.882208 
L 171.059904 157.25185 
L 179.476359 183.914141 
L 190.917766 243.196784 
L 196.190204 289 
" clip-path="url(#p61665d1af1)" style="fill: none; stroke-dasharray: 1.5,2.475; stroke-dashoffset: 0; stroke: #000000; stroke-width: 1.5"/>
   </g>
   <g id="line2d_50">
    <path d="M 69.218182 58.244552 
L 89.076045 65.918122 
L 103.165422 71.375529 
L 114.093993 75.797495 
L 130.572894 82.910794 
L 137.112663 85.902227 
L 148.041234 91.127434 
L 160.890659 97.637874 
L 171.059904 103.068445 
L 179.476359 107.743943 
L 190.917766 114.352659 
L 200.185991 119.908886 
L 210.775629 126.468375 
L 221.7042 133.45745 
L 231.53215 139.923244 
L 241.923507 146.928811 
L 251.685939 153.643618 
L 262.259183 161.092934 
L 272.130342 168.158952 
L 282.275287 175.59472 
L 292.503741 183.230936 
L 302.656957 190.351235 
L 312.78711 198.5332 
L 322.998703 206.359818 
L 333.038805 211.811903 
L 343.222057 221.618014 
L 353.305884 229.699611 
L 363.442703 248.492695 
L 373.581818 262.429175 
" clip-path="url(#p61665d1af1)" style="fill: none; stroke-dasharray: 9.6,2.4,1.5,2.4; stroke-dashoffset: 0; stroke: #000000; stroke-width: 1.5"/>
   </g>
   <g id="line2d_51">
    <path d="M 69.218182 57.360756 
L 89.076045 63.458346 
L 103.165422 67.143966 
L 114.093993 69.73749 
L 130.572894 73.216213 
L 137.112663 74.439882 
L 148.041234 76.26258 
L 160.890659 78.01767 
L 171.059904 79.088824 
L 179.476359 79.756869 
L 190.917766 80.351364 
L 200.185991 80.579106 
L 210.775629 80.582038 
L 221.7042 80.330705 
L 231.53215 79.913686 
L 241.923507 79.306339 
L 251.685939 78.613184 
L 262.259183 77.759943 
L 272.130342 76.895247 
L 282.275287 75.941543 
L 292.503741 74.939767 
L 302.656957 73.948212 
L 312.78711 72.911846 
L 322.998703 71.856369 
L 333.038805 70.963665 
L 343.222057 69.762544 
L 353.305884 69.098419 
L 363.442703 68.189864 
L 373.581818 67.092756 
" clip-path="url(#p61665d1af1)" style="fill: none; stroke: #000000; stroke-width: 1.5; stroke-linecap: square"/>
    <defs>
     <path id="mde73cce761" d="M 0 1.5 
C 0.397805 1.5 0.77937 1.341951 1.06066 1.06066 
C 1.341951 0.77937 1.5 0.397805 1.5 0 
C 1.5 -0.397805 1.341951 -0.77937 1.06066 -1.06066 
C 0.77937 -1.341951 0.397805 -1.5 0 -1.5 
C -0.397805 -1.5 -0.77937 -1.341951 -1.06066 -1.06066 
C -1.341951 -0.77937 -1.5 -0.397805 -1.5 0 
C -1.5 0.397805 -1.341951 0.77937 -1.06066 1.06066 
C -0.77937 1.341951 -0.397805 1.5 0 1.5 
z
" style="stroke: #000000"/>
    </defs>
    <g clip-path="url(#p61665d1af1)">
     <use xlink:href="#mde73cce761" x="69.218182" y="57.360756" style="stroke: #000000"/>
     <use xlink:href="#mde73cce761" x="89.076045" y="63.458346" style="stroke: #000000"/>
     <use xlink:href="#mde73cce761" x="103.165422" y="67.143966" style="stroke: #000000"/>
     <use xlink:href="#mde73cce761" x="114.093993" y="69.73749" style="stroke: #000000"/>
     <use xlink:href="#mde73cce761" x="130.572894" y="73.216213" style="stroke: #000000"/>
     <use xlink:href="#mde73cce761" x="137.112663" y="74.439882" style="stroke: #000000"/>
     <use xlink:href="#mde73cce761" x="148.041234" y="76.26258" style="stroke: #000000"/>
     <use xlink:href="#mde73cce761" x="160.890659" y="78.01767" style="stroke: #000000"/>
     <use xlink:href="#mde73cce761" x="171.059904" y="79.088824" style="stroke: #000000"/>
     <use xlink:href="#mde73cce761" x="179.476359" y="79.756869" style="stroke: #000000"/>
     <use xlink:href="#mde73cce761" x="190.917766" y="80.351364" style="stroke: #000000"/>
     <use xlink:href="#mde73cce761" x="200.185991" y="80.579106" style="stroke: #000000"/>
     <use xlink:href="#mde73cce761" x="210.775629" y="80.582038" style="stroke: #000000"/>
     <use xlink:href="#mde73cce761" x="221.7042" y="80.330705" style="stroke: #000000"/>
     <use xlink:href="#mde73cce761" x="231.53215" y="79.913686" style="stroke: #000000"/>
     <use xlink:href="#mde73cce761" x="241.923507" y="79.306339" style="stroke: #000000"/>
     <use xlink:href="#mde73cce761" x="251.685939" y="78.613184" style="stroke: #000000"/>
     <use xlink:href="#mde73cce761" x="262.259183" y="77.759943" style="stroke: #000000"/>
     <use xlink:href="#mde73cce761" x="272.130342" y="76.895247" style="stroke: #000000"/>
     <use xlink:href="#mde73cce761" x="282.275287" y="75.941543" style="stroke: #000000"/>
     <use xlink:href="#mde73cce761" x="292.503741" y="74.939767" style="stroke: #000000"/>
     <use xlink:href="#mde73cce761" x="302.656957" y="73.948212" style="stroke: #000000"/>
     <use xlink:href="#mde73cce761" x="312.78711" y="72.911846" style="stroke: #000000"/>
     <use xlink:href="#mde73cce761" x="322.998703" y="71.856369" style="stroke: #000000"/>
     <use xlink:href="#mde73cce761" x="333.038805" y="70.963665" style="stroke: #000000"/>
     <use xlink:href="#mde73cce761" x="343.222057" y="69.762544" style="stroke: #000000"/>
     <use xlink:href="#mde73cce761" x="353.305884" y="69.098419" style="stroke: #000000"/>
     <use xlink:href="#mde73cce761" x="363.442703" y="68.189864" style="stroke: #000000"/>
     <use xlink:href="#mde73cce761" x="373.581818" y="67.092756" style="stroke: #000000"/>
    </g>
   </g>
   <g id="line2d_52">
    <path d="M 69.218182 54.274706 
L 89.076045 55.899475 
L 103.165422 55.537528 
L 114.093993 54.703122 
L 130.572894 52.895388 
L 137.112663 52.074491 
L 148.041234 50.649401 
L 160.890659 48.967963 
L 171.059904 47.681136 
L 179.476359 46.664513 
L 190.917766 45.36851 
L 200.185991 44.397107 
L 210.775629 43.376757 
L 221.7042 42.422075 
L 231.53215 41.645512 
L 241.923507 40.901803 
L 251.685939 40.271692 
L 262.259183 39.655974 
L 272.130342 39.143351 
L 282.275287 38.670141 
L 292.503741 38.242293 
L 302.656957 37.864957 
L 312.78711 37.500251 
L 322.998703 37.263183 
L 333.038805 36.917973 
L 343.222057 36.633269 
L 353.305884 36.571157 
L 363.442703 36.301758 
L 373.581818 36.065918 
" clip-path="url(#p61665d1af1)" style="fill: none; stroke-dasharray: 5.55,2.4; stroke-dashoffset: 0; stroke: #000000; stroke-width: 1.5"/>
    <g clip-path="url(#p61665d1af1)">
     <use xlink:href="#mde73cce761" x="69.218182" y="54.274706" style="stroke: #000000"/>
     <use xlink:href="#mde73cce761" x="89.076045" y="55.899475" style="stroke: #000000"/>
     <use xlink:href="#mde73cce761" x="103.165422" y="55.537528" style="stroke: #000000"/>
     <use xlink:href="#mde73cce761" x="114.093993" y="54.703122" style="stroke: #000000"/>
     <use xlink:href="#mde73cce761" x="130.572894" y="52.895388" style="stroke: #000000"/>
     <use xlink:href="#mde73cce761" x="137.112663" y="52.074491" style="stroke: #000000"/>
     <use xlink:href="#mde73cce761" x="148.041234" y="50.649401" style="stroke: #000000"/>
     <use xlink:href="#mde73cce761" x="160.890659" y="48.967963" style="stroke: #000000"/>
     <use xlink:href="#mde73cce761" x="171.059904" y="47.681136" style="stroke: #000000"/>
     <use xlink:href="#mde73cce761" x="179.476359" y="46.664513" style="stroke: #000000"/>
     <use xlink:href="#mde73cce761" x="190.917766" y="45.36851" style="stroke: #000000"/>
     <use xlink:href="#mde73cce761" x="200.185991" y="44.397107" style="stroke: #000000"/>
     <use xlink:href="#mde73cce761" x="210.775629" y="43.376757" style="stroke: #000000"/>
     <use xlink:href="#mde73cce761" x="221.7042" y="42.422075" style="stroke: #000000"/>
     <use xlink:href="#mde73cce761" x="231.53215" y="41.645512" style="stroke: #000000"/>
     <use xlink:href="#mde73cce761" x="241.923507" y="40.901803" style="stroke: #000000"/>
     <use xlink:href="#mde73cce761" x="251.685939" y="40.271692" style="stroke: #000000"/>
     <use xlink:href="#mde73cce761" x="262.259183" y="39.655974" style="stroke: #000000"/>
     <use xlink:href="#mde73cce761" x="272.130342" y="39.143351" style="stroke: #000000"/>
     <use xlink:href="#mde73cce761" x="282.275287" y="38.670141" style="stroke: #000000"/>
     <use xlink:href="#mde73cce761" x="292.503741" y="38.242293" style="stroke: #000000"/>
     <use xlink:href="#mde73cce761" x="302.656957" y="37.864957" style="stroke: #000000"/>
     <use xlink:href="#mde73cce761" x="312.78711" y="37.500251" style="stroke: #000000"/>
     <use xlink:href="#mde73cce761" x="322.998703" y="37.263183" style="stroke: #000000"/>
     <use xlink:href="#mde73cce761" x="333.038805" y="36.917973" style="stroke: #000000"/>
     <use xlink:href="#mde73cce761" x="343.222057" y="36.633269" style="stroke: #000000"/>
     <use xlink:href="#mde73cce761" x="353.305884" y="36.571157" style="stroke: #000000"/>
     <use xlink:href="#mde73cce761" x="363.442703" y="36.301758" style="stroke: #000000"/>
     <use xlink:href="#mde73cce761" x="373.581818" y="36.065918" style="stroke: #000000"/>
    </g>
   </g>
   <g id="patch_3">
    <path d="M 54 252 
L 54 34.56 
" style="fill: none; stroke: #000000; stroke-width: 0.8; stroke-linejoin: miter; stroke-linecap: square"/>
   </g>
   <g id="patch_4">
    <path d="M 388.8 252 
L 388.8 34.56 
" style="fill: none; stroke: #000000; stroke-width: 0.8; stroke-linejoin: miter; stroke-linecap: square"/>
   </g>
   <g id="patch_5">
    <path d="M 54 252 
L 388.8 252 
" style="fill: none; stroke: #000000; stroke-width: 0.8; stroke-linejoin: miter; stroke-linecap: square"/>
   </g>
   <g id="patch_6">
    <path d="M 54 34.56 
L 388.8 34.56 
" style="fill: none; stroke: #000000; stroke-width: 0.8; stroke-linejoin: miter; stroke-linecap: square"/>
   </g>
   <g id="text_9">
    <!-- Efficiency with $C=n^{-e}$ for various values of $e$ -->
    <g transform="translate(85.2 28.56)scale(0.12 -0.12)">
     <defs>
      <path id="DejaVuSans-77" d="M 269 3500 
L 844 3500 
L 1563 769 
L 2278 3500 
L 2956 3500 
L 3675 769 
L 4391 3500 
L 4966 3500 
L 4050 0 
L 3372 0 
L 2619 2869 
L 1863 0 
L 1184 0 
L 269 3500 
z
" transform="scale(0.015625)"/>
      <path id="DejaVuSans-74" d="M 1172 4494 
L 1172 3500 
L 2356 3500 
L 2356 3053 
L 1172 3053 
L 1172 1153 
Q 1172 725 1289 603 
Q 1406 481 1766 481 
L 2356 481 
L 2356 0 
L 1766 0 
Q 1100 0 847 248 
Q 594 497 594 1153 
L 594 3053 
L 172 3053 
L 172 3500 
L 594 3500 
L 594 4494 
L 1172 4494 
z
" transform="scale(0.015625)"/>
      <path id="DejaVuSans-68" d="M 3513 2113 
L 3513 0 
L 2938 0 
L 2938 2094 
Q 2938 2591 2744 2837 
Q 2550 3084 2163 3084 
Q 1697 3084 1428 2787 
Q 1159 2491 1159 1978 
L 1159 0 
L 581 0 
L 581 4863 
L 1159 4863 
L 1159 2956 
Q 1366 3272 1645 3428 
Q 1925 3584 2291 3584 
Q 2894 3584 3203 3211 
Q 3513 2838 3513 2113 
z
" transform="scale(0.015625)"/>
      <path id="DejaVuSans-Oblique-43" d="M 4447 4306 
L 4319 3641 
Q 4019 3944 3683 4091 
Q 3347 4238 2956 4238 
Q 2422 4238 2017 3981 
Q 1613 3725 1319 3200 
Q 1131 2863 1032 2486 
Q 934 2109 934 1728 
Q 934 1091 1264 756 
Q 1594 422 2222 422 
Q 2656 422 3056 561 
Q 3456 700 3834 978 
L 3688 231 
Q 3316 72 2936 -9 
Q 2556 -91 2175 -91 
Q 1278 -91 773 396 
Q 269 884 269 1753 
Q 269 2309 461 2846 
Q 653 3384 1013 3828 
Q 1394 4300 1883 4525 
Q 2372 4750 3022 4750 
Q 3422 4750 3780 4639 
Q 4138 4528 4447 4306 
z
" transform="scale(0.015625)"/>
      <path id="DejaVuSans-3d" d="M 678 2906 
L 4684 2906 
L 4684 2381 
L 678 2381 
L 678 2906 
z
M 678 1631 
L 4684 1631 
L 4684 1100 
L 678 1100 
L 678 1631 
z
" transform="scale(0.015625)"/>
      <path id="DejaVuSans-Oblique-65" d="M 3078 2063 
Q 3088 2113 3092 2166 
Q 3097 2219 3097 2272 
Q 3097 2653 2873 2875 
Q 2650 3097 2266 3097 
Q 1838 3097 1509 2826 
Q 1181 2556 1013 2059 
L 3078 2063 
z
M 3578 1613 
L 903 1613 
Q 884 1494 878 1425 
Q 872 1356 872 1306 
Q 872 872 1139 634 
Q 1406 397 1894 397 
Q 2269 397 2603 481 
Q 2938 566 3225 728 
L 3116 159 
Q 2806 34 2476 -28 
Q 2147 -91 1806 -91 
Q 1078 -91 686 257 
Q 294 606 294 1247 
Q 294 1794 489 2264 
Q 684 2734 1063 3103 
Q 1306 3334 1642 3459 
Q 1978 3584 2356 3584 
Q 2950 3584 3301 3228 
Q 3653 2872 3653 2272 
Q 3653 2128 3634 1964 
Q 3616 1800 3578 1613 
z
" transform="scale(0.015625)"/>
      <path id="DejaVuSans-76" d="M 191 3500 
L 800 3500 
L 1894 563 
L 2988 3500 
L 3597 3500 
L 2284 0 
L 1503 0 
L 191 3500 
z
" transform="scale(0.015625)"/>
     </defs>
     <use xlink:href="#DejaVuSans-45" transform="translate(0 0.51875)"/>
     <use xlink:href="#DejaVuSans-66" transform="translate(63.183594 0.51875)"/>
     <use xlink:href="#DejaVuSans-66" transform="translate(98.388672 0.51875)"/>
     <use xlink:href="#DejaVuSans-69" transform="translate(133.59375 0.51875)"/>
     <use xlink:href="#DejaVuSans-63" transform="translate(161.376953 0.51875)"/>
     <use xlink:href="#DejaVuSans-69" transform="translate(216.357422 0.51875)"/>
     <use xlink:href="#DejaVuSans-65" transform="translate(244.140625 0.51875)"/>
     <use xlink:href="#DejaVuSans-6e" transform="translate(305.664062 0.51875)"/>
     <use xlink:href="#DejaVuSans-63" transform="translate(369.042969 0.51875)"/>
     <use xlink:href="#DejaVuSans-79" transform="translate(424.023438 0.51875)"/>
     <use xlink:href="#DejaVuSans-20" transform="translate(483.203125 0.51875)"/>
     <use xlink:href="#DejaVuSans-77" transform="translate(514.990234 0.51875)"/>
     <use xlink:href="#DejaVuSans-69" transform="translate(596.777344 0.51875)"/>
     <use xlink:href="#DejaVuSans-74" transform="translate(624.560547 0.51875)"/>
     <use xlink:href="#DejaVuSans-68" transform="translate(663.769531 0.51875)"/>
     <use xlink:href="#DejaVuSans-20" transform="translate(727.148438 0.51875)"/>
     <use xlink:href="#DejaVuSans-Oblique-43" transform="translate(758.935547 0.51875)"/>
     <use xlink:href="#DejaVuSans-3d" transform="translate(848.242188 0.51875)"/>
     <use xlink:href="#DejaVuSans-Oblique-6e" transform="translate(951.513672 0.51875)"/>
     <use xlink:href="#DejaVuSans-2212" transform="translate(1019.542474 38.8)scale(0.7)"/>
     <use xlink:href="#DejaVuSans-Oblique-65" transform="translate(1078.194818 38.8)scale(0.7)"/>
     <use xlink:href="#DejaVuSans-20" transform="translate(1123.995599 0.51875)"/>
     <use xlink:href="#DejaVuSans-66" transform="translate(1155.782708 0.51875)"/>
     <use xlink:href="#DejaVuSans-6f" transform="translate(1190.987786 0.51875)"/>
     <use xlink:href="#DejaVuSans-72" transform="translate(1252.169427 0.51875)"/>
     <use xlink:href="#DejaVuSans-20" transform="translate(1293.282708 0.51875)"/>
     <use xlink:href="#DejaVuSans-76" transform="translate(1325.069818 0.51875)"/>
     <use xlink:href="#DejaVuSans-61" transform="translate(1384.249505 0.51875)"/>
     <use xlink:href="#DejaVuSans-72" transform="translate(1445.528802 0.51875)"/>
     <use xlink:href="#DejaVuSans-69" transform="translate(1486.642083 0.51875)"/>
     <use xlink:href="#DejaVuSans-6f" transform="translate(1514.425286 0.51875)"/>
     <use xlink:href="#DejaVuSans-75" transform="translate(1575.606927 0.51875)"/>
     <use xlink:href="#DejaVuSans-73" transform="translate(1638.985833 0.51875)"/>
     <use xlink:href="#DejaVuSans-20" transform="translate(1691.085443 0.51875)"/>
     <use xlink:href="#DejaVuSans-76" transform="translate(1722.872552 0.51875)"/>
     <use xlink:href="#DejaVuSans-61" transform="translate(1782.05224 0.51875)"/>
     <use xlink:href="#DejaVuSans-6c" transform="translate(1843.331536 0.51875)"/>
     <use xlink:href="#DejaVuSans-75" transform="translate(1871.11474 0.51875)"/>
     <use xlink:href="#DejaVuSans-65" transform="translate(1934.493646 0.51875)"/>
     <use xlink:href="#DejaVuSans-73" transform="translate(1996.017083 0.51875)"/>
     <use xlink:href="#DejaVuSans-20" transform="translate(2048.116693 0.51875)"/>
     <use xlink:href="#DejaVuSans-6f" transform="translate(2079.903802 0.51875)"/>
     <use xlink:href="#DejaVuSans-66" transform="translate(2141.085443 0.51875)"/>
     <use xlink:href="#DejaVuSans-20" transform="translate(2176.290521 0.51875)"/>
     <use xlink:href="#DejaVuSans-Oblique-65" transform="translate(2208.07763 0.51875)"/>
    </g>
   </g>
   <g id="legend_1">
    <g id="patch_7">
     <path d="M 315.4 188.814375 
L 381.8 188.814375 
Q 383.8 188.814375 383.8 186.814375 
L 383.8 99.745625 
Q 383.8 97.745625 381.8 97.745625 
L 315.4 97.745625 
Q 313.4 97.745625 313.4 99.745625 
L 313.4 186.814375 
Q 313.4 188.814375 315.4 188.814375 
z
" style="fill: #ffffff; opacity: 0.8; stroke: #cccccc; stroke-linejoin: miter"/>
    </g>
    <g id="line2d_53">
     <path d="M 317.4 105.844063 
L 327.4 105.844063 
L 337.4 105.844063 
" style="fill: none; stroke: #000000; stroke-width: 1.5; stroke-linecap: square"/>
    </g>
    <g id="text_10">
     <!-- $e=0$ -->
     <g transform="translate(345.4 109.344063)scale(0.1 -0.1)">
      <use xlink:href="#DejaVuSans-Oblique-65" transform="translate(0 0.78125)"/>
      <use xlink:href="#DejaVuSans-3d" transform="translate(81.005859 0.78125)"/>
      <use xlink:href="#DejaVuSans-30" transform="translate(184.277344 0.78125)"/>
     </g>
    </g>
    <g id="line2d_54">
     <path d="M 317.4 120.522188 
L 327.4 120.522188 
L 337.4 120.522188 
" style="fill: none; stroke-dasharray: 5.55,2.4; stroke-dashoffset: 0; stroke: #000000; stroke-width: 1.5"/>
    </g>
    <g id="text_11">
     <!-- $e=0.5$ -->
     <g transform="translate(345.4 124.022188)scale(0.1 -0.1)">
      <defs>
       <path id="DejaVuSans-2e" d="M 684 794 
L 1344 794 
L 1344 0 
L 684 0 
L 684 794 
z
" transform="scale(0.015625)"/>
       <path id="DejaVuSans-35" d="M 691 4666 
L 3169 4666 
L 3169 4134 
L 1269 4134 
L 1269 2991 
Q 1406 3038 1543 3061 
Q 1681 3084 1819 3084 
Q 2600 3084 3056 2656 
Q 3513 2228 3513 1497 
Q 3513 744 3044 326 
Q 2575 -91 1722 -91 
Q 1428 -91 1123 -41 
Q 819 9 494 109 
L 494 744 
Q 775 591 1075 516 
Q 1375 441 1709 441 
Q 2250 441 2565 725 
Q 2881 1009 2881 1497 
Q 2881 1984 2565 2268 
Q 2250 2553 1709 2553 
Q 1456 2553 1204 2497 
Q 953 2441 691 2322 
L 691 4666 
z
" transform="scale(0.015625)"/>
      </defs>
      <use xlink:href="#DejaVuSans-Oblique-65" transform="translate(0 0.78125)"/>
      <use xlink:href="#DejaVuSans-3d" transform="translate(81.005859 0.78125)"/>
      <use xlink:href="#DejaVuSans-30" transform="translate(184.277344 0.78125)"/>
      <use xlink:href="#DejaVuSans-2e" transform="translate(247.900391 0.78125)"/>
      <use xlink:href="#DejaVuSans-35" transform="translate(279.6875 0.78125)"/>
     </g>
    </g>
    <g id="line2d_55">
     <path d="M 317.4 135.200312 
L 327.4 135.200312 
L 337.4 135.200312 
" style="fill: none; stroke-dasharray: 1.5,2.475; stroke-dashoffset: 0; stroke: #000000; stroke-width: 1.5"/>
    </g>
    <g id="text_12">
     <!-- $e=0.9$ -->
     <g transform="translate(345.4 138.700312)scale(0.1 -0.1)">
      <defs>
       <path id="DejaVuSans-39" d="M 703 97 
L 703 672 
Q 941 559 1184 500 
Q 1428 441 1663 441 
Q 2288 441 2617 861 
Q 2947 1281 2994 2138 
Q 2813 1869 2534 1725 
Q 2256 1581 1919 1581 
Q 1219 1581 811 2004 
Q 403 2428 403 3163 
Q 403 3881 828 4315 
Q 1253 4750 1959 4750 
Q 2769 4750 3195 4129 
Q 3622 3509 3622 2328 
Q 3622 1225 3098 567 
Q 2575 -91 1691 -91 
Q 1453 -91 1209 -44 
Q 966 3 703 97 
z
M 1959 2075 
Q 2384 2075 2632 2365 
Q 2881 2656 2881 3163 
Q 2881 3666 2632 3958 
Q 2384 4250 1959 4250 
Q 1534 4250 1286 3958 
Q 1038 3666 1038 3163 
Q 1038 2656 1286 2365 
Q 1534 2075 1959 2075 
z
" transform="scale(0.015625)"/>
      </defs>
      <use xlink:href="#DejaVuSans-Oblique-65" transform="translate(0 0.78125)"/>
      <use xlink:href="#DejaVuSans-3d" transform="translate(81.005859 0.78125)"/>
      <use xlink:href="#DejaVuSans-30" transform="translate(184.277344 0.78125)"/>
      <use xlink:href="#DejaVuSans-2e" transform="translate(247.900391 0.78125)"/>
      <use xlink:href="#DejaVuSans-39" transform="translate(279.6875 0.78125)"/>
     </g>
    </g>
    <g id="line2d_56">
     <path d="M 317.4 149.878438 
L 327.4 149.878438 
L 337.4 149.878438 
" style="fill: none; stroke-dasharray: 9.6,2.4,1.5,2.4; stroke-dashoffset: 0; stroke: #000000; stroke-width: 1.5"/>
    </g>
    <g id="text_13">
     <!-- $e=1$ -->
     <g transform="translate(345.4 153.378438)scale(0.1 -0.1)">
      <use xlink:href="#DejaVuSans-Oblique-65" transform="translate(0 0.09375)"/>
      <use xlink:href="#DejaVuSans-3d" transform="translate(81.005859 0.09375)"/>
      <use xlink:href="#DejaVuSans-31" transform="translate(184.277344 0.09375)"/>
     </g>
    </g>
    <g id="line2d_57">
     <path d="M 317.4 164.556563 
L 327.4 164.556563 
L 337.4 164.556563 
" style="fill: none; stroke: #000000; stroke-width: 1.5; stroke-linecap: square"/>
     <g>
      <use xlink:href="#mde73cce761" x="327.4" y="164.556563" style="stroke: #000000"/>
     </g>
    </g>
    <g id="text_14">
     <!-- $e=1.1$ -->
     <g transform="translate(345.4 168.056563)scale(0.1 -0.1)">
      <use xlink:href="#DejaVuSans-Oblique-65" transform="translate(0 0.09375)"/>
      <use xlink:href="#DejaVuSans-3d" transform="translate(81.005859 0.09375)"/>
      <use xlink:href="#DejaVuSans-31" transform="translate(184.277344 0.09375)"/>
      <use xlink:href="#DejaVuSans-2e" transform="translate(247.900391 0.09375)"/>
      <use xlink:href="#DejaVuSans-31" transform="translate(279.6875 0.09375)"/>
     </g>
    </g>
    <g id="line2d_58">
     <path d="M 317.4 179.234688 
L 327.4 179.234688 
L 337.4 179.234688 
" style="fill: none; stroke-dasharray: 5.55,2.4; stroke-dashoffset: 0; stroke: #000000; stroke-width: 1.5"/>
     <g>
      <use xlink:href="#mde73cce761" x="327.4" y="179.234688" style="stroke: #000000"/>
     </g>
    </g>
    <g id="text_15">
     <!-- $e=1.5$ -->
     <g transform="translate(345.4 182.734688)scale(0.1 -0.1)">
      <use xlink:href="#DejaVuSans-Oblique-65" transform="translate(0 0.09375)"/>
      <use xlink:href="#DejaVuSans-3d" transform="translate(81.005859 0.09375)"/>
      <use xlink:href="#DejaVuSans-31" transform="translate(184.277344 0.09375)"/>
      <use xlink:href="#DejaVuSans-2e" transform="translate(247.900391 0.09375)"/>
      <use xlink:href="#DejaVuSans-35" transform="translate(279.6875 0.09375)"/>
     </g>
    </g>
   </g>
  </g>
 </g>
 <defs>
  <clipPath id="p61665d1af1">
   <rect x="54" y="34.56" width="334.8" height="217.44"/>
  </clipPath>
 </defs>
</svg>
