<?xml version="1.0" encoding="utf-8" standalone="no"?>
<!DOCTYPE svg PUBLIC "-//W3C//DTD SVG 1.1//EN"
  "http://www.w3.org/Graphics/SVG/1.1/DTD/svg11.dtd">
<svg xmlns:xlink="http://www.w3.org/1999/xlink" width="432pt" height="288pt" viewBox="0 0 432 288" xmlns="http://www.w3.org/2000/svg" version="1.1">
 <metadata>
  <rdf:RDF xmlns:dc="http://purl.org/dc/elements/1.1/" xmlns:cc="http://creativecommons.org/ns#" xmlns:rdf="http://www.w3.org/1999/02/22-rdf-syntax-ns#">
   <cc:Work>
    <dc:type rdf:resource="http://purl.org/dc/dcmitype/StillImage"/>
    <dc:date>2023-04-21T00:34:55.258303</dc:date>
    <dc:format>image/svg+xml</dc:format>
    <dc:creator>
     <cc:Agent>
      <dc:title>Matplotlib v3.5.1, https://matplotlib.org/</dc:title>
     </cc:Agent>
    </dc:creator>
   </cc:Work>
  </rdf:RDF>
 </metadata>
 <defs>
  <style type="text/css">*{stroke-linejoin: round; stroke-linecap: butt}</style>
 </defs>
 <g id="figure_1">
  <g id="patch_1">
   <path d="M 0 288 
L 432 288 
L 432 0 
L 0 0 
L 0 288 
z
" style="fill: none"/>
  </g>
  <g id="axes_1">
   <g id="patch_2">
    <path d="M 54 252 
L 388.8 252 
L 388.8 34.56 
L 54 34.56 
z
" style="fill: #ffffff"/>
   </g>
   <g id="matplotlib.axis_1">
    <g id="xtick_1">
     <g id="line2d_1">
      <defs>
       <path id="m10646241f4" d="M 0 0 
L 0 3.5 
" style="stroke: #000000; stroke-width: 0.8"/>
      </defs>
      <g>
       <use xlink:href="#m10646241f4" x="69.218182" y="252" style="stroke: #000000; stroke-width: 0.8"/>
      </g>
     </g>
     <g id="text_1">
      <!-- −1.00 -->
      <g transform="translate(53.895526 266.598437)scale(0.1 -0.1)">
       <defs>
        <path id="DejaVuSans-2212" d="M 678 2272 
L 4684 2272 
L 4684 1741 
L 678 1741 
L 678 2272 
z
" transform="scale(0.015625)"/>
        <path id="DejaVuSans-31" d="M 794 531 
L 1825 531 
L 1825 4091 
L 703 3866 
L 703 4441 
L 1819 4666 
L 2450 4666 
L 2450 531 
L 3481 531 
L 3481 0 
L 794 0 
L 794 531 
z
" transform="scale(0.015625)"/>
        <path id="DejaVuSans-2e" d="M 684 794 
L 1344 794 
L 1344 0 
L 684 0 
L 684 794 
z
" transform="scale(0.015625)"/>
        <path id="DejaVuSans-30" d="M 2034 4250 
Q 1547 4250 1301 3770 
Q 1056 3291 1056 2328 
Q 1056 1369 1301 889 
Q 1547 409 2034 409 
Q 2525 409 2770 889 
Q 3016 1369 3016 2328 
Q 3016 3291 2770 3770 
Q 2525 4250 2034 4250 
z
M 2034 4750 
Q 2819 4750 3233 4129 
Q 3647 3509 3647 2328 
Q 3647 1150 3233 529 
Q 2819 -91 2034 -91 
Q 1250 -91 836 529 
Q 422 1150 422 2328 
Q 422 3509 836 4129 
Q 1250 4750 2034 4750 
z
" transform="scale(0.015625)"/>
       </defs>
       <use xlink:href="#DejaVuSans-2212"/>
       <use xlink:href="#DejaVuSans-31" x="83.789062"/>
       <use xlink:href="#DejaVuSans-2e" x="147.412109"/>
       <use xlink:href="#DejaVuSans-30" x="179.199219"/>
       <use xlink:href="#DejaVuSans-30" x="242.822266"/>
      </g>
     </g>
    </g>
    <g id="xtick_2">
     <g id="line2d_2">
      <g>
       <use xlink:href="#m10646241f4" x="107.263636" y="252" style="stroke: #000000; stroke-width: 0.8"/>
      </g>
     </g>
     <g id="text_2">
      <!-- −0.75 -->
      <g transform="translate(91.94098 266.598437)scale(0.1 -0.1)">
       <defs>
        <path id="DejaVuSans-37" d="M 525 4666 
L 3525 4666 
L 3525 4397 
L 1831 0 
L 1172 0 
L 2766 4134 
L 525 4134 
L 525 4666 
z
" transform="scale(0.015625)"/>
        <path id="DejaVuSans-35" d="M 691 4666 
L 3169 4666 
L 3169 4134 
L 1269 4134 
L 1269 2991 
Q 1406 3038 1543 3061 
Q 1681 3084 1819 3084 
Q 2600 3084 3056 2656 
Q 3513 2228 3513 1497 
Q 3513 744 3044 326 
Q 2575 -91 1722 -91 
Q 1428 -91 1123 -41 
Q 819 9 494 109 
L 494 744 
Q 775 591 1075 516 
Q 1375 441 1709 441 
Q 2250 441 2565 725 
Q 2881 1009 2881 1497 
Q 2881 1984 2565 2268 
Q 2250 2553 1709 2553 
Q 1456 2553 1204 2497 
Q 953 2441 691 2322 
L 691 4666 
z
" transform="scale(0.015625)"/>
       </defs>
       <use xlink:href="#DejaVuSans-2212"/>
       <use xlink:href="#DejaVuSans-30" x="83.789062"/>
       <use xlink:href="#DejaVuSans-2e" x="147.412109"/>
       <use xlink:href="#DejaVuSans-37" x="179.199219"/>
       <use xlink:href="#DejaVuSans-35" x="242.822266"/>
      </g>
     </g>
    </g>
    <g id="xtick_3">
     <g id="line2d_3">
      <g>
       <use xlink:href="#m10646241f4" x="145.309091" y="252" style="stroke: #000000; stroke-width: 0.8"/>
      </g>
     </g>
     <g id="text_3">
      <!-- −0.50 -->
      <g transform="translate(129.986435 266.598437)scale(0.1 -0.1)">
       <use xlink:href="#DejaVuSans-2212"/>
       <use xlink:href="#DejaVuSans-30" x="83.789062"/>
       <use xlink:href="#DejaVuSans-2e" x="147.412109"/>
       <use xlink:href="#DejaVuSans-35" x="179.199219"/>
       <use xlink:href="#DejaVuSans-30" x="242.822266"/>
      </g>
     </g>
    </g>
    <g id="xtick_4">
     <g id="line2d_4">
      <g>
       <use xlink:href="#m10646241f4" x="183.354545" y="252" style="stroke: #000000; stroke-width: 0.8"/>
      </g>
     </g>
     <g id="text_4">
      <!-- −0.25 -->
      <g transform="translate(168.031889 266.598437)scale(0.1 -0.1)">
       <defs>
        <path id="DejaVuSans-32" d="M 1228 531 
L 3431 531 
L 3431 0 
L 469 0 
L 469 531 
Q 828 903 1448 1529 
Q 2069 2156 2228 2338 
Q 2531 2678 2651 2914 
Q 2772 3150 2772 3378 
Q 2772 3750 2511 3984 
Q 2250 4219 1831 4219 
Q 1534 4219 1204 4116 
Q 875 4013 500 3803 
L 500 4441 
Q 881 4594 1212 4672 
Q 1544 4750 1819 4750 
Q 2544 4750 2975 4387 
Q 3406 4025 3406 3419 
Q 3406 3131 3298 2873 
Q 3191 2616 2906 2266 
Q 2828 2175 2409 1742 
Q 1991 1309 1228 531 
z
" transform="scale(0.015625)"/>
       </defs>
       <use xlink:href="#DejaVuSans-2212"/>
       <use xlink:href="#DejaVuSans-30" x="83.789062"/>
       <use xlink:href="#DejaVuSans-2e" x="147.412109"/>
       <use xlink:href="#DejaVuSans-32" x="179.199219"/>
       <use xlink:href="#DejaVuSans-35" x="242.822266"/>
      </g>
     </g>
    </g>
    <g id="xtick_5">
     <g id="line2d_5">
      <g>
       <use xlink:href="#m10646241f4" x="221.4" y="252" style="stroke: #000000; stroke-width: 0.8"/>
      </g>
     </g>
     <g id="text_5">
      <!-- 0.00 -->
      <g transform="translate(210.267188 266.598437)scale(0.1 -0.1)">
       <use xlink:href="#DejaVuSans-30"/>
       <use xlink:href="#DejaVuSans-2e" x="63.623047"/>
       <use xlink:href="#DejaVuSans-30" x="95.410156"/>
       <use xlink:href="#DejaVuSans-30" x="159.033203"/>
      </g>
     </g>
    </g>
    <g id="xtick_6">
     <g id="line2d_6">
      <g>
       <use xlink:href="#m10646241f4" x="259.445455" y="252" style="stroke: #000000; stroke-width: 0.8"/>
      </g>
     </g>
     <g id="text_6">
      <!-- 0.25 -->
      <g transform="translate(248.312642 266.598437)scale(0.1 -0.1)">
       <use xlink:href="#DejaVuSans-30"/>
       <use xlink:href="#DejaVuSans-2e" x="63.623047"/>
       <use xlink:href="#DejaVuSans-32" x="95.410156"/>
       <use xlink:href="#DejaVuSans-35" x="159.033203"/>
      </g>
     </g>
    </g>
    <g id="xtick_7">
     <g id="line2d_7">
      <g>
       <use xlink:href="#m10646241f4" x="297.490909" y="252" style="stroke: #000000; stroke-width: 0.8"/>
      </g>
     </g>
     <g id="text_7">
      <!-- 0.50 -->
      <g transform="translate(286.358097 266.598437)scale(0.1 -0.1)">
       <use xlink:href="#DejaVuSans-30"/>
       <use xlink:href="#DejaVuSans-2e" x="63.623047"/>
       <use xlink:href="#DejaVuSans-35" x="95.410156"/>
       <use xlink:href="#DejaVuSans-30" x="159.033203"/>
      </g>
     </g>
    </g>
    <g id="xtick_8">
     <g id="line2d_8">
      <g>
       <use xlink:href="#m10646241f4" x="335.536364" y="252" style="stroke: #000000; stroke-width: 0.8"/>
      </g>
     </g>
     <g id="text_8">
      <!-- 0.75 -->
      <g transform="translate(324.403551 266.598437)scale(0.1 -0.1)">
       <use xlink:href="#DejaVuSans-30"/>
       <use xlink:href="#DejaVuSans-2e" x="63.623047"/>
       <use xlink:href="#DejaVuSans-37" x="95.410156"/>
       <use xlink:href="#DejaVuSans-35" x="159.033203"/>
      </g>
     </g>
    </g>
    <g id="xtick_9">
     <g id="line2d_9">
      <g>
       <use xlink:href="#m10646241f4" x="373.581818" y="252" style="stroke: #000000; stroke-width: 0.8"/>
      </g>
     </g>
     <g id="text_9">
      <!-- 1.00 -->
      <g transform="translate(362.449006 266.598437)scale(0.1 -0.1)">
       <use xlink:href="#DejaVuSans-31"/>
       <use xlink:href="#DejaVuSans-2e" x="63.623047"/>
       <use xlink:href="#DejaVuSans-30" x="95.410156"/>
       <use xlink:href="#DejaVuSans-30" x="159.033203"/>
      </g>
     </g>
    </g>
    <g id="text_10">
     <!-- $\rho$ -->
     <g transform="translate(218.2 280.25625)scale(0.1 -0.1)">
      <defs>
       <path id="DejaVuSans-Oblique-3c1" d="M 1203 2875 
Q 1453 3194 1981 3475 
Q 2188 3584 2756 3584 
Q 3394 3584 3694 3078 
Q 3994 2572 3834 1747 
Q 3672 922 3175 415 
Q 2678 -91 2041 -91 
Q 1656 -91 1409 63 
Q 1163 213 1044 525 
L 681 -1331 
L 103 -1331 
L 697 1716 
Q 838 2438 1203 2875 
z
M 3238 1747 
Q 3359 2381 3169 2744 
Q 2978 3103 2522 3103 
Q 2066 3103 1734 2744 
Q 1403 2381 1281 1747 
Q 1156 1113 1347 750 
Q 1538 391 1994 391 
Q 2450 391 2781 750 
Q 3113 1113 3238 1747 
z
" transform="scale(0.015625)"/>
      </defs>
      <use xlink:href="#DejaVuSans-Oblique-3c1"/>
     </g>
    </g>
   </g>
   <g id="matplotlib.axis_2">
    <g id="ytick_1">
     <g id="line2d_10">
      <defs>
       <path id="md1bba360ad" d="M 0 0 
L -3.5 0 
" style="stroke: #000000; stroke-width: 0.8"/>
      </defs>
      <g>
       <use xlink:href="#md1bba360ad" x="54" y="232.943094" style="stroke: #000000; stroke-width: 0.8"/>
      </g>
     </g>
     <g id="text_11">
      <!-- 0.25 -->
      <g transform="translate(24.734375 236.742313)scale(0.1 -0.1)">
       <use xlink:href="#DejaVuSans-30"/>
       <use xlink:href="#DejaVuSans-2e" x="63.623047"/>
       <use xlink:href="#DejaVuSans-32" x="95.410156"/>
       <use xlink:href="#DejaVuSans-35" x="159.033203"/>
      </g>
     </g>
    </g>
    <g id="ytick_2">
     <g id="line2d_11">
      <g>
       <use xlink:href="#md1bba360ad" x="54" y="195.076011" style="stroke: #000000; stroke-width: 0.8"/>
      </g>
     </g>
     <g id="text_12">
      <!-- 0.30 -->
      <g transform="translate(24.734375 198.87523)scale(0.1 -0.1)">
       <defs>
        <path id="DejaVuSans-33" d="M 2597 2516 
Q 3050 2419 3304 2112 
Q 3559 1806 3559 1356 
Q 3559 666 3084 287 
Q 2609 -91 1734 -91 
Q 1441 -91 1130 -33 
Q 819 25 488 141 
L 488 750 
Q 750 597 1062 519 
Q 1375 441 1716 441 
Q 2309 441 2620 675 
Q 2931 909 2931 1356 
Q 2931 1769 2642 2001 
Q 2353 2234 1838 2234 
L 1294 2234 
L 1294 2753 
L 1863 2753 
Q 2328 2753 2575 2939 
Q 2822 3125 2822 3475 
Q 2822 3834 2567 4026 
Q 2313 4219 1838 4219 
Q 1578 4219 1281 4162 
Q 984 4106 628 3988 
L 628 4550 
Q 988 4650 1302 4700 
Q 1616 4750 1894 4750 
Q 2613 4750 3031 4423 
Q 3450 4097 3450 3541 
Q 3450 3153 3228 2886 
Q 3006 2619 2597 2516 
z
" transform="scale(0.015625)"/>
       </defs>
       <use xlink:href="#DejaVuSans-30"/>
       <use xlink:href="#DejaVuSans-2e" x="63.623047"/>
       <use xlink:href="#DejaVuSans-33" x="95.410156"/>
       <use xlink:href="#DejaVuSans-30" x="159.033203"/>
      </g>
     </g>
    </g>
    <g id="ytick_3">
     <g id="line2d_12">
      <g>
       <use xlink:href="#md1bba360ad" x="54" y="157.208928" style="stroke: #000000; stroke-width: 0.8"/>
      </g>
     </g>
     <g id="text_13">
      <!-- 0.35 -->
      <g transform="translate(24.734375 161.008147)scale(0.1 -0.1)">
       <use xlink:href="#DejaVuSans-30"/>
       <use xlink:href="#DejaVuSans-2e" x="63.623047"/>
       <use xlink:href="#DejaVuSans-33" x="95.410156"/>
       <use xlink:href="#DejaVuSans-35" x="159.033203"/>
      </g>
     </g>
    </g>
    <g id="ytick_4">
     <g id="line2d_13">
      <g>
       <use xlink:href="#md1bba360ad" x="54" y="119.341845" style="stroke: #000000; stroke-width: 0.8"/>
      </g>
     </g>
     <g id="text_14">
      <!-- 0.40 -->
      <g transform="translate(24.734375 123.141064)scale(0.1 -0.1)">
       <defs>
        <path id="DejaVuSans-34" d="M 2419 4116 
L 825 1625 
L 2419 1625 
L 2419 4116 
z
M 2253 4666 
L 3047 4666 
L 3047 1625 
L 3713 1625 
L 3713 1100 
L 3047 1100 
L 3047 0 
L 2419 0 
L 2419 1100 
L 313 1100 
L 313 1709 
L 2253 4666 
z
" transform="scale(0.015625)"/>
       </defs>
       <use xlink:href="#DejaVuSans-30"/>
       <use xlink:href="#DejaVuSans-2e" x="63.623047"/>
       <use xlink:href="#DejaVuSans-34" x="95.410156"/>
       <use xlink:href="#DejaVuSans-30" x="159.033203"/>
      </g>
     </g>
    </g>
    <g id="ytick_5">
     <g id="line2d_14">
      <g>
       <use xlink:href="#md1bba360ad" x="54" y="81.474762" style="stroke: #000000; stroke-width: 0.8"/>
      </g>
     </g>
     <g id="text_15">
      <!-- 0.45 -->
      <g transform="translate(24.734375 85.27398)scale(0.1 -0.1)">
       <use xlink:href="#DejaVuSans-30"/>
       <use xlink:href="#DejaVuSans-2e" x="63.623047"/>
       <use xlink:href="#DejaVuSans-34" x="95.410156"/>
       <use xlink:href="#DejaVuSans-35" x="159.033203"/>
      </g>
     </g>
    </g>
    <g id="ytick_6">
     <g id="line2d_15">
      <g>
       <use xlink:href="#md1bba360ad" x="54" y="43.607679" style="stroke: #000000; stroke-width: 0.8"/>
      </g>
     </g>
     <g id="text_16">
      <!-- 0.50 -->
      <g transform="translate(24.734375 47.406897)scale(0.1 -0.1)">
       <use xlink:href="#DejaVuSans-30"/>
       <use xlink:href="#DejaVuSans-2e" x="63.623047"/>
       <use xlink:href="#DejaVuSans-35" x="95.410156"/>
       <use xlink:href="#DejaVuSans-30" x="159.033203"/>
      </g>
     </g>
    </g>
    <g id="text_17">
     <!-- $\bar r$ -->
     <g transform="translate(18.654688 145.43)rotate(-90)scale(0.1 -0.1)">
      <defs>
       <path id="DejaVuSans-304" d="M -2518 4769 
L -650 4769 
L -650 4306 
L -2518 4306 
L -2518 4769 
z
" transform="scale(0.015625)"/>
       <path id="DejaVuSans-Oblique-72" d="M 2853 2969 
Q 2766 3016 2653 3041 
Q 2541 3066 2413 3066 
Q 1953 3066 1609 2717 
Q 1266 2369 1153 1784 
L 800 0 
L 225 0 
L 909 3500 
L 1484 3500 
L 1375 2956 
Q 1603 3259 1920 3421 
Q 2238 3584 2597 3584 
Q 2691 3584 2781 3573 
Q 2872 3563 2963 3538 
L 2853 2969 
z
" transform="scale(0.015625)"/>
      </defs>
      <use xlink:href="#DejaVuSans-304" transform="translate(51.035156 1.484375)"/>
      <use xlink:href="#DejaVuSans-Oblique-72" transform="translate(0 0.265625)"/>
     </g>
    </g>
   </g>
   <g id="line2d_16">
    <path d="M 69.218182 44.443636 
L 84.436364 64.243992 
L 99.654545 73.321458 
L 114.872727 80.231431 
L 130.090909 85.184282 
L 145.309091 89.508853 
L 160.527273 94.007725 
L 175.745455 98.068683 
L 190.963636 102.368874 
L 206.181818 105.746226 
L 221.4 109.378722 
L 236.618182 113.333431 
L 251.836364 115.595411 
L 267.054545 119.241442 
L 282.272727 123.081124 
L 297.490909 125.893785 
L 312.709091 128.946272 
L 327.927273 133.225 
L 343.145455 136.251388 
L 358.363636 139.733783 
L 373.581818 145.680578 
" clip-path="url(#p766fd99e14)" style="fill: none; stroke: #000000; stroke-width: 1.5; stroke-linecap: square"/>
   </g>
   <g id="line2d_17">
    <path d="M 69.218182 45.134545 
L 84.436364 64.846373 
L 99.654545 73.190462 
L 114.872727 79.732816 
L 130.090909 85.014031 
L 145.309091 89.651203 
L 160.527273 94.320222 
L 175.745455 98.044666 
L 190.963636 102.442004 
L 206.181818 106.408071 
L 221.4 109.14056 
L 236.618182 112.611376 
L 251.836364 115.974458 
L 267.054545 119.358972 
L 282.272727 122.812731 
L 297.490909 126.135775 
L 312.709091 129.893084 
L 327.927273 132.308889 
L 343.145455 136.401273 
L 358.363636 142.19503 
L 373.581818 148.514722 
" clip-path="url(#p766fd99e14)" style="fill: none; stroke-dasharray: 5.55,2.4; stroke-dashoffset: 0; stroke: #000000; stroke-width: 1.5"/>
   </g>
   <g id="line2d_18">
    <path d="M 69.218182 45.898142 
L 84.436364 65.311571 
L 99.654545 72.717661 
L 114.872727 80.103587 
L 130.090909 85.663157 
L 145.309091 90.240261 
L 160.527273 94.851515 
L 175.745455 98.367648 
L 190.963636 102.660454 
L 206.181818 105.881137 
L 221.4 110.535617 
L 236.618182 113.237605 
L 251.836364 116.897954 
L 267.054545 120.751946 
L 282.272727 123.396611 
L 297.490909 126.974108 
L 312.709091 129.723437 
L 327.927273 134.461124 
L 343.145455 138.099999 
L 358.363636 140.583195 
L 373.581818 147.489718 
" clip-path="url(#p766fd99e14)" style="fill: none; stroke-dasharray: 1.5,2.475; stroke-dashoffset: 0; stroke: #000000; stroke-width: 1.5"/>
   </g>
   <g id="line2d_19">
    <path d="M 69.218182 48.160426 
L 84.436364 64.294098 
L 99.654545 73.613533 
L 114.872727 80.014258 
L 130.090909 85.164833 
L 145.309091 90.213865 
L 160.527273 94.781247 
L 175.745455 99.456309 
L 190.963636 102.853715 
L 206.181818 106.516553 
L 221.4 109.940145 
L 236.618182 114.855172 
L 251.836364 118.050906 
L 267.054545 122.243441 
L 282.272727 125.389548 
L 297.490909 128.986142 
L 312.709091 134.029996 
L 327.927273 137.830379 
L 343.145455 139.334001 
L 358.363636 145.236873 
L 373.581818 152.676598 
" clip-path="url(#p766fd99e14)" style="fill: none; stroke-dasharray: 9.6,2.4,1.5,2.4; stroke-dashoffset: 0; stroke: #000000; stroke-width: 1.5"/>
   </g>
   <g id="line2d_20">
    <path d="M 69.218182 51.206689 
L 84.436364 64.750903 
L 99.654545 73.179649 
L 114.872727 80.332022 
L 130.090909 86.30808 
L 145.309091 90.484131 
L 160.527273 95.571151 
L 175.745455 99.206373 
L 190.963636 103.766665 
L 206.181818 108.464189 
L 221.4 112.736236 
L 236.618182 116.874599 
L 251.836364 120.155027 
L 267.054545 124.215688 
L 282.272727 128.216116 
L 297.490909 131.307849 
L 312.709091 136.701021 
L 327.927273 139.208394 
L 343.145455 143.104814 
L 358.363636 146.892555 
L 373.581818 156.161929 
" clip-path="url(#p766fd99e14)" style="fill: none; stroke: #000000; stroke-width: 1.5; stroke-linecap: square"/>
    <defs>
     <path id="m2b185a4996" d="M 0 1.5 
C 0.397805 1.5 0.77937 1.341951 1.06066 1.06066 
C 1.341951 0.77937 1.5 0.397805 1.5 0 
C 1.5 -0.397805 1.341951 -0.77937 1.06066 -1.06066 
C 0.77937 -1.341951 0.397805 -1.5 0 -1.5 
C -0.397805 -1.5 -0.77937 -1.341951 -1.06066 -1.06066 
C -1.341951 -0.77937 -1.5 -0.397805 -1.5 0 
C -1.5 0.397805 -1.341951 0.77937 -1.06066 1.06066 
C -0.77937 1.341951 -0.397805 1.5 0 1.5 
z
" style="stroke: #000000"/>
    </defs>
    <g clip-path="url(#p766fd99e14)">
     <use xlink:href="#m2b185a4996" x="69.218182" y="51.206689" style="stroke: #000000"/>
     <use xlink:href="#m2b185a4996" x="84.436364" y="64.750903" style="stroke: #000000"/>
     <use xlink:href="#m2b185a4996" x="99.654545" y="73.179649" style="stroke: #000000"/>
     <use xlink:href="#m2b185a4996" x="114.872727" y="80.332022" style="stroke: #000000"/>
     <use xlink:href="#m2b185a4996" x="130.090909" y="86.30808" style="stroke: #000000"/>
     <use xlink:href="#m2b185a4996" x="145.309091" y="90.484131" style="stroke: #000000"/>
     <use xlink:href="#m2b185a4996" x="160.527273" y="95.571151" style="stroke: #000000"/>
     <use xlink:href="#m2b185a4996" x="175.745455" y="99.206373" style="stroke: #000000"/>
     <use xlink:href="#m2b185a4996" x="190.963636" y="103.766665" style="stroke: #000000"/>
     <use xlink:href="#m2b185a4996" x="206.181818" y="108.464189" style="stroke: #000000"/>
     <use xlink:href="#m2b185a4996" x="221.4" y="112.736236" style="stroke: #000000"/>
     <use xlink:href="#m2b185a4996" x="236.618182" y="116.874599" style="stroke: #000000"/>
     <use xlink:href="#m2b185a4996" x="251.836364" y="120.155027" style="stroke: #000000"/>
     <use xlink:href="#m2b185a4996" x="267.054545" y="124.215688" style="stroke: #000000"/>
     <use xlink:href="#m2b185a4996" x="282.272727" y="128.216116" style="stroke: #000000"/>
     <use xlink:href="#m2b185a4996" x="297.490909" y="131.307849" style="stroke: #000000"/>
     <use xlink:href="#m2b185a4996" x="312.709091" y="136.701021" style="stroke: #000000"/>
     <use xlink:href="#m2b185a4996" x="327.927273" y="139.208394" style="stroke: #000000"/>
     <use xlink:href="#m2b185a4996" x="343.145455" y="143.104814" style="stroke: #000000"/>
     <use xlink:href="#m2b185a4996" x="358.363636" y="146.892555" style="stroke: #000000"/>
     <use xlink:href="#m2b185a4996" x="373.581818" y="156.161929" style="stroke: #000000"/>
    </g>
   </g>
   <g id="line2d_21">
    <path d="M 69.218182 57.222495 
L 84.436364 64.74505 
L 99.654545 73.993673 
L 114.872727 80.258045 
L 130.090909 86.624832 
L 145.309091 89.937396 
L 160.527273 96.080518 
L 175.745455 101.10197 
L 190.963636 107.166263 
L 206.181818 111.479736 
L 221.4 116.235627 
L 236.618182 120.916942 
L 251.836364 123.325537 
L 267.054545 128.299885 
L 282.272727 133.361199 
L 297.490909 137.812882 
L 312.709091 142.488206 
L 327.927273 143.660969 
L 343.145455 152.52537 
L 358.363636 154.392315 
L 373.581818 165.646147 
" clip-path="url(#p766fd99e14)" style="fill: none; stroke-dasharray: 5.55,2.4; stroke-dashoffset: 0; stroke: #000000; stroke-width: 1.5"/>
    <g clip-path="url(#p766fd99e14)">
     <use xlink:href="#m2b185a4996" x="69.218182" y="57.222495" style="stroke: #000000"/>
     <use xlink:href="#m2b185a4996" x="84.436364" y="64.74505" style="stroke: #000000"/>
     <use xlink:href="#m2b185a4996" x="99.654545" y="73.993673" style="stroke: #000000"/>
     <use xlink:href="#m2b185a4996" x="114.872727" y="80.258045" style="stroke: #000000"/>
     <use xlink:href="#m2b185a4996" x="130.090909" y="86.624832" style="stroke: #000000"/>
     <use xlink:href="#m2b185a4996" x="145.309091" y="89.937396" style="stroke: #000000"/>
     <use xlink:href="#m2b185a4996" x="160.527273" y="96.080518" style="stroke: #000000"/>
     <use xlink:href="#m2b185a4996" x="175.745455" y="101.10197" style="stroke: #000000"/>
     <use xlink:href="#m2b185a4996" x="190.963636" y="107.166263" style="stroke: #000000"/>
     <use xlink:href="#m2b185a4996" x="206.181818" y="111.479736" style="stroke: #000000"/>
     <use xlink:href="#m2b185a4996" x="221.4" y="116.235627" style="stroke: #000000"/>
     <use xlink:href="#m2b185a4996" x="236.618182" y="120.916942" style="stroke: #000000"/>
     <use xlink:href="#m2b185a4996" x="251.836364" y="123.325537" style="stroke: #000000"/>
     <use xlink:href="#m2b185a4996" x="267.054545" y="128.299885" style="stroke: #000000"/>
     <use xlink:href="#m2b185a4996" x="282.272727" y="133.361199" style="stroke: #000000"/>
     <use xlink:href="#m2b185a4996" x="297.490909" y="137.812882" style="stroke: #000000"/>
     <use xlink:href="#m2b185a4996" x="312.709091" y="142.488206" style="stroke: #000000"/>
     <use xlink:href="#m2b185a4996" x="327.927273" y="143.660969" style="stroke: #000000"/>
     <use xlink:href="#m2b185a4996" x="343.145455" y="152.52537" style="stroke: #000000"/>
     <use xlink:href="#m2b185a4996" x="358.363636" y="154.392315" style="stroke: #000000"/>
     <use xlink:href="#m2b185a4996" x="373.581818" y="165.646147" style="stroke: #000000"/>
    </g>
   </g>
   <g id="line2d_22">
    <path d="M 69.218182 67.602099 
L 84.436364 64.014393 
L 99.654545 74.485489 
L 114.872727 81.035865 
L 130.090909 86.357334 
L 145.309091 91.170724 
L 160.527273 98.113523 
L 175.745455 103.710163 
L 190.963636 110.808941 
L 206.181818 113.922915 
L 221.4 122.322534 
L 236.618182 128.288154 
L 251.836364 129.96921 
L 267.054545 137.772291 
L 282.272727 144.030798 
L 297.490909 146.675381 
L 312.709091 151.057693 
L 327.927273 155.382954 
L 343.145455 163.163453 
L 358.363636 158.920852 
L 373.581818 164.903397 
" clip-path="url(#p766fd99e14)" style="fill: none; stroke-dasharray: 1.5,2.475; stroke-dashoffset: 0; stroke: #000000; stroke-width: 1.5"/>
    <g clip-path="url(#p766fd99e14)">
     <use xlink:href="#m2b185a4996" x="69.218182" y="67.602099" style="stroke: #000000"/>
     <use xlink:href="#m2b185a4996" x="84.436364" y="64.014393" style="stroke: #000000"/>
     <use xlink:href="#m2b185a4996" x="99.654545" y="74.485489" style="stroke: #000000"/>
     <use xlink:href="#m2b185a4996" x="114.872727" y="81.035865" style="stroke: #000000"/>
     <use xlink:href="#m2b185a4996" x="130.090909" y="86.357334" style="stroke: #000000"/>
     <use xlink:href="#m2b185a4996" x="145.309091" y="91.170724" style="stroke: #000000"/>
     <use xlink:href="#m2b185a4996" x="160.527273" y="98.113523" style="stroke: #000000"/>
     <use xlink:href="#m2b185a4996" x="175.745455" y="103.710163" style="stroke: #000000"/>
     <use xlink:href="#m2b185a4996" x="190.963636" y="110.808941" style="stroke: #000000"/>
     <use xlink:href="#m2b185a4996" x="206.181818" y="113.922915" style="stroke: #000000"/>
     <use xlink:href="#m2b185a4996" x="221.4" y="122.322534" style="stroke: #000000"/>
     <use xlink:href="#m2b185a4996" x="236.618182" y="128.288154" style="stroke: #000000"/>
     <use xlink:href="#m2b185a4996" x="251.836364" y="129.96921" style="stroke: #000000"/>
     <use xlink:href="#m2b185a4996" x="267.054545" y="137.772291" style="stroke: #000000"/>
     <use xlink:href="#m2b185a4996" x="282.272727" y="144.030798" style="stroke: #000000"/>
     <use xlink:href="#m2b185a4996" x="297.490909" y="146.675381" style="stroke: #000000"/>
     <use xlink:href="#m2b185a4996" x="312.709091" y="151.057693" style="stroke: #000000"/>
     <use xlink:href="#m2b185a4996" x="327.927273" y="155.382954" style="stroke: #000000"/>
     <use xlink:href="#m2b185a4996" x="343.145455" y="163.163453" style="stroke: #000000"/>
     <use xlink:href="#m2b185a4996" x="358.363636" y="158.920852" style="stroke: #000000"/>
     <use xlink:href="#m2b185a4996" x="373.581818" y="164.903397" style="stroke: #000000"/>
    </g>
   </g>
   <g id="line2d_23">
    <path d="M 69.218182 86.091913 
L 84.436364 86.763392 
L 99.654545 77.967539 
L 114.872727 82.237044 
L 130.090909 90.185254 
L 145.309091 95.479899 
L 160.527273 100.531447 
L 175.745455 107.073227 
L 190.963636 114.754325 
L 206.181818 122.134329 
L 221.4 129.962774 
L 236.618182 134.444809 
L 251.836364 143.177731 
L 267.054545 147.572613 
L 282.272727 154.922971 
L 297.490909 161.469704 
L 312.709091 164.525052 
L 327.927273 171.381732 
L 343.145455 177.153921 
L 358.363636 180.397627 
L 373.581818 192.103215 
" clip-path="url(#p766fd99e14)" style="fill: none; stroke-dasharray: 9.6,2.4,1.5,2.4; stroke-dashoffset: 0; stroke: #000000; stroke-width: 1.5"/>
    <g clip-path="url(#p766fd99e14)">
     <use xlink:href="#m2b185a4996" x="69.218182" y="86.091913" style="stroke: #000000"/>
     <use xlink:href="#m2b185a4996" x="84.436364" y="86.763392" style="stroke: #000000"/>
     <use xlink:href="#m2b185a4996" x="99.654545" y="77.967539" style="stroke: #000000"/>
     <use xlink:href="#m2b185a4996" x="114.872727" y="82.237044" style="stroke: #000000"/>
     <use xlink:href="#m2b185a4996" x="130.090909" y="90.185254" style="stroke: #000000"/>
     <use xlink:href="#m2b185a4996" x="145.309091" y="95.479899" style="stroke: #000000"/>
     <use xlink:href="#m2b185a4996" x="160.527273" y="100.531447" style="stroke: #000000"/>
     <use xlink:href="#m2b185a4996" x="175.745455" y="107.073227" style="stroke: #000000"/>
     <use xlink:href="#m2b185a4996" x="190.963636" y="114.754325" style="stroke: #000000"/>
     <use xlink:href="#m2b185a4996" x="206.181818" y="122.134329" style="stroke: #000000"/>
     <use xlink:href="#m2b185a4996" x="221.4" y="129.962774" style="stroke: #000000"/>
     <use xlink:href="#m2b185a4996" x="236.618182" y="134.444809" style="stroke: #000000"/>
     <use xlink:href="#m2b185a4996" x="251.836364" y="143.177731" style="stroke: #000000"/>
     <use xlink:href="#m2b185a4996" x="267.054545" y="147.572613" style="stroke: #000000"/>
     <use xlink:href="#m2b185a4996" x="282.272727" y="154.922971" style="stroke: #000000"/>
     <use xlink:href="#m2b185a4996" x="297.490909" y="161.469704" style="stroke: #000000"/>
     <use xlink:href="#m2b185a4996" x="312.709091" y="164.525052" style="stroke: #000000"/>
     <use xlink:href="#m2b185a4996" x="327.927273" y="171.381732" style="stroke: #000000"/>
     <use xlink:href="#m2b185a4996" x="343.145455" y="177.153921" style="stroke: #000000"/>
     <use xlink:href="#m2b185a4996" x="358.363636" y="180.397627" style="stroke: #000000"/>
     <use xlink:href="#m2b185a4996" x="373.581818" y="192.103215" style="stroke: #000000"/>
    </g>
   </g>
   <g id="line2d_24">
    <path d="M 69.218182 119.384835 
L 84.436364 124.747637 
L 99.654545 124.498516 
L 114.872727 121.300638 
L 130.090909 116.749506 
L 145.309091 111.120265 
L 160.527273 104.929967 
L 175.745455 104.915282 
L 190.963636 124.460673 
L 206.181818 138.891957 
L 221.4 145.94851 
L 236.618182 149.555647 
L 251.836364 167.242982 
L 267.054545 176.441347 
L 282.272727 179.641193 
L 297.490909 202.124899 
L 312.709091 201.106994 
L 327.927273 193.960306 
L 343.145455 197.710934 
L 358.363636 226.295803 
L 373.581818 242.116364 
" clip-path="url(#p766fd99e14)" style="fill: none; stroke: #000000; stroke-width: 1.5; stroke-linecap: square"/>
    <defs>
     <path id="m7f2950415e" d="M 0 3 
C 0.795609 3 1.55874 2.683901 2.12132 2.12132 
C 2.683901 1.55874 3 0.795609 3 0 
C 3 -0.795609 2.683901 -1.55874 2.12132 -2.12132 
C 1.55874 -2.683901 0.795609 -3 0 -3 
C -0.795609 -3 -1.55874 -2.683901 -2.12132 -2.12132 
C -2.683901 -1.55874 -3 -0.795609 -3 0 
C -3 0.795609 -2.683901 1.55874 -2.12132 2.12132 
C -1.55874 2.683901 -0.795609 3 0 3 
z
" style="stroke: #000000"/>
    </defs>
    <g clip-path="url(#p766fd99e14)">
     <use xlink:href="#m7f2950415e" x="69.218182" y="119.384835" style="stroke: #000000"/>
     <use xlink:href="#m7f2950415e" x="84.436364" y="124.747637" style="stroke: #000000"/>
     <use xlink:href="#m7f2950415e" x="99.654545" y="124.498516" style="stroke: #000000"/>
     <use xlink:href="#m7f2950415e" x="114.872727" y="121.300638" style="stroke: #000000"/>
     <use xlink:href="#m7f2950415e" x="130.090909" y="116.749506" style="stroke: #000000"/>
     <use xlink:href="#m7f2950415e" x="145.309091" y="111.120265" style="stroke: #000000"/>
     <use xlink:href="#m7f2950415e" x="160.527273" y="104.929967" style="stroke: #000000"/>
     <use xlink:href="#m7f2950415e" x="175.745455" y="104.915282" style="stroke: #000000"/>
     <use xlink:href="#m7f2950415e" x="190.963636" y="124.460673" style="stroke: #000000"/>
     <use xlink:href="#m7f2950415e" x="206.181818" y="138.891957" style="stroke: #000000"/>
     <use xlink:href="#m7f2950415e" x="221.4" y="145.94851" style="stroke: #000000"/>
     <use xlink:href="#m7f2950415e" x="236.618182" y="149.555647" style="stroke: #000000"/>
     <use xlink:href="#m7f2950415e" x="251.836364" y="167.242982" style="stroke: #000000"/>
     <use xlink:href="#m7f2950415e" x="267.054545" y="176.441347" style="stroke: #000000"/>
     <use xlink:href="#m7f2950415e" x="282.272727" y="179.641193" style="stroke: #000000"/>
     <use xlink:href="#m7f2950415e" x="297.490909" y="202.124899" style="stroke: #000000"/>
     <use xlink:href="#m7f2950415e" x="312.709091" y="201.106994" style="stroke: #000000"/>
     <use xlink:href="#m7f2950415e" x="327.927273" y="193.960306" style="stroke: #000000"/>
     <use xlink:href="#m7f2950415e" x="343.145455" y="197.710934" style="stroke: #000000"/>
     <use xlink:href="#m7f2950415e" x="358.363636" y="226.295803" style="stroke: #000000"/>
     <use xlink:href="#m7f2950415e" x="373.581818" y="242.116364" style="stroke: #000000"/>
    </g>
   </g>
   <g id="patch_3">
    <path d="M 54 252 
L 54 34.56 
" style="fill: none; stroke: #000000; stroke-width: 0.8; stroke-linejoin: miter; stroke-linecap: square"/>
   </g>
   <g id="patch_4">
    <path d="M 388.8 252 
L 388.8 34.56 
" style="fill: none; stroke: #000000; stroke-width: 0.8; stroke-linejoin: miter; stroke-linecap: square"/>
   </g>
   <g id="patch_5">
    <path d="M 54 252 
L 388.8 252 
" style="fill: none; stroke: #000000; stroke-width: 0.8; stroke-linejoin: miter; stroke-linecap: square"/>
   </g>
   <g id="patch_6">
    <path d="M 54 34.56 
L 388.8 34.56 
" style="fill: none; stroke: #000000; stroke-width: 0.8; stroke-linejoin: miter; stroke-linecap: square"/>
   </g>
   <g id="text_18">
    <!-- Equilibrium for different values of $\tau$ at $C=0$ -->
    <g transform="translate(89.76 28.56)scale(0.12 -0.12)">
     <defs>
      <path id="DejaVuSans-45" d="M 628 4666 
L 3578 4666 
L 3578 4134 
L 1259 4134 
L 1259 2753 
L 3481 2753 
L 3481 2222 
L 1259 2222 
L 1259 531 
L 3634 531 
L 3634 0 
L 628 0 
L 628 4666 
z
" transform="scale(0.015625)"/>
      <path id="DejaVuSans-71" d="M 947 1747 
Q 947 1113 1208 752 
Q 1469 391 1925 391 
Q 2381 391 2643 752 
Q 2906 1113 2906 1747 
Q 2906 2381 2643 2742 
Q 2381 3103 1925 3103 
Q 1469 3103 1208 2742 
Q 947 2381 947 1747 
z
M 2906 525 
Q 2725 213 2448 61 
Q 2172 -91 1784 -91 
Q 1150 -91 751 415 
Q 353 922 353 1747 
Q 353 2572 751 3078 
Q 1150 3584 1784 3584 
Q 2172 3584 2448 3432 
Q 2725 3281 2906 2969 
L 2906 3500 
L 3481 3500 
L 3481 -1331 
L 2906 -1331 
L 2906 525 
z
" transform="scale(0.015625)"/>
      <path id="DejaVuSans-75" d="M 544 1381 
L 544 3500 
L 1119 3500 
L 1119 1403 
Q 1119 906 1312 657 
Q 1506 409 1894 409 
Q 2359 409 2629 706 
Q 2900 1003 2900 1516 
L 2900 3500 
L 3475 3500 
L 3475 0 
L 2900 0 
L 2900 538 
Q 2691 219 2414 64 
Q 2138 -91 1772 -91 
Q 1169 -91 856 284 
Q 544 659 544 1381 
z
M 1991 3584 
L 1991 3584 
z
" transform="scale(0.015625)"/>
      <path id="DejaVuSans-69" d="M 603 3500 
L 1178 3500 
L 1178 0 
L 603 0 
L 603 3500 
z
M 603 4863 
L 1178 4863 
L 1178 4134 
L 603 4134 
L 603 4863 
z
" transform="scale(0.015625)"/>
      <path id="DejaVuSans-6c" d="M 603 4863 
L 1178 4863 
L 1178 0 
L 603 0 
L 603 4863 
z
" transform="scale(0.015625)"/>
      <path id="DejaVuSans-62" d="M 3116 1747 
Q 3116 2381 2855 2742 
Q 2594 3103 2138 3103 
Q 1681 3103 1420 2742 
Q 1159 2381 1159 1747 
Q 1159 1113 1420 752 
Q 1681 391 2138 391 
Q 2594 391 2855 752 
Q 3116 1113 3116 1747 
z
M 1159 2969 
Q 1341 3281 1617 3432 
Q 1894 3584 2278 3584 
Q 2916 3584 3314 3078 
Q 3713 2572 3713 1747 
Q 3713 922 3314 415 
Q 2916 -91 2278 -91 
Q 1894 -91 1617 61 
Q 1341 213 1159 525 
L 1159 0 
L 581 0 
L 581 4863 
L 1159 4863 
L 1159 2969 
z
" transform="scale(0.015625)"/>
      <path id="DejaVuSans-72" d="M 2631 2963 
Q 2534 3019 2420 3045 
Q 2306 3072 2169 3072 
Q 1681 3072 1420 2755 
Q 1159 2438 1159 1844 
L 1159 0 
L 581 0 
L 581 3500 
L 1159 3500 
L 1159 2956 
Q 1341 3275 1631 3429 
Q 1922 3584 2338 3584 
Q 2397 3584 2469 3576 
Q 2541 3569 2628 3553 
L 2631 2963 
z
" transform="scale(0.015625)"/>
      <path id="DejaVuSans-6d" d="M 3328 2828 
Q 3544 3216 3844 3400 
Q 4144 3584 4550 3584 
Q 5097 3584 5394 3201 
Q 5691 2819 5691 2113 
L 5691 0 
L 5113 0 
L 5113 2094 
Q 5113 2597 4934 2840 
Q 4756 3084 4391 3084 
Q 3944 3084 3684 2787 
Q 3425 2491 3425 1978 
L 3425 0 
L 2847 0 
L 2847 2094 
Q 2847 2600 2669 2842 
Q 2491 3084 2119 3084 
Q 1678 3084 1418 2786 
Q 1159 2488 1159 1978 
L 1159 0 
L 581 0 
L 581 3500 
L 1159 3500 
L 1159 2956 
Q 1356 3278 1631 3431 
Q 1906 3584 2284 3584 
Q 2666 3584 2933 3390 
Q 3200 3197 3328 2828 
z
" transform="scale(0.015625)"/>
      <path id="DejaVuSans-20" transform="scale(0.015625)"/>
      <path id="DejaVuSans-66" d="M 2375 4863 
L 2375 4384 
L 1825 4384 
Q 1516 4384 1395 4259 
Q 1275 4134 1275 3809 
L 1275 3500 
L 2222 3500 
L 2222 3053 
L 1275 3053 
L 1275 0 
L 697 0 
L 697 3053 
L 147 3053 
L 147 3500 
L 697 3500 
L 697 3744 
Q 697 4328 969 4595 
Q 1241 4863 1831 4863 
L 2375 4863 
z
" transform="scale(0.015625)"/>
      <path id="DejaVuSans-6f" d="M 1959 3097 
Q 1497 3097 1228 2736 
Q 959 2375 959 1747 
Q 959 1119 1226 758 
Q 1494 397 1959 397 
Q 2419 397 2687 759 
Q 2956 1122 2956 1747 
Q 2956 2369 2687 2733 
Q 2419 3097 1959 3097 
z
M 1959 3584 
Q 2709 3584 3137 3096 
Q 3566 2609 3566 1747 
Q 3566 888 3137 398 
Q 2709 -91 1959 -91 
Q 1206 -91 779 398 
Q 353 888 353 1747 
Q 353 2609 779 3096 
Q 1206 3584 1959 3584 
z
" transform="scale(0.015625)"/>
      <path id="DejaVuSans-64" d="M 2906 2969 
L 2906 4863 
L 3481 4863 
L 3481 0 
L 2906 0 
L 2906 525 
Q 2725 213 2448 61 
Q 2172 -91 1784 -91 
Q 1150 -91 751 415 
Q 353 922 353 1747 
Q 353 2572 751 3078 
Q 1150 3584 1784 3584 
Q 2172 3584 2448 3432 
Q 2725 3281 2906 2969 
z
M 947 1747 
Q 947 1113 1208 752 
Q 1469 391 1925 391 
Q 2381 391 2643 752 
Q 2906 1113 2906 1747 
Q 2906 2381 2643 2742 
Q 2381 3103 1925 3103 
Q 1469 3103 1208 2742 
Q 947 2381 947 1747 
z
" transform="scale(0.015625)"/>
      <path id="DejaVuSans-65" d="M 3597 1894 
L 3597 1613 
L 953 1613 
Q 991 1019 1311 708 
Q 1631 397 2203 397 
Q 2534 397 2845 478 
Q 3156 559 3463 722 
L 3463 178 
Q 3153 47 2828 -22 
Q 2503 -91 2169 -91 
Q 1331 -91 842 396 
Q 353 884 353 1716 
Q 353 2575 817 3079 
Q 1281 3584 2069 3584 
Q 2775 3584 3186 3129 
Q 3597 2675 3597 1894 
z
M 3022 2063 
Q 3016 2534 2758 2815 
Q 2500 3097 2075 3097 
Q 1594 3097 1305 2825 
Q 1016 2553 972 2059 
L 3022 2063 
z
" transform="scale(0.015625)"/>
      <path id="DejaVuSans-6e" d="M 3513 2113 
L 3513 0 
L 2938 0 
L 2938 2094 
Q 2938 2591 2744 2837 
Q 2550 3084 2163 3084 
Q 1697 3084 1428 2787 
Q 1159 2491 1159 1978 
L 1159 0 
L 581 0 
L 581 3500 
L 1159 3500 
L 1159 2956 
Q 1366 3272 1645 3428 
Q 1925 3584 2291 3584 
Q 2894 3584 3203 3211 
Q 3513 2838 3513 2113 
z
" transform="scale(0.015625)"/>
      <path id="DejaVuSans-74" d="M 1172 4494 
L 1172 3500 
L 2356 3500 
L 2356 3053 
L 1172 3053 
L 1172 1153 
Q 1172 725 1289 603 
Q 1406 481 1766 481 
L 2356 481 
L 2356 0 
L 1766 0 
Q 1100 0 847 248 
Q 594 497 594 1153 
L 594 3053 
L 172 3053 
L 172 3500 
L 594 3500 
L 594 4494 
L 1172 4494 
z
" transform="scale(0.015625)"/>
      <path id="DejaVuSans-76" d="M 191 3500 
L 800 3500 
L 1894 563 
L 2988 3500 
L 3597 3500 
L 2284 0 
L 1503 0 
L 191 3500 
z
" transform="scale(0.015625)"/>
      <path id="DejaVuSans-61" d="M 2194 1759 
Q 1497 1759 1228 1600 
Q 959 1441 959 1056 
Q 959 750 1161 570 
Q 1363 391 1709 391 
Q 2188 391 2477 730 
Q 2766 1069 2766 1631 
L 2766 1759 
L 2194 1759 
z
M 3341 1997 
L 3341 0 
L 2766 0 
L 2766 531 
Q 2569 213 2275 61 
Q 1981 -91 1556 -91 
Q 1019 -91 701 211 
Q 384 513 384 1019 
Q 384 1609 779 1909 
Q 1175 2209 1959 2209 
L 2766 2209 
L 2766 2266 
Q 2766 2663 2505 2880 
Q 2244 3097 1772 3097 
Q 1472 3097 1187 3025 
Q 903 2953 641 2809 
L 641 3341 
Q 956 3463 1253 3523 
Q 1550 3584 1831 3584 
Q 2591 3584 2966 3190 
Q 3341 2797 3341 1997 
z
" transform="scale(0.015625)"/>
      <path id="DejaVuSans-73" d="M 2834 3397 
L 2834 2853 
Q 2591 2978 2328 3040 
Q 2066 3103 1784 3103 
Q 1356 3103 1142 2972 
Q 928 2841 928 2578 
Q 928 2378 1081 2264 
Q 1234 2150 1697 2047 
L 1894 2003 
Q 2506 1872 2764 1633 
Q 3022 1394 3022 966 
Q 3022 478 2636 193 
Q 2250 -91 1575 -91 
Q 1294 -91 989 -36 
Q 684 19 347 128 
L 347 722 
Q 666 556 975 473 
Q 1284 391 1588 391 
Q 1994 391 2212 530 
Q 2431 669 2431 922 
Q 2431 1156 2273 1281 
Q 2116 1406 1581 1522 
L 1381 1569 
Q 847 1681 609 1914 
Q 372 2147 372 2553 
Q 372 3047 722 3315 
Q 1072 3584 1716 3584 
Q 2034 3584 2315 3537 
Q 2597 3491 2834 3397 
z
" transform="scale(0.015625)"/>
      <path id="DejaVuSans-Oblique-3c4" d="M 2103 638 
Q 2188 488 2525 488 
L 2800 488 
L 2706 0 
L 2363 0 
Q 1800 0 1600 300 
Q 1403 606 1534 1269 
L 1856 2925 
L 541 2925 
L 653 3500 
L 3881 3500 
L 3769 2925 
L 2444 2925 
L 2113 1234 
Q 2025 781 2103 638 
z
" transform="scale(0.015625)"/>
      <path id="DejaVuSans-Oblique-43" d="M 4447 4306 
L 4319 3641 
Q 4019 3944 3683 4091 
Q 3347 4238 2956 4238 
Q 2422 4238 2017 3981 
Q 1613 3725 1319 3200 
Q 1131 2863 1032 2486 
Q 934 2109 934 1728 
Q 934 1091 1264 756 
Q 1594 422 2222 422 
Q 2656 422 3056 561 
Q 3456 700 3834 978 
L 3688 231 
Q 3316 72 2936 -9 
Q 2556 -91 2175 -91 
Q 1278 -91 773 396 
Q 269 884 269 1753 
Q 269 2309 461 2846 
Q 653 3384 1013 3828 
Q 1394 4300 1883 4525 
Q 2372 4750 3022 4750 
Q 3422 4750 3780 4639 
Q 4138 4528 4447 4306 
z
" transform="scale(0.015625)"/>
      <path id="DejaVuSans-3d" d="M 678 2906 
L 4684 2906 
L 4684 2381 
L 678 2381 
L 678 2906 
z
M 678 1631 
L 4684 1631 
L 4684 1100 
L 678 1100 
L 678 1631 
z
" transform="scale(0.015625)"/>
     </defs>
     <use xlink:href="#DejaVuSans-45" transform="translate(0 0.015625)"/>
     <use xlink:href="#DejaVuSans-71" transform="translate(63.183594 0.015625)"/>
     <use xlink:href="#DejaVuSans-75" transform="translate(126.660156 0.015625)"/>
     <use xlink:href="#DejaVuSans-69" transform="translate(190.039062 0.015625)"/>
     <use xlink:href="#DejaVuSans-6c" transform="translate(217.822266 0.015625)"/>
     <use xlink:href="#DejaVuSans-69" transform="translate(245.605469 0.015625)"/>
     <use xlink:href="#DejaVuSans-62" transform="translate(273.388672 0.015625)"/>
     <use xlink:href="#DejaVuSans-72" transform="translate(336.865234 0.015625)"/>
     <use xlink:href="#DejaVuSans-69" transform="translate(377.978516 0.015625)"/>
     <use xlink:href="#DejaVuSans-75" transform="translate(405.761719 0.015625)"/>
     <use xlink:href="#DejaVuSans-6d" transform="translate(469.140625 0.015625)"/>
     <use xlink:href="#DejaVuSans-20" transform="translate(566.552734 0.015625)"/>
     <use xlink:href="#DejaVuSans-66" transform="translate(598.339844 0.015625)"/>
     <use xlink:href="#DejaVuSans-6f" transform="translate(633.544922 0.015625)"/>
     <use xlink:href="#DejaVuSans-72" transform="translate(694.726562 0.015625)"/>
     <use xlink:href="#DejaVuSans-20" transform="translate(735.839844 0.015625)"/>
     <use xlink:href="#DejaVuSans-64" transform="translate(767.626953 0.015625)"/>
     <use xlink:href="#DejaVuSans-69" transform="translate(831.103516 0.015625)"/>
     <use xlink:href="#DejaVuSans-66" transform="translate(858.886719 0.015625)"/>
     <use xlink:href="#DejaVuSans-66" transform="translate(894.091797 0.015625)"/>
     <use xlink:href="#DejaVuSans-65" transform="translate(929.296875 0.015625)"/>
     <use xlink:href="#DejaVuSans-72" transform="translate(990.820312 0.015625)"/>
     <use xlink:href="#DejaVuSans-65" transform="translate(1031.933594 0.015625)"/>
     <use xlink:href="#DejaVuSans-6e" transform="translate(1093.457031 0.015625)"/>
     <use xlink:href="#DejaVuSans-74" transform="translate(1156.835938 0.015625)"/>
     <use xlink:href="#DejaVuSans-20" transform="translate(1196.044922 0.015625)"/>
     <use xlink:href="#DejaVuSans-76" transform="translate(1227.832031 0.015625)"/>
     <use xlink:href="#DejaVuSans-61" transform="translate(1287.011719 0.015625)"/>
     <use xlink:href="#DejaVuSans-6c" transform="translate(1348.291016 0.015625)"/>
     <use xlink:href="#DejaVuSans-75" transform="translate(1376.074219 0.015625)"/>
     <use xlink:href="#DejaVuSans-65" transform="translate(1439.453125 0.015625)"/>
     <use xlink:href="#DejaVuSans-73" transform="translate(1500.976562 0.015625)"/>
     <use xlink:href="#DejaVuSans-20" transform="translate(1553.076172 0.015625)"/>
     <use xlink:href="#DejaVuSans-6f" transform="translate(1584.863281 0.015625)"/>
     <use xlink:href="#DejaVuSans-66" transform="translate(1646.044922 0.015625)"/>
     <use xlink:href="#DejaVuSans-20" transform="translate(1681.25 0.015625)"/>
     <use xlink:href="#DejaVuSans-Oblique-3c4" transform="translate(1713.037109 0.015625)"/>
     <use xlink:href="#DejaVuSans-20" transform="translate(1773.242188 0.015625)"/>
     <use xlink:href="#DejaVuSans-61" transform="translate(1805.029297 0.015625)"/>
     <use xlink:href="#DejaVuSans-74" transform="translate(1866.308594 0.015625)"/>
     <use xlink:href="#DejaVuSans-20" transform="translate(1905.517578 0.015625)"/>
     <use xlink:href="#DejaVuSans-Oblique-43" transform="translate(1937.304688 0.015625)"/>
     <use xlink:href="#DejaVuSans-3d" transform="translate(2026.611328 0.015625)"/>
     <use xlink:href="#DejaVuSans-30" transform="translate(2129.882812 0.015625)"/>
    </g>
   </g>
   <g id="legend_1">
    <g id="patch_7">
     <path d="M 58.9 248.5 
L 135.13 248.5 
Q 136.53 248.5 136.53 247.1 
L 136.53 155.19 
Q 136.53 153.79 135.13 153.79 
L 58.9 153.79 
Q 57.5 153.79 57.5 155.19 
L 57.5 247.1 
Q 57.5 248.5 58.9 248.5 
z
" style="fill: #ffffff; fill-opacity: 0.6; stroke: #cccccc; stroke-linejoin: miter"/>
    </g>
    <g id="line2d_25">
     <path d="M 60.3 159.46 
L 67.3 159.46 
L 74.3 159.46 
" style="fill: none; stroke: #000000; stroke-width: 1.5; stroke-linecap: square"/>
    </g>
    <g id="text_19">
     <!-- $\log_{10}\tau=-3.0$ -->
     <g transform="translate(79.9 161.91)scale(0.07 -0.07)">
      <defs>
       <path id="DejaVuSans-67" d="M 2906 1791 
Q 2906 2416 2648 2759 
Q 2391 3103 1925 3103 
Q 1463 3103 1205 2759 
Q 947 2416 947 1791 
Q 947 1169 1205 825 
Q 1463 481 1925 481 
Q 2391 481 2648 825 
Q 2906 1169 2906 1791 
z
M 3481 434 
Q 3481 -459 3084 -895 
Q 2688 -1331 1869 -1331 
Q 1566 -1331 1297 -1286 
Q 1028 -1241 775 -1147 
L 775 -588 
Q 1028 -725 1275 -790 
Q 1522 -856 1778 -856 
Q 2344 -856 2625 -561 
Q 2906 -266 2906 331 
L 2906 616 
Q 2728 306 2450 153 
Q 2172 0 1784 0 
Q 1141 0 747 490 
Q 353 981 353 1791 
Q 353 2603 747 3093 
Q 1141 3584 1784 3584 
Q 2172 3584 2450 3431 
Q 2728 3278 2906 2969 
L 2906 3500 
L 3481 3500 
L 3481 434 
z
" transform="scale(0.015625)"/>
      </defs>
      <use xlink:href="#DejaVuSans-6c" transform="translate(0 0.015625)"/>
      <use xlink:href="#DejaVuSans-6f" transform="translate(27.783203 0.015625)"/>
      <use xlink:href="#DejaVuSans-67" transform="translate(88.964844 0.015625)"/>
      <use xlink:href="#DejaVuSans-31" transform="translate(153.398438 -16.390625)scale(0.7)"/>
      <use xlink:href="#DejaVuSans-30" transform="translate(197.93457 -16.390625)scale(0.7)"/>
      <use xlink:href="#DejaVuSans-Oblique-3c4" transform="translate(245.205078 0.015625)"/>
      <use xlink:href="#DejaVuSans-3d" transform="translate(324.892578 0.015625)"/>
      <use xlink:href="#DejaVuSans-2212" transform="translate(447.646484 0.015625)"/>
      <use xlink:href="#DejaVuSans-33" transform="translate(550.917969 0.015625)"/>
      <use xlink:href="#DejaVuSans-2e" transform="translate(614.541016 0.015625)"/>
      <use xlink:href="#DejaVuSans-30" transform="translate(646.328125 0.015625)"/>
     </g>
    </g>
    <g id="line2d_26">
     <path d="M 60.3 169.75 
L 67.3 169.75 
L 74.3 169.75 
" style="fill: none; stroke-dasharray: 5.55,2.4; stroke-dashoffset: 0; stroke: #000000; stroke-width: 1.5"/>
    </g>
    <g id="text_20">
     <!-- $\log_{10}\tau=-2.75$ -->
     <g transform="translate(79.9 172.2)scale(0.07 -0.07)">
      <use xlink:href="#DejaVuSans-6c" transform="translate(0 0.015625)"/>
      <use xlink:href="#DejaVuSans-6f" transform="translate(27.783203 0.015625)"/>
      <use xlink:href="#DejaVuSans-67" transform="translate(88.964844 0.015625)"/>
      <use xlink:href="#DejaVuSans-31" transform="translate(153.398438 -16.390625)scale(0.7)"/>
      <use xlink:href="#DejaVuSans-30" transform="translate(197.93457 -16.390625)scale(0.7)"/>
      <use xlink:href="#DejaVuSans-Oblique-3c4" transform="translate(245.205078 0.015625)"/>
      <use xlink:href="#DejaVuSans-3d" transform="translate(324.892578 0.015625)"/>
      <use xlink:href="#DejaVuSans-2212" transform="translate(447.646484 0.015625)"/>
      <use xlink:href="#DejaVuSans-32" transform="translate(550.917969 0.015625)"/>
      <use xlink:href="#DejaVuSans-2e" transform="translate(614.541016 0.015625)"/>
      <use xlink:href="#DejaVuSans-37" transform="translate(638.578125 0.015625)"/>
      <use xlink:href="#DejaVuSans-35" transform="translate(702.201172 0.015625)"/>
     </g>
    </g>
    <g id="line2d_27">
     <path d="M 60.3 180.04 
L 67.3 180.04 
L 74.3 180.04 
" style="fill: none; stroke-dasharray: 1.5,2.475; stroke-dashoffset: 0; stroke: #000000; stroke-width: 1.5"/>
    </g>
    <g id="text_21">
     <!-- $\log_{10}\tau=-2.5$ -->
     <g transform="translate(79.9 182.49)scale(0.07 -0.07)">
      <use xlink:href="#DejaVuSans-6c" transform="translate(0 0.015625)"/>
      <use xlink:href="#DejaVuSans-6f" transform="translate(27.783203 0.015625)"/>
      <use xlink:href="#DejaVuSans-67" transform="translate(88.964844 0.015625)"/>
      <use xlink:href="#DejaVuSans-31" transform="translate(153.398438 -16.390625)scale(0.7)"/>
      <use xlink:href="#DejaVuSans-30" transform="translate(197.93457 -16.390625)scale(0.7)"/>
      <use xlink:href="#DejaVuSans-Oblique-3c4" transform="translate(245.205078 0.015625)"/>
      <use xlink:href="#DejaVuSans-3d" transform="translate(324.892578 0.015625)"/>
      <use xlink:href="#DejaVuSans-2212" transform="translate(447.646484 0.015625)"/>
      <use xlink:href="#DejaVuSans-32" transform="translate(550.917969 0.015625)"/>
      <use xlink:href="#DejaVuSans-2e" transform="translate(614.541016 0.015625)"/>
      <use xlink:href="#DejaVuSans-35" transform="translate(646.328125 0.015625)"/>
     </g>
    </g>
    <g id="line2d_28">
     <path d="M 60.3 190.33 
L 67.3 190.33 
L 74.3 190.33 
" style="fill: none; stroke-dasharray: 9.6,2.4,1.5,2.4; stroke-dashoffset: 0; stroke: #000000; stroke-width: 1.5"/>
    </g>
    <g id="text_22">
     <!-- $\log_{10}\tau=-2.25$ -->
     <g transform="translate(79.9 192.78)scale(0.07 -0.07)">
      <use xlink:href="#DejaVuSans-6c" transform="translate(0 0.015625)"/>
      <use xlink:href="#DejaVuSans-6f" transform="translate(27.783203 0.015625)"/>
      <use xlink:href="#DejaVuSans-67" transform="translate(88.964844 0.015625)"/>
      <use xlink:href="#DejaVuSans-31" transform="translate(153.398438 -16.390625)scale(0.7)"/>
      <use xlink:href="#DejaVuSans-30" transform="translate(197.93457 -16.390625)scale(0.7)"/>
      <use xlink:href="#DejaVuSans-Oblique-3c4" transform="translate(245.205078 0.015625)"/>
      <use xlink:href="#DejaVuSans-3d" transform="translate(324.892578 0.015625)"/>
      <use xlink:href="#DejaVuSans-2212" transform="translate(447.646484 0.015625)"/>
      <use xlink:href="#DejaVuSans-32" transform="translate(550.917969 0.015625)"/>
      <use xlink:href="#DejaVuSans-2e" transform="translate(614.541016 0.015625)"/>
      <use xlink:href="#DejaVuSans-32" transform="translate(640.828125 0.015625)"/>
      <use xlink:href="#DejaVuSans-35" transform="translate(704.451172 0.015625)"/>
     </g>
    </g>
    <g id="line2d_29">
     <path d="M 60.3 200.62 
L 67.3 200.62 
L 74.3 200.62 
" style="fill: none; stroke: #000000; stroke-width: 1.5; stroke-linecap: square"/>
     <g>
      <use xlink:href="#m2b185a4996" x="67.3" y="200.62" style="stroke: #000000"/>
     </g>
    </g>
    <g id="text_23">
     <!-- $\log_{10}\tau=-2.0$ -->
     <g transform="translate(79.9 203.07)scale(0.07 -0.07)">
      <use xlink:href="#DejaVuSans-6c" transform="translate(0 0.015625)"/>
      <use xlink:href="#DejaVuSans-6f" transform="translate(27.783203 0.015625)"/>
      <use xlink:href="#DejaVuSans-67" transform="translate(88.964844 0.015625)"/>
      <use xlink:href="#DejaVuSans-31" transform="translate(153.398438 -16.390625)scale(0.7)"/>
      <use xlink:href="#DejaVuSans-30" transform="translate(197.93457 -16.390625)scale(0.7)"/>
      <use xlink:href="#DejaVuSans-Oblique-3c4" transform="translate(245.205078 0.015625)"/>
      <use xlink:href="#DejaVuSans-3d" transform="translate(324.892578 0.015625)"/>
      <use xlink:href="#DejaVuSans-2212" transform="translate(447.646484 0.015625)"/>
      <use xlink:href="#DejaVuSans-32" transform="translate(550.917969 0.015625)"/>
      <use xlink:href="#DejaVuSans-2e" transform="translate(614.541016 0.015625)"/>
      <use xlink:href="#DejaVuSans-30" transform="translate(646.328125 0.015625)"/>
     </g>
    </g>
    <g id="line2d_30">
     <path d="M 60.3 210.91 
L 67.3 210.91 
L 74.3 210.91 
" style="fill: none; stroke-dasharray: 5.55,2.4; stroke-dashoffset: 0; stroke: #000000; stroke-width: 1.5"/>
     <g>
      <use xlink:href="#m2b185a4996" x="67.3" y="210.91" style="stroke: #000000"/>
     </g>
    </g>
    <g id="text_24">
     <!-- $\log_{10}\tau=-1.75$ -->
     <g transform="translate(79.9 213.36)scale(0.07 -0.07)">
      <use xlink:href="#DejaVuSans-6c" transform="translate(0 0.015625)"/>
      <use xlink:href="#DejaVuSans-6f" transform="translate(27.783203 0.015625)"/>
      <use xlink:href="#DejaVuSans-67" transform="translate(88.964844 0.015625)"/>
      <use xlink:href="#DejaVuSans-31" transform="translate(153.398438 -16.390625)scale(0.7)"/>
      <use xlink:href="#DejaVuSans-30" transform="translate(197.93457 -16.390625)scale(0.7)"/>
      <use xlink:href="#DejaVuSans-Oblique-3c4" transform="translate(245.205078 0.015625)"/>
      <use xlink:href="#DejaVuSans-3d" transform="translate(324.892578 0.015625)"/>
      <use xlink:href="#DejaVuSans-2212" transform="translate(447.646484 0.015625)"/>
      <use xlink:href="#DejaVuSans-31" transform="translate(550.917969 0.015625)"/>
      <use xlink:href="#DejaVuSans-2e" transform="translate(614.541016 0.015625)"/>
      <use xlink:href="#DejaVuSans-37" transform="translate(638.578125 0.015625)"/>
      <use xlink:href="#DejaVuSans-35" transform="translate(702.201172 0.015625)"/>
     </g>
    </g>
    <g id="line2d_31">
     <path d="M 60.3 221.2 
L 67.3 221.2 
L 74.3 221.2 
" style="fill: none; stroke-dasharray: 1.5,2.475; stroke-dashoffset: 0; stroke: #000000; stroke-width: 1.5"/>
     <g>
      <use xlink:href="#m2b185a4996" x="67.3" y="221.2" style="stroke: #000000"/>
     </g>
    </g>
    <g id="text_25">
     <!-- $\log_{10}\tau=-1.5$ -->
     <g transform="translate(79.9 223.65)scale(0.07 -0.07)">
      <use xlink:href="#DejaVuSans-6c" transform="translate(0 0.015625)"/>
      <use xlink:href="#DejaVuSans-6f" transform="translate(27.783203 0.015625)"/>
      <use xlink:href="#DejaVuSans-67" transform="translate(88.964844 0.015625)"/>
      <use xlink:href="#DejaVuSans-31" transform="translate(153.398438 -16.390625)scale(0.7)"/>
      <use xlink:href="#DejaVuSans-30" transform="translate(197.93457 -16.390625)scale(0.7)"/>
      <use xlink:href="#DejaVuSans-Oblique-3c4" transform="translate(245.205078 0.015625)"/>
      <use xlink:href="#DejaVuSans-3d" transform="translate(324.892578 0.015625)"/>
      <use xlink:href="#DejaVuSans-2212" transform="translate(447.646484 0.015625)"/>
      <use xlink:href="#DejaVuSans-31" transform="translate(550.917969 0.015625)"/>
      <use xlink:href="#DejaVuSans-2e" transform="translate(614.541016 0.015625)"/>
      <use xlink:href="#DejaVuSans-35" transform="translate(646.328125 0.015625)"/>
     </g>
    </g>
    <g id="line2d_32">
     <path d="M 60.3 231.49 
L 67.3 231.49 
L 74.3 231.49 
" style="fill: none; stroke-dasharray: 9.6,2.4,1.5,2.4; stroke-dashoffset: 0; stroke: #000000; stroke-width: 1.5"/>
     <g>
      <use xlink:href="#m2b185a4996" x="67.3" y="231.49" style="stroke: #000000"/>
     </g>
    </g>
    <g id="text_26">
     <!-- $\log_{10}\tau=-1.25$ -->
     <g transform="translate(79.9 233.94)scale(0.07 -0.07)">
      <use xlink:href="#DejaVuSans-6c" transform="translate(0 0.015625)"/>
      <use xlink:href="#DejaVuSans-6f" transform="translate(27.783203 0.015625)"/>
      <use xlink:href="#DejaVuSans-67" transform="translate(88.964844 0.015625)"/>
      <use xlink:href="#DejaVuSans-31" transform="translate(153.398438 -16.390625)scale(0.7)"/>
      <use xlink:href="#DejaVuSans-30" transform="translate(197.93457 -16.390625)scale(0.7)"/>
      <use xlink:href="#DejaVuSans-Oblique-3c4" transform="translate(245.205078 0.015625)"/>
      <use xlink:href="#DejaVuSans-3d" transform="translate(324.892578 0.015625)"/>
      <use xlink:href="#DejaVuSans-2212" transform="translate(447.646484 0.015625)"/>
      <use xlink:href="#DejaVuSans-31" transform="translate(550.917969 0.015625)"/>
      <use xlink:href="#DejaVuSans-2e" transform="translate(614.541016 0.015625)"/>
      <use xlink:href="#DejaVuSans-32" transform="translate(640.828125 0.015625)"/>
      <use xlink:href="#DejaVuSans-35" transform="translate(704.451172 0.015625)"/>
     </g>
    </g>
    <g id="line2d_33">
     <path d="M 60.3 241.78 
L 67.3 241.78 
L 74.3 241.78 
" style="fill: none; stroke: #000000; stroke-width: 1.5; stroke-linecap: square"/>
     <g>
      <use xlink:href="#m7f2950415e" x="67.3" y="241.78" style="stroke: #000000"/>
     </g>
    </g>
    <g id="text_27">
     <!-- $\log_{10}\tau=-1.0$ -->
     <g transform="translate(79.9 244.23)scale(0.07 -0.07)">
      <use xlink:href="#DejaVuSans-6c" transform="translate(0 0.015625)"/>
      <use xlink:href="#DejaVuSans-6f" transform="translate(27.783203 0.015625)"/>
      <use xlink:href="#DejaVuSans-67" transform="translate(88.964844 0.015625)"/>
      <use xlink:href="#DejaVuSans-31" transform="translate(153.398438 -16.390625)scale(0.7)"/>
      <use xlink:href="#DejaVuSans-30" transform="translate(197.93457 -16.390625)scale(0.7)"/>
      <use xlink:href="#DejaVuSans-Oblique-3c4" transform="translate(245.205078 0.015625)"/>
      <use xlink:href="#DejaVuSans-3d" transform="translate(324.892578 0.015625)"/>
      <use xlink:href="#DejaVuSans-2212" transform="translate(447.646484 0.015625)"/>
      <use xlink:href="#DejaVuSans-31" transform="translate(550.917969 0.015625)"/>
      <use xlink:href="#DejaVuSans-2e" transform="translate(614.541016 0.015625)"/>
      <use xlink:href="#DejaVuSans-30" transform="translate(646.328125 0.015625)"/>
     </g>
    </g>
   </g>
  </g>
 </g>
 <defs>
  <clipPath id="p766fd99e14">
   <rect x="54" y="34.56" width="334.8" height="217.44"/>
  </clipPath>
 </defs>
</svg>
