<?xml version="1.0" encoding="utf-8" standalone="no"?>
<!DOCTYPE svg PUBLIC "-//W3C//DTD SVG 1.1//EN"
  "http://www.w3.org/Graphics/SVG/1.1/DTD/svg11.dtd">
<svg xmlns:xlink="http://www.w3.org/1999/xlink" width="432pt" height="288pt" viewBox="0 0 432 288" xmlns="http://www.w3.org/2000/svg" version="1.1">
 <metadata>
  <rdf:RDF xmlns:dc="http://purl.org/dc/elements/1.1/" xmlns:cc="http://creativecommons.org/ns#" xmlns:rdf="http://www.w3.org/1999/02/22-rdf-syntax-ns#">
   <cc:Work>
    <dc:type rdf:resource="http://purl.org/dc/dcmitype/StillImage"/>
    <dc:date>2023-04-21T00:34:55.533412</dc:date>
    <dc:format>image/svg+xml</dc:format>
    <dc:creator>
     <cc:Agent>
      <dc:title>Matplotlib v3.5.1, https://matplotlib.org/</dc:title>
     </cc:Agent>
    </dc:creator>
   </cc:Work>
  </rdf:RDF>
 </metadata>
 <defs>
  <style type="text/css">*{stroke-linejoin: round; stroke-linecap: butt}</style>
 </defs>
 <g id="figure_1">
  <g id="patch_1">
   <path d="M 0 288 
L 432 288 
L 432 0 
L 0 0 
L 0 288 
z
" style="fill: none"/>
  </g>
  <g id="axes_1">
   <g id="patch_2">
    <path d="M 54 252 
L 388.8 252 
L 388.8 34.56 
L 54 34.56 
z
" style="fill: #ffffff"/>
   </g>
   <g id="matplotlib.axis_1">
    <g id="xtick_1">
     <g id="line2d_1">
      <defs>
       <path id="m4794e9f2bb" d="M 0 0 
L 0 3.5 
" style="stroke: #000000; stroke-width: 0.8"/>
      </defs>
      <g>
       <use xlink:href="#m4794e9f2bb" x="69.218182" y="252" style="stroke: #000000; stroke-width: 0.8"/>
      </g>
     </g>
     <g id="text_1">
      <!-- −1.00 -->
      <g transform="translate(53.895526 266.598437)scale(0.1 -0.1)">
       <defs>
        <path id="DejaVuSans-2212" d="M 678 2272 
L 4684 2272 
L 4684 1741 
L 678 1741 
L 678 2272 
z
" transform="scale(0.015625)"/>
        <path id="DejaVuSans-31" d="M 794 531 
L 1825 531 
L 1825 4091 
L 703 3866 
L 703 4441 
L 1819 4666 
L 2450 4666 
L 2450 531 
L 3481 531 
L 3481 0 
L 794 0 
L 794 531 
z
" transform="scale(0.015625)"/>
        <path id="DejaVuSans-2e" d="M 684 794 
L 1344 794 
L 1344 0 
L 684 0 
L 684 794 
z
" transform="scale(0.015625)"/>
        <path id="DejaVuSans-30" d="M 2034 4250 
Q 1547 4250 1301 3770 
Q 1056 3291 1056 2328 
Q 1056 1369 1301 889 
Q 1547 409 2034 409 
Q 2525 409 2770 889 
Q 3016 1369 3016 2328 
Q 3016 3291 2770 3770 
Q 2525 4250 2034 4250 
z
M 2034 4750 
Q 2819 4750 3233 4129 
Q 3647 3509 3647 2328 
Q 3647 1150 3233 529 
Q 2819 -91 2034 -91 
Q 1250 -91 836 529 
Q 422 1150 422 2328 
Q 422 3509 836 4129 
Q 1250 4750 2034 4750 
z
" transform="scale(0.015625)"/>
       </defs>
       <use xlink:href="#DejaVuSans-2212"/>
       <use xlink:href="#DejaVuSans-31" x="83.789062"/>
       <use xlink:href="#DejaVuSans-2e" x="147.412109"/>
       <use xlink:href="#DejaVuSans-30" x="179.199219"/>
       <use xlink:href="#DejaVuSans-30" x="242.822266"/>
      </g>
     </g>
    </g>
    <g id="xtick_2">
     <g id="line2d_2">
      <g>
       <use xlink:href="#m4794e9f2bb" x="107.263636" y="252" style="stroke: #000000; stroke-width: 0.8"/>
      </g>
     </g>
     <g id="text_2">
      <!-- −0.75 -->
      <g transform="translate(91.94098 266.598437)scale(0.1 -0.1)">
       <defs>
        <path id="DejaVuSans-37" d="M 525 4666 
L 3525 4666 
L 3525 4397 
L 1831 0 
L 1172 0 
L 2766 4134 
L 525 4134 
L 525 4666 
z
" transform="scale(0.015625)"/>
        <path id="DejaVuSans-35" d="M 691 4666 
L 3169 4666 
L 3169 4134 
L 1269 4134 
L 1269 2991 
Q 1406 3038 1543 3061 
Q 1681 3084 1819 3084 
Q 2600 3084 3056 2656 
Q 3513 2228 3513 1497 
Q 3513 744 3044 326 
Q 2575 -91 1722 -91 
Q 1428 -91 1123 -41 
Q 819 9 494 109 
L 494 744 
Q 775 591 1075 516 
Q 1375 441 1709 441 
Q 2250 441 2565 725 
Q 2881 1009 2881 1497 
Q 2881 1984 2565 2268 
Q 2250 2553 1709 2553 
Q 1456 2553 1204 2497 
Q 953 2441 691 2322 
L 691 4666 
z
" transform="scale(0.015625)"/>
       </defs>
       <use xlink:href="#DejaVuSans-2212"/>
       <use xlink:href="#DejaVuSans-30" x="83.789062"/>
       <use xlink:href="#DejaVuSans-2e" x="147.412109"/>
       <use xlink:href="#DejaVuSans-37" x="179.199219"/>
       <use xlink:href="#DejaVuSans-35" x="242.822266"/>
      </g>
     </g>
    </g>
    <g id="xtick_3">
     <g id="line2d_3">
      <g>
       <use xlink:href="#m4794e9f2bb" x="145.309091" y="252" style="stroke: #000000; stroke-width: 0.8"/>
      </g>
     </g>
     <g id="text_3">
      <!-- −0.50 -->
      <g transform="translate(129.986435 266.598437)scale(0.1 -0.1)">
       <use xlink:href="#DejaVuSans-2212"/>
       <use xlink:href="#DejaVuSans-30" x="83.789062"/>
       <use xlink:href="#DejaVuSans-2e" x="147.412109"/>
       <use xlink:href="#DejaVuSans-35" x="179.199219"/>
       <use xlink:href="#DejaVuSans-30" x="242.822266"/>
      </g>
     </g>
    </g>
    <g id="xtick_4">
     <g id="line2d_4">
      <g>
       <use xlink:href="#m4794e9f2bb" x="183.354545" y="252" style="stroke: #000000; stroke-width: 0.8"/>
      </g>
     </g>
     <g id="text_4">
      <!-- −0.25 -->
      <g transform="translate(168.031889 266.598437)scale(0.1 -0.1)">
       <defs>
        <path id="DejaVuSans-32" d="M 1228 531 
L 3431 531 
L 3431 0 
L 469 0 
L 469 531 
Q 828 903 1448 1529 
Q 2069 2156 2228 2338 
Q 2531 2678 2651 2914 
Q 2772 3150 2772 3378 
Q 2772 3750 2511 3984 
Q 2250 4219 1831 4219 
Q 1534 4219 1204 4116 
Q 875 4013 500 3803 
L 500 4441 
Q 881 4594 1212 4672 
Q 1544 4750 1819 4750 
Q 2544 4750 2975 4387 
Q 3406 4025 3406 3419 
Q 3406 3131 3298 2873 
Q 3191 2616 2906 2266 
Q 2828 2175 2409 1742 
Q 1991 1309 1228 531 
z
" transform="scale(0.015625)"/>
       </defs>
       <use xlink:href="#DejaVuSans-2212"/>
       <use xlink:href="#DejaVuSans-30" x="83.789062"/>
       <use xlink:href="#DejaVuSans-2e" x="147.412109"/>
       <use xlink:href="#DejaVuSans-32" x="179.199219"/>
       <use xlink:href="#DejaVuSans-35" x="242.822266"/>
      </g>
     </g>
    </g>
    <g id="xtick_5">
     <g id="line2d_5">
      <g>
       <use xlink:href="#m4794e9f2bb" x="221.4" y="252" style="stroke: #000000; stroke-width: 0.8"/>
      </g>
     </g>
     <g id="text_5">
      <!-- 0.00 -->
      <g transform="translate(210.267188 266.598437)scale(0.1 -0.1)">
       <use xlink:href="#DejaVuSans-30"/>
       <use xlink:href="#DejaVuSans-2e" x="63.623047"/>
       <use xlink:href="#DejaVuSans-30" x="95.410156"/>
       <use xlink:href="#DejaVuSans-30" x="159.033203"/>
      </g>
     </g>
    </g>
    <g id="xtick_6">
     <g id="line2d_6">
      <g>
       <use xlink:href="#m4794e9f2bb" x="259.445455" y="252" style="stroke: #000000; stroke-width: 0.8"/>
      </g>
     </g>
     <g id="text_6">
      <!-- 0.25 -->
      <g transform="translate(248.312642 266.598437)scale(0.1 -0.1)">
       <use xlink:href="#DejaVuSans-30"/>
       <use xlink:href="#DejaVuSans-2e" x="63.623047"/>
       <use xlink:href="#DejaVuSans-32" x="95.410156"/>
       <use xlink:href="#DejaVuSans-35" x="159.033203"/>
      </g>
     </g>
    </g>
    <g id="xtick_7">
     <g id="line2d_7">
      <g>
       <use xlink:href="#m4794e9f2bb" x="297.490909" y="252" style="stroke: #000000; stroke-width: 0.8"/>
      </g>
     </g>
     <g id="text_7">
      <!-- 0.50 -->
      <g transform="translate(286.358097 266.598437)scale(0.1 -0.1)">
       <use xlink:href="#DejaVuSans-30"/>
       <use xlink:href="#DejaVuSans-2e" x="63.623047"/>
       <use xlink:href="#DejaVuSans-35" x="95.410156"/>
       <use xlink:href="#DejaVuSans-30" x="159.033203"/>
      </g>
     </g>
    </g>
    <g id="xtick_8">
     <g id="line2d_8">
      <g>
       <use xlink:href="#m4794e9f2bb" x="335.536364" y="252" style="stroke: #000000; stroke-width: 0.8"/>
      </g>
     </g>
     <g id="text_8">
      <!-- 0.75 -->
      <g transform="translate(324.403551 266.598437)scale(0.1 -0.1)">
       <use xlink:href="#DejaVuSans-30"/>
       <use xlink:href="#DejaVuSans-2e" x="63.623047"/>
       <use xlink:href="#DejaVuSans-37" x="95.410156"/>
       <use xlink:href="#DejaVuSans-35" x="159.033203"/>
      </g>
     </g>
    </g>
    <g id="xtick_9">
     <g id="line2d_9">
      <g>
       <use xlink:href="#m4794e9f2bb" x="373.581818" y="252" style="stroke: #000000; stroke-width: 0.8"/>
      </g>
     </g>
     <g id="text_9">
      <!-- 1.00 -->
      <g transform="translate(362.449006 266.598437)scale(0.1 -0.1)">
       <use xlink:href="#DejaVuSans-31"/>
       <use xlink:href="#DejaVuSans-2e" x="63.623047"/>
       <use xlink:href="#DejaVuSans-30" x="95.410156"/>
       <use xlink:href="#DejaVuSans-30" x="159.033203"/>
      </g>
     </g>
    </g>
    <g id="text_10">
     <!-- $\rho$ -->
     <g transform="translate(218.2 280.25625)scale(0.1 -0.1)">
      <defs>
       <path id="DejaVuSans-Oblique-3c1" d="M 1203 2875 
Q 1453 3194 1981 3475 
Q 2188 3584 2756 3584 
Q 3394 3584 3694 3078 
Q 3994 2572 3834 1747 
Q 3672 922 3175 415 
Q 2678 -91 2041 -91 
Q 1656 -91 1409 63 
Q 1163 213 1044 525 
L 681 -1331 
L 103 -1331 
L 697 1716 
Q 838 2438 1203 2875 
z
M 3238 1747 
Q 3359 2381 3169 2744 
Q 2978 3103 2522 3103 
Q 2066 3103 1734 2744 
Q 1403 2381 1281 1747 
Q 1156 1113 1347 750 
Q 1538 391 1994 391 
Q 2450 391 2781 750 
Q 3113 1113 3238 1747 
z
" transform="scale(0.015625)"/>
      </defs>
      <use xlink:href="#DejaVuSans-Oblique-3c1"/>
     </g>
    </g>
   </g>
   <g id="matplotlib.axis_2">
    <g id="ytick_1">
     <g id="line2d_10">
      <defs>
       <path id="ma0de55020b" d="M 0 0 
L -3.5 0 
" style="stroke: #000000; stroke-width: 0.8"/>
      </defs>
      <g>
       <use xlink:href="#ma0de55020b" x="54" y="249.13142" style="stroke: #000000; stroke-width: 0.8"/>
      </g>
     </g>
     <g id="text_11">
      <!-- 0.075 -->
      <g transform="translate(18.371875 252.930638)scale(0.1 -0.1)">
       <use xlink:href="#DejaVuSans-30"/>
       <use xlink:href="#DejaVuSans-2e" x="63.623047"/>
       <use xlink:href="#DejaVuSans-30" x="95.410156"/>
       <use xlink:href="#DejaVuSans-37" x="159.033203"/>
       <use xlink:href="#DejaVuSans-35" x="222.65625"/>
      </g>
     </g>
    </g>
    <g id="ytick_2">
     <g id="line2d_11">
      <g>
       <use xlink:href="#ma0de55020b" x="54" y="219.781155" style="stroke: #000000; stroke-width: 0.8"/>
      </g>
     </g>
     <g id="text_12">
      <!-- 0.100 -->
      <g transform="translate(18.371875 223.580374)scale(0.1 -0.1)">
       <use xlink:href="#DejaVuSans-30"/>
       <use xlink:href="#DejaVuSans-2e" x="63.623047"/>
       <use xlink:href="#DejaVuSans-31" x="95.410156"/>
       <use xlink:href="#DejaVuSans-30" x="159.033203"/>
       <use xlink:href="#DejaVuSans-30" x="222.65625"/>
      </g>
     </g>
    </g>
    <g id="ytick_3">
     <g id="line2d_12">
      <g>
       <use xlink:href="#ma0de55020b" x="54" y="190.430891" style="stroke: #000000; stroke-width: 0.8"/>
      </g>
     </g>
     <g id="text_13">
      <!-- 0.125 -->
      <g transform="translate(18.371875 194.23011)scale(0.1 -0.1)">
       <use xlink:href="#DejaVuSans-30"/>
       <use xlink:href="#DejaVuSans-2e" x="63.623047"/>
       <use xlink:href="#DejaVuSans-31" x="95.410156"/>
       <use xlink:href="#DejaVuSans-32" x="159.033203"/>
       <use xlink:href="#DejaVuSans-35" x="222.65625"/>
      </g>
     </g>
    </g>
    <g id="ytick_4">
     <g id="line2d_13">
      <g>
       <use xlink:href="#ma0de55020b" x="54" y="161.080627" style="stroke: #000000; stroke-width: 0.8"/>
      </g>
     </g>
     <g id="text_14">
      <!-- 0.150 -->
      <g transform="translate(18.371875 164.879846)scale(0.1 -0.1)">
       <use xlink:href="#DejaVuSans-30"/>
       <use xlink:href="#DejaVuSans-2e" x="63.623047"/>
       <use xlink:href="#DejaVuSans-31" x="95.410156"/>
       <use xlink:href="#DejaVuSans-35" x="159.033203"/>
       <use xlink:href="#DejaVuSans-30" x="222.65625"/>
      </g>
     </g>
    </g>
    <g id="ytick_5">
     <g id="line2d_14">
      <g>
       <use xlink:href="#ma0de55020b" x="54" y="131.730363" style="stroke: #000000; stroke-width: 0.8"/>
      </g>
     </g>
     <g id="text_15">
      <!-- 0.175 -->
      <g transform="translate(18.371875 135.529581)scale(0.1 -0.1)">
       <use xlink:href="#DejaVuSans-30"/>
       <use xlink:href="#DejaVuSans-2e" x="63.623047"/>
       <use xlink:href="#DejaVuSans-31" x="95.410156"/>
       <use xlink:href="#DejaVuSans-37" x="159.033203"/>
       <use xlink:href="#DejaVuSans-35" x="222.65625"/>
      </g>
     </g>
    </g>
    <g id="ytick_6">
     <g id="line2d_15">
      <g>
       <use xlink:href="#ma0de55020b" x="54" y="102.380099" style="stroke: #000000; stroke-width: 0.8"/>
      </g>
     </g>
     <g id="text_16">
      <!-- 0.200 -->
      <g transform="translate(18.371875 106.179317)scale(0.1 -0.1)">
       <use xlink:href="#DejaVuSans-30"/>
       <use xlink:href="#DejaVuSans-2e" x="63.623047"/>
       <use xlink:href="#DejaVuSans-32" x="95.410156"/>
       <use xlink:href="#DejaVuSans-30" x="159.033203"/>
       <use xlink:href="#DejaVuSans-30" x="222.65625"/>
      </g>
     </g>
    </g>
    <g id="ytick_7">
     <g id="line2d_16">
      <g>
       <use xlink:href="#ma0de55020b" x="54" y="73.029834" style="stroke: #000000; stroke-width: 0.8"/>
      </g>
     </g>
     <g id="text_17">
      <!-- 0.225 -->
      <g transform="translate(18.371875 76.829053)scale(0.1 -0.1)">
       <use xlink:href="#DejaVuSans-30"/>
       <use xlink:href="#DejaVuSans-2e" x="63.623047"/>
       <use xlink:href="#DejaVuSans-32" x="95.410156"/>
       <use xlink:href="#DejaVuSans-32" x="159.033203"/>
       <use xlink:href="#DejaVuSans-35" x="222.65625"/>
      </g>
     </g>
    </g>
    <g id="ytick_8">
     <g id="line2d_17">
      <g>
       <use xlink:href="#ma0de55020b" x="54" y="43.67957" style="stroke: #000000; stroke-width: 0.8"/>
      </g>
     </g>
     <g id="text_18">
      <!-- 0.250 -->
      <g transform="translate(18.371875 47.478789)scale(0.1 -0.1)">
       <use xlink:href="#DejaVuSans-30"/>
       <use xlink:href="#DejaVuSans-2e" x="63.623047"/>
       <use xlink:href="#DejaVuSans-32" x="95.410156"/>
       <use xlink:href="#DejaVuSans-35" x="159.033203"/>
       <use xlink:href="#DejaVuSans-30" x="222.65625"/>
      </g>
     </g>
    </g>
    <g id="text_19">
     <!-- $\bar r$ -->
     <g transform="translate(12.292187 145.43)rotate(-90)scale(0.1 -0.1)">
      <defs>
       <path id="DejaVuSans-304" d="M -2518 4769 
L -650 4769 
L -650 4306 
L -2518 4306 
L -2518 4769 
z
" transform="scale(0.015625)"/>
       <path id="DejaVuSans-Oblique-72" d="M 2853 2969 
Q 2766 3016 2653 3041 
Q 2541 3066 2413 3066 
Q 1953 3066 1609 2717 
Q 1266 2369 1153 1784 
L 800 0 
L 225 0 
L 909 3500 
L 1484 3500 
L 1375 2956 
Q 1603 3259 1920 3421 
Q 2238 3584 2597 3584 
Q 2691 3584 2781 3573 
Q 2872 3563 2963 3538 
L 2853 2969 
z
" transform="scale(0.015625)"/>
      </defs>
      <use xlink:href="#DejaVuSans-304" transform="translate(51.035156 1.484375)"/>
      <use xlink:href="#DejaVuSans-Oblique-72" transform="translate(0 0.265625)"/>
     </g>
    </g>
   </g>
   <g id="line2d_18">
    <path d="M 69.218182 44.443636 
L 84.436364 44.715956 
L 99.654545 46.153019 
L 114.872727 46.860111 
L 130.090909 48.638451 
L 145.309091 50.718102 
L 160.527273 52.51411 
L 175.745455 54.783082 
L 190.963636 56.878982 
L 206.181818 58.697313 
L 221.4 60.847202 
L 236.618182 62.948226 
L 251.836364 65.082272 
L 267.054545 67.843162 
L 282.272727 70.090478 
L 297.490909 72.130191 
L 312.709091 75.233952 
L 327.927273 77.556599 
L 343.145455 80.692664 
L 358.363636 83.960857 
L 373.581818 88.061431 
" clip-path="url(#p8f497749b2)" style="fill: none; stroke: #000000; stroke-width: 1.5; stroke-linecap: square"/>
   </g>
   <g id="line2d_19">
    <path d="M 69.218182 45.20647 
L 84.436364 46.056817 
L 99.654545 46.148743 
L 114.872727 47.62058 
L 130.090909 49.300612 
L 145.309091 50.928451 
L 160.527273 52.59086 
L 175.745455 54.953093 
L 190.963636 56.912921 
L 206.181818 59.286462 
L 221.4 61.330304 
L 236.618182 64.51619 
L 251.836364 65.907637 
L 267.054545 68.458153 
L 282.272727 70.689139 
L 297.490909 73.825469 
L 312.709091 75.987314 
L 327.927273 78.563772 
L 343.145455 81.656521 
L 358.363636 84.955914 
L 373.581818 89.815319 
" clip-path="url(#p8f497749b2)" style="fill: none; stroke-dasharray: 5.55,2.4; stroke-dashoffset: 0; stroke: #000000; stroke-width: 1.5"/>
   </g>
   <g id="line2d_20">
    <path d="M 69.218182 45.971719 
L 84.436364 46.948453 
L 99.654545 47.579708 
L 114.872727 48.577875 
L 130.090909 50.120569 
L 145.309091 52.13866 
L 160.527273 54.03295 
L 175.745455 56.453438 
L 190.963636 57.932811 
L 206.181818 60.227831 
L 221.4 62.464197 
L 236.618182 65.038931 
L 251.836364 67.95216 
L 267.054545 70.168348 
L 282.272727 72.748671 
L 297.490909 75.102539 
L 312.709091 77.932722 
L 327.927273 80.383856 
L 343.145455 83.140673 
L 358.363636 87.445339 
L 373.581818 91.159899 
" clip-path="url(#p8f497749b2)" style="fill: none; stroke-dasharray: 1.5,2.475; stroke-dashoffset: 0; stroke: #000000; stroke-width: 1.5"/>
   </g>
   <g id="line2d_21">
    <path d="M 69.218182 48.611717 
L 84.436364 48.387212 
L 99.654545 49.108904 
L 114.872727 50.895291 
L 130.090909 52.58696 
L 145.309091 54.185516 
L 160.527273 55.682436 
L 175.745455 57.895968 
L 190.963636 60.002055 
L 206.181818 62.286329 
L 221.4 64.740176 
L 236.618182 67.410729 
L 251.836364 69.986798 
L 267.054545 72.837522 
L 282.272727 75.282439 
L 297.490909 78.420621 
L 312.709091 81.061935 
L 327.927273 84.056617 
L 343.145455 87.272022 
L 358.363636 90.504799 
L 373.581818 97.052886 
" clip-path="url(#p8f497749b2)" style="fill: none; stroke-dasharray: 9.6,2.4,1.5,2.4; stroke-dashoffset: 0; stroke: #000000; stroke-width: 1.5"/>
   </g>
   <g id="line2d_22">
    <path d="M 69.218182 52.427049 
L 84.436364 52.708513 
L 99.654545 53.167806 
L 114.872727 54.11386 
L 130.090909 56.14856 
L 145.309091 57.608449 
L 160.527273 59.87419 
L 175.745455 62.016423 
L 190.963636 64.395393 
L 206.181818 66.723344 
L 221.4 69.189198 
L 236.618182 72.113817 
L 251.836364 75.269453 
L 267.054545 77.950532 
L 282.272727 80.132501 
L 297.490909 83.471552 
L 312.709091 87.201767 
L 327.927273 90.098748 
L 343.145455 92.203132 
L 358.363636 97.013254 
L 373.581818 101.36499 
" clip-path="url(#p8f497749b2)" style="fill: none; stroke: #000000; stroke-width: 1.5; stroke-linecap: square"/>
    <defs>
     <path id="m2206064e73" d="M 0 1.5 
C 0.397805 1.5 0.77937 1.341951 1.06066 1.06066 
C 1.341951 0.77937 1.5 0.397805 1.5 0 
C 1.5 -0.397805 1.341951 -0.77937 1.06066 -1.06066 
C 0.77937 -1.341951 0.397805 -1.5 0 -1.5 
C -0.397805 -1.5 -0.77937 -1.341951 -1.06066 -1.06066 
C -1.341951 -0.77937 -1.5 -0.397805 -1.5 0 
C -1.5 0.397805 -1.341951 0.77937 -1.06066 1.06066 
C -0.77937 1.341951 -0.397805 1.5 0 1.5 
z
" style="stroke: #000000"/>
    </defs>
    <g clip-path="url(#p8f497749b2)">
     <use xlink:href="#m2206064e73" x="69.218182" y="52.427049" style="stroke: #000000"/>
     <use xlink:href="#m2206064e73" x="84.436364" y="52.708513" style="stroke: #000000"/>
     <use xlink:href="#m2206064e73" x="99.654545" y="53.167806" style="stroke: #000000"/>
     <use xlink:href="#m2206064e73" x="114.872727" y="54.11386" style="stroke: #000000"/>
     <use xlink:href="#m2206064e73" x="130.090909" y="56.14856" style="stroke: #000000"/>
     <use xlink:href="#m2206064e73" x="145.309091" y="57.608449" style="stroke: #000000"/>
     <use xlink:href="#m2206064e73" x="160.527273" y="59.87419" style="stroke: #000000"/>
     <use xlink:href="#m2206064e73" x="175.745455" y="62.016423" style="stroke: #000000"/>
     <use xlink:href="#m2206064e73" x="190.963636" y="64.395393" style="stroke: #000000"/>
     <use xlink:href="#m2206064e73" x="206.181818" y="66.723344" style="stroke: #000000"/>
     <use xlink:href="#m2206064e73" x="221.4" y="69.189198" style="stroke: #000000"/>
     <use xlink:href="#m2206064e73" x="236.618182" y="72.113817" style="stroke: #000000"/>
     <use xlink:href="#m2206064e73" x="251.836364" y="75.269453" style="stroke: #000000"/>
     <use xlink:href="#m2206064e73" x="267.054545" y="77.950532" style="stroke: #000000"/>
     <use xlink:href="#m2206064e73" x="282.272727" y="80.132501" style="stroke: #000000"/>
     <use xlink:href="#m2206064e73" x="297.490909" y="83.471552" style="stroke: #000000"/>
     <use xlink:href="#m2206064e73" x="312.709091" y="87.201767" style="stroke: #000000"/>
     <use xlink:href="#m2206064e73" x="327.927273" y="90.098748" style="stroke: #000000"/>
     <use xlink:href="#m2206064e73" x="343.145455" y="92.203132" style="stroke: #000000"/>
     <use xlink:href="#m2206064e73" x="358.363636" y="97.013254" style="stroke: #000000"/>
     <use xlink:href="#m2206064e73" x="373.581818" y="101.36499" style="stroke: #000000"/>
    </g>
   </g>
   <g id="line2d_23">
    <path d="M 69.218182 60.266722 
L 84.436364 60.342346 
L 99.654545 60.866314 
L 114.872727 61.96773 
L 130.090909 63.768931 
L 145.309091 65.024474 
L 160.527273 67.590385 
L 175.745455 69.233113 
L 190.963636 71.906226 
L 206.181818 74.951723 
L 221.4 78.247485 
L 236.618182 80.600275 
L 251.836364 83.307238 
L 267.054545 88.293782 
L 282.272727 90.813888 
L 297.490909 94.779065 
L 312.709091 97.956901 
L 327.927273 101.928791 
L 343.145455 103.784511 
L 358.363636 108.926305 
L 373.581818 114.144029 
" clip-path="url(#p8f497749b2)" style="fill: none; stroke-dasharray: 5.55,2.4; stroke-dashoffset: 0; stroke: #000000; stroke-width: 1.5"/>
    <g clip-path="url(#p8f497749b2)">
     <use xlink:href="#m2206064e73" x="69.218182" y="60.266722" style="stroke: #000000"/>
     <use xlink:href="#m2206064e73" x="84.436364" y="60.342346" style="stroke: #000000"/>
     <use xlink:href="#m2206064e73" x="99.654545" y="60.866314" style="stroke: #000000"/>
     <use xlink:href="#m2206064e73" x="114.872727" y="61.96773" style="stroke: #000000"/>
     <use xlink:href="#m2206064e73" x="130.090909" y="63.768931" style="stroke: #000000"/>
     <use xlink:href="#m2206064e73" x="145.309091" y="65.024474" style="stroke: #000000"/>
     <use xlink:href="#m2206064e73" x="160.527273" y="67.590385" style="stroke: #000000"/>
     <use xlink:href="#m2206064e73" x="175.745455" y="69.233113" style="stroke: #000000"/>
     <use xlink:href="#m2206064e73" x="190.963636" y="71.906226" style="stroke: #000000"/>
     <use xlink:href="#m2206064e73" x="206.181818" y="74.951723" style="stroke: #000000"/>
     <use xlink:href="#m2206064e73" x="221.4" y="78.247485" style="stroke: #000000"/>
     <use xlink:href="#m2206064e73" x="236.618182" y="80.600275" style="stroke: #000000"/>
     <use xlink:href="#m2206064e73" x="251.836364" y="83.307238" style="stroke: #000000"/>
     <use xlink:href="#m2206064e73" x="267.054545" y="88.293782" style="stroke: #000000"/>
     <use xlink:href="#m2206064e73" x="282.272727" y="90.813888" style="stroke: #000000"/>
     <use xlink:href="#m2206064e73" x="297.490909" y="94.779065" style="stroke: #000000"/>
     <use xlink:href="#m2206064e73" x="312.709091" y="97.956901" style="stroke: #000000"/>
     <use xlink:href="#m2206064e73" x="327.927273" y="101.928791" style="stroke: #000000"/>
     <use xlink:href="#m2206064e73" x="343.145455" y="103.784511" style="stroke: #000000"/>
     <use xlink:href="#m2206064e73" x="358.363636" y="108.926305" style="stroke: #000000"/>
     <use xlink:href="#m2206064e73" x="373.581818" y="114.144029" style="stroke: #000000"/>
    </g>
   </g>
   <g id="line2d_24">
    <path d="M 69.218182 74.896289 
L 84.436364 74.127494 
L 99.654545 75.416062 
L 114.872727 76.085273 
L 130.090909 77.378658 
L 145.309091 78.89975 
L 160.527273 81.061055 
L 175.745455 83.648458 
L 190.963636 87.170409 
L 206.181818 90.235732 
L 221.4 93.481986 
L 236.618182 96.834221 
L 251.836364 100.558465 
L 267.054545 106.52603 
L 282.272727 110.316233 
L 297.490909 113.422923 
L 312.709091 119.589708 
L 327.927273 122.272476 
L 343.145455 125.524324 
L 358.363636 127.735866 
L 373.581818 129.275004 
" clip-path="url(#p8f497749b2)" style="fill: none; stroke-dasharray: 1.5,2.475; stroke-dashoffset: 0; stroke: #000000; stroke-width: 1.5"/>
    <g clip-path="url(#p8f497749b2)">
     <use xlink:href="#m2206064e73" x="69.218182" y="74.896289" style="stroke: #000000"/>
     <use xlink:href="#m2206064e73" x="84.436364" y="74.127494" style="stroke: #000000"/>
     <use xlink:href="#m2206064e73" x="99.654545" y="75.416062" style="stroke: #000000"/>
     <use xlink:href="#m2206064e73" x="114.872727" y="76.085273" style="stroke: #000000"/>
     <use xlink:href="#m2206064e73" x="130.090909" y="77.378658" style="stroke: #000000"/>
     <use xlink:href="#m2206064e73" x="145.309091" y="78.89975" style="stroke: #000000"/>
     <use xlink:href="#m2206064e73" x="160.527273" y="81.061055" style="stroke: #000000"/>
     <use xlink:href="#m2206064e73" x="175.745455" y="83.648458" style="stroke: #000000"/>
     <use xlink:href="#m2206064e73" x="190.963636" y="87.170409" style="stroke: #000000"/>
     <use xlink:href="#m2206064e73" x="206.181818" y="90.235732" style="stroke: #000000"/>
     <use xlink:href="#m2206064e73" x="221.4" y="93.481986" style="stroke: #000000"/>
     <use xlink:href="#m2206064e73" x="236.618182" y="96.834221" style="stroke: #000000"/>
     <use xlink:href="#m2206064e73" x="251.836364" y="100.558465" style="stroke: #000000"/>
     <use xlink:href="#m2206064e73" x="267.054545" y="106.52603" style="stroke: #000000"/>
     <use xlink:href="#m2206064e73" x="282.272727" y="110.316233" style="stroke: #000000"/>
     <use xlink:href="#m2206064e73" x="297.490909" y="113.422923" style="stroke: #000000"/>
     <use xlink:href="#m2206064e73" x="312.709091" y="119.589708" style="stroke: #000000"/>
     <use xlink:href="#m2206064e73" x="327.927273" y="122.272476" style="stroke: #000000"/>
     <use xlink:href="#m2206064e73" x="343.145455" y="125.524324" style="stroke: #000000"/>
     <use xlink:href="#m2206064e73" x="358.363636" y="127.735866" style="stroke: #000000"/>
     <use xlink:href="#m2206064e73" x="373.581818" y="129.275004" style="stroke: #000000"/>
    </g>
   </g>
   <g id="line2d_25">
    <path d="M 69.218182 98.235013 
L 84.436364 98.127201 
L 99.654545 99.014934 
L 114.872727 99.188229 
L 130.090909 99.660978 
L 145.309091 102.068724 
L 160.527273 104.19054 
L 175.745455 105.51868 
L 190.963636 111.295092 
L 206.181818 116.408053 
L 221.4 119.677312 
L 236.618182 125.078803 
L 251.836364 125.623353 
L 267.054545 137.061174 
L 282.272727 142.947621 
L 297.490909 149.477925 
L 312.709091 141.946054 
L 327.927273 155.311412 
L 343.145455 158.995323 
L 358.363636 165.082916 
L 373.581818 166.647892 
" clip-path="url(#p8f497749b2)" style="fill: none; stroke-dasharray: 9.6,2.4,1.5,2.4; stroke-dashoffset: 0; stroke: #000000; stroke-width: 1.5"/>
    <g clip-path="url(#p8f497749b2)">
     <use xlink:href="#m2206064e73" x="69.218182" y="98.235013" style="stroke: #000000"/>
     <use xlink:href="#m2206064e73" x="84.436364" y="98.127201" style="stroke: #000000"/>
     <use xlink:href="#m2206064e73" x="99.654545" y="99.014934" style="stroke: #000000"/>
     <use xlink:href="#m2206064e73" x="114.872727" y="99.188229" style="stroke: #000000"/>
     <use xlink:href="#m2206064e73" x="130.090909" y="99.660978" style="stroke: #000000"/>
     <use xlink:href="#m2206064e73" x="145.309091" y="102.068724" style="stroke: #000000"/>
     <use xlink:href="#m2206064e73" x="160.527273" y="104.19054" style="stroke: #000000"/>
     <use xlink:href="#m2206064e73" x="175.745455" y="105.51868" style="stroke: #000000"/>
     <use xlink:href="#m2206064e73" x="190.963636" y="111.295092" style="stroke: #000000"/>
     <use xlink:href="#m2206064e73" x="206.181818" y="116.408053" style="stroke: #000000"/>
     <use xlink:href="#m2206064e73" x="221.4" y="119.677312" style="stroke: #000000"/>
     <use xlink:href="#m2206064e73" x="236.618182" y="125.078803" style="stroke: #000000"/>
     <use xlink:href="#m2206064e73" x="251.836364" y="125.623353" style="stroke: #000000"/>
     <use xlink:href="#m2206064e73" x="267.054545" y="137.061174" style="stroke: #000000"/>
     <use xlink:href="#m2206064e73" x="282.272727" y="142.947621" style="stroke: #000000"/>
     <use xlink:href="#m2206064e73" x="297.490909" y="149.477925" style="stroke: #000000"/>
     <use xlink:href="#m2206064e73" x="312.709091" y="141.946054" style="stroke: #000000"/>
     <use xlink:href="#m2206064e73" x="327.927273" y="155.311412" style="stroke: #000000"/>
     <use xlink:href="#m2206064e73" x="343.145455" y="158.995323" style="stroke: #000000"/>
     <use xlink:href="#m2206064e73" x="358.363636" y="165.082916" style="stroke: #000000"/>
     <use xlink:href="#m2206064e73" x="373.581818" y="166.647892" style="stroke: #000000"/>
    </g>
   </g>
   <g id="line2d_26">
    <path d="M 69.218182 102.384572 
L 84.436364 102.497154 
L 99.654545 103.195915 
L 114.872727 104.101524 
L 130.090909 105.019467 
L 145.309091 106.178468 
L 160.527273 106.361438 
L 175.745455 108.287936 
L 190.963636 114.489667 
L 206.181818 122.932429 
L 221.4 128.14706 
L 236.618182 139.752241 
L 251.836364 142.843964 
L 267.054545 155.306807 
L 282.272727 162.240878 
L 297.490909 177.066347 
L 312.709091 178.824636 
L 327.927273 193.453734 
L 343.145455 210.831265 
L 358.363636 206.61502 
L 373.581818 242.116364 
" clip-path="url(#p8f497749b2)" style="fill: none; stroke: #000000; stroke-width: 1.5; stroke-linecap: square"/>
    <defs>
     <path id="m1040396ae4" d="M 0 3 
C 0.795609 3 1.55874 2.683901 2.12132 2.12132 
C 2.683901 1.55874 3 0.795609 3 0 
C 3 -0.795609 2.683901 -1.55874 2.12132 -2.12132 
C 1.55874 -2.683901 0.795609 -3 0 -3 
C -0.795609 -3 -1.55874 -2.683901 -2.12132 -2.12132 
C -2.683901 -1.55874 -3 -0.795609 -3 0 
C -3 0.795609 -2.683901 1.55874 -2.12132 2.12132 
C -1.55874 2.683901 -0.795609 3 0 3 
z
" style="stroke: #000000"/>
    </defs>
    <g clip-path="url(#p8f497749b2)">
     <use xlink:href="#m1040396ae4" x="69.218182" y="102.384572" style="stroke: #000000"/>
     <use xlink:href="#m1040396ae4" x="84.436364" y="102.497154" style="stroke: #000000"/>
     <use xlink:href="#m1040396ae4" x="99.654545" y="103.195915" style="stroke: #000000"/>
     <use xlink:href="#m1040396ae4" x="114.872727" y="104.101524" style="stroke: #000000"/>
     <use xlink:href="#m1040396ae4" x="130.090909" y="105.019467" style="stroke: #000000"/>
     <use xlink:href="#m1040396ae4" x="145.309091" y="106.178468" style="stroke: #000000"/>
     <use xlink:href="#m1040396ae4" x="160.527273" y="106.361438" style="stroke: #000000"/>
     <use xlink:href="#m1040396ae4" x="175.745455" y="108.287936" style="stroke: #000000"/>
     <use xlink:href="#m1040396ae4" x="190.963636" y="114.489667" style="stroke: #000000"/>
     <use xlink:href="#m1040396ae4" x="206.181818" y="122.932429" style="stroke: #000000"/>
     <use xlink:href="#m1040396ae4" x="221.4" y="128.14706" style="stroke: #000000"/>
     <use xlink:href="#m1040396ae4" x="236.618182" y="139.752241" style="stroke: #000000"/>
     <use xlink:href="#m1040396ae4" x="251.836364" y="142.843964" style="stroke: #000000"/>
     <use xlink:href="#m1040396ae4" x="267.054545" y="155.306807" style="stroke: #000000"/>
     <use xlink:href="#m1040396ae4" x="282.272727" y="162.240878" style="stroke: #000000"/>
     <use xlink:href="#m1040396ae4" x="297.490909" y="177.066347" style="stroke: #000000"/>
     <use xlink:href="#m1040396ae4" x="312.709091" y="178.824636" style="stroke: #000000"/>
     <use xlink:href="#m1040396ae4" x="327.927273" y="193.453734" style="stroke: #000000"/>
     <use xlink:href="#m1040396ae4" x="343.145455" y="210.831265" style="stroke: #000000"/>
     <use xlink:href="#m1040396ae4" x="358.363636" y="206.61502" style="stroke: #000000"/>
     <use xlink:href="#m1040396ae4" x="373.581818" y="242.116364" style="stroke: #000000"/>
    </g>
   </g>
   <g id="patch_3">
    <path d="M 54 252 
L 54 34.56 
" style="fill: none; stroke: #000000; stroke-width: 0.8; stroke-linejoin: miter; stroke-linecap: square"/>
   </g>
   <g id="patch_4">
    <path d="M 388.8 252 
L 388.8 34.56 
" style="fill: none; stroke: #000000; stroke-width: 0.8; stroke-linejoin: miter; stroke-linecap: square"/>
   </g>
   <g id="patch_5">
    <path d="M 54 252 
L 388.8 252 
" style="fill: none; stroke: #000000; stroke-width: 0.8; stroke-linejoin: miter; stroke-linecap: square"/>
   </g>
   <g id="patch_6">
    <path d="M 54 34.56 
L 388.8 34.56 
" style="fill: none; stroke: #000000; stroke-width: 0.8; stroke-linejoin: miter; stroke-linecap: square"/>
   </g>
   <g id="text_20">
    <!-- Equilibrium for different values of $\tau$ at $C=1$ -->
    <g transform="translate(89.76 28.56)scale(0.12 -0.12)">
     <defs>
      <path id="DejaVuSans-45" d="M 628 4666 
L 3578 4666 
L 3578 4134 
L 1259 4134 
L 1259 2753 
L 3481 2753 
L 3481 2222 
L 1259 2222 
L 1259 531 
L 3634 531 
L 3634 0 
L 628 0 
L 628 4666 
z
" transform="scale(0.015625)"/>
      <path id="DejaVuSans-71" d="M 947 1747 
Q 947 1113 1208 752 
Q 1469 391 1925 391 
Q 2381 391 2643 752 
Q 2906 1113 2906 1747 
Q 2906 2381 2643 2742 
Q 2381 3103 1925 3103 
Q 1469 3103 1208 2742 
Q 947 2381 947 1747 
z
M 2906 525 
Q 2725 213 2448 61 
Q 2172 -91 1784 -91 
Q 1150 -91 751 415 
Q 353 922 353 1747 
Q 353 2572 751 3078 
Q 1150 3584 1784 3584 
Q 2172 3584 2448 3432 
Q 2725 3281 2906 2969 
L 2906 3500 
L 3481 3500 
L 3481 -1331 
L 2906 -1331 
L 2906 525 
z
" transform="scale(0.015625)"/>
      <path id="DejaVuSans-75" d="M 544 1381 
L 544 3500 
L 1119 3500 
L 1119 1403 
Q 1119 906 1312 657 
Q 1506 409 1894 409 
Q 2359 409 2629 706 
Q 2900 1003 2900 1516 
L 2900 3500 
L 3475 3500 
L 3475 0 
L 2900 0 
L 2900 538 
Q 2691 219 2414 64 
Q 2138 -91 1772 -91 
Q 1169 -91 856 284 
Q 544 659 544 1381 
z
M 1991 3584 
L 1991 3584 
z
" transform="scale(0.015625)"/>
      <path id="DejaVuSans-69" d="M 603 3500 
L 1178 3500 
L 1178 0 
L 603 0 
L 603 3500 
z
M 603 4863 
L 1178 4863 
L 1178 4134 
L 603 4134 
L 603 4863 
z
" transform="scale(0.015625)"/>
      <path id="DejaVuSans-6c" d="M 603 4863 
L 1178 4863 
L 1178 0 
L 603 0 
L 603 4863 
z
" transform="scale(0.015625)"/>
      <path id="DejaVuSans-62" d="M 3116 1747 
Q 3116 2381 2855 2742 
Q 2594 3103 2138 3103 
Q 1681 3103 1420 2742 
Q 1159 2381 1159 1747 
Q 1159 1113 1420 752 
Q 1681 391 2138 391 
Q 2594 391 2855 752 
Q 3116 1113 3116 1747 
z
M 1159 2969 
Q 1341 3281 1617 3432 
Q 1894 3584 2278 3584 
Q 2916 3584 3314 3078 
Q 3713 2572 3713 1747 
Q 3713 922 3314 415 
Q 2916 -91 2278 -91 
Q 1894 -91 1617 61 
Q 1341 213 1159 525 
L 1159 0 
L 581 0 
L 581 4863 
L 1159 4863 
L 1159 2969 
z
" transform="scale(0.015625)"/>
      <path id="DejaVuSans-72" d="M 2631 2963 
Q 2534 3019 2420 3045 
Q 2306 3072 2169 3072 
Q 1681 3072 1420 2755 
Q 1159 2438 1159 1844 
L 1159 0 
L 581 0 
L 581 3500 
L 1159 3500 
L 1159 2956 
Q 1341 3275 1631 3429 
Q 1922 3584 2338 3584 
Q 2397 3584 2469 3576 
Q 2541 3569 2628 3553 
L 2631 2963 
z
" transform="scale(0.015625)"/>
      <path id="DejaVuSans-6d" d="M 3328 2828 
Q 3544 3216 3844 3400 
Q 4144 3584 4550 3584 
Q 5097 3584 5394 3201 
Q 5691 2819 5691 2113 
L 5691 0 
L 5113 0 
L 5113 2094 
Q 5113 2597 4934 2840 
Q 4756 3084 4391 3084 
Q 3944 3084 3684 2787 
Q 3425 2491 3425 1978 
L 3425 0 
L 2847 0 
L 2847 2094 
Q 2847 2600 2669 2842 
Q 2491 3084 2119 3084 
Q 1678 3084 1418 2786 
Q 1159 2488 1159 1978 
L 1159 0 
L 581 0 
L 581 3500 
L 1159 3500 
L 1159 2956 
Q 1356 3278 1631 3431 
Q 1906 3584 2284 3584 
Q 2666 3584 2933 3390 
Q 3200 3197 3328 2828 
z
" transform="scale(0.015625)"/>
      <path id="DejaVuSans-20" transform="scale(0.015625)"/>
      <path id="DejaVuSans-66" d="M 2375 4863 
L 2375 4384 
L 1825 4384 
Q 1516 4384 1395 4259 
Q 1275 4134 1275 3809 
L 1275 3500 
L 2222 3500 
L 2222 3053 
L 1275 3053 
L 1275 0 
L 697 0 
L 697 3053 
L 147 3053 
L 147 3500 
L 697 3500 
L 697 3744 
Q 697 4328 969 4595 
Q 1241 4863 1831 4863 
L 2375 4863 
z
" transform="scale(0.015625)"/>
      <path id="DejaVuSans-6f" d="M 1959 3097 
Q 1497 3097 1228 2736 
Q 959 2375 959 1747 
Q 959 1119 1226 758 
Q 1494 397 1959 397 
Q 2419 397 2687 759 
Q 2956 1122 2956 1747 
Q 2956 2369 2687 2733 
Q 2419 3097 1959 3097 
z
M 1959 3584 
Q 2709 3584 3137 3096 
Q 3566 2609 3566 1747 
Q 3566 888 3137 398 
Q 2709 -91 1959 -91 
Q 1206 -91 779 398 
Q 353 888 353 1747 
Q 353 2609 779 3096 
Q 1206 3584 1959 3584 
z
" transform="scale(0.015625)"/>
      <path id="DejaVuSans-64" d="M 2906 2969 
L 2906 4863 
L 3481 4863 
L 3481 0 
L 2906 0 
L 2906 525 
Q 2725 213 2448 61 
Q 2172 -91 1784 -91 
Q 1150 -91 751 415 
Q 353 922 353 1747 
Q 353 2572 751 3078 
Q 1150 3584 1784 3584 
Q 2172 3584 2448 3432 
Q 2725 3281 2906 2969 
z
M 947 1747 
Q 947 1113 1208 752 
Q 1469 391 1925 391 
Q 2381 391 2643 752 
Q 2906 1113 2906 1747 
Q 2906 2381 2643 2742 
Q 2381 3103 1925 3103 
Q 1469 3103 1208 2742 
Q 947 2381 947 1747 
z
" transform="scale(0.015625)"/>
      <path id="DejaVuSans-65" d="M 3597 1894 
L 3597 1613 
L 953 1613 
Q 991 1019 1311 708 
Q 1631 397 2203 397 
Q 2534 397 2845 478 
Q 3156 559 3463 722 
L 3463 178 
Q 3153 47 2828 -22 
Q 2503 -91 2169 -91 
Q 1331 -91 842 396 
Q 353 884 353 1716 
Q 353 2575 817 3079 
Q 1281 3584 2069 3584 
Q 2775 3584 3186 3129 
Q 3597 2675 3597 1894 
z
M 3022 2063 
Q 3016 2534 2758 2815 
Q 2500 3097 2075 3097 
Q 1594 3097 1305 2825 
Q 1016 2553 972 2059 
L 3022 2063 
z
" transform="scale(0.015625)"/>
      <path id="DejaVuSans-6e" d="M 3513 2113 
L 3513 0 
L 2938 0 
L 2938 2094 
Q 2938 2591 2744 2837 
Q 2550 3084 2163 3084 
Q 1697 3084 1428 2787 
Q 1159 2491 1159 1978 
L 1159 0 
L 581 0 
L 581 3500 
L 1159 3500 
L 1159 2956 
Q 1366 3272 1645 3428 
Q 1925 3584 2291 3584 
Q 2894 3584 3203 3211 
Q 3513 2838 3513 2113 
z
" transform="scale(0.015625)"/>
      <path id="DejaVuSans-74" d="M 1172 4494 
L 1172 3500 
L 2356 3500 
L 2356 3053 
L 1172 3053 
L 1172 1153 
Q 1172 725 1289 603 
Q 1406 481 1766 481 
L 2356 481 
L 2356 0 
L 1766 0 
Q 1100 0 847 248 
Q 594 497 594 1153 
L 594 3053 
L 172 3053 
L 172 3500 
L 594 3500 
L 594 4494 
L 1172 4494 
z
" transform="scale(0.015625)"/>
      <path id="DejaVuSans-76" d="M 191 3500 
L 800 3500 
L 1894 563 
L 2988 3500 
L 3597 3500 
L 2284 0 
L 1503 0 
L 191 3500 
z
" transform="scale(0.015625)"/>
      <path id="DejaVuSans-61" d="M 2194 1759 
Q 1497 1759 1228 1600 
Q 959 1441 959 1056 
Q 959 750 1161 570 
Q 1363 391 1709 391 
Q 2188 391 2477 730 
Q 2766 1069 2766 1631 
L 2766 1759 
L 2194 1759 
z
M 3341 1997 
L 3341 0 
L 2766 0 
L 2766 531 
Q 2569 213 2275 61 
Q 1981 -91 1556 -91 
Q 1019 -91 701 211 
Q 384 513 384 1019 
Q 384 1609 779 1909 
Q 1175 2209 1959 2209 
L 2766 2209 
L 2766 2266 
Q 2766 2663 2505 2880 
Q 2244 3097 1772 3097 
Q 1472 3097 1187 3025 
Q 903 2953 641 2809 
L 641 3341 
Q 956 3463 1253 3523 
Q 1550 3584 1831 3584 
Q 2591 3584 2966 3190 
Q 3341 2797 3341 1997 
z
" transform="scale(0.015625)"/>
      <path id="DejaVuSans-73" d="M 2834 3397 
L 2834 2853 
Q 2591 2978 2328 3040 
Q 2066 3103 1784 3103 
Q 1356 3103 1142 2972 
Q 928 2841 928 2578 
Q 928 2378 1081 2264 
Q 1234 2150 1697 2047 
L 1894 2003 
Q 2506 1872 2764 1633 
Q 3022 1394 3022 966 
Q 3022 478 2636 193 
Q 2250 -91 1575 -91 
Q 1294 -91 989 -36 
Q 684 19 347 128 
L 347 722 
Q 666 556 975 473 
Q 1284 391 1588 391 
Q 1994 391 2212 530 
Q 2431 669 2431 922 
Q 2431 1156 2273 1281 
Q 2116 1406 1581 1522 
L 1381 1569 
Q 847 1681 609 1914 
Q 372 2147 372 2553 
Q 372 3047 722 3315 
Q 1072 3584 1716 3584 
Q 2034 3584 2315 3537 
Q 2597 3491 2834 3397 
z
" transform="scale(0.015625)"/>
      <path id="DejaVuSans-Oblique-3c4" d="M 2103 638 
Q 2188 488 2525 488 
L 2800 488 
L 2706 0 
L 2363 0 
Q 1800 0 1600 300 
Q 1403 606 1534 1269 
L 1856 2925 
L 541 2925 
L 653 3500 
L 3881 3500 
L 3769 2925 
L 2444 2925 
L 2113 1234 
Q 2025 781 2103 638 
z
" transform="scale(0.015625)"/>
      <path id="DejaVuSans-Oblique-43" d="M 4447 4306 
L 4319 3641 
Q 4019 3944 3683 4091 
Q 3347 4238 2956 4238 
Q 2422 4238 2017 3981 
Q 1613 3725 1319 3200 
Q 1131 2863 1032 2486 
Q 934 2109 934 1728 
Q 934 1091 1264 756 
Q 1594 422 2222 422 
Q 2656 422 3056 561 
Q 3456 700 3834 978 
L 3688 231 
Q 3316 72 2936 -9 
Q 2556 -91 2175 -91 
Q 1278 -91 773 396 
Q 269 884 269 1753 
Q 269 2309 461 2846 
Q 653 3384 1013 3828 
Q 1394 4300 1883 4525 
Q 2372 4750 3022 4750 
Q 3422 4750 3780 4639 
Q 4138 4528 4447 4306 
z
" transform="scale(0.015625)"/>
      <path id="DejaVuSans-3d" d="M 678 2906 
L 4684 2906 
L 4684 2381 
L 678 2381 
L 678 2906 
z
M 678 1631 
L 4684 1631 
L 4684 1100 
L 678 1100 
L 678 1631 
z
" transform="scale(0.015625)"/>
     </defs>
     <use xlink:href="#DejaVuSans-45" transform="translate(0 0.015625)"/>
     <use xlink:href="#DejaVuSans-71" transform="translate(63.183594 0.015625)"/>
     <use xlink:href="#DejaVuSans-75" transform="translate(126.660156 0.015625)"/>
     <use xlink:href="#DejaVuSans-69" transform="translate(190.039062 0.015625)"/>
     <use xlink:href="#DejaVuSans-6c" transform="translate(217.822266 0.015625)"/>
     <use xlink:href="#DejaVuSans-69" transform="translate(245.605469 0.015625)"/>
     <use xlink:href="#DejaVuSans-62" transform="translate(273.388672 0.015625)"/>
     <use xlink:href="#DejaVuSans-72" transform="translate(336.865234 0.015625)"/>
     <use xlink:href="#DejaVuSans-69" transform="translate(377.978516 0.015625)"/>
     <use xlink:href="#DejaVuSans-75" transform="translate(405.761719 0.015625)"/>
     <use xlink:href="#DejaVuSans-6d" transform="translate(469.140625 0.015625)"/>
     <use xlink:href="#DejaVuSans-20" transform="translate(566.552734 0.015625)"/>
     <use xlink:href="#DejaVuSans-66" transform="translate(598.339844 0.015625)"/>
     <use xlink:href="#DejaVuSans-6f" transform="translate(633.544922 0.015625)"/>
     <use xlink:href="#DejaVuSans-72" transform="translate(694.726562 0.015625)"/>
     <use xlink:href="#DejaVuSans-20" transform="translate(735.839844 0.015625)"/>
     <use xlink:href="#DejaVuSans-64" transform="translate(767.626953 0.015625)"/>
     <use xlink:href="#DejaVuSans-69" transform="translate(831.103516 0.015625)"/>
     <use xlink:href="#DejaVuSans-66" transform="translate(858.886719 0.015625)"/>
     <use xlink:href="#DejaVuSans-66" transform="translate(894.091797 0.015625)"/>
     <use xlink:href="#DejaVuSans-65" transform="translate(929.296875 0.015625)"/>
     <use xlink:href="#DejaVuSans-72" transform="translate(990.820312 0.015625)"/>
     <use xlink:href="#DejaVuSans-65" transform="translate(1031.933594 0.015625)"/>
     <use xlink:href="#DejaVuSans-6e" transform="translate(1093.457031 0.015625)"/>
     <use xlink:href="#DejaVuSans-74" transform="translate(1156.835938 0.015625)"/>
     <use xlink:href="#DejaVuSans-20" transform="translate(1196.044922 0.015625)"/>
     <use xlink:href="#DejaVuSans-76" transform="translate(1227.832031 0.015625)"/>
     <use xlink:href="#DejaVuSans-61" transform="translate(1287.011719 0.015625)"/>
     <use xlink:href="#DejaVuSans-6c" transform="translate(1348.291016 0.015625)"/>
     <use xlink:href="#DejaVuSans-75" transform="translate(1376.074219 0.015625)"/>
     <use xlink:href="#DejaVuSans-65" transform="translate(1439.453125 0.015625)"/>
     <use xlink:href="#DejaVuSans-73" transform="translate(1500.976562 0.015625)"/>
     <use xlink:href="#DejaVuSans-20" transform="translate(1553.076172 0.015625)"/>
     <use xlink:href="#DejaVuSans-6f" transform="translate(1584.863281 0.015625)"/>
     <use xlink:href="#DejaVuSans-66" transform="translate(1646.044922 0.015625)"/>
     <use xlink:href="#DejaVuSans-20" transform="translate(1681.25 0.015625)"/>
     <use xlink:href="#DejaVuSans-Oblique-3c4" transform="translate(1713.037109 0.015625)"/>
     <use xlink:href="#DejaVuSans-20" transform="translate(1773.242188 0.015625)"/>
     <use xlink:href="#DejaVuSans-61" transform="translate(1805.029297 0.015625)"/>
     <use xlink:href="#DejaVuSans-74" transform="translate(1866.308594 0.015625)"/>
     <use xlink:href="#DejaVuSans-20" transform="translate(1905.517578 0.015625)"/>
     <use xlink:href="#DejaVuSans-Oblique-43" transform="translate(1937.304688 0.015625)"/>
     <use xlink:href="#DejaVuSans-3d" transform="translate(2026.611328 0.015625)"/>
     <use xlink:href="#DejaVuSans-31" transform="translate(2129.882812 0.015625)"/>
    </g>
   </g>
   <g id="legend_1">
    <g id="patch_7">
     <path d="M 58.9 248.5 
L 135.13 248.5 
Q 136.53 248.5 136.53 247.1 
L 136.53 155.19 
Q 136.53 153.79 135.13 153.79 
L 58.9 153.79 
Q 57.5 153.79 57.5 155.19 
L 57.5 247.1 
Q 57.5 248.5 58.9 248.5 
z
" style="fill: #ffffff; fill-opacity: 0.6; stroke: #cccccc; stroke-linejoin: miter"/>
    </g>
    <g id="line2d_27">
     <path d="M 60.3 159.46 
L 67.3 159.46 
L 74.3 159.46 
" style="fill: none; stroke: #000000; stroke-width: 1.5; stroke-linecap: square"/>
    </g>
    <g id="text_21">
     <!-- $\log_{10}\tau=-3.0$ -->
     <g transform="translate(79.9 161.91)scale(0.07 -0.07)">
      <defs>
       <path id="DejaVuSans-67" d="M 2906 1791 
Q 2906 2416 2648 2759 
Q 2391 3103 1925 3103 
Q 1463 3103 1205 2759 
Q 947 2416 947 1791 
Q 947 1169 1205 825 
Q 1463 481 1925 481 
Q 2391 481 2648 825 
Q 2906 1169 2906 1791 
z
M 3481 434 
Q 3481 -459 3084 -895 
Q 2688 -1331 1869 -1331 
Q 1566 -1331 1297 -1286 
Q 1028 -1241 775 -1147 
L 775 -588 
Q 1028 -725 1275 -790 
Q 1522 -856 1778 -856 
Q 2344 -856 2625 -561 
Q 2906 -266 2906 331 
L 2906 616 
Q 2728 306 2450 153 
Q 2172 0 1784 0 
Q 1141 0 747 490 
Q 353 981 353 1791 
Q 353 2603 747 3093 
Q 1141 3584 1784 3584 
Q 2172 3584 2450 3431 
Q 2728 3278 2906 2969 
L 2906 3500 
L 3481 3500 
L 3481 434 
z
" transform="scale(0.015625)"/>
       <path id="DejaVuSans-33" d="M 2597 2516 
Q 3050 2419 3304 2112 
Q 3559 1806 3559 1356 
Q 3559 666 3084 287 
Q 2609 -91 1734 -91 
Q 1441 -91 1130 -33 
Q 819 25 488 141 
L 488 750 
Q 750 597 1062 519 
Q 1375 441 1716 441 
Q 2309 441 2620 675 
Q 2931 909 2931 1356 
Q 2931 1769 2642 2001 
Q 2353 2234 1838 2234 
L 1294 2234 
L 1294 2753 
L 1863 2753 
Q 2328 2753 2575 2939 
Q 2822 3125 2822 3475 
Q 2822 3834 2567 4026 
Q 2313 4219 1838 4219 
Q 1578 4219 1281 4162 
Q 984 4106 628 3988 
L 628 4550 
Q 988 4650 1302 4700 
Q 1616 4750 1894 4750 
Q 2613 4750 3031 4423 
Q 3450 4097 3450 3541 
Q 3450 3153 3228 2886 
Q 3006 2619 2597 2516 
z
" transform="scale(0.015625)"/>
      </defs>
      <use xlink:href="#DejaVuSans-6c" transform="translate(0 0.015625)"/>
      <use xlink:href="#DejaVuSans-6f" transform="translate(27.783203 0.015625)"/>
      <use xlink:href="#DejaVuSans-67" transform="translate(88.964844 0.015625)"/>
      <use xlink:href="#DejaVuSans-31" transform="translate(153.398438 -16.390625)scale(0.7)"/>
      <use xlink:href="#DejaVuSans-30" transform="translate(197.93457 -16.390625)scale(0.7)"/>
      <use xlink:href="#DejaVuSans-Oblique-3c4" transform="translate(245.205078 0.015625)"/>
      <use xlink:href="#DejaVuSans-3d" transform="translate(324.892578 0.015625)"/>
      <use xlink:href="#DejaVuSans-2212" transform="translate(447.646484 0.015625)"/>
      <use xlink:href="#DejaVuSans-33" transform="translate(550.917969 0.015625)"/>
      <use xlink:href="#DejaVuSans-2e" transform="translate(614.541016 0.015625)"/>
      <use xlink:href="#DejaVuSans-30" transform="translate(646.328125 0.015625)"/>
     </g>
    </g>
    <g id="line2d_28">
     <path d="M 60.3 169.75 
L 67.3 169.75 
L 74.3 169.75 
" style="fill: none; stroke-dasharray: 5.55,2.4; stroke-dashoffset: 0; stroke: #000000; stroke-width: 1.5"/>
    </g>
    <g id="text_22">
     <!-- $\log_{10}\tau=-2.75$ -->
     <g transform="translate(79.9 172.2)scale(0.07 -0.07)">
      <use xlink:href="#DejaVuSans-6c" transform="translate(0 0.015625)"/>
      <use xlink:href="#DejaVuSans-6f" transform="translate(27.783203 0.015625)"/>
      <use xlink:href="#DejaVuSans-67" transform="translate(88.964844 0.015625)"/>
      <use xlink:href="#DejaVuSans-31" transform="translate(153.398438 -16.390625)scale(0.7)"/>
      <use xlink:href="#DejaVuSans-30" transform="translate(197.93457 -16.390625)scale(0.7)"/>
      <use xlink:href="#DejaVuSans-Oblique-3c4" transform="translate(245.205078 0.015625)"/>
      <use xlink:href="#DejaVuSans-3d" transform="translate(324.892578 0.015625)"/>
      <use xlink:href="#DejaVuSans-2212" transform="translate(447.646484 0.015625)"/>
      <use xlink:href="#DejaVuSans-32" transform="translate(550.917969 0.015625)"/>
      <use xlink:href="#DejaVuSans-2e" transform="translate(614.541016 0.015625)"/>
      <use xlink:href="#DejaVuSans-37" transform="translate(638.578125 0.015625)"/>
      <use xlink:href="#DejaVuSans-35" transform="translate(702.201172 0.015625)"/>
     </g>
    </g>
    <g id="line2d_29">
     <path d="M 60.3 180.04 
L 67.3 180.04 
L 74.3 180.04 
" style="fill: none; stroke-dasharray: 1.5,2.475; stroke-dashoffset: 0; stroke: #000000; stroke-width: 1.5"/>
    </g>
    <g id="text_23">
     <!-- $\log_{10}\tau=-2.5$ -->
     <g transform="translate(79.9 182.49)scale(0.07 -0.07)">
      <use xlink:href="#DejaVuSans-6c" transform="translate(0 0.015625)"/>
      <use xlink:href="#DejaVuSans-6f" transform="translate(27.783203 0.015625)"/>
      <use xlink:href="#DejaVuSans-67" transform="translate(88.964844 0.015625)"/>
      <use xlink:href="#DejaVuSans-31" transform="translate(153.398438 -16.390625)scale(0.7)"/>
      <use xlink:href="#DejaVuSans-30" transform="translate(197.93457 -16.390625)scale(0.7)"/>
      <use xlink:href="#DejaVuSans-Oblique-3c4" transform="translate(245.205078 0.015625)"/>
      <use xlink:href="#DejaVuSans-3d" transform="translate(324.892578 0.015625)"/>
      <use xlink:href="#DejaVuSans-2212" transform="translate(447.646484 0.015625)"/>
      <use xlink:href="#DejaVuSans-32" transform="translate(550.917969 0.015625)"/>
      <use xlink:href="#DejaVuSans-2e" transform="translate(614.541016 0.015625)"/>
      <use xlink:href="#DejaVuSans-35" transform="translate(646.328125 0.015625)"/>
     </g>
    </g>
    <g id="line2d_30">
     <path d="M 60.3 190.33 
L 67.3 190.33 
L 74.3 190.33 
" style="fill: none; stroke-dasharray: 9.6,2.4,1.5,2.4; stroke-dashoffset: 0; stroke: #000000; stroke-width: 1.5"/>
    </g>
    <g id="text_24">
     <!-- $\log_{10}\tau=-2.25$ -->
     <g transform="translate(79.9 192.78)scale(0.07 -0.07)">
      <use xlink:href="#DejaVuSans-6c" transform="translate(0 0.015625)"/>
      <use xlink:href="#DejaVuSans-6f" transform="translate(27.783203 0.015625)"/>
      <use xlink:href="#DejaVuSans-67" transform="translate(88.964844 0.015625)"/>
      <use xlink:href="#DejaVuSans-31" transform="translate(153.398438 -16.390625)scale(0.7)"/>
      <use xlink:href="#DejaVuSans-30" transform="translate(197.93457 -16.390625)scale(0.7)"/>
      <use xlink:href="#DejaVuSans-Oblique-3c4" transform="translate(245.205078 0.015625)"/>
      <use xlink:href="#DejaVuSans-3d" transform="translate(324.892578 0.015625)"/>
      <use xlink:href="#DejaVuSans-2212" transform="translate(447.646484 0.015625)"/>
      <use xlink:href="#DejaVuSans-32" transform="translate(550.917969 0.015625)"/>
      <use xlink:href="#DejaVuSans-2e" transform="translate(614.541016 0.015625)"/>
      <use xlink:href="#DejaVuSans-32" transform="translate(640.828125 0.015625)"/>
      <use xlink:href="#DejaVuSans-35" transform="translate(704.451172 0.015625)"/>
     </g>
    </g>
    <g id="line2d_31">
     <path d="M 60.3 200.62 
L 67.3 200.62 
L 74.3 200.62 
" style="fill: none; stroke: #000000; stroke-width: 1.5; stroke-linecap: square"/>
     <g>
      <use xlink:href="#m2206064e73" x="67.3" y="200.62" style="stroke: #000000"/>
     </g>
    </g>
    <g id="text_25">
     <!-- $\log_{10}\tau=-2.0$ -->
     <g transform="translate(79.9 203.07)scale(0.07 -0.07)">
      <use xlink:href="#DejaVuSans-6c" transform="translate(0 0.015625)"/>
      <use xlink:href="#DejaVuSans-6f" transform="translate(27.783203 0.015625)"/>
      <use xlink:href="#DejaVuSans-67" transform="translate(88.964844 0.015625)"/>
      <use xlink:href="#DejaVuSans-31" transform="translate(153.398438 -16.390625)scale(0.7)"/>
      <use xlink:href="#DejaVuSans-30" transform="translate(197.93457 -16.390625)scale(0.7)"/>
      <use xlink:href="#DejaVuSans-Oblique-3c4" transform="translate(245.205078 0.015625)"/>
      <use xlink:href="#DejaVuSans-3d" transform="translate(324.892578 0.015625)"/>
      <use xlink:href="#DejaVuSans-2212" transform="translate(447.646484 0.015625)"/>
      <use xlink:href="#DejaVuSans-32" transform="translate(550.917969 0.015625)"/>
      <use xlink:href="#DejaVuSans-2e" transform="translate(614.541016 0.015625)"/>
      <use xlink:href="#DejaVuSans-30" transform="translate(646.328125 0.015625)"/>
     </g>
    </g>
    <g id="line2d_32">
     <path d="M 60.3 210.91 
L 67.3 210.91 
L 74.3 210.91 
" style="fill: none; stroke-dasharray: 5.55,2.4; stroke-dashoffset: 0; stroke: #000000; stroke-width: 1.5"/>
     <g>
      <use xlink:href="#m2206064e73" x="67.3" y="210.91" style="stroke: #000000"/>
     </g>
    </g>
    <g id="text_26">
     <!-- $\log_{10}\tau=-1.75$ -->
     <g transform="translate(79.9 213.36)scale(0.07 -0.07)">
      <use xlink:href="#DejaVuSans-6c" transform="translate(0 0.015625)"/>
      <use xlink:href="#DejaVuSans-6f" transform="translate(27.783203 0.015625)"/>
      <use xlink:href="#DejaVuSans-67" transform="translate(88.964844 0.015625)"/>
      <use xlink:href="#DejaVuSans-31" transform="translate(153.398438 -16.390625)scale(0.7)"/>
      <use xlink:href="#DejaVuSans-30" transform="translate(197.93457 -16.390625)scale(0.7)"/>
      <use xlink:href="#DejaVuSans-Oblique-3c4" transform="translate(245.205078 0.015625)"/>
      <use xlink:href="#DejaVuSans-3d" transform="translate(324.892578 0.015625)"/>
      <use xlink:href="#DejaVuSans-2212" transform="translate(447.646484 0.015625)"/>
      <use xlink:href="#DejaVuSans-31" transform="translate(550.917969 0.015625)"/>
      <use xlink:href="#DejaVuSans-2e" transform="translate(614.541016 0.015625)"/>
      <use xlink:href="#DejaVuSans-37" transform="translate(638.578125 0.015625)"/>
      <use xlink:href="#DejaVuSans-35" transform="translate(702.201172 0.015625)"/>
     </g>
    </g>
    <g id="line2d_33">
     <path d="M 60.3 221.2 
L 67.3 221.2 
L 74.3 221.2 
" style="fill: none; stroke-dasharray: 1.5,2.475; stroke-dashoffset: 0; stroke: #000000; stroke-width: 1.5"/>
     <g>
      <use xlink:href="#m2206064e73" x="67.3" y="221.2" style="stroke: #000000"/>
     </g>
    </g>
    <g id="text_27">
     <!-- $\log_{10}\tau=-1.5$ -->
     <g transform="translate(79.9 223.65)scale(0.07 -0.07)">
      <use xlink:href="#DejaVuSans-6c" transform="translate(0 0.015625)"/>
      <use xlink:href="#DejaVuSans-6f" transform="translate(27.783203 0.015625)"/>
      <use xlink:href="#DejaVuSans-67" transform="translate(88.964844 0.015625)"/>
      <use xlink:href="#DejaVuSans-31" transform="translate(153.398438 -16.390625)scale(0.7)"/>
      <use xlink:href="#DejaVuSans-30" transform="translate(197.93457 -16.390625)scale(0.7)"/>
      <use xlink:href="#DejaVuSans-Oblique-3c4" transform="translate(245.205078 0.015625)"/>
      <use xlink:href="#DejaVuSans-3d" transform="translate(324.892578 0.015625)"/>
      <use xlink:href="#DejaVuSans-2212" transform="translate(447.646484 0.015625)"/>
      <use xlink:href="#DejaVuSans-31" transform="translate(550.917969 0.015625)"/>
      <use xlink:href="#DejaVuSans-2e" transform="translate(614.541016 0.015625)"/>
      <use xlink:href="#DejaVuSans-35" transform="translate(646.328125 0.015625)"/>
     </g>
    </g>
    <g id="line2d_34">
     <path d="M 60.3 231.49 
L 67.3 231.49 
L 74.3 231.49 
" style="fill: none; stroke-dasharray: 9.6,2.4,1.5,2.4; stroke-dashoffset: 0; stroke: #000000; stroke-width: 1.5"/>
     <g>
      <use xlink:href="#m2206064e73" x="67.3" y="231.49" style="stroke: #000000"/>
     </g>
    </g>
    <g id="text_28">
     <!-- $\log_{10}\tau=-1.25$ -->
     <g transform="translate(79.9 233.94)scale(0.07 -0.07)">
      <use xlink:href="#DejaVuSans-6c" transform="translate(0 0.015625)"/>
      <use xlink:href="#DejaVuSans-6f" transform="translate(27.783203 0.015625)"/>
      <use xlink:href="#DejaVuSans-67" transform="translate(88.964844 0.015625)"/>
      <use xlink:href="#DejaVuSans-31" transform="translate(153.398438 -16.390625)scale(0.7)"/>
      <use xlink:href="#DejaVuSans-30" transform="translate(197.93457 -16.390625)scale(0.7)"/>
      <use xlink:href="#DejaVuSans-Oblique-3c4" transform="translate(245.205078 0.015625)"/>
      <use xlink:href="#DejaVuSans-3d" transform="translate(324.892578 0.015625)"/>
      <use xlink:href="#DejaVuSans-2212" transform="translate(447.646484 0.015625)"/>
      <use xlink:href="#DejaVuSans-31" transform="translate(550.917969 0.015625)"/>
      <use xlink:href="#DejaVuSans-2e" transform="translate(614.541016 0.015625)"/>
      <use xlink:href="#DejaVuSans-32" transform="translate(640.828125 0.015625)"/>
      <use xlink:href="#DejaVuSans-35" transform="translate(704.451172 0.015625)"/>
     </g>
    </g>
    <g id="line2d_35">
     <path d="M 60.3 241.78 
L 67.3 241.78 
L 74.3 241.78 
" style="fill: none; stroke: #000000; stroke-width: 1.5; stroke-linecap: square"/>
     <g>
      <use xlink:href="#m1040396ae4" x="67.3" y="241.78" style="stroke: #000000"/>
     </g>
    </g>
    <g id="text_29">
     <!-- $\log_{10}\tau=-1.0$ -->
     <g transform="translate(79.9 244.23)scale(0.07 -0.07)">
      <use xlink:href="#DejaVuSans-6c" transform="translate(0 0.015625)"/>
      <use xlink:href="#DejaVuSans-6f" transform="translate(27.783203 0.015625)"/>
      <use xlink:href="#DejaVuSans-67" transform="translate(88.964844 0.015625)"/>
      <use xlink:href="#DejaVuSans-31" transform="translate(153.398438 -16.390625)scale(0.7)"/>
      <use xlink:href="#DejaVuSans-30" transform="translate(197.93457 -16.390625)scale(0.7)"/>
      <use xlink:href="#DejaVuSans-Oblique-3c4" transform="translate(245.205078 0.015625)"/>
      <use xlink:href="#DejaVuSans-3d" transform="translate(324.892578 0.015625)"/>
      <use xlink:href="#DejaVuSans-2212" transform="translate(447.646484 0.015625)"/>
      <use xlink:href="#DejaVuSans-31" transform="translate(550.917969 0.015625)"/>
      <use xlink:href="#DejaVuSans-2e" transform="translate(614.541016 0.015625)"/>
      <use xlink:href="#DejaVuSans-30" transform="translate(646.328125 0.015625)"/>
     </g>
    </g>
   </g>
  </g>
 </g>
 <defs>
  <clipPath id="p8f497749b2">
   <rect x="54" y="34.56" width="334.8" height="217.44"/>
  </clipPath>
 </defs>
</svg>
