<?xml version="1.0" encoding="utf-8" standalone="no"?>
<!DOCTYPE svg PUBLIC "-//W3C//DTD SVG 1.1//EN"
  "http://www.w3.org/Graphics/SVG/1.1/DTD/svg11.dtd">
<svg xmlns:xlink="http://www.w3.org/1999/xlink" width="432pt" height="288pt" viewBox="0 0 432 288" xmlns="http://www.w3.org/2000/svg" version="1.1">
 <metadata>
  <rdf:RDF xmlns:dc="http://purl.org/dc/elements/1.1/" xmlns:cc="http://creativecommons.org/ns#" xmlns:rdf="http://www.w3.org/1999/02/22-rdf-syntax-ns#">
   <cc:Work>
    <dc:type rdf:resource="http://purl.org/dc/dcmitype/StillImage"/>
    <dc:date>2023-04-20T23:57:02.934039</dc:date>
    <dc:format>image/svg+xml</dc:format>
    <dc:creator>
     <cc:Agent>
      <dc:title>Matplotlib v3.5.1, https://matplotlib.org/</dc:title>
     </cc:Agent>
    </dc:creator>
   </cc:Work>
  </rdf:RDF>
 </metadata>
 <defs>
  <style type="text/css">*{stroke-linejoin: round; stroke-linecap: butt}</style>
 </defs>
 <g id="figure_1">
  <g id="patch_1">
   <path d="M 0 288 
L 432 288 
L 432 0 
L 0 0 
L 0 288 
z
" style="fill: none"/>
  </g>
  <g id="axes_1">
   <g id="patch_2">
    <path d="M 54 252 
L 388.8 252 
L 388.8 34.56 
L 54 34.56 
z
" style="fill: #ffffff"/>
   </g>
   <g id="matplotlib.axis_1">
    <g id="xtick_1">
     <g id="line2d_1">
      <defs>
       <path id="m736ee2c954" d="M 0 0 
L 0 3.5 
" style="stroke: #000000; stroke-width: 0.8"/>
      </defs>
      <g>
       <use xlink:href="#m736ee2c954" x="131.892111" y="252" style="stroke: #000000; stroke-width: 0.8"/>
      </g>
     </g>
     <g id="text_1">
      <!-- $\mathdefault{10^{1}}$ -->
      <g transform="translate(123.092111 266.598437)scale(0.1 -0.1)">
       <defs>
        <path id="DejaVuSans-31" d="M 794 531 
L 1825 531 
L 1825 4091 
L 703 3866 
L 703 4441 
L 1819 4666 
L 2450 4666 
L 2450 531 
L 3481 531 
L 3481 0 
L 794 0 
L 794 531 
z
" transform="scale(0.015625)"/>
        <path id="DejaVuSans-30" d="M 2034 4250 
Q 1547 4250 1301 3770 
Q 1056 3291 1056 2328 
Q 1056 1369 1301 889 
Q 1547 409 2034 409 
Q 2525 409 2770 889 
Q 3016 1369 3016 2328 
Q 3016 3291 2770 3770 
Q 2525 4250 2034 4250 
z
M 2034 4750 
Q 2819 4750 3233 4129 
Q 3647 3509 3647 2328 
Q 3647 1150 3233 529 
Q 2819 -91 2034 -91 
Q 1250 -91 836 529 
Q 422 1150 422 2328 
Q 422 3509 836 4129 
Q 1250 4750 2034 4750 
z
" transform="scale(0.015625)"/>
       </defs>
       <use xlink:href="#DejaVuSans-31" transform="translate(0 0.684375)"/>
       <use xlink:href="#DejaVuSans-30" transform="translate(63.623047 0.684375)"/>
       <use xlink:href="#DejaVuSans-31" transform="translate(128.203125 38.965625)scale(0.7)"/>
      </g>
     </g>
    </g>
    <g id="xtick_2">
     <g id="line2d_2">
      <g>
       <use xlink:href="#m736ee2c954" x="255.2798" y="252" style="stroke: #000000; stroke-width: 0.8"/>
      </g>
     </g>
     <g id="text_2">
      <!-- $\mathdefault{10^{2}}$ -->
      <g transform="translate(246.4798 266.598437)scale(0.1 -0.1)">
       <defs>
        <path id="DejaVuSans-32" d="M 1228 531 
L 3431 531 
L 3431 0 
L 469 0 
L 469 531 
Q 828 903 1448 1529 
Q 2069 2156 2228 2338 
Q 2531 2678 2651 2914 
Q 2772 3150 2772 3378 
Q 2772 3750 2511 3984 
Q 2250 4219 1831 4219 
Q 1534 4219 1204 4116 
Q 875 4013 500 3803 
L 500 4441 
Q 881 4594 1212 4672 
Q 1544 4750 1819 4750 
Q 2544 4750 2975 4387 
Q 3406 4025 3406 3419 
Q 3406 3131 3298 2873 
Q 3191 2616 2906 2266 
Q 2828 2175 2409 1742 
Q 1991 1309 1228 531 
z
" transform="scale(0.015625)"/>
       </defs>
       <use xlink:href="#DejaVuSans-31" transform="translate(0 0.765625)"/>
       <use xlink:href="#DejaVuSans-30" transform="translate(63.623047 0.765625)"/>
       <use xlink:href="#DejaVuSans-32" transform="translate(128.203125 39.046875)scale(0.7)"/>
      </g>
     </g>
    </g>
    <g id="xtick_3">
     <g id="line2d_3">
      <g>
       <use xlink:href="#m736ee2c954" x="378.66749" y="252" style="stroke: #000000; stroke-width: 0.8"/>
      </g>
     </g>
     <g id="text_3">
      <!-- $\mathdefault{10^{3}}$ -->
      <g transform="translate(369.86749 266.598437)scale(0.1 -0.1)">
       <defs>
        <path id="DejaVuSans-33" d="M 2597 2516 
Q 3050 2419 3304 2112 
Q 3559 1806 3559 1356 
Q 3559 666 3084 287 
Q 2609 -91 1734 -91 
Q 1441 -91 1130 -33 
Q 819 25 488 141 
L 488 750 
Q 750 597 1062 519 
Q 1375 441 1716 441 
Q 2309 441 2620 675 
Q 2931 909 2931 1356 
Q 2931 1769 2642 2001 
Q 2353 2234 1838 2234 
L 1294 2234 
L 1294 2753 
L 1863 2753 
Q 2328 2753 2575 2939 
Q 2822 3125 2822 3475 
Q 2822 3834 2567 4026 
Q 2313 4219 1838 4219 
Q 1578 4219 1281 4162 
Q 984 4106 628 3988 
L 628 4550 
Q 988 4650 1302 4700 
Q 1616 4750 1894 4750 
Q 2613 4750 3031 4423 
Q 3450 4097 3450 3541 
Q 3450 3153 3228 2886 
Q 3006 2619 2597 2516 
z
" transform="scale(0.015625)"/>
       </defs>
       <use xlink:href="#DejaVuSans-31" transform="translate(0 0.765625)"/>
       <use xlink:href="#DejaVuSans-30" transform="translate(63.623047 0.765625)"/>
       <use xlink:href="#DejaVuSans-33" transform="translate(128.203125 39.046875)scale(0.7)"/>
      </g>
     </g>
    </g>
    <g id="xtick_4">
     <g id="line2d_4">
      <defs>
       <path id="mf84412f21a" d="M 0 0 
L 0 2 
" style="stroke: #000000; stroke-width: 0.6"/>
      </defs>
      <g>
       <use xlink:href="#mf84412f21a" x="67.375311" y="252" style="stroke: #000000; stroke-width: 0.6"/>
      </g>
     </g>
    </g>
    <g id="xtick_5">
     <g id="line2d_5">
      <g>
       <use xlink:href="#mf84412f21a" x="82.791213" y="252" style="stroke: #000000; stroke-width: 0.6"/>
      </g>
     </g>
    </g>
    <g id="xtick_6">
     <g id="line2d_6">
      <g>
       <use xlink:href="#mf84412f21a" x="94.748715" y="252" style="stroke: #000000; stroke-width: 0.6"/>
      </g>
     </g>
    </g>
    <g id="xtick_7">
     <g id="line2d_7">
      <g>
       <use xlink:href="#mf84412f21a" x="104.518706" y="252" style="stroke: #000000; stroke-width: 0.6"/>
      </g>
     </g>
    </g>
    <g id="xtick_8">
     <g id="line2d_8">
      <g>
       <use xlink:href="#mf84412f21a" x="112.779116" y="252" style="stroke: #000000; stroke-width: 0.6"/>
      </g>
     </g>
    </g>
    <g id="xtick_9">
     <g id="line2d_9">
      <g>
       <use xlink:href="#mf84412f21a" x="119.934608" y="252" style="stroke: #000000; stroke-width: 0.6"/>
      </g>
     </g>
    </g>
    <g id="xtick_10">
     <g id="line2d_10">
      <g>
       <use xlink:href="#mf84412f21a" x="126.2462" y="252" style="stroke: #000000; stroke-width: 0.6"/>
      </g>
     </g>
    </g>
    <g id="xtick_11">
     <g id="line2d_11">
      <g>
       <use xlink:href="#mf84412f21a" x="169.035506" y="252" style="stroke: #000000; stroke-width: 0.6"/>
      </g>
     </g>
    </g>
    <g id="xtick_12">
     <g id="line2d_12">
      <g>
       <use xlink:href="#mf84412f21a" x="190.763" y="252" style="stroke: #000000; stroke-width: 0.6"/>
      </g>
     </g>
    </g>
    <g id="xtick_13">
     <g id="line2d_13">
      <g>
       <use xlink:href="#mf84412f21a" x="206.178902" y="252" style="stroke: #000000; stroke-width: 0.6"/>
      </g>
     </g>
    </g>
    <g id="xtick_14">
     <g id="line2d_14">
      <g>
       <use xlink:href="#mf84412f21a" x="218.136405" y="252" style="stroke: #000000; stroke-width: 0.6"/>
      </g>
     </g>
    </g>
    <g id="xtick_15">
     <g id="line2d_15">
      <g>
       <use xlink:href="#mf84412f21a" x="227.906396" y="252" style="stroke: #000000; stroke-width: 0.6"/>
      </g>
     </g>
    </g>
    <g id="xtick_16">
     <g id="line2d_16">
      <g>
       <use xlink:href="#mf84412f21a" x="236.166805" y="252" style="stroke: #000000; stroke-width: 0.6"/>
      </g>
     </g>
    </g>
    <g id="xtick_17">
     <g id="line2d_17">
      <g>
       <use xlink:href="#mf84412f21a" x="243.322298" y="252" style="stroke: #000000; stroke-width: 0.6"/>
      </g>
     </g>
    </g>
    <g id="xtick_18">
     <g id="line2d_18">
      <g>
       <use xlink:href="#mf84412f21a" x="249.633889" y="252" style="stroke: #000000; stroke-width: 0.6"/>
      </g>
     </g>
    </g>
    <g id="xtick_19">
     <g id="line2d_19">
      <g>
       <use xlink:href="#mf84412f21a" x="292.423196" y="252" style="stroke: #000000; stroke-width: 0.6"/>
      </g>
     </g>
    </g>
    <g id="xtick_20">
     <g id="line2d_20">
      <g>
       <use xlink:href="#mf84412f21a" x="314.15069" y="252" style="stroke: #000000; stroke-width: 0.6"/>
      </g>
     </g>
    </g>
    <g id="xtick_21">
     <g id="line2d_21">
      <g>
       <use xlink:href="#mf84412f21a" x="329.566592" y="252" style="stroke: #000000; stroke-width: 0.6"/>
      </g>
     </g>
    </g>
    <g id="xtick_22">
     <g id="line2d_22">
      <g>
       <use xlink:href="#mf84412f21a" x="341.524094" y="252" style="stroke: #000000; stroke-width: 0.6"/>
      </g>
     </g>
    </g>
    <g id="xtick_23">
     <g id="line2d_23">
      <g>
       <use xlink:href="#mf84412f21a" x="351.294085" y="252" style="stroke: #000000; stroke-width: 0.6"/>
      </g>
     </g>
    </g>
    <g id="xtick_24">
     <g id="line2d_24">
      <g>
       <use xlink:href="#mf84412f21a" x="359.554495" y="252" style="stroke: #000000; stroke-width: 0.6"/>
      </g>
     </g>
    </g>
    <g id="xtick_25">
     <g id="line2d_25">
      <g>
       <use xlink:href="#mf84412f21a" x="366.709987" y="252" style="stroke: #000000; stroke-width: 0.6"/>
      </g>
     </g>
    </g>
    <g id="xtick_26">
     <g id="line2d_26">
      <g>
       <use xlink:href="#mf84412f21a" x="373.021579" y="252" style="stroke: #000000; stroke-width: 0.6"/>
      </g>
     </g>
    </g>
    <g id="text_4">
     <!-- time (s) -->
     <g transform="translate(202.008594 280.276563)scale(0.1 -0.1)">
      <defs>
       <path id="DejaVuSans-74" d="M 1172 4494 
L 1172 3500 
L 2356 3500 
L 2356 3053 
L 1172 3053 
L 1172 1153 
Q 1172 725 1289 603 
Q 1406 481 1766 481 
L 2356 481 
L 2356 0 
L 1766 0 
Q 1100 0 847 248 
Q 594 497 594 1153 
L 594 3053 
L 172 3053 
L 172 3500 
L 594 3500 
L 594 4494 
L 1172 4494 
z
" transform="scale(0.015625)"/>
       <path id="DejaVuSans-69" d="M 603 3500 
L 1178 3500 
L 1178 0 
L 603 0 
L 603 3500 
z
M 603 4863 
L 1178 4863 
L 1178 4134 
L 603 4134 
L 603 4863 
z
" transform="scale(0.015625)"/>
       <path id="DejaVuSans-6d" d="M 3328 2828 
Q 3544 3216 3844 3400 
Q 4144 3584 4550 3584 
Q 5097 3584 5394 3201 
Q 5691 2819 5691 2113 
L 5691 0 
L 5113 0 
L 5113 2094 
Q 5113 2597 4934 2840 
Q 4756 3084 4391 3084 
Q 3944 3084 3684 2787 
Q 3425 2491 3425 1978 
L 3425 0 
L 2847 0 
L 2847 2094 
Q 2847 2600 2669 2842 
Q 2491 3084 2119 3084 
Q 1678 3084 1418 2786 
Q 1159 2488 1159 1978 
L 1159 0 
L 581 0 
L 581 3500 
L 1159 3500 
L 1159 2956 
Q 1356 3278 1631 3431 
Q 1906 3584 2284 3584 
Q 2666 3584 2933 3390 
Q 3200 3197 3328 2828 
z
" transform="scale(0.015625)"/>
       <path id="DejaVuSans-65" d="M 3597 1894 
L 3597 1613 
L 953 1613 
Q 991 1019 1311 708 
Q 1631 397 2203 397 
Q 2534 397 2845 478 
Q 3156 559 3463 722 
L 3463 178 
Q 3153 47 2828 -22 
Q 2503 -91 2169 -91 
Q 1331 -91 842 396 
Q 353 884 353 1716 
Q 353 2575 817 3079 
Q 1281 3584 2069 3584 
Q 2775 3584 3186 3129 
Q 3597 2675 3597 1894 
z
M 3022 2063 
Q 3016 2534 2758 2815 
Q 2500 3097 2075 3097 
Q 1594 3097 1305 2825 
Q 1016 2553 972 2059 
L 3022 2063 
z
" transform="scale(0.015625)"/>
       <path id="DejaVuSans-20" transform="scale(0.015625)"/>
       <path id="DejaVuSans-28" d="M 1984 4856 
Q 1566 4138 1362 3434 
Q 1159 2731 1159 2009 
Q 1159 1288 1364 580 
Q 1569 -128 1984 -844 
L 1484 -844 
Q 1016 -109 783 600 
Q 550 1309 550 2009 
Q 550 2706 781 3412 
Q 1013 4119 1484 4856 
L 1984 4856 
z
" transform="scale(0.015625)"/>
       <path id="DejaVuSans-73" d="M 2834 3397 
L 2834 2853 
Q 2591 2978 2328 3040 
Q 2066 3103 1784 3103 
Q 1356 3103 1142 2972 
Q 928 2841 928 2578 
Q 928 2378 1081 2264 
Q 1234 2150 1697 2047 
L 1894 2003 
Q 2506 1872 2764 1633 
Q 3022 1394 3022 966 
Q 3022 478 2636 193 
Q 2250 -91 1575 -91 
Q 1294 -91 989 -36 
Q 684 19 347 128 
L 347 722 
Q 666 556 975 473 
Q 1284 391 1588 391 
Q 1994 391 2212 530 
Q 2431 669 2431 922 
Q 2431 1156 2273 1281 
Q 2116 1406 1581 1522 
L 1381 1569 
Q 847 1681 609 1914 
Q 372 2147 372 2553 
Q 372 3047 722 3315 
Q 1072 3584 1716 3584 
Q 2034 3584 2315 3537 
Q 2597 3491 2834 3397 
z
" transform="scale(0.015625)"/>
       <path id="DejaVuSans-29" d="M 513 4856 
L 1013 4856 
Q 1481 4119 1714 3412 
Q 1947 2706 1947 2009 
Q 1947 1309 1714 600 
Q 1481 -109 1013 -844 
L 513 -844 
Q 928 -128 1133 580 
Q 1338 1288 1338 2009 
Q 1338 2731 1133 3434 
Q 928 4138 513 4856 
z
" transform="scale(0.015625)"/>
      </defs>
      <use xlink:href="#DejaVuSans-74"/>
      <use xlink:href="#DejaVuSans-69" x="39.208984"/>
      <use xlink:href="#DejaVuSans-6d" x="66.992188"/>
      <use xlink:href="#DejaVuSans-65" x="164.404297"/>
      <use xlink:href="#DejaVuSans-20" x="225.927734"/>
      <use xlink:href="#DejaVuSans-28" x="257.714844"/>
      <use xlink:href="#DejaVuSans-73" x="296.728516"/>
      <use xlink:href="#DejaVuSans-29" x="348.828125"/>
     </g>
    </g>
   </g>
   <g id="matplotlib.axis_2">
    <g id="ytick_1">
     <g id="line2d_27">
      <defs>
       <path id="m689dde6ff7" d="M 0 0 
L -3.5 0 
" style="stroke: #000000; stroke-width: 0.8"/>
      </defs>
      <g>
       <use xlink:href="#m689dde6ff7" x="54" y="251.405319" style="stroke: #000000; stroke-width: 0.8"/>
      </g>
     </g>
     <g id="text_5">
      <!-- $\mathdefault{10^{-3}}$ -->
      <g transform="translate(23.5 255.204538)scale(0.1 -0.1)">
       <defs>
        <path id="DejaVuSans-2212" d="M 678 2272 
L 4684 2272 
L 4684 1741 
L 678 1741 
L 678 2272 
z
" transform="scale(0.015625)"/>
       </defs>
       <use xlink:href="#DejaVuSans-31" transform="translate(0 0.765625)"/>
       <use xlink:href="#DejaVuSans-30" transform="translate(63.623047 0.765625)"/>
       <use xlink:href="#DejaVuSans-2212" transform="translate(128.203125 39.046875)scale(0.7)"/>
       <use xlink:href="#DejaVuSans-33" transform="translate(186.855469 39.046875)scale(0.7)"/>
      </g>
     </g>
    </g>
    <g id="ytick_2">
     <g id="line2d_28">
      <g>
       <use xlink:href="#m689dde6ff7" x="54" y="127.825342" style="stroke: #000000; stroke-width: 0.8"/>
      </g>
     </g>
     <g id="text_6">
      <!-- $\mathdefault{10^{-2}}$ -->
      <g transform="translate(23.5 131.624561)scale(0.1 -0.1)">
       <use xlink:href="#DejaVuSans-31" transform="translate(0 0.765625)"/>
       <use xlink:href="#DejaVuSans-30" transform="translate(63.623047 0.765625)"/>
       <use xlink:href="#DejaVuSans-2212" transform="translate(128.203125 39.046875)scale(0.7)"/>
       <use xlink:href="#DejaVuSans-32" transform="translate(186.855469 39.046875)scale(0.7)"/>
      </g>
     </g>
    </g>
    <g id="ytick_3">
     <g id="line2d_29">
      <defs>
       <path id="m511befb49b" d="M 0 0 
L -2 0 
" style="stroke: #000000; stroke-width: 0.6"/>
      </defs>
      <g>
       <use xlink:href="#m511befb49b" x="54" y="214.204039" style="stroke: #000000; stroke-width: 0.6"/>
      </g>
     </g>
    </g>
    <g id="ytick_4">
     <g id="line2d_30">
      <g>
       <use xlink:href="#m511befb49b" x="54" y="192.442685" style="stroke: #000000; stroke-width: 0.6"/>
      </g>
     </g>
    </g>
    <g id="ytick_5">
     <g id="line2d_31">
      <g>
       <use xlink:href="#m511befb49b" x="54" y="177.002759" style="stroke: #000000; stroke-width: 0.6"/>
      </g>
     </g>
    </g>
    <g id="ytick_6">
     <g id="line2d_32">
      <g>
       <use xlink:href="#m511befb49b" x="54" y="165.026622" style="stroke: #000000; stroke-width: 0.6"/>
      </g>
     </g>
    </g>
    <g id="ytick_7">
     <g id="line2d_33">
      <g>
       <use xlink:href="#m511befb49b" x="54" y="155.241405" style="stroke: #000000; stroke-width: 0.6"/>
      </g>
     </g>
    </g>
    <g id="ytick_8">
     <g id="line2d_34">
      <g>
       <use xlink:href="#m511befb49b" x="54" y="146.968123" style="stroke: #000000; stroke-width: 0.6"/>
      </g>
     </g>
    </g>
    <g id="ytick_9">
     <g id="line2d_35">
      <g>
       <use xlink:href="#m511befb49b" x="54" y="139.801479" style="stroke: #000000; stroke-width: 0.6"/>
      </g>
     </g>
    </g>
    <g id="ytick_10">
     <g id="line2d_36">
      <g>
       <use xlink:href="#m511befb49b" x="54" y="133.480051" style="stroke: #000000; stroke-width: 0.6"/>
      </g>
     </g>
    </g>
    <g id="ytick_11">
     <g id="line2d_37">
      <g>
       <use xlink:href="#m511befb49b" x="54" y="90.624062" style="stroke: #000000; stroke-width: 0.6"/>
      </g>
     </g>
    </g>
    <g id="ytick_12">
     <g id="line2d_38">
      <g>
       <use xlink:href="#m511befb49b" x="54" y="68.862708" style="stroke: #000000; stroke-width: 0.6"/>
      </g>
     </g>
    </g>
    <g id="ytick_13">
     <g id="line2d_39">
      <g>
       <use xlink:href="#m511befb49b" x="54" y="53.422782" style="stroke: #000000; stroke-width: 0.6"/>
      </g>
     </g>
    </g>
    <g id="ytick_14">
     <g id="line2d_40">
      <g>
       <use xlink:href="#m511befb49b" x="54" y="41.446644" style="stroke: #000000; stroke-width: 0.6"/>
      </g>
     </g>
    </g>
    <g id="text_7">
     <!-- QuasiNashConv -->
     <g transform="translate(17.420312 182.699531)rotate(-90)scale(0.1 -0.1)">
      <defs>
       <path id="DejaVuSans-51" d="M 2522 4238 
Q 1834 4238 1429 3725 
Q 1025 3213 1025 2328 
Q 1025 1447 1429 934 
Q 1834 422 2522 422 
Q 3209 422 3611 934 
Q 4013 1447 4013 2328 
Q 4013 3213 3611 3725 
Q 3209 4238 2522 4238 
z
M 3406 84 
L 4238 -825 
L 3475 -825 
L 2784 -78 
Q 2681 -84 2626 -87 
Q 2572 -91 2522 -91 
Q 1538 -91 948 567 
Q 359 1225 359 2328 
Q 359 3434 948 4092 
Q 1538 4750 2522 4750 
Q 3503 4750 4090 4092 
Q 4678 3434 4678 2328 
Q 4678 1516 4351 937 
Q 4025 359 3406 84 
z
" transform="scale(0.015625)"/>
       <path id="DejaVuSans-75" d="M 544 1381 
L 544 3500 
L 1119 3500 
L 1119 1403 
Q 1119 906 1312 657 
Q 1506 409 1894 409 
Q 2359 409 2629 706 
Q 2900 1003 2900 1516 
L 2900 3500 
L 3475 3500 
L 3475 0 
L 2900 0 
L 2900 538 
Q 2691 219 2414 64 
Q 2138 -91 1772 -91 
Q 1169 -91 856 284 
Q 544 659 544 1381 
z
M 1991 3584 
L 1991 3584 
z
" transform="scale(0.015625)"/>
       <path id="DejaVuSans-61" d="M 2194 1759 
Q 1497 1759 1228 1600 
Q 959 1441 959 1056 
Q 959 750 1161 570 
Q 1363 391 1709 391 
Q 2188 391 2477 730 
Q 2766 1069 2766 1631 
L 2766 1759 
L 2194 1759 
z
M 3341 1997 
L 3341 0 
L 2766 0 
L 2766 531 
Q 2569 213 2275 61 
Q 1981 -91 1556 -91 
Q 1019 -91 701 211 
Q 384 513 384 1019 
Q 384 1609 779 1909 
Q 1175 2209 1959 2209 
L 2766 2209 
L 2766 2266 
Q 2766 2663 2505 2880 
Q 2244 3097 1772 3097 
Q 1472 3097 1187 3025 
Q 903 2953 641 2809 
L 641 3341 
Q 956 3463 1253 3523 
Q 1550 3584 1831 3584 
Q 2591 3584 2966 3190 
Q 3341 2797 3341 1997 
z
" transform="scale(0.015625)"/>
       <path id="DejaVuSans-4e" d="M 628 4666 
L 1478 4666 
L 3547 763 
L 3547 4666 
L 4159 4666 
L 4159 0 
L 3309 0 
L 1241 3903 
L 1241 0 
L 628 0 
L 628 4666 
z
" transform="scale(0.015625)"/>
       <path id="DejaVuSans-68" d="M 3513 2113 
L 3513 0 
L 2938 0 
L 2938 2094 
Q 2938 2591 2744 2837 
Q 2550 3084 2163 3084 
Q 1697 3084 1428 2787 
Q 1159 2491 1159 1978 
L 1159 0 
L 581 0 
L 581 4863 
L 1159 4863 
L 1159 2956 
Q 1366 3272 1645 3428 
Q 1925 3584 2291 3584 
Q 2894 3584 3203 3211 
Q 3513 2838 3513 2113 
z
" transform="scale(0.015625)"/>
       <path id="DejaVuSans-43" d="M 4122 4306 
L 4122 3641 
Q 3803 3938 3442 4084 
Q 3081 4231 2675 4231 
Q 1875 4231 1450 3742 
Q 1025 3253 1025 2328 
Q 1025 1406 1450 917 
Q 1875 428 2675 428 
Q 3081 428 3442 575 
Q 3803 722 4122 1019 
L 4122 359 
Q 3791 134 3420 21 
Q 3050 -91 2638 -91 
Q 1578 -91 968 557 
Q 359 1206 359 2328 
Q 359 3453 968 4101 
Q 1578 4750 2638 4750 
Q 3056 4750 3426 4639 
Q 3797 4528 4122 4306 
z
" transform="scale(0.015625)"/>
       <path id="DejaVuSans-6f" d="M 1959 3097 
Q 1497 3097 1228 2736 
Q 959 2375 959 1747 
Q 959 1119 1226 758 
Q 1494 397 1959 397 
Q 2419 397 2687 759 
Q 2956 1122 2956 1747 
Q 2956 2369 2687 2733 
Q 2419 3097 1959 3097 
z
M 1959 3584 
Q 2709 3584 3137 3096 
Q 3566 2609 3566 1747 
Q 3566 888 3137 398 
Q 2709 -91 1959 -91 
Q 1206 -91 779 398 
Q 353 888 353 1747 
Q 353 2609 779 3096 
Q 1206 3584 1959 3584 
z
" transform="scale(0.015625)"/>
       <path id="DejaVuSans-6e" d="M 3513 2113 
L 3513 0 
L 2938 0 
L 2938 2094 
Q 2938 2591 2744 2837 
Q 2550 3084 2163 3084 
Q 1697 3084 1428 2787 
Q 1159 2491 1159 1978 
L 1159 0 
L 581 0 
L 581 3500 
L 1159 3500 
L 1159 2956 
Q 1366 3272 1645 3428 
Q 1925 3584 2291 3584 
Q 2894 3584 3203 3211 
Q 3513 2838 3513 2113 
z
" transform="scale(0.015625)"/>
       <path id="DejaVuSans-76" d="M 191 3500 
L 800 3500 
L 1894 563 
L 2988 3500 
L 3597 3500 
L 2284 0 
L 1503 0 
L 191 3500 
z
" transform="scale(0.015625)"/>
      </defs>
      <use xlink:href="#DejaVuSans-51"/>
      <use xlink:href="#DejaVuSans-75" x="78.710938"/>
      <use xlink:href="#DejaVuSans-61" x="142.089844"/>
      <use xlink:href="#DejaVuSans-73" x="203.369141"/>
      <use xlink:href="#DejaVuSans-69" x="255.46875"/>
      <use xlink:href="#DejaVuSans-4e" x="283.251953"/>
      <use xlink:href="#DejaVuSans-61" x="358.056641"/>
      <use xlink:href="#DejaVuSans-73" x="419.335938"/>
      <use xlink:href="#DejaVuSans-68" x="471.435547"/>
      <use xlink:href="#DejaVuSans-43" x="534.814453"/>
      <use xlink:href="#DejaVuSans-6f" x="604.638672"/>
      <use xlink:href="#DejaVuSans-6e" x="665.820312"/>
      <use xlink:href="#DejaVuSans-76" x="729.199219"/>
     </g>
    </g>
   </g>
   <g id="line2d_41">
    <path d="M 112.758336 186.627831 
L 139.267926 199.684766 
L 157.43716 202.948679 
L 170.800756 208.210997 
L 181.266488 218.258455 
L 190.252749 221.225833 
L 198.781385 215.506942 
L 206.29133 219.005763 
L 213.239025 220.2689 
L 218.385026 225.29033 
L 223.175634 222.415023 
L 227.298113 222.667583 
L 231.654181 227.359465 
L 235.4744 222.494548 
L 238.940958 222.753124 
L 241.9118 223.965034 
L 244.739282 226.608638 
L 247.421943 230.869779 
L 249.98845 227.430856 
L 252.400012 227.554408 
L 254.720175 231.340069 
L 256.95321 231.709173 
L 259.303177 226.602591 
L 261.577207 230.161375 
L 263.664583 226.756875 
L 265.619996 227.654742 
L 267.506402 231.983491 
L 269.463662 233.59574 
L 271.146519 231.565496 
L 272.859717 233.633763 
L 274.543895 232.096002 
L 276.165468 232.841677 
L 277.809076 232.659991 
L 279.292161 233.182568 
L 280.812043 228.582802 
L 282.307118 233.671897 
L 283.799862 232.209085 
L 285.259278 231.731961 
L 286.563867 230.921094 
L 287.896297 229.97071 
L 289.220897 229.165027 
L 290.540038 228.674851 
L 292.122937 232.467523 
L 293.361931 231.181228 
L 294.564501 236.030856 
L 295.67185 230.254903 
L 296.834828 231.938233 
L 298.028069 233.566474 
L 299.184532 234.403349 
L 300.215874 229.84175 
L 301.258369 232.68316 
L 302.336415 231.648963 
L 303.388191 234.246022 
L 304.412308 232.391233 
L 305.388579 234.518425 
L 306.335143 235.847261 
L 307.362294 233.028413 
L 308.285574 234.804881 
L 309.192219 234.193454 
L 310.081522 232.309769 
L 311.022521 236.249159 
L 311.879668 234.918416 
L 312.905716 236.889555 
L 313.779707 234.253832 
L 314.781429 233.244404 
L 315.628485 237.259945 
L 316.445584 239.143732 
L 317.378114 236.806041 
L 318.396831 234.628625 
L 319.305174 237.424844 
L 320.046305 237.540828 
L 320.761489 237.136863 
L 321.494069 235.285824 
L 322.255329 237.436556 
L 322.977621 234.484379 
L 323.830348 237.784818 
L 324.522296 238.833041 
L 325.265201 236.897735 
L 326.058098 240.136361 
L 326.825577 238.623687 
L 327.489723 233.990426 
L 328.297263 234.423 
L 328.973259 236.628556 
L 329.653058 235.721032 
L 330.303047 236.984034 
L 330.975164 237.947133 
L 331.57078 239.049381 
L 332.229237 237.603349 
L 332.899115 241.019186 
L 333.576202 241.117427 
L 334.203273 236.777633 
L 334.80008 238.061596 
L 335.456097 235.654153 
L 336.049278 233.315515 
L 336.649407 236.115472 
L 337.326618 240.035113 
L 337.952427 241.397427 
L 338.661235 238.924368 
L 339.311512 237.186395 
L 339.892155 237.515116 
" clip-path="url(#p7a94afaa6f)" style="fill: none; stroke: #000000; stroke-width: 0.5; stroke-linecap: square"/>
   </g>
   <g id="line2d_42">
    <path d="M 88.140978 188.263797 
L 125.89892 194.42911 
L 147.649329 192.606903 
L 164.843656 209.78719 
L 178.072763 207.05871 
L 189.28402 219.992713 
L 197.128934 222.133756 
L 204.077879 226.047268 
L 209.766181 224.303298 
L 215.609521 224.992799 
L 220.888525 218.300788 
L 225.429796 223.763916 
L 229.709311 223.22514 
L 233.257893 224.581558 
L 236.554513 223.72451 
L 239.744863 226.001048 
L 242.666805 225.131787 
L 245.426546 227.864636 
L 248.104334 228.763948 
L 251.017803 229.535455 
L 253.447089 228.968669 
L 255.786424 230.783769 
L 258.131279 232.888459 
L 260.35362 229.296627 
L 262.389111 229.474048 
L 264.540315 228.115165 
L 266.408361 230.382728 
L 268.292226 233.166444 
L 270.029214 231.134083 
L 271.83668 232.91151 
L 273.594321 229.131634 
L 275.235975 230.547589 
L 276.936584 233.357359 
L 278.561832 235.652962 
L 280.096705 234.623611 
L 281.481054 236.989787 
L 282.884223 235.460039 
L 284.236348 236.078529 
L 285.790416 235.631796 
L 287.393016 237.43512 
L 288.7523 232.598824 
L 289.965383 230.721558 
L 291.140678 229.896461 
L 292.286306 237.319951 
L 293.592746 233.784409 
L 294.835005 234.590489 
L 295.984272 235.080088 
L 297.129695 238.362374 
L 298.301833 236.836897 
L 299.455636 236.504052 
L 300.4946 234.057073 
L 301.546039 240.019002 
L 302.608752 238.133903 
L 303.614685 239.830776 
L 304.642491 236.296564 
L 305.646772 238.128579 
L 306.60045 240.04485 
L 307.622551 233.488198 
L 308.742249 233.62931 
L 309.689715 235.497788 
L 310.684138 240.33111 
L 311.631577 237.482105 
L 312.524389 236.345426 
L 313.531725 237.327064 
L 314.475803 235.993739 
L 315.599034 235.061347 
L 316.438884 237.409908 
L 317.253174 235.020421 
L 318.028973 238.930293 
L 318.816256 236.113494 
L 319.589201 237.739231 
L 320.508225 241.272975 
L 321.283375 241.165698 
L 322.04452 240.610086 
L 322.811775 240.284293 
L 323.580626 240.21727 
L 324.276433 239.905791 
L 325.063677 241.145788 
L 325.810358 240.326705 
L 326.550431 238.470464 
L 327.229282 238.024776 
L 327.899816 239.764273 
L 328.567368 238.966579 
L 329.21817 240.166113 
L 329.913891 240.118648 
L 330.602858 237.989011 
L 331.23428 237.602053 
L 331.858162 236.80431 
L 332.582577 241.759536 
L 333.197991 238.154953 
L 333.84515 240.823073 
L 334.537938 239.124592 
L 335.167764 242.116364 
L 335.930699 240.770068 
L 336.572617 240.856097 
L 337.205734 237.521824 
L 337.7885 241.419365 
L 338.319681 238.296068 
L 338.901172 241.334927 
L 339.644941 239.84307 
" clip-path="url(#p7a94afaa6f)" style="fill: none; stroke-dasharray: 1.85,0.8; stroke-dashoffset: 0; stroke: #000000; stroke-width: 0.5"/>
   </g>
   <g id="line2d_43">
    <path d="M 129.618579 166.377557 
L 167.378317 178.746294 
L 188.834683 182.624346 
L 202.697067 182.974055 
L 214.000061 188.378657 
L 222.923571 188.03768 
L 231.231095 191.101099 
L 237.973823 189.580306 
L 244.063055 194.228346 
L 249.461459 191.552058 
L 254.211182 196.809587 
L 258.676044 197.542394 
L 262.805971 198.476527 
L 266.61338 192.6749 
L 270.295443 193.663109 
L 273.613233 197.756631 
L 276.727034 197.530268 
L 280.24393 198.290127 
L 283.192271 200.213987 
L 285.797639 202.691826 
L 288.650385 203.234992 
L 290.990657 200.334653 
L 293.3299 202.377194 
L 295.590656 202.491445 
L 297.853335 202.659118 
L 299.84851 204.157487 
L 301.701463 203.822199 
L 303.682689 204.758354 
L 305.766322 202.390619 
L 307.753526 202.958663 
L 309.471147 204.360233 
L 311.326992 204.412433 
L 313.29798 201.104899 
L 314.851442 205.521063 
L 316.377511 206.63923 
L 317.948836 208.191598 
L 319.334726 204.375995 
L 320.715791 202.270353 
L 322.092939 204.946017 
L 323.584929 204.829929 
L 324.951003 202.011076 
L 326.187019 206.124168 
L 327.33062 201.936464 
L 328.533654 204.482434 
L 329.757389 209.046201 
L 330.996315 208.351678 
L 332.113545 204.057597 
L 333.279452 207.035931 
L 334.495498 206.932487 
L 335.749769 204.015864 
L 336.861994 206.776305 
L 337.828648 208.686185 
L 339.045448 207.935883 
L 340.084367 203.385989 
L 341.071139 204.932318 
L 342.038264 207.181289 
L 343.033 204.673189 
L 344.153137 210.993924 
L 345.332366 208.08825 
L 346.553151 205.831112 
L 347.618683 204.79418 
L 348.639721 207.935524 
L 349.642036 208.465994 
L 350.709595 209.724727 
L 351.607339 209.561196 
L 352.532651 209.267815 
L 353.428313 207.352899 
L 354.467719 208.937595 
L 355.376658 204.685393 
L 356.241308 208.893721 
L 356.981221 211.801171 
L 357.800292 211.924852 
L 358.607454 208.359332 
L 359.44422 207.831477 
L 360.176715 212.27703 
L 360.904982 210.332392 
L 361.614692 213.352538 
L 362.267817 211.41227 
L 362.87519 213.900045 
L 363.409247 211.97192 
L 363.896203 212.47271 
L 364.368028 212.150994 
L 364.892357 214.896918 
L 365.976661 213.362119 
L 366.521576 212.655616 
L 367.03672 214.251469 
L 367.536124 210.934055 
L 368.014913 216.382762 
L 368.512191 210.066174 
L 368.986533 213.623329 
L 369.499879 212.510703 
L 369.992134 208.969384 
L 370.485241 211.209201 
L 370.93948 213.75483 
L 371.401919 214.872812 
L 371.862659 213.577702 
L 372.308806 212.981399 
L 372.727583 212.045893 
L 373.166419 210.772729 
L 373.581818 209.584346 
" clip-path="url(#p7a94afaa6f)" style="fill: none; stroke-dasharray: 0.5,0.825; stroke-dashoffset: 0; stroke: #000000; stroke-width: 0.5"/>
   </g>
   <g id="line2d_44">
    <path d="M 125.550061 127.59474 
L 162.444415 186.686933 
L 184.535411 191.764963 
L 199.9128 192.470315 
L 212.665578 194.592519 
L 222.061623 195.946342 
L 230.320808 196.97947 
L 238.231976 197.149204 
L 244.266064 199.424963 
L 249.57202 198.295207 
L 254.773174 199.698184 
L 259.238057 200.953671 
L 263.343055 203.299987 
L 267.29424 203.233278 
L 270.97101 204.179204 
L 274.297566 204.543469 
L 277.470249 207.230768 
L 280.534109 206.385403 
L 283.56485 207.871988 
L 286.531672 207.522908 
L 289.299748 207.634553 
L 292.247266 207.99013 
L 294.534656 209.942542 
L 296.818239 209.373432 
L 298.91128 208.462593 
L 301.171252 210.628665 
L 303.069976 211.054337 
L 305.05309 212.019895 
L 306.822547 211.593104 
L 308.828334 210.807908 
L 310.529489 214.419847 
L 312.086529 211.946312 
L 313.616916 214.507162 
L 315.259639 213.908129 
L 316.79154 214.99685 
L 318.367133 213.426013 
L 319.868076 214.545306 
L 321.455633 214.80783 
L 323.039717 215.636198 
L 324.394127 215.104121 
L 325.654873 217.252194 
L 327.122605 217.570242 
L 328.461296 217.389294 
L 329.642611 217.062118 
L 330.854575 215.807148 
L 332.054985 217.169604 
L 333.44703 218.733712 
L 334.926986 216.581168 
L 336.346429 218.515193 
L 337.726651 218.31641 
L 338.921974 217.858183 
L 340.074341 218.304952 
L 341.290008 216.2368 
L 342.395433 219.077183 
L 343.475745 216.624889 
L 344.450101 218.448043 
L 345.630494 220.692567 
L 346.66315 216.820822 
L 347.810028 218.749057 
L 348.651328 219.272272 
L 349.559389 217.703283 
L 350.489552 219.155406 
L 351.466234 218.245461 
L 352.326501 217.986544 
L 353.172781 220.133872 
L 353.953555 219.66349 
L 354.712703 220.624776 
L 355.402475 219.868013 
L 356.030216 219.528048 
L 356.589361 220.306043 
L 357.132247 221.332477 
L 357.726284 219.119122 
L 358.938475 220.623633 
L 359.552705 220.407419 
L 360.13546 220.014572 
L 360.709154 220.299388 
L 361.272236 220.865685 
L 361.835553 221.471692 
L 362.386063 220.703632 
L 362.964426 220.974649 
L 363.522922 221.125826 
L 364.063731 220.868129 
L 364.560788 222.202919 
L 365.080658 220.670968 
L 365.608269 220.039933 
L 366.100626 220.005186 
L 366.568676 223.276202 
L 367.057906 222.450443 
L 367.543218 222.406121 
L 367.994869 220.713038 
L 368.393414 221.953199 
L 368.801762 220.134381 
L 369.196729 220.123456 
L 369.596614 221.532778 
L 370.023325 223.490932 
L 370.442406 221.296713 
L 370.815753 221.876395 
L 371.192156 221.329751 
L 371.561709 220.452851 
L 371.922129 221.633686 
" clip-path="url(#p7a94afaa6f)" style="fill: none; stroke-dasharray: 3.2,0.8,0.5,0.8; stroke-dashoffset: 0; stroke: #000000; stroke-width: 0.5"/>
   </g>
   <g id="line2d_45">
    <path d="M 83.358989 65.30613 
L 110.094685 91.306627 
L 127.424634 104.035491 
L 141.720494 111.792414 
L 152.996764 120.597697 
L 163.817954 120.248719 
L 171.385032 118.515372 
L 179.918553 135.316285 
L 185.774773 141.418424 
L 191.178518 124.137149 
L 196.811462 158.291839 
L 200.921206 151.641456 
L 204.799867 154.724994 
L 208.821147 165.476033 
L 212.34425 137.803884 
L 216.412852 167.797903 
L 220.443324 143.921282 
L 222.954214 179.351076 
L 225.414935 152.906287 
L 227.652253 181.862581 
L 229.830268 156.766034 
L 232.3349 181.581821 
L 234.43943 160.782438 
L 236.520726 197.378707 
L 239.269271 160.156358 
L 241.375012 191.621102 
L 243.623696 164.450057 
L 245.642121 207.685893 
L 247.880518 162.911164 
L 250.067904 202.165895 
L 251.799267 168.873168 
L 253.699142 206.407399 
L 256.031211 184.210604 
L 257.99462 192.561038 
L 259.838009 193.250826 
L 261.682296 182.284926 
L 263.216511 213.470276 
L 264.707406 178.006551 
L 266.088813 213.396114 
L 267.447424 178.272464 
L 268.84082 208.37208 
L 270.144541 194.136237 
L 271.476121 195.447489 
L 272.887078 207.758671 
L 274.33189 182.529657 
L 275.778282 213.823166 
L 277.157575 186.024142 
L 278.524802 213.897409 
L 279.993533 200.741303 
L 281.177766 198.008891 
L 282.430948 212.44541 
L 283.704352 189.366801 
L 284.623679 217.461957 
L 285.472751 193.027819 
L 286.431604 207.796164 
L 287.437418 205.283413 
L 288.89935 198.890294 
L 290.303129 222.552658 
L 291.760944 196.768655 
L 293.004058 215.262894 
L 294.285293 202.308587 
L 295.333951 203.391102 
L 296.281445 218.637248 
L 297.311631 200.293238 
L 298.602036 219.764275 
L 299.864722 202.620155 
L 301.232764 209.886182 
L 302.59185 216.919571 
L 303.872264 203.589873 
L 305.21985 222.270738 
L 306.232845 205.703288 
L 307.262755 213.237294 
L 308.328715 217.634003 
L 309.367614 206.766101 
L 310.366598 223.714955 
L 311.523622 207.102543 
L 312.489577 213.591052 
L 313.379574 219.032196 
L 314.319676 208.832142 
L 315.211759 225.177242 
L 316.224861 213.586839 
L 317.29004 215.699631 
L 318.177049 220.774267 
L 319.196103 210.02237 
L 320.155075 222.853718 
L 320.922006 215.711883 
L 321.729005 215.064645 
L 322.530714 224.598805 
L 323.337777 214.132679 
L 324.159266 225.338626 
L 324.942087 222.984508 
L 325.693714 216.441588 
L 326.420689 224.555563 
L 327.213781 214.601309 
L 327.935068 221.500768 
L 328.787766 225.106613 
L 329.463262 216.975382 
L 330.061805 226.328251 
L 330.62023 220.272197 
L 331.07218 220.937048 
" clip-path="url(#p7a94afaa6f)" style="fill: none; stroke: #000000; stroke-width: 0.5; stroke-linecap: square"/>
    <defs>
     <path id="m075fc37b36" d="M 0 0.25 
C 0.066301 0.25 0.129895 0.223658 0.176777 0.176777 
C 0.223658 0.129895 0.25 0.066301 0.25 0 
C 0.25 -0.066301 0.223658 -0.129895 0.176777 -0.176777 
C 0.129895 -0.223658 0.066301 -0.25 0 -0.25 
C -0.066301 -0.25 -0.129895 -0.223658 -0.176777 -0.176777 
C -0.223658 -0.129895 -0.25 -0.066301 -0.25 0 
C -0.25 0.066301 -0.223658 0.129895 -0.176777 0.176777 
C -0.129895 0.223658 -0.066301 0.25 0 0.25 
z
" style="stroke: #000000"/>
    </defs>
    <g clip-path="url(#p7a94afaa6f)">
     <use xlink:href="#m075fc37b36" x="83.358989" y="65.30613" style="stroke: #000000"/>
     <use xlink:href="#m075fc37b36" x="110.094685" y="91.306627" style="stroke: #000000"/>
     <use xlink:href="#m075fc37b36" x="127.424634" y="104.035491" style="stroke: #000000"/>
     <use xlink:href="#m075fc37b36" x="141.720494" y="111.792414" style="stroke: #000000"/>
     <use xlink:href="#m075fc37b36" x="152.996764" y="120.597697" style="stroke: #000000"/>
     <use xlink:href="#m075fc37b36" x="163.817954" y="120.248719" style="stroke: #000000"/>
     <use xlink:href="#m075fc37b36" x="171.385032" y="118.515372" style="stroke: #000000"/>
     <use xlink:href="#m075fc37b36" x="179.918553" y="135.316285" style="stroke: #000000"/>
     <use xlink:href="#m075fc37b36" x="185.774773" y="141.418424" style="stroke: #000000"/>
     <use xlink:href="#m075fc37b36" x="191.178518" y="124.137149" style="stroke: #000000"/>
     <use xlink:href="#m075fc37b36" x="196.811462" y="158.291839" style="stroke: #000000"/>
     <use xlink:href="#m075fc37b36" x="200.921206" y="151.641456" style="stroke: #000000"/>
     <use xlink:href="#m075fc37b36" x="204.799867" y="154.724994" style="stroke: #000000"/>
     <use xlink:href="#m075fc37b36" x="208.821147" y="165.476033" style="stroke: #000000"/>
     <use xlink:href="#m075fc37b36" x="212.34425" y="137.803884" style="stroke: #000000"/>
     <use xlink:href="#m075fc37b36" x="216.412852" y="167.797903" style="stroke: #000000"/>
     <use xlink:href="#m075fc37b36" x="220.443324" y="143.921282" style="stroke: #000000"/>
     <use xlink:href="#m075fc37b36" x="222.954214" y="179.351076" style="stroke: #000000"/>
     <use xlink:href="#m075fc37b36" x="225.414935" y="152.906287" style="stroke: #000000"/>
     <use xlink:href="#m075fc37b36" x="227.652253" y="181.862581" style="stroke: #000000"/>
     <use xlink:href="#m075fc37b36" x="229.830268" y="156.766034" style="stroke: #000000"/>
     <use xlink:href="#m075fc37b36" x="232.3349" y="181.581821" style="stroke: #000000"/>
     <use xlink:href="#m075fc37b36" x="234.43943" y="160.782438" style="stroke: #000000"/>
     <use xlink:href="#m075fc37b36" x="236.520726" y="197.378707" style="stroke: #000000"/>
     <use xlink:href="#m075fc37b36" x="239.269271" y="160.156358" style="stroke: #000000"/>
     <use xlink:href="#m075fc37b36" x="241.375012" y="191.621102" style="stroke: #000000"/>
     <use xlink:href="#m075fc37b36" x="243.623696" y="164.450057" style="stroke: #000000"/>
     <use xlink:href="#m075fc37b36" x="245.642121" y="207.685893" style="stroke: #000000"/>
     <use xlink:href="#m075fc37b36" x="247.880518" y="162.911164" style="stroke: #000000"/>
     <use xlink:href="#m075fc37b36" x="250.067904" y="202.165895" style="stroke: #000000"/>
     <use xlink:href="#m075fc37b36" x="251.799267" y="168.873168" style="stroke: #000000"/>
     <use xlink:href="#m075fc37b36" x="253.699142" y="206.407399" style="stroke: #000000"/>
     <use xlink:href="#m075fc37b36" x="256.031211" y="184.210604" style="stroke: #000000"/>
     <use xlink:href="#m075fc37b36" x="257.99462" y="192.561038" style="stroke: #000000"/>
     <use xlink:href="#m075fc37b36" x="259.838009" y="193.250826" style="stroke: #000000"/>
     <use xlink:href="#m075fc37b36" x="261.682296" y="182.284926" style="stroke: #000000"/>
     <use xlink:href="#m075fc37b36" x="263.216511" y="213.470276" style="stroke: #000000"/>
     <use xlink:href="#m075fc37b36" x="264.707406" y="178.006551" style="stroke: #000000"/>
     <use xlink:href="#m075fc37b36" x="266.088813" y="213.396114" style="stroke: #000000"/>
     <use xlink:href="#m075fc37b36" x="267.447424" y="178.272464" style="stroke: #000000"/>
     <use xlink:href="#m075fc37b36" x="268.84082" y="208.37208" style="stroke: #000000"/>
     <use xlink:href="#m075fc37b36" x="270.144541" y="194.136237" style="stroke: #000000"/>
     <use xlink:href="#m075fc37b36" x="271.476121" y="195.447489" style="stroke: #000000"/>
     <use xlink:href="#m075fc37b36" x="272.887078" y="207.758671" style="stroke: #000000"/>
     <use xlink:href="#m075fc37b36" x="274.33189" y="182.529657" style="stroke: #000000"/>
     <use xlink:href="#m075fc37b36" x="275.778282" y="213.823166" style="stroke: #000000"/>
     <use xlink:href="#m075fc37b36" x="277.157575" y="186.024142" style="stroke: #000000"/>
     <use xlink:href="#m075fc37b36" x="278.524802" y="213.897409" style="stroke: #000000"/>
     <use xlink:href="#m075fc37b36" x="279.993533" y="200.741303" style="stroke: #000000"/>
     <use xlink:href="#m075fc37b36" x="281.177766" y="198.008891" style="stroke: #000000"/>
     <use xlink:href="#m075fc37b36" x="282.430948" y="212.44541" style="stroke: #000000"/>
     <use xlink:href="#m075fc37b36" x="283.704352" y="189.366801" style="stroke: #000000"/>
     <use xlink:href="#m075fc37b36" x="284.623679" y="217.461957" style="stroke: #000000"/>
     <use xlink:href="#m075fc37b36" x="285.472751" y="193.027819" style="stroke: #000000"/>
     <use xlink:href="#m075fc37b36" x="286.431604" y="207.796164" style="stroke: #000000"/>
     <use xlink:href="#m075fc37b36" x="287.437418" y="205.283413" style="stroke: #000000"/>
     <use xlink:href="#m075fc37b36" x="288.89935" y="198.890294" style="stroke: #000000"/>
     <use xlink:href="#m075fc37b36" x="290.303129" y="222.552658" style="stroke: #000000"/>
     <use xlink:href="#m075fc37b36" x="291.760944" y="196.768655" style="stroke: #000000"/>
     <use xlink:href="#m075fc37b36" x="293.004058" y="215.262894" style="stroke: #000000"/>
     <use xlink:href="#m075fc37b36" x="294.285293" y="202.308587" style="stroke: #000000"/>
     <use xlink:href="#m075fc37b36" x="295.333951" y="203.391102" style="stroke: #000000"/>
     <use xlink:href="#m075fc37b36" x="296.281445" y="218.637248" style="stroke: #000000"/>
     <use xlink:href="#m075fc37b36" x="297.311631" y="200.293238" style="stroke: #000000"/>
     <use xlink:href="#m075fc37b36" x="298.602036" y="219.764275" style="stroke: #000000"/>
     <use xlink:href="#m075fc37b36" x="299.864722" y="202.620155" style="stroke: #000000"/>
     <use xlink:href="#m075fc37b36" x="301.232764" y="209.886182" style="stroke: #000000"/>
     <use xlink:href="#m075fc37b36" x="302.59185" y="216.919571" style="stroke: #000000"/>
     <use xlink:href="#m075fc37b36" x="303.872264" y="203.589873" style="stroke: #000000"/>
     <use xlink:href="#m075fc37b36" x="305.21985" y="222.270738" style="stroke: #000000"/>
     <use xlink:href="#m075fc37b36" x="306.232845" y="205.703288" style="stroke: #000000"/>
     <use xlink:href="#m075fc37b36" x="307.262755" y="213.237294" style="stroke: #000000"/>
     <use xlink:href="#m075fc37b36" x="308.328715" y="217.634003" style="stroke: #000000"/>
     <use xlink:href="#m075fc37b36" x="309.367614" y="206.766101" style="stroke: #000000"/>
     <use xlink:href="#m075fc37b36" x="310.366598" y="223.714955" style="stroke: #000000"/>
     <use xlink:href="#m075fc37b36" x="311.523622" y="207.102543" style="stroke: #000000"/>
     <use xlink:href="#m075fc37b36" x="312.489577" y="213.591052" style="stroke: #000000"/>
     <use xlink:href="#m075fc37b36" x="313.379574" y="219.032196" style="stroke: #000000"/>
     <use xlink:href="#m075fc37b36" x="314.319676" y="208.832142" style="stroke: #000000"/>
     <use xlink:href="#m075fc37b36" x="315.211759" y="225.177242" style="stroke: #000000"/>
     <use xlink:href="#m075fc37b36" x="316.224861" y="213.586839" style="stroke: #000000"/>
     <use xlink:href="#m075fc37b36" x="317.29004" y="215.699631" style="stroke: #000000"/>
     <use xlink:href="#m075fc37b36" x="318.177049" y="220.774267" style="stroke: #000000"/>
     <use xlink:href="#m075fc37b36" x="319.196103" y="210.02237" style="stroke: #000000"/>
     <use xlink:href="#m075fc37b36" x="320.155075" y="222.853718" style="stroke: #000000"/>
     <use xlink:href="#m075fc37b36" x="320.922006" y="215.711883" style="stroke: #000000"/>
     <use xlink:href="#m075fc37b36" x="321.729005" y="215.064645" style="stroke: #000000"/>
     <use xlink:href="#m075fc37b36" x="322.530714" y="224.598805" style="stroke: #000000"/>
     <use xlink:href="#m075fc37b36" x="323.337777" y="214.132679" style="stroke: #000000"/>
     <use xlink:href="#m075fc37b36" x="324.159266" y="225.338626" style="stroke: #000000"/>
     <use xlink:href="#m075fc37b36" x="324.942087" y="222.984508" style="stroke: #000000"/>
     <use xlink:href="#m075fc37b36" x="325.693714" y="216.441588" style="stroke: #000000"/>
     <use xlink:href="#m075fc37b36" x="326.420689" y="224.555563" style="stroke: #000000"/>
     <use xlink:href="#m075fc37b36" x="327.213781" y="214.601309" style="stroke: #000000"/>
     <use xlink:href="#m075fc37b36" x="327.935068" y="221.500768" style="stroke: #000000"/>
     <use xlink:href="#m075fc37b36" x="328.787766" y="225.106613" style="stroke: #000000"/>
     <use xlink:href="#m075fc37b36" x="329.463262" y="216.975382" style="stroke: #000000"/>
     <use xlink:href="#m075fc37b36" x="330.061805" y="226.328251" style="stroke: #000000"/>
     <use xlink:href="#m075fc37b36" x="330.62023" y="220.272197" style="stroke: #000000"/>
     <use xlink:href="#m075fc37b36" x="331.07218" y="220.937048" style="stroke: #000000"/>
    </g>
   </g>
   <g id="line2d_46">
    <path d="M 69.218182 65.340772 
L 109.998999 91.304374 
L 136.379204 104.020723 
L 151.293711 111.748691 
L 163.337312 120.616946 
L 173.435412 120.170195 
L 181.117901 118.591228 
L 187.672019 135.351739 
L 193.711979 141.451192 
L 199.407267 124.06585 
L 204.86768 158.298465 
L 209.346958 152.000484 
L 213.530563 154.521993 
L 218.070356 165.471685 
L 221.888802 137.778621 
L 225.590744 167.8807 
L 229.2757 143.711234 
L 232.56345 179.488253 
L 235.7418 152.842585 
L 238.558688 181.399398 
L 241.276773 156.574609 
L 243.181135 181.787621 
L 245.444159 161.074641 
L 247.367495 197.553021 
L 250.341451 159.883537 
L 253.147744 191.647663 
L 256.097907 164.412088 
L 258.626042 207.816881 
L 260.925123 162.886187 
L 262.836025 202.15481 
L 264.600063 168.768659 
L 266.753427 205.580557 
L 268.8627 184.34843 
L 271.114595 192.546177 
L 273.306569 194.223715 
L 275.265945 181.813828 
L 277.483284 214.707085 
L 279.311065 178.089453 
L 280.97686 214.204869 
L 282.56002 178.292065 
L 284.042331 207.648503 
L 285.558051 195.686619 
L 287.127129 195.336892 
L 288.619878 207.552308 
L 289.880663 182.328193 
L 291.306381 216.568091 
L 292.593033 186.844349 
L 293.963565 214.519144 
L 295.528184 202.650756 
L 296.764084 198.635975 
L 298.286047 213.726457 
L 299.699978 190.338917 
L 300.77119 218.441877 
L 301.953087 193.160956 
L 303.151504 208.033463 
L 304.163465 205.171234 
L 305.281189 198.840838 
L 306.299858 223.26565 
L 307.2944 196.613806 
L 308.224965 216.396825 
L 309.180224 202.50628 
L 310.070761 204.421738 
L 310.971967 219.434935 
L 311.859095 199.675797 
L 312.702825 219.688117 
L 313.469842 203.442599 
L 314.126015 208.812636 
L 314.747195 217.812601 
L 315.360275 203.788757 
L 315.967294 222.420534 
L 316.541369 204.992847 
L 317.100338 212.522713 
L 319.129773 217.936612 
L 319.788156 206.444386 
L 320.410912 225.416357 
L 321.021984 207.954134 
L 321.630499 214.21886 
L 322.196158 220.26579 
L 322.691575 209.311826 
L 323.21342 226.279437 
L 323.715823 214.029013 
L 324.218111 215.012774 
L 324.726774 221.714766 
L 325.324228 210.428978 
L 325.878064 223.289784 
L 326.395178 216.609751 
L 326.893567 214.900082 
L 327.341541 225.483806 
L 327.820196 216.306838 
L 328.279577 224.517057 
L 328.774447 224.052632 
L 329.262993 216.868913 
L 329.69972 224.180828 
L 330.128476 215.166628 
L 330.568222 220.699177 
L 331.025623 223.918986 
L 331.456038 217.331934 
L 331.850024 226.51474 
L 332.270264 220.390195 
L 332.713549 221.680723 
" clip-path="url(#p7a94afaa6f)" style="fill: none; stroke-dasharray: 1.85,0.8; stroke-dashoffset: 0; stroke: #000000; stroke-width: 0.5"/>
    <g clip-path="url(#p7a94afaa6f)">
     <use xlink:href="#m075fc37b36" x="69.218182" y="65.340772" style="stroke: #000000"/>
     <use xlink:href="#m075fc37b36" x="109.998999" y="91.304374" style="stroke: #000000"/>
     <use xlink:href="#m075fc37b36" x="136.379204" y="104.020723" style="stroke: #000000"/>
     <use xlink:href="#m075fc37b36" x="151.293711" y="111.748691" style="stroke: #000000"/>
     <use xlink:href="#m075fc37b36" x="163.337312" y="120.616946" style="stroke: #000000"/>
     <use xlink:href="#m075fc37b36" x="173.435412" y="120.170195" style="stroke: #000000"/>
     <use xlink:href="#m075fc37b36" x="181.117901" y="118.591228" style="stroke: #000000"/>
     <use xlink:href="#m075fc37b36" x="187.672019" y="135.351739" style="stroke: #000000"/>
     <use xlink:href="#m075fc37b36" x="193.711979" y="141.451192" style="stroke: #000000"/>
     <use xlink:href="#m075fc37b36" x="199.407267" y="124.06585" style="stroke: #000000"/>
     <use xlink:href="#m075fc37b36" x="204.86768" y="158.298465" style="stroke: #000000"/>
     <use xlink:href="#m075fc37b36" x="209.346958" y="152.000484" style="stroke: #000000"/>
     <use xlink:href="#m075fc37b36" x="213.530563" y="154.521993" style="stroke: #000000"/>
     <use xlink:href="#m075fc37b36" x="218.070356" y="165.471685" style="stroke: #000000"/>
     <use xlink:href="#m075fc37b36" x="221.888802" y="137.778621" style="stroke: #000000"/>
     <use xlink:href="#m075fc37b36" x="225.590744" y="167.8807" style="stroke: #000000"/>
     <use xlink:href="#m075fc37b36" x="229.2757" y="143.711234" style="stroke: #000000"/>
     <use xlink:href="#m075fc37b36" x="232.56345" y="179.488253" style="stroke: #000000"/>
     <use xlink:href="#m075fc37b36" x="235.7418" y="152.842585" style="stroke: #000000"/>
     <use xlink:href="#m075fc37b36" x="238.558688" y="181.399398" style="stroke: #000000"/>
     <use xlink:href="#m075fc37b36" x="241.276773" y="156.574609" style="stroke: #000000"/>
     <use xlink:href="#m075fc37b36" x="243.181135" y="181.787621" style="stroke: #000000"/>
     <use xlink:href="#m075fc37b36" x="245.444159" y="161.074641" style="stroke: #000000"/>
     <use xlink:href="#m075fc37b36" x="247.367495" y="197.553021" style="stroke: #000000"/>
     <use xlink:href="#m075fc37b36" x="250.341451" y="159.883537" style="stroke: #000000"/>
     <use xlink:href="#m075fc37b36" x="253.147744" y="191.647663" style="stroke: #000000"/>
     <use xlink:href="#m075fc37b36" x="256.097907" y="164.412088" style="stroke: #000000"/>
     <use xlink:href="#m075fc37b36" x="258.626042" y="207.816881" style="stroke: #000000"/>
     <use xlink:href="#m075fc37b36" x="260.925123" y="162.886187" style="stroke: #000000"/>
     <use xlink:href="#m075fc37b36" x="262.836025" y="202.15481" style="stroke: #000000"/>
     <use xlink:href="#m075fc37b36" x="264.600063" y="168.768659" style="stroke: #000000"/>
     <use xlink:href="#m075fc37b36" x="266.753427" y="205.580557" style="stroke: #000000"/>
     <use xlink:href="#m075fc37b36" x="268.8627" y="184.34843" style="stroke: #000000"/>
     <use xlink:href="#m075fc37b36" x="271.114595" y="192.546177" style="stroke: #000000"/>
     <use xlink:href="#m075fc37b36" x="273.306569" y="194.223715" style="stroke: #000000"/>
     <use xlink:href="#m075fc37b36" x="275.265945" y="181.813828" style="stroke: #000000"/>
     <use xlink:href="#m075fc37b36" x="277.483284" y="214.707085" style="stroke: #000000"/>
     <use xlink:href="#m075fc37b36" x="279.311065" y="178.089453" style="stroke: #000000"/>
     <use xlink:href="#m075fc37b36" x="280.97686" y="214.204869" style="stroke: #000000"/>
     <use xlink:href="#m075fc37b36" x="282.56002" y="178.292065" style="stroke: #000000"/>
     <use xlink:href="#m075fc37b36" x="284.042331" y="207.648503" style="stroke: #000000"/>
     <use xlink:href="#m075fc37b36" x="285.558051" y="195.686619" style="stroke: #000000"/>
     <use xlink:href="#m075fc37b36" x="287.127129" y="195.336892" style="stroke: #000000"/>
     <use xlink:href="#m075fc37b36" x="288.619878" y="207.552308" style="stroke: #000000"/>
     <use xlink:href="#m075fc37b36" x="289.880663" y="182.328193" style="stroke: #000000"/>
     <use xlink:href="#m075fc37b36" x="291.306381" y="216.568091" style="stroke: #000000"/>
     <use xlink:href="#m075fc37b36" x="292.593033" y="186.844349" style="stroke: #000000"/>
     <use xlink:href="#m075fc37b36" x="293.963565" y="214.519144" style="stroke: #000000"/>
     <use xlink:href="#m075fc37b36" x="295.528184" y="202.650756" style="stroke: #000000"/>
     <use xlink:href="#m075fc37b36" x="296.764084" y="198.635975" style="stroke: #000000"/>
     <use xlink:href="#m075fc37b36" x="298.286047" y="213.726457" style="stroke: #000000"/>
     <use xlink:href="#m075fc37b36" x="299.699978" y="190.338917" style="stroke: #000000"/>
     <use xlink:href="#m075fc37b36" x="300.77119" y="218.441877" style="stroke: #000000"/>
     <use xlink:href="#m075fc37b36" x="301.953087" y="193.160956" style="stroke: #000000"/>
     <use xlink:href="#m075fc37b36" x="303.151504" y="208.033463" style="stroke: #000000"/>
     <use xlink:href="#m075fc37b36" x="304.163465" y="205.171234" style="stroke: #000000"/>
     <use xlink:href="#m075fc37b36" x="305.281189" y="198.840838" style="stroke: #000000"/>
     <use xlink:href="#m075fc37b36" x="306.299858" y="223.26565" style="stroke: #000000"/>
     <use xlink:href="#m075fc37b36" x="307.2944" y="196.613806" style="stroke: #000000"/>
     <use xlink:href="#m075fc37b36" x="308.224965" y="216.396825" style="stroke: #000000"/>
     <use xlink:href="#m075fc37b36" x="309.180224" y="202.50628" style="stroke: #000000"/>
     <use xlink:href="#m075fc37b36" x="310.070761" y="204.421738" style="stroke: #000000"/>
     <use xlink:href="#m075fc37b36" x="310.971967" y="219.434935" style="stroke: #000000"/>
     <use xlink:href="#m075fc37b36" x="311.859095" y="199.675797" style="stroke: #000000"/>
     <use xlink:href="#m075fc37b36" x="312.702825" y="219.688117" style="stroke: #000000"/>
     <use xlink:href="#m075fc37b36" x="313.469842" y="203.442599" style="stroke: #000000"/>
     <use xlink:href="#m075fc37b36" x="314.126015" y="208.812636" style="stroke: #000000"/>
     <use xlink:href="#m075fc37b36" x="314.747195" y="217.812601" style="stroke: #000000"/>
     <use xlink:href="#m075fc37b36" x="315.360275" y="203.788757" style="stroke: #000000"/>
     <use xlink:href="#m075fc37b36" x="315.967294" y="222.420534" style="stroke: #000000"/>
     <use xlink:href="#m075fc37b36" x="316.541369" y="204.992847" style="stroke: #000000"/>
     <use xlink:href="#m075fc37b36" x="317.100338" y="212.522713" style="stroke: #000000"/>
     <use xlink:href="#m075fc37b36" x="319.129773" y="217.936612" style="stroke: #000000"/>
     <use xlink:href="#m075fc37b36" x="319.788156" y="206.444386" style="stroke: #000000"/>
     <use xlink:href="#m075fc37b36" x="320.410912" y="225.416357" style="stroke: #000000"/>
     <use xlink:href="#m075fc37b36" x="321.021984" y="207.954134" style="stroke: #000000"/>
     <use xlink:href="#m075fc37b36" x="321.630499" y="214.21886" style="stroke: #000000"/>
     <use xlink:href="#m075fc37b36" x="322.196158" y="220.26579" style="stroke: #000000"/>
     <use xlink:href="#m075fc37b36" x="322.691575" y="209.311826" style="stroke: #000000"/>
     <use xlink:href="#m075fc37b36" x="323.21342" y="226.279437" style="stroke: #000000"/>
     <use xlink:href="#m075fc37b36" x="323.715823" y="214.029013" style="stroke: #000000"/>
     <use xlink:href="#m075fc37b36" x="324.218111" y="215.012774" style="stroke: #000000"/>
     <use xlink:href="#m075fc37b36" x="324.726774" y="221.714766" style="stroke: #000000"/>
     <use xlink:href="#m075fc37b36" x="325.324228" y="210.428978" style="stroke: #000000"/>
     <use xlink:href="#m075fc37b36" x="325.878064" y="223.289784" style="stroke: #000000"/>
     <use xlink:href="#m075fc37b36" x="326.395178" y="216.609751" style="stroke: #000000"/>
     <use xlink:href="#m075fc37b36" x="326.893567" y="214.900082" style="stroke: #000000"/>
     <use xlink:href="#m075fc37b36" x="327.341541" y="225.483806" style="stroke: #000000"/>
     <use xlink:href="#m075fc37b36" x="327.820196" y="216.306838" style="stroke: #000000"/>
     <use xlink:href="#m075fc37b36" x="328.279577" y="224.517057" style="stroke: #000000"/>
     <use xlink:href="#m075fc37b36" x="328.774447" y="224.052632" style="stroke: #000000"/>
     <use xlink:href="#m075fc37b36" x="329.262993" y="216.868913" style="stroke: #000000"/>
     <use xlink:href="#m075fc37b36" x="329.69972" y="224.180828" style="stroke: #000000"/>
     <use xlink:href="#m075fc37b36" x="330.128476" y="215.166628" style="stroke: #000000"/>
     <use xlink:href="#m075fc37b36" x="330.568222" y="220.699177" style="stroke: #000000"/>
     <use xlink:href="#m075fc37b36" x="331.025623" y="223.918986" style="stroke: #000000"/>
     <use xlink:href="#m075fc37b36" x="331.456038" y="217.331934" style="stroke: #000000"/>
     <use xlink:href="#m075fc37b36" x="331.850024" y="226.51474" style="stroke: #000000"/>
     <use xlink:href="#m075fc37b36" x="332.270264" y="220.390195" style="stroke: #000000"/>
     <use xlink:href="#m075fc37b36" x="332.713549" y="221.680723" style="stroke: #000000"/>
    </g>
   </g>
   <g id="line2d_47">
    <path d="M 114.237432 44.461892 
L 141.361947 61.953334 
L 160.19842 77.876951 
L 172.068879 93.067362 
L 181.188602 100.402784 
L 189.895283 102.280518 
L 199.367339 92.931478 
L 206.889916 94.886427 
L 213.112626 100.390298 
L 219.043889 96.053102 
L 224.515278 100.412875 
L 230.292537 98.054706 
L 234.272747 98.925005 
L 238.274734 97.378462 
L 241.836522 100.176269 
L 245.211686 96.361866 
L 248.536949 96.616865 
L 252.242507 98.825303 
L 255.0833 94.981435 
L 257.781475 95.682446 
L 260.363831 95.170849 
L 262.781341 97.702183 
L 265.385729 95.531777 
L 268.056193 93.10439 
L 270.284612 94.585514 
L 272.701846 96.541123 
L 274.807972 96.085162 
L 276.516462 93.883332 
L 278.312691 93.282823 
L 280.02414 92.943882 
L 281.882755 93.870924 
L 283.758716 95.984128 
L 285.482059 93.943026 
L 287.140241 92.577396 
L 288.633966 91.768248 
L 290.14052 91.771631 
L 291.623704 92.987412 
L 293.170326 94.07967 
L 294.412438 94.585779 
L 295.506155 93.168703 
L 296.506081 92.258363 
L 297.352375 91.170025 
L 298.092439 91.202686 
L 298.908321 91.495463 
L 299.7326 92.152157 
L 300.544594 93.241546 
L 301.292627 94.598347 
L 302.098664 92.959993 
L 304.379283 92.322623 
L 305.12118 91.294293 
L 305.922252 91.074604 
L 306.698578 90.546099 
L 307.468995 90.552291 
L 308.219833 91.08236 
L 308.944228 91.680665 
L 309.597082 92.731977 
L 310.212968 93.674428 
L 310.776956 93.115239 
L 311.301813 92.304349 
L 311.872688 91.269017 
L 312.497461 90.76257 
L 313.24614 90.101738 
L 313.932647 90.063219 
L 314.601667 89.928766 
L 315.232859 90.276467 
L 315.857365 90.711844 
L 316.465545 91.293121 
L 317.100036 91.938933 
L 317.687367 93.101246 
L 318.207949 93.266689 
L 318.682203 92.302852 
L 319.142681 91.561638 
L 319.617567 91.026746 
L 320.136249 90.482693 
L 320.691837 90.035294 
L 321.229237 89.833819 
L 321.737985 89.501613 
L 322.289674 89.631686 
L 322.833561 89.569968 
L 323.216738 89.996463 
L 323.604229 90.197582 
L 324.017294 90.675303 
L 324.410291 91.497013 
L 324.763326 92.087676 
L 325.100902 92.588985 
L 325.45264 92.147478 
L 325.789299 91.726941 
L 326.110407 91.207983 
L 326.432593 90.578477 
L 326.825771 90.113217 
L 327.179768 89.777043 
L 327.534884 89.390559 
L 327.890089 89.053555 
L 328.245641 89.037692 
L 328.595723 89.073978 
L 328.908179 88.997613 
L 329.186875 89.281849 
L 329.465067 89.453947 
L 329.737124 89.742895 
L 330.013171 90.241864 
" clip-path="url(#p7a94afaa6f)" style="fill: none; stroke-dasharray: 0.5,0.825; stroke-dashoffset: 0; stroke: #000000; stroke-width: 0.5"/>
    <g clip-path="url(#p7a94afaa6f)">
     <use xlink:href="#m075fc37b36" x="114.237432" y="44.461892" style="stroke: #000000"/>
     <use xlink:href="#m075fc37b36" x="141.361947" y="61.953334" style="stroke: #000000"/>
     <use xlink:href="#m075fc37b36" x="160.19842" y="77.876951" style="stroke: #000000"/>
     <use xlink:href="#m075fc37b36" x="172.068879" y="93.067362" style="stroke: #000000"/>
     <use xlink:href="#m075fc37b36" x="181.188602" y="100.402784" style="stroke: #000000"/>
     <use xlink:href="#m075fc37b36" x="189.895283" y="102.280518" style="stroke: #000000"/>
     <use xlink:href="#m075fc37b36" x="199.367339" y="92.931478" style="stroke: #000000"/>
     <use xlink:href="#m075fc37b36" x="206.889916" y="94.886427" style="stroke: #000000"/>
     <use xlink:href="#m075fc37b36" x="213.112626" y="100.390298" style="stroke: #000000"/>
     <use xlink:href="#m075fc37b36" x="219.043889" y="96.053102" style="stroke: #000000"/>
     <use xlink:href="#m075fc37b36" x="224.515278" y="100.412875" style="stroke: #000000"/>
     <use xlink:href="#m075fc37b36" x="230.292537" y="98.054706" style="stroke: #000000"/>
     <use xlink:href="#m075fc37b36" x="234.272747" y="98.925005" style="stroke: #000000"/>
     <use xlink:href="#m075fc37b36" x="238.274734" y="97.378462" style="stroke: #000000"/>
     <use xlink:href="#m075fc37b36" x="241.836522" y="100.176269" style="stroke: #000000"/>
     <use xlink:href="#m075fc37b36" x="245.211686" y="96.361866" style="stroke: #000000"/>
     <use xlink:href="#m075fc37b36" x="248.536949" y="96.616865" style="stroke: #000000"/>
     <use xlink:href="#m075fc37b36" x="252.242507" y="98.825303" style="stroke: #000000"/>
     <use xlink:href="#m075fc37b36" x="255.0833" y="94.981435" style="stroke: #000000"/>
     <use xlink:href="#m075fc37b36" x="257.781475" y="95.682446" style="stroke: #000000"/>
     <use xlink:href="#m075fc37b36" x="260.363831" y="95.170849" style="stroke: #000000"/>
     <use xlink:href="#m075fc37b36" x="262.781341" y="97.702183" style="stroke: #000000"/>
     <use xlink:href="#m075fc37b36" x="265.385729" y="95.531777" style="stroke: #000000"/>
     <use xlink:href="#m075fc37b36" x="268.056193" y="93.10439" style="stroke: #000000"/>
     <use xlink:href="#m075fc37b36" x="270.284612" y="94.585514" style="stroke: #000000"/>
     <use xlink:href="#m075fc37b36" x="272.701846" y="96.541123" style="stroke: #000000"/>
     <use xlink:href="#m075fc37b36" x="274.807972" y="96.085162" style="stroke: #000000"/>
     <use xlink:href="#m075fc37b36" x="276.516462" y="93.883332" style="stroke: #000000"/>
     <use xlink:href="#m075fc37b36" x="278.312691" y="93.282823" style="stroke: #000000"/>
     <use xlink:href="#m075fc37b36" x="280.02414" y="92.943882" style="stroke: #000000"/>
     <use xlink:href="#m075fc37b36" x="281.882755" y="93.870924" style="stroke: #000000"/>
     <use xlink:href="#m075fc37b36" x="283.758716" y="95.984128" style="stroke: #000000"/>
     <use xlink:href="#m075fc37b36" x="285.482059" y="93.943026" style="stroke: #000000"/>
     <use xlink:href="#m075fc37b36" x="287.140241" y="92.577396" style="stroke: #000000"/>
     <use xlink:href="#m075fc37b36" x="288.633966" y="91.768248" style="stroke: #000000"/>
     <use xlink:href="#m075fc37b36" x="290.14052" y="91.771631" style="stroke: #000000"/>
     <use xlink:href="#m075fc37b36" x="291.623704" y="92.987412" style="stroke: #000000"/>
     <use xlink:href="#m075fc37b36" x="293.170326" y="94.07967" style="stroke: #000000"/>
     <use xlink:href="#m075fc37b36" x="294.412438" y="94.585779" style="stroke: #000000"/>
     <use xlink:href="#m075fc37b36" x="295.506155" y="93.168703" style="stroke: #000000"/>
     <use xlink:href="#m075fc37b36" x="296.506081" y="92.258363" style="stroke: #000000"/>
     <use xlink:href="#m075fc37b36" x="297.352375" y="91.170025" style="stroke: #000000"/>
     <use xlink:href="#m075fc37b36" x="298.092439" y="91.202686" style="stroke: #000000"/>
     <use xlink:href="#m075fc37b36" x="298.908321" y="91.495463" style="stroke: #000000"/>
     <use xlink:href="#m075fc37b36" x="299.7326" y="92.152157" style="stroke: #000000"/>
     <use xlink:href="#m075fc37b36" x="300.544594" y="93.241546" style="stroke: #000000"/>
     <use xlink:href="#m075fc37b36" x="301.292627" y="94.598347" style="stroke: #000000"/>
     <use xlink:href="#m075fc37b36" x="302.098664" y="92.959993" style="stroke: #000000"/>
     <use xlink:href="#m075fc37b36" x="304.379283" y="92.322623" style="stroke: #000000"/>
     <use xlink:href="#m075fc37b36" x="305.12118" y="91.294293" style="stroke: #000000"/>
     <use xlink:href="#m075fc37b36" x="305.922252" y="91.074604" style="stroke: #000000"/>
     <use xlink:href="#m075fc37b36" x="306.698578" y="90.546099" style="stroke: #000000"/>
     <use xlink:href="#m075fc37b36" x="307.468995" y="90.552291" style="stroke: #000000"/>
     <use xlink:href="#m075fc37b36" x="308.219833" y="91.08236" style="stroke: #000000"/>
     <use xlink:href="#m075fc37b36" x="308.944228" y="91.680665" style="stroke: #000000"/>
     <use xlink:href="#m075fc37b36" x="309.597082" y="92.731977" style="stroke: #000000"/>
     <use xlink:href="#m075fc37b36" x="310.212968" y="93.674428" style="stroke: #000000"/>
     <use xlink:href="#m075fc37b36" x="310.776956" y="93.115239" style="stroke: #000000"/>
     <use xlink:href="#m075fc37b36" x="311.301813" y="92.304349" style="stroke: #000000"/>
     <use xlink:href="#m075fc37b36" x="311.872688" y="91.269017" style="stroke: #000000"/>
     <use xlink:href="#m075fc37b36" x="312.497461" y="90.76257" style="stroke: #000000"/>
     <use xlink:href="#m075fc37b36" x="313.24614" y="90.101738" style="stroke: #000000"/>
     <use xlink:href="#m075fc37b36" x="313.932647" y="90.063219" style="stroke: #000000"/>
     <use xlink:href="#m075fc37b36" x="314.601667" y="89.928766" style="stroke: #000000"/>
     <use xlink:href="#m075fc37b36" x="315.232859" y="90.276467" style="stroke: #000000"/>
     <use xlink:href="#m075fc37b36" x="315.857365" y="90.711844" style="stroke: #000000"/>
     <use xlink:href="#m075fc37b36" x="316.465545" y="91.293121" style="stroke: #000000"/>
     <use xlink:href="#m075fc37b36" x="317.100036" y="91.938933" style="stroke: #000000"/>
     <use xlink:href="#m075fc37b36" x="317.687367" y="93.101246" style="stroke: #000000"/>
     <use xlink:href="#m075fc37b36" x="318.207949" y="93.266689" style="stroke: #000000"/>
     <use xlink:href="#m075fc37b36" x="318.682203" y="92.302852" style="stroke: #000000"/>
     <use xlink:href="#m075fc37b36" x="319.142681" y="91.561638" style="stroke: #000000"/>
     <use xlink:href="#m075fc37b36" x="319.617567" y="91.026746" style="stroke: #000000"/>
     <use xlink:href="#m075fc37b36" x="320.136249" y="90.482693" style="stroke: #000000"/>
     <use xlink:href="#m075fc37b36" x="320.691837" y="90.035294" style="stroke: #000000"/>
     <use xlink:href="#m075fc37b36" x="321.229237" y="89.833819" style="stroke: #000000"/>
     <use xlink:href="#m075fc37b36" x="321.737985" y="89.501613" style="stroke: #000000"/>
     <use xlink:href="#m075fc37b36" x="322.289674" y="89.631686" style="stroke: #000000"/>
     <use xlink:href="#m075fc37b36" x="322.833561" y="89.569968" style="stroke: #000000"/>
     <use xlink:href="#m075fc37b36" x="323.216738" y="89.996463" style="stroke: #000000"/>
     <use xlink:href="#m075fc37b36" x="323.604229" y="90.197582" style="stroke: #000000"/>
     <use xlink:href="#m075fc37b36" x="324.017294" y="90.675303" style="stroke: #000000"/>
     <use xlink:href="#m075fc37b36" x="324.410291" y="91.497013" style="stroke: #000000"/>
     <use xlink:href="#m075fc37b36" x="324.763326" y="92.087676" style="stroke: #000000"/>
     <use xlink:href="#m075fc37b36" x="325.100902" y="92.588985" style="stroke: #000000"/>
     <use xlink:href="#m075fc37b36" x="325.45264" y="92.147478" style="stroke: #000000"/>
     <use xlink:href="#m075fc37b36" x="325.789299" y="91.726941" style="stroke: #000000"/>
     <use xlink:href="#m075fc37b36" x="326.110407" y="91.207983" style="stroke: #000000"/>
     <use xlink:href="#m075fc37b36" x="326.432593" y="90.578477" style="stroke: #000000"/>
     <use xlink:href="#m075fc37b36" x="326.825771" y="90.113217" style="stroke: #000000"/>
     <use xlink:href="#m075fc37b36" x="327.179768" y="89.777043" style="stroke: #000000"/>
     <use xlink:href="#m075fc37b36" x="327.534884" y="89.390559" style="stroke: #000000"/>
     <use xlink:href="#m075fc37b36" x="327.890089" y="89.053555" style="stroke: #000000"/>
     <use xlink:href="#m075fc37b36" x="328.245641" y="89.037692" style="stroke: #000000"/>
     <use xlink:href="#m075fc37b36" x="328.595723" y="89.073978" style="stroke: #000000"/>
     <use xlink:href="#m075fc37b36" x="328.908179" y="88.997613" style="stroke: #000000"/>
     <use xlink:href="#m075fc37b36" x="329.186875" y="89.281849" style="stroke: #000000"/>
     <use xlink:href="#m075fc37b36" x="329.465067" y="89.453947" style="stroke: #000000"/>
     <use xlink:href="#m075fc37b36" x="329.737124" y="89.742895" style="stroke: #000000"/>
     <use xlink:href="#m075fc37b36" x="330.013171" y="90.241864" style="stroke: #000000"/>
    </g>
   </g>
   <g id="line2d_48">
    <path d="M 100.242708 44.443636 
L 133.935445 61.98435 
L 155.156521 77.760355 
L 169.884106 93.058076 
L 181.134759 100.392976 
L 190.81937 102.307801 
L 198.853145 92.908835 
L 206.158125 94.850504 
L 212.620607 100.410679 
L 218.762838 96.077845 
L 223.698531 100.435523 
L 228.717134 98.061384 
L 233.263675 98.935681 
L 237.800425 97.470951 
L 241.448778 100.178955 
L 244.615256 96.385933 
L 247.502691 96.56611 
L 249.800824 98.812959 
L 251.811949 95.054027 
L 253.742221 95.716806 
L 255.651945 95.168269 
L 257.423919 97.695244 
L 259.114214 95.556693 
L 264.846508 93.132977 
L 266.629233 94.676524 
L 268.281955 96.691931 
L 269.828268 96.036899 
L 271.312692 93.770646 
L 272.760104 93.254425 
L 274.075817 92.913607 
L 275.373188 93.738628 
L 276.584407 95.986659 
L 277.782008 93.874669 
L 278.931327 92.56141 
L 280.188876 91.733 
L 281.439162 91.802726 
L 282.584025 92.827333 
L 283.754826 94.128356 
L 284.821803 94.55339 
L 285.891867 93.209198 
L 287.020563 92.228634 
L 288.097179 91.180683 
L 289.135168 91.191648 
L 290.052996 91.49422 
L 290.94049 92.009045 
L 291.799462 93.119935 
L 292.667244 94.554616 
L 293.493452 92.951653 
L 294.310237 92.289593 
L 295.14874 91.217294 
L 295.926349 91.037784 
L 296.576917 90.508964 
L 297.2135 90.449197 
L 297.880445 91.059289 
L 298.529856 91.750765 
L 299.123775 92.708452 
L 299.660888 93.605907 
L 300.239136 93.035457 
L 300.758162 92.249257 
L 301.466259 91.295104 
L 302.007511 90.717749 
L 302.595008 90.044767 
L 303.152974 90.018105 
L 303.70789 89.890392 
L 304.268447 90.234116 
L 304.824507 90.614967 
L 305.314363 91.098749 
L 305.774143 91.768743 
L 306.221548 92.568564 
L 306.682886 93.189755 
L 307.031487 92.275883 
L 307.380225 91.473332 
L 307.729196 91.024581 
L 308.084906 90.384966 
L 308.424231 89.875519 
L 308.753563 89.737381 
L 309.093538 89.384534 
L 309.435327 89.499875 
L 309.781244 89.400878 
L 310.109451 89.858745 
L 310.442503 90.112998 
L 310.808313 90.542964 
L 311.129097 91.20046 
L 311.462303 92.164118 
L 311.78597 92.497297 
L 312.139138 91.980848 
L 312.462226 91.584654 
L 312.801865 91.140418 
L 313.122244 90.462586 
L 313.481034 89.935956 
L 313.809572 89.705676 
L 314.128317 89.231915 
L 314.458401 88.933614 
L 314.788038 88.880785 
L 315.121671 88.813746 
L 315.414539 88.797696 
L 315.710051 89.034488 
L 316.024943 89.154323 
L 316.321521 89.522656 
L 316.636685 89.815049 
" clip-path="url(#p7a94afaa6f)" style="fill: none; stroke-dasharray: 3.2,0.8,0.5,0.8; stroke-dashoffset: 0; stroke: #000000; stroke-width: 0.5"/>
    <g clip-path="url(#p7a94afaa6f)">
     <use xlink:href="#m075fc37b36" x="100.242708" y="44.443636" style="stroke: #000000"/>
     <use xlink:href="#m075fc37b36" x="133.935445" y="61.98435" style="stroke: #000000"/>
     <use xlink:href="#m075fc37b36" x="155.156521" y="77.760355" style="stroke: #000000"/>
     <use xlink:href="#m075fc37b36" x="169.884106" y="93.058076" style="stroke: #000000"/>
     <use xlink:href="#m075fc37b36" x="181.134759" y="100.392976" style="stroke: #000000"/>
     <use xlink:href="#m075fc37b36" x="190.81937" y="102.307801" style="stroke: #000000"/>
     <use xlink:href="#m075fc37b36" x="198.853145" y="92.908835" style="stroke: #000000"/>
     <use xlink:href="#m075fc37b36" x="206.158125" y="94.850504" style="stroke: #000000"/>
     <use xlink:href="#m075fc37b36" x="212.620607" y="100.410679" style="stroke: #000000"/>
     <use xlink:href="#m075fc37b36" x="218.762838" y="96.077845" style="stroke: #000000"/>
     <use xlink:href="#m075fc37b36" x="223.698531" y="100.435523" style="stroke: #000000"/>
     <use xlink:href="#m075fc37b36" x="228.717134" y="98.061384" style="stroke: #000000"/>
     <use xlink:href="#m075fc37b36" x="233.263675" y="98.935681" style="stroke: #000000"/>
     <use xlink:href="#m075fc37b36" x="237.800425" y="97.470951" style="stroke: #000000"/>
     <use xlink:href="#m075fc37b36" x="241.448778" y="100.178955" style="stroke: #000000"/>
     <use xlink:href="#m075fc37b36" x="244.615256" y="96.385933" style="stroke: #000000"/>
     <use xlink:href="#m075fc37b36" x="247.502691" y="96.56611" style="stroke: #000000"/>
     <use xlink:href="#m075fc37b36" x="249.800824" y="98.812959" style="stroke: #000000"/>
     <use xlink:href="#m075fc37b36" x="251.811949" y="95.054027" style="stroke: #000000"/>
     <use xlink:href="#m075fc37b36" x="253.742221" y="95.716806" style="stroke: #000000"/>
     <use xlink:href="#m075fc37b36" x="255.651945" y="95.168269" style="stroke: #000000"/>
     <use xlink:href="#m075fc37b36" x="257.423919" y="97.695244" style="stroke: #000000"/>
     <use xlink:href="#m075fc37b36" x="259.114214" y="95.556693" style="stroke: #000000"/>
     <use xlink:href="#m075fc37b36" x="264.846508" y="93.132977" style="stroke: #000000"/>
     <use xlink:href="#m075fc37b36" x="266.629233" y="94.676524" style="stroke: #000000"/>
     <use xlink:href="#m075fc37b36" x="268.281955" y="96.691931" style="stroke: #000000"/>
     <use xlink:href="#m075fc37b36" x="269.828268" y="96.036899" style="stroke: #000000"/>
     <use xlink:href="#m075fc37b36" x="271.312692" y="93.770646" style="stroke: #000000"/>
     <use xlink:href="#m075fc37b36" x="272.760104" y="93.254425" style="stroke: #000000"/>
     <use xlink:href="#m075fc37b36" x="274.075817" y="92.913607" style="stroke: #000000"/>
     <use xlink:href="#m075fc37b36" x="275.373188" y="93.738628" style="stroke: #000000"/>
     <use xlink:href="#m075fc37b36" x="276.584407" y="95.986659" style="stroke: #000000"/>
     <use xlink:href="#m075fc37b36" x="277.782008" y="93.874669" style="stroke: #000000"/>
     <use xlink:href="#m075fc37b36" x="278.931327" y="92.56141" style="stroke: #000000"/>
     <use xlink:href="#m075fc37b36" x="280.188876" y="91.733" style="stroke: #000000"/>
     <use xlink:href="#m075fc37b36" x="281.439162" y="91.802726" style="stroke: #000000"/>
     <use xlink:href="#m075fc37b36" x="282.584025" y="92.827333" style="stroke: #000000"/>
     <use xlink:href="#m075fc37b36" x="283.754826" y="94.128356" style="stroke: #000000"/>
     <use xlink:href="#m075fc37b36" x="284.821803" y="94.55339" style="stroke: #000000"/>
     <use xlink:href="#m075fc37b36" x="285.891867" y="93.209198" style="stroke: #000000"/>
     <use xlink:href="#m075fc37b36" x="287.020563" y="92.228634" style="stroke: #000000"/>
     <use xlink:href="#m075fc37b36" x="288.097179" y="91.180683" style="stroke: #000000"/>
     <use xlink:href="#m075fc37b36" x="289.135168" y="91.191648" style="stroke: #000000"/>
     <use xlink:href="#m075fc37b36" x="290.052996" y="91.49422" style="stroke: #000000"/>
     <use xlink:href="#m075fc37b36" x="290.94049" y="92.009045" style="stroke: #000000"/>
     <use xlink:href="#m075fc37b36" x="291.799462" y="93.119935" style="stroke: #000000"/>
     <use xlink:href="#m075fc37b36" x="292.667244" y="94.554616" style="stroke: #000000"/>
     <use xlink:href="#m075fc37b36" x="293.493452" y="92.951653" style="stroke: #000000"/>
     <use xlink:href="#m075fc37b36" x="294.310237" y="92.289593" style="stroke: #000000"/>
     <use xlink:href="#m075fc37b36" x="295.14874" y="91.217294" style="stroke: #000000"/>
     <use xlink:href="#m075fc37b36" x="295.926349" y="91.037784" style="stroke: #000000"/>
     <use xlink:href="#m075fc37b36" x="296.576917" y="90.508964" style="stroke: #000000"/>
     <use xlink:href="#m075fc37b36" x="297.2135" y="90.449197" style="stroke: #000000"/>
     <use xlink:href="#m075fc37b36" x="297.880445" y="91.059289" style="stroke: #000000"/>
     <use xlink:href="#m075fc37b36" x="298.529856" y="91.750765" style="stroke: #000000"/>
     <use xlink:href="#m075fc37b36" x="299.123775" y="92.708452" style="stroke: #000000"/>
     <use xlink:href="#m075fc37b36" x="299.660888" y="93.605907" style="stroke: #000000"/>
     <use xlink:href="#m075fc37b36" x="300.239136" y="93.035457" style="stroke: #000000"/>
     <use xlink:href="#m075fc37b36" x="300.758162" y="92.249257" style="stroke: #000000"/>
     <use xlink:href="#m075fc37b36" x="301.466259" y="91.295104" style="stroke: #000000"/>
     <use xlink:href="#m075fc37b36" x="302.007511" y="90.717749" style="stroke: #000000"/>
     <use xlink:href="#m075fc37b36" x="302.595008" y="90.044767" style="stroke: #000000"/>
     <use xlink:href="#m075fc37b36" x="303.152974" y="90.018105" style="stroke: #000000"/>
     <use xlink:href="#m075fc37b36" x="303.70789" y="89.890392" style="stroke: #000000"/>
     <use xlink:href="#m075fc37b36" x="304.268447" y="90.234116" style="stroke: #000000"/>
     <use xlink:href="#m075fc37b36" x="304.824507" y="90.614967" style="stroke: #000000"/>
     <use xlink:href="#m075fc37b36" x="305.314363" y="91.098749" style="stroke: #000000"/>
     <use xlink:href="#m075fc37b36" x="305.774143" y="91.768743" style="stroke: #000000"/>
     <use xlink:href="#m075fc37b36" x="306.221548" y="92.568564" style="stroke: #000000"/>
     <use xlink:href="#m075fc37b36" x="306.682886" y="93.189755" style="stroke: #000000"/>
     <use xlink:href="#m075fc37b36" x="307.031487" y="92.275883" style="stroke: #000000"/>
     <use xlink:href="#m075fc37b36" x="307.380225" y="91.473332" style="stroke: #000000"/>
     <use xlink:href="#m075fc37b36" x="307.729196" y="91.024581" style="stroke: #000000"/>
     <use xlink:href="#m075fc37b36" x="308.084906" y="90.384966" style="stroke: #000000"/>
     <use xlink:href="#m075fc37b36" x="308.424231" y="89.875519" style="stroke: #000000"/>
     <use xlink:href="#m075fc37b36" x="308.753563" y="89.737381" style="stroke: #000000"/>
     <use xlink:href="#m075fc37b36" x="309.093538" y="89.384534" style="stroke: #000000"/>
     <use xlink:href="#m075fc37b36" x="309.435327" y="89.499875" style="stroke: #000000"/>
     <use xlink:href="#m075fc37b36" x="309.781244" y="89.400878" style="stroke: #000000"/>
     <use xlink:href="#m075fc37b36" x="310.109451" y="89.858745" style="stroke: #000000"/>
     <use xlink:href="#m075fc37b36" x="310.442503" y="90.112998" style="stroke: #000000"/>
     <use xlink:href="#m075fc37b36" x="310.808313" y="90.542964" style="stroke: #000000"/>
     <use xlink:href="#m075fc37b36" x="311.129097" y="91.20046" style="stroke: #000000"/>
     <use xlink:href="#m075fc37b36" x="311.462303" y="92.164118" style="stroke: #000000"/>
     <use xlink:href="#m075fc37b36" x="311.78597" y="92.497297" style="stroke: #000000"/>
     <use xlink:href="#m075fc37b36" x="312.139138" y="91.980848" style="stroke: #000000"/>
     <use xlink:href="#m075fc37b36" x="312.462226" y="91.584654" style="stroke: #000000"/>
     <use xlink:href="#m075fc37b36" x="312.801865" y="91.140418" style="stroke: #000000"/>
     <use xlink:href="#m075fc37b36" x="313.122244" y="90.462586" style="stroke: #000000"/>
     <use xlink:href="#m075fc37b36" x="313.481034" y="89.935956" style="stroke: #000000"/>
     <use xlink:href="#m075fc37b36" x="313.809572" y="89.705676" style="stroke: #000000"/>
     <use xlink:href="#m075fc37b36" x="314.128317" y="89.231915" style="stroke: #000000"/>
     <use xlink:href="#m075fc37b36" x="314.458401" y="88.933614" style="stroke: #000000"/>
     <use xlink:href="#m075fc37b36" x="314.788038" y="88.880785" style="stroke: #000000"/>
     <use xlink:href="#m075fc37b36" x="315.121671" y="88.813746" style="stroke: #000000"/>
     <use xlink:href="#m075fc37b36" x="315.414539" y="88.797696" style="stroke: #000000"/>
     <use xlink:href="#m075fc37b36" x="315.710051" y="89.034488" style="stroke: #000000"/>
     <use xlink:href="#m075fc37b36" x="316.024943" y="89.154323" style="stroke: #000000"/>
     <use xlink:href="#m075fc37b36" x="316.321521" y="89.522656" style="stroke: #000000"/>
     <use xlink:href="#m075fc37b36" x="316.636685" y="89.815049" style="stroke: #000000"/>
    </g>
   </g>
   <g id="patch_3">
    <path d="M 54 252 
L 54 34.56 
" style="fill: none; stroke: #000000; stroke-width: 0.8; stroke-linejoin: miter; stroke-linecap: square"/>
   </g>
   <g id="patch_4">
    <path d="M 388.8 252 
L 388.8 34.56 
" style="fill: none; stroke: #000000; stroke-width: 0.8; stroke-linejoin: miter; stroke-linecap: square"/>
   </g>
   <g id="patch_5">
    <path d="M 54 252 
L 388.8 252 
" style="fill: none; stroke: #000000; stroke-width: 0.8; stroke-linejoin: miter; stroke-linecap: square"/>
   </g>
   <g id="patch_6">
    <path d="M 54 34.56 
L 388.8 34.56 
" style="fill: none; stroke: #000000; stroke-width: 0.8; stroke-linejoin: miter; stroke-linecap: square"/>
   </g>
   <g id="legend_1">
    <g id="patch_7">
     <path d="M 266.86 125.56 
L 383.9 125.56 
Q 385.3 125.56 385.3 124.16 
L 385.3 39.46 
Q 385.3 38.06 383.9 38.06 
L 266.86 38.06 
Q 265.46 38.06 265.46 39.46 
L 265.46 124.16 
Q 265.46 125.56 266.86 125.56 
z
" style="fill: #ffffff; fill-opacity: 0.6; stroke: #cccccc; stroke-linejoin: miter"/>
    </g>
    <g id="line2d_49">
     <path d="M 268.26 44.094219 
L 275.26 44.094219 
L 282.26 44.094219 
" style="fill: none; stroke: #000000; stroke-width: 0.5; stroke-linecap: square"/>
    </g>
    <g id="text_8">
     <!-- RM, $a=2^{11}$ -->
     <g transform="translate(287.86 46.544219)scale(0.07 -0.07)">
      <defs>
       <path id="DejaVuSans-52" d="M 2841 2188 
Q 3044 2119 3236 1894 
Q 3428 1669 3622 1275 
L 4263 0 
L 3584 0 
L 2988 1197 
Q 2756 1666 2539 1819 
Q 2322 1972 1947 1972 
L 1259 1972 
L 1259 0 
L 628 0 
L 628 4666 
L 2053 4666 
Q 2853 4666 3247 4331 
Q 3641 3997 3641 3322 
Q 3641 2881 3436 2590 
Q 3231 2300 2841 2188 
z
M 1259 4147 
L 1259 2491 
L 2053 2491 
Q 2509 2491 2742 2702 
Q 2975 2913 2975 3322 
Q 2975 3731 2742 3939 
Q 2509 4147 2053 4147 
L 1259 4147 
z
" transform="scale(0.015625)"/>
       <path id="DejaVuSans-4d" d="M 628 4666 
L 1569 4666 
L 2759 1491 
L 3956 4666 
L 4897 4666 
L 4897 0 
L 4281 0 
L 4281 4097 
L 3078 897 
L 2444 897 
L 1241 4097 
L 1241 0 
L 628 0 
L 628 4666 
z
" transform="scale(0.015625)"/>
       <path id="DejaVuSans-2c" d="M 750 794 
L 1409 794 
L 1409 256 
L 897 -744 
L 494 -744 
L 750 256 
L 750 794 
z
" transform="scale(0.015625)"/>
       <path id="DejaVuSans-Oblique-61" d="M 3438 1997 
L 3047 0 
L 2472 0 
L 2578 531 
Q 2325 219 2001 64 
Q 1678 -91 1281 -91 
Q 834 -91 548 182 
Q 263 456 263 884 
Q 263 1497 752 1853 
Q 1241 2209 2100 2209 
L 2900 2209 
L 2931 2363 
Q 2938 2388 2941 2417 
Q 2944 2447 2944 2509 
Q 2944 2788 2717 2942 
Q 2491 3097 2081 3097 
Q 1800 3097 1504 3025 
Q 1209 2953 897 2809 
L 997 3341 
Q 1322 3463 1633 3523 
Q 1944 3584 2234 3584 
Q 2853 3584 3176 3315 
Q 3500 3047 3500 2534 
Q 3500 2431 3484 2292 
Q 3469 2153 3438 1997 
z
M 2816 1759 
L 2241 1759 
Q 1534 1759 1195 1570 
Q 856 1381 856 984 
Q 856 709 1029 553 
Q 1203 397 1509 397 
Q 1978 397 2328 733 
Q 2678 1069 2791 1631 
L 2816 1759 
z
" transform="scale(0.015625)"/>
       <path id="DejaVuSans-3d" d="M 678 2906 
L 4684 2906 
L 4684 2381 
L 678 2381 
L 678 2906 
z
M 678 1631 
L 4684 1631 
L 4684 1100 
L 678 1100 
L 678 1631 
z
" transform="scale(0.015625)"/>
      </defs>
      <use xlink:href="#DejaVuSans-52" transform="translate(0 0.684375)"/>
      <use xlink:href="#DejaVuSans-4d" transform="translate(69.482422 0.684375)"/>
      <use xlink:href="#DejaVuSans-2c" transform="translate(155.761719 0.684375)"/>
      <use xlink:href="#DejaVuSans-20" transform="translate(187.548828 0.684375)"/>
      <use xlink:href="#DejaVuSans-Oblique-61" transform="translate(219.335938 0.684375)"/>
      <use xlink:href="#DejaVuSans-3d" transform="translate(300.097656 0.684375)"/>
      <use xlink:href="#DejaVuSans-32" transform="translate(403.369141 0.684375)"/>
      <use xlink:href="#DejaVuSans-31" transform="translate(467.949219 38.965625)scale(0.7)"/>
      <use xlink:href="#DejaVuSans-31" transform="translate(512.485352 38.965625)scale(0.7)"/>
     </g>
    </g>
    <g id="line2d_50">
     <path d="M 268.26 54.734219 
L 275.26 54.734219 
L 282.26 54.734219 
" style="fill: none; stroke-dasharray: 1.85,0.8; stroke-dashoffset: 0; stroke: #000000; stroke-width: 0.5"/>
    </g>
    <g id="text_9">
     <!-- RM, shift, $a=2^{11}$ -->
     <g transform="translate(287.86 57.184219)scale(0.07 -0.07)">
      <defs>
       <path id="DejaVuSans-66" d="M 2375 4863 
L 2375 4384 
L 1825 4384 
Q 1516 4384 1395 4259 
Q 1275 4134 1275 3809 
L 1275 3500 
L 2222 3500 
L 2222 3053 
L 1275 3053 
L 1275 0 
L 697 0 
L 697 3053 
L 147 3053 
L 147 3500 
L 697 3500 
L 697 3744 
Q 697 4328 969 4595 
Q 1241 4863 1831 4863 
L 2375 4863 
z
" transform="scale(0.015625)"/>
      </defs>
      <use xlink:href="#DejaVuSans-52" transform="translate(0 0.684375)"/>
      <use xlink:href="#DejaVuSans-4d" transform="translate(69.482422 0.684375)"/>
      <use xlink:href="#DejaVuSans-2c" transform="translate(155.761719 0.684375)"/>
      <use xlink:href="#DejaVuSans-20" transform="translate(187.548828 0.684375)"/>
      <use xlink:href="#DejaVuSans-73" transform="translate(219.335938 0.684375)"/>
      <use xlink:href="#DejaVuSans-68" transform="translate(271.435547 0.684375)"/>
      <use xlink:href="#DejaVuSans-69" transform="translate(334.814453 0.684375)"/>
      <use xlink:href="#DejaVuSans-66" transform="translate(362.597656 0.684375)"/>
      <use xlink:href="#DejaVuSans-74" transform="translate(397.802734 0.684375)"/>
      <use xlink:href="#DejaVuSans-2c" transform="translate(437.011719 0.684375)"/>
      <use xlink:href="#DejaVuSans-20" transform="translate(468.798828 0.684375)"/>
      <use xlink:href="#DejaVuSans-Oblique-61" transform="translate(500.585938 0.684375)"/>
      <use xlink:href="#DejaVuSans-3d" transform="translate(581.347656 0.684375)"/>
      <use xlink:href="#DejaVuSans-32" transform="translate(684.619141 0.684375)"/>
      <use xlink:href="#DejaVuSans-31" transform="translate(749.199219 38.965625)scale(0.7)"/>
      <use xlink:href="#DejaVuSans-31" transform="translate(793.735352 38.965625)scale(0.7)"/>
     </g>
    </g>
    <g id="line2d_51">
     <path d="M 268.26 65.374219 
L 275.26 65.374219 
L 282.26 65.374219 
" style="fill: none; stroke-dasharray: 0.5,0.825; stroke-dashoffset: 0; stroke: #000000; stroke-width: 0.5"/>
    </g>
    <g id="text_10">
     <!-- RM, softmax, $a=2^{11}$ -->
     <g transform="translate(287.86 67.824219)scale(0.07 -0.07)">
      <defs>
       <path id="DejaVuSans-78" d="M 3513 3500 
L 2247 1797 
L 3578 0 
L 2900 0 
L 1881 1375 
L 863 0 
L 184 0 
L 1544 1831 
L 300 3500 
L 978 3500 
L 1906 2253 
L 2834 3500 
L 3513 3500 
z
" transform="scale(0.015625)"/>
      </defs>
      <use xlink:href="#DejaVuSans-52" transform="translate(0 0.684375)"/>
      <use xlink:href="#DejaVuSans-4d" transform="translate(69.482422 0.684375)"/>
      <use xlink:href="#DejaVuSans-2c" transform="translate(155.761719 0.684375)"/>
      <use xlink:href="#DejaVuSans-20" transform="translate(187.548828 0.684375)"/>
      <use xlink:href="#DejaVuSans-73" transform="translate(219.335938 0.684375)"/>
      <use xlink:href="#DejaVuSans-6f" transform="translate(271.435547 0.684375)"/>
      <use xlink:href="#DejaVuSans-66" transform="translate(332.617188 0.684375)"/>
      <use xlink:href="#DejaVuSans-74" transform="translate(367.822266 0.684375)"/>
      <use xlink:href="#DejaVuSans-6d" transform="translate(407.03125 0.684375)"/>
      <use xlink:href="#DejaVuSans-61" transform="translate(504.443359 0.684375)"/>
      <use xlink:href="#DejaVuSans-78" transform="translate(565.722656 0.684375)"/>
      <use xlink:href="#DejaVuSans-2c" transform="translate(624.902344 0.684375)"/>
      <use xlink:href="#DejaVuSans-20" transform="translate(656.689453 0.684375)"/>
      <use xlink:href="#DejaVuSans-Oblique-61" transform="translate(688.476562 0.684375)"/>
      <use xlink:href="#DejaVuSans-3d" transform="translate(769.238281 0.684375)"/>
      <use xlink:href="#DejaVuSans-32" transform="translate(872.509766 0.684375)"/>
      <use xlink:href="#DejaVuSans-31" transform="translate(937.089844 38.965625)scale(0.7)"/>
      <use xlink:href="#DejaVuSans-31" transform="translate(981.625977 38.965625)scale(0.7)"/>
     </g>
    </g>
    <g id="line2d_52">
     <path d="M 268.26 76.014219 
L 275.26 76.014219 
L 282.26 76.014219 
" style="fill: none; stroke-dasharray: 3.2,0.8,0.5,0.8; stroke-dashoffset: 0; stroke: #000000; stroke-width: 0.5"/>
    </g>
    <g id="text_11">
     <!-- RM, softmax, shift, $a=2^{11}$ -->
     <g transform="translate(287.86 78.464219)scale(0.07 -0.07)">
      <use xlink:href="#DejaVuSans-52" transform="translate(0 0.684375)"/>
      <use xlink:href="#DejaVuSans-4d" transform="translate(69.482422 0.684375)"/>
      <use xlink:href="#DejaVuSans-2c" transform="translate(155.761719 0.684375)"/>
      <use xlink:href="#DejaVuSans-20" transform="translate(187.548828 0.684375)"/>
      <use xlink:href="#DejaVuSans-73" transform="translate(219.335938 0.684375)"/>
      <use xlink:href="#DejaVuSans-6f" transform="translate(271.435547 0.684375)"/>
      <use xlink:href="#DejaVuSans-66" transform="translate(332.617188 0.684375)"/>
      <use xlink:href="#DejaVuSans-74" transform="translate(367.822266 0.684375)"/>
      <use xlink:href="#DejaVuSans-6d" transform="translate(407.03125 0.684375)"/>
      <use xlink:href="#DejaVuSans-61" transform="translate(504.443359 0.684375)"/>
      <use xlink:href="#DejaVuSans-78" transform="translate(565.722656 0.684375)"/>
      <use xlink:href="#DejaVuSans-2c" transform="translate(624.902344 0.684375)"/>
      <use xlink:href="#DejaVuSans-20" transform="translate(656.689453 0.684375)"/>
      <use xlink:href="#DejaVuSans-73" transform="translate(688.476562 0.684375)"/>
      <use xlink:href="#DejaVuSans-68" transform="translate(740.576172 0.684375)"/>
      <use xlink:href="#DejaVuSans-69" transform="translate(803.955078 0.684375)"/>
      <use xlink:href="#DejaVuSans-66" transform="translate(831.738281 0.684375)"/>
      <use xlink:href="#DejaVuSans-74" transform="translate(866.943359 0.684375)"/>
      <use xlink:href="#DejaVuSans-2c" transform="translate(906.152344 0.684375)"/>
      <use xlink:href="#DejaVuSans-20" transform="translate(937.939453 0.684375)"/>
      <use xlink:href="#DejaVuSans-Oblique-61" transform="translate(969.726562 0.684375)"/>
      <use xlink:href="#DejaVuSans-3d" transform="translate(1050.488281 0.684375)"/>
      <use xlink:href="#DejaVuSans-32" transform="translate(1153.759766 0.684375)"/>
      <use xlink:href="#DejaVuSans-31" transform="translate(1218.339844 38.965625)scale(0.7)"/>
      <use xlink:href="#DejaVuSans-31" transform="translate(1262.875977 38.965625)scale(0.7)"/>
     </g>
    </g>
    <g id="line2d_53">
     <path d="M 268.26 86.724219 
L 275.26 86.724219 
L 282.26 86.724219 
" style="fill: none; stroke: #000000; stroke-width: 0.5; stroke-linecap: square"/>
     <g>
      <use xlink:href="#m075fc37b36" x="275.26" y="86.724219" style="stroke: #000000"/>
     </g>
    </g>
    <g id="text_12">
     <!-- CFR, $a=2^{12}$ -->
     <g transform="translate(287.86 89.174219)scale(0.07 -0.07)">
      <defs>
       <path id="DejaVuSans-46" d="M 628 4666 
L 3309 4666 
L 3309 4134 
L 1259 4134 
L 1259 2759 
L 3109 2759 
L 3109 2228 
L 1259 2228 
L 1259 0 
L 628 0 
L 628 4666 
z
" transform="scale(0.015625)"/>
      </defs>
      <use xlink:href="#DejaVuSans-43" transform="translate(0 0.765625)"/>
      <use xlink:href="#DejaVuSans-46" transform="translate(69.824219 0.765625)"/>
      <use xlink:href="#DejaVuSans-52" transform="translate(127.34375 0.765625)"/>
      <use xlink:href="#DejaVuSans-2c" transform="translate(196.826172 0.765625)"/>
      <use xlink:href="#DejaVuSans-20" transform="translate(228.613281 0.765625)"/>
      <use xlink:href="#DejaVuSans-Oblique-61" transform="translate(260.400391 0.765625)"/>
      <use xlink:href="#DejaVuSans-3d" transform="translate(341.162109 0.765625)"/>
      <use xlink:href="#DejaVuSans-32" transform="translate(444.433594 0.765625)"/>
      <use xlink:href="#DejaVuSans-31" transform="translate(509.013672 39.046875)scale(0.7)"/>
      <use xlink:href="#DejaVuSans-32" transform="translate(553.549805 39.046875)scale(0.7)"/>
     </g>
    </g>
    <g id="line2d_54">
     <path d="M 268.26 97.434219 
L 275.26 97.434219 
L 282.26 97.434219 
" style="fill: none; stroke-dasharray: 1.85,0.8; stroke-dashoffset: 0; stroke: #000000; stroke-width: 0.5"/>
     <g>
      <use xlink:href="#m075fc37b36" x="275.26" y="97.434219" style="stroke: #000000"/>
     </g>
    </g>
    <g id="text_13">
     <!-- CFR, shift, $a=2^{12}$ -->
     <g transform="translate(287.86 99.884219)scale(0.07 -0.07)">
      <use xlink:href="#DejaVuSans-43" transform="translate(0 0.765625)"/>
      <use xlink:href="#DejaVuSans-46" transform="translate(69.824219 0.765625)"/>
      <use xlink:href="#DejaVuSans-52" transform="translate(127.34375 0.765625)"/>
      <use xlink:href="#DejaVuSans-2c" transform="translate(196.826172 0.765625)"/>
      <use xlink:href="#DejaVuSans-20" transform="translate(228.613281 0.765625)"/>
      <use xlink:href="#DejaVuSans-73" transform="translate(260.400391 0.765625)"/>
      <use xlink:href="#DejaVuSans-68" transform="translate(312.5 0.765625)"/>
      <use xlink:href="#DejaVuSans-69" transform="translate(375.878906 0.765625)"/>
      <use xlink:href="#DejaVuSans-66" transform="translate(403.662109 0.765625)"/>
      <use xlink:href="#DejaVuSans-74" transform="translate(438.867188 0.765625)"/>
      <use xlink:href="#DejaVuSans-2c" transform="translate(478.076172 0.765625)"/>
      <use xlink:href="#DejaVuSans-20" transform="translate(509.863281 0.765625)"/>
      <use xlink:href="#DejaVuSans-Oblique-61" transform="translate(541.650391 0.765625)"/>
      <use xlink:href="#DejaVuSans-3d" transform="translate(622.412109 0.765625)"/>
      <use xlink:href="#DejaVuSans-32" transform="translate(725.683594 0.765625)"/>
      <use xlink:href="#DejaVuSans-31" transform="translate(790.263672 39.046875)scale(0.7)"/>
      <use xlink:href="#DejaVuSans-32" transform="translate(834.799805 39.046875)scale(0.7)"/>
     </g>
    </g>
    <g id="line2d_55">
     <path d="M 268.26 108.144219 
L 275.26 108.144219 
L 282.26 108.144219 
" style="fill: none; stroke-dasharray: 0.5,0.825; stroke-dashoffset: 0; stroke: #000000; stroke-width: 0.5"/>
     <g>
      <use xlink:href="#m075fc37b36" x="275.26" y="108.144219" style="stroke: #000000"/>
     </g>
    </g>
    <g id="text_14">
     <!-- CFR, softmax, $a=2^{12}$ -->
     <g transform="translate(287.86 110.594219)scale(0.07 -0.07)">
      <use xlink:href="#DejaVuSans-43" transform="translate(0 0.765625)"/>
      <use xlink:href="#DejaVuSans-46" transform="translate(69.824219 0.765625)"/>
      <use xlink:href="#DejaVuSans-52" transform="translate(127.34375 0.765625)"/>
      <use xlink:href="#DejaVuSans-2c" transform="translate(196.826172 0.765625)"/>
      <use xlink:href="#DejaVuSans-20" transform="translate(228.613281 0.765625)"/>
      <use xlink:href="#DejaVuSans-73" transform="translate(260.400391 0.765625)"/>
      <use xlink:href="#DejaVuSans-6f" transform="translate(312.5 0.765625)"/>
      <use xlink:href="#DejaVuSans-66" transform="translate(373.681641 0.765625)"/>
      <use xlink:href="#DejaVuSans-74" transform="translate(408.886719 0.765625)"/>
      <use xlink:href="#DejaVuSans-6d" transform="translate(448.095703 0.765625)"/>
      <use xlink:href="#DejaVuSans-61" transform="translate(545.507812 0.765625)"/>
      <use xlink:href="#DejaVuSans-78" transform="translate(606.787109 0.765625)"/>
      <use xlink:href="#DejaVuSans-2c" transform="translate(665.966797 0.765625)"/>
      <use xlink:href="#DejaVuSans-20" transform="translate(697.753906 0.765625)"/>
      <use xlink:href="#DejaVuSans-Oblique-61" transform="translate(729.541016 0.765625)"/>
      <use xlink:href="#DejaVuSans-3d" transform="translate(810.302734 0.765625)"/>
      <use xlink:href="#DejaVuSans-32" transform="translate(913.574219 0.765625)"/>
      <use xlink:href="#DejaVuSans-31" transform="translate(978.154297 39.046875)scale(0.7)"/>
      <use xlink:href="#DejaVuSans-32" transform="translate(1022.69043 39.046875)scale(0.7)"/>
     </g>
    </g>
    <g id="line2d_56">
     <path d="M 268.26 118.854219 
L 275.26 118.854219 
L 282.26 118.854219 
" style="fill: none; stroke-dasharray: 3.2,0.8,0.5,0.8; stroke-dashoffset: 0; stroke: #000000; stroke-width: 0.5"/>
     <g>
      <use xlink:href="#m075fc37b36" x="275.26" y="118.854219" style="stroke: #000000"/>
     </g>
    </g>
    <g id="text_15">
     <!-- CFR, softmax, shift, $a=2^{12}$ -->
     <g transform="translate(287.86 121.304219)scale(0.07 -0.07)">
      <use xlink:href="#DejaVuSans-43" transform="translate(0 0.765625)"/>
      <use xlink:href="#DejaVuSans-46" transform="translate(69.824219 0.765625)"/>
      <use xlink:href="#DejaVuSans-52" transform="translate(127.34375 0.765625)"/>
      <use xlink:href="#DejaVuSans-2c" transform="translate(196.826172 0.765625)"/>
      <use xlink:href="#DejaVuSans-20" transform="translate(228.613281 0.765625)"/>
      <use xlink:href="#DejaVuSans-73" transform="translate(260.400391 0.765625)"/>
      <use xlink:href="#DejaVuSans-6f" transform="translate(312.5 0.765625)"/>
      <use xlink:href="#DejaVuSans-66" transform="translate(373.681641 0.765625)"/>
      <use xlink:href="#DejaVuSans-74" transform="translate(408.886719 0.765625)"/>
      <use xlink:href="#DejaVuSans-6d" transform="translate(448.095703 0.765625)"/>
      <use xlink:href="#DejaVuSans-61" transform="translate(545.507812 0.765625)"/>
      <use xlink:href="#DejaVuSans-78" transform="translate(606.787109 0.765625)"/>
      <use xlink:href="#DejaVuSans-2c" transform="translate(665.966797 0.765625)"/>
      <use xlink:href="#DejaVuSans-20" transform="translate(697.753906 0.765625)"/>
      <use xlink:href="#DejaVuSans-73" transform="translate(729.541016 0.765625)"/>
      <use xlink:href="#DejaVuSans-68" transform="translate(781.640625 0.765625)"/>
      <use xlink:href="#DejaVuSans-69" transform="translate(845.019531 0.765625)"/>
      <use xlink:href="#DejaVuSans-66" transform="translate(872.802734 0.765625)"/>
      <use xlink:href="#DejaVuSans-74" transform="translate(908.007812 0.765625)"/>
      <use xlink:href="#DejaVuSans-2c" transform="translate(947.216797 0.765625)"/>
      <use xlink:href="#DejaVuSans-20" transform="translate(979.003906 0.765625)"/>
      <use xlink:href="#DejaVuSans-Oblique-61" transform="translate(1010.791016 0.765625)"/>
      <use xlink:href="#DejaVuSans-3d" transform="translate(1091.552734 0.765625)"/>
      <use xlink:href="#DejaVuSans-32" transform="translate(1194.824219 0.765625)"/>
      <use xlink:href="#DejaVuSans-31" transform="translate(1259.404297 39.046875)scale(0.7)"/>
      <use xlink:href="#DejaVuSans-32" transform="translate(1303.94043 39.046875)scale(0.7)"/>
     </g>
    </g>
   </g>
  </g>
 </g>
 <defs>
  <clipPath id="p7a94afaa6f">
   <rect x="54" y="34.56" width="334.8" height="217.44"/>
  </clipPath>
 </defs>
</svg>
