<?xml version="1.0" encoding="utf-8" standalone="no"?>
<!DOCTYPE svg PUBLIC "-//W3C//DTD SVG 1.1//EN"
  "http://www.w3.org/Graphics/SVG/1.1/DTD/svg11.dtd">
<svg xmlns:xlink="http://www.w3.org/1999/xlink" width="432pt" height="288pt" viewBox="0 0 432 288" xmlns="http://www.w3.org/2000/svg" version="1.1">
 <metadata>
  <rdf:RDF xmlns:dc="http://purl.org/dc/elements/1.1/" xmlns:cc="http://creativecommons.org/ns#" xmlns:rdf="http://www.w3.org/1999/02/22-rdf-syntax-ns#">
   <cc:Work>
    <dc:type rdf:resource="http://purl.org/dc/dcmitype/StillImage"/>
    <dc:date>2023-04-17T12:49:39.965189</dc:date>
    <dc:format>image/svg+xml</dc:format>
    <dc:creator>
     <cc:Agent>
      <dc:title>Matplotlib v3.5.1, https://matplotlib.org/</dc:title>
     </cc:Agent>
    </dc:creator>
   </cc:Work>
  </rdf:RDF>
 </metadata>
 <defs>
  <style type="text/css">*{stroke-linejoin: round; stroke-linecap: butt}</style>
 </defs>
 <g id="figure_1">
  <g id="patch_1">
   <path d="M 0 288 
L 432 288 
L 432 0 
L 0 0 
L 0 288 
z
" style="fill: none"/>
  </g>
  <g id="axes_1">
   <g id="patch_2">
    <path d="M 54 252 
L 388.8 252 
L 388.8 34.56 
L 54 34.56 
z
" style="fill: #ffffff"/>
   </g>
   <g id="matplotlib.axis_1">
    <g id="xtick_1">
     <g id="line2d_1">
      <defs>
       <path id="m3090e2fbc1" d="M 0 0 
L 0 3.5 
" style="stroke: #000000; stroke-width: 0.8"/>
      </defs>
      <g>
       <use xlink:href="#m3090e2fbc1" x="66.344233" y="252" style="stroke: #000000; stroke-width: 0.8"/>
      </g>
     </g>
     <g id="text_1">
      <!-- 0 -->
      <g transform="translate(63.162983 266.598437)scale(0.1 -0.1)">
       <defs>
        <path id="DejaVuSans-30" d="M 2034 4250 
Q 1547 4250 1301 3770 
Q 1056 3291 1056 2328 
Q 1056 1369 1301 889 
Q 1547 409 2034 409 
Q 2525 409 2770 889 
Q 3016 1369 3016 2328 
Q 3016 3291 2770 3770 
Q 2525 4250 2034 4250 
z
M 2034 4750 
Q 2819 4750 3233 4129 
Q 3647 3509 3647 2328 
Q 3647 1150 3233 529 
Q 2819 -91 2034 -91 
Q 1250 -91 836 529 
Q 422 1150 422 2328 
Q 422 3509 836 4129 
Q 1250 4750 2034 4750 
z
" transform="scale(0.015625)"/>
       </defs>
       <use xlink:href="#DejaVuSans-30"/>
      </g>
     </g>
    </g>
    <g id="xtick_2">
     <g id="line2d_2">
      <g>
       <use xlink:href="#m3090e2fbc1" x="134.391547" y="252" style="stroke: #000000; stroke-width: 0.8"/>
      </g>
     </g>
     <g id="text_2">
      <!-- 100 -->
      <g transform="translate(124.847797 266.598437)scale(0.1 -0.1)">
       <defs>
        <path id="DejaVuSans-31" d="M 794 531 
L 1825 531 
L 1825 4091 
L 703 3866 
L 703 4441 
L 1819 4666 
L 2450 4666 
L 2450 531 
L 3481 531 
L 3481 0 
L 794 0 
L 794 531 
z
" transform="scale(0.015625)"/>
       </defs>
       <use xlink:href="#DejaVuSans-31"/>
       <use xlink:href="#DejaVuSans-30" x="63.623047"/>
       <use xlink:href="#DejaVuSans-30" x="127.246094"/>
      </g>
     </g>
    </g>
    <g id="xtick_3">
     <g id="line2d_3">
      <g>
       <use xlink:href="#m3090e2fbc1" x="202.438862" y="252" style="stroke: #000000; stroke-width: 0.8"/>
      </g>
     </g>
     <g id="text_3">
      <!-- 200 -->
      <g transform="translate(192.895112 266.598437)scale(0.1 -0.1)">
       <defs>
        <path id="DejaVuSans-32" d="M 1228 531 
L 3431 531 
L 3431 0 
L 469 0 
L 469 531 
Q 828 903 1448 1529 
Q 2069 2156 2228 2338 
Q 2531 2678 2651 2914 
Q 2772 3150 2772 3378 
Q 2772 3750 2511 3984 
Q 2250 4219 1831 4219 
Q 1534 4219 1204 4116 
Q 875 4013 500 3803 
L 500 4441 
Q 881 4594 1212 4672 
Q 1544 4750 1819 4750 
Q 2544 4750 2975 4387 
Q 3406 4025 3406 3419 
Q 3406 3131 3298 2873 
Q 3191 2616 2906 2266 
Q 2828 2175 2409 1742 
Q 1991 1309 1228 531 
z
" transform="scale(0.015625)"/>
       </defs>
       <use xlink:href="#DejaVuSans-32"/>
       <use xlink:href="#DejaVuSans-30" x="63.623047"/>
       <use xlink:href="#DejaVuSans-30" x="127.246094"/>
      </g>
     </g>
    </g>
    <g id="xtick_4">
     <g id="line2d_4">
      <g>
       <use xlink:href="#m3090e2fbc1" x="270.486176" y="252" style="stroke: #000000; stroke-width: 0.8"/>
      </g>
     </g>
     <g id="text_4">
      <!-- 300 -->
      <g transform="translate(260.942426 266.598437)scale(0.1 -0.1)">
       <defs>
        <path id="DejaVuSans-33" d="M 2597 2516 
Q 3050 2419 3304 2112 
Q 3559 1806 3559 1356 
Q 3559 666 3084 287 
Q 2609 -91 1734 -91 
Q 1441 -91 1130 -33 
Q 819 25 488 141 
L 488 750 
Q 750 597 1062 519 
Q 1375 441 1716 441 
Q 2309 441 2620 675 
Q 2931 909 2931 1356 
Q 2931 1769 2642 2001 
Q 2353 2234 1838 2234 
L 1294 2234 
L 1294 2753 
L 1863 2753 
Q 2328 2753 2575 2939 
Q 2822 3125 2822 3475 
Q 2822 3834 2567 4026 
Q 2313 4219 1838 4219 
Q 1578 4219 1281 4162 
Q 984 4106 628 3988 
L 628 4550 
Q 988 4650 1302 4700 
Q 1616 4750 1894 4750 
Q 2613 4750 3031 4423 
Q 3450 4097 3450 3541 
Q 3450 3153 3228 2886 
Q 3006 2619 2597 2516 
z
" transform="scale(0.015625)"/>
       </defs>
       <use xlink:href="#DejaVuSans-33"/>
       <use xlink:href="#DejaVuSans-30" x="63.623047"/>
       <use xlink:href="#DejaVuSans-30" x="127.246094"/>
      </g>
     </g>
    </g>
    <g id="xtick_5">
     <g id="line2d_5">
      <g>
       <use xlink:href="#m3090e2fbc1" x="338.533491" y="252" style="stroke: #000000; stroke-width: 0.8"/>
      </g>
     </g>
     <g id="text_5">
      <!-- 400 -->
      <g transform="translate(328.989741 266.598437)scale(0.1 -0.1)">
       <defs>
        <path id="DejaVuSans-34" d="M 2419 4116 
L 825 1625 
L 2419 1625 
L 2419 4116 
z
M 2253 4666 
L 3047 4666 
L 3047 1625 
L 3713 1625 
L 3713 1100 
L 3047 1100 
L 3047 0 
L 2419 0 
L 2419 1100 
L 313 1100 
L 313 1709 
L 2253 4666 
z
" transform="scale(0.015625)"/>
       </defs>
       <use xlink:href="#DejaVuSans-34"/>
       <use xlink:href="#DejaVuSans-30" x="63.623047"/>
       <use xlink:href="#DejaVuSans-30" x="127.246094"/>
      </g>
     </g>
    </g>
    <g id="text_6">
     <!-- time (s) -->
     <g transform="translate(202.008594 280.276563)scale(0.1 -0.1)">
      <defs>
       <path id="DejaVuSans-74" d="M 1172 4494 
L 1172 3500 
L 2356 3500 
L 2356 3053 
L 1172 3053 
L 1172 1153 
Q 1172 725 1289 603 
Q 1406 481 1766 481 
L 2356 481 
L 2356 0 
L 1766 0 
Q 1100 0 847 248 
Q 594 497 594 1153 
L 594 3053 
L 172 3053 
L 172 3500 
L 594 3500 
L 594 4494 
L 1172 4494 
z
" transform="scale(0.015625)"/>
       <path id="DejaVuSans-69" d="M 603 3500 
L 1178 3500 
L 1178 0 
L 603 0 
L 603 3500 
z
M 603 4863 
L 1178 4863 
L 1178 4134 
L 603 4134 
L 603 4863 
z
" transform="scale(0.015625)"/>
       <path id="DejaVuSans-6d" d="M 3328 2828 
Q 3544 3216 3844 3400 
Q 4144 3584 4550 3584 
Q 5097 3584 5394 3201 
Q 5691 2819 5691 2113 
L 5691 0 
L 5113 0 
L 5113 2094 
Q 5113 2597 4934 2840 
Q 4756 3084 4391 3084 
Q 3944 3084 3684 2787 
Q 3425 2491 3425 1978 
L 3425 0 
L 2847 0 
L 2847 2094 
Q 2847 2600 2669 2842 
Q 2491 3084 2119 3084 
Q 1678 3084 1418 2786 
Q 1159 2488 1159 1978 
L 1159 0 
L 581 0 
L 581 3500 
L 1159 3500 
L 1159 2956 
Q 1356 3278 1631 3431 
Q 1906 3584 2284 3584 
Q 2666 3584 2933 3390 
Q 3200 3197 3328 2828 
z
" transform="scale(0.015625)"/>
       <path id="DejaVuSans-65" d="M 3597 1894 
L 3597 1613 
L 953 1613 
Q 991 1019 1311 708 
Q 1631 397 2203 397 
Q 2534 397 2845 478 
Q 3156 559 3463 722 
L 3463 178 
Q 3153 47 2828 -22 
Q 2503 -91 2169 -91 
Q 1331 -91 842 396 
Q 353 884 353 1716 
Q 353 2575 817 3079 
Q 1281 3584 2069 3584 
Q 2775 3584 3186 3129 
Q 3597 2675 3597 1894 
z
M 3022 2063 
Q 3016 2534 2758 2815 
Q 2500 3097 2075 3097 
Q 1594 3097 1305 2825 
Q 1016 2553 972 2059 
L 3022 2063 
z
" transform="scale(0.015625)"/>
       <path id="DejaVuSans-20" transform="scale(0.015625)"/>
       <path id="DejaVuSans-28" d="M 1984 4856 
Q 1566 4138 1362 3434 
Q 1159 2731 1159 2009 
Q 1159 1288 1364 580 
Q 1569 -128 1984 -844 
L 1484 -844 
Q 1016 -109 783 600 
Q 550 1309 550 2009 
Q 550 2706 781 3412 
Q 1013 4119 1484 4856 
L 1984 4856 
z
" transform="scale(0.015625)"/>
       <path id="DejaVuSans-73" d="M 2834 3397 
L 2834 2853 
Q 2591 2978 2328 3040 
Q 2066 3103 1784 3103 
Q 1356 3103 1142 2972 
Q 928 2841 928 2578 
Q 928 2378 1081 2264 
Q 1234 2150 1697 2047 
L 1894 2003 
Q 2506 1872 2764 1633 
Q 3022 1394 3022 966 
Q 3022 478 2636 193 
Q 2250 -91 1575 -91 
Q 1294 -91 989 -36 
Q 684 19 347 128 
L 347 722 
Q 666 556 975 473 
Q 1284 391 1588 391 
Q 1994 391 2212 530 
Q 2431 669 2431 922 
Q 2431 1156 2273 1281 
Q 2116 1406 1581 1522 
L 1381 1569 
Q 847 1681 609 1914 
Q 372 2147 372 2553 
Q 372 3047 722 3315 
Q 1072 3584 1716 3584 
Q 2034 3584 2315 3537 
Q 2597 3491 2834 3397 
z
" transform="scale(0.015625)"/>
       <path id="DejaVuSans-29" d="M 513 4856 
L 1013 4856 
Q 1481 4119 1714 3412 
Q 1947 2706 1947 2009 
Q 1947 1309 1714 600 
Q 1481 -109 1013 -844 
L 513 -844 
Q 928 -128 1133 580 
Q 1338 1288 1338 2009 
Q 1338 2731 1133 3434 
Q 928 4138 513 4856 
z
" transform="scale(0.015625)"/>
      </defs>
      <use xlink:href="#DejaVuSans-74"/>
      <use xlink:href="#DejaVuSans-69" x="39.208984"/>
      <use xlink:href="#DejaVuSans-6d" x="66.992188"/>
      <use xlink:href="#DejaVuSans-65" x="164.404297"/>
      <use xlink:href="#DejaVuSans-20" x="225.927734"/>
      <use xlink:href="#DejaVuSans-28" x="257.714844"/>
      <use xlink:href="#DejaVuSans-73" x="296.728516"/>
      <use xlink:href="#DejaVuSans-29" x="348.828125"/>
     </g>
    </g>
   </g>
   <g id="matplotlib.axis_2">
    <g id="ytick_1">
     <g id="line2d_6">
      <defs>
       <path id="md753d9a7a2" d="M 0 0 
L -3.5 0 
" style="stroke: #000000; stroke-width: 0.8"/>
      </defs>
      <g>
       <use xlink:href="#md753d9a7a2" x="54" y="136.391363" style="stroke: #000000; stroke-width: 0.8"/>
      </g>
     </g>
     <g id="text_7">
      <!-- $\mathdefault{10^{-3}}$ -->
      <g transform="translate(23.5 140.190582)scale(0.1 -0.1)">
       <defs>
        <path id="DejaVuSans-2212" d="M 678 2272 
L 4684 2272 
L 4684 1741 
L 678 1741 
L 678 2272 
z
" transform="scale(0.015625)"/>
       </defs>
       <use xlink:href="#DejaVuSans-31" transform="translate(0 0.765625)"/>
       <use xlink:href="#DejaVuSans-30" transform="translate(63.623047 0.765625)"/>
       <use xlink:href="#DejaVuSans-2212" transform="translate(128.203125 39.046875)scale(0.7)"/>
       <use xlink:href="#DejaVuSans-33" transform="translate(186.855469 39.046875)scale(0.7)"/>
      </g>
     </g>
    </g>
    <g id="ytick_2">
     <g id="line2d_7">
      <defs>
       <path id="mb91dda1a66" d="M 0 0 
L -2 0 
" style="stroke: #000000; stroke-width: 0.6"/>
      </defs>
      <g>
       <use xlink:href="#mb91dda1a66" x="54" y="241.993199" style="stroke: #000000; stroke-width: 0.6"/>
      </g>
     </g>
    </g>
    <g id="ytick_3">
     <g id="line2d_8">
      <g>
       <use xlink:href="#mb91dda1a66" x="54" y="216.760275" style="stroke: #000000; stroke-width: 0.6"/>
      </g>
     </g>
    </g>
    <g id="ytick_4">
     <g id="line2d_9">
      <g>
       <use xlink:href="#mb91dda1a66" x="54" y="197.188098" style="stroke: #000000; stroke-width: 0.6"/>
      </g>
     </g>
    </g>
    <g id="ytick_5">
     <g id="line2d_10">
      <g>
       <use xlink:href="#mb91dda1a66" x="54" y="181.196465" style="stroke: #000000; stroke-width: 0.6"/>
      </g>
     </g>
    </g>
    <g id="ytick_6">
     <g id="line2d_11">
      <g>
       <use xlink:href="#mb91dda1a66" x="54" y="167.675732" style="stroke: #000000; stroke-width: 0.6"/>
      </g>
     </g>
    </g>
    <g id="ytick_7">
     <g id="line2d_12">
      <g>
       <use xlink:href="#mb91dda1a66" x="54" y="155.96354" style="stroke: #000000; stroke-width: 0.6"/>
      </g>
     </g>
    </g>
    <g id="ytick_8">
     <g id="line2d_13">
      <g>
       <use xlink:href="#mb91dda1a66" x="54" y="145.632655" style="stroke: #000000; stroke-width: 0.6"/>
      </g>
     </g>
    </g>
    <g id="ytick_9">
     <g id="line2d_14">
      <g>
       <use xlink:href="#mb91dda1a66" x="54" y="75.594628" style="stroke: #000000; stroke-width: 0.6"/>
      </g>
     </g>
    </g>
    <g id="ytick_10">
     <g id="line2d_15">
      <g>
       <use xlink:href="#mb91dda1a66" x="54" y="40.030818" style="stroke: #000000; stroke-width: 0.6"/>
      </g>
     </g>
    </g>
    <g id="text_8">
     <!-- NashConv -->
     <g transform="translate(17.420312 168.537031)rotate(-90)scale(0.1 -0.1)">
      <defs>
       <path id="DejaVuSans-4e" d="M 628 4666 
L 1478 4666 
L 3547 763 
L 3547 4666 
L 4159 4666 
L 4159 0 
L 3309 0 
L 1241 3903 
L 1241 0 
L 628 0 
L 628 4666 
z
" transform="scale(0.015625)"/>
       <path id="DejaVuSans-61" d="M 2194 1759 
Q 1497 1759 1228 1600 
Q 959 1441 959 1056 
Q 959 750 1161 570 
Q 1363 391 1709 391 
Q 2188 391 2477 730 
Q 2766 1069 2766 1631 
L 2766 1759 
L 2194 1759 
z
M 3341 1997 
L 3341 0 
L 2766 0 
L 2766 531 
Q 2569 213 2275 61 
Q 1981 -91 1556 -91 
Q 1019 -91 701 211 
Q 384 513 384 1019 
Q 384 1609 779 1909 
Q 1175 2209 1959 2209 
L 2766 2209 
L 2766 2266 
Q 2766 2663 2505 2880 
Q 2244 3097 1772 3097 
Q 1472 3097 1187 3025 
Q 903 2953 641 2809 
L 641 3341 
Q 956 3463 1253 3523 
Q 1550 3584 1831 3584 
Q 2591 3584 2966 3190 
Q 3341 2797 3341 1997 
z
" transform="scale(0.015625)"/>
       <path id="DejaVuSans-68" d="M 3513 2113 
L 3513 0 
L 2938 0 
L 2938 2094 
Q 2938 2591 2744 2837 
Q 2550 3084 2163 3084 
Q 1697 3084 1428 2787 
Q 1159 2491 1159 1978 
L 1159 0 
L 581 0 
L 581 4863 
L 1159 4863 
L 1159 2956 
Q 1366 3272 1645 3428 
Q 1925 3584 2291 3584 
Q 2894 3584 3203 3211 
Q 3513 2838 3513 2113 
z
" transform="scale(0.015625)"/>
       <path id="DejaVuSans-43" d="M 4122 4306 
L 4122 3641 
Q 3803 3938 3442 4084 
Q 3081 4231 2675 4231 
Q 1875 4231 1450 3742 
Q 1025 3253 1025 2328 
Q 1025 1406 1450 917 
Q 1875 428 2675 428 
Q 3081 428 3442 575 
Q 3803 722 4122 1019 
L 4122 359 
Q 3791 134 3420 21 
Q 3050 -91 2638 -91 
Q 1578 -91 968 557 
Q 359 1206 359 2328 
Q 359 3453 968 4101 
Q 1578 4750 2638 4750 
Q 3056 4750 3426 4639 
Q 3797 4528 4122 4306 
z
" transform="scale(0.015625)"/>
       <path id="DejaVuSans-6f" d="M 1959 3097 
Q 1497 3097 1228 2736 
Q 959 2375 959 1747 
Q 959 1119 1226 758 
Q 1494 397 1959 397 
Q 2419 397 2687 759 
Q 2956 1122 2956 1747 
Q 2956 2369 2687 2733 
Q 2419 3097 1959 3097 
z
M 1959 3584 
Q 2709 3584 3137 3096 
Q 3566 2609 3566 1747 
Q 3566 888 3137 398 
Q 2709 -91 1959 -91 
Q 1206 -91 779 398 
Q 353 888 353 1747 
Q 353 2609 779 3096 
Q 1206 3584 1959 3584 
z
" transform="scale(0.015625)"/>
       <path id="DejaVuSans-6e" d="M 3513 2113 
L 3513 0 
L 2938 0 
L 2938 2094 
Q 2938 2591 2744 2837 
Q 2550 3084 2163 3084 
Q 1697 3084 1428 2787 
Q 1159 2491 1159 1978 
L 1159 0 
L 581 0 
L 581 3500 
L 1159 3500 
L 1159 2956 
Q 1366 3272 1645 3428 
Q 1925 3584 2291 3584 
Q 2894 3584 3203 3211 
Q 3513 2838 3513 2113 
z
" transform="scale(0.015625)"/>
       <path id="DejaVuSans-76" d="M 191 3500 
L 800 3500 
L 1894 563 
L 2988 3500 
L 3597 3500 
L 2284 0 
L 1503 0 
L 191 3500 
z
" transform="scale(0.015625)"/>
      </defs>
      <use xlink:href="#DejaVuSans-4e"/>
      <use xlink:href="#DejaVuSans-61" x="74.804688"/>
      <use xlink:href="#DejaVuSans-73" x="136.083984"/>
      <use xlink:href="#DejaVuSans-68" x="188.183594"/>
      <use xlink:href="#DejaVuSans-43" x="251.5625"/>
      <use xlink:href="#DejaVuSans-6f" x="321.386719"/>
      <use xlink:href="#DejaVuSans-6e" x="382.568359"/>
      <use xlink:href="#DejaVuSans-76" x="445.947266"/>
     </g>
    </g>
   </g>
   <g id="line2d_16">
    <path d="M 71.034599 58.271821 
L 74.101555 84.543314 
L 77.020639 85.46135 
L 79.901836 100.727092 
L 83.409204 113.746467 
L 86.61586 91.950018 
L 89.529518 104.718717 
L 92.48918 129.127735 
L 95.38348 146.111697 
L 98.308631 135.111325 
L 101.238541 146.965871 
L 104.184604 148.640158 
L 107.031548 148.149219 
L 109.911487 145.351204 
L 112.800887 154.750554 
L 115.72672 146.777349 
L 118.546432 155.426916 
L 121.341016 155.371259 
L 124.17804 150.68514 
L 127.015798 147.574541 
L 129.756314 158.673599 
L 132.781224 141.724066 
L 135.637585 158.209664 
L 138.562034 170.549909 
L 141.498365 162.289539 
L 144.392306 168.773865 
L 147.210399 177.114584 
L 150.064473 171.021858 
L 153.177217 167.715858 
L 156.056903 176.088903 
L 159.519239 180.387875 
L 163.033543 179.787444 
L 166.060427 186.374803 
L 169.069088 188.915077 
L 172.039123 184.646147 
L 175.025708 165.171088 
L 177.972198 173.581215 
L 180.988043 191.573359 
L 183.897674 170.856253 
L 186.859272 174.60603 
L 189.849527 171.992763 
L 192.864338 173.204331 
L 195.736215 176.501134 
L 198.651557 178.773593 
L 201.783481 168.758332 
L 205.154938 162.892452 
L 208.46179 174.746971 
L 211.654815 187.460548 
L 214.614949 173.823066 
L 217.576487 180.88281 
L 220.736836 170.339217 
L 223.600769 168.916105 
L 226.611113 177.757397 
L 229.712177 185.991526 
L 232.667407 179.081786 
L 235.566735 188.100074 
L 238.621969 176.381172 
L 241.600562 173.989006 
L 244.602026 183.033273 
L 247.49347 188.427784 
L 250.71992 192.297036 
L 253.729078 191.84178 
L 257.140234 184.170819 
L 260.01785 183.038699 
L 262.99477 186.439939 
L 265.991065 195.931668 
L 268.858978 191.067233 
L 271.630431 185.276591 
L 274.55727 184.015815 
L 277.599018 184.211553 
L 280.526968 184.876455 
L 284.006593 195.738947 
L 287.210636 197.332764 
L 290.348058 197.695919 
L 294.046026 191.914906 
L 297.303552 205.554024 
L 300.547027 194.0335 
L 303.565812 198.63737 
L 306.640359 189.802876 
L 309.632442 192.915216 
L 312.613051 204.775282 
L 315.762115 196.157344 
L 318.701623 199.932841 
L 321.617356 187.279889 
L 324.627184 202.468383 
L 327.63334 184.218112 
L 330.569766 197.313281 
L 333.760125 200.437659 
L 336.829848 178.868437 
L 339.789187 186.898092 
L 343.481009 186.607287 
L 346.643609 195.574327 
L 350.259468 179.068718 
L 353.624282 199.566676 
L 356.52802 198.067133 
L 359.746031 188.798159 
L 362.792134 191.748917 
L 365.792137 192.923401 
L 368.792042 190.569715 
L 371.641581 188.95365 
" clip-path="url(#pbc5fd093e3)" style="fill: none; stroke: #000000; stroke-width: 0.5; stroke-linecap: square"/>
   </g>
   <g id="line2d_17">
    <path d="M 69.288429 70.156373 
L 72.20219 83.68649 
L 74.996561 108.043851 
L 78.055068 129.473178 
L 81.158015 117.148722 
L 84.196011 140.077786 
L 87.035569 136.614225 
L 90.073937 137.866212 
L 92.808857 159.06359 
L 95.942568 141.332774 
L 98.812477 144.925458 
L 101.735181 154.207336 
L 104.616761 159.218854 
L 107.447 157.539547 
L 110.328025 160.252121 
L 113.497142 163.287819 
L 116.384344 165.491248 
L 119.388746 163.147742 
L 122.455627 172.824442 
L 125.316313 174.484453 
L 128.225663 169.656987 
L 131.528661 174.470098 
L 134.798038 171.924571 
L 137.902828 187.571429 
L 141.318059 181.971702 
L 144.382275 192.736028 
L 147.402395 173.332989 
L 150.303279 185.580557 
L 153.188305 180.350705 
L 156.185574 183.010674 
L 159.10469 180.970787 
L 162.114103 175.72434 
L 165.062376 179.380994 
L 168.081309 193.94928 
L 171.122511 191.071054 
L 174.385464 203.50809 
L 177.701088 206.423638 
L 180.732133 182.371733 
L 183.710311 185.429426 
L 186.663577 189.774297 
L 189.818538 193.847833 
L 192.72615 177.240007 
L 195.631338 185.695467 
L 198.737531 207.949588 
L 201.681063 197.502123 
L 204.543052 195.550677 
L 207.682207 197.969733 
L 210.657828 202.325927 
L 213.633893 183.946961 
L 216.614075 194.17918 
L 220.029401 200.374889 
L 222.93785 185.400914 
L 225.811292 198.590835 
L 229.039421 199.647921 
L 231.976867 218.588341 
L 234.879885 202.226008 
L 237.876017 212.657327 
L 240.850993 207.912976 
L 243.865788 183.443983 
L 246.770222 211.113441 
L 249.751769 204.390076 
L 252.697921 226.426138 
L 255.627779 213.33661 
L 258.879734 192.610529 
L 261.939078 205.197593 
L 265.90839 220.830133 
L 269.235918 194.541866 
L 272.376247 208.35974 
L 275.508579 214.876707 
L 278.684186 204.522884 
L 281.576054 213.239505 
L 284.778959 203.939301 
L 287.823999 218.239886 
L 290.879246 204.353345 
L 293.786015 202.586564 
L 296.80702 204.264392 
L 299.641376 207.90658 
L 302.76158 220.595045 
L 306.026591 219.860312 
L 309.564422 213.640453 
L 312.603534 214.269037 
L 315.744119 223.272367 
L 318.970863 224.863901 
L 322.699445 220.675312 
L 325.727171 218.998948 
L 328.813507 218.42287 
L 331.960379 226.647569 
L 334.885631 218.301073 
L 337.969152 231.12908 
L 340.984854 234.895474 
L 344.064291 225.804604 
L 347.084327 218.743582 
L 350.070646 224.512688 
L 353.013481 225.663554 
L 355.935116 223.158142 
L 359.205737 234.918905 
L 362.142993 234.901534 
L 365.458538 222.902882 
L 368.415086 213.467743 
L 371.431141 229.856207 
" clip-path="url(#pbc5fd093e3)" style="fill: none; stroke-dasharray: 1.85,0.8; stroke-dashoffset: 0; stroke: #000000; stroke-width: 0.5"/>
   </g>
   <g id="line2d_18">
    <path d="M 69.337361 44.443636 
L 72.403332 121.206922 
L 75.679772 120.529686 
L 78.999608 113.673053 
L 81.985324 112.576545 
L 85.049139 125.423891 
L 88.171912 140.188121 
L 91.359824 138.867406 
L 94.400349 145.439426 
L 97.475135 147.48156 
L 100.546101 138.233251 
L 103.460926 149.665893 
L 106.498326 135.371882 
L 109.710956 155.493997 
L 112.728392 168.950937 
L 115.650808 148.152042 
L 118.595687 159.043513 
L 122.205941 163.561859 
L 125.128707 172.038394 
L 128.099003 164.099707 
L 131.13102 171.649283 
L 134.003781 170.986608 
L 136.848403 172.508286 
L 139.800911 177.833814 
L 142.643594 185.909954 
L 145.763921 180.219441 
L 148.859361 186.306981 
L 151.752546 182.170405 
L 154.925879 184.646762 
L 157.934831 197.334923 
L 161.056324 185.092696 
L 164.222358 204.676086 
L 167.703662 184.419279 
L 171.066914 192.719774 
L 174.107021 209.866473 
L 177.137721 189.904364 
L 180.14087 199.439933 
L 183.132936 195.52573 
L 186.234159 188.364469 
L 189.275366 206.358363 
L 192.206588 202.430236 
L 195.221895 190.976465 
L 198.152147 193.833243 
L 201.052188 202.21889 
L 204.359317 195.097005 
L 207.330614 195.195438 
L 210.358248 194.178204 
L 213.676694 202.200139 
L 216.700101 191.196668 
L 220.213635 191.055981 
L 223.593938 211.934172 
L 226.720358 203.331574 
L 229.84727 201.31313 
L 232.845942 200.860428 
L 236.031656 195.173579 
L 239.070374 208.299367 
L 241.929551 211.397783 
L 244.876951 211.003049 
L 247.85516 220.340691 
L 250.808831 216.498584 
L 253.794052 209.458143 
L 256.757246 220.887607 
L 260.072525 219.216345 
L 263.357915 214.755969 
L 266.403142 218.37206 
L 269.47372 223.552517 
L 272.657315 200.468629 
L 275.748021 217.926814 
L 278.823062 213.638932 
L 281.764738 217.976311 
L 284.858816 225.690376 
L 288.052984 212.14111 
L 291.019325 217.499996 
L 294.073631 218.769996 
L 296.935095 216.375407 
L 299.952474 220.103507 
L 303.063867 222.891667 
L 306.117143 210.936243 
L 309.314234 212.238117 
L 312.457641 207.34823 
L 315.382198 210.965577 
L 318.407727 219.425681 
L 321.657077 222.71742 
L 324.89845 212.518685 
L 327.964232 221.325306 
L 330.934557 226.610421 
L 334.058286 225.237941 
L 337.107329 224.12575 
L 340.172169 222.834235 
L 343.100868 215.791176 
L 346.0043 228.336569 
L 348.896284 234.324958 
L 351.827996 234.085521 
L 354.896957 220.197813 
L 357.920781 223.228242 
L 360.850305 230.561979 
L 363.966638 232.328067 
L 367.13048 228.231779 
L 370.08291 226.676284 
L 373.021094 231.340728 
" clip-path="url(#pbc5fd093e3)" style="fill: none; stroke-dasharray: 0.5,0.825; stroke-dashoffset: 0; stroke: #000000; stroke-width: 0.5"/>
   </g>
   <g id="line2d_19">
    <path d="M 69.409234 64.940604 
L 72.344931 88.13748 
L 75.279022 107.430507 
L 78.269567 121.675585 
L 81.236858 123.344041 
L 84.62644 136.429047 
L 87.826305 125.471093 
L 90.740393 141.875529 
L 93.891176 148.913476 
L 97.133671 154.864382 
L 100.108252 150.14377 
L 103.167796 140.44834 
L 106.343943 163.998493 
L 109.185975 157.819987 
L 112.326121 151.224517 
L 115.303493 150.15731 
L 118.486894 144.518979 
L 121.456846 149.335893 
L 124.502382 156.315955 
L 127.588839 163.393312 
L 130.830348 145.252982 
L 133.962903 159.052489 
L 137.119466 143.529623 
L 139.972103 167.587224 
L 142.969059 171.395092 
L 146.111114 175.959784 
L 149.761741 168.367197 
L 152.607692 169.014062 
L 155.619898 161.704914 
L 158.773617 162.947576 
L 161.75085 171.67242 
L 164.791178 193.788979 
L 167.974611 163.915584 
L 170.952428 179.088547 
L 174.114696 180.548723 
L 177.069571 175.930868 
L 180.149318 189.12338 
L 183.497415 193.726234 
L 186.464517 168.546535 
L 189.682706 186.012183 
L 192.767515 172.639992 
L 195.842513 178.896241 
L 198.919712 174.944983 
L 201.943218 195.490614 
L 205.023045 186.271347 
L 207.969663 199.782552 
L 210.972412 186.847228 
L 214.086245 183.911406 
L 217.352364 183.092294 
L 220.312451 171.64221 
L 223.232373 189.195206 
L 226.329685 187.06504 
L 229.30186 200.398552 
L 232.345187 188.461839 
L 235.600926 188.713198 
L 238.649244 197.938583 
L 241.723459 190.339384 
L 244.646283 193.156459 
L 247.639261 203.107412 
L 250.64622 198.990588 
L 253.699128 174.063878 
L 256.612301 181.38807 
L 259.57402 182.961571 
L 262.755752 216.744437 
L 265.774381 202.011841 
L 268.706697 209.52466 
L 271.580117 206.87794 
L 274.424687 197.369918 
L 277.333664 198.432948 
L 280.390426 201.588899 
L 283.426197 198.406718 
L 286.815619 201.911917 
L 289.726106 210.131451 
L 292.889781 205.376591 
L 295.797242 205.764383 
L 299.25669 196.743938 
L 302.631592 191.913077 
L 305.638533 213.234561 
L 308.858913 214.847852 
L 312.358672 200.448058 
L 315.633385 207.024995 
L 318.53447 224.757203 
L 321.828225 208.892514 
L 325.044906 205.905913 
L 327.983418 212.579043 
L 330.932665 218.915331 
L 333.832695 220.399785 
L 336.706895 218.579408 
L 339.834885 219.157244 
L 342.998023 223.628895 
L 346.024641 208.256239 
L 349.152658 222.293704 
L 352.144119 225.572037 
L 355.040042 225.891069 
L 358.48974 214.45691 
L 361.490126 225.525336 
L 364.429832 205.193873 
L 367.520308 218.813367 
L 370.610572 212.785386 
L 373.581818 206.267256 
" clip-path="url(#pbc5fd093e3)" style="fill: none; stroke-dasharray: 3.2,0.8,0.5,0.8; stroke-dashoffset: 0; stroke: #000000; stroke-width: 0.5"/>
   </g>
   <g id="line2d_20">
    <path d="M 69.41991 55.133139 
L 72.491077 81.452919 
L 75.473842 94.258566 
L 78.357292 83.664039 
L 81.351391 127.363101 
L 84.325337 111.316283 
L 87.465945 114.58829 
L 90.420664 111.679703 
L 93.477044 127.191192 
L 96.560627 128.661522 
L 99.477459 143.60179 
L 102.335393 133.493253 
L 105.598813 140.395145 
L 108.857194 144.497822 
L 111.76028 146.408848 
L 114.93944 137.50054 
L 117.844082 143.690953 
L 121.364001 147.930545 
L 124.980064 131.986623 
L 127.958418 155.225536 
L 131.184905 144.973113 
L 134.735043 157.284052 
L 137.846095 159.292808 
L 140.845068 170.456481 
L 144.032147 155.22758 
L 147.152751 167.276392 
L 150.09143 162.963141 
L 153.185065 168.259342 
L 156.459548 161.845461 
L 159.637008 165.852004 
L 162.900707 172.242991 
L 165.933387 173.937542 
L 168.893549 169.566251 
L 172.189549 169.052032 
L 175.266856 162.39379 
L 178.188334 167.341182 
L 181.746195 164.522173 
L 184.919944 178.807822 
L 187.853204 169.465285 
L 191.06563 179.629259 
L 194.212133 191.09467 
L 197.013438 179.272505 
L 200.344936 188.409439 
L 203.353922 178.818389 
L 206.93311 185.709763 
L 210.023083 184.655625 
L 213.182705 177.118233 
L 216.249759 193.229511 
L 219.112236 196.103456 
L 222.092425 194.107937 
L 225.053271 198.060395 
L 228.00863 195.960259 
L 231.107466 201.745392 
L 234.147783 196.776903 
L 237.096679 177.877058 
L 240.129224 196.76571 
L 243.139207 189.847994 
L 246.253546 194.40924 
L 249.328946 194.088303 
L 252.251097 197.422009 
L 255.339568 190.893064 
L 258.472215 198.130305 
L 261.422755 199.196565 
L 264.502214 180.016959 
L 267.614228 201.914549 
L 270.443291 204.024429 
L 273.715602 201.483103 
L 276.702548 198.713911 
L 279.787258 192.727389 
L 282.917769 218.002752 
L 286.07749 205.683974 
L 289.100738 215.051375 
L 292.028134 205.242807 
L 294.879615 221.766165 
L 297.722961 199.797709 
L 300.631688 218.471246 
L 303.664339 205.749914 
L 306.574364 216.738393 
L 309.729562 207.549736 
L 312.781413 217.237285 
L 315.670295 210.041386 
L 318.665212 212.629589 
L 321.793461 213.797591 
L 324.704093 212.937071 
L 327.665932 212.408285 
L 330.861469 207.382946 
L 333.70538 207.125527 
L 336.575263 211.6605 
L 339.541632 213.629094 
L 342.496086 216.428379 
L 345.463175 214.508557 
L 348.39227 209.806988 
L 351.377284 212.47973 
L 354.254486 222.741687 
L 357.185096 225.456461 
L 360.073558 218.432333 
L 363.074084 204.624458 
L 366.102229 215.752392 
L 369.162383 200.550394 
L 372.222138 218.292405 
" clip-path="url(#pbc5fd093e3)" style="fill: none; stroke: #000000; stroke-width: 0.5; stroke-linecap: square"/>
    <defs>
     <path id="m7eecbe5a7e" d="M 0 0.25 
C 0.066301 0.25 0.129895 0.223658 0.176777 0.176777 
C 0.223658 0.129895 0.25 0.066301 0.25 0 
C 0.25 -0.066301 0.223658 -0.129895 0.176777 -0.176777 
C 0.129895 -0.223658 0.066301 -0.25 0 -0.25 
C -0.066301 -0.25 -0.129895 -0.223658 -0.176777 -0.176777 
C -0.223658 -0.129895 -0.25 -0.066301 -0.25 0 
C -0.25 0.066301 -0.223658 0.129895 -0.176777 0.176777 
C -0.129895 0.223658 -0.066301 0.25 0 0.25 
z
" style="stroke: #000000"/>
    </defs>
    <g clip-path="url(#pbc5fd093e3)">
     <use xlink:href="#m7eecbe5a7e" x="69.41991" y="55.133139" style="stroke: #000000"/>
     <use xlink:href="#m7eecbe5a7e" x="72.491077" y="81.452919" style="stroke: #000000"/>
     <use xlink:href="#m7eecbe5a7e" x="75.473842" y="94.258566" style="stroke: #000000"/>
     <use xlink:href="#m7eecbe5a7e" x="78.357292" y="83.664039" style="stroke: #000000"/>
     <use xlink:href="#m7eecbe5a7e" x="81.351391" y="127.363101" style="stroke: #000000"/>
     <use xlink:href="#m7eecbe5a7e" x="84.325337" y="111.316283" style="stroke: #000000"/>
     <use xlink:href="#m7eecbe5a7e" x="87.465945" y="114.58829" style="stroke: #000000"/>
     <use xlink:href="#m7eecbe5a7e" x="90.420664" y="111.679703" style="stroke: #000000"/>
     <use xlink:href="#m7eecbe5a7e" x="93.477044" y="127.191192" style="stroke: #000000"/>
     <use xlink:href="#m7eecbe5a7e" x="96.560627" y="128.661522" style="stroke: #000000"/>
     <use xlink:href="#m7eecbe5a7e" x="99.477459" y="143.60179" style="stroke: #000000"/>
     <use xlink:href="#m7eecbe5a7e" x="102.335393" y="133.493253" style="stroke: #000000"/>
     <use xlink:href="#m7eecbe5a7e" x="105.598813" y="140.395145" style="stroke: #000000"/>
     <use xlink:href="#m7eecbe5a7e" x="108.857194" y="144.497822" style="stroke: #000000"/>
     <use xlink:href="#m7eecbe5a7e" x="111.76028" y="146.408848" style="stroke: #000000"/>
     <use xlink:href="#m7eecbe5a7e" x="114.93944" y="137.50054" style="stroke: #000000"/>
     <use xlink:href="#m7eecbe5a7e" x="117.844082" y="143.690953" style="stroke: #000000"/>
     <use xlink:href="#m7eecbe5a7e" x="121.364001" y="147.930545" style="stroke: #000000"/>
     <use xlink:href="#m7eecbe5a7e" x="124.980064" y="131.986623" style="stroke: #000000"/>
     <use xlink:href="#m7eecbe5a7e" x="127.958418" y="155.225536" style="stroke: #000000"/>
     <use xlink:href="#m7eecbe5a7e" x="131.184905" y="144.973113" style="stroke: #000000"/>
     <use xlink:href="#m7eecbe5a7e" x="134.735043" y="157.284052" style="stroke: #000000"/>
     <use xlink:href="#m7eecbe5a7e" x="137.846095" y="159.292808" style="stroke: #000000"/>
     <use xlink:href="#m7eecbe5a7e" x="140.845068" y="170.456481" style="stroke: #000000"/>
     <use xlink:href="#m7eecbe5a7e" x="144.032147" y="155.22758" style="stroke: #000000"/>
     <use xlink:href="#m7eecbe5a7e" x="147.152751" y="167.276392" style="stroke: #000000"/>
     <use xlink:href="#m7eecbe5a7e" x="150.09143" y="162.963141" style="stroke: #000000"/>
     <use xlink:href="#m7eecbe5a7e" x="153.185065" y="168.259342" style="stroke: #000000"/>
     <use xlink:href="#m7eecbe5a7e" x="156.459548" y="161.845461" style="stroke: #000000"/>
     <use xlink:href="#m7eecbe5a7e" x="159.637008" y="165.852004" style="stroke: #000000"/>
     <use xlink:href="#m7eecbe5a7e" x="162.900707" y="172.242991" style="stroke: #000000"/>
     <use xlink:href="#m7eecbe5a7e" x="165.933387" y="173.937542" style="stroke: #000000"/>
     <use xlink:href="#m7eecbe5a7e" x="168.893549" y="169.566251" style="stroke: #000000"/>
     <use xlink:href="#m7eecbe5a7e" x="172.189549" y="169.052032" style="stroke: #000000"/>
     <use xlink:href="#m7eecbe5a7e" x="175.266856" y="162.39379" style="stroke: #000000"/>
     <use xlink:href="#m7eecbe5a7e" x="178.188334" y="167.341182" style="stroke: #000000"/>
     <use xlink:href="#m7eecbe5a7e" x="181.746195" y="164.522173" style="stroke: #000000"/>
     <use xlink:href="#m7eecbe5a7e" x="184.919944" y="178.807822" style="stroke: #000000"/>
     <use xlink:href="#m7eecbe5a7e" x="187.853204" y="169.465285" style="stroke: #000000"/>
     <use xlink:href="#m7eecbe5a7e" x="191.06563" y="179.629259" style="stroke: #000000"/>
     <use xlink:href="#m7eecbe5a7e" x="194.212133" y="191.09467" style="stroke: #000000"/>
     <use xlink:href="#m7eecbe5a7e" x="197.013438" y="179.272505" style="stroke: #000000"/>
     <use xlink:href="#m7eecbe5a7e" x="200.344936" y="188.409439" style="stroke: #000000"/>
     <use xlink:href="#m7eecbe5a7e" x="203.353922" y="178.818389" style="stroke: #000000"/>
     <use xlink:href="#m7eecbe5a7e" x="206.93311" y="185.709763" style="stroke: #000000"/>
     <use xlink:href="#m7eecbe5a7e" x="210.023083" y="184.655625" style="stroke: #000000"/>
     <use xlink:href="#m7eecbe5a7e" x="213.182705" y="177.118233" style="stroke: #000000"/>
     <use xlink:href="#m7eecbe5a7e" x="216.249759" y="193.229511" style="stroke: #000000"/>
     <use xlink:href="#m7eecbe5a7e" x="219.112236" y="196.103456" style="stroke: #000000"/>
     <use xlink:href="#m7eecbe5a7e" x="222.092425" y="194.107937" style="stroke: #000000"/>
     <use xlink:href="#m7eecbe5a7e" x="225.053271" y="198.060395" style="stroke: #000000"/>
     <use xlink:href="#m7eecbe5a7e" x="228.00863" y="195.960259" style="stroke: #000000"/>
     <use xlink:href="#m7eecbe5a7e" x="231.107466" y="201.745392" style="stroke: #000000"/>
     <use xlink:href="#m7eecbe5a7e" x="234.147783" y="196.776903" style="stroke: #000000"/>
     <use xlink:href="#m7eecbe5a7e" x="237.096679" y="177.877058" style="stroke: #000000"/>
     <use xlink:href="#m7eecbe5a7e" x="240.129224" y="196.76571" style="stroke: #000000"/>
     <use xlink:href="#m7eecbe5a7e" x="243.139207" y="189.847994" style="stroke: #000000"/>
     <use xlink:href="#m7eecbe5a7e" x="246.253546" y="194.40924" style="stroke: #000000"/>
     <use xlink:href="#m7eecbe5a7e" x="249.328946" y="194.088303" style="stroke: #000000"/>
     <use xlink:href="#m7eecbe5a7e" x="252.251097" y="197.422009" style="stroke: #000000"/>
     <use xlink:href="#m7eecbe5a7e" x="255.339568" y="190.893064" style="stroke: #000000"/>
     <use xlink:href="#m7eecbe5a7e" x="258.472215" y="198.130305" style="stroke: #000000"/>
     <use xlink:href="#m7eecbe5a7e" x="261.422755" y="199.196565" style="stroke: #000000"/>
     <use xlink:href="#m7eecbe5a7e" x="264.502214" y="180.016959" style="stroke: #000000"/>
     <use xlink:href="#m7eecbe5a7e" x="267.614228" y="201.914549" style="stroke: #000000"/>
     <use xlink:href="#m7eecbe5a7e" x="270.443291" y="204.024429" style="stroke: #000000"/>
     <use xlink:href="#m7eecbe5a7e" x="273.715602" y="201.483103" style="stroke: #000000"/>
     <use xlink:href="#m7eecbe5a7e" x="276.702548" y="198.713911" style="stroke: #000000"/>
     <use xlink:href="#m7eecbe5a7e" x="279.787258" y="192.727389" style="stroke: #000000"/>
     <use xlink:href="#m7eecbe5a7e" x="282.917769" y="218.002752" style="stroke: #000000"/>
     <use xlink:href="#m7eecbe5a7e" x="286.07749" y="205.683974" style="stroke: #000000"/>
     <use xlink:href="#m7eecbe5a7e" x="289.100738" y="215.051375" style="stroke: #000000"/>
     <use xlink:href="#m7eecbe5a7e" x="292.028134" y="205.242807" style="stroke: #000000"/>
     <use xlink:href="#m7eecbe5a7e" x="294.879615" y="221.766165" style="stroke: #000000"/>
     <use xlink:href="#m7eecbe5a7e" x="297.722961" y="199.797709" style="stroke: #000000"/>
     <use xlink:href="#m7eecbe5a7e" x="300.631688" y="218.471246" style="stroke: #000000"/>
     <use xlink:href="#m7eecbe5a7e" x="303.664339" y="205.749914" style="stroke: #000000"/>
     <use xlink:href="#m7eecbe5a7e" x="306.574364" y="216.738393" style="stroke: #000000"/>
     <use xlink:href="#m7eecbe5a7e" x="309.729562" y="207.549736" style="stroke: #000000"/>
     <use xlink:href="#m7eecbe5a7e" x="312.781413" y="217.237285" style="stroke: #000000"/>
     <use xlink:href="#m7eecbe5a7e" x="315.670295" y="210.041386" style="stroke: #000000"/>
     <use xlink:href="#m7eecbe5a7e" x="318.665212" y="212.629589" style="stroke: #000000"/>
     <use xlink:href="#m7eecbe5a7e" x="321.793461" y="213.797591" style="stroke: #000000"/>
     <use xlink:href="#m7eecbe5a7e" x="324.704093" y="212.937071" style="stroke: #000000"/>
     <use xlink:href="#m7eecbe5a7e" x="327.665932" y="212.408285" style="stroke: #000000"/>
     <use xlink:href="#m7eecbe5a7e" x="330.861469" y="207.382946" style="stroke: #000000"/>
     <use xlink:href="#m7eecbe5a7e" x="333.70538" y="207.125527" style="stroke: #000000"/>
     <use xlink:href="#m7eecbe5a7e" x="336.575263" y="211.6605" style="stroke: #000000"/>
     <use xlink:href="#m7eecbe5a7e" x="339.541632" y="213.629094" style="stroke: #000000"/>
     <use xlink:href="#m7eecbe5a7e" x="342.496086" y="216.428379" style="stroke: #000000"/>
     <use xlink:href="#m7eecbe5a7e" x="345.463175" y="214.508557" style="stroke: #000000"/>
     <use xlink:href="#m7eecbe5a7e" x="348.39227" y="209.806988" style="stroke: #000000"/>
     <use xlink:href="#m7eecbe5a7e" x="351.377284" y="212.47973" style="stroke: #000000"/>
     <use xlink:href="#m7eecbe5a7e" x="354.254486" y="222.741687" style="stroke: #000000"/>
     <use xlink:href="#m7eecbe5a7e" x="357.185096" y="225.456461" style="stroke: #000000"/>
     <use xlink:href="#m7eecbe5a7e" x="360.073558" y="218.432333" style="stroke: #000000"/>
     <use xlink:href="#m7eecbe5a7e" x="363.074084" y="204.624458" style="stroke: #000000"/>
     <use xlink:href="#m7eecbe5a7e" x="366.102229" y="215.752392" style="stroke: #000000"/>
     <use xlink:href="#m7eecbe5a7e" x="369.162383" y="200.550394" style="stroke: #000000"/>
     <use xlink:href="#m7eecbe5a7e" x="372.222138" y="218.292405" style="stroke: #000000"/>
    </g>
   </g>
   <g id="line2d_21">
    <path d="M 69.439547 72.544099 
L 72.423101 89.546743 
L 75.566006 98.035687 
L 78.453617 125.775684 
L 81.412687 104.87475 
L 84.292851 131.291293 
L 87.464854 121.031656 
L 90.565611 142.184485 
L 93.67476 133.130547 
L 96.670867 140.30766 
L 99.624681 152.579893 
L 102.704965 157.791878 
L 105.714749 167.528815 
L 108.82899 156.771871 
L 112.070817 158.857892 
L 114.992875 172.726366 
L 117.911898 168.768301 
L 120.780024 158.279128 
L 123.712826 144.223679 
L 126.616017 152.271281 
L 129.628532 169.507876 
L 132.475266 165.911565 
L 135.361494 171.640652 
L 138.315143 175.736998 
L 141.308706 174.274072 
L 144.295351 187.504282 
L 147.24849 169.215075 
L 150.316487 188.789666 
L 153.095964 180.475116 
L 156.1626 167.230564 
L 159.493359 179.662729 
L 162.543359 175.092727 
L 165.794747 176.80878 
L 168.834186 194.058174 
L 171.803738 179.397015 
L 174.880212 187.452679 
L 177.859078 187.146639 
L 180.786612 190.226491 
L 183.770993 188.365404 
L 186.815586 195.093527 
L 190.205571 184.166969 
L 193.21485 187.818636 
L 196.242819 197.609137 
L 199.182442 186.43314 
L 202.565449 199.313715 
L 206.047358 208.956296 
L 209.853346 195.971817 
L 213.615889 188.533508 
L 216.748799 182.675958 
L 219.887428 194.735966 
L 223.263978 197.307423 
L 226.155618 188.974176 
L 229.245938 199.58748 
L 232.472629 198.593285 
L 235.969054 182.26499 
L 238.929991 202.155876 
L 242.016474 196.167303 
L 245.240654 205.27471 
L 248.216466 198.838313 
L 251.186767 207.306741 
L 254.192354 213.975652 
L 257.08991 191.713535 
L 260.049708 206.815845 
L 262.965405 210.540295 
L 265.892184 204.806981 
L 268.81817 212.048305 
L 271.838036 208.57559 
L 274.802347 215.880458 
L 277.668549 197.735461 
L 280.867921 218.04476 
L 283.934477 225.471107 
L 286.885671 223.411289 
L 290.070588 208.021491 
L 292.958344 216.094701 
L 296.216803 215.801905 
L 299.150774 215.884954 
L 302.253652 217.674088 
L 305.1908 204.893754 
L 308.414695 218.775925 
L 311.32948 201.81688 
L 314.400132 212.498235 
L 317.543331 215.478894 
L 320.414664 209.801486 
L 323.363817 218.498935 
L 326.338746 224.050887 
L 329.44132 207.957394 
L 332.669686 222.550555 
L 335.571666 208.168896 
L 338.518819 217.836287 
L 341.776697 215.085283 
L 344.771693 213.154646 
L 347.813092 221.405573 
L 350.788533 217.938739 
L 353.690662 209.618841 
L 356.869009 208.969534 
L 359.930168 214.690503 
L 362.899364 216.664576 
L 365.717207 207.91323 
L 368.721705 207.520913 
L 371.716683 222.697788 
" clip-path="url(#pbc5fd093e3)" style="fill: none; stroke-dasharray: 1.85,0.8; stroke-dashoffset: 0; stroke: #000000; stroke-width: 0.5"/>
    <g clip-path="url(#pbc5fd093e3)">
     <use xlink:href="#m7eecbe5a7e" x="69.439547" y="72.544099" style="stroke: #000000"/>
     <use xlink:href="#m7eecbe5a7e" x="72.423101" y="89.546743" style="stroke: #000000"/>
     <use xlink:href="#m7eecbe5a7e" x="75.566006" y="98.035687" style="stroke: #000000"/>
     <use xlink:href="#m7eecbe5a7e" x="78.453617" y="125.775684" style="stroke: #000000"/>
     <use xlink:href="#m7eecbe5a7e" x="81.412687" y="104.87475" style="stroke: #000000"/>
     <use xlink:href="#m7eecbe5a7e" x="84.292851" y="131.291293" style="stroke: #000000"/>
     <use xlink:href="#m7eecbe5a7e" x="87.464854" y="121.031656" style="stroke: #000000"/>
     <use xlink:href="#m7eecbe5a7e" x="90.565611" y="142.184485" style="stroke: #000000"/>
     <use xlink:href="#m7eecbe5a7e" x="93.67476" y="133.130547" style="stroke: #000000"/>
     <use xlink:href="#m7eecbe5a7e" x="96.670867" y="140.30766" style="stroke: #000000"/>
     <use xlink:href="#m7eecbe5a7e" x="99.624681" y="152.579893" style="stroke: #000000"/>
     <use xlink:href="#m7eecbe5a7e" x="102.704965" y="157.791878" style="stroke: #000000"/>
     <use xlink:href="#m7eecbe5a7e" x="105.714749" y="167.528815" style="stroke: #000000"/>
     <use xlink:href="#m7eecbe5a7e" x="108.82899" y="156.771871" style="stroke: #000000"/>
     <use xlink:href="#m7eecbe5a7e" x="112.070817" y="158.857892" style="stroke: #000000"/>
     <use xlink:href="#m7eecbe5a7e" x="114.992875" y="172.726366" style="stroke: #000000"/>
     <use xlink:href="#m7eecbe5a7e" x="117.911898" y="168.768301" style="stroke: #000000"/>
     <use xlink:href="#m7eecbe5a7e" x="120.780024" y="158.279128" style="stroke: #000000"/>
     <use xlink:href="#m7eecbe5a7e" x="123.712826" y="144.223679" style="stroke: #000000"/>
     <use xlink:href="#m7eecbe5a7e" x="126.616017" y="152.271281" style="stroke: #000000"/>
     <use xlink:href="#m7eecbe5a7e" x="129.628532" y="169.507876" style="stroke: #000000"/>
     <use xlink:href="#m7eecbe5a7e" x="132.475266" y="165.911565" style="stroke: #000000"/>
     <use xlink:href="#m7eecbe5a7e" x="135.361494" y="171.640652" style="stroke: #000000"/>
     <use xlink:href="#m7eecbe5a7e" x="138.315143" y="175.736998" style="stroke: #000000"/>
     <use xlink:href="#m7eecbe5a7e" x="141.308706" y="174.274072" style="stroke: #000000"/>
     <use xlink:href="#m7eecbe5a7e" x="144.295351" y="187.504282" style="stroke: #000000"/>
     <use xlink:href="#m7eecbe5a7e" x="147.24849" y="169.215075" style="stroke: #000000"/>
     <use xlink:href="#m7eecbe5a7e" x="150.316487" y="188.789666" style="stroke: #000000"/>
     <use xlink:href="#m7eecbe5a7e" x="153.095964" y="180.475116" style="stroke: #000000"/>
     <use xlink:href="#m7eecbe5a7e" x="156.1626" y="167.230564" style="stroke: #000000"/>
     <use xlink:href="#m7eecbe5a7e" x="159.493359" y="179.662729" style="stroke: #000000"/>
     <use xlink:href="#m7eecbe5a7e" x="162.543359" y="175.092727" style="stroke: #000000"/>
     <use xlink:href="#m7eecbe5a7e" x="165.794747" y="176.80878" style="stroke: #000000"/>
     <use xlink:href="#m7eecbe5a7e" x="168.834186" y="194.058174" style="stroke: #000000"/>
     <use xlink:href="#m7eecbe5a7e" x="171.803738" y="179.397015" style="stroke: #000000"/>
     <use xlink:href="#m7eecbe5a7e" x="174.880212" y="187.452679" style="stroke: #000000"/>
     <use xlink:href="#m7eecbe5a7e" x="177.859078" y="187.146639" style="stroke: #000000"/>
     <use xlink:href="#m7eecbe5a7e" x="180.786612" y="190.226491" style="stroke: #000000"/>
     <use xlink:href="#m7eecbe5a7e" x="183.770993" y="188.365404" style="stroke: #000000"/>
     <use xlink:href="#m7eecbe5a7e" x="186.815586" y="195.093527" style="stroke: #000000"/>
     <use xlink:href="#m7eecbe5a7e" x="190.205571" y="184.166969" style="stroke: #000000"/>
     <use xlink:href="#m7eecbe5a7e" x="193.21485" y="187.818636" style="stroke: #000000"/>
     <use xlink:href="#m7eecbe5a7e" x="196.242819" y="197.609137" style="stroke: #000000"/>
     <use xlink:href="#m7eecbe5a7e" x="199.182442" y="186.43314" style="stroke: #000000"/>
     <use xlink:href="#m7eecbe5a7e" x="202.565449" y="199.313715" style="stroke: #000000"/>
     <use xlink:href="#m7eecbe5a7e" x="206.047358" y="208.956296" style="stroke: #000000"/>
     <use xlink:href="#m7eecbe5a7e" x="209.853346" y="195.971817" style="stroke: #000000"/>
     <use xlink:href="#m7eecbe5a7e" x="213.615889" y="188.533508" style="stroke: #000000"/>
     <use xlink:href="#m7eecbe5a7e" x="216.748799" y="182.675958" style="stroke: #000000"/>
     <use xlink:href="#m7eecbe5a7e" x="219.887428" y="194.735966" style="stroke: #000000"/>
     <use xlink:href="#m7eecbe5a7e" x="223.263978" y="197.307423" style="stroke: #000000"/>
     <use xlink:href="#m7eecbe5a7e" x="226.155618" y="188.974176" style="stroke: #000000"/>
     <use xlink:href="#m7eecbe5a7e" x="229.245938" y="199.58748" style="stroke: #000000"/>
     <use xlink:href="#m7eecbe5a7e" x="232.472629" y="198.593285" style="stroke: #000000"/>
     <use xlink:href="#m7eecbe5a7e" x="235.969054" y="182.26499" style="stroke: #000000"/>
     <use xlink:href="#m7eecbe5a7e" x="238.929991" y="202.155876" style="stroke: #000000"/>
     <use xlink:href="#m7eecbe5a7e" x="242.016474" y="196.167303" style="stroke: #000000"/>
     <use xlink:href="#m7eecbe5a7e" x="245.240654" y="205.27471" style="stroke: #000000"/>
     <use xlink:href="#m7eecbe5a7e" x="248.216466" y="198.838313" style="stroke: #000000"/>
     <use xlink:href="#m7eecbe5a7e" x="251.186767" y="207.306741" style="stroke: #000000"/>
     <use xlink:href="#m7eecbe5a7e" x="254.192354" y="213.975652" style="stroke: #000000"/>
     <use xlink:href="#m7eecbe5a7e" x="257.08991" y="191.713535" style="stroke: #000000"/>
     <use xlink:href="#m7eecbe5a7e" x="260.049708" y="206.815845" style="stroke: #000000"/>
     <use xlink:href="#m7eecbe5a7e" x="262.965405" y="210.540295" style="stroke: #000000"/>
     <use xlink:href="#m7eecbe5a7e" x="265.892184" y="204.806981" style="stroke: #000000"/>
     <use xlink:href="#m7eecbe5a7e" x="268.81817" y="212.048305" style="stroke: #000000"/>
     <use xlink:href="#m7eecbe5a7e" x="271.838036" y="208.57559" style="stroke: #000000"/>
     <use xlink:href="#m7eecbe5a7e" x="274.802347" y="215.880458" style="stroke: #000000"/>
     <use xlink:href="#m7eecbe5a7e" x="277.668549" y="197.735461" style="stroke: #000000"/>
     <use xlink:href="#m7eecbe5a7e" x="280.867921" y="218.04476" style="stroke: #000000"/>
     <use xlink:href="#m7eecbe5a7e" x="283.934477" y="225.471107" style="stroke: #000000"/>
     <use xlink:href="#m7eecbe5a7e" x="286.885671" y="223.411289" style="stroke: #000000"/>
     <use xlink:href="#m7eecbe5a7e" x="290.070588" y="208.021491" style="stroke: #000000"/>
     <use xlink:href="#m7eecbe5a7e" x="292.958344" y="216.094701" style="stroke: #000000"/>
     <use xlink:href="#m7eecbe5a7e" x="296.216803" y="215.801905" style="stroke: #000000"/>
     <use xlink:href="#m7eecbe5a7e" x="299.150774" y="215.884954" style="stroke: #000000"/>
     <use xlink:href="#m7eecbe5a7e" x="302.253652" y="217.674088" style="stroke: #000000"/>
     <use xlink:href="#m7eecbe5a7e" x="305.1908" y="204.893754" style="stroke: #000000"/>
     <use xlink:href="#m7eecbe5a7e" x="308.414695" y="218.775925" style="stroke: #000000"/>
     <use xlink:href="#m7eecbe5a7e" x="311.32948" y="201.81688" style="stroke: #000000"/>
     <use xlink:href="#m7eecbe5a7e" x="314.400132" y="212.498235" style="stroke: #000000"/>
     <use xlink:href="#m7eecbe5a7e" x="317.543331" y="215.478894" style="stroke: #000000"/>
     <use xlink:href="#m7eecbe5a7e" x="320.414664" y="209.801486" style="stroke: #000000"/>
     <use xlink:href="#m7eecbe5a7e" x="323.363817" y="218.498935" style="stroke: #000000"/>
     <use xlink:href="#m7eecbe5a7e" x="326.338746" y="224.050887" style="stroke: #000000"/>
     <use xlink:href="#m7eecbe5a7e" x="329.44132" y="207.957394" style="stroke: #000000"/>
     <use xlink:href="#m7eecbe5a7e" x="332.669686" y="222.550555" style="stroke: #000000"/>
     <use xlink:href="#m7eecbe5a7e" x="335.571666" y="208.168896" style="stroke: #000000"/>
     <use xlink:href="#m7eecbe5a7e" x="338.518819" y="217.836287" style="stroke: #000000"/>
     <use xlink:href="#m7eecbe5a7e" x="341.776697" y="215.085283" style="stroke: #000000"/>
     <use xlink:href="#m7eecbe5a7e" x="344.771693" y="213.154646" style="stroke: #000000"/>
     <use xlink:href="#m7eecbe5a7e" x="347.813092" y="221.405573" style="stroke: #000000"/>
     <use xlink:href="#m7eecbe5a7e" x="350.788533" y="217.938739" style="stroke: #000000"/>
     <use xlink:href="#m7eecbe5a7e" x="353.690662" y="209.618841" style="stroke: #000000"/>
     <use xlink:href="#m7eecbe5a7e" x="356.869009" y="208.969534" style="stroke: #000000"/>
     <use xlink:href="#m7eecbe5a7e" x="359.930168" y="214.690503" style="stroke: #000000"/>
     <use xlink:href="#m7eecbe5a7e" x="362.899364" y="216.664576" style="stroke: #000000"/>
     <use xlink:href="#m7eecbe5a7e" x="365.717207" y="207.91323" style="stroke: #000000"/>
     <use xlink:href="#m7eecbe5a7e" x="368.721705" y="207.520913" style="stroke: #000000"/>
     <use xlink:href="#m7eecbe5a7e" x="371.716683" y="222.697788" style="stroke: #000000"/>
    </g>
   </g>
   <g id="line2d_22">
    <path d="M 69.218182 60.241322 
L 72.403389 91.3291 
L 75.802991 94.330432 
L 78.746144 92.159457 
L 81.859723 99.623652 
L 85.097789 116.928149 
L 88.097472 117.262105 
L 91.060492 151.344974 
L 94.544731 123.626125 
L 97.581552 125.658626 
L 100.690219 144.435135 
L 103.726268 144.206575 
L 106.599258 155.657119 
L 109.878174 150.638614 
L 112.832388 156.962394 
L 115.894834 159.249667 
L 118.915275 158.650581 
L 122.270333 169.577119 
L 125.234629 171.786567 
L 128.352857 169.223028 
L 131.378081 153.017881 
L 134.374672 185.273341 
L 137.47972 176.153789 
L 140.356614 179.856283 
L 143.333726 168.370782 
L 146.455658 170.032836 
L 149.452077 178.860462 
L 152.585605 156.090433 
L 155.417561 173.836464 
L 158.466664 183.05708 
L 161.689358 185.992489 
L 165.284891 192.063246 
L 168.38117 177.145195 
L 171.353543 163.965933 
L 174.744449 181.21612 
L 177.636118 196.9318 
L 180.614323 172.922373 
L 183.600969 200.974455 
L 186.560763 182.703456 
L 189.9775 193.997373 
L 193.085901 204.12288 
L 196.123338 213.391743 
L 199.121233 188.797245 
L 202.847697 202.145393 
L 206.153278 189.343009 
L 209.523084 183.806974 
L 212.687944 197.021129 
L 215.721447 189.795381 
L 218.653432 199.091359 
L 221.782816 194.008397 
L 224.832915 205.441087 
L 227.735707 215.621198 
L 230.609213 210.713895 
L 233.793208 212.219497 
L 236.750156 202.944092 
L 240.073368 214.048267 
L 242.938924 204.998751 
L 245.898253 198.657757 
L 248.932305 219.038971 
L 252.151845 206.858884 
L 255.221212 209.657212 
L 258.240693 219.810923 
L 261.581523 218.507115 
L 264.725849 202.862487 
L 267.868755 202.044169 
L 270.728058 210.300528 
L 273.621524 216.346305 
L 276.665568 217.261852 
L 279.65408 222.183544 
L 282.493856 215.590495 
L 285.489282 220.991175 
L 288.399448 215.941696 
L 291.335177 212.199299 
L 294.209998 210.608984 
L 297.210437 223.549951 
L 300.212819 214.49005 
L 303.235656 219.73907 
L 306.557976 210.776245 
L 309.672065 229.464146 
L 312.697139 227.312552 
L 315.699124 228.216674 
L 318.902106 211.768083 
L 322.063487 225.841097 
L 325.845687 232.378798 
L 328.765762 225.063711 
L 331.728198 225.62402 
L 334.546926 233.497004 
L 337.306415 222.68731 
L 339.984003 236.715775 
L 342.762288 242.116364 
L 345.646503 239.392403 
L 348.333553 230.754685 
L 351.008187 238.159047 
L 353.672335 230.459347 
L 356.324758 232.979749 
L 359.051758 223.690785 
L 361.867215 225.359488 
L 364.637428 231.305273 
L 367.272111 239.535207 
L 369.998562 236.535763 
" clip-path="url(#pbc5fd093e3)" style="fill: none; stroke-dasharray: 0.5,0.825; stroke-dashoffset: 0; stroke: #000000; stroke-width: 0.5"/>
    <g clip-path="url(#pbc5fd093e3)">
     <use xlink:href="#m7eecbe5a7e" x="69.218182" y="60.241322" style="stroke: #000000"/>
     <use xlink:href="#m7eecbe5a7e" x="72.403389" y="91.3291" style="stroke: #000000"/>
     <use xlink:href="#m7eecbe5a7e" x="75.802991" y="94.330432" style="stroke: #000000"/>
     <use xlink:href="#m7eecbe5a7e" x="78.746144" y="92.159457" style="stroke: #000000"/>
     <use xlink:href="#m7eecbe5a7e" x="81.859723" y="99.623652" style="stroke: #000000"/>
     <use xlink:href="#m7eecbe5a7e" x="85.097789" y="116.928149" style="stroke: #000000"/>
     <use xlink:href="#m7eecbe5a7e" x="88.097472" y="117.262105" style="stroke: #000000"/>
     <use xlink:href="#m7eecbe5a7e" x="91.060492" y="151.344974" style="stroke: #000000"/>
     <use xlink:href="#m7eecbe5a7e" x="94.544731" y="123.626125" style="stroke: #000000"/>
     <use xlink:href="#m7eecbe5a7e" x="97.581552" y="125.658626" style="stroke: #000000"/>
     <use xlink:href="#m7eecbe5a7e" x="100.690219" y="144.435135" style="stroke: #000000"/>
     <use xlink:href="#m7eecbe5a7e" x="103.726268" y="144.206575" style="stroke: #000000"/>
     <use xlink:href="#m7eecbe5a7e" x="106.599258" y="155.657119" style="stroke: #000000"/>
     <use xlink:href="#m7eecbe5a7e" x="109.878174" y="150.638614" style="stroke: #000000"/>
     <use xlink:href="#m7eecbe5a7e" x="112.832388" y="156.962394" style="stroke: #000000"/>
     <use xlink:href="#m7eecbe5a7e" x="115.894834" y="159.249667" style="stroke: #000000"/>
     <use xlink:href="#m7eecbe5a7e" x="118.915275" y="158.650581" style="stroke: #000000"/>
     <use xlink:href="#m7eecbe5a7e" x="122.270333" y="169.577119" style="stroke: #000000"/>
     <use xlink:href="#m7eecbe5a7e" x="125.234629" y="171.786567" style="stroke: #000000"/>
     <use xlink:href="#m7eecbe5a7e" x="128.352857" y="169.223028" style="stroke: #000000"/>
     <use xlink:href="#m7eecbe5a7e" x="131.378081" y="153.017881" style="stroke: #000000"/>
     <use xlink:href="#m7eecbe5a7e" x="134.374672" y="185.273341" style="stroke: #000000"/>
     <use xlink:href="#m7eecbe5a7e" x="137.47972" y="176.153789" style="stroke: #000000"/>
     <use xlink:href="#m7eecbe5a7e" x="140.356614" y="179.856283" style="stroke: #000000"/>
     <use xlink:href="#m7eecbe5a7e" x="143.333726" y="168.370782" style="stroke: #000000"/>
     <use xlink:href="#m7eecbe5a7e" x="146.455658" y="170.032836" style="stroke: #000000"/>
     <use xlink:href="#m7eecbe5a7e" x="149.452077" y="178.860462" style="stroke: #000000"/>
     <use xlink:href="#m7eecbe5a7e" x="152.585605" y="156.090433" style="stroke: #000000"/>
     <use xlink:href="#m7eecbe5a7e" x="155.417561" y="173.836464" style="stroke: #000000"/>
     <use xlink:href="#m7eecbe5a7e" x="158.466664" y="183.05708" style="stroke: #000000"/>
     <use xlink:href="#m7eecbe5a7e" x="161.689358" y="185.992489" style="stroke: #000000"/>
     <use xlink:href="#m7eecbe5a7e" x="165.284891" y="192.063246" style="stroke: #000000"/>
     <use xlink:href="#m7eecbe5a7e" x="168.38117" y="177.145195" style="stroke: #000000"/>
     <use xlink:href="#m7eecbe5a7e" x="171.353543" y="163.965933" style="stroke: #000000"/>
     <use xlink:href="#m7eecbe5a7e" x="174.744449" y="181.21612" style="stroke: #000000"/>
     <use xlink:href="#m7eecbe5a7e" x="177.636118" y="196.9318" style="stroke: #000000"/>
     <use xlink:href="#m7eecbe5a7e" x="180.614323" y="172.922373" style="stroke: #000000"/>
     <use xlink:href="#m7eecbe5a7e" x="183.600969" y="200.974455" style="stroke: #000000"/>
     <use xlink:href="#m7eecbe5a7e" x="186.560763" y="182.703456" style="stroke: #000000"/>
     <use xlink:href="#m7eecbe5a7e" x="189.9775" y="193.997373" style="stroke: #000000"/>
     <use xlink:href="#m7eecbe5a7e" x="193.085901" y="204.12288" style="stroke: #000000"/>
     <use xlink:href="#m7eecbe5a7e" x="196.123338" y="213.391743" style="stroke: #000000"/>
     <use xlink:href="#m7eecbe5a7e" x="199.121233" y="188.797245" style="stroke: #000000"/>
     <use xlink:href="#m7eecbe5a7e" x="202.847697" y="202.145393" style="stroke: #000000"/>
     <use xlink:href="#m7eecbe5a7e" x="206.153278" y="189.343009" style="stroke: #000000"/>
     <use xlink:href="#m7eecbe5a7e" x="209.523084" y="183.806974" style="stroke: #000000"/>
     <use xlink:href="#m7eecbe5a7e" x="212.687944" y="197.021129" style="stroke: #000000"/>
     <use xlink:href="#m7eecbe5a7e" x="215.721447" y="189.795381" style="stroke: #000000"/>
     <use xlink:href="#m7eecbe5a7e" x="218.653432" y="199.091359" style="stroke: #000000"/>
     <use xlink:href="#m7eecbe5a7e" x="221.782816" y="194.008397" style="stroke: #000000"/>
     <use xlink:href="#m7eecbe5a7e" x="224.832915" y="205.441087" style="stroke: #000000"/>
     <use xlink:href="#m7eecbe5a7e" x="227.735707" y="215.621198" style="stroke: #000000"/>
     <use xlink:href="#m7eecbe5a7e" x="230.609213" y="210.713895" style="stroke: #000000"/>
     <use xlink:href="#m7eecbe5a7e" x="233.793208" y="212.219497" style="stroke: #000000"/>
     <use xlink:href="#m7eecbe5a7e" x="236.750156" y="202.944092" style="stroke: #000000"/>
     <use xlink:href="#m7eecbe5a7e" x="240.073368" y="214.048267" style="stroke: #000000"/>
     <use xlink:href="#m7eecbe5a7e" x="242.938924" y="204.998751" style="stroke: #000000"/>
     <use xlink:href="#m7eecbe5a7e" x="245.898253" y="198.657757" style="stroke: #000000"/>
     <use xlink:href="#m7eecbe5a7e" x="248.932305" y="219.038971" style="stroke: #000000"/>
     <use xlink:href="#m7eecbe5a7e" x="252.151845" y="206.858884" style="stroke: #000000"/>
     <use xlink:href="#m7eecbe5a7e" x="255.221212" y="209.657212" style="stroke: #000000"/>
     <use xlink:href="#m7eecbe5a7e" x="258.240693" y="219.810923" style="stroke: #000000"/>
     <use xlink:href="#m7eecbe5a7e" x="261.581523" y="218.507115" style="stroke: #000000"/>
     <use xlink:href="#m7eecbe5a7e" x="264.725849" y="202.862487" style="stroke: #000000"/>
     <use xlink:href="#m7eecbe5a7e" x="267.868755" y="202.044169" style="stroke: #000000"/>
     <use xlink:href="#m7eecbe5a7e" x="270.728058" y="210.300528" style="stroke: #000000"/>
     <use xlink:href="#m7eecbe5a7e" x="273.621524" y="216.346305" style="stroke: #000000"/>
     <use xlink:href="#m7eecbe5a7e" x="276.665568" y="217.261852" style="stroke: #000000"/>
     <use xlink:href="#m7eecbe5a7e" x="279.65408" y="222.183544" style="stroke: #000000"/>
     <use xlink:href="#m7eecbe5a7e" x="282.493856" y="215.590495" style="stroke: #000000"/>
     <use xlink:href="#m7eecbe5a7e" x="285.489282" y="220.991175" style="stroke: #000000"/>
     <use xlink:href="#m7eecbe5a7e" x="288.399448" y="215.941696" style="stroke: #000000"/>
     <use xlink:href="#m7eecbe5a7e" x="291.335177" y="212.199299" style="stroke: #000000"/>
     <use xlink:href="#m7eecbe5a7e" x="294.209998" y="210.608984" style="stroke: #000000"/>
     <use xlink:href="#m7eecbe5a7e" x="297.210437" y="223.549951" style="stroke: #000000"/>
     <use xlink:href="#m7eecbe5a7e" x="300.212819" y="214.49005" style="stroke: #000000"/>
     <use xlink:href="#m7eecbe5a7e" x="303.235656" y="219.73907" style="stroke: #000000"/>
     <use xlink:href="#m7eecbe5a7e" x="306.557976" y="210.776245" style="stroke: #000000"/>
     <use xlink:href="#m7eecbe5a7e" x="309.672065" y="229.464146" style="stroke: #000000"/>
     <use xlink:href="#m7eecbe5a7e" x="312.697139" y="227.312552" style="stroke: #000000"/>
     <use xlink:href="#m7eecbe5a7e" x="315.699124" y="228.216674" style="stroke: #000000"/>
     <use xlink:href="#m7eecbe5a7e" x="318.902106" y="211.768083" style="stroke: #000000"/>
     <use xlink:href="#m7eecbe5a7e" x="322.063487" y="225.841097" style="stroke: #000000"/>
     <use xlink:href="#m7eecbe5a7e" x="325.845687" y="232.378798" style="stroke: #000000"/>
     <use xlink:href="#m7eecbe5a7e" x="328.765762" y="225.063711" style="stroke: #000000"/>
     <use xlink:href="#m7eecbe5a7e" x="331.728198" y="225.62402" style="stroke: #000000"/>
     <use xlink:href="#m7eecbe5a7e" x="334.546926" y="233.497004" style="stroke: #000000"/>
     <use xlink:href="#m7eecbe5a7e" x="337.306415" y="222.68731" style="stroke: #000000"/>
     <use xlink:href="#m7eecbe5a7e" x="339.984003" y="236.715775" style="stroke: #000000"/>
     <use xlink:href="#m7eecbe5a7e" x="342.762288" y="242.116364" style="stroke: #000000"/>
     <use xlink:href="#m7eecbe5a7e" x="345.646503" y="239.392403" style="stroke: #000000"/>
     <use xlink:href="#m7eecbe5a7e" x="348.333553" y="230.754685" style="stroke: #000000"/>
     <use xlink:href="#m7eecbe5a7e" x="351.008187" y="238.159047" style="stroke: #000000"/>
     <use xlink:href="#m7eecbe5a7e" x="353.672335" y="230.459347" style="stroke: #000000"/>
     <use xlink:href="#m7eecbe5a7e" x="356.324758" y="232.979749" style="stroke: #000000"/>
     <use xlink:href="#m7eecbe5a7e" x="359.051758" y="223.690785" style="stroke: #000000"/>
     <use xlink:href="#m7eecbe5a7e" x="361.867215" y="225.359488" style="stroke: #000000"/>
     <use xlink:href="#m7eecbe5a7e" x="364.637428" y="231.305273" style="stroke: #000000"/>
     <use xlink:href="#m7eecbe5a7e" x="367.272111" y="239.535207" style="stroke: #000000"/>
     <use xlink:href="#m7eecbe5a7e" x="369.998562" y="236.535763" style="stroke: #000000"/>
    </g>
   </g>
   <g id="line2d_23">
    <path d="M 69.543193 79.89908 
L 73.541009 88.116211 
L 76.686444 116.386731 
L 79.747661 114.936312 
L 83.136762 114.098892 
L 86.19517 148.807343 
L 89.126772 134.547789 
L 92.356582 137.3039 
L 95.447571 138.442612 
L 98.329441 139.929147 
L 101.532173 126.090868 
L 104.498176 132.986296 
L 107.71716 136.889736 
L 111.025658 152.914751 
L 113.947602 149.939742 
L 116.923756 157.819299 
L 119.787219 159.565509 
L 123.036971 159.383705 
L 126.03398 164.698214 
L 129.216362 138.837627 
L 132.248936 175.450702 
L 135.413249 173.32072 
L 138.302077 178.576197 
L 141.321728 175.177242 
L 144.442414 162.129834 
L 147.649097 166.436071 
L 150.77781 177.542162 
L 153.806375 166.816787 
L 156.676272 177.636972 
L 159.645594 172.161854 
L 162.490376 177.125688 
L 165.538731 166.173567 
L 168.458367 174.186598 
L 171.547189 180.955138 
L 174.935747 178.937356 
L 178.029837 191.048795 
L 181.037452 186.054579 
L 184.142648 175.217705 
L 187.304044 172.276072 
L 190.309247 175.321375 
L 193.776773 178.194098 
L 196.641216 175.167404 
L 199.618204 190.050354 
L 202.553229 184.717253 
L 205.303188 186.610836 
L 208.082901 195.667579 
L 210.80762 186.829832 
L 213.547182 190.833834 
L 216.295276 180.396199 
L 218.997548 195.605375 
L 221.725785 186.245915 
L 224.396355 185.641115 
L 227.107684 187.366287 
L 229.892195 185.099336 
L 232.69632 205.12321 
L 235.340875 198.355589 
L 238.036876 194.016219 
L 240.653396 199.820546 
L 243.137682 190.971205 
L 245.684128 195.521126 
L 248.232285 194.254299 
L 250.802912 198.641066 
L 253.678759 200.449838 
L 256.334468 204.46734 
L 258.835041 202.938694 
L 261.28811 204.936249 
L 263.895845 215.444696 
L 266.368825 209.51159 
L 268.842377 199.227605 
L 271.345209 189.358033 
L 273.86519 188.683693 
L 276.407768 201.701255 
L 278.91882 211.550915 
L 281.401699 208.866014 
L 284.032719 215.46678 
L 286.678741 202.805663 
L 289.266413 202.030809 
L 291.760379 204.63902 
L 294.229753 195.069183 
L 296.728065 221.490096 
L 299.202428 204.461829 
L 301.664267 203.674643 
L 304.162519 193.658886 
L 306.60137 205.934453 
L 309.167103 218.0662 
L 311.716243 204.076143 
L 314.185872 215.561764 
L 316.763976 225.950491 
L 319.290018 204.238358 
L 321.880726 209.312171 
L 324.337719 213.89155 
L 326.787972 210.764535 
L 329.269875 220.539014 
L 331.781187 223.937128 
L 334.327032 211.123539 
L 337.020113 221.51409 
L 339.452778 212.269074 
L 341.988029 203.683618 
L 344.580712 218.374974 
L 347.010935 224.416251 
" clip-path="url(#pbc5fd093e3)" style="fill: none; stroke-dasharray: 3.2,0.8,0.5,0.8; stroke-dashoffset: 0; stroke: #000000; stroke-width: 0.5"/>
    <g clip-path="url(#pbc5fd093e3)">
     <use xlink:href="#m7eecbe5a7e" x="69.543193" y="79.89908" style="stroke: #000000"/>
     <use xlink:href="#m7eecbe5a7e" x="73.541009" y="88.116211" style="stroke: #000000"/>
     <use xlink:href="#m7eecbe5a7e" x="76.686444" y="116.386731" style="stroke: #000000"/>
     <use xlink:href="#m7eecbe5a7e" x="79.747661" y="114.936312" style="stroke: #000000"/>
     <use xlink:href="#m7eecbe5a7e" x="83.136762" y="114.098892" style="stroke: #000000"/>
     <use xlink:href="#m7eecbe5a7e" x="86.19517" y="148.807343" style="stroke: #000000"/>
     <use xlink:href="#m7eecbe5a7e" x="89.126772" y="134.547789" style="stroke: #000000"/>
     <use xlink:href="#m7eecbe5a7e" x="92.356582" y="137.3039" style="stroke: #000000"/>
     <use xlink:href="#m7eecbe5a7e" x="95.447571" y="138.442612" style="stroke: #000000"/>
     <use xlink:href="#m7eecbe5a7e" x="98.329441" y="139.929147" style="stroke: #000000"/>
     <use xlink:href="#m7eecbe5a7e" x="101.532173" y="126.090868" style="stroke: #000000"/>
     <use xlink:href="#m7eecbe5a7e" x="104.498176" y="132.986296" style="stroke: #000000"/>
     <use xlink:href="#m7eecbe5a7e" x="107.71716" y="136.889736" style="stroke: #000000"/>
     <use xlink:href="#m7eecbe5a7e" x="111.025658" y="152.914751" style="stroke: #000000"/>
     <use xlink:href="#m7eecbe5a7e" x="113.947602" y="149.939742" style="stroke: #000000"/>
     <use xlink:href="#m7eecbe5a7e" x="116.923756" y="157.819299" style="stroke: #000000"/>
     <use xlink:href="#m7eecbe5a7e" x="119.787219" y="159.565509" style="stroke: #000000"/>
     <use xlink:href="#m7eecbe5a7e" x="123.036971" y="159.383705" style="stroke: #000000"/>
     <use xlink:href="#m7eecbe5a7e" x="126.03398" y="164.698214" style="stroke: #000000"/>
     <use xlink:href="#m7eecbe5a7e" x="129.216362" y="138.837627" style="stroke: #000000"/>
     <use xlink:href="#m7eecbe5a7e" x="132.248936" y="175.450702" style="stroke: #000000"/>
     <use xlink:href="#m7eecbe5a7e" x="135.413249" y="173.32072" style="stroke: #000000"/>
     <use xlink:href="#m7eecbe5a7e" x="138.302077" y="178.576197" style="stroke: #000000"/>
     <use xlink:href="#m7eecbe5a7e" x="141.321728" y="175.177242" style="stroke: #000000"/>
     <use xlink:href="#m7eecbe5a7e" x="144.442414" y="162.129834" style="stroke: #000000"/>
     <use xlink:href="#m7eecbe5a7e" x="147.649097" y="166.436071" style="stroke: #000000"/>
     <use xlink:href="#m7eecbe5a7e" x="150.77781" y="177.542162" style="stroke: #000000"/>
     <use xlink:href="#m7eecbe5a7e" x="153.806375" y="166.816787" style="stroke: #000000"/>
     <use xlink:href="#m7eecbe5a7e" x="156.676272" y="177.636972" style="stroke: #000000"/>
     <use xlink:href="#m7eecbe5a7e" x="159.645594" y="172.161854" style="stroke: #000000"/>
     <use xlink:href="#m7eecbe5a7e" x="162.490376" y="177.125688" style="stroke: #000000"/>
     <use xlink:href="#m7eecbe5a7e" x="165.538731" y="166.173567" style="stroke: #000000"/>
     <use xlink:href="#m7eecbe5a7e" x="168.458367" y="174.186598" style="stroke: #000000"/>
     <use xlink:href="#m7eecbe5a7e" x="171.547189" y="180.955138" style="stroke: #000000"/>
     <use xlink:href="#m7eecbe5a7e" x="174.935747" y="178.937356" style="stroke: #000000"/>
     <use xlink:href="#m7eecbe5a7e" x="178.029837" y="191.048795" style="stroke: #000000"/>
     <use xlink:href="#m7eecbe5a7e" x="181.037452" y="186.054579" style="stroke: #000000"/>
     <use xlink:href="#m7eecbe5a7e" x="184.142648" y="175.217705" style="stroke: #000000"/>
     <use xlink:href="#m7eecbe5a7e" x="187.304044" y="172.276072" style="stroke: #000000"/>
     <use xlink:href="#m7eecbe5a7e" x="190.309247" y="175.321375" style="stroke: #000000"/>
     <use xlink:href="#m7eecbe5a7e" x="193.776773" y="178.194098" style="stroke: #000000"/>
     <use xlink:href="#m7eecbe5a7e" x="196.641216" y="175.167404" style="stroke: #000000"/>
     <use xlink:href="#m7eecbe5a7e" x="199.618204" y="190.050354" style="stroke: #000000"/>
     <use xlink:href="#m7eecbe5a7e" x="202.553229" y="184.717253" style="stroke: #000000"/>
     <use xlink:href="#m7eecbe5a7e" x="205.303188" y="186.610836" style="stroke: #000000"/>
     <use xlink:href="#m7eecbe5a7e" x="208.082901" y="195.667579" style="stroke: #000000"/>
     <use xlink:href="#m7eecbe5a7e" x="210.80762" y="186.829832" style="stroke: #000000"/>
     <use xlink:href="#m7eecbe5a7e" x="213.547182" y="190.833834" style="stroke: #000000"/>
     <use xlink:href="#m7eecbe5a7e" x="216.295276" y="180.396199" style="stroke: #000000"/>
     <use xlink:href="#m7eecbe5a7e" x="218.997548" y="195.605375" style="stroke: #000000"/>
     <use xlink:href="#m7eecbe5a7e" x="221.725785" y="186.245915" style="stroke: #000000"/>
     <use xlink:href="#m7eecbe5a7e" x="224.396355" y="185.641115" style="stroke: #000000"/>
     <use xlink:href="#m7eecbe5a7e" x="227.107684" y="187.366287" style="stroke: #000000"/>
     <use xlink:href="#m7eecbe5a7e" x="229.892195" y="185.099336" style="stroke: #000000"/>
     <use xlink:href="#m7eecbe5a7e" x="232.69632" y="205.12321" style="stroke: #000000"/>
     <use xlink:href="#m7eecbe5a7e" x="235.340875" y="198.355589" style="stroke: #000000"/>
     <use xlink:href="#m7eecbe5a7e" x="238.036876" y="194.016219" style="stroke: #000000"/>
     <use xlink:href="#m7eecbe5a7e" x="240.653396" y="199.820546" style="stroke: #000000"/>
     <use xlink:href="#m7eecbe5a7e" x="243.137682" y="190.971205" style="stroke: #000000"/>
     <use xlink:href="#m7eecbe5a7e" x="245.684128" y="195.521126" style="stroke: #000000"/>
     <use xlink:href="#m7eecbe5a7e" x="248.232285" y="194.254299" style="stroke: #000000"/>
     <use xlink:href="#m7eecbe5a7e" x="250.802912" y="198.641066" style="stroke: #000000"/>
     <use xlink:href="#m7eecbe5a7e" x="253.678759" y="200.449838" style="stroke: #000000"/>
     <use xlink:href="#m7eecbe5a7e" x="256.334468" y="204.46734" style="stroke: #000000"/>
     <use xlink:href="#m7eecbe5a7e" x="258.835041" y="202.938694" style="stroke: #000000"/>
     <use xlink:href="#m7eecbe5a7e" x="261.28811" y="204.936249" style="stroke: #000000"/>
     <use xlink:href="#m7eecbe5a7e" x="263.895845" y="215.444696" style="stroke: #000000"/>
     <use xlink:href="#m7eecbe5a7e" x="266.368825" y="209.51159" style="stroke: #000000"/>
     <use xlink:href="#m7eecbe5a7e" x="268.842377" y="199.227605" style="stroke: #000000"/>
     <use xlink:href="#m7eecbe5a7e" x="271.345209" y="189.358033" style="stroke: #000000"/>
     <use xlink:href="#m7eecbe5a7e" x="273.86519" y="188.683693" style="stroke: #000000"/>
     <use xlink:href="#m7eecbe5a7e" x="276.407768" y="201.701255" style="stroke: #000000"/>
     <use xlink:href="#m7eecbe5a7e" x="278.91882" y="211.550915" style="stroke: #000000"/>
     <use xlink:href="#m7eecbe5a7e" x="281.401699" y="208.866014" style="stroke: #000000"/>
     <use xlink:href="#m7eecbe5a7e" x="284.032719" y="215.46678" style="stroke: #000000"/>
     <use xlink:href="#m7eecbe5a7e" x="286.678741" y="202.805663" style="stroke: #000000"/>
     <use xlink:href="#m7eecbe5a7e" x="289.266413" y="202.030809" style="stroke: #000000"/>
     <use xlink:href="#m7eecbe5a7e" x="291.760379" y="204.63902" style="stroke: #000000"/>
     <use xlink:href="#m7eecbe5a7e" x="294.229753" y="195.069183" style="stroke: #000000"/>
     <use xlink:href="#m7eecbe5a7e" x="296.728065" y="221.490096" style="stroke: #000000"/>
     <use xlink:href="#m7eecbe5a7e" x="299.202428" y="204.461829" style="stroke: #000000"/>
     <use xlink:href="#m7eecbe5a7e" x="301.664267" y="203.674643" style="stroke: #000000"/>
     <use xlink:href="#m7eecbe5a7e" x="304.162519" y="193.658886" style="stroke: #000000"/>
     <use xlink:href="#m7eecbe5a7e" x="306.60137" y="205.934453" style="stroke: #000000"/>
     <use xlink:href="#m7eecbe5a7e" x="309.167103" y="218.0662" style="stroke: #000000"/>
     <use xlink:href="#m7eecbe5a7e" x="311.716243" y="204.076143" style="stroke: #000000"/>
     <use xlink:href="#m7eecbe5a7e" x="314.185872" y="215.561764" style="stroke: #000000"/>
     <use xlink:href="#m7eecbe5a7e" x="316.763976" y="225.950491" style="stroke: #000000"/>
     <use xlink:href="#m7eecbe5a7e" x="319.290018" y="204.238358" style="stroke: #000000"/>
     <use xlink:href="#m7eecbe5a7e" x="321.880726" y="209.312171" style="stroke: #000000"/>
     <use xlink:href="#m7eecbe5a7e" x="324.337719" y="213.89155" style="stroke: #000000"/>
     <use xlink:href="#m7eecbe5a7e" x="326.787972" y="210.764535" style="stroke: #000000"/>
     <use xlink:href="#m7eecbe5a7e" x="329.269875" y="220.539014" style="stroke: #000000"/>
     <use xlink:href="#m7eecbe5a7e" x="331.781187" y="223.937128" style="stroke: #000000"/>
     <use xlink:href="#m7eecbe5a7e" x="334.327032" y="211.123539" style="stroke: #000000"/>
     <use xlink:href="#m7eecbe5a7e" x="337.020113" y="221.51409" style="stroke: #000000"/>
     <use xlink:href="#m7eecbe5a7e" x="339.452778" y="212.269074" style="stroke: #000000"/>
     <use xlink:href="#m7eecbe5a7e" x="341.988029" y="203.683618" style="stroke: #000000"/>
     <use xlink:href="#m7eecbe5a7e" x="344.580712" y="218.374974" style="stroke: #000000"/>
     <use xlink:href="#m7eecbe5a7e" x="347.010935" y="224.416251" style="stroke: #000000"/>
    </g>
   </g>
   <g id="patch_3">
    <path d="M 54 252 
L 54 34.56 
" style="fill: none; stroke: #000000; stroke-width: 0.8; stroke-linejoin: miter; stroke-linecap: square"/>
   </g>
   <g id="patch_4">
    <path d="M 388.8 252 
L 388.8 34.56 
" style="fill: none; stroke: #000000; stroke-width: 0.8; stroke-linejoin: miter; stroke-linecap: square"/>
   </g>
   <g id="patch_5">
    <path d="M 54 252 
L 388.8 252 
" style="fill: none; stroke: #000000; stroke-width: 0.8; stroke-linejoin: miter; stroke-linecap: square"/>
   </g>
   <g id="patch_6">
    <path d="M 54 34.56 
L 388.8 34.56 
" style="fill: none; stroke: #000000; stroke-width: 0.8; stroke-linejoin: miter; stroke-linecap: square"/>
   </g>
   <g id="legend_1">
    <g id="patch_7">
     <path d="M 255.432813 159.985 
L 381.8 159.985 
Q 383.8 159.985 383.8 157.985 
L 383.8 41.56 
Q 383.8 39.56 381.8 39.56 
L 255.432813 39.56 
Q 253.432813 39.56 253.432813 41.56 
L 253.432813 157.985 
Q 253.432813 159.985 255.432813 159.985 
z
" style="fill: #ffffff; opacity: 0.8; stroke: #cccccc; stroke-linejoin: miter"/>
    </g>
    <g id="line2d_24">
     <path d="M 257.432813 47.658437 
L 267.432813 47.658437 
L 277.432813 47.658437 
" style="fill: none; stroke: #000000; stroke-width: 0.5; stroke-linecap: square"/>
    </g>
    <g id="text_9">
     <!-- RM -->
     <g transform="translate(285.432813 51.158437)scale(0.1 -0.1)">
      <defs>
       <path id="DejaVuSans-52" d="M 2841 2188 
Q 3044 2119 3236 1894 
Q 3428 1669 3622 1275 
L 4263 0 
L 3584 0 
L 2988 1197 
Q 2756 1666 2539 1819 
Q 2322 1972 1947 1972 
L 1259 1972 
L 1259 0 
L 628 0 
L 628 4666 
L 2053 4666 
Q 2853 4666 3247 4331 
Q 3641 3997 3641 3322 
Q 3641 2881 3436 2590 
Q 3231 2300 2841 2188 
z
M 1259 4147 
L 1259 2491 
L 2053 2491 
Q 2509 2491 2742 2702 
Q 2975 2913 2975 3322 
Q 2975 3731 2742 3939 
Q 2509 4147 2053 4147 
L 1259 4147 
z
" transform="scale(0.015625)"/>
       <path id="DejaVuSans-4d" d="M 628 4666 
L 1569 4666 
L 2759 1491 
L 3956 4666 
L 4897 4666 
L 4897 0 
L 4281 0 
L 4281 4097 
L 3078 897 
L 2444 897 
L 1241 4097 
L 1241 0 
L 628 0 
L 628 4666 
z
" transform="scale(0.015625)"/>
      </defs>
      <use xlink:href="#DejaVuSans-52"/>
      <use xlink:href="#DejaVuSans-4d" x="69.482422"/>
     </g>
    </g>
    <g id="line2d_25">
     <path d="M 257.432813 62.336563 
L 267.432813 62.336563 
L 277.432813 62.336563 
" style="fill: none; stroke-dasharray: 1.85,0.8; stroke-dashoffset: 0; stroke: #000000; stroke-width: 0.5"/>
    </g>
    <g id="text_10">
     <!-- RM, shift -->
     <g transform="translate(285.432813 65.836563)scale(0.1 -0.1)">
      <defs>
       <path id="DejaVuSans-2c" d="M 750 794 
L 1409 794 
L 1409 256 
L 897 -744 
L 494 -744 
L 750 256 
L 750 794 
z
" transform="scale(0.015625)"/>
       <path id="DejaVuSans-66" d="M 2375 4863 
L 2375 4384 
L 1825 4384 
Q 1516 4384 1395 4259 
Q 1275 4134 1275 3809 
L 1275 3500 
L 2222 3500 
L 2222 3053 
L 1275 3053 
L 1275 0 
L 697 0 
L 697 3053 
L 147 3053 
L 147 3500 
L 697 3500 
L 697 3744 
Q 697 4328 969 4595 
Q 1241 4863 1831 4863 
L 2375 4863 
z
" transform="scale(0.015625)"/>
      </defs>
      <use xlink:href="#DejaVuSans-52"/>
      <use xlink:href="#DejaVuSans-4d" x="69.482422"/>
      <use xlink:href="#DejaVuSans-2c" x="155.761719"/>
      <use xlink:href="#DejaVuSans-20" x="187.548828"/>
      <use xlink:href="#DejaVuSans-73" x="219.335938"/>
      <use xlink:href="#DejaVuSans-68" x="271.435547"/>
      <use xlink:href="#DejaVuSans-69" x="334.814453"/>
      <use xlink:href="#DejaVuSans-66" x="362.597656"/>
      <use xlink:href="#DejaVuSans-74" x="396.052734"/>
     </g>
    </g>
    <g id="line2d_26">
     <path d="M 257.432813 77.014687 
L 267.432813 77.014687 
L 277.432813 77.014687 
" style="fill: none; stroke-dasharray: 0.5,0.825; stroke-dashoffset: 0; stroke: #000000; stroke-width: 0.5"/>
    </g>
    <g id="text_11">
     <!-- RM, softmax -->
     <g transform="translate(285.432813 80.514687)scale(0.1 -0.1)">
      <defs>
       <path id="DejaVuSans-78" d="M 3513 3500 
L 2247 1797 
L 3578 0 
L 2900 0 
L 1881 1375 
L 863 0 
L 184 0 
L 1544 1831 
L 300 3500 
L 978 3500 
L 1906 2253 
L 2834 3500 
L 3513 3500 
z
" transform="scale(0.015625)"/>
      </defs>
      <use xlink:href="#DejaVuSans-52"/>
      <use xlink:href="#DejaVuSans-4d" x="69.482422"/>
      <use xlink:href="#DejaVuSans-2c" x="155.761719"/>
      <use xlink:href="#DejaVuSans-20" x="187.548828"/>
      <use xlink:href="#DejaVuSans-73" x="219.335938"/>
      <use xlink:href="#DejaVuSans-6f" x="271.435547"/>
      <use xlink:href="#DejaVuSans-66" x="332.617188"/>
      <use xlink:href="#DejaVuSans-74" x="366.072266"/>
      <use xlink:href="#DejaVuSans-6d" x="405.28125"/>
      <use xlink:href="#DejaVuSans-61" x="502.693359"/>
      <use xlink:href="#DejaVuSans-78" x="563.972656"/>
     </g>
    </g>
    <g id="line2d_27">
     <path d="M 257.432813 91.692813 
L 267.432813 91.692813 
L 277.432813 91.692813 
" style="fill: none; stroke-dasharray: 3.2,0.8,0.5,0.8; stroke-dashoffset: 0; stroke: #000000; stroke-width: 0.5"/>
    </g>
    <g id="text_12">
     <!-- RM, softmax, shift -->
     <g transform="translate(285.432813 95.192813)scale(0.1 -0.1)">
      <use xlink:href="#DejaVuSans-52"/>
      <use xlink:href="#DejaVuSans-4d" x="69.482422"/>
      <use xlink:href="#DejaVuSans-2c" x="155.761719"/>
      <use xlink:href="#DejaVuSans-20" x="187.548828"/>
      <use xlink:href="#DejaVuSans-73" x="219.335938"/>
      <use xlink:href="#DejaVuSans-6f" x="271.435547"/>
      <use xlink:href="#DejaVuSans-66" x="332.617188"/>
      <use xlink:href="#DejaVuSans-74" x="366.072266"/>
      <use xlink:href="#DejaVuSans-6d" x="405.28125"/>
      <use xlink:href="#DejaVuSans-61" x="502.693359"/>
      <use xlink:href="#DejaVuSans-78" x="563.972656"/>
      <use xlink:href="#DejaVuSans-2c" x="623.152344"/>
      <use xlink:href="#DejaVuSans-20" x="654.939453"/>
      <use xlink:href="#DejaVuSans-73" x="686.726562"/>
      <use xlink:href="#DejaVuSans-68" x="738.826172"/>
      <use xlink:href="#DejaVuSans-69" x="802.205078"/>
      <use xlink:href="#DejaVuSans-66" x="829.988281"/>
      <use xlink:href="#DejaVuSans-74" x="863.443359"/>
     </g>
    </g>
    <g id="line2d_28">
     <path d="M 257.432813 106.370937 
L 267.432813 106.370937 
L 277.432813 106.370937 
" style="fill: none; stroke: #000000; stroke-width: 0.5; stroke-linecap: square"/>
     <g>
      <use xlink:href="#m7eecbe5a7e" x="267.432813" y="106.370937" style="stroke: #000000"/>
     </g>
    </g>
    <g id="text_13">
     <!-- CFR -->
     <g transform="translate(285.432813 109.870937)scale(0.1 -0.1)">
      <defs>
       <path id="DejaVuSans-46" d="M 628 4666 
L 3309 4666 
L 3309 4134 
L 1259 4134 
L 1259 2759 
L 3109 2759 
L 3109 2228 
L 1259 2228 
L 1259 0 
L 628 0 
L 628 4666 
z
" transform="scale(0.015625)"/>
      </defs>
      <use xlink:href="#DejaVuSans-43"/>
      <use xlink:href="#DejaVuSans-46" x="69.824219"/>
      <use xlink:href="#DejaVuSans-52" x="127.34375"/>
     </g>
    </g>
    <g id="line2d_29">
     <path d="M 257.432813 121.049062 
L 267.432813 121.049062 
L 277.432813 121.049062 
" style="fill: none; stroke-dasharray: 1.85,0.8; stroke-dashoffset: 0; stroke: #000000; stroke-width: 0.5"/>
     <g>
      <use xlink:href="#m7eecbe5a7e" x="267.432813" y="121.049062" style="stroke: #000000"/>
     </g>
    </g>
    <g id="text_14">
     <!-- CFR, shift -->
     <g transform="translate(285.432813 124.549062)scale(0.1 -0.1)">
      <use xlink:href="#DejaVuSans-43"/>
      <use xlink:href="#DejaVuSans-46" x="69.824219"/>
      <use xlink:href="#DejaVuSans-52" x="127.34375"/>
      <use xlink:href="#DejaVuSans-2c" x="196.826172"/>
      <use xlink:href="#DejaVuSans-20" x="228.613281"/>
      <use xlink:href="#DejaVuSans-73" x="260.400391"/>
      <use xlink:href="#DejaVuSans-68" x="312.5"/>
      <use xlink:href="#DejaVuSans-69" x="375.878906"/>
      <use xlink:href="#DejaVuSans-66" x="403.662109"/>
      <use xlink:href="#DejaVuSans-74" x="437.117188"/>
     </g>
    </g>
    <g id="line2d_30">
     <path d="M 257.432813 135.727187 
L 267.432813 135.727187 
L 277.432813 135.727187 
" style="fill: none; stroke-dasharray: 0.5,0.825; stroke-dashoffset: 0; stroke: #000000; stroke-width: 0.5"/>
     <g>
      <use xlink:href="#m7eecbe5a7e" x="267.432813" y="135.727187" style="stroke: #000000"/>
     </g>
    </g>
    <g id="text_15">
     <!-- CFR, softmax -->
     <g transform="translate(285.432813 139.227187)scale(0.1 -0.1)">
      <use xlink:href="#DejaVuSans-43"/>
      <use xlink:href="#DejaVuSans-46" x="69.824219"/>
      <use xlink:href="#DejaVuSans-52" x="127.34375"/>
      <use xlink:href="#DejaVuSans-2c" x="196.826172"/>
      <use xlink:href="#DejaVuSans-20" x="228.613281"/>
      <use xlink:href="#DejaVuSans-73" x="260.400391"/>
      <use xlink:href="#DejaVuSans-6f" x="312.5"/>
      <use xlink:href="#DejaVuSans-66" x="373.681641"/>
      <use xlink:href="#DejaVuSans-74" x="407.136719"/>
      <use xlink:href="#DejaVuSans-6d" x="446.345703"/>
      <use xlink:href="#DejaVuSans-61" x="543.757812"/>
      <use xlink:href="#DejaVuSans-78" x="605.037109"/>
     </g>
    </g>
    <g id="line2d_31">
     <path d="M 257.432813 150.405312 
L 267.432813 150.405312 
L 277.432813 150.405312 
" style="fill: none; stroke-dasharray: 3.2,0.8,0.5,0.8; stroke-dashoffset: 0; stroke: #000000; stroke-width: 0.5"/>
     <g>
      <use xlink:href="#m7eecbe5a7e" x="267.432813" y="150.405312" style="stroke: #000000"/>
     </g>
    </g>
    <g id="text_16">
     <!-- CFR, softmax, shift -->
     <g transform="translate(285.432813 153.905312)scale(0.1 -0.1)">
      <use xlink:href="#DejaVuSans-43"/>
      <use xlink:href="#DejaVuSans-46" x="69.824219"/>
      <use xlink:href="#DejaVuSans-52" x="127.34375"/>
      <use xlink:href="#DejaVuSans-2c" x="196.826172"/>
      <use xlink:href="#DejaVuSans-20" x="228.613281"/>
      <use xlink:href="#DejaVuSans-73" x="260.400391"/>
      <use xlink:href="#DejaVuSans-6f" x="312.5"/>
      <use xlink:href="#DejaVuSans-66" x="373.681641"/>
      <use xlink:href="#DejaVuSans-74" x="407.136719"/>
      <use xlink:href="#DejaVuSans-6d" x="446.345703"/>
      <use xlink:href="#DejaVuSans-61" x="543.757812"/>
      <use xlink:href="#DejaVuSans-78" x="605.037109"/>
      <use xlink:href="#DejaVuSans-2c" x="664.216797"/>
      <use xlink:href="#DejaVuSans-20" x="696.003906"/>
      <use xlink:href="#DejaVuSans-73" x="727.791016"/>
      <use xlink:href="#DejaVuSans-68" x="779.890625"/>
      <use xlink:href="#DejaVuSans-69" x="843.269531"/>
      <use xlink:href="#DejaVuSans-66" x="871.052734"/>
      <use xlink:href="#DejaVuSans-74" x="904.507812"/>
     </g>
    </g>
   </g>
  </g>
 </g>
 <defs>
  <clipPath id="pbc5fd093e3">
   <rect x="54" y="34.56" width="334.8" height="217.44"/>
  </clipPath>
 </defs>
</svg>
