<?xml version="1.0" encoding="utf-8" standalone="no"?>
<!DOCTYPE svg PUBLIC "-//W3C//DTD SVG 1.1//EN"
  "http://www.w3.org/Graphics/SVG/1.1/DTD/svg11.dtd">
<svg xmlns:xlink="http://www.w3.org/1999/xlink" width="432pt" height="288pt" viewBox="0 0 432 288" xmlns="http://www.w3.org/2000/svg" version="1.1">
 <metadata>
  <rdf:RDF xmlns:dc="http://purl.org/dc/elements/1.1/" xmlns:cc="http://creativecommons.org/ns#" xmlns:rdf="http://www.w3.org/1999/02/22-rdf-syntax-ns#">
   <cc:Work>
    <dc:type rdf:resource="http://purl.org/dc/dcmitype/StillImage"/>
    <dc:date>2023-04-17T12:49:40.266013</dc:date>
    <dc:format>image/svg+xml</dc:format>
    <dc:creator>
     <cc:Agent>
      <dc:title>Matplotlib v3.5.1, https://matplotlib.org/</dc:title>
     </cc:Agent>
    </dc:creator>
   </cc:Work>
  </rdf:RDF>
 </metadata>
 <defs>
  <style type="text/css">*{stroke-linejoin: round; stroke-linecap: butt}</style>
 </defs>
 <g id="figure_1">
  <g id="patch_1">
   <path d="M 0 288 
L 432 288 
L 432 0 
L 0 0 
L 0 288 
z
" style="fill: none"/>
  </g>
  <g id="axes_1">
   <g id="patch_2">
    <path d="M 54 252 
L 388.8 252 
L 388.8 34.56 
L 54 34.56 
z
" style="fill: #ffffff"/>
   </g>
   <g id="matplotlib.axis_1">
    <g id="xtick_1">
     <g id="line2d_1">
      <defs>
       <path id="maed6809fd2" d="M 0 0 
L 0 3.5 
" style="stroke: #000000; stroke-width: 0.8"/>
      </defs>
      <g>
       <use xlink:href="#maed6809fd2" x="66.143802" y="252" style="stroke: #000000; stroke-width: 0.8"/>
      </g>
     </g>
     <g id="text_1">
      <!-- 0 -->
      <g transform="translate(62.962552 266.598437)scale(0.1 -0.1)">
       <defs>
        <path id="DejaVuSans-30" d="M 2034 4250 
Q 1547 4250 1301 3770 
Q 1056 3291 1056 2328 
Q 1056 1369 1301 889 
Q 1547 409 2034 409 
Q 2525 409 2770 889 
Q 3016 1369 3016 2328 
Q 3016 3291 2770 3770 
Q 2525 4250 2034 4250 
z
M 2034 4750 
Q 2819 4750 3233 4129 
Q 3647 3509 3647 2328 
Q 3647 1150 3233 529 
Q 2819 -91 2034 -91 
Q 1250 -91 836 529 
Q 422 1150 422 2328 
Q 422 3509 836 4129 
Q 1250 4750 2034 4750 
z
" transform="scale(0.015625)"/>
       </defs>
       <use xlink:href="#DejaVuSans-30"/>
      </g>
     </g>
    </g>
    <g id="xtick_2">
     <g id="line2d_2">
      <g>
       <use xlink:href="#maed6809fd2" x="127.631405" y="252" style="stroke: #000000; stroke-width: 0.8"/>
      </g>
     </g>
     <g id="text_2">
      <!-- 2000 -->
      <g transform="translate(114.906405 266.598437)scale(0.1 -0.1)">
       <defs>
        <path id="DejaVuSans-32" d="M 1228 531 
L 3431 531 
L 3431 0 
L 469 0 
L 469 531 
Q 828 903 1448 1529 
Q 2069 2156 2228 2338 
Q 2531 2678 2651 2914 
Q 2772 3150 2772 3378 
Q 2772 3750 2511 3984 
Q 2250 4219 1831 4219 
Q 1534 4219 1204 4116 
Q 875 4013 500 3803 
L 500 4441 
Q 881 4594 1212 4672 
Q 1544 4750 1819 4750 
Q 2544 4750 2975 4387 
Q 3406 4025 3406 3419 
Q 3406 3131 3298 2873 
Q 3191 2616 2906 2266 
Q 2828 2175 2409 1742 
Q 1991 1309 1228 531 
z
" transform="scale(0.015625)"/>
       </defs>
       <use xlink:href="#DejaVuSans-32"/>
       <use xlink:href="#DejaVuSans-30" x="63.623047"/>
       <use xlink:href="#DejaVuSans-30" x="127.246094"/>
       <use xlink:href="#DejaVuSans-30" x="190.869141"/>
      </g>
     </g>
    </g>
    <g id="xtick_3">
     <g id="line2d_3">
      <g>
       <use xlink:href="#maed6809fd2" x="189.119008" y="252" style="stroke: #000000; stroke-width: 0.8"/>
      </g>
     </g>
     <g id="text_3">
      <!-- 4000 -->
      <g transform="translate(176.394008 266.598437)scale(0.1 -0.1)">
       <defs>
        <path id="DejaVuSans-34" d="M 2419 4116 
L 825 1625 
L 2419 1625 
L 2419 4116 
z
M 2253 4666 
L 3047 4666 
L 3047 1625 
L 3713 1625 
L 3713 1100 
L 3047 1100 
L 3047 0 
L 2419 0 
L 2419 1100 
L 313 1100 
L 313 1709 
L 2253 4666 
z
" transform="scale(0.015625)"/>
       </defs>
       <use xlink:href="#DejaVuSans-34"/>
       <use xlink:href="#DejaVuSans-30" x="63.623047"/>
       <use xlink:href="#DejaVuSans-30" x="127.246094"/>
       <use xlink:href="#DejaVuSans-30" x="190.869141"/>
      </g>
     </g>
    </g>
    <g id="xtick_4">
     <g id="line2d_4">
      <g>
       <use xlink:href="#maed6809fd2" x="250.606612" y="252" style="stroke: #000000; stroke-width: 0.8"/>
      </g>
     </g>
     <g id="text_4">
      <!-- 6000 -->
      <g transform="translate(237.881612 266.598437)scale(0.1 -0.1)">
       <defs>
        <path id="DejaVuSans-36" d="M 2113 2584 
Q 1688 2584 1439 2293 
Q 1191 2003 1191 1497 
Q 1191 994 1439 701 
Q 1688 409 2113 409 
Q 2538 409 2786 701 
Q 3034 994 3034 1497 
Q 3034 2003 2786 2293 
Q 2538 2584 2113 2584 
z
M 3366 4563 
L 3366 3988 
Q 3128 4100 2886 4159 
Q 2644 4219 2406 4219 
Q 1781 4219 1451 3797 
Q 1122 3375 1075 2522 
Q 1259 2794 1537 2939 
Q 1816 3084 2150 3084 
Q 2853 3084 3261 2657 
Q 3669 2231 3669 1497 
Q 3669 778 3244 343 
Q 2819 -91 2113 -91 
Q 1303 -91 875 529 
Q 447 1150 447 2328 
Q 447 3434 972 4092 
Q 1497 4750 2381 4750 
Q 2619 4750 2861 4703 
Q 3103 4656 3366 4563 
z
" transform="scale(0.015625)"/>
       </defs>
       <use xlink:href="#DejaVuSans-36"/>
       <use xlink:href="#DejaVuSans-30" x="63.623047"/>
       <use xlink:href="#DejaVuSans-30" x="127.246094"/>
       <use xlink:href="#DejaVuSans-30" x="190.869141"/>
      </g>
     </g>
    </g>
    <g id="xtick_5">
     <g id="line2d_5">
      <g>
       <use xlink:href="#maed6809fd2" x="312.094215" y="252" style="stroke: #000000; stroke-width: 0.8"/>
      </g>
     </g>
     <g id="text_5">
      <!-- 8000 -->
      <g transform="translate(299.369215 266.598437)scale(0.1 -0.1)">
       <defs>
        <path id="DejaVuSans-38" d="M 2034 2216 
Q 1584 2216 1326 1975 
Q 1069 1734 1069 1313 
Q 1069 891 1326 650 
Q 1584 409 2034 409 
Q 2484 409 2743 651 
Q 3003 894 3003 1313 
Q 3003 1734 2745 1975 
Q 2488 2216 2034 2216 
z
M 1403 2484 
Q 997 2584 770 2862 
Q 544 3141 544 3541 
Q 544 4100 942 4425 
Q 1341 4750 2034 4750 
Q 2731 4750 3128 4425 
Q 3525 4100 3525 3541 
Q 3525 3141 3298 2862 
Q 3072 2584 2669 2484 
Q 3125 2378 3379 2068 
Q 3634 1759 3634 1313 
Q 3634 634 3220 271 
Q 2806 -91 2034 -91 
Q 1263 -91 848 271 
Q 434 634 434 1313 
Q 434 1759 690 2068 
Q 947 2378 1403 2484 
z
M 1172 3481 
Q 1172 3119 1398 2916 
Q 1625 2713 2034 2713 
Q 2441 2713 2670 2916 
Q 2900 3119 2900 3481 
Q 2900 3844 2670 4047 
Q 2441 4250 2034 4250 
Q 1625 4250 1398 4047 
Q 1172 3844 1172 3481 
z
" transform="scale(0.015625)"/>
       </defs>
       <use xlink:href="#DejaVuSans-38"/>
       <use xlink:href="#DejaVuSans-30" x="63.623047"/>
       <use xlink:href="#DejaVuSans-30" x="127.246094"/>
       <use xlink:href="#DejaVuSans-30" x="190.869141"/>
      </g>
     </g>
    </g>
    <g id="xtick_6">
     <g id="line2d_6">
      <g>
       <use xlink:href="#maed6809fd2" x="373.581818" y="252" style="stroke: #000000; stroke-width: 0.8"/>
      </g>
     </g>
     <g id="text_6">
      <!-- 10000 -->
      <g transform="translate(357.675568 266.598437)scale(0.1 -0.1)">
       <defs>
        <path id="DejaVuSans-31" d="M 794 531 
L 1825 531 
L 1825 4091 
L 703 3866 
L 703 4441 
L 1819 4666 
L 2450 4666 
L 2450 531 
L 3481 531 
L 3481 0 
L 794 0 
L 794 531 
z
" transform="scale(0.015625)"/>
       </defs>
       <use xlink:href="#DejaVuSans-31"/>
       <use xlink:href="#DejaVuSans-30" x="63.623047"/>
       <use xlink:href="#DejaVuSans-30" x="127.246094"/>
       <use xlink:href="#DejaVuSans-30" x="190.869141"/>
       <use xlink:href="#DejaVuSans-30" x="254.492188"/>
      </g>
     </g>
    </g>
    <g id="text_7">
     <!-- iterations -->
     <g transform="translate(197.672656 280.276563)scale(0.1 -0.1)">
      <defs>
       <path id="DejaVuSans-69" d="M 603 3500 
L 1178 3500 
L 1178 0 
L 603 0 
L 603 3500 
z
M 603 4863 
L 1178 4863 
L 1178 4134 
L 603 4134 
L 603 4863 
z
" transform="scale(0.015625)"/>
       <path id="DejaVuSans-74" d="M 1172 4494 
L 1172 3500 
L 2356 3500 
L 2356 3053 
L 1172 3053 
L 1172 1153 
Q 1172 725 1289 603 
Q 1406 481 1766 481 
L 2356 481 
L 2356 0 
L 1766 0 
Q 1100 0 847 248 
Q 594 497 594 1153 
L 594 3053 
L 172 3053 
L 172 3500 
L 594 3500 
L 594 4494 
L 1172 4494 
z
" transform="scale(0.015625)"/>
       <path id="DejaVuSans-65" d="M 3597 1894 
L 3597 1613 
L 953 1613 
Q 991 1019 1311 708 
Q 1631 397 2203 397 
Q 2534 397 2845 478 
Q 3156 559 3463 722 
L 3463 178 
Q 3153 47 2828 -22 
Q 2503 -91 2169 -91 
Q 1331 -91 842 396 
Q 353 884 353 1716 
Q 353 2575 817 3079 
Q 1281 3584 2069 3584 
Q 2775 3584 3186 3129 
Q 3597 2675 3597 1894 
z
M 3022 2063 
Q 3016 2534 2758 2815 
Q 2500 3097 2075 3097 
Q 1594 3097 1305 2825 
Q 1016 2553 972 2059 
L 3022 2063 
z
" transform="scale(0.015625)"/>
       <path id="DejaVuSans-72" d="M 2631 2963 
Q 2534 3019 2420 3045 
Q 2306 3072 2169 3072 
Q 1681 3072 1420 2755 
Q 1159 2438 1159 1844 
L 1159 0 
L 581 0 
L 581 3500 
L 1159 3500 
L 1159 2956 
Q 1341 3275 1631 3429 
Q 1922 3584 2338 3584 
Q 2397 3584 2469 3576 
Q 2541 3569 2628 3553 
L 2631 2963 
z
" transform="scale(0.015625)"/>
       <path id="DejaVuSans-61" d="M 2194 1759 
Q 1497 1759 1228 1600 
Q 959 1441 959 1056 
Q 959 750 1161 570 
Q 1363 391 1709 391 
Q 2188 391 2477 730 
Q 2766 1069 2766 1631 
L 2766 1759 
L 2194 1759 
z
M 3341 1997 
L 3341 0 
L 2766 0 
L 2766 531 
Q 2569 213 2275 61 
Q 1981 -91 1556 -91 
Q 1019 -91 701 211 
Q 384 513 384 1019 
Q 384 1609 779 1909 
Q 1175 2209 1959 2209 
L 2766 2209 
L 2766 2266 
Q 2766 2663 2505 2880 
Q 2244 3097 1772 3097 
Q 1472 3097 1187 3025 
Q 903 2953 641 2809 
L 641 3341 
Q 956 3463 1253 3523 
Q 1550 3584 1831 3584 
Q 2591 3584 2966 3190 
Q 3341 2797 3341 1997 
z
" transform="scale(0.015625)"/>
       <path id="DejaVuSans-6f" d="M 1959 3097 
Q 1497 3097 1228 2736 
Q 959 2375 959 1747 
Q 959 1119 1226 758 
Q 1494 397 1959 397 
Q 2419 397 2687 759 
Q 2956 1122 2956 1747 
Q 2956 2369 2687 2733 
Q 2419 3097 1959 3097 
z
M 1959 3584 
Q 2709 3584 3137 3096 
Q 3566 2609 3566 1747 
Q 3566 888 3137 398 
Q 2709 -91 1959 -91 
Q 1206 -91 779 398 
Q 353 888 353 1747 
Q 353 2609 779 3096 
Q 1206 3584 1959 3584 
z
" transform="scale(0.015625)"/>
       <path id="DejaVuSans-6e" d="M 3513 2113 
L 3513 0 
L 2938 0 
L 2938 2094 
Q 2938 2591 2744 2837 
Q 2550 3084 2163 3084 
Q 1697 3084 1428 2787 
Q 1159 2491 1159 1978 
L 1159 0 
L 581 0 
L 581 3500 
L 1159 3500 
L 1159 2956 
Q 1366 3272 1645 3428 
Q 1925 3584 2291 3584 
Q 2894 3584 3203 3211 
Q 3513 2838 3513 2113 
z
" transform="scale(0.015625)"/>
       <path id="DejaVuSans-73" d="M 2834 3397 
L 2834 2853 
Q 2591 2978 2328 3040 
Q 2066 3103 1784 3103 
Q 1356 3103 1142 2972 
Q 928 2841 928 2578 
Q 928 2378 1081 2264 
Q 1234 2150 1697 2047 
L 1894 2003 
Q 2506 1872 2764 1633 
Q 3022 1394 3022 966 
Q 3022 478 2636 193 
Q 2250 -91 1575 -91 
Q 1294 -91 989 -36 
Q 684 19 347 128 
L 347 722 
Q 666 556 975 473 
Q 1284 391 1588 391 
Q 1994 391 2212 530 
Q 2431 669 2431 922 
Q 2431 1156 2273 1281 
Q 2116 1406 1581 1522 
L 1381 1569 
Q 847 1681 609 1914 
Q 372 2147 372 2553 
Q 372 3047 722 3315 
Q 1072 3584 1716 3584 
Q 2034 3584 2315 3537 
Q 2597 3491 2834 3397 
z
" transform="scale(0.015625)"/>
      </defs>
      <use xlink:href="#DejaVuSans-69"/>
      <use xlink:href="#DejaVuSans-74" x="27.783203"/>
      <use xlink:href="#DejaVuSans-65" x="66.992188"/>
      <use xlink:href="#DejaVuSans-72" x="128.515625"/>
      <use xlink:href="#DejaVuSans-61" x="169.628906"/>
      <use xlink:href="#DejaVuSans-74" x="230.908203"/>
      <use xlink:href="#DejaVuSans-69" x="270.117188"/>
      <use xlink:href="#DejaVuSans-6f" x="297.900391"/>
      <use xlink:href="#DejaVuSans-6e" x="359.082031"/>
      <use xlink:href="#DejaVuSans-73" x="422.460938"/>
     </g>
    </g>
   </g>
   <g id="matplotlib.axis_2">
    <g id="ytick_1">
     <g id="line2d_7">
      <defs>
       <path id="m415035154b" d="M 0 0 
L -3.5 0 
" style="stroke: #000000; stroke-width: 0.8"/>
      </defs>
      <g>
       <use xlink:href="#m415035154b" x="54" y="172.194642" style="stroke: #000000; stroke-width: 0.8"/>
      </g>
     </g>
     <g id="text_8">
      <!-- $\mathdefault{10^{-3}}$ -->
      <g transform="translate(23.5 175.99386)scale(0.1 -0.1)">
       <defs>
        <path id="DejaVuSans-2212" d="M 678 2272 
L 4684 2272 
L 4684 1741 
L 678 1741 
L 678 2272 
z
" transform="scale(0.015625)"/>
        <path id="DejaVuSans-33" d="M 2597 2516 
Q 3050 2419 3304 2112 
Q 3559 1806 3559 1356 
Q 3559 666 3084 287 
Q 2609 -91 1734 -91 
Q 1441 -91 1130 -33 
Q 819 25 488 141 
L 488 750 
Q 750 597 1062 519 
Q 1375 441 1716 441 
Q 2309 441 2620 675 
Q 2931 909 2931 1356 
Q 2931 1769 2642 2001 
Q 2353 2234 1838 2234 
L 1294 2234 
L 1294 2753 
L 1863 2753 
Q 2328 2753 2575 2939 
Q 2822 3125 2822 3475 
Q 2822 3834 2567 4026 
Q 2313 4219 1838 4219 
Q 1578 4219 1281 4162 
Q 984 4106 628 3988 
L 628 4550 
Q 988 4650 1302 4700 
Q 1616 4750 1894 4750 
Q 2613 4750 3031 4423 
Q 3450 4097 3450 3541 
Q 3450 3153 3228 2886 
Q 3006 2619 2597 2516 
z
" transform="scale(0.015625)"/>
       </defs>
       <use xlink:href="#DejaVuSans-31" transform="translate(0 0.765625)"/>
       <use xlink:href="#DejaVuSans-30" transform="translate(63.623047 0.765625)"/>
       <use xlink:href="#DejaVuSans-2212" transform="translate(128.203125 39.046875)scale(0.7)"/>
       <use xlink:href="#DejaVuSans-33" transform="translate(186.855469 39.046875)scale(0.7)"/>
      </g>
     </g>
    </g>
    <g id="ytick_2">
     <g id="line2d_8">
      <g>
       <use xlink:href="#m415035154b" x="54" y="41.690225" style="stroke: #000000; stroke-width: 0.8"/>
      </g>
     </g>
     <g id="text_9">
      <!-- $\mathdefault{10^{-2}}$ -->
      <g transform="translate(23.5 45.489444)scale(0.1 -0.1)">
       <use xlink:href="#DejaVuSans-31" transform="translate(0 0.765625)"/>
       <use xlink:href="#DejaVuSans-30" transform="translate(63.623047 0.765625)"/>
       <use xlink:href="#DejaVuSans-2212" transform="translate(128.203125 39.046875)scale(0.7)"/>
       <use xlink:href="#DejaVuSans-32" transform="translate(186.855469 39.046875)scale(0.7)"/>
      </g>
     </g>
    </g>
    <g id="ytick_3">
     <g id="line2d_9">
      <defs>
       <path id="m9fe6172d94" d="M 0 0 
L -2 0 
" style="stroke: #000000; stroke-width: 0.6"/>
      </defs>
      <g>
       <use xlink:href="#m9fe6172d94" x="54" y="240.432627" style="stroke: #000000; stroke-width: 0.6"/>
      </g>
     </g>
    </g>
    <g id="ytick_4">
     <g id="line2d_10">
      <g>
       <use xlink:href="#m9fe6172d94" x="54" y="224.12757" style="stroke: #000000; stroke-width: 0.6"/>
      </g>
     </g>
    </g>
    <g id="ytick_5">
     <g id="line2d_11">
      <g>
       <use xlink:href="#m9fe6172d94" x="54" y="211.480385" style="stroke: #000000; stroke-width: 0.6"/>
      </g>
     </g>
    </g>
    <g id="ytick_6">
     <g id="line2d_12">
      <g>
       <use xlink:href="#m9fe6172d94" x="54" y="201.146883" style="stroke: #000000; stroke-width: 0.6"/>
      </g>
     </g>
    </g>
    <g id="ytick_7">
     <g id="line2d_13">
      <g>
       <use xlink:href="#m9fe6172d94" x="54" y="192.410031" style="stroke: #000000; stroke-width: 0.6"/>
      </g>
     </g>
    </g>
    <g id="ytick_8">
     <g id="line2d_14">
      <g>
       <use xlink:href="#m9fe6172d94" x="54" y="184.841826" style="stroke: #000000; stroke-width: 0.6"/>
      </g>
     </g>
    </g>
    <g id="ytick_9">
     <g id="line2d_15">
      <g>
       <use xlink:href="#m9fe6172d94" x="54" y="178.166196" style="stroke: #000000; stroke-width: 0.6"/>
      </g>
     </g>
    </g>
    <g id="ytick_10">
     <g id="line2d_16">
      <g>
       <use xlink:href="#m9fe6172d94" x="54" y="132.908898" style="stroke: #000000; stroke-width: 0.6"/>
      </g>
     </g>
    </g>
    <g id="ytick_11">
     <g id="line2d_17">
      <g>
       <use xlink:href="#m9fe6172d94" x="54" y="109.928211" style="stroke: #000000; stroke-width: 0.6"/>
      </g>
     </g>
    </g>
    <g id="ytick_12">
     <g id="line2d_18">
      <g>
       <use xlink:href="#m9fe6172d94" x="54" y="93.623154" style="stroke: #000000; stroke-width: 0.6"/>
      </g>
     </g>
    </g>
    <g id="ytick_13">
     <g id="line2d_19">
      <g>
       <use xlink:href="#m9fe6172d94" x="54" y="80.975969" style="stroke: #000000; stroke-width: 0.6"/>
      </g>
     </g>
    </g>
    <g id="ytick_14">
     <g id="line2d_20">
      <g>
       <use xlink:href="#m9fe6172d94" x="54" y="70.642467" style="stroke: #000000; stroke-width: 0.6"/>
      </g>
     </g>
    </g>
    <g id="ytick_15">
     <g id="line2d_21">
      <g>
       <use xlink:href="#m9fe6172d94" x="54" y="61.905615" style="stroke: #000000; stroke-width: 0.6"/>
      </g>
     </g>
    </g>
    <g id="ytick_16">
     <g id="line2d_22">
      <g>
       <use xlink:href="#m9fe6172d94" x="54" y="54.33741" style="stroke: #000000; stroke-width: 0.6"/>
      </g>
     </g>
    </g>
    <g id="ytick_17">
     <g id="line2d_23">
      <g>
       <use xlink:href="#m9fe6172d94" x="54" y="47.66178" style="stroke: #000000; stroke-width: 0.6"/>
      </g>
     </g>
    </g>
    <g id="text_10">
     <!-- NashConv -->
     <g transform="translate(17.420312 168.537031)rotate(-90)scale(0.1 -0.1)">
      <defs>
       <path id="DejaVuSans-4e" d="M 628 4666 
L 1478 4666 
L 3547 763 
L 3547 4666 
L 4159 4666 
L 4159 0 
L 3309 0 
L 1241 3903 
L 1241 0 
L 628 0 
L 628 4666 
z
" transform="scale(0.015625)"/>
       <path id="DejaVuSans-68" d="M 3513 2113 
L 3513 0 
L 2938 0 
L 2938 2094 
Q 2938 2591 2744 2837 
Q 2550 3084 2163 3084 
Q 1697 3084 1428 2787 
Q 1159 2491 1159 1978 
L 1159 0 
L 581 0 
L 581 4863 
L 1159 4863 
L 1159 2956 
Q 1366 3272 1645 3428 
Q 1925 3584 2291 3584 
Q 2894 3584 3203 3211 
Q 3513 2838 3513 2113 
z
" transform="scale(0.015625)"/>
       <path id="DejaVuSans-43" d="M 4122 4306 
L 4122 3641 
Q 3803 3938 3442 4084 
Q 3081 4231 2675 4231 
Q 1875 4231 1450 3742 
Q 1025 3253 1025 2328 
Q 1025 1406 1450 917 
Q 1875 428 2675 428 
Q 3081 428 3442 575 
Q 3803 722 4122 1019 
L 4122 359 
Q 3791 134 3420 21 
Q 3050 -91 2638 -91 
Q 1578 -91 968 557 
Q 359 1206 359 2328 
Q 359 3453 968 4101 
Q 1578 4750 2638 4750 
Q 3056 4750 3426 4639 
Q 3797 4528 4122 4306 
z
" transform="scale(0.015625)"/>
       <path id="DejaVuSans-76" d="M 191 3500 
L 800 3500 
L 1894 563 
L 2988 3500 
L 3597 3500 
L 2284 0 
L 1503 0 
L 191 3500 
z
" transform="scale(0.015625)"/>
      </defs>
      <use xlink:href="#DejaVuSans-4e"/>
      <use xlink:href="#DejaVuSans-61" x="74.804688"/>
      <use xlink:href="#DejaVuSans-73" x="136.083984"/>
      <use xlink:href="#DejaVuSans-68" x="188.183594"/>
      <use xlink:href="#DejaVuSans-43" x="251.5625"/>
      <use xlink:href="#DejaVuSans-6f" x="321.386719"/>
      <use xlink:href="#DejaVuSans-6e" x="382.568359"/>
      <use xlink:href="#DejaVuSans-76" x="445.947266"/>
     </g>
    </g>
   </g>
   <g id="line2d_24">
    <path d="M 69.218182 44.443636 
L 72.292562 68.817829 
L 75.366942 76.248702 
L 78.441322 80.869851 
L 81.515702 85.149229 
L 84.590083 104.622413 
L 87.664463 101.765349 
L 90.738843 110.104353 
L 93.813223 131.393349 
L 96.887603 103.577825 
L 99.961983 114.489058 
L 103.036364 131.511573 
L 106.110744 131.003976 
L 109.185124 124.54184 
L 112.259504 125.04948 
L 115.333884 120.536311 
L 118.408264 123.501018 
L 121.482645 140.429542 
L 124.557025 139.675781 
L 127.631405 122.823458 
L 130.705785 134.801382 
L 133.780165 136.597035 
L 136.854545 135.346807 
L 139.928926 145.168097 
L 143.003306 141.190224 
L 146.077686 147.824363 
L 149.152066 147.463483 
L 152.226446 152.273895 
L 155.300826 150.049376 
L 158.375207 144.63386 
L 161.449587 153.178846 
L 164.523967 161.713379 
L 167.598347 154.726484 
L 170.672727 141.660249 
L 173.747107 156.594378 
L 176.821488 155.770123 
L 179.895868 157.69511 
L 182.970248 142.797932 
L 186.044628 162.163461 
L 189.119008 151.659581 
L 192.193388 153.837916 
L 195.267769 151.980434 
L 198.342149 156.783943 
L 201.416529 165.570083 
L 204.490909 164.246599 
L 207.565289 154.965474 
L 210.639669 157.127518 
L 213.71405 159.364613 
L 216.78843 157.101744 
L 219.86281 160.685157 
L 222.93719 165.862547 
L 226.01157 164.848333 
L 229.08595 174.176442 
L 232.160331 156.913849 
L 235.234711 163.750961 
L 238.309091 169.466151 
L 241.383471 171.791749 
L 244.457851 173.158678 
L 247.532231 154.918038 
L 250.606612 169.37377 
L 253.680992 169.953523 
L 256.755372 175.461075 
L 259.829752 166.234079 
L 262.904132 158.080947 
L 265.978512 170.701398 
L 269.052893 162.608994 
L 272.127273 165.911063 
L 275.201653 163.721009 
L 278.276033 174.096995 
L 281.350413 171.618265 
L 284.424793 175.464355 
L 287.499174 171.415616 
L 290.573554 171.474251 
L 293.647934 184.586591 
L 296.722314 160.005402 
L 299.796694 166.025968 
L 302.871074 170.831361 
L 305.945455 173.593867 
L 309.019835 181.105896 
L 312.094215 177.020351 
L 315.168595 172.769703 
L 318.242975 184.749639 
L 321.317355 182.203784 
L 324.391736 176.271334 
L 327.466116 170.263866 
L 330.540496 180.224989 
L 333.614876 183.076156 
L 336.689256 178.346417 
L 339.763636 178.290462 
L 342.838017 177.626809 
L 345.912397 188.405687 
L 348.986777 188.540435 
L 352.061157 183.064605 
L 355.135537 180.166136 
L 358.209917 172.851616 
L 361.284298 186.632411 
L 364.358678 188.809235 
L 367.433058 196.199338 
L 370.507438 188.78419 
L 373.581818 191.216948 
" clip-path="url(#pc475bd5599)" style="fill: none; stroke: #000000; stroke-width: 1.5; stroke-linecap: square"/>
   </g>
   <g id="line2d_25">
    <path d="M 69.218182 67.16423 
L 72.292562 75.200507 
L 75.366942 85.451032 
L 78.441322 110.467915 
L 81.515702 112.650532 
L 84.590083 115.355004 
L 87.664463 115.304848 
L 90.738843 101.41608 
L 93.813223 120.254304 
L 96.887603 120.071544 
L 99.961983 133.525471 
L 103.036364 141.700621 
L 106.110744 135.704797 
L 109.185124 140.090361 
L 112.259504 150.692383 
L 115.333884 140.08092 
L 118.408264 139.653822 
L 121.482645 170.555712 
L 124.557025 147.677136 
L 127.631405 155.064703 
L 130.705785 152.344605 
L 133.780165 161.800653 
L 136.854545 149.00051 
L 139.928926 165.726102 
L 143.003306 160.519436 
L 146.077686 165.752448 
L 149.152066 155.360989 
L 152.226446 153.113596 
L 155.300826 156.642384 
L 158.375207 163.408442 
L 161.449587 163.051751 
L 164.523967 155.209429 
L 167.598347 151.992603 
L 170.672727 167.351317 
L 173.747107 165.758056 
L 176.821488 155.589902 
L 179.895868 153.800758 
L 182.970248 169.919315 
L 186.044628 159.261941 
L 189.119008 155.879859 
L 192.193388 155.798656 
L 195.267769 157.332509 
L 198.342149 159.99294 
L 201.416529 168.464979 
L 204.490909 172.373347 
L 207.565289 154.424516 
L 210.639669 166.633096 
L 213.71405 166.251872 
L 216.78843 173.584954 
L 219.86281 174.913663 
L 222.93719 172.581985 
L 226.01157 179.881939 
L 229.08595 166.236245 
L 232.160331 165.404504 
L 235.234711 163.859697 
L 238.309091 174.786239 
L 241.383471 172.309214 
L 244.457851 166.591997 
L 247.532231 164.292122 
L 250.606612 163.201691 
L 253.680992 166.829935 
L 256.755372 173.749982 
L 259.829752 170.775816 
L 262.904132 175.942 
L 265.978512 175.690373 
L 269.052893 160.055015 
L 272.127273 172.40192 
L 275.201653 165.521622 
L 278.276033 174.210355 
L 281.350413 176.399506 
L 284.424793 177.13622 
L 287.499174 170.909283 
L 290.573554 168.147083 
L 293.647934 170.298681 
L 296.722314 166.841436 
L 299.796694 164.892474 
L 302.871074 178.409844 
L 305.945455 174.54108 
L 309.019835 177.257526 
L 312.094215 165.301378 
L 315.168595 179.790646 
L 318.242975 160.374668 
L 321.317355 179.389781 
L 324.391736 172.125177 
L 327.466116 168.142286 
L 330.540496 179.107971 
L 333.614876 174.841003 
L 336.689256 164.950203 
L 339.763636 181.318979 
L 342.838017 175.120054 
L 345.912397 179.700578 
L 348.986777 173.407224 
L 352.061157 181.314499 
L 355.135537 181.446387 
L 358.209917 173.080194 
L 361.284298 172.222469 
L 364.358678 175.923549 
L 367.433058 176.710583 
L 370.507438 182.127344 
L 373.581818 180.496224 
" clip-path="url(#pc475bd5599)" style="fill: none; stroke-dasharray: 5.55,2.4; stroke-dashoffset: 0; stroke: #000000; stroke-width: 1.5"/>
   </g>
   <g id="line2d_26">
    <path d="M 69.218182 91.47572 
L 72.292562 104.711332 
L 75.366942 133.291625 
L 78.441322 134.300768 
L 81.515702 132.267742 
L 84.590083 145.531931 
L 87.664463 143.088849 
L 90.738843 132.82546 
L 93.813223 143.873552 
L 96.887603 146.969019 
L 99.961983 152.808076 
L 103.036364 146.505394 
L 106.110744 146.301987 
L 109.185124 168.933496 
L 112.259504 157.663523 
L 115.333884 159.288611 
L 118.408264 163.659224 
L 121.482645 160.602908 
L 124.557025 169.020697 
L 127.631405 178.131672 
L 130.705785 166.661338 
L 133.780165 167.402281 
L 136.854545 176.30722 
L 139.928926 167.716525 
L 143.003306 174.002873 
L 146.077686 167.342691 
L 149.152066 171.871213 
L 152.226446 176.144032 
L 155.300826 180.105723 
L 158.375207 174.198199 
L 161.449587 182.048886 
L 164.523967 178.844943 
L 167.598347 179.884171 
L 170.672727 181.610978 
L 173.747107 172.596409 
L 176.821488 174.72456 
L 179.895868 178.838124 
L 182.970248 179.158522 
L 186.044628 181.114985 
L 189.119008 179.687605 
L 192.193388 186.481942 
L 195.267769 178.629788 
L 198.342149 186.946992 
L 201.416529 181.454938 
L 204.490909 181.468469 
L 207.565289 183.481255 
L 210.639669 188.820917 
L 213.71405 180.691005 
L 216.78843 195.1172 
L 219.86281 174.449791 
L 222.93719 176.842572 
L 226.01157 192.400493 
L 229.08595 184.630895 
L 232.160331 177.303589 
L 235.234711 179.72984 
L 238.309091 182.129404 
L 241.383471 188.787312 
L 244.457851 187.29712 
L 247.532231 187.335249 
L 250.606612 186.699683 
L 253.680992 191.317649 
L 256.755372 188.965725 
L 259.829752 190.223075 
L 262.904132 190.158878 
L 265.978512 205.863172 
L 269.052893 201.411277 
L 272.127273 190.491641 
L 275.201653 195.116562 
L 278.276033 197.115356 
L 281.350413 195.357841 
L 284.424793 200.639753 
L 287.499174 200.673554 
L 290.573554 201.719035 
L 293.647934 205.181205 
L 296.722314 195.854146 
L 299.796694 203.301528 
L 302.871074 199.956447 
L 305.945455 207.138115 
L 309.019835 196.908985 
L 312.094215 200.583204 
L 315.168595 198.425944 
L 318.242975 211.7398 
L 321.317355 200.282472 
L 324.391736 207.318743 
L 327.466116 194.798796 
L 330.540496 192.046198 
L 333.614876 193.051621 
L 336.689256 194.826885 
L 339.763636 196.406368 
L 342.838017 204.83472 
L 345.912397 213.376589 
L 348.986777 204.083282 
L 352.061157 203.138174 
L 355.135537 204.466948 
L 358.209917 194.163792 
L 361.284298 198.851157 
L 364.358678 209.80478 
L 367.433058 199.668462 
L 370.507438 212.387268 
L 373.581818 201.697698 
" clip-path="url(#pc475bd5599)" style="fill: none; stroke-dasharray: 1.5,2.475; stroke-dashoffset: 0; stroke: #000000; stroke-width: 1.5"/>
   </g>
   <g id="line2d_27">
    <path d="M 69.218182 95.828649 
L 72.292562 128.921275 
L 75.366942 132.69252 
L 78.441322 138.674392 
L 81.515702 139.131277 
L 84.590083 135.279215 
L 87.664463 129.585432 
L 90.738843 145.834376 
L 93.813223 139.550052 
L 96.887603 145.42499 
L 99.961983 160.056602 
L 103.036364 149.083141 
L 106.110744 147.626581 
L 109.185124 156.776709 
L 112.259504 174.553828 
L 115.333884 158.584879 
L 118.408264 168.450567 
L 121.482645 173.161115 
L 124.557025 172.759511 
L 127.631405 162.49026 
L 130.705785 161.916163 
L 133.780165 167.513263 
L 136.854545 158.67621 
L 139.928926 171.731919 
L 143.003306 164.752513 
L 146.077686 172.816903 
L 149.152066 170.087896 
L 152.226446 171.343157 
L 155.300826 177.25413 
L 158.375207 175.81421 
L 161.449587 174.639748 
L 164.523967 178.264062 
L 167.598347 182.732865 
L 170.672727 181.57034 
L 173.747107 171.934149 
L 176.821488 182.472417 
L 179.895868 180.962542 
L 182.970248 167.917081 
L 186.044628 177.845181 
L 189.119008 190.651446 
L 192.193388 186.639189 
L 195.267769 182.510516 
L 198.342149 187.860279 
L 201.416529 184.103426 
L 204.490909 184.877674 
L 207.565289 184.61054 
L 210.639669 188.869808 
L 213.71405 183.560058 
L 216.78843 189.220244 
L 219.86281 191.796183 
L 222.93719 189.871956 
L 226.01157 188.357014 
L 229.08595 191.844687 
L 232.160331 187.606451 
L 235.234711 188.30051 
L 238.309091 193.891366 
L 241.383471 188.135395 
L 244.457851 180.207685 
L 247.532231 187.186517 
L 250.606612 199.935867 
L 253.680992 195.794349 
L 256.755372 194.545614 
L 259.829752 198.569461 
L 262.904132 191.4273 
L 265.978512 191.209646 
L 269.052893 192.434027 
L 272.127273 203.496986 
L 275.201653 193.962112 
L 278.276033 197.413694 
L 281.350413 191.701469 
L 284.424793 191.757257 
L 287.499174 188.301406 
L 290.573554 195.082832 
L 293.647934 202.537409 
L 296.722314 204.234206 
L 299.796694 199.721329 
L 302.871074 195.4739 
L 305.945455 205.350986 
L 309.019835 191.884753 
L 312.094215 197.997948 
L 315.168595 193.0598 
L 318.242975 203.202647 
L 321.317355 205.465806 
L 324.391736 194.813239 
L 327.466116 204.560211 
L 330.540496 199.55461 
L 333.614876 195.03177 
L 336.689256 202.067616 
L 339.763636 197.110484 
L 342.838017 191.353124 
L 345.912397 192.418185 
L 348.986777 191.626708 
L 352.061157 196.963857 
L 355.135537 206.333021 
L 358.209917 197.038232 
L 361.284298 189.83798 
L 364.358678 201.218469 
L 367.433058 198.457637 
L 370.507438 190.238628 
L 373.581818 207.241577 
" clip-path="url(#pc475bd5599)" style="fill: none; stroke-dasharray: 9.6,2.4,1.5,2.4; stroke-dashoffset: 0; stroke: #000000; stroke-width: 1.5"/>
   </g>
   <g id="line2d_28">
    <path d="M 69.218182 121.715215 
L 72.292562 138.691376 
L 75.366942 139.284594 
L 78.441322 149.149039 
L 81.515702 157.561922 
L 84.590083 143.477453 
L 87.664463 151.728354 
L 90.738843 167.501017 
L 93.813223 178.475745 
L 96.887603 171.367504 
L 99.961983 179.027696 
L 103.036364 180.10959 
L 106.110744 179.792355 
L 109.185124 177.984328 
L 112.259504 184.058017 
L 115.333884 178.905877 
L 118.408264 184.495069 
L 121.482645 184.459105 
L 124.557025 181.43102 
L 127.631405 179.421008 
L 130.705785 186.593017 
L 133.780165 175.640537 
L 136.854545 186.293231 
L 139.928926 194.267272 
L 143.003306 188.929572 
L 146.077686 193.119625 
L 149.152066 198.509246 
L 152.226446 194.572237 
L 155.300826 192.43596 
L 158.375207 197.84647 
L 161.449587 200.624387 
L 164.523967 200.236399 
L 167.598347 204.493031 
L 170.672727 206.13451 
L 173.747107 203.376005 
L 176.821488 190.791576 
L 179.895868 196.226048 
L 182.970248 207.852243 
L 186.044628 194.465227 
L 189.119008 196.888264 
L 192.193388 195.199619 
L 195.267769 195.982512 
L 198.342149 198.112846 
L 201.416529 199.581268 
L 204.490909 193.109588 
L 207.565289 189.319163 
L 210.639669 196.979338 
L 213.71405 205.19462 
L 216.78843 196.382327 
L 219.86281 200.944205 
L 222.93719 194.131127 
L 226.01157 193.211538 
L 229.08595 198.92462 
L 232.160331 204.245364 
L 235.234711 199.780416 
L 238.309091 205.60787 
L 241.383471 198.035328 
L 244.457851 196.489555 
L 247.532231 202.333795 
L 250.606612 205.81963 
L 253.680992 208.319871 
L 256.755372 208.025692 
L 259.829752 203.068857 
L 262.904132 202.337302 
L 265.978512 204.535121 
L 269.052893 210.668503 
L 272.127273 207.525194 
L 275.201653 203.783386 
L 278.276033 202.968696 
L 281.350413 203.095179 
L 284.424793 203.524826 
L 287.499174 210.543971 
L 290.573554 211.573866 
L 293.647934 211.80853 
L 296.722314 208.072945 
L 299.796694 216.886295 
L 302.871074 209.441942 
L 305.945455 212.416879 
L 309.019835 206.70819 
L 312.094215 208.719327 
L 315.168595 216.383086 
L 318.242975 210.814331 
L 321.317355 213.253988 
L 324.391736 205.077881 
L 327.466116 214.89241 
L 330.540496 203.099417 
L 333.614876 211.561277 
L 336.689256 213.580193 
L 339.763636 199.642554 
L 342.838017 204.831171 
L 345.912397 204.643258 
L 348.986777 210.437596 
L 352.061157 199.771972 
L 355.135537 213.017379 
L 358.209917 212.048402 
L 361.284298 206.05896 
L 364.358678 207.965686 
L 367.433058 208.724616 
L 370.507438 207.203707 
L 373.581818 206.159435 
" clip-path="url(#pc475bd5599)" style="fill: none; stroke: #000000; stroke-width: 1.5; stroke-linecap: square"/>
    <defs>
     <path id="ma5033fd68f" d="M 0 1.5 
C 0.397805 1.5 0.77937 1.341951 1.06066 1.06066 
C 1.341951 0.77937 1.5 0.397805 1.5 0 
C 1.5 -0.397805 1.341951 -0.77937 1.06066 -1.06066 
C 0.77937 -1.341951 0.397805 -1.5 0 -1.5 
C -0.397805 -1.5 -0.77937 -1.341951 -1.06066 -1.06066 
C -1.341951 -0.77937 -1.5 -0.397805 -1.5 0 
C -1.5 0.397805 -1.341951 0.77937 -1.06066 1.06066 
C -0.77937 1.341951 -0.397805 1.5 0 1.5 
z
" style="stroke: #000000"/>
    </defs>
    <g clip-path="url(#pc475bd5599)">
     <use xlink:href="#ma5033fd68f" x="69.218182" y="121.715215" style="stroke: #000000"/>
     <use xlink:href="#ma5033fd68f" x="72.292562" y="138.691376" style="stroke: #000000"/>
     <use xlink:href="#ma5033fd68f" x="75.366942" y="139.284594" style="stroke: #000000"/>
     <use xlink:href="#ma5033fd68f" x="78.441322" y="149.149039" style="stroke: #000000"/>
     <use xlink:href="#ma5033fd68f" x="81.515702" y="157.561922" style="stroke: #000000"/>
     <use xlink:href="#ma5033fd68f" x="84.590083" y="143.477453" style="stroke: #000000"/>
     <use xlink:href="#ma5033fd68f" x="87.664463" y="151.728354" style="stroke: #000000"/>
     <use xlink:href="#ma5033fd68f" x="90.738843" y="167.501017" style="stroke: #000000"/>
     <use xlink:href="#ma5033fd68f" x="93.813223" y="178.475745" style="stroke: #000000"/>
     <use xlink:href="#ma5033fd68f" x="96.887603" y="171.367504" style="stroke: #000000"/>
     <use xlink:href="#ma5033fd68f" x="99.961983" y="179.027696" style="stroke: #000000"/>
     <use xlink:href="#ma5033fd68f" x="103.036364" y="180.10959" style="stroke: #000000"/>
     <use xlink:href="#ma5033fd68f" x="106.110744" y="179.792355" style="stroke: #000000"/>
     <use xlink:href="#ma5033fd68f" x="109.185124" y="177.984328" style="stroke: #000000"/>
     <use xlink:href="#ma5033fd68f" x="112.259504" y="184.058017" style="stroke: #000000"/>
     <use xlink:href="#ma5033fd68f" x="115.333884" y="178.905877" style="stroke: #000000"/>
     <use xlink:href="#ma5033fd68f" x="118.408264" y="184.495069" style="stroke: #000000"/>
     <use xlink:href="#ma5033fd68f" x="121.482645" y="184.459105" style="stroke: #000000"/>
     <use xlink:href="#ma5033fd68f" x="124.557025" y="181.43102" style="stroke: #000000"/>
     <use xlink:href="#ma5033fd68f" x="127.631405" y="179.421008" style="stroke: #000000"/>
     <use xlink:href="#ma5033fd68f" x="130.705785" y="186.593017" style="stroke: #000000"/>
     <use xlink:href="#ma5033fd68f" x="133.780165" y="175.640537" style="stroke: #000000"/>
     <use xlink:href="#ma5033fd68f" x="136.854545" y="186.293231" style="stroke: #000000"/>
     <use xlink:href="#ma5033fd68f" x="139.928926" y="194.267272" style="stroke: #000000"/>
     <use xlink:href="#ma5033fd68f" x="143.003306" y="188.929572" style="stroke: #000000"/>
     <use xlink:href="#ma5033fd68f" x="146.077686" y="193.119625" style="stroke: #000000"/>
     <use xlink:href="#ma5033fd68f" x="149.152066" y="198.509246" style="stroke: #000000"/>
     <use xlink:href="#ma5033fd68f" x="152.226446" y="194.572237" style="stroke: #000000"/>
     <use xlink:href="#ma5033fd68f" x="155.300826" y="192.43596" style="stroke: #000000"/>
     <use xlink:href="#ma5033fd68f" x="158.375207" y="197.84647" style="stroke: #000000"/>
     <use xlink:href="#ma5033fd68f" x="161.449587" y="200.624387" style="stroke: #000000"/>
     <use xlink:href="#ma5033fd68f" x="164.523967" y="200.236399" style="stroke: #000000"/>
     <use xlink:href="#ma5033fd68f" x="167.598347" y="204.493031" style="stroke: #000000"/>
     <use xlink:href="#ma5033fd68f" x="170.672727" y="206.13451" style="stroke: #000000"/>
     <use xlink:href="#ma5033fd68f" x="173.747107" y="203.376005" style="stroke: #000000"/>
     <use xlink:href="#ma5033fd68f" x="176.821488" y="190.791576" style="stroke: #000000"/>
     <use xlink:href="#ma5033fd68f" x="179.895868" y="196.226048" style="stroke: #000000"/>
     <use xlink:href="#ma5033fd68f" x="182.970248" y="207.852243" style="stroke: #000000"/>
     <use xlink:href="#ma5033fd68f" x="186.044628" y="194.465227" style="stroke: #000000"/>
     <use xlink:href="#ma5033fd68f" x="189.119008" y="196.888264" style="stroke: #000000"/>
     <use xlink:href="#ma5033fd68f" x="192.193388" y="195.199619" style="stroke: #000000"/>
     <use xlink:href="#ma5033fd68f" x="195.267769" y="195.982512" style="stroke: #000000"/>
     <use xlink:href="#ma5033fd68f" x="198.342149" y="198.112846" style="stroke: #000000"/>
     <use xlink:href="#ma5033fd68f" x="201.416529" y="199.581268" style="stroke: #000000"/>
     <use xlink:href="#ma5033fd68f" x="204.490909" y="193.109588" style="stroke: #000000"/>
     <use xlink:href="#ma5033fd68f" x="207.565289" y="189.319163" style="stroke: #000000"/>
     <use xlink:href="#ma5033fd68f" x="210.639669" y="196.979338" style="stroke: #000000"/>
     <use xlink:href="#ma5033fd68f" x="213.71405" y="205.19462" style="stroke: #000000"/>
     <use xlink:href="#ma5033fd68f" x="216.78843" y="196.382327" style="stroke: #000000"/>
     <use xlink:href="#ma5033fd68f" x="219.86281" y="200.944205" style="stroke: #000000"/>
     <use xlink:href="#ma5033fd68f" x="222.93719" y="194.131127" style="stroke: #000000"/>
     <use xlink:href="#ma5033fd68f" x="226.01157" y="193.211538" style="stroke: #000000"/>
     <use xlink:href="#ma5033fd68f" x="229.08595" y="198.92462" style="stroke: #000000"/>
     <use xlink:href="#ma5033fd68f" x="232.160331" y="204.245364" style="stroke: #000000"/>
     <use xlink:href="#ma5033fd68f" x="235.234711" y="199.780416" style="stroke: #000000"/>
     <use xlink:href="#ma5033fd68f" x="238.309091" y="205.60787" style="stroke: #000000"/>
     <use xlink:href="#ma5033fd68f" x="241.383471" y="198.035328" style="stroke: #000000"/>
     <use xlink:href="#ma5033fd68f" x="244.457851" y="196.489555" style="stroke: #000000"/>
     <use xlink:href="#ma5033fd68f" x="247.532231" y="202.333795" style="stroke: #000000"/>
     <use xlink:href="#ma5033fd68f" x="250.606612" y="205.81963" style="stroke: #000000"/>
     <use xlink:href="#ma5033fd68f" x="253.680992" y="208.319871" style="stroke: #000000"/>
     <use xlink:href="#ma5033fd68f" x="256.755372" y="208.025692" style="stroke: #000000"/>
     <use xlink:href="#ma5033fd68f" x="259.829752" y="203.068857" style="stroke: #000000"/>
     <use xlink:href="#ma5033fd68f" x="262.904132" y="202.337302" style="stroke: #000000"/>
     <use xlink:href="#ma5033fd68f" x="265.978512" y="204.535121" style="stroke: #000000"/>
     <use xlink:href="#ma5033fd68f" x="269.052893" y="210.668503" style="stroke: #000000"/>
     <use xlink:href="#ma5033fd68f" x="272.127273" y="207.525194" style="stroke: #000000"/>
     <use xlink:href="#ma5033fd68f" x="275.201653" y="203.783386" style="stroke: #000000"/>
     <use xlink:href="#ma5033fd68f" x="278.276033" y="202.968696" style="stroke: #000000"/>
     <use xlink:href="#ma5033fd68f" x="281.350413" y="203.095179" style="stroke: #000000"/>
     <use xlink:href="#ma5033fd68f" x="284.424793" y="203.524826" style="stroke: #000000"/>
     <use xlink:href="#ma5033fd68f" x="287.499174" y="210.543971" style="stroke: #000000"/>
     <use xlink:href="#ma5033fd68f" x="290.573554" y="211.573866" style="stroke: #000000"/>
     <use xlink:href="#ma5033fd68f" x="293.647934" y="211.80853" style="stroke: #000000"/>
     <use xlink:href="#ma5033fd68f" x="296.722314" y="208.072945" style="stroke: #000000"/>
     <use xlink:href="#ma5033fd68f" x="299.796694" y="216.886295" style="stroke: #000000"/>
     <use xlink:href="#ma5033fd68f" x="302.871074" y="209.441942" style="stroke: #000000"/>
     <use xlink:href="#ma5033fd68f" x="305.945455" y="212.416879" style="stroke: #000000"/>
     <use xlink:href="#ma5033fd68f" x="309.019835" y="206.70819" style="stroke: #000000"/>
     <use xlink:href="#ma5033fd68f" x="312.094215" y="208.719327" style="stroke: #000000"/>
     <use xlink:href="#ma5033fd68f" x="315.168595" y="216.383086" style="stroke: #000000"/>
     <use xlink:href="#ma5033fd68f" x="318.242975" y="210.814331" style="stroke: #000000"/>
     <use xlink:href="#ma5033fd68f" x="321.317355" y="213.253988" style="stroke: #000000"/>
     <use xlink:href="#ma5033fd68f" x="324.391736" y="205.077881" style="stroke: #000000"/>
     <use xlink:href="#ma5033fd68f" x="327.466116" y="214.89241" style="stroke: #000000"/>
     <use xlink:href="#ma5033fd68f" x="330.540496" y="203.099417" style="stroke: #000000"/>
     <use xlink:href="#ma5033fd68f" x="333.614876" y="211.561277" style="stroke: #000000"/>
     <use xlink:href="#ma5033fd68f" x="336.689256" y="213.580193" style="stroke: #000000"/>
     <use xlink:href="#ma5033fd68f" x="339.763636" y="199.642554" style="stroke: #000000"/>
     <use xlink:href="#ma5033fd68f" x="342.838017" y="204.831171" style="stroke: #000000"/>
     <use xlink:href="#ma5033fd68f" x="345.912397" y="204.643258" style="stroke: #000000"/>
     <use xlink:href="#ma5033fd68f" x="348.986777" y="210.437596" style="stroke: #000000"/>
     <use xlink:href="#ma5033fd68f" x="352.061157" y="199.771972" style="stroke: #000000"/>
     <use xlink:href="#ma5033fd68f" x="355.135537" y="213.017379" style="stroke: #000000"/>
     <use xlink:href="#ma5033fd68f" x="358.209917" y="212.048402" style="stroke: #000000"/>
     <use xlink:href="#ma5033fd68f" x="361.284298" y="206.05896" style="stroke: #000000"/>
     <use xlink:href="#ma5033fd68f" x="364.358678" y="207.965686" style="stroke: #000000"/>
     <use xlink:href="#ma5033fd68f" x="367.433058" y="208.724616" style="stroke: #000000"/>
     <use xlink:href="#ma5033fd68f" x="370.507438" y="207.203707" style="stroke: #000000"/>
     <use xlink:href="#ma5033fd68f" x="373.581818" y="206.159435" style="stroke: #000000"/>
    </g>
   </g>
   <g id="line2d_29">
    <path d="M 69.218182 141.505068 
L 72.292562 145.298605 
L 75.366942 167.095311 
L 78.441322 175.06193 
L 81.515702 177.561786 
L 84.590083 182.932651 
L 87.664463 189.169544 
L 90.738843 195.870153 
L 93.813223 194.209609 
L 96.887603 193.932398 
L 99.961983 187.124454 
L 103.036364 198.937011 
L 106.110744 213.713339 
L 109.185124 208.494982 
L 112.259504 199.60179 
L 115.333884 209.690773 
L 118.408264 207.386483 
L 121.482645 227.714877 
L 124.557025 212.311411 
L 127.631405 207.868701 
L 130.705785 209.397752 
L 133.780165 212.794347 
L 136.854545 218.565862 
L 139.928926 224.335628 
L 143.003306 220.706867 
L 146.077686 215.727627 
L 149.152066 220.07031 
L 152.226446 222.023309 
L 155.300826 223.549461 
L 158.375207 222.301079 
L 161.449587 223.643551 
L 164.523967 219.551429 
L 167.598347 225.636866 
L 170.672727 228.15093 
L 173.747107 221.903188 
L 176.821488 217.649277 
L 179.895868 223.97356 
L 182.970248 228.416984 
L 186.044628 217.472903 
L 189.119008 223.496131 
L 192.193388 227.892654 
L 195.267769 223.338479 
L 198.342149 220.359768 
L 201.416529 219.63397 
L 204.490909 224.649824 
L 207.565289 226.165765 
L 210.639669 221.421757 
L 213.71405 237.249268 
L 216.78843 221.148383 
L 219.86281 226.595468 
L 222.93719 229.237222 
L 226.01157 229.600739 
L 229.08595 224.632057 
L 232.160331 229.188337 
L 235.234711 224.513536 
L 238.309091 231.063066 
L 241.383471 229.314187 
L 244.457851 225.75639 
L 247.532231 224.480691 
L 250.606612 228.333665 
L 253.680992 225.997814 
L 256.755372 228.908215 
L 259.829752 230.786853 
L 262.904132 225.465808 
L 265.978512 228.840656 
L 269.052893 228.922155 
L 272.127273 218.909296 
L 275.201653 225.212992 
L 278.276033 226.717933 
L 281.350413 226.820167 
L 284.424793 236.064903 
L 287.499174 229.6505 
L 290.573554 229.976225 
L 293.647934 229.560029 
L 296.722314 234.55968 
L 299.796694 231.026748 
L 302.871074 225.484559 
L 305.945455 234.110547 
L 309.019835 239.34661 
L 312.094215 226.919271 
L 315.168595 226.859888 
L 318.242975 230.352681 
L 321.317355 235.405173 
L 324.391736 238.05126 
L 327.466116 236.872849 
L 330.540496 231.023561 
L 333.614876 239.949023 
L 336.689256 234.614178 
L 339.763636 225.808748 
L 342.838017 224.874366 
L 345.912397 236.540213 
L 348.986777 236.465673 
L 352.061157 241.211424 
L 355.135537 233.477207 
L 358.209917 230.268978 
L 361.284298 242.116364 
L 364.358678 240.300365 
L 367.433058 238.208535 
L 370.507438 237.651584 
L 373.581818 240.28134 
" clip-path="url(#pc475bd5599)" style="fill: none; stroke-dasharray: 5.55,2.4; stroke-dashoffset: 0; stroke: #000000; stroke-width: 1.5"/>
    <g clip-path="url(#pc475bd5599)">
     <use xlink:href="#ma5033fd68f" x="69.218182" y="141.505068" style="stroke: #000000"/>
     <use xlink:href="#ma5033fd68f" x="72.292562" y="145.298605" style="stroke: #000000"/>
     <use xlink:href="#ma5033fd68f" x="75.366942" y="167.095311" style="stroke: #000000"/>
     <use xlink:href="#ma5033fd68f" x="78.441322" y="175.06193" style="stroke: #000000"/>
     <use xlink:href="#ma5033fd68f" x="81.515702" y="177.561786" style="stroke: #000000"/>
     <use xlink:href="#ma5033fd68f" x="84.590083" y="182.932651" style="stroke: #000000"/>
     <use xlink:href="#ma5033fd68f" x="87.664463" y="189.169544" style="stroke: #000000"/>
     <use xlink:href="#ma5033fd68f" x="90.738843" y="195.870153" style="stroke: #000000"/>
     <use xlink:href="#ma5033fd68f" x="93.813223" y="194.209609" style="stroke: #000000"/>
     <use xlink:href="#ma5033fd68f" x="96.887603" y="193.932398" style="stroke: #000000"/>
     <use xlink:href="#ma5033fd68f" x="99.961983" y="187.124454" style="stroke: #000000"/>
     <use xlink:href="#ma5033fd68f" x="103.036364" y="198.937011" style="stroke: #000000"/>
     <use xlink:href="#ma5033fd68f" x="106.110744" y="213.713339" style="stroke: #000000"/>
     <use xlink:href="#ma5033fd68f" x="109.185124" y="208.494982" style="stroke: #000000"/>
     <use xlink:href="#ma5033fd68f" x="112.259504" y="199.60179" style="stroke: #000000"/>
     <use xlink:href="#ma5033fd68f" x="115.333884" y="209.690773" style="stroke: #000000"/>
     <use xlink:href="#ma5033fd68f" x="118.408264" y="207.386483" style="stroke: #000000"/>
     <use xlink:href="#ma5033fd68f" x="121.482645" y="227.714877" style="stroke: #000000"/>
     <use xlink:href="#ma5033fd68f" x="124.557025" y="212.311411" style="stroke: #000000"/>
     <use xlink:href="#ma5033fd68f" x="127.631405" y="207.868701" style="stroke: #000000"/>
     <use xlink:href="#ma5033fd68f" x="130.705785" y="209.397752" style="stroke: #000000"/>
     <use xlink:href="#ma5033fd68f" x="133.780165" y="212.794347" style="stroke: #000000"/>
     <use xlink:href="#ma5033fd68f" x="136.854545" y="218.565862" style="stroke: #000000"/>
     <use xlink:href="#ma5033fd68f" x="139.928926" y="224.335628" style="stroke: #000000"/>
     <use xlink:href="#ma5033fd68f" x="143.003306" y="220.706867" style="stroke: #000000"/>
     <use xlink:href="#ma5033fd68f" x="146.077686" y="215.727627" style="stroke: #000000"/>
     <use xlink:href="#ma5033fd68f" x="149.152066" y="220.07031" style="stroke: #000000"/>
     <use xlink:href="#ma5033fd68f" x="152.226446" y="222.023309" style="stroke: #000000"/>
     <use xlink:href="#ma5033fd68f" x="155.300826" y="223.549461" style="stroke: #000000"/>
     <use xlink:href="#ma5033fd68f" x="158.375207" y="222.301079" style="stroke: #000000"/>
     <use xlink:href="#ma5033fd68f" x="161.449587" y="223.643551" style="stroke: #000000"/>
     <use xlink:href="#ma5033fd68f" x="164.523967" y="219.551429" style="stroke: #000000"/>
     <use xlink:href="#ma5033fd68f" x="167.598347" y="225.636866" style="stroke: #000000"/>
     <use xlink:href="#ma5033fd68f" x="170.672727" y="228.15093" style="stroke: #000000"/>
     <use xlink:href="#ma5033fd68f" x="173.747107" y="221.903188" style="stroke: #000000"/>
     <use xlink:href="#ma5033fd68f" x="176.821488" y="217.649277" style="stroke: #000000"/>
     <use xlink:href="#ma5033fd68f" x="179.895868" y="223.97356" style="stroke: #000000"/>
     <use xlink:href="#ma5033fd68f" x="182.970248" y="228.416984" style="stroke: #000000"/>
     <use xlink:href="#ma5033fd68f" x="186.044628" y="217.472903" style="stroke: #000000"/>
     <use xlink:href="#ma5033fd68f" x="189.119008" y="223.496131" style="stroke: #000000"/>
     <use xlink:href="#ma5033fd68f" x="192.193388" y="227.892654" style="stroke: #000000"/>
     <use xlink:href="#ma5033fd68f" x="195.267769" y="223.338479" style="stroke: #000000"/>
     <use xlink:href="#ma5033fd68f" x="198.342149" y="220.359768" style="stroke: #000000"/>
     <use xlink:href="#ma5033fd68f" x="201.416529" y="219.63397" style="stroke: #000000"/>
     <use xlink:href="#ma5033fd68f" x="204.490909" y="224.649824" style="stroke: #000000"/>
     <use xlink:href="#ma5033fd68f" x="207.565289" y="226.165765" style="stroke: #000000"/>
     <use xlink:href="#ma5033fd68f" x="210.639669" y="221.421757" style="stroke: #000000"/>
     <use xlink:href="#ma5033fd68f" x="213.71405" y="237.249268" style="stroke: #000000"/>
     <use xlink:href="#ma5033fd68f" x="216.78843" y="221.148383" style="stroke: #000000"/>
     <use xlink:href="#ma5033fd68f" x="219.86281" y="226.595468" style="stroke: #000000"/>
     <use xlink:href="#ma5033fd68f" x="222.93719" y="229.237222" style="stroke: #000000"/>
     <use xlink:href="#ma5033fd68f" x="226.01157" y="229.600739" style="stroke: #000000"/>
     <use xlink:href="#ma5033fd68f" x="229.08595" y="224.632057" style="stroke: #000000"/>
     <use xlink:href="#ma5033fd68f" x="232.160331" y="229.188337" style="stroke: #000000"/>
     <use xlink:href="#ma5033fd68f" x="235.234711" y="224.513536" style="stroke: #000000"/>
     <use xlink:href="#ma5033fd68f" x="238.309091" y="231.063066" style="stroke: #000000"/>
     <use xlink:href="#ma5033fd68f" x="241.383471" y="229.314187" style="stroke: #000000"/>
     <use xlink:href="#ma5033fd68f" x="244.457851" y="225.75639" style="stroke: #000000"/>
     <use xlink:href="#ma5033fd68f" x="247.532231" y="224.480691" style="stroke: #000000"/>
     <use xlink:href="#ma5033fd68f" x="250.606612" y="228.333665" style="stroke: #000000"/>
     <use xlink:href="#ma5033fd68f" x="253.680992" y="225.997814" style="stroke: #000000"/>
     <use xlink:href="#ma5033fd68f" x="256.755372" y="228.908215" style="stroke: #000000"/>
     <use xlink:href="#ma5033fd68f" x="259.829752" y="230.786853" style="stroke: #000000"/>
     <use xlink:href="#ma5033fd68f" x="262.904132" y="225.465808" style="stroke: #000000"/>
     <use xlink:href="#ma5033fd68f" x="265.978512" y="228.840656" style="stroke: #000000"/>
     <use xlink:href="#ma5033fd68f" x="269.052893" y="228.922155" style="stroke: #000000"/>
     <use xlink:href="#ma5033fd68f" x="272.127273" y="218.909296" style="stroke: #000000"/>
     <use xlink:href="#ma5033fd68f" x="275.201653" y="225.212992" style="stroke: #000000"/>
     <use xlink:href="#ma5033fd68f" x="278.276033" y="226.717933" style="stroke: #000000"/>
     <use xlink:href="#ma5033fd68f" x="281.350413" y="226.820167" style="stroke: #000000"/>
     <use xlink:href="#ma5033fd68f" x="284.424793" y="236.064903" style="stroke: #000000"/>
     <use xlink:href="#ma5033fd68f" x="287.499174" y="229.6505" style="stroke: #000000"/>
     <use xlink:href="#ma5033fd68f" x="290.573554" y="229.976225" style="stroke: #000000"/>
     <use xlink:href="#ma5033fd68f" x="293.647934" y="229.560029" style="stroke: #000000"/>
     <use xlink:href="#ma5033fd68f" x="296.722314" y="234.55968" style="stroke: #000000"/>
     <use xlink:href="#ma5033fd68f" x="299.796694" y="231.026748" style="stroke: #000000"/>
     <use xlink:href="#ma5033fd68f" x="302.871074" y="225.484559" style="stroke: #000000"/>
     <use xlink:href="#ma5033fd68f" x="305.945455" y="234.110547" style="stroke: #000000"/>
     <use xlink:href="#ma5033fd68f" x="309.019835" y="239.34661" style="stroke: #000000"/>
     <use xlink:href="#ma5033fd68f" x="312.094215" y="226.919271" style="stroke: #000000"/>
     <use xlink:href="#ma5033fd68f" x="315.168595" y="226.859888" style="stroke: #000000"/>
     <use xlink:href="#ma5033fd68f" x="318.242975" y="230.352681" style="stroke: #000000"/>
     <use xlink:href="#ma5033fd68f" x="321.317355" y="235.405173" style="stroke: #000000"/>
     <use xlink:href="#ma5033fd68f" x="324.391736" y="238.05126" style="stroke: #000000"/>
     <use xlink:href="#ma5033fd68f" x="327.466116" y="236.872849" style="stroke: #000000"/>
     <use xlink:href="#ma5033fd68f" x="330.540496" y="231.023561" style="stroke: #000000"/>
     <use xlink:href="#ma5033fd68f" x="333.614876" y="239.949023" style="stroke: #000000"/>
     <use xlink:href="#ma5033fd68f" x="336.689256" y="234.614178" style="stroke: #000000"/>
     <use xlink:href="#ma5033fd68f" x="339.763636" y="225.808748" style="stroke: #000000"/>
     <use xlink:href="#ma5033fd68f" x="342.838017" y="224.874366" style="stroke: #000000"/>
     <use xlink:href="#ma5033fd68f" x="345.912397" y="236.540213" style="stroke: #000000"/>
     <use xlink:href="#ma5033fd68f" x="348.986777" y="236.465673" style="stroke: #000000"/>
     <use xlink:href="#ma5033fd68f" x="352.061157" y="241.211424" style="stroke: #000000"/>
     <use xlink:href="#ma5033fd68f" x="355.135537" y="233.477207" style="stroke: #000000"/>
     <use xlink:href="#ma5033fd68f" x="358.209917" y="230.268978" style="stroke: #000000"/>
     <use xlink:href="#ma5033fd68f" x="361.284298" y="242.116364" style="stroke: #000000"/>
     <use xlink:href="#ma5033fd68f" x="364.358678" y="240.300365" style="stroke: #000000"/>
     <use xlink:href="#ma5033fd68f" x="367.433058" y="238.208535" style="stroke: #000000"/>
     <use xlink:href="#ma5033fd68f" x="370.507438" y="237.651584" style="stroke: #000000"/>
     <use xlink:href="#ma5033fd68f" x="373.581818" y="240.28134" style="stroke: #000000"/>
    </g>
   </g>
   <g id="patch_3">
    <path d="M 54 252 
L 54 34.56 
" style="fill: none; stroke: #000000; stroke-width: 0.8; stroke-linejoin: miter; stroke-linecap: square"/>
   </g>
   <g id="patch_4">
    <path d="M 388.8 252 
L 388.8 34.56 
" style="fill: none; stroke: #000000; stroke-width: 0.8; stroke-linejoin: miter; stroke-linecap: square"/>
   </g>
   <g id="patch_5">
    <path d="M 54 252 
L 388.8 252 
" style="fill: none; stroke: #000000; stroke-width: 0.8; stroke-linejoin: miter; stroke-linecap: square"/>
   </g>
   <g id="patch_6">
    <path d="M 54 34.56 
L 388.8 34.56 
" style="fill: none; stroke: #000000; stroke-width: 0.8; stroke-linejoin: miter; stroke-linecap: square"/>
   </g>
   <g id="legend_1">
    <g id="patch_7">
     <path d="M 294.9 130.62875 
L 381.8 130.62875 
Q 383.8 130.62875 383.8 128.62875 
L 383.8 41.56 
Q 383.8 39.56 381.8 39.56 
L 294.9 39.56 
Q 292.9 39.56 292.9 41.56 
L 292.9 128.62875 
Q 292.9 130.62875 294.9 130.62875 
z
" style="fill: #ffffff; opacity: 0.8; stroke: #cccccc; stroke-linejoin: miter"/>
    </g>
    <g id="line2d_30">
     <path d="M 296.9 47.658437 
L 306.9 47.658437 
L 316.9 47.658437 
" style="fill: none; stroke: #000000; stroke-width: 1.5; stroke-linecap: square"/>
    </g>
    <g id="text_11">
     <!-- $2^{7}$ actions -->
     <g transform="translate(324.9 51.158437)scale(0.1 -0.1)">
      <defs>
       <path id="DejaVuSans-37" d="M 525 4666 
L 3525 4666 
L 3525 4397 
L 1831 0 
L 1172 0 
L 2766 4134 
L 525 4134 
L 525 4666 
z
" transform="scale(0.015625)"/>
       <path id="DejaVuSans-20" transform="scale(0.015625)"/>
       <path id="DejaVuSans-63" d="M 3122 3366 
L 3122 2828 
Q 2878 2963 2633 3030 
Q 2388 3097 2138 3097 
Q 1578 3097 1268 2742 
Q 959 2388 959 1747 
Q 959 1106 1268 751 
Q 1578 397 2138 397 
Q 2388 397 2633 464 
Q 2878 531 3122 666 
L 3122 134 
Q 2881 22 2623 -34 
Q 2366 -91 2075 -91 
Q 1284 -91 818 406 
Q 353 903 353 1747 
Q 353 2603 823 3093 
Q 1294 3584 2113 3584 
Q 2378 3584 2631 3529 
Q 2884 3475 3122 3366 
z
" transform="scale(0.015625)"/>
      </defs>
      <use xlink:href="#DejaVuSans-32" transform="translate(0 0.684375)"/>
      <use xlink:href="#DejaVuSans-37" transform="translate(64.580078 38.965625)scale(0.7)"/>
      <use xlink:href="#DejaVuSans-20" transform="translate(111.850586 0.684375)"/>
      <use xlink:href="#DejaVuSans-61" transform="translate(143.637695 0.684375)"/>
      <use xlink:href="#DejaVuSans-63" transform="translate(204.916992 0.684375)"/>
      <use xlink:href="#DejaVuSans-74" transform="translate(259.897461 0.684375)"/>
      <use xlink:href="#DejaVuSans-69" transform="translate(299.106445 0.684375)"/>
      <use xlink:href="#DejaVuSans-6f" transform="translate(326.889648 0.684375)"/>
      <use xlink:href="#DejaVuSans-6e" transform="translate(388.071289 0.684375)"/>
      <use xlink:href="#DejaVuSans-73" transform="translate(451.450195 0.684375)"/>
     </g>
    </g>
    <g id="line2d_31">
     <path d="M 296.9 62.336562 
L 306.9 62.336562 
L 316.9 62.336562 
" style="fill: none; stroke-dasharray: 5.55,2.4; stroke-dashoffset: 0; stroke: #000000; stroke-width: 1.5"/>
    </g>
    <g id="text_12">
     <!-- $2^{8}$ actions -->
     <g transform="translate(324.9 65.836562)scale(0.1 -0.1)">
      <use xlink:href="#DejaVuSans-32" transform="translate(0 0.765625)"/>
      <use xlink:href="#DejaVuSans-38" transform="translate(64.580078 39.046875)scale(0.7)"/>
      <use xlink:href="#DejaVuSans-20" transform="translate(111.850586 0.765625)"/>
      <use xlink:href="#DejaVuSans-61" transform="translate(143.637695 0.765625)"/>
      <use xlink:href="#DejaVuSans-63" transform="translate(204.916992 0.765625)"/>
      <use xlink:href="#DejaVuSans-74" transform="translate(259.897461 0.765625)"/>
      <use xlink:href="#DejaVuSans-69" transform="translate(299.106445 0.765625)"/>
      <use xlink:href="#DejaVuSans-6f" transform="translate(326.889648 0.765625)"/>
      <use xlink:href="#DejaVuSans-6e" transform="translate(388.071289 0.765625)"/>
      <use xlink:href="#DejaVuSans-73" transform="translate(451.450195 0.765625)"/>
     </g>
    </g>
    <g id="line2d_32">
     <path d="M 296.9 77.014687 
L 306.9 77.014687 
L 316.9 77.014687 
" style="fill: none; stroke-dasharray: 1.5,2.475; stroke-dashoffset: 0; stroke: #000000; stroke-width: 1.5"/>
    </g>
    <g id="text_13">
     <!-- $2^{9}$ actions -->
     <g transform="translate(324.9 80.514687)scale(0.1 -0.1)">
      <defs>
       <path id="DejaVuSans-39" d="M 703 97 
L 703 672 
Q 941 559 1184 500 
Q 1428 441 1663 441 
Q 2288 441 2617 861 
Q 2947 1281 2994 2138 
Q 2813 1869 2534 1725 
Q 2256 1581 1919 1581 
Q 1219 1581 811 2004 
Q 403 2428 403 3163 
Q 403 3881 828 4315 
Q 1253 4750 1959 4750 
Q 2769 4750 3195 4129 
Q 3622 3509 3622 2328 
Q 3622 1225 3098 567 
Q 2575 -91 1691 -91 
Q 1453 -91 1209 -44 
Q 966 3 703 97 
z
M 1959 2075 
Q 2384 2075 2632 2365 
Q 2881 2656 2881 3163 
Q 2881 3666 2632 3958 
Q 2384 4250 1959 4250 
Q 1534 4250 1286 3958 
Q 1038 3666 1038 3163 
Q 1038 2656 1286 2365 
Q 1534 2075 1959 2075 
z
" transform="scale(0.015625)"/>
      </defs>
      <use xlink:href="#DejaVuSans-32" transform="translate(0 0.765625)"/>
      <use xlink:href="#DejaVuSans-39" transform="translate(64.580078 39.046875)scale(0.7)"/>
      <use xlink:href="#DejaVuSans-20" transform="translate(111.850586 0.765625)"/>
      <use xlink:href="#DejaVuSans-61" transform="translate(143.637695 0.765625)"/>
      <use xlink:href="#DejaVuSans-63" transform="translate(204.916992 0.765625)"/>
      <use xlink:href="#DejaVuSans-74" transform="translate(259.897461 0.765625)"/>
      <use xlink:href="#DejaVuSans-69" transform="translate(299.106445 0.765625)"/>
      <use xlink:href="#DejaVuSans-6f" transform="translate(326.889648 0.765625)"/>
      <use xlink:href="#DejaVuSans-6e" transform="translate(388.071289 0.765625)"/>
      <use xlink:href="#DejaVuSans-73" transform="translate(451.450195 0.765625)"/>
     </g>
    </g>
    <g id="line2d_33">
     <path d="M 296.9 91.692813 
L 306.9 91.692813 
L 316.9 91.692813 
" style="fill: none; stroke-dasharray: 9.6,2.4,1.5,2.4; stroke-dashoffset: 0; stroke: #000000; stroke-width: 1.5"/>
    </g>
    <g id="text_14">
     <!-- $2^{10}$ actions -->
     <g transform="translate(324.9 95.192813)scale(0.1 -0.1)">
      <use xlink:href="#DejaVuSans-32" transform="translate(0 0.765625)"/>
      <use xlink:href="#DejaVuSans-31" transform="translate(64.580078 39.046875)scale(0.7)"/>
      <use xlink:href="#DejaVuSans-30" transform="translate(109.116211 39.046875)scale(0.7)"/>
      <use xlink:href="#DejaVuSans-20" transform="translate(156.386719 0.765625)"/>
      <use xlink:href="#DejaVuSans-61" transform="translate(188.173828 0.765625)"/>
      <use xlink:href="#DejaVuSans-63" transform="translate(249.453125 0.765625)"/>
      <use xlink:href="#DejaVuSans-74" transform="translate(304.433594 0.765625)"/>
      <use xlink:href="#DejaVuSans-69" transform="translate(343.642578 0.765625)"/>
      <use xlink:href="#DejaVuSans-6f" transform="translate(371.425781 0.765625)"/>
      <use xlink:href="#DejaVuSans-6e" transform="translate(432.607422 0.765625)"/>
      <use xlink:href="#DejaVuSans-73" transform="translate(495.986328 0.765625)"/>
     </g>
    </g>
    <g id="line2d_34">
     <path d="M 296.9 106.370937 
L 306.9 106.370937 
L 316.9 106.370937 
" style="fill: none; stroke: #000000; stroke-width: 1.5; stroke-linecap: square"/>
     <g>
      <use xlink:href="#ma5033fd68f" x="306.9" y="106.370937" style="stroke: #000000"/>
     </g>
    </g>
    <g id="text_15">
     <!-- $2^{11}$ actions -->
     <g transform="translate(324.9 109.870937)scale(0.1 -0.1)">
      <use xlink:href="#DejaVuSans-32" transform="translate(0 0.684375)"/>
      <use xlink:href="#DejaVuSans-31" transform="translate(64.580078 38.965625)scale(0.7)"/>
      <use xlink:href="#DejaVuSans-31" transform="translate(109.116211 38.965625)scale(0.7)"/>
      <use xlink:href="#DejaVuSans-20" transform="translate(156.386719 0.684375)"/>
      <use xlink:href="#DejaVuSans-61" transform="translate(188.173828 0.684375)"/>
      <use xlink:href="#DejaVuSans-63" transform="translate(249.453125 0.684375)"/>
      <use xlink:href="#DejaVuSans-74" transform="translate(304.433594 0.684375)"/>
      <use xlink:href="#DejaVuSans-69" transform="translate(343.642578 0.684375)"/>
      <use xlink:href="#DejaVuSans-6f" transform="translate(371.425781 0.684375)"/>
      <use xlink:href="#DejaVuSans-6e" transform="translate(432.607422 0.684375)"/>
      <use xlink:href="#DejaVuSans-73" transform="translate(495.986328 0.684375)"/>
     </g>
    </g>
    <g id="line2d_35">
     <path d="M 296.9 121.049062 
L 306.9 121.049062 
L 316.9 121.049062 
" style="fill: none; stroke-dasharray: 5.55,2.4; stroke-dashoffset: 0; stroke: #000000; stroke-width: 1.5"/>
     <g>
      <use xlink:href="#ma5033fd68f" x="306.9" y="121.049062" style="stroke: #000000"/>
     </g>
    </g>
    <g id="text_16">
     <!-- $2^{12}$ actions -->
     <g transform="translate(324.9 124.549062)scale(0.1 -0.1)">
      <use xlink:href="#DejaVuSans-32" transform="translate(0 0.765625)"/>
      <use xlink:href="#DejaVuSans-31" transform="translate(64.580078 39.046875)scale(0.7)"/>
      <use xlink:href="#DejaVuSans-32" transform="translate(109.116211 39.046875)scale(0.7)"/>
      <use xlink:href="#DejaVuSans-20" transform="translate(156.386719 0.765625)"/>
      <use xlink:href="#DejaVuSans-61" transform="translate(188.173828 0.765625)"/>
      <use xlink:href="#DejaVuSans-63" transform="translate(249.453125 0.765625)"/>
      <use xlink:href="#DejaVuSans-74" transform="translate(304.433594 0.765625)"/>
      <use xlink:href="#DejaVuSans-69" transform="translate(343.642578 0.765625)"/>
      <use xlink:href="#DejaVuSans-6f" transform="translate(371.425781 0.765625)"/>
      <use xlink:href="#DejaVuSans-6e" transform="translate(432.607422 0.765625)"/>
      <use xlink:href="#DejaVuSans-73" transform="translate(495.986328 0.765625)"/>
     </g>
    </g>
   </g>
  </g>
 </g>
 <defs>
  <clipPath id="pc475bd5599">
   <rect x="54" y="34.56" width="334.8" height="217.44"/>
  </clipPath>
 </defs>
</svg>
