<?xml version="1.0" encoding="utf-8" standalone="no"?>
<!DOCTYPE svg PUBLIC "-//W3C//DTD SVG 1.1//EN"
  "http://www.w3.org/Graphics/SVG/1.1/DTD/svg11.dtd">
<svg xmlns:xlink="http://www.w3.org/1999/xlink" width="432pt" height="288pt" viewBox="0 0 432 288" xmlns="http://www.w3.org/2000/svg" version="1.1">
 <metadata>
  <rdf:RDF xmlns:dc="http://purl.org/dc/elements/1.1/" xmlns:cc="http://creativecommons.org/ns#" xmlns:rdf="http://www.w3.org/1999/02/22-rdf-syntax-ns#">
   <cc:Work>
    <dc:type rdf:resource="http://purl.org/dc/dcmitype/StillImage"/>
    <dc:date>2023-04-17T01:48:19.078716</dc:date>
    <dc:format>image/svg+xml</dc:format>
    <dc:creator>
     <cc:Agent>
      <dc:title>Matplotlib v3.5.1, https://matplotlib.org/</dc:title>
     </cc:Agent>
    </dc:creator>
   </cc:Work>
  </rdf:RDF>
 </metadata>
 <defs>
  <style type="text/css">*{stroke-linejoin: round; stroke-linecap: butt}</style>
 </defs>
 <g id="figure_1">
  <g id="patch_1">
   <path d="M 0 288 
L 432 288 
L 432 0 
L 0 0 
L 0 288 
z
" style="fill: none"/>
  </g>
  <g id="axes_1">
   <g id="patch_2">
    <path d="M 54 252 
L 388.8 252 
L 388.8 34.56 
L 54 34.56 
z
" style="fill: #ffffff"/>
   </g>
   <g id="matplotlib.axis_1">
    <g id="xtick_1">
     <g id="line2d_1">
      <defs>
       <path id="m64e235e049" d="M 0 0 
L 0 3.5 
" style="stroke: #000000; stroke-width: 0.8"/>
      </defs>
      <g>
       <use xlink:href="#m64e235e049" x="66.284125" y="252" style="stroke: #000000; stroke-width: 0.8"/>
      </g>
     </g>
     <g id="text_1">
      <!-- 0 -->
      <g transform="translate(63.102875 266.598437)scale(0.1 -0.1)">
       <defs>
        <path id="DejaVuSans-30" d="M 2034 4250 
Q 1547 4250 1301 3770 
Q 1056 3291 1056 2328 
Q 1056 1369 1301 889 
Q 1547 409 2034 409 
Q 2525 409 2770 889 
Q 3016 1369 3016 2328 
Q 3016 3291 2770 3770 
Q 2525 4250 2034 4250 
z
M 2034 4750 
Q 2819 4750 3233 4129 
Q 3647 3509 3647 2328 
Q 3647 1150 3233 529 
Q 2819 -91 2034 -91 
Q 1250 -91 836 529 
Q 422 1150 422 2328 
Q 422 3509 836 4129 
Q 1250 4750 2034 4750 
z
" transform="scale(0.015625)"/>
       </defs>
       <use xlink:href="#DejaVuSans-30"/>
      </g>
     </g>
    </g>
    <g id="xtick_2">
     <g id="line2d_2">
      <g>
       <use xlink:href="#m64e235e049" x="109.281591" y="252" style="stroke: #000000; stroke-width: 0.8"/>
      </g>
     </g>
     <g id="text_2">
      <!-- 250 -->
      <g transform="translate(99.737841 266.598437)scale(0.1 -0.1)">
       <defs>
        <path id="DejaVuSans-32" d="M 1228 531 
L 3431 531 
L 3431 0 
L 469 0 
L 469 531 
Q 828 903 1448 1529 
Q 2069 2156 2228 2338 
Q 2531 2678 2651 2914 
Q 2772 3150 2772 3378 
Q 2772 3750 2511 3984 
Q 2250 4219 1831 4219 
Q 1534 4219 1204 4116 
Q 875 4013 500 3803 
L 500 4441 
Q 881 4594 1212 4672 
Q 1544 4750 1819 4750 
Q 2544 4750 2975 4387 
Q 3406 4025 3406 3419 
Q 3406 3131 3298 2873 
Q 3191 2616 2906 2266 
Q 2828 2175 2409 1742 
Q 1991 1309 1228 531 
z
" transform="scale(0.015625)"/>
        <path id="DejaVuSans-35" d="M 691 4666 
L 3169 4666 
L 3169 4134 
L 1269 4134 
L 1269 2991 
Q 1406 3038 1543 3061 
Q 1681 3084 1819 3084 
Q 2600 3084 3056 2656 
Q 3513 2228 3513 1497 
Q 3513 744 3044 326 
Q 2575 -91 1722 -91 
Q 1428 -91 1123 -41 
Q 819 9 494 109 
L 494 744 
Q 775 591 1075 516 
Q 1375 441 1709 441 
Q 2250 441 2565 725 
Q 2881 1009 2881 1497 
Q 2881 1984 2565 2268 
Q 2250 2553 1709 2553 
Q 1456 2553 1204 2497 
Q 953 2441 691 2322 
L 691 4666 
z
" transform="scale(0.015625)"/>
       </defs>
       <use xlink:href="#DejaVuSans-32"/>
       <use xlink:href="#DejaVuSans-35" x="63.623047"/>
       <use xlink:href="#DejaVuSans-30" x="127.246094"/>
      </g>
     </g>
    </g>
    <g id="xtick_3">
     <g id="line2d_3">
      <g>
       <use xlink:href="#m64e235e049" x="152.279057" y="252" style="stroke: #000000; stroke-width: 0.8"/>
      </g>
     </g>
     <g id="text_3">
      <!-- 500 -->
      <g transform="translate(142.735307 266.598437)scale(0.1 -0.1)">
       <use xlink:href="#DejaVuSans-35"/>
       <use xlink:href="#DejaVuSans-30" x="63.623047"/>
       <use xlink:href="#DejaVuSans-30" x="127.246094"/>
      </g>
     </g>
    </g>
    <g id="xtick_4">
     <g id="line2d_4">
      <g>
       <use xlink:href="#m64e235e049" x="195.276522" y="252" style="stroke: #000000; stroke-width: 0.8"/>
      </g>
     </g>
     <g id="text_4">
      <!-- 750 -->
      <g transform="translate(185.732772 266.598437)scale(0.1 -0.1)">
       <defs>
        <path id="DejaVuSans-37" d="M 525 4666 
L 3525 4666 
L 3525 4397 
L 1831 0 
L 1172 0 
L 2766 4134 
L 525 4134 
L 525 4666 
z
" transform="scale(0.015625)"/>
       </defs>
       <use xlink:href="#DejaVuSans-37"/>
       <use xlink:href="#DejaVuSans-35" x="63.623047"/>
       <use xlink:href="#DejaVuSans-30" x="127.246094"/>
      </g>
     </g>
    </g>
    <g id="xtick_5">
     <g id="line2d_5">
      <g>
       <use xlink:href="#m64e235e049" x="238.273988" y="252" style="stroke: #000000; stroke-width: 0.8"/>
      </g>
     </g>
     <g id="text_5">
      <!-- 1000 -->
      <g transform="translate(225.548988 266.598437)scale(0.1 -0.1)">
       <defs>
        <path id="DejaVuSans-31" d="M 794 531 
L 1825 531 
L 1825 4091 
L 703 3866 
L 703 4441 
L 1819 4666 
L 2450 4666 
L 2450 531 
L 3481 531 
L 3481 0 
L 794 0 
L 794 531 
z
" transform="scale(0.015625)"/>
       </defs>
       <use xlink:href="#DejaVuSans-31"/>
       <use xlink:href="#DejaVuSans-30" x="63.623047"/>
       <use xlink:href="#DejaVuSans-30" x="127.246094"/>
       <use xlink:href="#DejaVuSans-30" x="190.869141"/>
      </g>
     </g>
    </g>
    <g id="xtick_6">
     <g id="line2d_6">
      <g>
       <use xlink:href="#m64e235e049" x="281.271454" y="252" style="stroke: #000000; stroke-width: 0.8"/>
      </g>
     </g>
     <g id="text_6">
      <!-- 1250 -->
      <g transform="translate(268.546454 266.598437)scale(0.1 -0.1)">
       <use xlink:href="#DejaVuSans-31"/>
       <use xlink:href="#DejaVuSans-32" x="63.623047"/>
       <use xlink:href="#DejaVuSans-35" x="127.246094"/>
       <use xlink:href="#DejaVuSans-30" x="190.869141"/>
      </g>
     </g>
    </g>
    <g id="xtick_7">
     <g id="line2d_7">
      <g>
       <use xlink:href="#m64e235e049" x="324.26892" y="252" style="stroke: #000000; stroke-width: 0.8"/>
      </g>
     </g>
     <g id="text_7">
      <!-- 1500 -->
      <g transform="translate(311.54392 266.598437)scale(0.1 -0.1)">
       <use xlink:href="#DejaVuSans-31"/>
       <use xlink:href="#DejaVuSans-35" x="63.623047"/>
       <use xlink:href="#DejaVuSans-30" x="127.246094"/>
       <use xlink:href="#DejaVuSans-30" x="190.869141"/>
      </g>
     </g>
    </g>
    <g id="xtick_8">
     <g id="line2d_8">
      <g>
       <use xlink:href="#m64e235e049" x="367.266386" y="252" style="stroke: #000000; stroke-width: 0.8"/>
      </g>
     </g>
     <g id="text_8">
      <!-- 1750 -->
      <g transform="translate(354.541386 266.598437)scale(0.1 -0.1)">
       <use xlink:href="#DejaVuSans-31"/>
       <use xlink:href="#DejaVuSans-37" x="63.623047"/>
       <use xlink:href="#DejaVuSans-35" x="127.246094"/>
       <use xlink:href="#DejaVuSans-30" x="190.869141"/>
      </g>
     </g>
    </g>
    <g id="text_9">
     <!-- time (s) -->
     <g transform="translate(202.008594 280.276563)scale(0.1 -0.1)">
      <defs>
       <path id="DejaVuSans-74" d="M 1172 4494 
L 1172 3500 
L 2356 3500 
L 2356 3053 
L 1172 3053 
L 1172 1153 
Q 1172 725 1289 603 
Q 1406 481 1766 481 
L 2356 481 
L 2356 0 
L 1766 0 
Q 1100 0 847 248 
Q 594 497 594 1153 
L 594 3053 
L 172 3053 
L 172 3500 
L 594 3500 
L 594 4494 
L 1172 4494 
z
" transform="scale(0.015625)"/>
       <path id="DejaVuSans-69" d="M 603 3500 
L 1178 3500 
L 1178 0 
L 603 0 
L 603 3500 
z
M 603 4863 
L 1178 4863 
L 1178 4134 
L 603 4134 
L 603 4863 
z
" transform="scale(0.015625)"/>
       <path id="DejaVuSans-6d" d="M 3328 2828 
Q 3544 3216 3844 3400 
Q 4144 3584 4550 3584 
Q 5097 3584 5394 3201 
Q 5691 2819 5691 2113 
L 5691 0 
L 5113 0 
L 5113 2094 
Q 5113 2597 4934 2840 
Q 4756 3084 4391 3084 
Q 3944 3084 3684 2787 
Q 3425 2491 3425 1978 
L 3425 0 
L 2847 0 
L 2847 2094 
Q 2847 2600 2669 2842 
Q 2491 3084 2119 3084 
Q 1678 3084 1418 2786 
Q 1159 2488 1159 1978 
L 1159 0 
L 581 0 
L 581 3500 
L 1159 3500 
L 1159 2956 
Q 1356 3278 1631 3431 
Q 1906 3584 2284 3584 
Q 2666 3584 2933 3390 
Q 3200 3197 3328 2828 
z
" transform="scale(0.015625)"/>
       <path id="DejaVuSans-65" d="M 3597 1894 
L 3597 1613 
L 953 1613 
Q 991 1019 1311 708 
Q 1631 397 2203 397 
Q 2534 397 2845 478 
Q 3156 559 3463 722 
L 3463 178 
Q 3153 47 2828 -22 
Q 2503 -91 2169 -91 
Q 1331 -91 842 396 
Q 353 884 353 1716 
Q 353 2575 817 3079 
Q 1281 3584 2069 3584 
Q 2775 3584 3186 3129 
Q 3597 2675 3597 1894 
z
M 3022 2063 
Q 3016 2534 2758 2815 
Q 2500 3097 2075 3097 
Q 1594 3097 1305 2825 
Q 1016 2553 972 2059 
L 3022 2063 
z
" transform="scale(0.015625)"/>
       <path id="DejaVuSans-20" transform="scale(0.015625)"/>
       <path id="DejaVuSans-28" d="M 1984 4856 
Q 1566 4138 1362 3434 
Q 1159 2731 1159 2009 
Q 1159 1288 1364 580 
Q 1569 -128 1984 -844 
L 1484 -844 
Q 1016 -109 783 600 
Q 550 1309 550 2009 
Q 550 2706 781 3412 
Q 1013 4119 1484 4856 
L 1984 4856 
z
" transform="scale(0.015625)"/>
       <path id="DejaVuSans-73" d="M 2834 3397 
L 2834 2853 
Q 2591 2978 2328 3040 
Q 2066 3103 1784 3103 
Q 1356 3103 1142 2972 
Q 928 2841 928 2578 
Q 928 2378 1081 2264 
Q 1234 2150 1697 2047 
L 1894 2003 
Q 2506 1872 2764 1633 
Q 3022 1394 3022 966 
Q 3022 478 2636 193 
Q 2250 -91 1575 -91 
Q 1294 -91 989 -36 
Q 684 19 347 128 
L 347 722 
Q 666 556 975 473 
Q 1284 391 1588 391 
Q 1994 391 2212 530 
Q 2431 669 2431 922 
Q 2431 1156 2273 1281 
Q 2116 1406 1581 1522 
L 1381 1569 
Q 847 1681 609 1914 
Q 372 2147 372 2553 
Q 372 3047 722 3315 
Q 1072 3584 1716 3584 
Q 2034 3584 2315 3537 
Q 2597 3491 2834 3397 
z
" transform="scale(0.015625)"/>
       <path id="DejaVuSans-29" d="M 513 4856 
L 1013 4856 
Q 1481 4119 1714 3412 
Q 1947 2706 1947 2009 
Q 1947 1309 1714 600 
Q 1481 -109 1013 -844 
L 513 -844 
Q 928 -128 1133 580 
Q 1338 1288 1338 2009 
Q 1338 2731 1133 3434 
Q 928 4138 513 4856 
z
" transform="scale(0.015625)"/>
      </defs>
      <use xlink:href="#DejaVuSans-74"/>
      <use xlink:href="#DejaVuSans-69" x="39.208984"/>
      <use xlink:href="#DejaVuSans-6d" x="66.992188"/>
      <use xlink:href="#DejaVuSans-65" x="164.404297"/>
      <use xlink:href="#DejaVuSans-20" x="225.927734"/>
      <use xlink:href="#DejaVuSans-28" x="257.714844"/>
      <use xlink:href="#DejaVuSans-73" x="296.728516"/>
      <use xlink:href="#DejaVuSans-29" x="348.828125"/>
     </g>
    </g>
   </g>
   <g id="matplotlib.axis_2">
    <g id="ytick_1">
     <g id="line2d_9">
      <defs>
       <path id="m1469a4e8c8" d="M 0 0 
L -3.5 0 
" style="stroke: #000000; stroke-width: 0.8"/>
      </defs>
      <g>
       <use xlink:href="#m1469a4e8c8" x="54" y="187.718713" style="stroke: #000000; stroke-width: 0.8"/>
      </g>
     </g>
     <g id="text_10">
      <!-- $\mathdefault{10^{-3}}$ -->
      <g transform="translate(23.5 191.517931)scale(0.1 -0.1)">
       <defs>
        <path id="DejaVuSans-2212" d="M 678 2272 
L 4684 2272 
L 4684 1741 
L 678 1741 
L 678 2272 
z
" transform="scale(0.015625)"/>
        <path id="DejaVuSans-33" d="M 2597 2516 
Q 3050 2419 3304 2112 
Q 3559 1806 3559 1356 
Q 3559 666 3084 287 
Q 2609 -91 1734 -91 
Q 1441 -91 1130 -33 
Q 819 25 488 141 
L 488 750 
Q 750 597 1062 519 
Q 1375 441 1716 441 
Q 2309 441 2620 675 
Q 2931 909 2931 1356 
Q 2931 1769 2642 2001 
Q 2353 2234 1838 2234 
L 1294 2234 
L 1294 2753 
L 1863 2753 
Q 2328 2753 2575 2939 
Q 2822 3125 2822 3475 
Q 2822 3834 2567 4026 
Q 2313 4219 1838 4219 
Q 1578 4219 1281 4162 
Q 984 4106 628 3988 
L 628 4550 
Q 988 4650 1302 4700 
Q 1616 4750 1894 4750 
Q 2613 4750 3031 4423 
Q 3450 4097 3450 3541 
Q 3450 3153 3228 2886 
Q 3006 2619 2597 2516 
z
" transform="scale(0.015625)"/>
       </defs>
       <use xlink:href="#DejaVuSans-31" transform="translate(0 0.765625)"/>
       <use xlink:href="#DejaVuSans-30" transform="translate(63.623047 0.765625)"/>
       <use xlink:href="#DejaVuSans-2212" transform="translate(128.203125 39.046875)scale(0.7)"/>
       <use xlink:href="#DejaVuSans-33" transform="translate(186.855469 39.046875)scale(0.7)"/>
      </g>
     </g>
    </g>
    <g id="ytick_2">
     <g id="line2d_10">
      <defs>
       <path id="mb0b69da0fb" d="M 0 0 
L -2 0 
" style="stroke: #000000; stroke-width: 0.6"/>
      </defs>
      <g>
       <use xlink:href="#mb0b69da0fb" x="54" y="238.211411" style="stroke: #000000; stroke-width: 0.6"/>
      </g>
     </g>
    </g>
    <g id="ytick_3">
     <g id="line2d_11">
      <g>
       <use xlink:href="#mb0b69da0fb" x="54" y="219.308036" style="stroke: #000000; stroke-width: 0.6"/>
      </g>
     </g>
    </g>
    <g id="ytick_4">
     <g id="line2d_12">
      <g>
       <use xlink:href="#mb0b69da0fb" x="54" y="202.634077" style="stroke: #000000; stroke-width: 0.6"/>
      </g>
     </g>
    </g>
    <g id="ytick_5">
     <g id="line2d_13">
      <g>
       <use xlink:href="#mb0b69da0fb" x="54" y="89.593313" style="stroke: #000000; stroke-width: 0.6"/>
      </g>
     </g>
     <g id="text_11">
      <!-- $\mathdefault{2\times10^{-3}}$ -->
      <g transform="translate(6.5 93.392532)scale(0.1 -0.1)">
       <defs>
        <path id="DejaVuSans-d7" d="M 4488 3438 
L 3059 2003 
L 4488 575 
L 4116 197 
L 2681 1631 
L 1247 197 
L 878 575 
L 2303 2003 
L 878 3438 
L 1247 3816 
L 2681 2381 
L 4116 3816 
L 4488 3438 
z
" transform="scale(0.015625)"/>
       </defs>
       <use xlink:href="#DejaVuSans-32" transform="translate(0 0.765625)"/>
       <use xlink:href="#DejaVuSans-d7" transform="translate(83.105469 0.765625)"/>
       <use xlink:href="#DejaVuSans-31" transform="translate(186.376953 0.765625)"/>
       <use xlink:href="#DejaVuSans-30" transform="translate(250 0.765625)"/>
       <use xlink:href="#DejaVuSans-2212" transform="translate(314.580078 39.046875)scale(0.7)"/>
       <use xlink:href="#DejaVuSans-33" transform="translate(373.232422 39.046875)scale(0.7)"/>
      </g>
     </g>
    </g>
    <g id="text_12">
     <!-- QuasiNashConv -->
     <g transform="translate(0.420312 182.699531)rotate(-90)scale(0.1 -0.1)">
      <defs>
       <path id="DejaVuSans-51" d="M 2522 4238 
Q 1834 4238 1429 3725 
Q 1025 3213 1025 2328 
Q 1025 1447 1429 934 
Q 1834 422 2522 422 
Q 3209 422 3611 934 
Q 4013 1447 4013 2328 
Q 4013 3213 3611 3725 
Q 3209 4238 2522 4238 
z
M 3406 84 
L 4238 -825 
L 3475 -825 
L 2784 -78 
Q 2681 -84 2626 -87 
Q 2572 -91 2522 -91 
Q 1538 -91 948 567 
Q 359 1225 359 2328 
Q 359 3434 948 4092 
Q 1538 4750 2522 4750 
Q 3503 4750 4090 4092 
Q 4678 3434 4678 2328 
Q 4678 1516 4351 937 
Q 4025 359 3406 84 
z
" transform="scale(0.015625)"/>
       <path id="DejaVuSans-75" d="M 544 1381 
L 544 3500 
L 1119 3500 
L 1119 1403 
Q 1119 906 1312 657 
Q 1506 409 1894 409 
Q 2359 409 2629 706 
Q 2900 1003 2900 1516 
L 2900 3500 
L 3475 3500 
L 3475 0 
L 2900 0 
L 2900 538 
Q 2691 219 2414 64 
Q 2138 -91 1772 -91 
Q 1169 -91 856 284 
Q 544 659 544 1381 
z
M 1991 3584 
L 1991 3584 
z
" transform="scale(0.015625)"/>
       <path id="DejaVuSans-61" d="M 2194 1759 
Q 1497 1759 1228 1600 
Q 959 1441 959 1056 
Q 959 750 1161 570 
Q 1363 391 1709 391 
Q 2188 391 2477 730 
Q 2766 1069 2766 1631 
L 2766 1759 
L 2194 1759 
z
M 3341 1997 
L 3341 0 
L 2766 0 
L 2766 531 
Q 2569 213 2275 61 
Q 1981 -91 1556 -91 
Q 1019 -91 701 211 
Q 384 513 384 1019 
Q 384 1609 779 1909 
Q 1175 2209 1959 2209 
L 2766 2209 
L 2766 2266 
Q 2766 2663 2505 2880 
Q 2244 3097 1772 3097 
Q 1472 3097 1187 3025 
Q 903 2953 641 2809 
L 641 3341 
Q 956 3463 1253 3523 
Q 1550 3584 1831 3584 
Q 2591 3584 2966 3190 
Q 3341 2797 3341 1997 
z
" transform="scale(0.015625)"/>
       <path id="DejaVuSans-4e" d="M 628 4666 
L 1478 4666 
L 3547 763 
L 3547 4666 
L 4159 4666 
L 4159 0 
L 3309 0 
L 1241 3903 
L 1241 0 
L 628 0 
L 628 4666 
z
" transform="scale(0.015625)"/>
       <path id="DejaVuSans-68" d="M 3513 2113 
L 3513 0 
L 2938 0 
L 2938 2094 
Q 2938 2591 2744 2837 
Q 2550 3084 2163 3084 
Q 1697 3084 1428 2787 
Q 1159 2491 1159 1978 
L 1159 0 
L 581 0 
L 581 4863 
L 1159 4863 
L 1159 2956 
Q 1366 3272 1645 3428 
Q 1925 3584 2291 3584 
Q 2894 3584 3203 3211 
Q 3513 2838 3513 2113 
z
" transform="scale(0.015625)"/>
       <path id="DejaVuSans-43" d="M 4122 4306 
L 4122 3641 
Q 3803 3938 3442 4084 
Q 3081 4231 2675 4231 
Q 1875 4231 1450 3742 
Q 1025 3253 1025 2328 
Q 1025 1406 1450 917 
Q 1875 428 2675 428 
Q 3081 428 3442 575 
Q 3803 722 4122 1019 
L 4122 359 
Q 3791 134 3420 21 
Q 3050 -91 2638 -91 
Q 1578 -91 968 557 
Q 359 1206 359 2328 
Q 359 3453 968 4101 
Q 1578 4750 2638 4750 
Q 3056 4750 3426 4639 
Q 3797 4528 4122 4306 
z
" transform="scale(0.015625)"/>
       <path id="DejaVuSans-6f" d="M 1959 3097 
Q 1497 3097 1228 2736 
Q 959 2375 959 1747 
Q 959 1119 1226 758 
Q 1494 397 1959 397 
Q 2419 397 2687 759 
Q 2956 1122 2956 1747 
Q 2956 2369 2687 2733 
Q 2419 3097 1959 3097 
z
M 1959 3584 
Q 2709 3584 3137 3096 
Q 3566 2609 3566 1747 
Q 3566 888 3137 398 
Q 2709 -91 1959 -91 
Q 1206 -91 779 398 
Q 353 888 353 1747 
Q 353 2609 779 3096 
Q 1206 3584 1959 3584 
z
" transform="scale(0.015625)"/>
       <path id="DejaVuSans-6e" d="M 3513 2113 
L 3513 0 
L 2938 0 
L 2938 2094 
Q 2938 2591 2744 2837 
Q 2550 3084 2163 3084 
Q 1697 3084 1428 2787 
Q 1159 2491 1159 1978 
L 1159 0 
L 581 0 
L 581 3500 
L 1159 3500 
L 1159 2956 
Q 1366 3272 1645 3428 
Q 1925 3584 2291 3584 
Q 2894 3584 3203 3211 
Q 3513 2838 3513 2113 
z
" transform="scale(0.015625)"/>
       <path id="DejaVuSans-76" d="M 191 3500 
L 800 3500 
L 1894 563 
L 2988 3500 
L 3597 3500 
L 2284 0 
L 1503 0 
L 191 3500 
z
" transform="scale(0.015625)"/>
      </defs>
      <use xlink:href="#DejaVuSans-51"/>
      <use xlink:href="#DejaVuSans-75" x="78.710938"/>
      <use xlink:href="#DejaVuSans-61" x="142.089844"/>
      <use xlink:href="#DejaVuSans-73" x="203.369141"/>
      <use xlink:href="#DejaVuSans-69" x="255.46875"/>
      <use xlink:href="#DejaVuSans-4e" x="283.251953"/>
      <use xlink:href="#DejaVuSans-61" x="358.056641"/>
      <use xlink:href="#DejaVuSans-73" x="419.335938"/>
      <use xlink:href="#DejaVuSans-68" x="471.435547"/>
      <use xlink:href="#DejaVuSans-43" x="534.814453"/>
      <use xlink:href="#DejaVuSans-6f" x="604.638672"/>
      <use xlink:href="#DejaVuSans-6e" x="665.820312"/>
      <use xlink:href="#DejaVuSans-76" x="729.199219"/>
     </g>
    </g>
   </g>
   <g id="line2d_14">
    <path d="M 69.863666 84.325108 
L 72.969926 94.956881 
L 75.860389 129.801243 
L 78.7732 144.451784 
L 81.623483 157.648503 
L 84.474199 165.449617 
L 87.334776 165.742509 
L 90.245075 185.32491 
L 93.268233 179.269622 
L 96.160356 179.346654 
L 99.312985 173.076022 
L 102.278897 197.173916 
L 105.206449 201.024833 
L 108.139938 201.37073 
L 111.26637 186.547399 
L 114.391188 208.852966 
L 117.31665 200.18836 
L 120.308753 219.541799 
L 123.245092 199.192925 
L 126.356735 206.520981 
L 129.432382 201.015544 
L 132.385123 200.91847 
L 135.420983 210.426531 
L 138.533028 215.605446 
L 141.833606 212.929036 
L 144.882276 204.505362 
L 147.903489 216.912937 
L 150.813129 221.006328 
L 153.962512 199.382981 
L 157.04108 215.749975 
L 160.09684 215.666109 
L 163.134378 210.962922 
L 166.10984 211.901755 
L 169.093449 200.522695 
L 172.147741 225.229035 
L 175.228176 211.192321 
L 178.20037 217.206071 
L 181.268854 202.54642 
L 184.240941 200.776361 
L 187.287959 212.83455 
L 190.313136 207.106825 
L 193.226103 215.091864 
L 196.366414 202.155801 
L 199.35016 223.150442 
L 202.421901 213.79424 
L 205.510886 217.033048 
L 208.571751 214.95905 
L 211.653847 214.427711 
L 214.64024 213.323881 
L 217.714436 211.765772 
L 220.776534 223.469128 
L 223.768404 218.940152 
L 226.790245 219.029198 
L 229.747448 220.628341 
L 232.796589 213.526337 
L 235.865132 221.108477 
L 239.120794 193.894668 
L 242.476257 198.87972 
L 245.602981 225.964366 
L 248.595322 210.511215 
L 251.546085 224.549973 
L 254.556734 224.422238 
L 257.689342 219.801879 
L 260.713117 195.661794 
L 263.823883 223.267117 
L 267.027951 227.659613 
L 270.010882 202.671357 
L 273.001302 204.950994 
L 276.076847 226.576327 
L 279.050367 212.920847 
L 282.061611 201.184621 
L 285.187311 184.428119 
L 288.325304 204.887219 
L 291.281131 214.686224 
L 294.274184 221.255601 
L 297.251005 204.529357 
L 300.271624 234.729804 
L 303.316495 232.585721 
L 306.303099 215.669058 
L 309.212788 207.21369 
L 312.173169 203.723378 
L 315.152725 210.433918 
L 318.170903 220.590102 
L 321.202245 217.27542 
L 324.111475 216.565593 
L 327.199388 191.651507 
L 330.168202 193.880764 
L 333.148488 212.617145 
L 336.059013 226.280667 
L 339.078532 229.023008 
L 342.086834 235.128182 
L 345.042372 241.467511 
L 348.074653 235.011011 
L 351.114643 235.162076 
L 354.202444 228.207609 
L 357.194994 226.740678 
L 360.370031 233.754955 
L 363.672417 232.42114 
L 367.307877 216.965535 
L 370.368483 216.92254 
" clip-path="url(#pf2a1f37a3f)" style="fill: none; stroke: #000000; stroke-width: 0.5; stroke-linecap: square"/>
   </g>
   <g id="line2d_15">
    <path d="M 69.218182 78.021349 
L 72.11196 102.269996 
L 75.012984 132.768872 
L 78.064022 143.300136 
L 81.101718 129.038843 
L 84.376698 157.668611 
L 87.453886 171.047432 
L 90.412391 185.387049 
L 93.360609 186.498837 
L 96.426774 179.218781 
L 99.620441 184.899815 
L 102.650798 187.671245 
L 105.60987 191.238512 
L 108.657485 206.666103 
L 111.770085 199.248473 
L 114.817755 185.09264 
L 117.79758 198.047335 
L 120.835619 206.546888 
L 123.887472 198.946445 
L 127.351391 195.706708 
L 130.417193 185.732104 
L 133.527906 204.158443 
L 136.49133 206.588276 
L 139.627049 198.160159 
L 142.684081 200.419911 
L 146.033304 200.011721 
L 149.083513 201.919583 
L 152.093948 202.624536 
L 155.075138 193.708328 
L 158.272932 211.863936 
L 161.409301 215.969267 
L 164.366763 210.148874 
L 167.410301 221.151881 
L 170.405679 209.130562 
L 173.426822 210.736356 
L 176.351032 216.892693 
L 179.414778 222.247008 
L 182.563737 219.685031 
L 185.538524 217.886527 
L 188.650716 228.914467 
L 191.708542 207.886666 
L 194.661613 213.237772 
L 197.632258 226.858825 
L 200.677435 227.907283 
L 203.757163 225.929463 
L 206.828933 221.916727 
L 209.91152 217.558173 
L 212.956646 219.60909 
L 215.989158 197.515414 
L 218.94772 208.400407 
L 222.072925 223.721524 
L 225.238221 230.143163 
L 228.385672 218.202488 
L 231.455073 214.468833 
L 234.504925 228.603747 
L 237.514068 231.019351 
L 240.646497 242.116364 
L 243.713781 230.655533 
L 246.736163 222.75652 
L 249.845727 212.317256 
L 253.048205 210.363231 
L 256.111398 204.10724 
L 259.128461 211.256963 
L 262.1575 227.962187 
L 265.126334 232.496826 
L 268.053545 232.48602 
L 271.109123 220.849072 
L 274.248571 233.757759 
L 277.196904 231.871685 
L 280.220257 225.038581 
L 283.147985 211.095336 
L 286.143387 228.357974 
L 289.236672 231.910153 
L 292.257099 225.705622 
L 295.215691 197.584352 
L 298.149506 209.740838 
L 301.090482 212.719768 
L 304.01216 229.847036 
L 307.007301 225.80809 
L 309.885903 230.0606 
L 312.939688 224.323635 
L 315.955311 231.723814 
L 318.912103 229.825134 
L 321.870185 222.563386 
L 324.730573 208.835874 
L 327.677111 224.690777 
L 330.610133 194.870983 
L 333.742385 191.02186 
L 336.854011 180.390158 
L 339.786171 209.000834 
L 342.702894 195.878781 
L 345.861558 219.073011 
L 348.998378 218.027921 
L 352.693343 215.519232 
L 355.76208 228.834381 
L 358.83987 222.718561 
L 361.805494 225.938987 
L 364.834576 227.525946 
L 367.801065 218.67637 
L 370.812058 213.821061 
" clip-path="url(#pf2a1f37a3f)" style="fill: none; stroke-dasharray: 1.85,0.8; stroke-dashoffset: 0; stroke: #000000; stroke-width: 0.5"/>
   </g>
   <g id="line2d_16">
    <path d="M 69.406029 44.443636 
L 72.515078 119.079104 
L 75.587189 118.17051 
L 78.529273 135.153777 
L 81.532633 127.537873 
L 84.709446 138.799277 
L 87.811135 146.230738 
L 90.741121 167.428325 
L 93.743846 162.642657 
L 96.843397 148.779486 
L 100.43992 172.606143 
L 103.548413 181.938245 
L 106.676362 168.794918 
L 109.703006 185.348407 
L 112.911386 170.829847 
L 116.080492 176.500113 
L 119.194178 177.645794 
L 122.224115 189.580456 
L 125.204556 193.739913 
L 128.132316 165.893496 
L 131.262144 173.921378 
L 134.335199 182.96277 
L 137.284428 183.805139 
L 140.39716 202.17368 
L 143.368618 195.155729 
L 146.439329 197.418354 
L 149.46135 196.31283 
L 152.478975 194.951631 
L 155.593168 200.466211 
L 158.674492 198.587242 
L 161.749493 186.505826 
L 164.811867 189.815411 
L 167.76341 199.118311 
L 170.76854 205.849604 
L 173.769304 199.779145 
L 176.837028 195.911305 
L 179.933744 194.951724 
L 182.99848 202.346162 
L 186.052438 219.923101 
L 189.04227 207.048911 
L 192.074342 195.380156 
L 195.27577 200.099298 
L 198.664024 201.94929 
L 201.962408 194.498558 
L 205.067786 191.281004 
L 208.03405 200.996185 
L 211.033965 200.536032 
L 214.092338 201.587375 
L 217.28794 207.887564 
L 220.318203 219.70985 
L 223.44834 215.31953 
L 226.697832 211.592302 
L 229.744948 211.34812 
L 232.705177 208.035662 
L 235.721364 207.7928 
L 238.727198 224.10789 
L 241.729003 214.779457 
L 244.757824 215.417461 
L 247.880318 208.351368 
L 250.956041 216.316415 
L 253.894133 207.900859 
L 256.869098 211.91055 
L 259.959839 217.589329 
L 263.016221 232.809397 
L 266.030571 215.093623 
L 269.088925 212.347229 
L 272.101303 218.710769 
L 275.064531 219.290167 
L 278.125906 211.747723 
L 281.139948 220.83827 
L 284.157507 203.910744 
L 287.321408 205.768187 
L 290.342752 207.821746 
L 293.350749 207.557866 
L 296.302041 212.914601 
L 299.226823 209.41321 
L 302.22174 217.909536 
L 305.214506 209.226762 
L 308.325397 213.373484 
L 311.371388 200.306092 
L 314.385318 190.12774 
L 317.372117 195.288613 
L 320.447347 194.859277 
L 323.945676 223.604518 
L 327.376292 215.63026 
L 330.450139 210.722012 
L 333.741456 217.768783 
L 336.896368 219.054011 
L 339.904881 218.971877 
L 342.835224 219.89136 
L 345.936046 221.151361 
L 348.997851 235.294787 
L 352.044265 218.889032 
L 355.156096 228.127746 
L 358.312596 231.066902 
L 361.350979 222.453481 
L 364.487205 209.588847 
L 367.477002 208.842697 
L 370.465867 191.981086 
L 373.581818 205.124742 
" clip-path="url(#pf2a1f37a3f)" style="fill: none; stroke-dasharray: 0.5,0.825; stroke-dashoffset: 0; stroke: #000000; stroke-width: 0.5"/>
   </g>
   <g id="line2d_17">
    <path d="M 69.334743 93.830178 
L 72.390655 121.17809 
L 75.476691 144.268108 
L 78.535941 147.220698 
L 81.524931 155.812139 
L 84.760173 165.121749 
L 87.819257 156.586186 
L 90.792928 159.867046 
L 93.834171 168.52766 
L 96.908611 163.141322 
L 99.883123 184.949157 
L 102.926001 179.057322 
L 106.152556 163.260574 
L 109.41332 176.289775 
L 112.520312 177.350442 
L 115.588036 191.529811 
L 118.528338 180.230414 
L 121.473051 190.517235 
L 124.348133 172.529301 
L 127.394013 191.220892 
L 130.345679 190.663333 
L 133.806865 181.828696 
L 137.140306 199.245191 
L 140.323146 174.89919 
L 143.304955 181.491843 
L 146.324112 176.518387 
L 149.37762 183.047762 
L 152.595131 181.465651 
L 155.786763 176.190281 
L 158.83992 184.901324 
L 161.907874 181.850027 
L 164.840269 192.420158 
L 167.858081 171.730617 
L 170.81634 191.057075 
L 173.902047 182.372103 
L 176.860054 198.657847 
L 179.908299 194.597879 
L 183.138779 195.867957 
L 186.136023 185.716148 
L 189.015081 193.986221 
L 191.968817 199.450871 
L 195.005328 189.90406 
L 197.990086 202.430645 
L 200.948147 197.054856 
L 203.971364 194.5323 
L 207.052363 197.22846 
L 209.971234 204.965611 
L 212.951674 199.260235 
L 216.010837 205.410121 
L 218.971116 196.431661 
L 222.055374 198.690914 
L 225.030352 197.847151 
L 228.135833 190.550789 
L 231.052431 203.949312 
L 233.944324 205.362311 
L 236.853554 207.95963 
L 239.936825 199.207371 
L 242.947377 199.702134 
L 246.024857 207.462124 
L 249.039293 207.04116 
L 252.022982 200.572524 
L 255.022986 206.839067 
L 258.570677 206.06224 
L 261.976398 213.293646 
L 265.081694 213.61004 
L 268.321555 216.473981 
L 271.480764 208.665565 
L 274.449726 205.797215 
L 277.450738 206.118107 
L 280.40744 212.666514 
L 283.559429 216.847734 
L 286.605155 208.295421 
L 289.624131 214.158553 
L 292.706503 204.77035 
L 295.740786 198.340248 
L 299.019113 216.775666 
L 301.958529 212.495267 
L 304.893215 202.371025 
L 307.895475 223.535207 
L 310.843108 218.205191 
L 313.859062 211.001313 
L 316.877998 214.204417 
L 320.057022 212.492459 
L 323.103057 211.584077 
L 326.129081 218.725192 
L 329.285131 210.044139 
L 332.812356 210.923706 
L 336.03733 209.383484 
L 339.146388 224.916489 
L 342.185198 222.24073 
L 345.42934 218.600466 
L 348.575335 222.391548 
L 351.790311 220.011468 
L 354.777064 217.187954 
L 357.77731 223.023636 
L 360.833549 218.486492 
L 363.776931 226.779155 
L 366.777217 221.105136 
L 369.911468 226.291119 
L 373.211781 210.481974 
" clip-path="url(#pf2a1f37a3f)" style="fill: none; stroke-dasharray: 3.2,0.8,0.5,0.8; stroke-dashoffset: 0; stroke: #000000; stroke-width: 0.5"/>
   </g>
   <g id="line2d_18">
    <path d="M 69.405634 77.007392 
L 72.449509 73.347633 
L 75.461727 127.441531 
L 78.520581 130.658277 
L 81.710915 137.524506 
L 84.838819 162.698877 
L 87.983294 148.746464 
L 91.163385 159.674901 
L 94.075021 177.963903 
L 97.163872 169.600984 
L 100.188508 163.815183 
L 103.198912 187.610261 
L 106.169171 192.042596 
L 109.333316 179.864043 
L 112.344049 186.765677 
L 115.379399 175.574077 
L 118.395557 168.806735 
L 121.398602 202.388438 
L 124.348165 198.670388 
L 127.347585 207.910638 
L 130.397066 212.558914 
L 133.347678 186.056961 
L 136.343334 203.761575 
L 139.362379 193.956247 
L 142.454339 193.798932 
L 145.440751 215.92611 
L 148.376523 201.221055 
L 151.41315 212.630609 
L 154.463382 217.960707 
L 157.513295 201.809772 
L 160.424139 205.861816 
L 163.321139 205.916002 
L 166.304848 214.865871 
L 169.453745 208.347521 
L 172.538287 220.007283 
L 175.588572 213.694445 
L 178.675445 220.569668 
L 181.673654 204.079458 
L 184.734391 215.687511 
L 188.340321 203.288488 
L 191.38407 215.933451 
L 194.380233 221.024417 
L 197.618048 216.60129 
L 200.625064 217.241901 
L 203.590047 215.049806 
L 206.646522 219.505343 
L 209.590747 213.478318 
L 212.725246 210.466729 
L 215.683066 204.996807 
L 218.733003 218.856086 
L 221.756942 225.636477 
L 224.65705 214.907243 
L 227.753457 207.591657 
L 230.79165 211.849292 
L 233.895438 198.523619 
L 236.896071 220.015698 
L 239.916105 224.636088 
L 242.994938 219.177777 
L 245.884781 230.711199 
L 249.083403 226.581969 
L 252.29486 223.003885 
L 255.359675 205.615981 
L 258.354441 223.769527 
L 261.829254 237.679784 
L 264.970801 210.985251 
L 268.042747 216.179734 
L 271.149252 221.870272 
L 274.141509 237.767122 
L 277.288171 224.019784 
L 280.397019 198.276731 
L 283.356875 216.091693 
L 286.314845 215.705287 
L 289.294803 236.416858 
L 292.368967 209.320009 
L 295.390654 210.507144 
L 298.691827 200.864452 
L 301.611142 220.901397 
L 304.366569 217.482071 
L 307.034104 235.011192 
L 309.75415 228.647442 
L 312.501821 234.605013 
L 315.022617 222.185046 
L 317.657425 214.535083 
L 320.179623 228.633797 
L 322.666205 228.431214 
L 325.226219 220.431681 
L 327.88733 233.897509 
L 330.400368 227.838964 
L 332.911914 206.789942 
L 335.42867 214.093405 
L 337.963441 212.989898 
L 340.490977 209.805069 
L 342.993318 209.397177 
L 345.51578 212.446284 
L 347.872488 209.796583 
L 350.208521 216.872998 
L 352.451085 202.429025 
L 354.724597 220.003097 
L 356.951912 231.352269 
L 359.220541 230.500422 
" clip-path="url(#pf2a1f37a3f)" style="fill: none; stroke: #000000; stroke-width: 0.5; stroke-linecap: square"/>
    <defs>
     <path id="m52b5811a81" d="M 0 0.25 
C 0.066301 0.25 0.129895 0.223658 0.176777 0.176777 
C 0.223658 0.129895 0.25 0.066301 0.25 0 
C 0.25 -0.066301 0.223658 -0.129895 0.176777 -0.176777 
C 0.129895 -0.223658 0.066301 -0.25 0 -0.25 
C -0.066301 -0.25 -0.129895 -0.223658 -0.176777 -0.176777 
C -0.223658 -0.129895 -0.25 -0.066301 -0.25 0 
C -0.25 0.066301 -0.223658 0.129895 -0.176777 0.176777 
C -0.129895 0.223658 -0.066301 0.25 0 0.25 
z
" style="stroke: #000000"/>
    </defs>
    <g clip-path="url(#pf2a1f37a3f)">
     <use xlink:href="#m52b5811a81" x="69.405634" y="77.007392" style="stroke: #000000"/>
     <use xlink:href="#m52b5811a81" x="72.449509" y="73.347633" style="stroke: #000000"/>
     <use xlink:href="#m52b5811a81" x="75.461727" y="127.441531" style="stroke: #000000"/>
     <use xlink:href="#m52b5811a81" x="78.520581" y="130.658277" style="stroke: #000000"/>
     <use xlink:href="#m52b5811a81" x="81.710915" y="137.524506" style="stroke: #000000"/>
     <use xlink:href="#m52b5811a81" x="84.838819" y="162.698877" style="stroke: #000000"/>
     <use xlink:href="#m52b5811a81" x="87.983294" y="148.746464" style="stroke: #000000"/>
     <use xlink:href="#m52b5811a81" x="91.163385" y="159.674901" style="stroke: #000000"/>
     <use xlink:href="#m52b5811a81" x="94.075021" y="177.963903" style="stroke: #000000"/>
     <use xlink:href="#m52b5811a81" x="97.163872" y="169.600984" style="stroke: #000000"/>
     <use xlink:href="#m52b5811a81" x="100.188508" y="163.815183" style="stroke: #000000"/>
     <use xlink:href="#m52b5811a81" x="103.198912" y="187.610261" style="stroke: #000000"/>
     <use xlink:href="#m52b5811a81" x="106.169171" y="192.042596" style="stroke: #000000"/>
     <use xlink:href="#m52b5811a81" x="109.333316" y="179.864043" style="stroke: #000000"/>
     <use xlink:href="#m52b5811a81" x="112.344049" y="186.765677" style="stroke: #000000"/>
     <use xlink:href="#m52b5811a81" x="115.379399" y="175.574077" style="stroke: #000000"/>
     <use xlink:href="#m52b5811a81" x="118.395557" y="168.806735" style="stroke: #000000"/>
     <use xlink:href="#m52b5811a81" x="121.398602" y="202.388438" style="stroke: #000000"/>
     <use xlink:href="#m52b5811a81" x="124.348165" y="198.670388" style="stroke: #000000"/>
     <use xlink:href="#m52b5811a81" x="127.347585" y="207.910638" style="stroke: #000000"/>
     <use xlink:href="#m52b5811a81" x="130.397066" y="212.558914" style="stroke: #000000"/>
     <use xlink:href="#m52b5811a81" x="133.347678" y="186.056961" style="stroke: #000000"/>
     <use xlink:href="#m52b5811a81" x="136.343334" y="203.761575" style="stroke: #000000"/>
     <use xlink:href="#m52b5811a81" x="139.362379" y="193.956247" style="stroke: #000000"/>
     <use xlink:href="#m52b5811a81" x="142.454339" y="193.798932" style="stroke: #000000"/>
     <use xlink:href="#m52b5811a81" x="145.440751" y="215.92611" style="stroke: #000000"/>
     <use xlink:href="#m52b5811a81" x="148.376523" y="201.221055" style="stroke: #000000"/>
     <use xlink:href="#m52b5811a81" x="151.41315" y="212.630609" style="stroke: #000000"/>
     <use xlink:href="#m52b5811a81" x="154.463382" y="217.960707" style="stroke: #000000"/>
     <use xlink:href="#m52b5811a81" x="157.513295" y="201.809772" style="stroke: #000000"/>
     <use xlink:href="#m52b5811a81" x="160.424139" y="205.861816" style="stroke: #000000"/>
     <use xlink:href="#m52b5811a81" x="163.321139" y="205.916002" style="stroke: #000000"/>
     <use xlink:href="#m52b5811a81" x="166.304848" y="214.865871" style="stroke: #000000"/>
     <use xlink:href="#m52b5811a81" x="169.453745" y="208.347521" style="stroke: #000000"/>
     <use xlink:href="#m52b5811a81" x="172.538287" y="220.007283" style="stroke: #000000"/>
     <use xlink:href="#m52b5811a81" x="175.588572" y="213.694445" style="stroke: #000000"/>
     <use xlink:href="#m52b5811a81" x="178.675445" y="220.569668" style="stroke: #000000"/>
     <use xlink:href="#m52b5811a81" x="181.673654" y="204.079458" style="stroke: #000000"/>
     <use xlink:href="#m52b5811a81" x="184.734391" y="215.687511" style="stroke: #000000"/>
     <use xlink:href="#m52b5811a81" x="188.340321" y="203.288488" style="stroke: #000000"/>
     <use xlink:href="#m52b5811a81" x="191.38407" y="215.933451" style="stroke: #000000"/>
     <use xlink:href="#m52b5811a81" x="194.380233" y="221.024417" style="stroke: #000000"/>
     <use xlink:href="#m52b5811a81" x="197.618048" y="216.60129" style="stroke: #000000"/>
     <use xlink:href="#m52b5811a81" x="200.625064" y="217.241901" style="stroke: #000000"/>
     <use xlink:href="#m52b5811a81" x="203.590047" y="215.049806" style="stroke: #000000"/>
     <use xlink:href="#m52b5811a81" x="206.646522" y="219.505343" style="stroke: #000000"/>
     <use xlink:href="#m52b5811a81" x="209.590747" y="213.478318" style="stroke: #000000"/>
     <use xlink:href="#m52b5811a81" x="212.725246" y="210.466729" style="stroke: #000000"/>
     <use xlink:href="#m52b5811a81" x="215.683066" y="204.996807" style="stroke: #000000"/>
     <use xlink:href="#m52b5811a81" x="218.733003" y="218.856086" style="stroke: #000000"/>
     <use xlink:href="#m52b5811a81" x="221.756942" y="225.636477" style="stroke: #000000"/>
     <use xlink:href="#m52b5811a81" x="224.65705" y="214.907243" style="stroke: #000000"/>
     <use xlink:href="#m52b5811a81" x="227.753457" y="207.591657" style="stroke: #000000"/>
     <use xlink:href="#m52b5811a81" x="230.79165" y="211.849292" style="stroke: #000000"/>
     <use xlink:href="#m52b5811a81" x="233.895438" y="198.523619" style="stroke: #000000"/>
     <use xlink:href="#m52b5811a81" x="236.896071" y="220.015698" style="stroke: #000000"/>
     <use xlink:href="#m52b5811a81" x="239.916105" y="224.636088" style="stroke: #000000"/>
     <use xlink:href="#m52b5811a81" x="242.994938" y="219.177777" style="stroke: #000000"/>
     <use xlink:href="#m52b5811a81" x="245.884781" y="230.711199" style="stroke: #000000"/>
     <use xlink:href="#m52b5811a81" x="249.083403" y="226.581969" style="stroke: #000000"/>
     <use xlink:href="#m52b5811a81" x="252.29486" y="223.003885" style="stroke: #000000"/>
     <use xlink:href="#m52b5811a81" x="255.359675" y="205.615981" style="stroke: #000000"/>
     <use xlink:href="#m52b5811a81" x="258.354441" y="223.769527" style="stroke: #000000"/>
     <use xlink:href="#m52b5811a81" x="261.829254" y="237.679784" style="stroke: #000000"/>
     <use xlink:href="#m52b5811a81" x="264.970801" y="210.985251" style="stroke: #000000"/>
     <use xlink:href="#m52b5811a81" x="268.042747" y="216.179734" style="stroke: #000000"/>
     <use xlink:href="#m52b5811a81" x="271.149252" y="221.870272" style="stroke: #000000"/>
     <use xlink:href="#m52b5811a81" x="274.141509" y="237.767122" style="stroke: #000000"/>
     <use xlink:href="#m52b5811a81" x="277.288171" y="224.019784" style="stroke: #000000"/>
     <use xlink:href="#m52b5811a81" x="280.397019" y="198.276731" style="stroke: #000000"/>
     <use xlink:href="#m52b5811a81" x="283.356875" y="216.091693" style="stroke: #000000"/>
     <use xlink:href="#m52b5811a81" x="286.314845" y="215.705287" style="stroke: #000000"/>
     <use xlink:href="#m52b5811a81" x="289.294803" y="236.416858" style="stroke: #000000"/>
     <use xlink:href="#m52b5811a81" x="292.368967" y="209.320009" style="stroke: #000000"/>
     <use xlink:href="#m52b5811a81" x="295.390654" y="210.507144" style="stroke: #000000"/>
     <use xlink:href="#m52b5811a81" x="298.691827" y="200.864452" style="stroke: #000000"/>
     <use xlink:href="#m52b5811a81" x="301.611142" y="220.901397" style="stroke: #000000"/>
     <use xlink:href="#m52b5811a81" x="304.366569" y="217.482071" style="stroke: #000000"/>
     <use xlink:href="#m52b5811a81" x="307.034104" y="235.011192" style="stroke: #000000"/>
     <use xlink:href="#m52b5811a81" x="309.75415" y="228.647442" style="stroke: #000000"/>
     <use xlink:href="#m52b5811a81" x="312.501821" y="234.605013" style="stroke: #000000"/>
     <use xlink:href="#m52b5811a81" x="315.022617" y="222.185046" style="stroke: #000000"/>
     <use xlink:href="#m52b5811a81" x="317.657425" y="214.535083" style="stroke: #000000"/>
     <use xlink:href="#m52b5811a81" x="320.179623" y="228.633797" style="stroke: #000000"/>
     <use xlink:href="#m52b5811a81" x="322.666205" y="228.431214" style="stroke: #000000"/>
     <use xlink:href="#m52b5811a81" x="325.226219" y="220.431681" style="stroke: #000000"/>
     <use xlink:href="#m52b5811a81" x="327.88733" y="233.897509" style="stroke: #000000"/>
     <use xlink:href="#m52b5811a81" x="330.400368" y="227.838964" style="stroke: #000000"/>
     <use xlink:href="#m52b5811a81" x="332.911914" y="206.789942" style="stroke: #000000"/>
     <use xlink:href="#m52b5811a81" x="335.42867" y="214.093405" style="stroke: #000000"/>
     <use xlink:href="#m52b5811a81" x="337.963441" y="212.989898" style="stroke: #000000"/>
     <use xlink:href="#m52b5811a81" x="340.490977" y="209.805069" style="stroke: #000000"/>
     <use xlink:href="#m52b5811a81" x="342.993318" y="209.397177" style="stroke: #000000"/>
     <use xlink:href="#m52b5811a81" x="345.51578" y="212.446284" style="stroke: #000000"/>
     <use xlink:href="#m52b5811a81" x="347.872488" y="209.796583" style="stroke: #000000"/>
     <use xlink:href="#m52b5811a81" x="350.208521" y="216.872998" style="stroke: #000000"/>
     <use xlink:href="#m52b5811a81" x="352.451085" y="202.429025" style="stroke: #000000"/>
     <use xlink:href="#m52b5811a81" x="354.724597" y="220.003097" style="stroke: #000000"/>
     <use xlink:href="#m52b5811a81" x="356.951912" y="231.352269" style="stroke: #000000"/>
     <use xlink:href="#m52b5811a81" x="359.220541" y="230.500422" style="stroke: #000000"/>
    </g>
   </g>
   <g id="line2d_19">
    <path d="M 69.268204 87.187842 
L 72.382246 120.634095 
L 75.344407 116.47102 
L 78.465306 127.306223 
L 81.458257 142.919374 
L 84.265783 142.295801 
L 87.173317 134.017065 
L 90.230387 150.797856 
L 93.284905 144.964674 
L 96.382841 166.522776 
L 99.407927 155.593023 
L 102.501703 164.473378 
L 105.680546 183.751776 
L 109.127381 171.282138 
L 112.632094 192.275731 
L 115.75989 193.627963 
L 119.094469 185.833076 
L 122.327054 193.984211 
L 125.307016 180.57635 
L 128.236078 194.934675 
L 131.240577 184.377534 
L 134.371944 191.798034 
L 137.383374 194.199962 
L 140.542906 196.621891 
L 143.71757 185.012248 
L 146.765288 190.47388 
L 149.901758 207.285649 
L 152.808858 211.850638 
L 155.74713 191.160931 
L 158.903575 189.996317 
L 161.831618 198.914277 
L 164.783189 195.624083 
L 167.785458 203.702203 
L 170.952851 214.220454 
L 174.076348 199.383287 
L 177.104366 205.981683 
L 180.234902 222.33038 
L 183.5907 211.226976 
L 186.817905 196.721399 
L 189.993315 215.008692 
L 193.054271 204.041501 
L 196.245469 210.605421 
L 199.342868 218.599839 
L 202.469163 207.775571 
L 205.450069 202.529452 
L 208.629862 204.604532 
L 211.536256 205.306287 
L 214.545441 215.374639 
L 217.548522 208.955612 
L 220.71893 217.955973 
L 223.943498 227.521208 
L 226.662147 214.386136 
L 229.436862 215.093814 
L 232.121493 203.560503 
L 234.916434 220.334372 
L 237.584092 221.842285 
L 240.099098 218.024412 
L 242.692136 211.238644 
L 245.213105 214.554146 
L 247.703974 223.029552 
L 250.199517 203.98288 
L 252.843777 202.310045 
L 255.306613 207.013332 
L 257.761531 203.046879 
L 260.303236 202.301323 
L 262.829522 198.131245 
L 265.280676 204.658889 
L 267.866856 205.098056 
L 270.36288 205.331251 
L 272.6911 204.786904 
L 274.913881 207.331718 
L 277.125566 195.434358 
L 279.360202 205.99214 
L 281.548575 196.98487 
L 283.788556 205.804201 
L 286.044912 214.637666 
L 288.226424 205.263314 
L 290.401486 210.338642 
L 292.587119 211.514207 
L 294.835605 212.215185 
L 297.093263 216.134666 
L 299.278207 210.108301 
L 301.447316 205.286315 
L 303.624583 210.522937 
L 305.801074 211.927907 
L 307.97568 197.532679 
L 310.202273 204.606849 
L 312.426127 204.596858 
L 314.592127 211.023015 
L 316.754379 213.370541 
L 318.980933 219.926626 
L 321.175127 214.018571 
L 323.345974 203.02714 
L 325.518611 212.19349 
L 327.682328 218.787851 
L 329.842645 213.987011 
L 332.008614 200.05849 
L 334.171836 206.472303 
L 336.338455 207.30477 
L 338.5078 203.407193 
" clip-path="url(#pf2a1f37a3f)" style="fill: none; stroke-dasharray: 1.85,0.8; stroke-dashoffset: 0; stroke: #000000; stroke-width: 0.5"/>
    <g clip-path="url(#pf2a1f37a3f)">
     <use xlink:href="#m52b5811a81" x="69.268204" y="87.187842" style="stroke: #000000"/>
     <use xlink:href="#m52b5811a81" x="72.382246" y="120.634095" style="stroke: #000000"/>
     <use xlink:href="#m52b5811a81" x="75.344407" y="116.47102" style="stroke: #000000"/>
     <use xlink:href="#m52b5811a81" x="78.465306" y="127.306223" style="stroke: #000000"/>
     <use xlink:href="#m52b5811a81" x="81.458257" y="142.919374" style="stroke: #000000"/>
     <use xlink:href="#m52b5811a81" x="84.265783" y="142.295801" style="stroke: #000000"/>
     <use xlink:href="#m52b5811a81" x="87.173317" y="134.017065" style="stroke: #000000"/>
     <use xlink:href="#m52b5811a81" x="90.230387" y="150.797856" style="stroke: #000000"/>
     <use xlink:href="#m52b5811a81" x="93.284905" y="144.964674" style="stroke: #000000"/>
     <use xlink:href="#m52b5811a81" x="96.382841" y="166.522776" style="stroke: #000000"/>
     <use xlink:href="#m52b5811a81" x="99.407927" y="155.593023" style="stroke: #000000"/>
     <use xlink:href="#m52b5811a81" x="102.501703" y="164.473378" style="stroke: #000000"/>
     <use xlink:href="#m52b5811a81" x="105.680546" y="183.751776" style="stroke: #000000"/>
     <use xlink:href="#m52b5811a81" x="109.127381" y="171.282138" style="stroke: #000000"/>
     <use xlink:href="#m52b5811a81" x="112.632094" y="192.275731" style="stroke: #000000"/>
     <use xlink:href="#m52b5811a81" x="115.75989" y="193.627963" style="stroke: #000000"/>
     <use xlink:href="#m52b5811a81" x="119.094469" y="185.833076" style="stroke: #000000"/>
     <use xlink:href="#m52b5811a81" x="122.327054" y="193.984211" style="stroke: #000000"/>
     <use xlink:href="#m52b5811a81" x="125.307016" y="180.57635" style="stroke: #000000"/>
     <use xlink:href="#m52b5811a81" x="128.236078" y="194.934675" style="stroke: #000000"/>
     <use xlink:href="#m52b5811a81" x="131.240577" y="184.377534" style="stroke: #000000"/>
     <use xlink:href="#m52b5811a81" x="134.371944" y="191.798034" style="stroke: #000000"/>
     <use xlink:href="#m52b5811a81" x="137.383374" y="194.199962" style="stroke: #000000"/>
     <use xlink:href="#m52b5811a81" x="140.542906" y="196.621891" style="stroke: #000000"/>
     <use xlink:href="#m52b5811a81" x="143.71757" y="185.012248" style="stroke: #000000"/>
     <use xlink:href="#m52b5811a81" x="146.765288" y="190.47388" style="stroke: #000000"/>
     <use xlink:href="#m52b5811a81" x="149.901758" y="207.285649" style="stroke: #000000"/>
     <use xlink:href="#m52b5811a81" x="152.808858" y="211.850638" style="stroke: #000000"/>
     <use xlink:href="#m52b5811a81" x="155.74713" y="191.160931" style="stroke: #000000"/>
     <use xlink:href="#m52b5811a81" x="158.903575" y="189.996317" style="stroke: #000000"/>
     <use xlink:href="#m52b5811a81" x="161.831618" y="198.914277" style="stroke: #000000"/>
     <use xlink:href="#m52b5811a81" x="164.783189" y="195.624083" style="stroke: #000000"/>
     <use xlink:href="#m52b5811a81" x="167.785458" y="203.702203" style="stroke: #000000"/>
     <use xlink:href="#m52b5811a81" x="170.952851" y="214.220454" style="stroke: #000000"/>
     <use xlink:href="#m52b5811a81" x="174.076348" y="199.383287" style="stroke: #000000"/>
     <use xlink:href="#m52b5811a81" x="177.104366" y="205.981683" style="stroke: #000000"/>
     <use xlink:href="#m52b5811a81" x="180.234902" y="222.33038" style="stroke: #000000"/>
     <use xlink:href="#m52b5811a81" x="183.5907" y="211.226976" style="stroke: #000000"/>
     <use xlink:href="#m52b5811a81" x="186.817905" y="196.721399" style="stroke: #000000"/>
     <use xlink:href="#m52b5811a81" x="189.993315" y="215.008692" style="stroke: #000000"/>
     <use xlink:href="#m52b5811a81" x="193.054271" y="204.041501" style="stroke: #000000"/>
     <use xlink:href="#m52b5811a81" x="196.245469" y="210.605421" style="stroke: #000000"/>
     <use xlink:href="#m52b5811a81" x="199.342868" y="218.599839" style="stroke: #000000"/>
     <use xlink:href="#m52b5811a81" x="202.469163" y="207.775571" style="stroke: #000000"/>
     <use xlink:href="#m52b5811a81" x="205.450069" y="202.529452" style="stroke: #000000"/>
     <use xlink:href="#m52b5811a81" x="208.629862" y="204.604532" style="stroke: #000000"/>
     <use xlink:href="#m52b5811a81" x="211.536256" y="205.306287" style="stroke: #000000"/>
     <use xlink:href="#m52b5811a81" x="214.545441" y="215.374639" style="stroke: #000000"/>
     <use xlink:href="#m52b5811a81" x="217.548522" y="208.955612" style="stroke: #000000"/>
     <use xlink:href="#m52b5811a81" x="220.71893" y="217.955973" style="stroke: #000000"/>
     <use xlink:href="#m52b5811a81" x="223.943498" y="227.521208" style="stroke: #000000"/>
     <use xlink:href="#m52b5811a81" x="226.662147" y="214.386136" style="stroke: #000000"/>
     <use xlink:href="#m52b5811a81" x="229.436862" y="215.093814" style="stroke: #000000"/>
     <use xlink:href="#m52b5811a81" x="232.121493" y="203.560503" style="stroke: #000000"/>
     <use xlink:href="#m52b5811a81" x="234.916434" y="220.334372" style="stroke: #000000"/>
     <use xlink:href="#m52b5811a81" x="237.584092" y="221.842285" style="stroke: #000000"/>
     <use xlink:href="#m52b5811a81" x="240.099098" y="218.024412" style="stroke: #000000"/>
     <use xlink:href="#m52b5811a81" x="242.692136" y="211.238644" style="stroke: #000000"/>
     <use xlink:href="#m52b5811a81" x="245.213105" y="214.554146" style="stroke: #000000"/>
     <use xlink:href="#m52b5811a81" x="247.703974" y="223.029552" style="stroke: #000000"/>
     <use xlink:href="#m52b5811a81" x="250.199517" y="203.98288" style="stroke: #000000"/>
     <use xlink:href="#m52b5811a81" x="252.843777" y="202.310045" style="stroke: #000000"/>
     <use xlink:href="#m52b5811a81" x="255.306613" y="207.013332" style="stroke: #000000"/>
     <use xlink:href="#m52b5811a81" x="257.761531" y="203.046879" style="stroke: #000000"/>
     <use xlink:href="#m52b5811a81" x="260.303236" y="202.301323" style="stroke: #000000"/>
     <use xlink:href="#m52b5811a81" x="262.829522" y="198.131245" style="stroke: #000000"/>
     <use xlink:href="#m52b5811a81" x="265.280676" y="204.658889" style="stroke: #000000"/>
     <use xlink:href="#m52b5811a81" x="267.866856" y="205.098056" style="stroke: #000000"/>
     <use xlink:href="#m52b5811a81" x="270.36288" y="205.331251" style="stroke: #000000"/>
     <use xlink:href="#m52b5811a81" x="272.6911" y="204.786904" style="stroke: #000000"/>
     <use xlink:href="#m52b5811a81" x="274.913881" y="207.331718" style="stroke: #000000"/>
     <use xlink:href="#m52b5811a81" x="277.125566" y="195.434358" style="stroke: #000000"/>
     <use xlink:href="#m52b5811a81" x="279.360202" y="205.99214" style="stroke: #000000"/>
     <use xlink:href="#m52b5811a81" x="281.548575" y="196.98487" style="stroke: #000000"/>
     <use xlink:href="#m52b5811a81" x="283.788556" y="205.804201" style="stroke: #000000"/>
     <use xlink:href="#m52b5811a81" x="286.044912" y="214.637666" style="stroke: #000000"/>
     <use xlink:href="#m52b5811a81" x="288.226424" y="205.263314" style="stroke: #000000"/>
     <use xlink:href="#m52b5811a81" x="290.401486" y="210.338642" style="stroke: #000000"/>
     <use xlink:href="#m52b5811a81" x="292.587119" y="211.514207" style="stroke: #000000"/>
     <use xlink:href="#m52b5811a81" x="294.835605" y="212.215185" style="stroke: #000000"/>
     <use xlink:href="#m52b5811a81" x="297.093263" y="216.134666" style="stroke: #000000"/>
     <use xlink:href="#m52b5811a81" x="299.278207" y="210.108301" style="stroke: #000000"/>
     <use xlink:href="#m52b5811a81" x="301.447316" y="205.286315" style="stroke: #000000"/>
     <use xlink:href="#m52b5811a81" x="303.624583" y="210.522937" style="stroke: #000000"/>
     <use xlink:href="#m52b5811a81" x="305.801074" y="211.927907" style="stroke: #000000"/>
     <use xlink:href="#m52b5811a81" x="307.97568" y="197.532679" style="stroke: #000000"/>
     <use xlink:href="#m52b5811a81" x="310.202273" y="204.606849" style="stroke: #000000"/>
     <use xlink:href="#m52b5811a81" x="312.426127" y="204.596858" style="stroke: #000000"/>
     <use xlink:href="#m52b5811a81" x="314.592127" y="211.023015" style="stroke: #000000"/>
     <use xlink:href="#m52b5811a81" x="316.754379" y="213.370541" style="stroke: #000000"/>
     <use xlink:href="#m52b5811a81" x="318.980933" y="219.926626" style="stroke: #000000"/>
     <use xlink:href="#m52b5811a81" x="321.175127" y="214.018571" style="stroke: #000000"/>
     <use xlink:href="#m52b5811a81" x="323.345974" y="203.02714" style="stroke: #000000"/>
     <use xlink:href="#m52b5811a81" x="325.518611" y="212.19349" style="stroke: #000000"/>
     <use xlink:href="#m52b5811a81" x="327.682328" y="218.787851" style="stroke: #000000"/>
     <use xlink:href="#m52b5811a81" x="329.842645" y="213.987011" style="stroke: #000000"/>
     <use xlink:href="#m52b5811a81" x="332.008614" y="200.05849" style="stroke: #000000"/>
     <use xlink:href="#m52b5811a81" x="334.171836" y="206.472303" style="stroke: #000000"/>
     <use xlink:href="#m52b5811a81" x="336.338455" y="207.30477" style="stroke: #000000"/>
     <use xlink:href="#m52b5811a81" x="338.5078" y="203.407193" style="stroke: #000000"/>
    </g>
   </g>
   <g id="line2d_20">
    <path d="M 69.341986 65.373137 
L 72.456526 120.12354 
L 75.502854 113.784413 
L 78.754171 119.203393 
L 82.010463 151.328584 
L 85.055665 156.15722 
L 88.141309 180.379911 
L 91.623275 153.85686 
L 94.819835 178.153775 
L 97.906802 172.945022 
L 101.007703 172.369361 
L 104.088399 169.847139 
L 107.142929 185.42577 
L 110.388102 165.64211 
L 113.39693 177.34142 
L 116.417088 187.057942 
L 119.462361 178.326398 
L 122.426516 184.942531 
L 125.465575 190.234423 
L 128.60159 187.671801 
L 131.615705 193.928775 
L 134.368129 206.273215 
L 137.142249 175.223179 
L 139.833275 183.799844 
L 142.597828 183.888213 
L 145.18674 188.536453 
L 147.855271 204.361533 
L 150.424092 195.035972 
L 152.954747 199.565048 
L 155.527295 205.187878 
L 158.124342 204.736631 
L 160.683663 199.425349 
L 163.201186 202.69043 
L 165.715628 200.883579 
L 168.283423 208.167559 
L 170.840876 201.084815 
L 173.347181 215.032641 
L 175.964294 218.045634 
L 178.454482 218.432932 
L 180.893187 214.829518 
L 183.154007 204.95645 
L 185.426857 221.294212 
L 187.677524 223.01278 
L 189.964554 212.333168 
L 192.2424 221.191607 
L 194.462697 212.379494 
L 196.678232 210.247443 
L 198.903113 216.006631 
L 201.142576 221.402117 
L 203.42356 210.099378 
L 205.668014 195.39722 
L 207.888101 206.319806 
L 210.144752 192.734169 
L 212.367392 201.382695 
L 214.583095 217.699365 
L 216.840124 223.117718 
L 219.101713 221.110087 
L 221.303766 220.181657 
L 223.50584 210.97363 
L 225.758904 230.015328 
L 227.982897 215.169399 
L 230.194588 217.599707 
L 232.403336 223.120109 
L 234.613186 212.166054 
L 236.812077 216.447631 
L 239.01175 193.115663 
L 241.215999 205.591873 
L 243.419979 206.949841 
L 245.632219 212.569745 
L 247.7672 186.141047 
L 249.901719 211.594685 
L 252.025464 198.39811 
L 254.148503 229.250445 
L 256.26409 215.621819 
L 258.387179 234.693657 
L 260.513179 233.076297 
L 262.6337 232.175766 
L 264.754247 237.601962 
L 266.882671 232.401931 
L 269.010013 222.293633 
L 271.144718 221.679674 
L 273.323015 218.054225 
L 275.470382 208.945794 
L 277.607894 222.069958 
L 279.730876 234.465291 
L 281.857309 231.137229 
L 283.991037 240.617628 
L 286.11639 232.075872 
L 288.238143 235.027934 
L 290.35925 229.764154 
L 292.51654 226.017493 
L 294.638588 226.808702 
L 296.751721 218.759452 
L 298.871619 211.292521 
L 300.997419 215.471576 
L 303.122695 232.125012 
L 305.249703 231.000376 
L 307.379349 234.469895 
L 309.502776 199.44693 
L 311.689738 212.047452 
" clip-path="url(#pf2a1f37a3f)" style="fill: none; stroke-dasharray: 0.5,0.825; stroke-dashoffset: 0; stroke: #000000; stroke-width: 0.5"/>
    <g clip-path="url(#pf2a1f37a3f)">
     <use xlink:href="#m52b5811a81" x="69.341986" y="65.373137" style="stroke: #000000"/>
     <use xlink:href="#m52b5811a81" x="72.456526" y="120.12354" style="stroke: #000000"/>
     <use xlink:href="#m52b5811a81" x="75.502854" y="113.784413" style="stroke: #000000"/>
     <use xlink:href="#m52b5811a81" x="78.754171" y="119.203393" style="stroke: #000000"/>
     <use xlink:href="#m52b5811a81" x="82.010463" y="151.328584" style="stroke: #000000"/>
     <use xlink:href="#m52b5811a81" x="85.055665" y="156.15722" style="stroke: #000000"/>
     <use xlink:href="#m52b5811a81" x="88.141309" y="180.379911" style="stroke: #000000"/>
     <use xlink:href="#m52b5811a81" x="91.623275" y="153.85686" style="stroke: #000000"/>
     <use xlink:href="#m52b5811a81" x="94.819835" y="178.153775" style="stroke: #000000"/>
     <use xlink:href="#m52b5811a81" x="97.906802" y="172.945022" style="stroke: #000000"/>
     <use xlink:href="#m52b5811a81" x="101.007703" y="172.369361" style="stroke: #000000"/>
     <use xlink:href="#m52b5811a81" x="104.088399" y="169.847139" style="stroke: #000000"/>
     <use xlink:href="#m52b5811a81" x="107.142929" y="185.42577" style="stroke: #000000"/>
     <use xlink:href="#m52b5811a81" x="110.388102" y="165.64211" style="stroke: #000000"/>
     <use xlink:href="#m52b5811a81" x="113.39693" y="177.34142" style="stroke: #000000"/>
     <use xlink:href="#m52b5811a81" x="116.417088" y="187.057942" style="stroke: #000000"/>
     <use xlink:href="#m52b5811a81" x="119.462361" y="178.326398" style="stroke: #000000"/>
     <use xlink:href="#m52b5811a81" x="122.426516" y="184.942531" style="stroke: #000000"/>
     <use xlink:href="#m52b5811a81" x="125.465575" y="190.234423" style="stroke: #000000"/>
     <use xlink:href="#m52b5811a81" x="128.60159" y="187.671801" style="stroke: #000000"/>
     <use xlink:href="#m52b5811a81" x="131.615705" y="193.928775" style="stroke: #000000"/>
     <use xlink:href="#m52b5811a81" x="134.368129" y="206.273215" style="stroke: #000000"/>
     <use xlink:href="#m52b5811a81" x="137.142249" y="175.223179" style="stroke: #000000"/>
     <use xlink:href="#m52b5811a81" x="139.833275" y="183.799844" style="stroke: #000000"/>
     <use xlink:href="#m52b5811a81" x="142.597828" y="183.888213" style="stroke: #000000"/>
     <use xlink:href="#m52b5811a81" x="145.18674" y="188.536453" style="stroke: #000000"/>
     <use xlink:href="#m52b5811a81" x="147.855271" y="204.361533" style="stroke: #000000"/>
     <use xlink:href="#m52b5811a81" x="150.424092" y="195.035972" style="stroke: #000000"/>
     <use xlink:href="#m52b5811a81" x="152.954747" y="199.565048" style="stroke: #000000"/>
     <use xlink:href="#m52b5811a81" x="155.527295" y="205.187878" style="stroke: #000000"/>
     <use xlink:href="#m52b5811a81" x="158.124342" y="204.736631" style="stroke: #000000"/>
     <use xlink:href="#m52b5811a81" x="160.683663" y="199.425349" style="stroke: #000000"/>
     <use xlink:href="#m52b5811a81" x="163.201186" y="202.69043" style="stroke: #000000"/>
     <use xlink:href="#m52b5811a81" x="165.715628" y="200.883579" style="stroke: #000000"/>
     <use xlink:href="#m52b5811a81" x="168.283423" y="208.167559" style="stroke: #000000"/>
     <use xlink:href="#m52b5811a81" x="170.840876" y="201.084815" style="stroke: #000000"/>
     <use xlink:href="#m52b5811a81" x="173.347181" y="215.032641" style="stroke: #000000"/>
     <use xlink:href="#m52b5811a81" x="175.964294" y="218.045634" style="stroke: #000000"/>
     <use xlink:href="#m52b5811a81" x="178.454482" y="218.432932" style="stroke: #000000"/>
     <use xlink:href="#m52b5811a81" x="180.893187" y="214.829518" style="stroke: #000000"/>
     <use xlink:href="#m52b5811a81" x="183.154007" y="204.95645" style="stroke: #000000"/>
     <use xlink:href="#m52b5811a81" x="185.426857" y="221.294212" style="stroke: #000000"/>
     <use xlink:href="#m52b5811a81" x="187.677524" y="223.01278" style="stroke: #000000"/>
     <use xlink:href="#m52b5811a81" x="189.964554" y="212.333168" style="stroke: #000000"/>
     <use xlink:href="#m52b5811a81" x="192.2424" y="221.191607" style="stroke: #000000"/>
     <use xlink:href="#m52b5811a81" x="194.462697" y="212.379494" style="stroke: #000000"/>
     <use xlink:href="#m52b5811a81" x="196.678232" y="210.247443" style="stroke: #000000"/>
     <use xlink:href="#m52b5811a81" x="198.903113" y="216.006631" style="stroke: #000000"/>
     <use xlink:href="#m52b5811a81" x="201.142576" y="221.402117" style="stroke: #000000"/>
     <use xlink:href="#m52b5811a81" x="203.42356" y="210.099378" style="stroke: #000000"/>
     <use xlink:href="#m52b5811a81" x="205.668014" y="195.39722" style="stroke: #000000"/>
     <use xlink:href="#m52b5811a81" x="207.888101" y="206.319806" style="stroke: #000000"/>
     <use xlink:href="#m52b5811a81" x="210.144752" y="192.734169" style="stroke: #000000"/>
     <use xlink:href="#m52b5811a81" x="212.367392" y="201.382695" style="stroke: #000000"/>
     <use xlink:href="#m52b5811a81" x="214.583095" y="217.699365" style="stroke: #000000"/>
     <use xlink:href="#m52b5811a81" x="216.840124" y="223.117718" style="stroke: #000000"/>
     <use xlink:href="#m52b5811a81" x="219.101713" y="221.110087" style="stroke: #000000"/>
     <use xlink:href="#m52b5811a81" x="221.303766" y="220.181657" style="stroke: #000000"/>
     <use xlink:href="#m52b5811a81" x="223.50584" y="210.97363" style="stroke: #000000"/>
     <use xlink:href="#m52b5811a81" x="225.758904" y="230.015328" style="stroke: #000000"/>
     <use xlink:href="#m52b5811a81" x="227.982897" y="215.169399" style="stroke: #000000"/>
     <use xlink:href="#m52b5811a81" x="230.194588" y="217.599707" style="stroke: #000000"/>
     <use xlink:href="#m52b5811a81" x="232.403336" y="223.120109" style="stroke: #000000"/>
     <use xlink:href="#m52b5811a81" x="234.613186" y="212.166054" style="stroke: #000000"/>
     <use xlink:href="#m52b5811a81" x="236.812077" y="216.447631" style="stroke: #000000"/>
     <use xlink:href="#m52b5811a81" x="239.01175" y="193.115663" style="stroke: #000000"/>
     <use xlink:href="#m52b5811a81" x="241.215999" y="205.591873" style="stroke: #000000"/>
     <use xlink:href="#m52b5811a81" x="243.419979" y="206.949841" style="stroke: #000000"/>
     <use xlink:href="#m52b5811a81" x="245.632219" y="212.569745" style="stroke: #000000"/>
     <use xlink:href="#m52b5811a81" x="247.7672" y="186.141047" style="stroke: #000000"/>
     <use xlink:href="#m52b5811a81" x="249.901719" y="211.594685" style="stroke: #000000"/>
     <use xlink:href="#m52b5811a81" x="252.025464" y="198.39811" style="stroke: #000000"/>
     <use xlink:href="#m52b5811a81" x="254.148503" y="229.250445" style="stroke: #000000"/>
     <use xlink:href="#m52b5811a81" x="256.26409" y="215.621819" style="stroke: #000000"/>
     <use xlink:href="#m52b5811a81" x="258.387179" y="234.693657" style="stroke: #000000"/>
     <use xlink:href="#m52b5811a81" x="260.513179" y="233.076297" style="stroke: #000000"/>
     <use xlink:href="#m52b5811a81" x="262.6337" y="232.175766" style="stroke: #000000"/>
     <use xlink:href="#m52b5811a81" x="264.754247" y="237.601962" style="stroke: #000000"/>
     <use xlink:href="#m52b5811a81" x="266.882671" y="232.401931" style="stroke: #000000"/>
     <use xlink:href="#m52b5811a81" x="269.010013" y="222.293633" style="stroke: #000000"/>
     <use xlink:href="#m52b5811a81" x="271.144718" y="221.679674" style="stroke: #000000"/>
     <use xlink:href="#m52b5811a81" x="273.323015" y="218.054225" style="stroke: #000000"/>
     <use xlink:href="#m52b5811a81" x="275.470382" y="208.945794" style="stroke: #000000"/>
     <use xlink:href="#m52b5811a81" x="277.607894" y="222.069958" style="stroke: #000000"/>
     <use xlink:href="#m52b5811a81" x="279.730876" y="234.465291" style="stroke: #000000"/>
     <use xlink:href="#m52b5811a81" x="281.857309" y="231.137229" style="stroke: #000000"/>
     <use xlink:href="#m52b5811a81" x="283.991037" y="240.617628" style="stroke: #000000"/>
     <use xlink:href="#m52b5811a81" x="286.11639" y="232.075872" style="stroke: #000000"/>
     <use xlink:href="#m52b5811a81" x="288.238143" y="235.027934" style="stroke: #000000"/>
     <use xlink:href="#m52b5811a81" x="290.35925" y="229.764154" style="stroke: #000000"/>
     <use xlink:href="#m52b5811a81" x="292.51654" y="226.017493" style="stroke: #000000"/>
     <use xlink:href="#m52b5811a81" x="294.638588" y="226.808702" style="stroke: #000000"/>
     <use xlink:href="#m52b5811a81" x="296.751721" y="218.759452" style="stroke: #000000"/>
     <use xlink:href="#m52b5811a81" x="298.871619" y="211.292521" style="stroke: #000000"/>
     <use xlink:href="#m52b5811a81" x="300.997419" y="215.471576" style="stroke: #000000"/>
     <use xlink:href="#m52b5811a81" x="303.122695" y="232.125012" style="stroke: #000000"/>
     <use xlink:href="#m52b5811a81" x="305.249703" y="231.000376" style="stroke: #000000"/>
     <use xlink:href="#m52b5811a81" x="307.379349" y="234.469895" style="stroke: #000000"/>
     <use xlink:href="#m52b5811a81" x="309.502776" y="199.44693" style="stroke: #000000"/>
     <use xlink:href="#m52b5811a81" x="311.689738" y="212.047452" style="stroke: #000000"/>
    </g>
   </g>
   <g id="line2d_21">
    <path d="M 69.292615 58.663055 
L 72.303211 104.179767 
L 75.38892 113.663337 
L 78.495615 142.63922 
L 81.770311 147.652292 
L 84.493646 122.738473 
L 87.279246 147.922259 
L 89.966898 156.865395 
L 92.735146 167.885597 
L 95.415701 165.452085 
L 97.939788 166.431633 
L 100.569734 166.17979 
L 103.105556 161.186713 
L 105.602552 161.941306 
L 108.119608 180.923309 
L 110.802548 172.830062 
L 113.306941 184.580858 
L 115.848136 180.300849 
L 118.40627 174.412827 
L 120.969604 181.652921 
L 123.444469 185.934691 
L 126.0995 164.905685 
L 128.657226 189.688123 
L 131.02769 187.644053 
L 133.279895 184.068438 
L 135.525068 185.685428 
L 137.787444 188.17902 
L 140.035651 193.380902 
L 142.293453 194.37172 
L 144.541776 197.642905 
L 146.746709 190.570946 
L 148.948667 188.279366 
L 151.151051 197.260843 
L 153.43791 202.208963 
L 155.697991 205.015327 
L 157.914778 198.043155 
L 160.158251 203.795409 
L 162.358399 211.565295 
L 164.572433 209.564916 
L 166.779875 187.479279 
L 169.021141 220.727646 
L 171.232554 204.433889 
L 173.42343 216.236908 
L 175.61847 212.859398 
L 177.841459 211.481515 
L 180.090571 197.354924 
L 182.28622 208.244956 
L 184.480126 202.209974 
L 186.668174 212.264658 
L 188.854091 207.844876 
L 191.053278 219.692053 
L 193.240581 185.014451 
L 195.429904 209.171989 
L 197.611625 226.700039 
L 199.726045 213.410599 
L 201.831686 203.84286 
L 203.938626 201.174358 
L 206.044877 211.651718 
L 208.145547 215.666591 
L 210.246649 218.173186 
L 212.350234 214.677472 
L 214.450278 219.475931 
L 216.553501 218.205665 
L 218.654268 185.329019 
L 220.769967 215.121117 
L 222.880064 213.643398 
L 225.018945 215.991949 
L 227.152527 216.471112 
L 229.257912 215.38083 
L 231.362008 208.969133 
L 233.472957 228.717599 
L 235.601668 218.593333 
L 237.702216 220.918923 
L 239.797714 217.708654 
L 241.908928 212.982102 
L 244.015601 220.159037 
L 246.112659 210.640613 
L 248.211376 214.509126 
L 250.319615 195.030003 
L 252.427455 223.486862 
L 254.536595 206.377393 
L 256.647637 218.87186 
L 258.752598 220.484702 
L 260.88649 222.649218 
L 262.974835 219.693759 
L 265.036333 231.058936 
L 267.125733 220.768965 
L 269.212527 191.049806 
L 271.304838 227.16897 
L 273.379365 229.841088 
L 275.467197 210.21905 
L 277.546142 225.312081 
L 279.629394 231.129867 
L 281.724682 218.879592 
L 283.812315 231.765024 
L 285.88735 223.809662 
L 287.96725 225.13351 
L 290.054306 225.689373 
L 292.121974 222.561915 
L 294.209208 213.196323 
" clip-path="url(#pf2a1f37a3f)" style="fill: none; stroke-dasharray: 3.2,0.8,0.5,0.8; stroke-dashoffset: 0; stroke: #000000; stroke-width: 0.5"/>
    <g clip-path="url(#pf2a1f37a3f)">
     <use xlink:href="#m52b5811a81" x="69.292615" y="58.663055" style="stroke: #000000"/>
     <use xlink:href="#m52b5811a81" x="72.303211" y="104.179767" style="stroke: #000000"/>
     <use xlink:href="#m52b5811a81" x="75.38892" y="113.663337" style="stroke: #000000"/>
     <use xlink:href="#m52b5811a81" x="78.495615" y="142.63922" style="stroke: #000000"/>
     <use xlink:href="#m52b5811a81" x="81.770311" y="147.652292" style="stroke: #000000"/>
     <use xlink:href="#m52b5811a81" x="84.493646" y="122.738473" style="stroke: #000000"/>
     <use xlink:href="#m52b5811a81" x="87.279246" y="147.922259" style="stroke: #000000"/>
     <use xlink:href="#m52b5811a81" x="89.966898" y="156.865395" style="stroke: #000000"/>
     <use xlink:href="#m52b5811a81" x="92.735146" y="167.885597" style="stroke: #000000"/>
     <use xlink:href="#m52b5811a81" x="95.415701" y="165.452085" style="stroke: #000000"/>
     <use xlink:href="#m52b5811a81" x="97.939788" y="166.431633" style="stroke: #000000"/>
     <use xlink:href="#m52b5811a81" x="100.569734" y="166.17979" style="stroke: #000000"/>
     <use xlink:href="#m52b5811a81" x="103.105556" y="161.186713" style="stroke: #000000"/>
     <use xlink:href="#m52b5811a81" x="105.602552" y="161.941306" style="stroke: #000000"/>
     <use xlink:href="#m52b5811a81" x="108.119608" y="180.923309" style="stroke: #000000"/>
     <use xlink:href="#m52b5811a81" x="110.802548" y="172.830062" style="stroke: #000000"/>
     <use xlink:href="#m52b5811a81" x="113.306941" y="184.580858" style="stroke: #000000"/>
     <use xlink:href="#m52b5811a81" x="115.848136" y="180.300849" style="stroke: #000000"/>
     <use xlink:href="#m52b5811a81" x="118.40627" y="174.412827" style="stroke: #000000"/>
     <use xlink:href="#m52b5811a81" x="120.969604" y="181.652921" style="stroke: #000000"/>
     <use xlink:href="#m52b5811a81" x="123.444469" y="185.934691" style="stroke: #000000"/>
     <use xlink:href="#m52b5811a81" x="126.0995" y="164.905685" style="stroke: #000000"/>
     <use xlink:href="#m52b5811a81" x="128.657226" y="189.688123" style="stroke: #000000"/>
     <use xlink:href="#m52b5811a81" x="131.02769" y="187.644053" style="stroke: #000000"/>
     <use xlink:href="#m52b5811a81" x="133.279895" y="184.068438" style="stroke: #000000"/>
     <use xlink:href="#m52b5811a81" x="135.525068" y="185.685428" style="stroke: #000000"/>
     <use xlink:href="#m52b5811a81" x="137.787444" y="188.17902" style="stroke: #000000"/>
     <use xlink:href="#m52b5811a81" x="140.035651" y="193.380902" style="stroke: #000000"/>
     <use xlink:href="#m52b5811a81" x="142.293453" y="194.37172" style="stroke: #000000"/>
     <use xlink:href="#m52b5811a81" x="144.541776" y="197.642905" style="stroke: #000000"/>
     <use xlink:href="#m52b5811a81" x="146.746709" y="190.570946" style="stroke: #000000"/>
     <use xlink:href="#m52b5811a81" x="148.948667" y="188.279366" style="stroke: #000000"/>
     <use xlink:href="#m52b5811a81" x="151.151051" y="197.260843" style="stroke: #000000"/>
     <use xlink:href="#m52b5811a81" x="153.43791" y="202.208963" style="stroke: #000000"/>
     <use xlink:href="#m52b5811a81" x="155.697991" y="205.015327" style="stroke: #000000"/>
     <use xlink:href="#m52b5811a81" x="157.914778" y="198.043155" style="stroke: #000000"/>
     <use xlink:href="#m52b5811a81" x="160.158251" y="203.795409" style="stroke: #000000"/>
     <use xlink:href="#m52b5811a81" x="162.358399" y="211.565295" style="stroke: #000000"/>
     <use xlink:href="#m52b5811a81" x="164.572433" y="209.564916" style="stroke: #000000"/>
     <use xlink:href="#m52b5811a81" x="166.779875" y="187.479279" style="stroke: #000000"/>
     <use xlink:href="#m52b5811a81" x="169.021141" y="220.727646" style="stroke: #000000"/>
     <use xlink:href="#m52b5811a81" x="171.232554" y="204.433889" style="stroke: #000000"/>
     <use xlink:href="#m52b5811a81" x="173.42343" y="216.236908" style="stroke: #000000"/>
     <use xlink:href="#m52b5811a81" x="175.61847" y="212.859398" style="stroke: #000000"/>
     <use xlink:href="#m52b5811a81" x="177.841459" y="211.481515" style="stroke: #000000"/>
     <use xlink:href="#m52b5811a81" x="180.090571" y="197.354924" style="stroke: #000000"/>
     <use xlink:href="#m52b5811a81" x="182.28622" y="208.244956" style="stroke: #000000"/>
     <use xlink:href="#m52b5811a81" x="184.480126" y="202.209974" style="stroke: #000000"/>
     <use xlink:href="#m52b5811a81" x="186.668174" y="212.264658" style="stroke: #000000"/>
     <use xlink:href="#m52b5811a81" x="188.854091" y="207.844876" style="stroke: #000000"/>
     <use xlink:href="#m52b5811a81" x="191.053278" y="219.692053" style="stroke: #000000"/>
     <use xlink:href="#m52b5811a81" x="193.240581" y="185.014451" style="stroke: #000000"/>
     <use xlink:href="#m52b5811a81" x="195.429904" y="209.171989" style="stroke: #000000"/>
     <use xlink:href="#m52b5811a81" x="197.611625" y="226.700039" style="stroke: #000000"/>
     <use xlink:href="#m52b5811a81" x="199.726045" y="213.410599" style="stroke: #000000"/>
     <use xlink:href="#m52b5811a81" x="201.831686" y="203.84286" style="stroke: #000000"/>
     <use xlink:href="#m52b5811a81" x="203.938626" y="201.174358" style="stroke: #000000"/>
     <use xlink:href="#m52b5811a81" x="206.044877" y="211.651718" style="stroke: #000000"/>
     <use xlink:href="#m52b5811a81" x="208.145547" y="215.666591" style="stroke: #000000"/>
     <use xlink:href="#m52b5811a81" x="210.246649" y="218.173186" style="stroke: #000000"/>
     <use xlink:href="#m52b5811a81" x="212.350234" y="214.677472" style="stroke: #000000"/>
     <use xlink:href="#m52b5811a81" x="214.450278" y="219.475931" style="stroke: #000000"/>
     <use xlink:href="#m52b5811a81" x="216.553501" y="218.205665" style="stroke: #000000"/>
     <use xlink:href="#m52b5811a81" x="218.654268" y="185.329019" style="stroke: #000000"/>
     <use xlink:href="#m52b5811a81" x="220.769967" y="215.121117" style="stroke: #000000"/>
     <use xlink:href="#m52b5811a81" x="222.880064" y="213.643398" style="stroke: #000000"/>
     <use xlink:href="#m52b5811a81" x="225.018945" y="215.991949" style="stroke: #000000"/>
     <use xlink:href="#m52b5811a81" x="227.152527" y="216.471112" style="stroke: #000000"/>
     <use xlink:href="#m52b5811a81" x="229.257912" y="215.38083" style="stroke: #000000"/>
     <use xlink:href="#m52b5811a81" x="231.362008" y="208.969133" style="stroke: #000000"/>
     <use xlink:href="#m52b5811a81" x="233.472957" y="228.717599" style="stroke: #000000"/>
     <use xlink:href="#m52b5811a81" x="235.601668" y="218.593333" style="stroke: #000000"/>
     <use xlink:href="#m52b5811a81" x="237.702216" y="220.918923" style="stroke: #000000"/>
     <use xlink:href="#m52b5811a81" x="239.797714" y="217.708654" style="stroke: #000000"/>
     <use xlink:href="#m52b5811a81" x="241.908928" y="212.982102" style="stroke: #000000"/>
     <use xlink:href="#m52b5811a81" x="244.015601" y="220.159037" style="stroke: #000000"/>
     <use xlink:href="#m52b5811a81" x="246.112659" y="210.640613" style="stroke: #000000"/>
     <use xlink:href="#m52b5811a81" x="248.211376" y="214.509126" style="stroke: #000000"/>
     <use xlink:href="#m52b5811a81" x="250.319615" y="195.030003" style="stroke: #000000"/>
     <use xlink:href="#m52b5811a81" x="252.427455" y="223.486862" style="stroke: #000000"/>
     <use xlink:href="#m52b5811a81" x="254.536595" y="206.377393" style="stroke: #000000"/>
     <use xlink:href="#m52b5811a81" x="256.647637" y="218.87186" style="stroke: #000000"/>
     <use xlink:href="#m52b5811a81" x="258.752598" y="220.484702" style="stroke: #000000"/>
     <use xlink:href="#m52b5811a81" x="260.88649" y="222.649218" style="stroke: #000000"/>
     <use xlink:href="#m52b5811a81" x="262.974835" y="219.693759" style="stroke: #000000"/>
     <use xlink:href="#m52b5811a81" x="265.036333" y="231.058936" style="stroke: #000000"/>
     <use xlink:href="#m52b5811a81" x="267.125733" y="220.768965" style="stroke: #000000"/>
     <use xlink:href="#m52b5811a81" x="269.212527" y="191.049806" style="stroke: #000000"/>
     <use xlink:href="#m52b5811a81" x="271.304838" y="227.16897" style="stroke: #000000"/>
     <use xlink:href="#m52b5811a81" x="273.379365" y="229.841088" style="stroke: #000000"/>
     <use xlink:href="#m52b5811a81" x="275.467197" y="210.21905" style="stroke: #000000"/>
     <use xlink:href="#m52b5811a81" x="277.546142" y="225.312081" style="stroke: #000000"/>
     <use xlink:href="#m52b5811a81" x="279.629394" y="231.129867" style="stroke: #000000"/>
     <use xlink:href="#m52b5811a81" x="281.724682" y="218.879592" style="stroke: #000000"/>
     <use xlink:href="#m52b5811a81" x="283.812315" y="231.765024" style="stroke: #000000"/>
     <use xlink:href="#m52b5811a81" x="285.88735" y="223.809662" style="stroke: #000000"/>
     <use xlink:href="#m52b5811a81" x="287.96725" y="225.13351" style="stroke: #000000"/>
     <use xlink:href="#m52b5811a81" x="290.054306" y="225.689373" style="stroke: #000000"/>
     <use xlink:href="#m52b5811a81" x="292.121974" y="222.561915" style="stroke: #000000"/>
     <use xlink:href="#m52b5811a81" x="294.209208" y="213.196323" style="stroke: #000000"/>
    </g>
   </g>
   <g id="patch_3">
    <path d="M 54 252 
L 54 34.56 
" style="fill: none; stroke: #000000; stroke-width: 0.8; stroke-linejoin: miter; stroke-linecap: square"/>
   </g>
   <g id="patch_4">
    <path d="M 388.8 252 
L 388.8 34.56 
" style="fill: none; stroke: #000000; stroke-width: 0.8; stroke-linejoin: miter; stroke-linecap: square"/>
   </g>
   <g id="patch_5">
    <path d="M 54 252 
L 388.8 252 
" style="fill: none; stroke: #000000; stroke-width: 0.8; stroke-linejoin: miter; stroke-linecap: square"/>
   </g>
   <g id="patch_6">
    <path d="M 54 34.56 
L 388.8 34.56 
" style="fill: none; stroke: #000000; stroke-width: 0.8; stroke-linejoin: miter; stroke-linecap: square"/>
   </g>
   <g id="legend_1">
    <g id="patch_7">
     <path d="M 255.432813 159.985 
L 381.8 159.985 
Q 383.8 159.985 383.8 157.985 
L 383.8 41.56 
Q 383.8 39.56 381.8 39.56 
L 255.432813 39.56 
Q 253.432813 39.56 253.432813 41.56 
L 253.432813 157.985 
Q 253.432813 159.985 255.432813 159.985 
z
" style="fill: #ffffff; opacity: 0.8; stroke: #cccccc; stroke-linejoin: miter"/>
    </g>
    <g id="line2d_22">
     <path d="M 257.432813 47.658437 
L 267.432813 47.658437 
L 277.432813 47.658437 
" style="fill: none; stroke: #000000; stroke-width: 0.5; stroke-linecap: square"/>
    </g>
    <g id="text_13">
     <!-- RM -->
     <g transform="translate(285.432813 51.158437)scale(0.1 -0.1)">
      <defs>
       <path id="DejaVuSans-52" d="M 2841 2188 
Q 3044 2119 3236 1894 
Q 3428 1669 3622 1275 
L 4263 0 
L 3584 0 
L 2988 1197 
Q 2756 1666 2539 1819 
Q 2322 1972 1947 1972 
L 1259 1972 
L 1259 0 
L 628 0 
L 628 4666 
L 2053 4666 
Q 2853 4666 3247 4331 
Q 3641 3997 3641 3322 
Q 3641 2881 3436 2590 
Q 3231 2300 2841 2188 
z
M 1259 4147 
L 1259 2491 
L 2053 2491 
Q 2509 2491 2742 2702 
Q 2975 2913 2975 3322 
Q 2975 3731 2742 3939 
Q 2509 4147 2053 4147 
L 1259 4147 
z
" transform="scale(0.015625)"/>
       <path id="DejaVuSans-4d" d="M 628 4666 
L 1569 4666 
L 2759 1491 
L 3956 4666 
L 4897 4666 
L 4897 0 
L 4281 0 
L 4281 4097 
L 3078 897 
L 2444 897 
L 1241 4097 
L 1241 0 
L 628 0 
L 628 4666 
z
" transform="scale(0.015625)"/>
      </defs>
      <use xlink:href="#DejaVuSans-52"/>
      <use xlink:href="#DejaVuSans-4d" x="69.482422"/>
     </g>
    </g>
    <g id="line2d_23">
     <path d="M 257.432813 62.336563 
L 267.432813 62.336563 
L 277.432813 62.336563 
" style="fill: none; stroke-dasharray: 1.85,0.8; stroke-dashoffset: 0; stroke: #000000; stroke-width: 0.5"/>
    </g>
    <g id="text_14">
     <!-- RM, shift -->
     <g transform="translate(285.432813 65.836563)scale(0.1 -0.1)">
      <defs>
       <path id="DejaVuSans-2c" d="M 750 794 
L 1409 794 
L 1409 256 
L 897 -744 
L 494 -744 
L 750 256 
L 750 794 
z
" transform="scale(0.015625)"/>
       <path id="DejaVuSans-66" d="M 2375 4863 
L 2375 4384 
L 1825 4384 
Q 1516 4384 1395 4259 
Q 1275 4134 1275 3809 
L 1275 3500 
L 2222 3500 
L 2222 3053 
L 1275 3053 
L 1275 0 
L 697 0 
L 697 3053 
L 147 3053 
L 147 3500 
L 697 3500 
L 697 3744 
Q 697 4328 969 4595 
Q 1241 4863 1831 4863 
L 2375 4863 
z
" transform="scale(0.015625)"/>
      </defs>
      <use xlink:href="#DejaVuSans-52"/>
      <use xlink:href="#DejaVuSans-4d" x="69.482422"/>
      <use xlink:href="#DejaVuSans-2c" x="155.761719"/>
      <use xlink:href="#DejaVuSans-20" x="187.548828"/>
      <use xlink:href="#DejaVuSans-73" x="219.335938"/>
      <use xlink:href="#DejaVuSans-68" x="271.435547"/>
      <use xlink:href="#DejaVuSans-69" x="334.814453"/>
      <use xlink:href="#DejaVuSans-66" x="362.597656"/>
      <use xlink:href="#DejaVuSans-74" x="396.052734"/>
     </g>
    </g>
    <g id="line2d_24">
     <path d="M 257.432813 77.014687 
L 267.432813 77.014687 
L 277.432813 77.014687 
" style="fill: none; stroke-dasharray: 0.5,0.825; stroke-dashoffset: 0; stroke: #000000; stroke-width: 0.5"/>
    </g>
    <g id="text_15">
     <!-- RM, softmax -->
     <g transform="translate(285.432813 80.514687)scale(0.1 -0.1)">
      <defs>
       <path id="DejaVuSans-78" d="M 3513 3500 
L 2247 1797 
L 3578 0 
L 2900 0 
L 1881 1375 
L 863 0 
L 184 0 
L 1544 1831 
L 300 3500 
L 978 3500 
L 1906 2253 
L 2834 3500 
L 3513 3500 
z
" transform="scale(0.015625)"/>
      </defs>
      <use xlink:href="#DejaVuSans-52"/>
      <use xlink:href="#DejaVuSans-4d" x="69.482422"/>
      <use xlink:href="#DejaVuSans-2c" x="155.761719"/>
      <use xlink:href="#DejaVuSans-20" x="187.548828"/>
      <use xlink:href="#DejaVuSans-73" x="219.335938"/>
      <use xlink:href="#DejaVuSans-6f" x="271.435547"/>
      <use xlink:href="#DejaVuSans-66" x="332.617188"/>
      <use xlink:href="#DejaVuSans-74" x="366.072266"/>
      <use xlink:href="#DejaVuSans-6d" x="405.28125"/>
      <use xlink:href="#DejaVuSans-61" x="502.693359"/>
      <use xlink:href="#DejaVuSans-78" x="563.972656"/>
     </g>
    </g>
    <g id="line2d_25">
     <path d="M 257.432813 91.692813 
L 267.432813 91.692813 
L 277.432813 91.692813 
" style="fill: none; stroke-dasharray: 3.2,0.8,0.5,0.8; stroke-dashoffset: 0; stroke: #000000; stroke-width: 0.5"/>
    </g>
    <g id="text_16">
     <!-- RM, softmax, shift -->
     <g transform="translate(285.432813 95.192813)scale(0.1 -0.1)">
      <use xlink:href="#DejaVuSans-52"/>
      <use xlink:href="#DejaVuSans-4d" x="69.482422"/>
      <use xlink:href="#DejaVuSans-2c" x="155.761719"/>
      <use xlink:href="#DejaVuSans-20" x="187.548828"/>
      <use xlink:href="#DejaVuSans-73" x="219.335938"/>
      <use xlink:href="#DejaVuSans-6f" x="271.435547"/>
      <use xlink:href="#DejaVuSans-66" x="332.617188"/>
      <use xlink:href="#DejaVuSans-74" x="366.072266"/>
      <use xlink:href="#DejaVuSans-6d" x="405.28125"/>
      <use xlink:href="#DejaVuSans-61" x="502.693359"/>
      <use xlink:href="#DejaVuSans-78" x="563.972656"/>
      <use xlink:href="#DejaVuSans-2c" x="623.152344"/>
      <use xlink:href="#DejaVuSans-20" x="654.939453"/>
      <use xlink:href="#DejaVuSans-73" x="686.726562"/>
      <use xlink:href="#DejaVuSans-68" x="738.826172"/>
      <use xlink:href="#DejaVuSans-69" x="802.205078"/>
      <use xlink:href="#DejaVuSans-66" x="829.988281"/>
      <use xlink:href="#DejaVuSans-74" x="863.443359"/>
     </g>
    </g>
    <g id="line2d_26">
     <path d="M 257.432813 106.370937 
L 267.432813 106.370937 
L 277.432813 106.370937 
" style="fill: none; stroke: #000000; stroke-width: 0.5; stroke-linecap: square"/>
     <g>
      <use xlink:href="#m52b5811a81" x="267.432813" y="106.370937" style="stroke: #000000"/>
     </g>
    </g>
    <g id="text_17">
     <!-- CFR -->
     <g transform="translate(285.432813 109.870937)scale(0.1 -0.1)">
      <defs>
       <path id="DejaVuSans-46" d="M 628 4666 
L 3309 4666 
L 3309 4134 
L 1259 4134 
L 1259 2759 
L 3109 2759 
L 3109 2228 
L 1259 2228 
L 1259 0 
L 628 0 
L 628 4666 
z
" transform="scale(0.015625)"/>
      </defs>
      <use xlink:href="#DejaVuSans-43"/>
      <use xlink:href="#DejaVuSans-46" x="69.824219"/>
      <use xlink:href="#DejaVuSans-52" x="127.34375"/>
     </g>
    </g>
    <g id="line2d_27">
     <path d="M 257.432813 121.049062 
L 267.432813 121.049062 
L 277.432813 121.049062 
" style="fill: none; stroke-dasharray: 1.85,0.8; stroke-dashoffset: 0; stroke: #000000; stroke-width: 0.5"/>
     <g>
      <use xlink:href="#m52b5811a81" x="267.432813" y="121.049062" style="stroke: #000000"/>
     </g>
    </g>
    <g id="text_18">
     <!-- CFR, shift -->
     <g transform="translate(285.432813 124.549062)scale(0.1 -0.1)">
      <use xlink:href="#DejaVuSans-43"/>
      <use xlink:href="#DejaVuSans-46" x="69.824219"/>
      <use xlink:href="#DejaVuSans-52" x="127.34375"/>
      <use xlink:href="#DejaVuSans-2c" x="196.826172"/>
      <use xlink:href="#DejaVuSans-20" x="228.613281"/>
      <use xlink:href="#DejaVuSans-73" x="260.400391"/>
      <use xlink:href="#DejaVuSans-68" x="312.5"/>
      <use xlink:href="#DejaVuSans-69" x="375.878906"/>
      <use xlink:href="#DejaVuSans-66" x="403.662109"/>
      <use xlink:href="#DejaVuSans-74" x="437.117188"/>
     </g>
    </g>
    <g id="line2d_28">
     <path d="M 257.432813 135.727187 
L 267.432813 135.727187 
L 277.432813 135.727187 
" style="fill: none; stroke-dasharray: 0.5,0.825; stroke-dashoffset: 0; stroke: #000000; stroke-width: 0.5"/>
     <g>
      <use xlink:href="#m52b5811a81" x="267.432813" y="135.727187" style="stroke: #000000"/>
     </g>
    </g>
    <g id="text_19">
     <!-- CFR, softmax -->
     <g transform="translate(285.432813 139.227187)scale(0.1 -0.1)">
      <use xlink:href="#DejaVuSans-43"/>
      <use xlink:href="#DejaVuSans-46" x="69.824219"/>
      <use xlink:href="#DejaVuSans-52" x="127.34375"/>
      <use xlink:href="#DejaVuSans-2c" x="196.826172"/>
      <use xlink:href="#DejaVuSans-20" x="228.613281"/>
      <use xlink:href="#DejaVuSans-73" x="260.400391"/>
      <use xlink:href="#DejaVuSans-6f" x="312.5"/>
      <use xlink:href="#DejaVuSans-66" x="373.681641"/>
      <use xlink:href="#DejaVuSans-74" x="407.136719"/>
      <use xlink:href="#DejaVuSans-6d" x="446.345703"/>
      <use xlink:href="#DejaVuSans-61" x="543.757812"/>
      <use xlink:href="#DejaVuSans-78" x="605.037109"/>
     </g>
    </g>
    <g id="line2d_29">
     <path d="M 257.432813 150.405312 
L 267.432813 150.405312 
L 277.432813 150.405312 
" style="fill: none; stroke-dasharray: 3.2,0.8,0.5,0.8; stroke-dashoffset: 0; stroke: #000000; stroke-width: 0.5"/>
     <g>
      <use xlink:href="#m52b5811a81" x="267.432813" y="150.405312" style="stroke: #000000"/>
     </g>
    </g>
    <g id="text_20">
     <!-- CFR, softmax, shift -->
     <g transform="translate(285.432813 153.905312)scale(0.1 -0.1)">
      <use xlink:href="#DejaVuSans-43"/>
      <use xlink:href="#DejaVuSans-46" x="69.824219"/>
      <use xlink:href="#DejaVuSans-52" x="127.34375"/>
      <use xlink:href="#DejaVuSans-2c" x="196.826172"/>
      <use xlink:href="#DejaVuSans-20" x="228.613281"/>
      <use xlink:href="#DejaVuSans-73" x="260.400391"/>
      <use xlink:href="#DejaVuSans-6f" x="312.5"/>
      <use xlink:href="#DejaVuSans-66" x="373.681641"/>
      <use xlink:href="#DejaVuSans-74" x="407.136719"/>
      <use xlink:href="#DejaVuSans-6d" x="446.345703"/>
      <use xlink:href="#DejaVuSans-61" x="543.757812"/>
      <use xlink:href="#DejaVuSans-78" x="605.037109"/>
      <use xlink:href="#DejaVuSans-2c" x="664.216797"/>
      <use xlink:href="#DejaVuSans-20" x="696.003906"/>
      <use xlink:href="#DejaVuSans-73" x="727.791016"/>
      <use xlink:href="#DejaVuSans-68" x="779.890625"/>
      <use xlink:href="#DejaVuSans-69" x="843.269531"/>
      <use xlink:href="#DejaVuSans-66" x="871.052734"/>
      <use xlink:href="#DejaVuSans-74" x="904.507812"/>
     </g>
    </g>
   </g>
  </g>
 </g>
 <defs>
  <clipPath id="pf2a1f37a3f">
   <rect x="54" y="34.56" width="334.8" height="217.44"/>
  </clipPath>
 </defs>
</svg>
