<?xml version="1.0" encoding="utf-8" standalone="no"?>
<!DOCTYPE svg PUBLIC "-//W3C//DTD SVG 1.1//EN"
  "http://www.w3.org/Graphics/SVG/1.1/DTD/svg11.dtd">
<svg xmlns:xlink="http://www.w3.org/1999/xlink" width="432pt" height="288pt" viewBox="0 0 432 288" xmlns="http://www.w3.org/2000/svg" version="1.1">
 <metadata>
  <rdf:RDF xmlns:dc="http://purl.org/dc/elements/1.1/" xmlns:cc="http://creativecommons.org/ns#" xmlns:rdf="http://www.w3.org/1999/02/22-rdf-syntax-ns#">
   <cc:Work>
    <dc:type rdf:resource="http://purl.org/dc/dcmitype/StillImage"/>
    <dc:date>2023-04-17T12:49:40.127950</dc:date>
    <dc:format>image/svg+xml</dc:format>
    <dc:creator>
     <cc:Agent>
      <dc:title>Matplotlib v3.5.1, https://matplotlib.org/</dc:title>
     </cc:Agent>
    </dc:creator>
   </cc:Work>
  </rdf:RDF>
 </metadata>
 <defs>
  <style type="text/css">*{stroke-linejoin: round; stroke-linecap: butt}</style>
 </defs>
 <g id="figure_1">
  <g id="patch_1">
   <path d="M 0 288 
L 432 288 
L 432 0 
L 0 0 
L 0 288 
z
" style="fill: none"/>
  </g>
  <g id="axes_1">
   <g id="patch_2">
    <path d="M 54 252 
L 388.8 252 
L 388.8 34.56 
L 54 34.56 
z
" style="fill: #ffffff"/>
   </g>
   <g id="matplotlib.axis_1">
    <g id="xtick_1">
     <g id="line2d_1">
      <defs>
       <path id="mebc1d8cb5e" d="M 0 0 
L 0 3.5 
" style="stroke: #000000; stroke-width: 0.8"/>
      </defs>
      <g>
       <use xlink:href="#mebc1d8cb5e" x="66.344233" y="252" style="stroke: #000000; stroke-width: 0.8"/>
      </g>
     </g>
     <g id="text_1">
      <!-- 0 -->
      <g transform="translate(63.162983 266.598437)scale(0.1 -0.1)">
       <defs>
        <path id="DejaVuSans-30" d="M 2034 4250 
Q 1547 4250 1301 3770 
Q 1056 3291 1056 2328 
Q 1056 1369 1301 889 
Q 1547 409 2034 409 
Q 2525 409 2770 889 
Q 3016 1369 3016 2328 
Q 3016 3291 2770 3770 
Q 2525 4250 2034 4250 
z
M 2034 4750 
Q 2819 4750 3233 4129 
Q 3647 3509 3647 2328 
Q 3647 1150 3233 529 
Q 2819 -91 2034 -91 
Q 1250 -91 836 529 
Q 422 1150 422 2328 
Q 422 3509 836 4129 
Q 1250 4750 2034 4750 
z
" transform="scale(0.015625)"/>
       </defs>
       <use xlink:href="#DejaVuSans-30"/>
      </g>
     </g>
    </g>
    <g id="xtick_2">
     <g id="line2d_2">
      <g>
       <use xlink:href="#mebc1d8cb5e" x="134.391547" y="252" style="stroke: #000000; stroke-width: 0.8"/>
      </g>
     </g>
     <g id="text_2">
      <!-- 100 -->
      <g transform="translate(124.847797 266.598437)scale(0.1 -0.1)">
       <defs>
        <path id="DejaVuSans-31" d="M 794 531 
L 1825 531 
L 1825 4091 
L 703 3866 
L 703 4441 
L 1819 4666 
L 2450 4666 
L 2450 531 
L 3481 531 
L 3481 0 
L 794 0 
L 794 531 
z
" transform="scale(0.015625)"/>
       </defs>
       <use xlink:href="#DejaVuSans-31"/>
       <use xlink:href="#DejaVuSans-30" x="63.623047"/>
       <use xlink:href="#DejaVuSans-30" x="127.246094"/>
      </g>
     </g>
    </g>
    <g id="xtick_3">
     <g id="line2d_3">
      <g>
       <use xlink:href="#mebc1d8cb5e" x="202.438862" y="252" style="stroke: #000000; stroke-width: 0.8"/>
      </g>
     </g>
     <g id="text_3">
      <!-- 200 -->
      <g transform="translate(192.895112 266.598437)scale(0.1 -0.1)">
       <defs>
        <path id="DejaVuSans-32" d="M 1228 531 
L 3431 531 
L 3431 0 
L 469 0 
L 469 531 
Q 828 903 1448 1529 
Q 2069 2156 2228 2338 
Q 2531 2678 2651 2914 
Q 2772 3150 2772 3378 
Q 2772 3750 2511 3984 
Q 2250 4219 1831 4219 
Q 1534 4219 1204 4116 
Q 875 4013 500 3803 
L 500 4441 
Q 881 4594 1212 4672 
Q 1544 4750 1819 4750 
Q 2544 4750 2975 4387 
Q 3406 4025 3406 3419 
Q 3406 3131 3298 2873 
Q 3191 2616 2906 2266 
Q 2828 2175 2409 1742 
Q 1991 1309 1228 531 
z
" transform="scale(0.015625)"/>
       </defs>
       <use xlink:href="#DejaVuSans-32"/>
       <use xlink:href="#DejaVuSans-30" x="63.623047"/>
       <use xlink:href="#DejaVuSans-30" x="127.246094"/>
      </g>
     </g>
    </g>
    <g id="xtick_4">
     <g id="line2d_4">
      <g>
       <use xlink:href="#mebc1d8cb5e" x="270.486176" y="252" style="stroke: #000000; stroke-width: 0.8"/>
      </g>
     </g>
     <g id="text_4">
      <!-- 300 -->
      <g transform="translate(260.942426 266.598437)scale(0.1 -0.1)">
       <defs>
        <path id="DejaVuSans-33" d="M 2597 2516 
Q 3050 2419 3304 2112 
Q 3559 1806 3559 1356 
Q 3559 666 3084 287 
Q 2609 -91 1734 -91 
Q 1441 -91 1130 -33 
Q 819 25 488 141 
L 488 750 
Q 750 597 1062 519 
Q 1375 441 1716 441 
Q 2309 441 2620 675 
Q 2931 909 2931 1356 
Q 2931 1769 2642 2001 
Q 2353 2234 1838 2234 
L 1294 2234 
L 1294 2753 
L 1863 2753 
Q 2328 2753 2575 2939 
Q 2822 3125 2822 3475 
Q 2822 3834 2567 4026 
Q 2313 4219 1838 4219 
Q 1578 4219 1281 4162 
Q 984 4106 628 3988 
L 628 4550 
Q 988 4650 1302 4700 
Q 1616 4750 1894 4750 
Q 2613 4750 3031 4423 
Q 3450 4097 3450 3541 
Q 3450 3153 3228 2886 
Q 3006 2619 2597 2516 
z
" transform="scale(0.015625)"/>
       </defs>
       <use xlink:href="#DejaVuSans-33"/>
       <use xlink:href="#DejaVuSans-30" x="63.623047"/>
       <use xlink:href="#DejaVuSans-30" x="127.246094"/>
      </g>
     </g>
    </g>
    <g id="xtick_5">
     <g id="line2d_5">
      <g>
       <use xlink:href="#mebc1d8cb5e" x="338.533491" y="252" style="stroke: #000000; stroke-width: 0.8"/>
      </g>
     </g>
     <g id="text_5">
      <!-- 400 -->
      <g transform="translate(328.989741 266.598437)scale(0.1 -0.1)">
       <defs>
        <path id="DejaVuSans-34" d="M 2419 4116 
L 825 1625 
L 2419 1625 
L 2419 4116 
z
M 2253 4666 
L 3047 4666 
L 3047 1625 
L 3713 1625 
L 3713 1100 
L 3047 1100 
L 3047 0 
L 2419 0 
L 2419 1100 
L 313 1100 
L 313 1709 
L 2253 4666 
z
" transform="scale(0.015625)"/>
       </defs>
       <use xlink:href="#DejaVuSans-34"/>
       <use xlink:href="#DejaVuSans-30" x="63.623047"/>
       <use xlink:href="#DejaVuSans-30" x="127.246094"/>
      </g>
     </g>
    </g>
    <g id="text_6">
     <!-- time (s) -->
     <g transform="translate(202.008594 280.276563)scale(0.1 -0.1)">
      <defs>
       <path id="DejaVuSans-74" d="M 1172 4494 
L 1172 3500 
L 2356 3500 
L 2356 3053 
L 1172 3053 
L 1172 1153 
Q 1172 725 1289 603 
Q 1406 481 1766 481 
L 2356 481 
L 2356 0 
L 1766 0 
Q 1100 0 847 248 
Q 594 497 594 1153 
L 594 3053 
L 172 3053 
L 172 3500 
L 594 3500 
L 594 4494 
L 1172 4494 
z
" transform="scale(0.015625)"/>
       <path id="DejaVuSans-69" d="M 603 3500 
L 1178 3500 
L 1178 0 
L 603 0 
L 603 3500 
z
M 603 4863 
L 1178 4863 
L 1178 4134 
L 603 4134 
L 603 4863 
z
" transform="scale(0.015625)"/>
       <path id="DejaVuSans-6d" d="M 3328 2828 
Q 3544 3216 3844 3400 
Q 4144 3584 4550 3584 
Q 5097 3584 5394 3201 
Q 5691 2819 5691 2113 
L 5691 0 
L 5113 0 
L 5113 2094 
Q 5113 2597 4934 2840 
Q 4756 3084 4391 3084 
Q 3944 3084 3684 2787 
Q 3425 2491 3425 1978 
L 3425 0 
L 2847 0 
L 2847 2094 
Q 2847 2600 2669 2842 
Q 2491 3084 2119 3084 
Q 1678 3084 1418 2786 
Q 1159 2488 1159 1978 
L 1159 0 
L 581 0 
L 581 3500 
L 1159 3500 
L 1159 2956 
Q 1356 3278 1631 3431 
Q 1906 3584 2284 3584 
Q 2666 3584 2933 3390 
Q 3200 3197 3328 2828 
z
" transform="scale(0.015625)"/>
       <path id="DejaVuSans-65" d="M 3597 1894 
L 3597 1613 
L 953 1613 
Q 991 1019 1311 708 
Q 1631 397 2203 397 
Q 2534 397 2845 478 
Q 3156 559 3463 722 
L 3463 178 
Q 3153 47 2828 -22 
Q 2503 -91 2169 -91 
Q 1331 -91 842 396 
Q 353 884 353 1716 
Q 353 2575 817 3079 
Q 1281 3584 2069 3584 
Q 2775 3584 3186 3129 
Q 3597 2675 3597 1894 
z
M 3022 2063 
Q 3016 2534 2758 2815 
Q 2500 3097 2075 3097 
Q 1594 3097 1305 2825 
Q 1016 2553 972 2059 
L 3022 2063 
z
" transform="scale(0.015625)"/>
       <path id="DejaVuSans-20" transform="scale(0.015625)"/>
       <path id="DejaVuSans-28" d="M 1984 4856 
Q 1566 4138 1362 3434 
Q 1159 2731 1159 2009 
Q 1159 1288 1364 580 
Q 1569 -128 1984 -844 
L 1484 -844 
Q 1016 -109 783 600 
Q 550 1309 550 2009 
Q 550 2706 781 3412 
Q 1013 4119 1484 4856 
L 1984 4856 
z
" transform="scale(0.015625)"/>
       <path id="DejaVuSans-73" d="M 2834 3397 
L 2834 2853 
Q 2591 2978 2328 3040 
Q 2066 3103 1784 3103 
Q 1356 3103 1142 2972 
Q 928 2841 928 2578 
Q 928 2378 1081 2264 
Q 1234 2150 1697 2047 
L 1894 2003 
Q 2506 1872 2764 1633 
Q 3022 1394 3022 966 
Q 3022 478 2636 193 
Q 2250 -91 1575 -91 
Q 1294 -91 989 -36 
Q 684 19 347 128 
L 347 722 
Q 666 556 975 473 
Q 1284 391 1588 391 
Q 1994 391 2212 530 
Q 2431 669 2431 922 
Q 2431 1156 2273 1281 
Q 2116 1406 1581 1522 
L 1381 1569 
Q 847 1681 609 1914 
Q 372 2147 372 2553 
Q 372 3047 722 3315 
Q 1072 3584 1716 3584 
Q 2034 3584 2315 3537 
Q 2597 3491 2834 3397 
z
" transform="scale(0.015625)"/>
       <path id="DejaVuSans-29" d="M 513 4856 
L 1013 4856 
Q 1481 4119 1714 3412 
Q 1947 2706 1947 2009 
Q 1947 1309 1714 600 
Q 1481 -109 1013 -844 
L 513 -844 
Q 928 -128 1133 580 
Q 1338 1288 1338 2009 
Q 1338 2731 1133 3434 
Q 928 4138 513 4856 
z
" transform="scale(0.015625)"/>
      </defs>
      <use xlink:href="#DejaVuSans-74"/>
      <use xlink:href="#DejaVuSans-69" x="39.208984"/>
      <use xlink:href="#DejaVuSans-6d" x="66.992188"/>
      <use xlink:href="#DejaVuSans-65" x="164.404297"/>
      <use xlink:href="#DejaVuSans-20" x="225.927734"/>
      <use xlink:href="#DejaVuSans-28" x="257.714844"/>
      <use xlink:href="#DejaVuSans-73" x="296.728516"/>
      <use xlink:href="#DejaVuSans-29" x="348.828125"/>
     </g>
    </g>
   </g>
   <g id="matplotlib.axis_2">
    <g id="ytick_1">
     <g id="line2d_6">
      <defs>
       <path id="m39088b37d2" d="M 0 0 
L -2 0 
" style="stroke: #000000; stroke-width: 0.6"/>
      </defs>
      <g>
       <use xlink:href="#m39088b37d2" x="54" y="137.959466" style="stroke: #000000; stroke-width: 0.6"/>
      </g>
     </g>
     <g id="text_7">
      <!-- $\mathdefault{2\times10^{-3}}$ -->
      <g transform="translate(6.5 141.758685)scale(0.1 -0.1)">
       <defs>
        <path id="DejaVuSans-d7" d="M 4488 3438 
L 3059 2003 
L 4488 575 
L 4116 197 
L 2681 1631 
L 1247 197 
L 878 575 
L 2303 2003 
L 878 3438 
L 1247 3816 
L 2681 2381 
L 4116 3816 
L 4488 3438 
z
" transform="scale(0.015625)"/>
        <path id="DejaVuSans-2212" d="M 678 2272 
L 4684 2272 
L 4684 1741 
L 678 1741 
L 678 2272 
z
" transform="scale(0.015625)"/>
       </defs>
       <use xlink:href="#DejaVuSans-32" transform="translate(0 0.765625)"/>
       <use xlink:href="#DejaVuSans-d7" transform="translate(83.105469 0.765625)"/>
       <use xlink:href="#DejaVuSans-31" transform="translate(186.376953 0.765625)"/>
       <use xlink:href="#DejaVuSans-30" transform="translate(250 0.765625)"/>
       <use xlink:href="#DejaVuSans-2212" transform="translate(314.580078 39.046875)scale(0.7)"/>
       <use xlink:href="#DejaVuSans-33" transform="translate(373.232422 39.046875)scale(0.7)"/>
      </g>
     </g>
    </g>
    <g id="ytick_2">
     <g id="line2d_7">
      <g>
       <use xlink:href="#m39088b37d2" x="54" y="66.197646" style="stroke: #000000; stroke-width: 0.6"/>
      </g>
     </g>
     <g id="text_8">
      <!-- $\mathdefault{3\times10^{-3}}$ -->
      <g transform="translate(6.5 69.996864)scale(0.1 -0.1)">
       <use xlink:href="#DejaVuSans-33" transform="translate(0 0.765625)"/>
       <use xlink:href="#DejaVuSans-d7" transform="translate(83.105469 0.765625)"/>
       <use xlink:href="#DejaVuSans-31" transform="translate(186.376953 0.765625)"/>
       <use xlink:href="#DejaVuSans-30" transform="translate(250 0.765625)"/>
       <use xlink:href="#DejaVuSans-2212" transform="translate(314.580078 39.046875)scale(0.7)"/>
       <use xlink:href="#DejaVuSans-33" transform="translate(373.232422 39.046875)scale(0.7)"/>
      </g>
     </g>
    </g>
    <g id="text_9">
     <!-- QuasiNashConv -->
     <g transform="translate(0.420312 182.699531)rotate(-90)scale(0.1 -0.1)">
      <defs>
       <path id="DejaVuSans-51" d="M 2522 4238 
Q 1834 4238 1429 3725 
Q 1025 3213 1025 2328 
Q 1025 1447 1429 934 
Q 1834 422 2522 422 
Q 3209 422 3611 934 
Q 4013 1447 4013 2328 
Q 4013 3213 3611 3725 
Q 3209 4238 2522 4238 
z
M 3406 84 
L 4238 -825 
L 3475 -825 
L 2784 -78 
Q 2681 -84 2626 -87 
Q 2572 -91 2522 -91 
Q 1538 -91 948 567 
Q 359 1225 359 2328 
Q 359 3434 948 4092 
Q 1538 4750 2522 4750 
Q 3503 4750 4090 4092 
Q 4678 3434 4678 2328 
Q 4678 1516 4351 937 
Q 4025 359 3406 84 
z
" transform="scale(0.015625)"/>
       <path id="DejaVuSans-75" d="M 544 1381 
L 544 3500 
L 1119 3500 
L 1119 1403 
Q 1119 906 1312 657 
Q 1506 409 1894 409 
Q 2359 409 2629 706 
Q 2900 1003 2900 1516 
L 2900 3500 
L 3475 3500 
L 3475 0 
L 2900 0 
L 2900 538 
Q 2691 219 2414 64 
Q 2138 -91 1772 -91 
Q 1169 -91 856 284 
Q 544 659 544 1381 
z
M 1991 3584 
L 1991 3584 
z
" transform="scale(0.015625)"/>
       <path id="DejaVuSans-61" d="M 2194 1759 
Q 1497 1759 1228 1600 
Q 959 1441 959 1056 
Q 959 750 1161 570 
Q 1363 391 1709 391 
Q 2188 391 2477 730 
Q 2766 1069 2766 1631 
L 2766 1759 
L 2194 1759 
z
M 3341 1997 
L 3341 0 
L 2766 0 
L 2766 531 
Q 2569 213 2275 61 
Q 1981 -91 1556 -91 
Q 1019 -91 701 211 
Q 384 513 384 1019 
Q 384 1609 779 1909 
Q 1175 2209 1959 2209 
L 2766 2209 
L 2766 2266 
Q 2766 2663 2505 2880 
Q 2244 3097 1772 3097 
Q 1472 3097 1187 3025 
Q 903 2953 641 2809 
L 641 3341 
Q 956 3463 1253 3523 
Q 1550 3584 1831 3584 
Q 2591 3584 2966 3190 
Q 3341 2797 3341 1997 
z
" transform="scale(0.015625)"/>
       <path id="DejaVuSans-4e" d="M 628 4666 
L 1478 4666 
L 3547 763 
L 3547 4666 
L 4159 4666 
L 4159 0 
L 3309 0 
L 1241 3903 
L 1241 0 
L 628 0 
L 628 4666 
z
" transform="scale(0.015625)"/>
       <path id="DejaVuSans-68" d="M 3513 2113 
L 3513 0 
L 2938 0 
L 2938 2094 
Q 2938 2591 2744 2837 
Q 2550 3084 2163 3084 
Q 1697 3084 1428 2787 
Q 1159 2491 1159 1978 
L 1159 0 
L 581 0 
L 581 4863 
L 1159 4863 
L 1159 2956 
Q 1366 3272 1645 3428 
Q 1925 3584 2291 3584 
Q 2894 3584 3203 3211 
Q 3513 2838 3513 2113 
z
" transform="scale(0.015625)"/>
       <path id="DejaVuSans-43" d="M 4122 4306 
L 4122 3641 
Q 3803 3938 3442 4084 
Q 3081 4231 2675 4231 
Q 1875 4231 1450 3742 
Q 1025 3253 1025 2328 
Q 1025 1406 1450 917 
Q 1875 428 2675 428 
Q 3081 428 3442 575 
Q 3803 722 4122 1019 
L 4122 359 
Q 3791 134 3420 21 
Q 3050 -91 2638 -91 
Q 1578 -91 968 557 
Q 359 1206 359 2328 
Q 359 3453 968 4101 
Q 1578 4750 2638 4750 
Q 3056 4750 3426 4639 
Q 3797 4528 4122 4306 
z
" transform="scale(0.015625)"/>
       <path id="DejaVuSans-6f" d="M 1959 3097 
Q 1497 3097 1228 2736 
Q 959 2375 959 1747 
Q 959 1119 1226 758 
Q 1494 397 1959 397 
Q 2419 397 2687 759 
Q 2956 1122 2956 1747 
Q 2956 2369 2687 2733 
Q 2419 3097 1959 3097 
z
M 1959 3584 
Q 2709 3584 3137 3096 
Q 3566 2609 3566 1747 
Q 3566 888 3137 398 
Q 2709 -91 1959 -91 
Q 1206 -91 779 398 
Q 353 888 353 1747 
Q 353 2609 779 3096 
Q 1206 3584 1959 3584 
z
" transform="scale(0.015625)"/>
       <path id="DejaVuSans-6e" d="M 3513 2113 
L 3513 0 
L 2938 0 
L 2938 2094 
Q 2938 2591 2744 2837 
Q 2550 3084 2163 3084 
Q 1697 3084 1428 2787 
Q 1159 2491 1159 1978 
L 1159 0 
L 581 0 
L 581 3500 
L 1159 3500 
L 1159 2956 
Q 1366 3272 1645 3428 
Q 1925 3584 2291 3584 
Q 2894 3584 3203 3211 
Q 3513 2838 3513 2113 
z
" transform="scale(0.015625)"/>
       <path id="DejaVuSans-76" d="M 191 3500 
L 800 3500 
L 1894 563 
L 2988 3500 
L 3597 3500 
L 2284 0 
L 1503 0 
L 191 3500 
z
" transform="scale(0.015625)"/>
      </defs>
      <use xlink:href="#DejaVuSans-51"/>
      <use xlink:href="#DejaVuSans-75" x="78.710938"/>
      <use xlink:href="#DejaVuSans-61" x="142.089844"/>
      <use xlink:href="#DejaVuSans-73" x="203.369141"/>
      <use xlink:href="#DejaVuSans-69" x="255.46875"/>
      <use xlink:href="#DejaVuSans-4e" x="283.251953"/>
      <use xlink:href="#DejaVuSans-61" x="358.056641"/>
      <use xlink:href="#DejaVuSans-73" x="419.335938"/>
      <use xlink:href="#DejaVuSans-68" x="471.435547"/>
      <use xlink:href="#DejaVuSans-43" x="534.814453"/>
      <use xlink:href="#DejaVuSans-6f" x="604.638672"/>
      <use xlink:href="#DejaVuSans-6e" x="665.820312"/>
      <use xlink:href="#DejaVuSans-76" x="729.199219"/>
     </g>
    </g>
   </g>
   <g id="line2d_8">
    <path d="M 71.034599 55.789708 
L 74.101555 82.359142 
L 77.020639 99.332359 
L 79.901836 115.38207 
L 83.409204 143.149454 
L 86.61586 113.005335 
L 89.529518 132.082619 
L 92.48918 159.027349 
L 95.38348 178.125348 
L 98.308631 158.584306 
L 101.238541 184.818943 
L 104.184604 184.514264 
L 107.031548 177.04452 
L 109.911487 176.216372 
L 112.800887 186.579365 
L 115.72672 187.498972 
L 118.546432 183.799009 
L 121.341016 194.862974 
L 124.17804 188.657661 
L 127.015798 178.575065 
L 129.756314 191.971088 
L 132.781224 184.357881 
L 135.637585 183.14444 
L 138.562034 192.88012 
L 141.498365 189.072456 
L 144.392306 210.326123 
L 147.210399 199.126594 
L 150.064473 208.239912 
L 153.177217 202.768499 
L 156.056903 194.652732 
L 159.519239 202.076852 
L 163.033543 188.326835 
L 166.060427 204.662822 
L 169.069088 198.184219 
L 172.039123 191.496721 
L 175.025708 211.165732 
L 177.972198 207.688139 
L 180.988043 206.479893 
L 183.897674 200.087493 
L 186.859272 207.787714 
L 189.849527 202.072592 
L 192.864338 196.736805 
L 195.736215 205.854905 
L 198.651557 192.375018 
L 201.783481 175.874429 
L 205.154938 190.398213 
L 208.46179 198.091989 
L 211.654815 208.804678 
L 214.614949 196.376079 
L 217.576487 203.849686 
L 220.736836 200.279388 
L 223.600769 190.011078 
L 226.611113 199.439729 
L 229.712177 204.186283 
L 232.667407 188.182204 
L 235.566735 204.106242 
L 238.621969 206.354927 
L 241.600562 200.528824 
L 244.602026 214.398204 
L 247.49347 198.97176 
L 250.71992 205.436473 
L 253.729078 206.816548 
L 257.140234 196.804896 
L 260.01785 206.55356 
L 262.99477 204.307568 
L 265.991065 190.450214 
L 268.858978 206.184646 
L 271.630431 207.924124 
L 274.55727 214.6593 
L 277.599018 210.13435 
L 280.526968 205.635377 
L 284.006593 207.069092 
L 287.210636 209.359848 
L 290.348058 201.827794 
L 294.046026 202.670274 
L 297.303552 191.850199 
L 300.547027 198.189185 
L 303.565812 193.456333 
L 306.640359 217.437524 
L 309.632442 206.015809 
L 312.613051 211.019223 
L 315.762115 202.543343 
L 318.701623 215.907057 
L 321.617356 211.675491 
L 324.627184 218.356165 
L 327.63334 211.608689 
L 330.569766 219.137363 
L 333.760125 209.170391 
L 336.829848 209.030768 
L 339.789187 199.67482 
L 343.481009 205.070051 
L 346.643609 196.201196 
L 350.259468 205.88505 
L 353.624282 192.822925 
L 356.52802 202.158095 
L 359.746031 216.471117 
L 362.792134 210.371266 
L 365.792137 208.144717 
L 368.792042 208.563269 
L 371.641581 208.775074 
" clip-path="url(#p2d9d4540c1)" style="fill: none; stroke: #000000; stroke-width: 0.5; stroke-linecap: square"/>
   </g>
   <g id="line2d_9">
    <path d="M 69.288429 70.999116 
L 72.20219 94.88053 
L 74.996561 123.997129 
L 78.055068 147.600335 
L 81.158015 135.191635 
L 84.196011 151.081522 
L 87.035569 157.403648 
L 90.073937 154.737383 
L 92.808857 175.281995 
L 95.942568 162.318557 
L 98.812477 171.429233 
L 101.735181 173.705914 
L 104.616761 179.05097 
L 107.447 172.956947 
L 110.328025 176.403762 
L 113.497142 181.20054 
L 116.384344 181.060216 
L 119.388746 175.622063 
L 122.455627 191.948721 
L 125.316313 196.469607 
L 128.225663 199.010366 
L 131.528661 202.494426 
L 134.798038 195.430518 
L 137.902828 207.397649 
L 141.318059 200.345375 
L 144.382275 192.733945 
L 147.402395 188.830235 
L 150.303279 194.359086 
L 153.188305 195.601883 
L 156.185574 192.617792 
L 159.10469 199.385697 
L 162.114103 194.658838 
L 165.062376 187.186232 
L 168.081309 205.020834 
L 171.122511 203.228005 
L 174.385464 203.471976 
L 177.701088 213.325097 
L 180.732133 200.525303 
L 183.710311 197.354758 
L 186.663577 207.895032 
L 189.818538 210.15191 
L 192.72615 200.131651 
L 195.631338 201.371157 
L 198.737531 204.997842 
L 201.681063 207.853272 
L 204.543052 204.061279 
L 207.682207 195.113347 
L 210.657828 209.200608 
L 213.633893 193.47269 
L 216.614075 204.521828 
L 220.029401 224.908819 
L 222.93785 205.158856 
L 225.811292 210.365664 
L 229.039421 206.089046 
L 231.976867 211.314112 
L 234.879885 218.390841 
L 237.876017 197.156497 
L 240.850993 208.34824 
L 243.865788 220.342961 
L 246.770222 225.54429 
L 249.751769 215.482784 
L 252.697921 222.375891 
L 255.627779 218.438996 
L 258.879734 215.128921 
L 261.939078 210.004925 
L 265.90839 205.888336 
L 269.235918 199.744179 
L 272.376247 190.292777 
L 275.508579 215.823718 
L 278.684186 208.206753 
L 281.576054 208.894192 
L 284.778959 209.194146 
L 287.823999 218.974271 
L 290.879246 218.193412 
L 293.786015 207.282271 
L 296.80702 219.540112 
L 299.641376 217.060693 
L 302.76158 209.922115 
L 306.026591 222.072095 
L 309.564422 221.232976 
L 312.603534 220.615854 
L 315.744119 223.866723 
L 318.970863 211.80731 
L 322.699445 202.705798 
L 325.727171 203.527898 
L 328.813507 222.013722 
L 331.960379 229.80306 
L 334.885631 217.372213 
L 337.969152 218.177674 
L 340.984854 208.893191 
L 344.064291 221.693079 
L 347.084327 224.734963 
L 350.070646 221.364575 
L 353.013481 226.115751 
L 355.935116 222.431184 
L 359.205737 225.694447 
L 362.142993 225.749185 
L 365.458538 227.745397 
L 368.415086 218.992286 
L 371.431141 215.938784 
" clip-path="url(#p2d9d4540c1)" style="fill: none; stroke-dasharray: 1.85,0.8; stroke-dashoffset: 0; stroke: #000000; stroke-width: 0.5"/>
   </g>
   <g id="line2d_10">
    <path d="M 69.337361 44.443636 
L 72.403332 144.830038 
L 75.679772 130.933903 
L 78.999608 128.344261 
L 81.985324 133.354105 
L 85.049139 143.364151 
L 88.171912 165.491157 
L 91.359824 153.363918 
L 94.400349 168.792411 
L 97.475135 170.84789 
L 100.546101 157.726002 
L 103.460926 172.720253 
L 106.498326 161.732396 
L 109.710956 183.672454 
L 112.728392 193.538472 
L 115.650808 178.724294 
L 118.595687 181.994218 
L 122.205941 183.205441 
L 125.128707 195.707432 
L 128.099003 195.831109 
L 131.13102 195.093939 
L 134.003781 190.890591 
L 136.848403 194.103925 
L 139.800911 194.102986 
L 142.643594 213.941393 
L 145.763921 195.056197 
L 148.859361 210.972449 
L 151.752546 198.93043 
L 154.925879 199.079114 
L 157.934831 221.935376 
L 161.056324 213.642292 
L 164.222358 193.893501 
L 167.703662 201.751923 
L 171.066914 212.589024 
L 174.107021 216.918517 
L 177.137721 195.665276 
L 180.14087 204.115532 
L 183.132936 220.658868 
L 186.234159 201.142511 
L 189.275366 223.96015 
L 192.206588 218.54246 
L 195.221895 214.90503 
L 198.152147 213.535411 
L 201.052188 220.969709 
L 204.359317 211.670105 
L 207.330614 216.668899 
L 210.358248 211.031533 
L 213.676694 221.899072 
L 216.700101 218.270493 
L 220.213635 224.227834 
L 223.593938 212.89702 
L 226.720358 215.465306 
L 229.84727 225.406049 
L 232.845942 214.059689 
L 236.031656 214.849515 
L 239.070374 226.794562 
L 241.929551 223.889339 
L 244.876951 218.683835 
L 247.85516 219.315063 
L 250.808831 226.670192 
L 253.794052 215.096456 
L 256.757246 226.796596 
L 260.072525 222.446685 
L 263.357915 215.61952 
L 266.403142 213.210693 
L 269.47372 207.475337 
L 272.657315 216.852505 
L 275.748021 224.973838 
L 278.823062 225.042495 
L 281.764738 221.101712 
L 284.858816 230.488844 
L 288.052984 226.289578 
L 291.019325 236.659812 
L 294.073631 230.188547 
L 296.935095 221.568244 
L 299.952474 217.502767 
L 303.063867 208.722867 
L 306.117143 233.654704 
L 309.314234 221.407368 
L 312.457641 234.931601 
L 315.382198 228.307361 
L 318.407727 234.985875 
L 321.657077 242.116364 
L 324.89845 233.922779 
L 327.964232 237.276371 
L 330.934557 240.946305 
L 334.058286 237.462924 
L 337.107329 229.978376 
L 340.172169 229.615114 
L 343.100868 218.955065 
L 346.0043 211.760389 
L 348.896284 221.48063 
L 351.827996 218.442231 
L 354.896957 229.346126 
L 357.920781 224.741842 
L 360.850305 233.64176 
L 363.966638 220.601271 
L 367.13048 228.77246 
L 370.08291 219.131901 
L 373.021094 208.58364 
" clip-path="url(#p2d9d4540c1)" style="fill: none; stroke-dasharray: 0.5,0.825; stroke-dashoffset: 0; stroke: #000000; stroke-width: 0.5"/>
   </g>
   <g id="line2d_11">
    <path d="M 69.409234 59.392166 
L 72.344931 95.149728 
L 75.279022 123.367221 
L 78.269567 139.690354 
L 81.236858 143.765827 
L 84.62644 152.963138 
L 87.826305 144.295784 
L 90.740393 167.085393 
L 93.891176 171.818474 
L 97.133671 169.678001 
L 100.108252 165.715922 
L 103.167796 172.900521 
L 106.343943 200.53455 
L 109.185975 179.101441 
L 112.326121 181.038834 
L 115.303493 182.083698 
L 118.486894 176.464375 
L 121.456846 186.981084 
L 124.502382 190.834761 
L 127.588839 195.399418 
L 130.830348 179.731766 
L 133.962903 178.646694 
L 137.119466 175.302225 
L 139.972103 211.503324 
L 142.969059 192.23404 
L 146.111114 195.845437 
L 149.761741 187.235237 
L 152.607692 196.774811 
L 155.619898 191.478295 
L 158.773617 192.189936 
L 161.75085 197.81522 
L 164.791178 207.795397 
L 167.974611 196.810144 
L 170.952428 205.434641 
L 174.114696 190.390835 
L 177.069571 203.842523 
L 180.149318 204.404979 
L 183.497415 191.78815 
L 186.464517 195.393814 
L 189.682706 207.787707 
L 192.767515 206.00158 
L 195.842513 212.246963 
L 198.919712 199.970946 
L 201.943218 214.819315 
L 205.023045 206.909808 
L 207.969663 203.038183 
L 210.972412 221.587543 
L 214.086245 214.684798 
L 217.352364 205.961574 
L 220.312451 197.343689 
L 223.232373 218.064828 
L 226.329685 210.146601 
L 229.30186 194.9316 
L 232.345187 211.276481 
L 235.600926 206.809871 
L 238.649244 198.538994 
L 241.723459 197.20921 
L 244.646283 215.703736 
L 247.639261 217.553168 
L 250.64622 205.780949 
L 253.699128 204.16137 
L 256.612301 210.600856 
L 259.57402 210.819506 
L 262.755752 213.028754 
L 265.774381 212.6055 
L 268.706697 221.157009 
L 271.580117 214.290343 
L 274.424687 214.250754 
L 277.333664 217.123471 
L 280.390426 197.921072 
L 283.426197 206.762892 
L 286.815619 210.713945 
L 289.726106 214.522776 
L 292.889781 214.172898 
L 295.797242 203.783713 
L 299.25669 216.952148 
L 302.631592 228.808038 
L 305.638533 217.56122 
L 308.858913 212.055054 
L 312.358672 206.699334 
L 315.633385 210.906276 
L 318.53447 221.976126 
L 321.828225 217.267434 
L 325.044906 214.144138 
L 327.983418 204.367656 
L 330.932665 216.308201 
L 333.832695 232.741761 
L 336.706895 217.435231 
L 339.834885 210.482527 
L 342.998023 209.915794 
L 346.024641 215.961477 
L 349.152658 226.212684 
L 352.144119 228.723872 
L 355.040042 213.389827 
L 358.48974 221.070654 
L 361.490126 226.985034 
L 364.429832 221.906758 
L 367.520308 206.488361 
L 370.610572 222.404932 
L 373.581818 208.380925 
" clip-path="url(#p2d9d4540c1)" style="fill: none; stroke-dasharray: 3.2,0.8,0.5,0.8; stroke-dashoffset: 0; stroke: #000000; stroke-width: 0.5"/>
   </g>
   <g id="line2d_12">
    <path d="M 69.41991 48.821926 
L 72.491077 86.013133 
L 75.473842 99.033013 
L 78.357292 83.721702 
L 81.351391 142.004816 
L 84.325337 124.843274 
L 87.465945 132.820175 
L 90.420664 123.361533 
L 93.477044 141.269473 
L 96.560627 147.100818 
L 99.477459 160.814843 
L 102.335393 156.090036 
L 105.598813 165.352418 
L 108.857194 160.192055 
L 111.76028 162.651314 
L 114.93944 154.163783 
L 117.844082 169.753889 
L 121.364001 170.024299 
L 124.980064 145.301561 
L 127.958418 178.59954 
L 131.184905 162.568617 
L 134.735043 172.581031 
L 137.846095 172.429688 
L 140.845068 188.801222 
L 144.032147 171.123576 
L 147.152751 188.106272 
L 150.09143 175.400836 
L 153.185065 179.952366 
L 156.459548 177.582381 
L 159.637008 177.512784 
L 162.900707 176.587761 
L 165.933387 186.030875 
L 168.893549 191.706381 
L 172.189549 186.411274 
L 175.266856 181.098224 
L 178.188334 190.987207 
L 181.746195 179.289194 
L 184.919944 195.374442 
L 187.853204 184.320203 
L 191.06563 192.155872 
L 194.212133 198.037103 
L 197.013438 202.581276 
L 200.344936 206.36155 
L 203.353922 186.812468 
L 206.93311 202.318857 
L 210.023083 198.339598 
L 213.182705 198.95546 
L 216.249759 214.188209 
L 219.112236 215.29549 
L 222.092425 206.64822 
L 225.053271 198.192113 
L 228.00863 202.63515 
L 231.107466 207.477425 
L 234.147783 203.497713 
L 237.096679 188.219744 
L 240.129224 212.204525 
L 243.139207 206.501433 
L 246.253546 203.051689 
L 249.328946 201.193998 
L 252.251097 210.405264 
L 255.339568 206.479488 
L 258.472215 213.141704 
L 261.422755 202.521616 
L 264.502214 192.78805 
L 267.614228 207.976128 
L 270.443291 209.331775 
L 273.715602 217.099009 
L 276.702548 212.331273 
L 279.787258 204.432668 
L 282.917769 216.099221 
L 286.07749 219.418173 
L 289.100738 218.497332 
L 292.028134 211.119907 
L 294.879615 211.490177 
L 297.722961 211.958526 
L 300.631688 220.6724 
L 303.664339 207.931973 
L 306.574364 220.937168 
L 309.729562 210.495795 
L 312.781413 215.454102 
L 315.670295 208.516628 
L 318.665212 218.896132 
L 321.793461 221.615437 
L 324.704093 221.048249 
L 327.665932 211.733167 
L 330.861469 217.300233 
L 333.70538 213.961004 
L 336.575263 221.965649 
L 339.541632 214.162324 
L 342.496086 220.630698 
L 345.463175 219.973492 
L 348.39227 222.347803 
L 351.377284 213.02166 
L 354.254486 211.408225 
L 357.185096 224.752768 
L 360.073558 214.363121 
L 363.074084 211.928498 
L 366.102229 221.202524 
L 369.162383 211.289676 
L 372.222138 195.424467 
" clip-path="url(#p2d9d4540c1)" style="fill: none; stroke: #000000; stroke-width: 0.5; stroke-linecap: square"/>
    <defs>
     <path id="m1b22cc9c61" d="M 0 0.25 
C 0.066301 0.25 0.129895 0.223658 0.176777 0.176777 
C 0.223658 0.129895 0.25 0.066301 0.25 0 
C 0.25 -0.066301 0.223658 -0.129895 0.176777 -0.176777 
C 0.129895 -0.223658 0.066301 -0.25 0 -0.25 
C -0.066301 -0.25 -0.129895 -0.223658 -0.176777 -0.176777 
C -0.223658 -0.129895 -0.25 -0.066301 -0.25 0 
C -0.25 0.066301 -0.223658 0.129895 -0.176777 0.176777 
C -0.129895 0.223658 -0.066301 0.25 0 0.25 
z
" style="stroke: #000000"/>
    </defs>
    <g clip-path="url(#p2d9d4540c1)">
     <use xlink:href="#m1b22cc9c61" x="69.41991" y="48.821926" style="stroke: #000000"/>
     <use xlink:href="#m1b22cc9c61" x="72.491077" y="86.013133" style="stroke: #000000"/>
     <use xlink:href="#m1b22cc9c61" x="75.473842" y="99.033013" style="stroke: #000000"/>
     <use xlink:href="#m1b22cc9c61" x="78.357292" y="83.721702" style="stroke: #000000"/>
     <use xlink:href="#m1b22cc9c61" x="81.351391" y="142.004816" style="stroke: #000000"/>
     <use xlink:href="#m1b22cc9c61" x="84.325337" y="124.843274" style="stroke: #000000"/>
     <use xlink:href="#m1b22cc9c61" x="87.465945" y="132.820175" style="stroke: #000000"/>
     <use xlink:href="#m1b22cc9c61" x="90.420664" y="123.361533" style="stroke: #000000"/>
     <use xlink:href="#m1b22cc9c61" x="93.477044" y="141.269473" style="stroke: #000000"/>
     <use xlink:href="#m1b22cc9c61" x="96.560627" y="147.100818" style="stroke: #000000"/>
     <use xlink:href="#m1b22cc9c61" x="99.477459" y="160.814843" style="stroke: #000000"/>
     <use xlink:href="#m1b22cc9c61" x="102.335393" y="156.090036" style="stroke: #000000"/>
     <use xlink:href="#m1b22cc9c61" x="105.598813" y="165.352418" style="stroke: #000000"/>
     <use xlink:href="#m1b22cc9c61" x="108.857194" y="160.192055" style="stroke: #000000"/>
     <use xlink:href="#m1b22cc9c61" x="111.76028" y="162.651314" style="stroke: #000000"/>
     <use xlink:href="#m1b22cc9c61" x="114.93944" y="154.163783" style="stroke: #000000"/>
     <use xlink:href="#m1b22cc9c61" x="117.844082" y="169.753889" style="stroke: #000000"/>
     <use xlink:href="#m1b22cc9c61" x="121.364001" y="170.024299" style="stroke: #000000"/>
     <use xlink:href="#m1b22cc9c61" x="124.980064" y="145.301561" style="stroke: #000000"/>
     <use xlink:href="#m1b22cc9c61" x="127.958418" y="178.59954" style="stroke: #000000"/>
     <use xlink:href="#m1b22cc9c61" x="131.184905" y="162.568617" style="stroke: #000000"/>
     <use xlink:href="#m1b22cc9c61" x="134.735043" y="172.581031" style="stroke: #000000"/>
     <use xlink:href="#m1b22cc9c61" x="137.846095" y="172.429688" style="stroke: #000000"/>
     <use xlink:href="#m1b22cc9c61" x="140.845068" y="188.801222" style="stroke: #000000"/>
     <use xlink:href="#m1b22cc9c61" x="144.032147" y="171.123576" style="stroke: #000000"/>
     <use xlink:href="#m1b22cc9c61" x="147.152751" y="188.106272" style="stroke: #000000"/>
     <use xlink:href="#m1b22cc9c61" x="150.09143" y="175.400836" style="stroke: #000000"/>
     <use xlink:href="#m1b22cc9c61" x="153.185065" y="179.952366" style="stroke: #000000"/>
     <use xlink:href="#m1b22cc9c61" x="156.459548" y="177.582381" style="stroke: #000000"/>
     <use xlink:href="#m1b22cc9c61" x="159.637008" y="177.512784" style="stroke: #000000"/>
     <use xlink:href="#m1b22cc9c61" x="162.900707" y="176.587761" style="stroke: #000000"/>
     <use xlink:href="#m1b22cc9c61" x="165.933387" y="186.030875" style="stroke: #000000"/>
     <use xlink:href="#m1b22cc9c61" x="168.893549" y="191.706381" style="stroke: #000000"/>
     <use xlink:href="#m1b22cc9c61" x="172.189549" y="186.411274" style="stroke: #000000"/>
     <use xlink:href="#m1b22cc9c61" x="175.266856" y="181.098224" style="stroke: #000000"/>
     <use xlink:href="#m1b22cc9c61" x="178.188334" y="190.987207" style="stroke: #000000"/>
     <use xlink:href="#m1b22cc9c61" x="181.746195" y="179.289194" style="stroke: #000000"/>
     <use xlink:href="#m1b22cc9c61" x="184.919944" y="195.374442" style="stroke: #000000"/>
     <use xlink:href="#m1b22cc9c61" x="187.853204" y="184.320203" style="stroke: #000000"/>
     <use xlink:href="#m1b22cc9c61" x="191.06563" y="192.155872" style="stroke: #000000"/>
     <use xlink:href="#m1b22cc9c61" x="194.212133" y="198.037103" style="stroke: #000000"/>
     <use xlink:href="#m1b22cc9c61" x="197.013438" y="202.581276" style="stroke: #000000"/>
     <use xlink:href="#m1b22cc9c61" x="200.344936" y="206.36155" style="stroke: #000000"/>
     <use xlink:href="#m1b22cc9c61" x="203.353922" y="186.812468" style="stroke: #000000"/>
     <use xlink:href="#m1b22cc9c61" x="206.93311" y="202.318857" style="stroke: #000000"/>
     <use xlink:href="#m1b22cc9c61" x="210.023083" y="198.339598" style="stroke: #000000"/>
     <use xlink:href="#m1b22cc9c61" x="213.182705" y="198.95546" style="stroke: #000000"/>
     <use xlink:href="#m1b22cc9c61" x="216.249759" y="214.188209" style="stroke: #000000"/>
     <use xlink:href="#m1b22cc9c61" x="219.112236" y="215.29549" style="stroke: #000000"/>
     <use xlink:href="#m1b22cc9c61" x="222.092425" y="206.64822" style="stroke: #000000"/>
     <use xlink:href="#m1b22cc9c61" x="225.053271" y="198.192113" style="stroke: #000000"/>
     <use xlink:href="#m1b22cc9c61" x="228.00863" y="202.63515" style="stroke: #000000"/>
     <use xlink:href="#m1b22cc9c61" x="231.107466" y="207.477425" style="stroke: #000000"/>
     <use xlink:href="#m1b22cc9c61" x="234.147783" y="203.497713" style="stroke: #000000"/>
     <use xlink:href="#m1b22cc9c61" x="237.096679" y="188.219744" style="stroke: #000000"/>
     <use xlink:href="#m1b22cc9c61" x="240.129224" y="212.204525" style="stroke: #000000"/>
     <use xlink:href="#m1b22cc9c61" x="243.139207" y="206.501433" style="stroke: #000000"/>
     <use xlink:href="#m1b22cc9c61" x="246.253546" y="203.051689" style="stroke: #000000"/>
     <use xlink:href="#m1b22cc9c61" x="249.328946" y="201.193998" style="stroke: #000000"/>
     <use xlink:href="#m1b22cc9c61" x="252.251097" y="210.405264" style="stroke: #000000"/>
     <use xlink:href="#m1b22cc9c61" x="255.339568" y="206.479488" style="stroke: #000000"/>
     <use xlink:href="#m1b22cc9c61" x="258.472215" y="213.141704" style="stroke: #000000"/>
     <use xlink:href="#m1b22cc9c61" x="261.422755" y="202.521616" style="stroke: #000000"/>
     <use xlink:href="#m1b22cc9c61" x="264.502214" y="192.78805" style="stroke: #000000"/>
     <use xlink:href="#m1b22cc9c61" x="267.614228" y="207.976128" style="stroke: #000000"/>
     <use xlink:href="#m1b22cc9c61" x="270.443291" y="209.331775" style="stroke: #000000"/>
     <use xlink:href="#m1b22cc9c61" x="273.715602" y="217.099009" style="stroke: #000000"/>
     <use xlink:href="#m1b22cc9c61" x="276.702548" y="212.331273" style="stroke: #000000"/>
     <use xlink:href="#m1b22cc9c61" x="279.787258" y="204.432668" style="stroke: #000000"/>
     <use xlink:href="#m1b22cc9c61" x="282.917769" y="216.099221" style="stroke: #000000"/>
     <use xlink:href="#m1b22cc9c61" x="286.07749" y="219.418173" style="stroke: #000000"/>
     <use xlink:href="#m1b22cc9c61" x="289.100738" y="218.497332" style="stroke: #000000"/>
     <use xlink:href="#m1b22cc9c61" x="292.028134" y="211.119907" style="stroke: #000000"/>
     <use xlink:href="#m1b22cc9c61" x="294.879615" y="211.490177" style="stroke: #000000"/>
     <use xlink:href="#m1b22cc9c61" x="297.722961" y="211.958526" style="stroke: #000000"/>
     <use xlink:href="#m1b22cc9c61" x="300.631688" y="220.6724" style="stroke: #000000"/>
     <use xlink:href="#m1b22cc9c61" x="303.664339" y="207.931973" style="stroke: #000000"/>
     <use xlink:href="#m1b22cc9c61" x="306.574364" y="220.937168" style="stroke: #000000"/>
     <use xlink:href="#m1b22cc9c61" x="309.729562" y="210.495795" style="stroke: #000000"/>
     <use xlink:href="#m1b22cc9c61" x="312.781413" y="215.454102" style="stroke: #000000"/>
     <use xlink:href="#m1b22cc9c61" x="315.670295" y="208.516628" style="stroke: #000000"/>
     <use xlink:href="#m1b22cc9c61" x="318.665212" y="218.896132" style="stroke: #000000"/>
     <use xlink:href="#m1b22cc9c61" x="321.793461" y="221.615437" style="stroke: #000000"/>
     <use xlink:href="#m1b22cc9c61" x="324.704093" y="221.048249" style="stroke: #000000"/>
     <use xlink:href="#m1b22cc9c61" x="327.665932" y="211.733167" style="stroke: #000000"/>
     <use xlink:href="#m1b22cc9c61" x="330.861469" y="217.300233" style="stroke: #000000"/>
     <use xlink:href="#m1b22cc9c61" x="333.70538" y="213.961004" style="stroke: #000000"/>
     <use xlink:href="#m1b22cc9c61" x="336.575263" y="221.965649" style="stroke: #000000"/>
     <use xlink:href="#m1b22cc9c61" x="339.541632" y="214.162324" style="stroke: #000000"/>
     <use xlink:href="#m1b22cc9c61" x="342.496086" y="220.630698" style="stroke: #000000"/>
     <use xlink:href="#m1b22cc9c61" x="345.463175" y="219.973492" style="stroke: #000000"/>
     <use xlink:href="#m1b22cc9c61" x="348.39227" y="222.347803" style="stroke: #000000"/>
     <use xlink:href="#m1b22cc9c61" x="351.377284" y="213.02166" style="stroke: #000000"/>
     <use xlink:href="#m1b22cc9c61" x="354.254486" y="211.408225" style="stroke: #000000"/>
     <use xlink:href="#m1b22cc9c61" x="357.185096" y="224.752768" style="stroke: #000000"/>
     <use xlink:href="#m1b22cc9c61" x="360.073558" y="214.363121" style="stroke: #000000"/>
     <use xlink:href="#m1b22cc9c61" x="363.074084" y="211.928498" style="stroke: #000000"/>
     <use xlink:href="#m1b22cc9c61" x="366.102229" y="221.202524" style="stroke: #000000"/>
     <use xlink:href="#m1b22cc9c61" x="369.162383" y="211.289676" style="stroke: #000000"/>
     <use xlink:href="#m1b22cc9c61" x="372.222138" y="195.424467" style="stroke: #000000"/>
    </g>
   </g>
   <g id="line2d_13">
    <path d="M 69.439547 69.206332 
L 72.423101 90.222304 
L 75.566006 116.75247 
L 78.453617 148.684491 
L 81.412687 127.110455 
L 84.292851 153.786318 
L 87.464854 144.480083 
L 90.565611 163.192553 
L 93.67476 147.095124 
L 96.670867 164.870794 
L 99.624681 170.791809 
L 102.704965 182.207629 
L 105.714749 182.105108 
L 108.82899 181.207175 
L 112.070817 181.430643 
L 114.992875 188.974377 
L 117.911898 191.615627 
L 120.780024 176.601952 
L 123.712826 171.784044 
L 126.616017 175.364852 
L 129.628532 191.830053 
L 132.475266 200.272209 
L 135.361494 188.57563 
L 138.315143 194.603719 
L 141.308706 183.861284 
L 144.295351 199.423672 
L 147.24849 186.912376 
L 150.316487 199.35508 
L 153.095964 190.651724 
L 156.1626 179.610612 
L 159.493359 186.23435 
L 162.543359 188.812584 
L 165.794747 192.408545 
L 168.834186 197.355259 
L 171.803738 195.017167 
L 174.880212 204.160103 
L 177.859078 197.640481 
L 180.786612 202.010656 
L 183.770993 203.044198 
L 186.815586 206.210993 
L 190.205571 191.316808 
L 193.21485 199.008822 
L 196.242819 204.613326 
L 199.182442 199.682633 
L 202.565449 189.352491 
L 206.047358 214.814445 
L 209.853346 211.014787 
L 213.615889 203.309946 
L 216.748799 199.151831 
L 219.887428 205.161391 
L 223.263978 209.762119 
L 226.155618 202.987054 
L 229.245938 212.347385 
L 232.472629 205.986989 
L 235.969054 208.883516 
L 238.929991 203.391146 
L 242.016474 204.630734 
L 245.240654 208.909999 
L 248.216466 209.33014 
L 251.186767 210.972616 
L 254.192354 220.67341 
L 257.08991 214.187427 
L 260.049708 219.49369 
L 262.965405 216.996161 
L 265.892184 208.628537 
L 268.81817 227.641628 
L 271.838036 207.260697 
L 274.802347 230.705189 
L 277.668549 212.251163 
L 280.867921 209.323174 
L 283.934477 233.59625 
L 286.885671 229.027688 
L 290.070588 220.28601 
L 292.958344 217.157211 
L 296.216803 224.619939 
L 299.150774 221.269794 
L 302.253652 223.774466 
L 305.1908 204.625067 
L 308.414695 222.659993 
L 311.32948 212.424724 
L 314.400132 218.916318 
L 317.543331 209.713186 
L 320.414664 223.128012 
L 323.363817 228.135978 
L 326.338746 211.351054 
L 329.44132 219.342203 
L 332.669686 222.742332 
L 335.571666 233.772942 
L 338.518819 228.619301 
L 341.776697 218.554997 
L 344.771693 227.64555 
L 347.813092 227.863847 
L 350.788533 225.449824 
L 353.690662 222.922573 
L 356.869009 230.164425 
L 359.930168 228.913934 
L 362.899364 228.767384 
L 365.717207 214.998081 
L 368.721705 225.61533 
L 371.716683 217.040814 
" clip-path="url(#p2d9d4540c1)" style="fill: none; stroke-dasharray: 1.85,0.8; stroke-dashoffset: 0; stroke: #000000; stroke-width: 0.5"/>
    <g clip-path="url(#p2d9d4540c1)">
     <use xlink:href="#m1b22cc9c61" x="69.439547" y="69.206332" style="stroke: #000000"/>
     <use xlink:href="#m1b22cc9c61" x="72.423101" y="90.222304" style="stroke: #000000"/>
     <use xlink:href="#m1b22cc9c61" x="75.566006" y="116.75247" style="stroke: #000000"/>
     <use xlink:href="#m1b22cc9c61" x="78.453617" y="148.684491" style="stroke: #000000"/>
     <use xlink:href="#m1b22cc9c61" x="81.412687" y="127.110455" style="stroke: #000000"/>
     <use xlink:href="#m1b22cc9c61" x="84.292851" y="153.786318" style="stroke: #000000"/>
     <use xlink:href="#m1b22cc9c61" x="87.464854" y="144.480083" style="stroke: #000000"/>
     <use xlink:href="#m1b22cc9c61" x="90.565611" y="163.192553" style="stroke: #000000"/>
     <use xlink:href="#m1b22cc9c61" x="93.67476" y="147.095124" style="stroke: #000000"/>
     <use xlink:href="#m1b22cc9c61" x="96.670867" y="164.870794" style="stroke: #000000"/>
     <use xlink:href="#m1b22cc9c61" x="99.624681" y="170.791809" style="stroke: #000000"/>
     <use xlink:href="#m1b22cc9c61" x="102.704965" y="182.207629" style="stroke: #000000"/>
     <use xlink:href="#m1b22cc9c61" x="105.714749" y="182.105108" style="stroke: #000000"/>
     <use xlink:href="#m1b22cc9c61" x="108.82899" y="181.207175" style="stroke: #000000"/>
     <use xlink:href="#m1b22cc9c61" x="112.070817" y="181.430643" style="stroke: #000000"/>
     <use xlink:href="#m1b22cc9c61" x="114.992875" y="188.974377" style="stroke: #000000"/>
     <use xlink:href="#m1b22cc9c61" x="117.911898" y="191.615627" style="stroke: #000000"/>
     <use xlink:href="#m1b22cc9c61" x="120.780024" y="176.601952" style="stroke: #000000"/>
     <use xlink:href="#m1b22cc9c61" x="123.712826" y="171.784044" style="stroke: #000000"/>
     <use xlink:href="#m1b22cc9c61" x="126.616017" y="175.364852" style="stroke: #000000"/>
     <use xlink:href="#m1b22cc9c61" x="129.628532" y="191.830053" style="stroke: #000000"/>
     <use xlink:href="#m1b22cc9c61" x="132.475266" y="200.272209" style="stroke: #000000"/>
     <use xlink:href="#m1b22cc9c61" x="135.361494" y="188.57563" style="stroke: #000000"/>
     <use xlink:href="#m1b22cc9c61" x="138.315143" y="194.603719" style="stroke: #000000"/>
     <use xlink:href="#m1b22cc9c61" x="141.308706" y="183.861284" style="stroke: #000000"/>
     <use xlink:href="#m1b22cc9c61" x="144.295351" y="199.423672" style="stroke: #000000"/>
     <use xlink:href="#m1b22cc9c61" x="147.24849" y="186.912376" style="stroke: #000000"/>
     <use xlink:href="#m1b22cc9c61" x="150.316487" y="199.35508" style="stroke: #000000"/>
     <use xlink:href="#m1b22cc9c61" x="153.095964" y="190.651724" style="stroke: #000000"/>
     <use xlink:href="#m1b22cc9c61" x="156.1626" y="179.610612" style="stroke: #000000"/>
     <use xlink:href="#m1b22cc9c61" x="159.493359" y="186.23435" style="stroke: #000000"/>
     <use xlink:href="#m1b22cc9c61" x="162.543359" y="188.812584" style="stroke: #000000"/>
     <use xlink:href="#m1b22cc9c61" x="165.794747" y="192.408545" style="stroke: #000000"/>
     <use xlink:href="#m1b22cc9c61" x="168.834186" y="197.355259" style="stroke: #000000"/>
     <use xlink:href="#m1b22cc9c61" x="171.803738" y="195.017167" style="stroke: #000000"/>
     <use xlink:href="#m1b22cc9c61" x="174.880212" y="204.160103" style="stroke: #000000"/>
     <use xlink:href="#m1b22cc9c61" x="177.859078" y="197.640481" style="stroke: #000000"/>
     <use xlink:href="#m1b22cc9c61" x="180.786612" y="202.010656" style="stroke: #000000"/>
     <use xlink:href="#m1b22cc9c61" x="183.770993" y="203.044198" style="stroke: #000000"/>
     <use xlink:href="#m1b22cc9c61" x="186.815586" y="206.210993" style="stroke: #000000"/>
     <use xlink:href="#m1b22cc9c61" x="190.205571" y="191.316808" style="stroke: #000000"/>
     <use xlink:href="#m1b22cc9c61" x="193.21485" y="199.008822" style="stroke: #000000"/>
     <use xlink:href="#m1b22cc9c61" x="196.242819" y="204.613326" style="stroke: #000000"/>
     <use xlink:href="#m1b22cc9c61" x="199.182442" y="199.682633" style="stroke: #000000"/>
     <use xlink:href="#m1b22cc9c61" x="202.565449" y="189.352491" style="stroke: #000000"/>
     <use xlink:href="#m1b22cc9c61" x="206.047358" y="214.814445" style="stroke: #000000"/>
     <use xlink:href="#m1b22cc9c61" x="209.853346" y="211.014787" style="stroke: #000000"/>
     <use xlink:href="#m1b22cc9c61" x="213.615889" y="203.309946" style="stroke: #000000"/>
     <use xlink:href="#m1b22cc9c61" x="216.748799" y="199.151831" style="stroke: #000000"/>
     <use xlink:href="#m1b22cc9c61" x="219.887428" y="205.161391" style="stroke: #000000"/>
     <use xlink:href="#m1b22cc9c61" x="223.263978" y="209.762119" style="stroke: #000000"/>
     <use xlink:href="#m1b22cc9c61" x="226.155618" y="202.987054" style="stroke: #000000"/>
     <use xlink:href="#m1b22cc9c61" x="229.245938" y="212.347385" style="stroke: #000000"/>
     <use xlink:href="#m1b22cc9c61" x="232.472629" y="205.986989" style="stroke: #000000"/>
     <use xlink:href="#m1b22cc9c61" x="235.969054" y="208.883516" style="stroke: #000000"/>
     <use xlink:href="#m1b22cc9c61" x="238.929991" y="203.391146" style="stroke: #000000"/>
     <use xlink:href="#m1b22cc9c61" x="242.016474" y="204.630734" style="stroke: #000000"/>
     <use xlink:href="#m1b22cc9c61" x="245.240654" y="208.909999" style="stroke: #000000"/>
     <use xlink:href="#m1b22cc9c61" x="248.216466" y="209.33014" style="stroke: #000000"/>
     <use xlink:href="#m1b22cc9c61" x="251.186767" y="210.972616" style="stroke: #000000"/>
     <use xlink:href="#m1b22cc9c61" x="254.192354" y="220.67341" style="stroke: #000000"/>
     <use xlink:href="#m1b22cc9c61" x="257.08991" y="214.187427" style="stroke: #000000"/>
     <use xlink:href="#m1b22cc9c61" x="260.049708" y="219.49369" style="stroke: #000000"/>
     <use xlink:href="#m1b22cc9c61" x="262.965405" y="216.996161" style="stroke: #000000"/>
     <use xlink:href="#m1b22cc9c61" x="265.892184" y="208.628537" style="stroke: #000000"/>
     <use xlink:href="#m1b22cc9c61" x="268.81817" y="227.641628" style="stroke: #000000"/>
     <use xlink:href="#m1b22cc9c61" x="271.838036" y="207.260697" style="stroke: #000000"/>
     <use xlink:href="#m1b22cc9c61" x="274.802347" y="230.705189" style="stroke: #000000"/>
     <use xlink:href="#m1b22cc9c61" x="277.668549" y="212.251163" style="stroke: #000000"/>
     <use xlink:href="#m1b22cc9c61" x="280.867921" y="209.323174" style="stroke: #000000"/>
     <use xlink:href="#m1b22cc9c61" x="283.934477" y="233.59625" style="stroke: #000000"/>
     <use xlink:href="#m1b22cc9c61" x="286.885671" y="229.027688" style="stroke: #000000"/>
     <use xlink:href="#m1b22cc9c61" x="290.070588" y="220.28601" style="stroke: #000000"/>
     <use xlink:href="#m1b22cc9c61" x="292.958344" y="217.157211" style="stroke: #000000"/>
     <use xlink:href="#m1b22cc9c61" x="296.216803" y="224.619939" style="stroke: #000000"/>
     <use xlink:href="#m1b22cc9c61" x="299.150774" y="221.269794" style="stroke: #000000"/>
     <use xlink:href="#m1b22cc9c61" x="302.253652" y="223.774466" style="stroke: #000000"/>
     <use xlink:href="#m1b22cc9c61" x="305.1908" y="204.625067" style="stroke: #000000"/>
     <use xlink:href="#m1b22cc9c61" x="308.414695" y="222.659993" style="stroke: #000000"/>
     <use xlink:href="#m1b22cc9c61" x="311.32948" y="212.424724" style="stroke: #000000"/>
     <use xlink:href="#m1b22cc9c61" x="314.400132" y="218.916318" style="stroke: #000000"/>
     <use xlink:href="#m1b22cc9c61" x="317.543331" y="209.713186" style="stroke: #000000"/>
     <use xlink:href="#m1b22cc9c61" x="320.414664" y="223.128012" style="stroke: #000000"/>
     <use xlink:href="#m1b22cc9c61" x="323.363817" y="228.135978" style="stroke: #000000"/>
     <use xlink:href="#m1b22cc9c61" x="326.338746" y="211.351054" style="stroke: #000000"/>
     <use xlink:href="#m1b22cc9c61" x="329.44132" y="219.342203" style="stroke: #000000"/>
     <use xlink:href="#m1b22cc9c61" x="332.669686" y="222.742332" style="stroke: #000000"/>
     <use xlink:href="#m1b22cc9c61" x="335.571666" y="233.772942" style="stroke: #000000"/>
     <use xlink:href="#m1b22cc9c61" x="338.518819" y="228.619301" style="stroke: #000000"/>
     <use xlink:href="#m1b22cc9c61" x="341.776697" y="218.554997" style="stroke: #000000"/>
     <use xlink:href="#m1b22cc9c61" x="344.771693" y="227.64555" style="stroke: #000000"/>
     <use xlink:href="#m1b22cc9c61" x="347.813092" y="227.863847" style="stroke: #000000"/>
     <use xlink:href="#m1b22cc9c61" x="350.788533" y="225.449824" style="stroke: #000000"/>
     <use xlink:href="#m1b22cc9c61" x="353.690662" y="222.922573" style="stroke: #000000"/>
     <use xlink:href="#m1b22cc9c61" x="356.869009" y="230.164425" style="stroke: #000000"/>
     <use xlink:href="#m1b22cc9c61" x="359.930168" y="228.913934" style="stroke: #000000"/>
     <use xlink:href="#m1b22cc9c61" x="362.899364" y="228.767384" style="stroke: #000000"/>
     <use xlink:href="#m1b22cc9c61" x="365.717207" y="214.998081" style="stroke: #000000"/>
     <use xlink:href="#m1b22cc9c61" x="368.721705" y="225.61533" style="stroke: #000000"/>
     <use xlink:href="#m1b22cc9c61" x="371.716683" y="217.040814" style="stroke: #000000"/>
    </g>
   </g>
   <g id="line2d_14">
    <path d="M 69.218182 55.592258 
L 72.403389 98.326647 
L 75.802991 110.906156 
L 78.746144 107.029113 
L 81.859723 127.230234 
L 85.097789 144.247619 
L 88.097472 148.41926 
L 91.060492 182.715916 
L 94.544731 144.921309 
L 97.581552 145.208897 
L 100.690219 178.714699 
L 103.726268 171.592386 
L 106.599258 183.025202 
L 109.878174 176.769802 
L 112.832388 190.897855 
L 115.894834 187.899096 
L 118.915275 194.970722 
L 122.270333 201.701357 
L 125.234629 196.797019 
L 128.352857 192.997125 
L 131.378081 196.421831 
L 134.374672 211.886271 
L 137.47972 204.386642 
L 140.356614 207.748513 
L 143.333726 205.269163 
L 146.455658 192.935374 
L 149.452077 201.20663 
L 152.585605 197.942135 
L 155.417561 193.480815 
L 158.466664 190.10457 
L 161.689358 210.777599 
L 165.284891 214.34947 
L 168.38117 203.973966 
L 171.353543 195.916541 
L 174.744449 210.867302 
L 177.636118 216.578629 
L 180.614323 208.626596 
L 183.600969 207.326465 
L 186.560763 211.462905 
L 189.9775 205.326386 
L 193.085901 222.2453 
L 196.123338 204.923925 
L 199.121233 212.200483 
L 202.847697 209.747988 
L 206.153278 222.357814 
L 209.523084 224.418348 
L 212.687944 218.902022 
L 215.721447 215.150891 
L 218.653432 199.966403 
L 221.782816 224.479554 
L 224.832915 214.902185 
L 227.735707 214.352268 
L 230.609213 200.450396 
L 233.793208 212.007293 
L 236.750156 228.077971 
L 240.073368 228.087399 
L 242.938924 225.15841 
L 245.898253 210.681341 
L 248.932305 229.455126 
L 252.151845 198.40235 
L 255.221212 215.812946 
L 258.240693 230.415046 
L 261.581523 219.536905 
L 264.725849 229.642051 
L 267.868755 219.90492 
L 270.728058 201.05171 
L 273.621524 228.503685 
L 276.665568 216.406568 
L 279.65408 229.362875 
L 282.493856 225.270326 
L 285.489282 223.486068 
L 288.399448 219.268235 
L 291.335177 220.30765 
L 294.209998 223.189849 
L 297.210437 214.124309 
L 300.212819 215.09337 
L 303.235656 229.100855 
L 306.557976 218.165912 
L 309.672065 229.376635 
L 312.697139 225.947847 
L 315.699124 240.471819 
L 318.902106 209.213856 
L 322.063487 240.290871 
L 325.845687 234.146367 
L 328.765762 230.843873 
L 331.728198 217.961021 
L 334.546926 225.865399 
L 337.306415 218.144009 
L 339.984003 221.789933 
L 342.762288 213.550095 
L 345.646503 218.977713 
L 348.333553 227.353894 
L 351.008187 211.437832 
L 353.672335 219.128113 
L 356.324758 242.089512 
L 359.051758 219.322286 
L 361.867215 237.580472 
L 364.637428 230.649973 
L 367.272111 217.984111 
L 369.998562 226.593032 
" clip-path="url(#p2d9d4540c1)" style="fill: none; stroke-dasharray: 0.5,0.825; stroke-dashoffset: 0; stroke: #000000; stroke-width: 0.5"/>
    <g clip-path="url(#p2d9d4540c1)">
     <use xlink:href="#m1b22cc9c61" x="69.218182" y="55.592258" style="stroke: #000000"/>
     <use xlink:href="#m1b22cc9c61" x="72.403389" y="98.326647" style="stroke: #000000"/>
     <use xlink:href="#m1b22cc9c61" x="75.802991" y="110.906156" style="stroke: #000000"/>
     <use xlink:href="#m1b22cc9c61" x="78.746144" y="107.029113" style="stroke: #000000"/>
     <use xlink:href="#m1b22cc9c61" x="81.859723" y="127.230234" style="stroke: #000000"/>
     <use xlink:href="#m1b22cc9c61" x="85.097789" y="144.247619" style="stroke: #000000"/>
     <use xlink:href="#m1b22cc9c61" x="88.097472" y="148.41926" style="stroke: #000000"/>
     <use xlink:href="#m1b22cc9c61" x="91.060492" y="182.715916" style="stroke: #000000"/>
     <use xlink:href="#m1b22cc9c61" x="94.544731" y="144.921309" style="stroke: #000000"/>
     <use xlink:href="#m1b22cc9c61" x="97.581552" y="145.208897" style="stroke: #000000"/>
     <use xlink:href="#m1b22cc9c61" x="100.690219" y="178.714699" style="stroke: #000000"/>
     <use xlink:href="#m1b22cc9c61" x="103.726268" y="171.592386" style="stroke: #000000"/>
     <use xlink:href="#m1b22cc9c61" x="106.599258" y="183.025202" style="stroke: #000000"/>
     <use xlink:href="#m1b22cc9c61" x="109.878174" y="176.769802" style="stroke: #000000"/>
     <use xlink:href="#m1b22cc9c61" x="112.832388" y="190.897855" style="stroke: #000000"/>
     <use xlink:href="#m1b22cc9c61" x="115.894834" y="187.899096" style="stroke: #000000"/>
     <use xlink:href="#m1b22cc9c61" x="118.915275" y="194.970722" style="stroke: #000000"/>
     <use xlink:href="#m1b22cc9c61" x="122.270333" y="201.701357" style="stroke: #000000"/>
     <use xlink:href="#m1b22cc9c61" x="125.234629" y="196.797019" style="stroke: #000000"/>
     <use xlink:href="#m1b22cc9c61" x="128.352857" y="192.997125" style="stroke: #000000"/>
     <use xlink:href="#m1b22cc9c61" x="131.378081" y="196.421831" style="stroke: #000000"/>
     <use xlink:href="#m1b22cc9c61" x="134.374672" y="211.886271" style="stroke: #000000"/>
     <use xlink:href="#m1b22cc9c61" x="137.47972" y="204.386642" style="stroke: #000000"/>
     <use xlink:href="#m1b22cc9c61" x="140.356614" y="207.748513" style="stroke: #000000"/>
     <use xlink:href="#m1b22cc9c61" x="143.333726" y="205.269163" style="stroke: #000000"/>
     <use xlink:href="#m1b22cc9c61" x="146.455658" y="192.935374" style="stroke: #000000"/>
     <use xlink:href="#m1b22cc9c61" x="149.452077" y="201.20663" style="stroke: #000000"/>
     <use xlink:href="#m1b22cc9c61" x="152.585605" y="197.942135" style="stroke: #000000"/>
     <use xlink:href="#m1b22cc9c61" x="155.417561" y="193.480815" style="stroke: #000000"/>
     <use xlink:href="#m1b22cc9c61" x="158.466664" y="190.10457" style="stroke: #000000"/>
     <use xlink:href="#m1b22cc9c61" x="161.689358" y="210.777599" style="stroke: #000000"/>
     <use xlink:href="#m1b22cc9c61" x="165.284891" y="214.34947" style="stroke: #000000"/>
     <use xlink:href="#m1b22cc9c61" x="168.38117" y="203.973966" style="stroke: #000000"/>
     <use xlink:href="#m1b22cc9c61" x="171.353543" y="195.916541" style="stroke: #000000"/>
     <use xlink:href="#m1b22cc9c61" x="174.744449" y="210.867302" style="stroke: #000000"/>
     <use xlink:href="#m1b22cc9c61" x="177.636118" y="216.578629" style="stroke: #000000"/>
     <use xlink:href="#m1b22cc9c61" x="180.614323" y="208.626596" style="stroke: #000000"/>
     <use xlink:href="#m1b22cc9c61" x="183.600969" y="207.326465" style="stroke: #000000"/>
     <use xlink:href="#m1b22cc9c61" x="186.560763" y="211.462905" style="stroke: #000000"/>
     <use xlink:href="#m1b22cc9c61" x="189.9775" y="205.326386" style="stroke: #000000"/>
     <use xlink:href="#m1b22cc9c61" x="193.085901" y="222.2453" style="stroke: #000000"/>
     <use xlink:href="#m1b22cc9c61" x="196.123338" y="204.923925" style="stroke: #000000"/>
     <use xlink:href="#m1b22cc9c61" x="199.121233" y="212.200483" style="stroke: #000000"/>
     <use xlink:href="#m1b22cc9c61" x="202.847697" y="209.747988" style="stroke: #000000"/>
     <use xlink:href="#m1b22cc9c61" x="206.153278" y="222.357814" style="stroke: #000000"/>
     <use xlink:href="#m1b22cc9c61" x="209.523084" y="224.418348" style="stroke: #000000"/>
     <use xlink:href="#m1b22cc9c61" x="212.687944" y="218.902022" style="stroke: #000000"/>
     <use xlink:href="#m1b22cc9c61" x="215.721447" y="215.150891" style="stroke: #000000"/>
     <use xlink:href="#m1b22cc9c61" x="218.653432" y="199.966403" style="stroke: #000000"/>
     <use xlink:href="#m1b22cc9c61" x="221.782816" y="224.479554" style="stroke: #000000"/>
     <use xlink:href="#m1b22cc9c61" x="224.832915" y="214.902185" style="stroke: #000000"/>
     <use xlink:href="#m1b22cc9c61" x="227.735707" y="214.352268" style="stroke: #000000"/>
     <use xlink:href="#m1b22cc9c61" x="230.609213" y="200.450396" style="stroke: #000000"/>
     <use xlink:href="#m1b22cc9c61" x="233.793208" y="212.007293" style="stroke: #000000"/>
     <use xlink:href="#m1b22cc9c61" x="236.750156" y="228.077971" style="stroke: #000000"/>
     <use xlink:href="#m1b22cc9c61" x="240.073368" y="228.087399" style="stroke: #000000"/>
     <use xlink:href="#m1b22cc9c61" x="242.938924" y="225.15841" style="stroke: #000000"/>
     <use xlink:href="#m1b22cc9c61" x="245.898253" y="210.681341" style="stroke: #000000"/>
     <use xlink:href="#m1b22cc9c61" x="248.932305" y="229.455126" style="stroke: #000000"/>
     <use xlink:href="#m1b22cc9c61" x="252.151845" y="198.40235" style="stroke: #000000"/>
     <use xlink:href="#m1b22cc9c61" x="255.221212" y="215.812946" style="stroke: #000000"/>
     <use xlink:href="#m1b22cc9c61" x="258.240693" y="230.415046" style="stroke: #000000"/>
     <use xlink:href="#m1b22cc9c61" x="261.581523" y="219.536905" style="stroke: #000000"/>
     <use xlink:href="#m1b22cc9c61" x="264.725849" y="229.642051" style="stroke: #000000"/>
     <use xlink:href="#m1b22cc9c61" x="267.868755" y="219.90492" style="stroke: #000000"/>
     <use xlink:href="#m1b22cc9c61" x="270.728058" y="201.05171" style="stroke: #000000"/>
     <use xlink:href="#m1b22cc9c61" x="273.621524" y="228.503685" style="stroke: #000000"/>
     <use xlink:href="#m1b22cc9c61" x="276.665568" y="216.406568" style="stroke: #000000"/>
     <use xlink:href="#m1b22cc9c61" x="279.65408" y="229.362875" style="stroke: #000000"/>
     <use xlink:href="#m1b22cc9c61" x="282.493856" y="225.270326" style="stroke: #000000"/>
     <use xlink:href="#m1b22cc9c61" x="285.489282" y="223.486068" style="stroke: #000000"/>
     <use xlink:href="#m1b22cc9c61" x="288.399448" y="219.268235" style="stroke: #000000"/>
     <use xlink:href="#m1b22cc9c61" x="291.335177" y="220.30765" style="stroke: #000000"/>
     <use xlink:href="#m1b22cc9c61" x="294.209998" y="223.189849" style="stroke: #000000"/>
     <use xlink:href="#m1b22cc9c61" x="297.210437" y="214.124309" style="stroke: #000000"/>
     <use xlink:href="#m1b22cc9c61" x="300.212819" y="215.09337" style="stroke: #000000"/>
     <use xlink:href="#m1b22cc9c61" x="303.235656" y="229.100855" style="stroke: #000000"/>
     <use xlink:href="#m1b22cc9c61" x="306.557976" y="218.165912" style="stroke: #000000"/>
     <use xlink:href="#m1b22cc9c61" x="309.672065" y="229.376635" style="stroke: #000000"/>
     <use xlink:href="#m1b22cc9c61" x="312.697139" y="225.947847" style="stroke: #000000"/>
     <use xlink:href="#m1b22cc9c61" x="315.699124" y="240.471819" style="stroke: #000000"/>
     <use xlink:href="#m1b22cc9c61" x="318.902106" y="209.213856" style="stroke: #000000"/>
     <use xlink:href="#m1b22cc9c61" x="322.063487" y="240.290871" style="stroke: #000000"/>
     <use xlink:href="#m1b22cc9c61" x="325.845687" y="234.146367" style="stroke: #000000"/>
     <use xlink:href="#m1b22cc9c61" x="328.765762" y="230.843873" style="stroke: #000000"/>
     <use xlink:href="#m1b22cc9c61" x="331.728198" y="217.961021" style="stroke: #000000"/>
     <use xlink:href="#m1b22cc9c61" x="334.546926" y="225.865399" style="stroke: #000000"/>
     <use xlink:href="#m1b22cc9c61" x="337.306415" y="218.144009" style="stroke: #000000"/>
     <use xlink:href="#m1b22cc9c61" x="339.984003" y="221.789933" style="stroke: #000000"/>
     <use xlink:href="#m1b22cc9c61" x="342.762288" y="213.550095" style="stroke: #000000"/>
     <use xlink:href="#m1b22cc9c61" x="345.646503" y="218.977713" style="stroke: #000000"/>
     <use xlink:href="#m1b22cc9c61" x="348.333553" y="227.353894" style="stroke: #000000"/>
     <use xlink:href="#m1b22cc9c61" x="351.008187" y="211.437832" style="stroke: #000000"/>
     <use xlink:href="#m1b22cc9c61" x="353.672335" y="219.128113" style="stroke: #000000"/>
     <use xlink:href="#m1b22cc9c61" x="356.324758" y="242.089512" style="stroke: #000000"/>
     <use xlink:href="#m1b22cc9c61" x="359.051758" y="219.322286" style="stroke: #000000"/>
     <use xlink:href="#m1b22cc9c61" x="361.867215" y="237.580472" style="stroke: #000000"/>
     <use xlink:href="#m1b22cc9c61" x="364.637428" y="230.649973" style="stroke: #000000"/>
     <use xlink:href="#m1b22cc9c61" x="367.272111" y="217.984111" style="stroke: #000000"/>
     <use xlink:href="#m1b22cc9c61" x="369.998562" y="226.593032" style="stroke: #000000"/>
    </g>
   </g>
   <g id="line2d_15">
    <path d="M 69.543193 86.622501 
L 73.541009 100.248742 
L 76.686444 132.232208 
L 79.747661 128.772953 
L 83.136762 134.034321 
L 86.19517 176.053621 
L 89.126772 157.147511 
L 92.356582 149.024935 
L 95.447571 161.065673 
L 98.329441 166.748113 
L 101.532173 154.072294 
L 104.498176 160.105533 
L 107.71716 168.610871 
L 111.025658 170.178824 
L 113.947602 165.170344 
L 116.923756 175.896865 
L 119.787219 175.069855 
L 123.036971 178.295808 
L 126.03398 184.603908 
L 129.216362 156.376239 
L 132.248936 194.297624 
L 135.413249 194.761085 
L 138.302077 184.883356 
L 141.321728 190.026508 
L 144.442414 184.980518 
L 147.649097 190.562528 
L 150.77781 185.363648 
L 153.806375 189.975087 
L 156.676272 193.96394 
L 159.645594 181.562367 
L 162.490376 187.6331 
L 165.538731 182.731453 
L 168.458367 180.780682 
L 171.547189 199.901287 
L 174.935747 187.070731 
L 178.029837 200.78696 
L 181.037452 193.124351 
L 184.142648 198.861662 
L 187.304044 189.53853 
L 190.309247 200.763817 
L 193.776773 190.099549 
L 196.641216 186.099444 
L 199.618204 206.886079 
L 202.553229 207.56523 
L 205.303188 198.166327 
L 208.082901 206.340077 
L 210.80762 199.198636 
L 213.547182 208.056143 
L 216.295276 196.822055 
L 218.997548 206.766231 
L 221.725785 205.28027 
L 224.396355 202.399632 
L 227.107684 201.546544 
L 229.892195 192.940984 
L 232.69632 205.716545 
L 235.340875 208.563049 
L 238.036876 205.344115 
L 240.653396 197.135269 
L 243.137682 196.925349 
L 245.684128 202.020162 
L 248.232285 200.964931 
L 250.802912 210.578205 
L 253.678759 210.135652 
L 256.334468 208.447695 
L 258.835041 190.292234 
L 261.28811 213.142083 
L 263.895845 208.59786 
L 266.368825 215.845996 
L 268.842377 205.788381 
L 271.345209 205.065784 
L 273.86519 216.396433 
L 276.407768 214.183449 
L 278.91882 220.814079 
L 281.401699 209.378218 
L 284.032719 203.26487 
L 286.678741 214.828119 
L 289.266413 216.037009 
L 291.760379 212.915017 
L 294.229753 205.925537 
L 296.728065 208.030583 
L 299.202428 213.610338 
L 301.664267 210.703446 
L 304.162519 197.891531 
L 306.60137 201.661171 
L 309.167103 207.097116 
L 311.716243 209.20746 
L 314.185872 225.054892 
L 316.763976 225.335818 
L 319.290018 216.272899 
L 321.880726 223.53755 
L 324.337719 221.192414 
L 326.787972 220.034139 
L 329.269875 212.702382 
L 331.781187 215.18225 
L 334.327032 207.437547 
L 337.020113 225.570997 
L 339.452778 218.448152 
L 341.988029 216.36537 
L 344.580712 217.275685 
L 347.010935 219.323946 
" clip-path="url(#p2d9d4540c1)" style="fill: none; stroke-dasharray: 3.2,0.8,0.5,0.8; stroke-dashoffset: 0; stroke: #000000; stroke-width: 0.5"/>
    <g clip-path="url(#p2d9d4540c1)">
     <use xlink:href="#m1b22cc9c61" x="69.543193" y="86.622501" style="stroke: #000000"/>
     <use xlink:href="#m1b22cc9c61" x="73.541009" y="100.248742" style="stroke: #000000"/>
     <use xlink:href="#m1b22cc9c61" x="76.686444" y="132.232208" style="stroke: #000000"/>
     <use xlink:href="#m1b22cc9c61" x="79.747661" y="128.772953" style="stroke: #000000"/>
     <use xlink:href="#m1b22cc9c61" x="83.136762" y="134.034321" style="stroke: #000000"/>
     <use xlink:href="#m1b22cc9c61" x="86.19517" y="176.053621" style="stroke: #000000"/>
     <use xlink:href="#m1b22cc9c61" x="89.126772" y="157.147511" style="stroke: #000000"/>
     <use xlink:href="#m1b22cc9c61" x="92.356582" y="149.024935" style="stroke: #000000"/>
     <use xlink:href="#m1b22cc9c61" x="95.447571" y="161.065673" style="stroke: #000000"/>
     <use xlink:href="#m1b22cc9c61" x="98.329441" y="166.748113" style="stroke: #000000"/>
     <use xlink:href="#m1b22cc9c61" x="101.532173" y="154.072294" style="stroke: #000000"/>
     <use xlink:href="#m1b22cc9c61" x="104.498176" y="160.105533" style="stroke: #000000"/>
     <use xlink:href="#m1b22cc9c61" x="107.71716" y="168.610871" style="stroke: #000000"/>
     <use xlink:href="#m1b22cc9c61" x="111.025658" y="170.178824" style="stroke: #000000"/>
     <use xlink:href="#m1b22cc9c61" x="113.947602" y="165.170344" style="stroke: #000000"/>
     <use xlink:href="#m1b22cc9c61" x="116.923756" y="175.896865" style="stroke: #000000"/>
     <use xlink:href="#m1b22cc9c61" x="119.787219" y="175.069855" style="stroke: #000000"/>
     <use xlink:href="#m1b22cc9c61" x="123.036971" y="178.295808" style="stroke: #000000"/>
     <use xlink:href="#m1b22cc9c61" x="126.03398" y="184.603908" style="stroke: #000000"/>
     <use xlink:href="#m1b22cc9c61" x="129.216362" y="156.376239" style="stroke: #000000"/>
     <use xlink:href="#m1b22cc9c61" x="132.248936" y="194.297624" style="stroke: #000000"/>
     <use xlink:href="#m1b22cc9c61" x="135.413249" y="194.761085" style="stroke: #000000"/>
     <use xlink:href="#m1b22cc9c61" x="138.302077" y="184.883356" style="stroke: #000000"/>
     <use xlink:href="#m1b22cc9c61" x="141.321728" y="190.026508" style="stroke: #000000"/>
     <use xlink:href="#m1b22cc9c61" x="144.442414" y="184.980518" style="stroke: #000000"/>
     <use xlink:href="#m1b22cc9c61" x="147.649097" y="190.562528" style="stroke: #000000"/>
     <use xlink:href="#m1b22cc9c61" x="150.77781" y="185.363648" style="stroke: #000000"/>
     <use xlink:href="#m1b22cc9c61" x="153.806375" y="189.975087" style="stroke: #000000"/>
     <use xlink:href="#m1b22cc9c61" x="156.676272" y="193.96394" style="stroke: #000000"/>
     <use xlink:href="#m1b22cc9c61" x="159.645594" y="181.562367" style="stroke: #000000"/>
     <use xlink:href="#m1b22cc9c61" x="162.490376" y="187.6331" style="stroke: #000000"/>
     <use xlink:href="#m1b22cc9c61" x="165.538731" y="182.731453" style="stroke: #000000"/>
     <use xlink:href="#m1b22cc9c61" x="168.458367" y="180.780682" style="stroke: #000000"/>
     <use xlink:href="#m1b22cc9c61" x="171.547189" y="199.901287" style="stroke: #000000"/>
     <use xlink:href="#m1b22cc9c61" x="174.935747" y="187.070731" style="stroke: #000000"/>
     <use xlink:href="#m1b22cc9c61" x="178.029837" y="200.78696" style="stroke: #000000"/>
     <use xlink:href="#m1b22cc9c61" x="181.037452" y="193.124351" style="stroke: #000000"/>
     <use xlink:href="#m1b22cc9c61" x="184.142648" y="198.861662" style="stroke: #000000"/>
     <use xlink:href="#m1b22cc9c61" x="187.304044" y="189.53853" style="stroke: #000000"/>
     <use xlink:href="#m1b22cc9c61" x="190.309247" y="200.763817" style="stroke: #000000"/>
     <use xlink:href="#m1b22cc9c61" x="193.776773" y="190.099549" style="stroke: #000000"/>
     <use xlink:href="#m1b22cc9c61" x="196.641216" y="186.099444" style="stroke: #000000"/>
     <use xlink:href="#m1b22cc9c61" x="199.618204" y="206.886079" style="stroke: #000000"/>
     <use xlink:href="#m1b22cc9c61" x="202.553229" y="207.56523" style="stroke: #000000"/>
     <use xlink:href="#m1b22cc9c61" x="205.303188" y="198.166327" style="stroke: #000000"/>
     <use xlink:href="#m1b22cc9c61" x="208.082901" y="206.340077" style="stroke: #000000"/>
     <use xlink:href="#m1b22cc9c61" x="210.80762" y="199.198636" style="stroke: #000000"/>
     <use xlink:href="#m1b22cc9c61" x="213.547182" y="208.056143" style="stroke: #000000"/>
     <use xlink:href="#m1b22cc9c61" x="216.295276" y="196.822055" style="stroke: #000000"/>
     <use xlink:href="#m1b22cc9c61" x="218.997548" y="206.766231" style="stroke: #000000"/>
     <use xlink:href="#m1b22cc9c61" x="221.725785" y="205.28027" style="stroke: #000000"/>
     <use xlink:href="#m1b22cc9c61" x="224.396355" y="202.399632" style="stroke: #000000"/>
     <use xlink:href="#m1b22cc9c61" x="227.107684" y="201.546544" style="stroke: #000000"/>
     <use xlink:href="#m1b22cc9c61" x="229.892195" y="192.940984" style="stroke: #000000"/>
     <use xlink:href="#m1b22cc9c61" x="232.69632" y="205.716545" style="stroke: #000000"/>
     <use xlink:href="#m1b22cc9c61" x="235.340875" y="208.563049" style="stroke: #000000"/>
     <use xlink:href="#m1b22cc9c61" x="238.036876" y="205.344115" style="stroke: #000000"/>
     <use xlink:href="#m1b22cc9c61" x="240.653396" y="197.135269" style="stroke: #000000"/>
     <use xlink:href="#m1b22cc9c61" x="243.137682" y="196.925349" style="stroke: #000000"/>
     <use xlink:href="#m1b22cc9c61" x="245.684128" y="202.020162" style="stroke: #000000"/>
     <use xlink:href="#m1b22cc9c61" x="248.232285" y="200.964931" style="stroke: #000000"/>
     <use xlink:href="#m1b22cc9c61" x="250.802912" y="210.578205" style="stroke: #000000"/>
     <use xlink:href="#m1b22cc9c61" x="253.678759" y="210.135652" style="stroke: #000000"/>
     <use xlink:href="#m1b22cc9c61" x="256.334468" y="208.447695" style="stroke: #000000"/>
     <use xlink:href="#m1b22cc9c61" x="258.835041" y="190.292234" style="stroke: #000000"/>
     <use xlink:href="#m1b22cc9c61" x="261.28811" y="213.142083" style="stroke: #000000"/>
     <use xlink:href="#m1b22cc9c61" x="263.895845" y="208.59786" style="stroke: #000000"/>
     <use xlink:href="#m1b22cc9c61" x="266.368825" y="215.845996" style="stroke: #000000"/>
     <use xlink:href="#m1b22cc9c61" x="268.842377" y="205.788381" style="stroke: #000000"/>
     <use xlink:href="#m1b22cc9c61" x="271.345209" y="205.065784" style="stroke: #000000"/>
     <use xlink:href="#m1b22cc9c61" x="273.86519" y="216.396433" style="stroke: #000000"/>
     <use xlink:href="#m1b22cc9c61" x="276.407768" y="214.183449" style="stroke: #000000"/>
     <use xlink:href="#m1b22cc9c61" x="278.91882" y="220.814079" style="stroke: #000000"/>
     <use xlink:href="#m1b22cc9c61" x="281.401699" y="209.378218" style="stroke: #000000"/>
     <use xlink:href="#m1b22cc9c61" x="284.032719" y="203.26487" style="stroke: #000000"/>
     <use xlink:href="#m1b22cc9c61" x="286.678741" y="214.828119" style="stroke: #000000"/>
     <use xlink:href="#m1b22cc9c61" x="289.266413" y="216.037009" style="stroke: #000000"/>
     <use xlink:href="#m1b22cc9c61" x="291.760379" y="212.915017" style="stroke: #000000"/>
     <use xlink:href="#m1b22cc9c61" x="294.229753" y="205.925537" style="stroke: #000000"/>
     <use xlink:href="#m1b22cc9c61" x="296.728065" y="208.030583" style="stroke: #000000"/>
     <use xlink:href="#m1b22cc9c61" x="299.202428" y="213.610338" style="stroke: #000000"/>
     <use xlink:href="#m1b22cc9c61" x="301.664267" y="210.703446" style="stroke: #000000"/>
     <use xlink:href="#m1b22cc9c61" x="304.162519" y="197.891531" style="stroke: #000000"/>
     <use xlink:href="#m1b22cc9c61" x="306.60137" y="201.661171" style="stroke: #000000"/>
     <use xlink:href="#m1b22cc9c61" x="309.167103" y="207.097116" style="stroke: #000000"/>
     <use xlink:href="#m1b22cc9c61" x="311.716243" y="209.20746" style="stroke: #000000"/>
     <use xlink:href="#m1b22cc9c61" x="314.185872" y="225.054892" style="stroke: #000000"/>
     <use xlink:href="#m1b22cc9c61" x="316.763976" y="225.335818" style="stroke: #000000"/>
     <use xlink:href="#m1b22cc9c61" x="319.290018" y="216.272899" style="stroke: #000000"/>
     <use xlink:href="#m1b22cc9c61" x="321.880726" y="223.53755" style="stroke: #000000"/>
     <use xlink:href="#m1b22cc9c61" x="324.337719" y="221.192414" style="stroke: #000000"/>
     <use xlink:href="#m1b22cc9c61" x="326.787972" y="220.034139" style="stroke: #000000"/>
     <use xlink:href="#m1b22cc9c61" x="329.269875" y="212.702382" style="stroke: #000000"/>
     <use xlink:href="#m1b22cc9c61" x="331.781187" y="215.18225" style="stroke: #000000"/>
     <use xlink:href="#m1b22cc9c61" x="334.327032" y="207.437547" style="stroke: #000000"/>
     <use xlink:href="#m1b22cc9c61" x="337.020113" y="225.570997" style="stroke: #000000"/>
     <use xlink:href="#m1b22cc9c61" x="339.452778" y="218.448152" style="stroke: #000000"/>
     <use xlink:href="#m1b22cc9c61" x="341.988029" y="216.36537" style="stroke: #000000"/>
     <use xlink:href="#m1b22cc9c61" x="344.580712" y="217.275685" style="stroke: #000000"/>
     <use xlink:href="#m1b22cc9c61" x="347.010935" y="219.323946" style="stroke: #000000"/>
    </g>
   </g>
   <g id="patch_3">
    <path d="M 54 252 
L 54 34.56 
" style="fill: none; stroke: #000000; stroke-width: 0.8; stroke-linejoin: miter; stroke-linecap: square"/>
   </g>
   <g id="patch_4">
    <path d="M 388.8 252 
L 388.8 34.56 
" style="fill: none; stroke: #000000; stroke-width: 0.8; stroke-linejoin: miter; stroke-linecap: square"/>
   </g>
   <g id="patch_5">
    <path d="M 54 252 
L 388.8 252 
" style="fill: none; stroke: #000000; stroke-width: 0.8; stroke-linejoin: miter; stroke-linecap: square"/>
   </g>
   <g id="patch_6">
    <path d="M 54 34.56 
L 388.8 34.56 
" style="fill: none; stroke: #000000; stroke-width: 0.8; stroke-linejoin: miter; stroke-linecap: square"/>
   </g>
   <g id="legend_1">
    <g id="patch_7">
     <path d="M 255.432813 159.985 
L 381.8 159.985 
Q 383.8 159.985 383.8 157.985 
L 383.8 41.56 
Q 383.8 39.56 381.8 39.56 
L 255.432813 39.56 
Q 253.432813 39.56 253.432813 41.56 
L 253.432813 157.985 
Q 253.432813 159.985 255.432813 159.985 
z
" style="fill: #ffffff; opacity: 0.8; stroke: #cccccc; stroke-linejoin: miter"/>
    </g>
    <g id="line2d_16">
     <path d="M 257.432813 47.658437 
L 267.432813 47.658437 
L 277.432813 47.658437 
" style="fill: none; stroke: #000000; stroke-width: 0.5; stroke-linecap: square"/>
    </g>
    <g id="text_10">
     <!-- RM -->
     <g transform="translate(285.432813 51.158437)scale(0.1 -0.1)">
      <defs>
       <path id="DejaVuSans-52" d="M 2841 2188 
Q 3044 2119 3236 1894 
Q 3428 1669 3622 1275 
L 4263 0 
L 3584 0 
L 2988 1197 
Q 2756 1666 2539 1819 
Q 2322 1972 1947 1972 
L 1259 1972 
L 1259 0 
L 628 0 
L 628 4666 
L 2053 4666 
Q 2853 4666 3247 4331 
Q 3641 3997 3641 3322 
Q 3641 2881 3436 2590 
Q 3231 2300 2841 2188 
z
M 1259 4147 
L 1259 2491 
L 2053 2491 
Q 2509 2491 2742 2702 
Q 2975 2913 2975 3322 
Q 2975 3731 2742 3939 
Q 2509 4147 2053 4147 
L 1259 4147 
z
" transform="scale(0.015625)"/>
       <path id="DejaVuSans-4d" d="M 628 4666 
L 1569 4666 
L 2759 1491 
L 3956 4666 
L 4897 4666 
L 4897 0 
L 4281 0 
L 4281 4097 
L 3078 897 
L 2444 897 
L 1241 4097 
L 1241 0 
L 628 0 
L 628 4666 
z
" transform="scale(0.015625)"/>
      </defs>
      <use xlink:href="#DejaVuSans-52"/>
      <use xlink:href="#DejaVuSans-4d" x="69.482422"/>
     </g>
    </g>
    <g id="line2d_17">
     <path d="M 257.432813 62.336563 
L 267.432813 62.336563 
L 277.432813 62.336563 
" style="fill: none; stroke-dasharray: 1.85,0.8; stroke-dashoffset: 0; stroke: #000000; stroke-width: 0.5"/>
    </g>
    <g id="text_11">
     <!-- RM, shift -->
     <g transform="translate(285.432813 65.836563)scale(0.1 -0.1)">
      <defs>
       <path id="DejaVuSans-2c" d="M 750 794 
L 1409 794 
L 1409 256 
L 897 -744 
L 494 -744 
L 750 256 
L 750 794 
z
" transform="scale(0.015625)"/>
       <path id="DejaVuSans-66" d="M 2375 4863 
L 2375 4384 
L 1825 4384 
Q 1516 4384 1395 4259 
Q 1275 4134 1275 3809 
L 1275 3500 
L 2222 3500 
L 2222 3053 
L 1275 3053 
L 1275 0 
L 697 0 
L 697 3053 
L 147 3053 
L 147 3500 
L 697 3500 
L 697 3744 
Q 697 4328 969 4595 
Q 1241 4863 1831 4863 
L 2375 4863 
z
" transform="scale(0.015625)"/>
      </defs>
      <use xlink:href="#DejaVuSans-52"/>
      <use xlink:href="#DejaVuSans-4d" x="69.482422"/>
      <use xlink:href="#DejaVuSans-2c" x="155.761719"/>
      <use xlink:href="#DejaVuSans-20" x="187.548828"/>
      <use xlink:href="#DejaVuSans-73" x="219.335938"/>
      <use xlink:href="#DejaVuSans-68" x="271.435547"/>
      <use xlink:href="#DejaVuSans-69" x="334.814453"/>
      <use xlink:href="#DejaVuSans-66" x="362.597656"/>
      <use xlink:href="#DejaVuSans-74" x="396.052734"/>
     </g>
    </g>
    <g id="line2d_18">
     <path d="M 257.432813 77.014687 
L 267.432813 77.014687 
L 277.432813 77.014687 
" style="fill: none; stroke-dasharray: 0.5,0.825; stroke-dashoffset: 0; stroke: #000000; stroke-width: 0.5"/>
    </g>
    <g id="text_12">
     <!-- RM, softmax -->
     <g transform="translate(285.432813 80.514687)scale(0.1 -0.1)">
      <defs>
       <path id="DejaVuSans-78" d="M 3513 3500 
L 2247 1797 
L 3578 0 
L 2900 0 
L 1881 1375 
L 863 0 
L 184 0 
L 1544 1831 
L 300 3500 
L 978 3500 
L 1906 2253 
L 2834 3500 
L 3513 3500 
z
" transform="scale(0.015625)"/>
      </defs>
      <use xlink:href="#DejaVuSans-52"/>
      <use xlink:href="#DejaVuSans-4d" x="69.482422"/>
      <use xlink:href="#DejaVuSans-2c" x="155.761719"/>
      <use xlink:href="#DejaVuSans-20" x="187.548828"/>
      <use xlink:href="#DejaVuSans-73" x="219.335938"/>
      <use xlink:href="#DejaVuSans-6f" x="271.435547"/>
      <use xlink:href="#DejaVuSans-66" x="332.617188"/>
      <use xlink:href="#DejaVuSans-74" x="366.072266"/>
      <use xlink:href="#DejaVuSans-6d" x="405.28125"/>
      <use xlink:href="#DejaVuSans-61" x="502.693359"/>
      <use xlink:href="#DejaVuSans-78" x="563.972656"/>
     </g>
    </g>
    <g id="line2d_19">
     <path d="M 257.432813 91.692813 
L 267.432813 91.692813 
L 277.432813 91.692813 
" style="fill: none; stroke-dasharray: 3.2,0.8,0.5,0.8; stroke-dashoffset: 0; stroke: #000000; stroke-width: 0.5"/>
    </g>
    <g id="text_13">
     <!-- RM, softmax, shift -->
     <g transform="translate(285.432813 95.192813)scale(0.1 -0.1)">
      <use xlink:href="#DejaVuSans-52"/>
      <use xlink:href="#DejaVuSans-4d" x="69.482422"/>
      <use xlink:href="#DejaVuSans-2c" x="155.761719"/>
      <use xlink:href="#DejaVuSans-20" x="187.548828"/>
      <use xlink:href="#DejaVuSans-73" x="219.335938"/>
      <use xlink:href="#DejaVuSans-6f" x="271.435547"/>
      <use xlink:href="#DejaVuSans-66" x="332.617188"/>
      <use xlink:href="#DejaVuSans-74" x="366.072266"/>
      <use xlink:href="#DejaVuSans-6d" x="405.28125"/>
      <use xlink:href="#DejaVuSans-61" x="502.693359"/>
      <use xlink:href="#DejaVuSans-78" x="563.972656"/>
      <use xlink:href="#DejaVuSans-2c" x="623.152344"/>
      <use xlink:href="#DejaVuSans-20" x="654.939453"/>
      <use xlink:href="#DejaVuSans-73" x="686.726562"/>
      <use xlink:href="#DejaVuSans-68" x="738.826172"/>
      <use xlink:href="#DejaVuSans-69" x="802.205078"/>
      <use xlink:href="#DejaVuSans-66" x="829.988281"/>
      <use xlink:href="#DejaVuSans-74" x="863.443359"/>
     </g>
    </g>
    <g id="line2d_20">
     <path d="M 257.432813 106.370937 
L 267.432813 106.370937 
L 277.432813 106.370937 
" style="fill: none; stroke: #000000; stroke-width: 0.5; stroke-linecap: square"/>
     <g>
      <use xlink:href="#m1b22cc9c61" x="267.432813" y="106.370937" style="stroke: #000000"/>
     </g>
    </g>
    <g id="text_14">
     <!-- CFR -->
     <g transform="translate(285.432813 109.870937)scale(0.1 -0.1)">
      <defs>
       <path id="DejaVuSans-46" d="M 628 4666 
L 3309 4666 
L 3309 4134 
L 1259 4134 
L 1259 2759 
L 3109 2759 
L 3109 2228 
L 1259 2228 
L 1259 0 
L 628 0 
L 628 4666 
z
" transform="scale(0.015625)"/>
      </defs>
      <use xlink:href="#DejaVuSans-43"/>
      <use xlink:href="#DejaVuSans-46" x="69.824219"/>
      <use xlink:href="#DejaVuSans-52" x="127.34375"/>
     </g>
    </g>
    <g id="line2d_21">
     <path d="M 257.432813 121.049062 
L 267.432813 121.049062 
L 277.432813 121.049062 
" style="fill: none; stroke-dasharray: 1.85,0.8; stroke-dashoffset: 0; stroke: #000000; stroke-width: 0.5"/>
     <g>
      <use xlink:href="#m1b22cc9c61" x="267.432813" y="121.049062" style="stroke: #000000"/>
     </g>
    </g>
    <g id="text_15">
     <!-- CFR, shift -->
     <g transform="translate(285.432813 124.549062)scale(0.1 -0.1)">
      <use xlink:href="#DejaVuSans-43"/>
      <use xlink:href="#DejaVuSans-46" x="69.824219"/>
      <use xlink:href="#DejaVuSans-52" x="127.34375"/>
      <use xlink:href="#DejaVuSans-2c" x="196.826172"/>
      <use xlink:href="#DejaVuSans-20" x="228.613281"/>
      <use xlink:href="#DejaVuSans-73" x="260.400391"/>
      <use xlink:href="#DejaVuSans-68" x="312.5"/>
      <use xlink:href="#DejaVuSans-69" x="375.878906"/>
      <use xlink:href="#DejaVuSans-66" x="403.662109"/>
      <use xlink:href="#DejaVuSans-74" x="437.117188"/>
     </g>
    </g>
    <g id="line2d_22">
     <path d="M 257.432813 135.727187 
L 267.432813 135.727187 
L 277.432813 135.727187 
" style="fill: none; stroke-dasharray: 0.5,0.825; stroke-dashoffset: 0; stroke: #000000; stroke-width: 0.5"/>
     <g>
      <use xlink:href="#m1b22cc9c61" x="267.432813" y="135.727187" style="stroke: #000000"/>
     </g>
    </g>
    <g id="text_16">
     <!-- CFR, softmax -->
     <g transform="translate(285.432813 139.227187)scale(0.1 -0.1)">
      <use xlink:href="#DejaVuSans-43"/>
      <use xlink:href="#DejaVuSans-46" x="69.824219"/>
      <use xlink:href="#DejaVuSans-52" x="127.34375"/>
      <use xlink:href="#DejaVuSans-2c" x="196.826172"/>
      <use xlink:href="#DejaVuSans-20" x="228.613281"/>
      <use xlink:href="#DejaVuSans-73" x="260.400391"/>
      <use xlink:href="#DejaVuSans-6f" x="312.5"/>
      <use xlink:href="#DejaVuSans-66" x="373.681641"/>
      <use xlink:href="#DejaVuSans-74" x="407.136719"/>
      <use xlink:href="#DejaVuSans-6d" x="446.345703"/>
      <use xlink:href="#DejaVuSans-61" x="543.757812"/>
      <use xlink:href="#DejaVuSans-78" x="605.037109"/>
     </g>
    </g>
    <g id="line2d_23">
     <path d="M 257.432813 150.405312 
L 267.432813 150.405312 
L 277.432813 150.405312 
" style="fill: none; stroke-dasharray: 3.2,0.8,0.5,0.8; stroke-dashoffset: 0; stroke: #000000; stroke-width: 0.5"/>
     <g>
      <use xlink:href="#m1b22cc9c61" x="267.432813" y="150.405312" style="stroke: #000000"/>
     </g>
    </g>
    <g id="text_17">
     <!-- CFR, softmax, shift -->
     <g transform="translate(285.432813 153.905312)scale(0.1 -0.1)">
      <use xlink:href="#DejaVuSans-43"/>
      <use xlink:href="#DejaVuSans-46" x="69.824219"/>
      <use xlink:href="#DejaVuSans-52" x="127.34375"/>
      <use xlink:href="#DejaVuSans-2c" x="196.826172"/>
      <use xlink:href="#DejaVuSans-20" x="228.613281"/>
      <use xlink:href="#DejaVuSans-73" x="260.400391"/>
      <use xlink:href="#DejaVuSans-6f" x="312.5"/>
      <use xlink:href="#DejaVuSans-66" x="373.681641"/>
      <use xlink:href="#DejaVuSans-74" x="407.136719"/>
      <use xlink:href="#DejaVuSans-6d" x="446.345703"/>
      <use xlink:href="#DejaVuSans-61" x="543.757812"/>
      <use xlink:href="#DejaVuSans-78" x="605.037109"/>
      <use xlink:href="#DejaVuSans-2c" x="664.216797"/>
      <use xlink:href="#DejaVuSans-20" x="696.003906"/>
      <use xlink:href="#DejaVuSans-73" x="727.791016"/>
      <use xlink:href="#DejaVuSans-68" x="779.890625"/>
      <use xlink:href="#DejaVuSans-69" x="843.269531"/>
      <use xlink:href="#DejaVuSans-66" x="871.052734"/>
      <use xlink:href="#DejaVuSans-74" x="904.507812"/>
     </g>
    </g>
   </g>
  </g>
 </g>
 <defs>
  <clipPath id="p2d9d4540c1">
   <rect x="54" y="34.56" width="334.8" height="217.44"/>
  </clipPath>
 </defs>
</svg>
