<?xml version="1.0" encoding="utf-8" standalone="no"?>
<!DOCTYPE svg PUBLIC "-//W3C//DTD SVG 1.1//EN"
  "http://www.w3.org/Graphics/SVG/1.1/DTD/svg11.dtd">
<svg xmlns:xlink="http://www.w3.org/1999/xlink" width="432pt" height="288pt" viewBox="0 0 432 288" xmlns="http://www.w3.org/2000/svg" version="1.1">
 <metadata>
  <rdf:RDF xmlns:dc="http://purl.org/dc/elements/1.1/" xmlns:cc="http://creativecommons.org/ns#" xmlns:rdf="http://www.w3.org/1999/02/22-rdf-syntax-ns#">
   <cc:Work>
    <dc:type rdf:resource="http://purl.org/dc/dcmitype/StillImage"/>
    <dc:date>2023-05-29T16:01:12.405430</dc:date>
    <dc:format>image/svg+xml</dc:format>
    <dc:creator>
     <cc:Agent>
      <dc:title>Matplotlib v3.5.1, https://matplotlib.org/</dc:title>
     </cc:Agent>
    </dc:creator>
   </cc:Work>
  </rdf:RDF>
 </metadata>
 <defs>
  <style type="text/css">*{stroke-linejoin: round; stroke-linecap: butt}</style>
 </defs>
 <g id="figure_1">
  <g id="patch_1">
   <path d="M 0 288 
L 432 288 
L 432 0 
L 0 0 
L 0 288 
z
" style="fill: none"/>
  </g>
  <g id="axes_1">
   <g id="patch_2">
    <path d="M 54 252 
L 388.8 252 
L 388.8 34.56 
L 54 34.56 
z
" style="fill: #ffffff"/>
   </g>
   <g id="matplotlib.axis_1">
    <g id="xtick_1">
     <g id="line2d_1">
      <defs>
       <path id="m11411de7b8" d="M 0 0 
L 0 3.5 
" style="stroke: #000000; stroke-width: 0.8"/>
      </defs>
      <g>
       <use xlink:href="#m11411de7b8" x="66.143802" y="252" style="stroke: #000000; stroke-width: 0.8"/>
      </g>
     </g>
     <g id="text_1">
      <!-- 0 -->
      <g transform="translate(62.962552 266.598437)scale(0.1 -0.1)">
       <defs>
        <path id="DejaVuSans-30" d="M 2034 4250 
Q 1547 4250 1301 3770 
Q 1056 3291 1056 2328 
Q 1056 1369 1301 889 
Q 1547 409 2034 409 
Q 2525 409 2770 889 
Q 3016 1369 3016 2328 
Q 3016 3291 2770 3770 
Q 2525 4250 2034 4250 
z
M 2034 4750 
Q 2819 4750 3233 4129 
Q 3647 3509 3647 2328 
Q 3647 1150 3233 529 
Q 2819 -91 2034 -91 
Q 1250 -91 836 529 
Q 422 1150 422 2328 
Q 422 3509 836 4129 
Q 1250 4750 2034 4750 
z
" transform="scale(0.015625)"/>
       </defs>
       <use xlink:href="#DejaVuSans-30"/>
      </g>
     </g>
    </g>
    <g id="xtick_2">
     <g id="line2d_2">
      <g>
       <use xlink:href="#m11411de7b8" x="127.631405" y="252" style="stroke: #000000; stroke-width: 0.8"/>
      </g>
     </g>
     <g id="text_2">
      <!-- 2000 -->
      <g transform="translate(114.906405 266.598437)scale(0.1 -0.1)">
       <defs>
        <path id="DejaVuSans-32" d="M 1228 531 
L 3431 531 
L 3431 0 
L 469 0 
L 469 531 
Q 828 903 1448 1529 
Q 2069 2156 2228 2338 
Q 2531 2678 2651 2914 
Q 2772 3150 2772 3378 
Q 2772 3750 2511 3984 
Q 2250 4219 1831 4219 
Q 1534 4219 1204 4116 
Q 875 4013 500 3803 
L 500 4441 
Q 881 4594 1212 4672 
Q 1544 4750 1819 4750 
Q 2544 4750 2975 4387 
Q 3406 4025 3406 3419 
Q 3406 3131 3298 2873 
Q 3191 2616 2906 2266 
Q 2828 2175 2409 1742 
Q 1991 1309 1228 531 
z
" transform="scale(0.015625)"/>
       </defs>
       <use xlink:href="#DejaVuSans-32"/>
       <use xlink:href="#DejaVuSans-30" x="63.623047"/>
       <use xlink:href="#DejaVuSans-30" x="127.246094"/>
       <use xlink:href="#DejaVuSans-30" x="190.869141"/>
      </g>
     </g>
    </g>
    <g id="xtick_3">
     <g id="line2d_3">
      <g>
       <use xlink:href="#m11411de7b8" x="189.119008" y="252" style="stroke: #000000; stroke-width: 0.8"/>
      </g>
     </g>
     <g id="text_3">
      <!-- 4000 -->
      <g transform="translate(176.394008 266.598437)scale(0.1 -0.1)">
       <defs>
        <path id="DejaVuSans-34" d="M 2419 4116 
L 825 1625 
L 2419 1625 
L 2419 4116 
z
M 2253 4666 
L 3047 4666 
L 3047 1625 
L 3713 1625 
L 3713 1100 
L 3047 1100 
L 3047 0 
L 2419 0 
L 2419 1100 
L 313 1100 
L 313 1709 
L 2253 4666 
z
" transform="scale(0.015625)"/>
       </defs>
       <use xlink:href="#DejaVuSans-34"/>
       <use xlink:href="#DejaVuSans-30" x="63.623047"/>
       <use xlink:href="#DejaVuSans-30" x="127.246094"/>
       <use xlink:href="#DejaVuSans-30" x="190.869141"/>
      </g>
     </g>
    </g>
    <g id="xtick_4">
     <g id="line2d_4">
      <g>
       <use xlink:href="#m11411de7b8" x="250.606612" y="252" style="stroke: #000000; stroke-width: 0.8"/>
      </g>
     </g>
     <g id="text_4">
      <!-- 6000 -->
      <g transform="translate(237.881612 266.598437)scale(0.1 -0.1)">
       <defs>
        <path id="DejaVuSans-36" d="M 2113 2584 
Q 1688 2584 1439 2293 
Q 1191 2003 1191 1497 
Q 1191 994 1439 701 
Q 1688 409 2113 409 
Q 2538 409 2786 701 
Q 3034 994 3034 1497 
Q 3034 2003 2786 2293 
Q 2538 2584 2113 2584 
z
M 3366 4563 
L 3366 3988 
Q 3128 4100 2886 4159 
Q 2644 4219 2406 4219 
Q 1781 4219 1451 3797 
Q 1122 3375 1075 2522 
Q 1259 2794 1537 2939 
Q 1816 3084 2150 3084 
Q 2853 3084 3261 2657 
Q 3669 2231 3669 1497 
Q 3669 778 3244 343 
Q 2819 -91 2113 -91 
Q 1303 -91 875 529 
Q 447 1150 447 2328 
Q 447 3434 972 4092 
Q 1497 4750 2381 4750 
Q 2619 4750 2861 4703 
Q 3103 4656 3366 4563 
z
" transform="scale(0.015625)"/>
       </defs>
       <use xlink:href="#DejaVuSans-36"/>
       <use xlink:href="#DejaVuSans-30" x="63.623047"/>
       <use xlink:href="#DejaVuSans-30" x="127.246094"/>
       <use xlink:href="#DejaVuSans-30" x="190.869141"/>
      </g>
     </g>
    </g>
    <g id="xtick_5">
     <g id="line2d_5">
      <g>
       <use xlink:href="#m11411de7b8" x="312.094215" y="252" style="stroke: #000000; stroke-width: 0.8"/>
      </g>
     </g>
     <g id="text_5">
      <!-- 8000 -->
      <g transform="translate(299.369215 266.598437)scale(0.1 -0.1)">
       <defs>
        <path id="DejaVuSans-38" d="M 2034 2216 
Q 1584 2216 1326 1975 
Q 1069 1734 1069 1313 
Q 1069 891 1326 650 
Q 1584 409 2034 409 
Q 2484 409 2743 651 
Q 3003 894 3003 1313 
Q 3003 1734 2745 1975 
Q 2488 2216 2034 2216 
z
M 1403 2484 
Q 997 2584 770 2862 
Q 544 3141 544 3541 
Q 544 4100 942 4425 
Q 1341 4750 2034 4750 
Q 2731 4750 3128 4425 
Q 3525 4100 3525 3541 
Q 3525 3141 3298 2862 
Q 3072 2584 2669 2484 
Q 3125 2378 3379 2068 
Q 3634 1759 3634 1313 
Q 3634 634 3220 271 
Q 2806 -91 2034 -91 
Q 1263 -91 848 271 
Q 434 634 434 1313 
Q 434 1759 690 2068 
Q 947 2378 1403 2484 
z
M 1172 3481 
Q 1172 3119 1398 2916 
Q 1625 2713 2034 2713 
Q 2441 2713 2670 2916 
Q 2900 3119 2900 3481 
Q 2900 3844 2670 4047 
Q 2441 4250 2034 4250 
Q 1625 4250 1398 4047 
Q 1172 3844 1172 3481 
z
" transform="scale(0.015625)"/>
       </defs>
       <use xlink:href="#DejaVuSans-38"/>
       <use xlink:href="#DejaVuSans-30" x="63.623047"/>
       <use xlink:href="#DejaVuSans-30" x="127.246094"/>
       <use xlink:href="#DejaVuSans-30" x="190.869141"/>
      </g>
     </g>
    </g>
    <g id="xtick_6">
     <g id="line2d_6">
      <g>
       <use xlink:href="#m11411de7b8" x="373.581818" y="252" style="stroke: #000000; stroke-width: 0.8"/>
      </g>
     </g>
     <g id="text_6">
      <!-- 10000 -->
      <g transform="translate(357.675568 266.598437)scale(0.1 -0.1)">
       <defs>
        <path id="DejaVuSans-31" d="M 794 531 
L 1825 531 
L 1825 4091 
L 703 3866 
L 703 4441 
L 1819 4666 
L 2450 4666 
L 2450 531 
L 3481 531 
L 3481 0 
L 794 0 
L 794 531 
z
" transform="scale(0.015625)"/>
       </defs>
       <use xlink:href="#DejaVuSans-31"/>
       <use xlink:href="#DejaVuSans-30" x="63.623047"/>
       <use xlink:href="#DejaVuSans-30" x="127.246094"/>
       <use xlink:href="#DejaVuSans-30" x="190.869141"/>
       <use xlink:href="#DejaVuSans-30" x="254.492188"/>
      </g>
     </g>
    </g>
    <g id="text_7">
     <!-- iterations -->
     <g transform="translate(197.672656 280.276563)scale(0.1 -0.1)">
      <defs>
       <path id="DejaVuSans-69" d="M 603 3500 
L 1178 3500 
L 1178 0 
L 603 0 
L 603 3500 
z
M 603 4863 
L 1178 4863 
L 1178 4134 
L 603 4134 
L 603 4863 
z
" transform="scale(0.015625)"/>
       <path id="DejaVuSans-74" d="M 1172 4494 
L 1172 3500 
L 2356 3500 
L 2356 3053 
L 1172 3053 
L 1172 1153 
Q 1172 725 1289 603 
Q 1406 481 1766 481 
L 2356 481 
L 2356 0 
L 1766 0 
Q 1100 0 847 248 
Q 594 497 594 1153 
L 594 3053 
L 172 3053 
L 172 3500 
L 594 3500 
L 594 4494 
L 1172 4494 
z
" transform="scale(0.015625)"/>
       <path id="DejaVuSans-65" d="M 3597 1894 
L 3597 1613 
L 953 1613 
Q 991 1019 1311 708 
Q 1631 397 2203 397 
Q 2534 397 2845 478 
Q 3156 559 3463 722 
L 3463 178 
Q 3153 47 2828 -22 
Q 2503 -91 2169 -91 
Q 1331 -91 842 396 
Q 353 884 353 1716 
Q 353 2575 817 3079 
Q 1281 3584 2069 3584 
Q 2775 3584 3186 3129 
Q 3597 2675 3597 1894 
z
M 3022 2063 
Q 3016 2534 2758 2815 
Q 2500 3097 2075 3097 
Q 1594 3097 1305 2825 
Q 1016 2553 972 2059 
L 3022 2063 
z
" transform="scale(0.015625)"/>
       <path id="DejaVuSans-72" d="M 2631 2963 
Q 2534 3019 2420 3045 
Q 2306 3072 2169 3072 
Q 1681 3072 1420 2755 
Q 1159 2438 1159 1844 
L 1159 0 
L 581 0 
L 581 3500 
L 1159 3500 
L 1159 2956 
Q 1341 3275 1631 3429 
Q 1922 3584 2338 3584 
Q 2397 3584 2469 3576 
Q 2541 3569 2628 3553 
L 2631 2963 
z
" transform="scale(0.015625)"/>
       <path id="DejaVuSans-61" d="M 2194 1759 
Q 1497 1759 1228 1600 
Q 959 1441 959 1056 
Q 959 750 1161 570 
Q 1363 391 1709 391 
Q 2188 391 2477 730 
Q 2766 1069 2766 1631 
L 2766 1759 
L 2194 1759 
z
M 3341 1997 
L 3341 0 
L 2766 0 
L 2766 531 
Q 2569 213 2275 61 
Q 1981 -91 1556 -91 
Q 1019 -91 701 211 
Q 384 513 384 1019 
Q 384 1609 779 1909 
Q 1175 2209 1959 2209 
L 2766 2209 
L 2766 2266 
Q 2766 2663 2505 2880 
Q 2244 3097 1772 3097 
Q 1472 3097 1187 3025 
Q 903 2953 641 2809 
L 641 3341 
Q 956 3463 1253 3523 
Q 1550 3584 1831 3584 
Q 2591 3584 2966 3190 
Q 3341 2797 3341 1997 
z
" transform="scale(0.015625)"/>
       <path id="DejaVuSans-6f" d="M 1959 3097 
Q 1497 3097 1228 2736 
Q 959 2375 959 1747 
Q 959 1119 1226 758 
Q 1494 397 1959 397 
Q 2419 397 2687 759 
Q 2956 1122 2956 1747 
Q 2956 2369 2687 2733 
Q 2419 3097 1959 3097 
z
M 1959 3584 
Q 2709 3584 3137 3096 
Q 3566 2609 3566 1747 
Q 3566 888 3137 398 
Q 2709 -91 1959 -91 
Q 1206 -91 779 398 
Q 353 888 353 1747 
Q 353 2609 779 3096 
Q 1206 3584 1959 3584 
z
" transform="scale(0.015625)"/>
       <path id="DejaVuSans-6e" d="M 3513 2113 
L 3513 0 
L 2938 0 
L 2938 2094 
Q 2938 2591 2744 2837 
Q 2550 3084 2163 3084 
Q 1697 3084 1428 2787 
Q 1159 2491 1159 1978 
L 1159 0 
L 581 0 
L 581 3500 
L 1159 3500 
L 1159 2956 
Q 1366 3272 1645 3428 
Q 1925 3584 2291 3584 
Q 2894 3584 3203 3211 
Q 3513 2838 3513 2113 
z
" transform="scale(0.015625)"/>
       <path id="DejaVuSans-73" d="M 2834 3397 
L 2834 2853 
Q 2591 2978 2328 3040 
Q 2066 3103 1784 3103 
Q 1356 3103 1142 2972 
Q 928 2841 928 2578 
Q 928 2378 1081 2264 
Q 1234 2150 1697 2047 
L 1894 2003 
Q 2506 1872 2764 1633 
Q 3022 1394 3022 966 
Q 3022 478 2636 193 
Q 2250 -91 1575 -91 
Q 1294 -91 989 -36 
Q 684 19 347 128 
L 347 722 
Q 666 556 975 473 
Q 1284 391 1588 391 
Q 1994 391 2212 530 
Q 2431 669 2431 922 
Q 2431 1156 2273 1281 
Q 2116 1406 1581 1522 
L 1381 1569 
Q 847 1681 609 1914 
Q 372 2147 372 2553 
Q 372 3047 722 3315 
Q 1072 3584 1716 3584 
Q 2034 3584 2315 3537 
Q 2597 3491 2834 3397 
z
" transform="scale(0.015625)"/>
      </defs>
      <use xlink:href="#DejaVuSans-69"/>
      <use xlink:href="#DejaVuSans-74" x="27.783203"/>
      <use xlink:href="#DejaVuSans-65" x="66.992188"/>
      <use xlink:href="#DejaVuSans-72" x="128.515625"/>
      <use xlink:href="#DejaVuSans-61" x="169.628906"/>
      <use xlink:href="#DejaVuSans-74" x="230.908203"/>
      <use xlink:href="#DejaVuSans-69" x="270.117188"/>
      <use xlink:href="#DejaVuSans-6f" x="297.900391"/>
      <use xlink:href="#DejaVuSans-6e" x="359.082031"/>
      <use xlink:href="#DejaVuSans-73" x="422.460938"/>
     </g>
    </g>
   </g>
   <g id="matplotlib.axis_2">
    <g id="ytick_1">
     <g id="line2d_7">
      <defs>
       <path id="m554cc6c265" d="M 0 0 
L -3.5 0 
" style="stroke: #000000; stroke-width: 0.8"/>
      </defs>
      <g>
       <use xlink:href="#m554cc6c265" x="54" y="103.378797" style="stroke: #000000; stroke-width: 0.8"/>
      </g>
     </g>
     <g id="text_8">
      <!-- $\mathdefault{10^{-2}}$ -->
      <g transform="translate(23.5 107.178015)scale(0.1 -0.1)">
       <defs>
        <path id="DejaVuSans-2212" d="M 678 2272 
L 4684 2272 
L 4684 1741 
L 678 1741 
L 678 2272 
z
" transform="scale(0.015625)"/>
       </defs>
       <use xlink:href="#DejaVuSans-31" transform="translate(0 0.765625)"/>
       <use xlink:href="#DejaVuSans-30" transform="translate(63.623047 0.765625)"/>
       <use xlink:href="#DejaVuSans-2212" transform="translate(128.203125 39.046875)scale(0.7)"/>
       <use xlink:href="#DejaVuSans-32" transform="translate(186.855469 39.046875)scale(0.7)"/>
      </g>
     </g>
    </g>
    <g id="ytick_2">
     <g id="line2d_8">
      <defs>
       <path id="m6bf45df653" d="M 0 0 
L -2 0 
" style="stroke: #000000; stroke-width: 0.6"/>
      </defs>
      <g>
       <use xlink:href="#m6bf45df653" x="54" y="208.897422" style="stroke: #000000; stroke-width: 0.6"/>
      </g>
     </g>
    </g>
    <g id="ytick_3">
     <g id="line2d_9">
      <g>
       <use xlink:href="#m6bf45df653" x="54" y="182.314153" style="stroke: #000000; stroke-width: 0.6"/>
      </g>
     </g>
    </g>
    <g id="ytick_4">
     <g id="line2d_10">
      <g>
       <use xlink:href="#m6bf45df653" x="54" y="163.453024" style="stroke: #000000; stroke-width: 0.6"/>
      </g>
     </g>
    </g>
    <g id="ytick_5">
     <g id="line2d_11">
      <g>
       <use xlink:href="#m6bf45df653" x="54" y="148.823195" style="stroke: #000000; stroke-width: 0.6"/>
      </g>
     </g>
    </g>
    <g id="ytick_6">
     <g id="line2d_12">
      <g>
       <use xlink:href="#m6bf45df653" x="54" y="136.869755" style="stroke: #000000; stroke-width: 0.6"/>
      </g>
     </g>
    </g>
    <g id="ytick_7">
     <g id="line2d_13">
      <g>
       <use xlink:href="#m6bf45df653" x="54" y="126.763265" style="stroke: #000000; stroke-width: 0.6"/>
      </g>
     </g>
    </g>
    <g id="ytick_8">
     <g id="line2d_14">
      <g>
       <use xlink:href="#m6bf45df653" x="54" y="118.008625" style="stroke: #000000; stroke-width: 0.6"/>
      </g>
     </g>
    </g>
    <g id="ytick_9">
     <g id="line2d_15">
      <g>
       <use xlink:href="#m6bf45df653" x="54" y="110.286486" style="stroke: #000000; stroke-width: 0.6"/>
      </g>
     </g>
    </g>
    <g id="ytick_10">
     <g id="line2d_16">
      <g>
       <use xlink:href="#m6bf45df653" x="54" y="57.934398" style="stroke: #000000; stroke-width: 0.6"/>
      </g>
     </g>
    </g>
    <g id="text_9">
     <!-- QuasiNashConv -->
     <g transform="translate(17.420312 182.699531)rotate(-90)scale(0.1 -0.1)">
      <defs>
       <path id="DejaVuSans-51" d="M 2522 4238 
Q 1834 4238 1429 3725 
Q 1025 3213 1025 2328 
Q 1025 1447 1429 934 
Q 1834 422 2522 422 
Q 3209 422 3611 934 
Q 4013 1447 4013 2328 
Q 4013 3213 3611 3725 
Q 3209 4238 2522 4238 
z
M 3406 84 
L 4238 -825 
L 3475 -825 
L 2784 -78 
Q 2681 -84 2626 -87 
Q 2572 -91 2522 -91 
Q 1538 -91 948 567 
Q 359 1225 359 2328 
Q 359 3434 948 4092 
Q 1538 4750 2522 4750 
Q 3503 4750 4090 4092 
Q 4678 3434 4678 2328 
Q 4678 1516 4351 937 
Q 4025 359 3406 84 
z
" transform="scale(0.015625)"/>
       <path id="DejaVuSans-75" d="M 544 1381 
L 544 3500 
L 1119 3500 
L 1119 1403 
Q 1119 906 1312 657 
Q 1506 409 1894 409 
Q 2359 409 2629 706 
Q 2900 1003 2900 1516 
L 2900 3500 
L 3475 3500 
L 3475 0 
L 2900 0 
L 2900 538 
Q 2691 219 2414 64 
Q 2138 -91 1772 -91 
Q 1169 -91 856 284 
Q 544 659 544 1381 
z
M 1991 3584 
L 1991 3584 
z
" transform="scale(0.015625)"/>
       <path id="DejaVuSans-4e" d="M 628 4666 
L 1478 4666 
L 3547 763 
L 3547 4666 
L 4159 4666 
L 4159 0 
L 3309 0 
L 1241 3903 
L 1241 0 
L 628 0 
L 628 4666 
z
" transform="scale(0.015625)"/>
       <path id="DejaVuSans-68" d="M 3513 2113 
L 3513 0 
L 2938 0 
L 2938 2094 
Q 2938 2591 2744 2837 
Q 2550 3084 2163 3084 
Q 1697 3084 1428 2787 
Q 1159 2491 1159 1978 
L 1159 0 
L 581 0 
L 581 4863 
L 1159 4863 
L 1159 2956 
Q 1366 3272 1645 3428 
Q 1925 3584 2291 3584 
Q 2894 3584 3203 3211 
Q 3513 2838 3513 2113 
z
" transform="scale(0.015625)"/>
       <path id="DejaVuSans-43" d="M 4122 4306 
L 4122 3641 
Q 3803 3938 3442 4084 
Q 3081 4231 2675 4231 
Q 1875 4231 1450 3742 
Q 1025 3253 1025 2328 
Q 1025 1406 1450 917 
Q 1875 428 2675 428 
Q 3081 428 3442 575 
Q 3803 722 4122 1019 
L 4122 359 
Q 3791 134 3420 21 
Q 3050 -91 2638 -91 
Q 1578 -91 968 557 
Q 359 1206 359 2328 
Q 359 3453 968 4101 
Q 1578 4750 2638 4750 
Q 3056 4750 3426 4639 
Q 3797 4528 4122 4306 
z
" transform="scale(0.015625)"/>
       <path id="DejaVuSans-76" d="M 191 3500 
L 800 3500 
L 1894 563 
L 2988 3500 
L 3597 3500 
L 2284 0 
L 1503 0 
L 191 3500 
z
" transform="scale(0.015625)"/>
      </defs>
      <use xlink:href="#DejaVuSans-51"/>
      <use xlink:href="#DejaVuSans-75" x="78.710938"/>
      <use xlink:href="#DejaVuSans-61" x="142.089844"/>
      <use xlink:href="#DejaVuSans-73" x="203.369141"/>
      <use xlink:href="#DejaVuSans-69" x="255.46875"/>
      <use xlink:href="#DejaVuSans-4e" x="283.251953"/>
      <use xlink:href="#DejaVuSans-61" x="358.056641"/>
      <use xlink:href="#DejaVuSans-73" x="419.335938"/>
      <use xlink:href="#DejaVuSans-68" x="471.435547"/>
      <use xlink:href="#DejaVuSans-43" x="534.814453"/>
      <use xlink:href="#DejaVuSans-6f" x="604.638672"/>
      <use xlink:href="#DejaVuSans-6e" x="665.820312"/>
      <use xlink:href="#DejaVuSans-76" x="729.199219"/>
     </g>
    </g>
   </g>
   <g id="line2d_17">
    <path d="M 69.218182 44.443636 
L 72.292562 49.878753 
L 75.366942 58.553426 
L 78.441322 53.575601 
L 81.515702 55.553134 
L 84.590083 59.985638 
L 87.664463 56.406267 
L 90.738843 59.768432 
L 93.813223 63.375637 
L 96.887603 57.650071 
L 99.961983 55.186459 
L 103.036364 60.54715 
L 106.110744 61.583914 
L 109.185124 59.276305 
L 112.259504 56.066614 
L 115.333884 60.449107 
L 118.408264 61.451924 
L 121.482645 55.758191 
L 124.557025 59.567156 
L 127.631405 57.44555 
L 130.705785 54.966374 
L 133.780165 59.809055 
L 136.854545 57.6844 
L 139.928926 52.371015 
L 143.003306 60.439807 
L 146.077686 58.465073 
L 149.152066 57.410799 
L 152.226446 57.062164 
L 155.300826 63.038644 
L 158.375207 57.623794 
L 161.449587 58.287705 
L 164.523967 62.186987 
L 167.598347 60.341282 
L 170.672727 63.90081 
L 173.747107 62.77915 
L 176.821488 60.520878 
L 179.895868 61.422506 
L 182.970248 60.651497 
L 186.044628 57.788503 
L 189.119008 60.421243 
L 192.193388 61.268853 
L 195.267769 61.290615 
L 198.342149 54.729096 
L 201.416529 53.731617 
L 204.490909 54.862722 
L 207.565289 57.639035 
L 210.639669 63.956841 
L 213.71405 59.996624 
L 216.78843 59.373013 
L 219.86281 61.661644 
L 222.93719 58.074779 
L 226.01157 60.19578 
L 229.08595 64.265793 
L 232.160331 56.274379 
L 235.234711 60.585504 
L 238.309091 55.953529 
L 241.383471 58.34966 
L 244.457851 59.977227 
L 247.532231 57.64864 
L 250.606612 59.508456 
L 253.680992 58.491502 
L 256.755372 56.299153 
L 259.829752 55.83051 
L 262.904132 59.170643 
L 265.978512 61.826395 
L 269.052893 58.927494 
L 272.127273 58.872848 
L 275.201653 55.941568 
L 278.276033 56.781029 
L 281.350413 59.165932 
L 284.424793 60.668656 
L 287.499174 55.946251 
L 290.573554 57.56925 
L 293.647934 60.60453 
L 296.722314 59.663409 
L 299.796694 57.57055 
L 302.871074 60.837335 
L 305.945455 59.602277 
L 309.019835 60.725591 
L 312.094215 60.35845 
L 315.168595 59.005847 
L 318.242975 58.534263 
L 321.317355 58.83062 
L 324.391736 58.725003 
L 327.466116 58.889992 
L 330.540496 58.36574 
L 333.614876 58.048088 
L 336.689256 58.032678 
L 339.763636 57.747943 
L 342.838017 58.266973 
L 345.912397 59.288984 
L 348.986777 60.155979 
L 352.061157 59.347523 
L 355.135537 60.676234 
L 358.209917 58.461727 
L 361.284298 60.524162 
L 364.358678 60.473176 
L 367.433058 60.669999 
L 370.507438 59.153188 
L 373.581818 58.667947 
" clip-path="url(#p7385e842ea)" style="fill: none; stroke: #000000; stroke-width: 1.5; stroke-linecap: square"/>
   </g>
   <g id="line2d_18">
    <path d="M 69.218182 98.186259 
L 72.292562 91.436701 
L 75.366942 91.035354 
L 78.441322 100.111853 
L 81.515702 89.491484 
L 84.590083 91.387718 
L 87.664463 94.931184 
L 90.738843 88.093712 
L 93.813223 92.047416 
L 96.887603 93.996853 
L 99.961983 92.838476 
L 103.036364 92.712437 
L 106.110744 99.738916 
L 109.185124 86.483683 
L 112.259504 91.151144 
L 115.333884 93.410729 
L 118.408264 99.244914 
L 121.482645 96.165598 
L 124.557025 101.006564 
L 127.631405 96.06427 
L 130.705785 94.386079 
L 133.780165 98.569155 
L 136.854545 90.367881 
L 139.928926 96.75936 
L 143.003306 94.712415 
L 146.077686 93.110006 
L 149.152066 88.763495 
L 152.226446 92.472848 
L 155.300826 96.850151 
L 158.375207 100.919948 
L 161.449587 95.16347 
L 164.523967 97.738281 
L 167.598347 95.796058 
L 170.672727 93.429368 
L 173.747107 98.104911 
L 176.821488 98.804401 
L 179.895868 96.532073 
L 182.970248 100.07052 
L 186.044628 97.725222 
L 189.119008 93.727622 
L 192.193388 102.514861 
L 195.267769 93.646754 
L 198.342149 94.954053 
L 201.416529 93.599623 
L 204.490909 93.290255 
L 207.565289 100.278325 
L 210.639669 94.57885 
L 213.71405 91.946597 
L 216.78843 92.149086 
L 219.86281 99.226708 
L 222.93719 99.259076 
L 226.01157 101.788862 
L 229.08595 95.624188 
L 232.160331 93.115786 
L 235.234711 96.500124 
L 238.309091 97.083966 
L 241.383471 92.142833 
L 244.457851 92.713749 
L 247.532231 93.958524 
L 250.606612 93.302273 
L 253.680992 91.261096 
L 256.755372 98.525811 
L 259.829752 95.475073 
L 262.904132 91.744063 
L 265.978512 97.001487 
L 269.052893 96.225315 
L 272.127273 95.453687 
L 275.201653 94.024591 
L 278.276033 91.811301 
L 281.350413 94.271569 
L 284.424793 92.117034 
L 287.499174 94.702102 
L 290.573554 96.763665 
L 293.647934 94.848753 
L 296.722314 94.383117 
L 299.796694 91.452603 
L 302.871074 88.009807 
L 305.945455 90.796031 
L 309.019835 92.357514 
L 312.094215 94.365784 
L 315.168595 96.950362 
L 318.242975 91.145451 
L 321.317355 94.860038 
L 324.391736 95.715821 
L 327.466116 93.544191 
L 330.540496 94.646742 
L 333.614876 95.181344 
L 336.689256 94.37668 
L 339.763636 95.31772 
L 342.838017 93.691203 
L 345.912397 94.095828 
L 348.986777 97.294332 
L 352.061157 91.233325 
L 355.135537 94.958423 
L 358.209917 95.829257 
L 361.284298 94.065465 
L 364.358678 94.830693 
L 367.433058 92.344852 
L 370.507438 91.867921 
L 373.581818 94.586624 
" clip-path="url(#p7385e842ea)" style="fill: none; stroke-dasharray: 5.55,2.4; stroke-dashoffset: 0; stroke: #000000; stroke-width: 1.5"/>
   </g>
   <g id="line2d_19">
    <path d="M 69.218182 119.041966 
L 72.292562 128.908781 
L 75.366942 138.806594 
L 78.441322 134.899342 
L 81.515702 140.333589 
L 84.590083 135.296296 
L 87.664463 143.239639 
L 90.738843 134.446582 
L 93.813223 132.091558 
L 96.887603 136.48959 
L 99.961983 129.003987 
L 103.036364 149.719669 
L 106.110744 142.100997 
L 109.185124 139.87376 
L 112.259504 129.098948 
L 115.333884 134.73411 
L 118.408264 132.661104 
L 121.482645 131.756944 
L 124.557025 134.649402 
L 127.631405 134.656481 
L 130.705785 145.709984 
L 133.780165 147.957313 
L 136.854545 133.325452 
L 139.928926 131.231603 
L 143.003306 130.601417 
L 146.077686 129.677835 
L 149.152066 128.111784 
L 152.226446 133.592477 
L 155.300826 133.185727 
L 158.375207 134.06034 
L 161.449587 126.243898 
L 164.523967 132.459305 
L 167.598347 128.103857 
L 170.672727 135.864798 
L 173.747107 130.972297 
L 176.821488 124.014942 
L 179.895868 133.015448 
L 182.970248 127.304625 
L 186.044628 126.95016 
L 189.119008 129.34368 
L 192.193388 133.404943 
L 195.267769 127.667232 
L 198.342149 125.320521 
L 201.416529 136.242659 
L 204.490909 132.589056 
L 207.565289 126.287046 
L 210.639669 131.355093 
L 213.71405 128.208564 
L 216.78843 130.830387 
L 219.86281 133.530493 
L 222.93719 131.020557 
L 226.01157 130.441334 
L 229.08595 131.66132 
L 232.160331 129.119856 
L 235.234711 129.785467 
L 238.309091 131.587698 
L 241.383471 127.191137 
L 244.457851 125.111474 
L 247.532231 130.399339 
L 250.606612 130.43637 
L 253.680992 131.829194 
L 256.755372 125.085404 
L 259.829752 124.967432 
L 262.904132 130.883281 
L 265.978512 126.339489 
L 269.052893 127.897671 
L 272.127273 136.094819 
L 275.201653 128.879078 
L 278.276033 128.111532 
L 281.350413 127.879323 
L 284.424793 127.751101 
L 287.499174 130.971617 
L 290.573554 129.280881 
L 293.647934 133.802651 
L 296.722314 127.482969 
L 299.796694 129.378065 
L 302.871074 128.164819 
L 305.945455 133.059125 
L 309.019835 131.151556 
L 312.094215 133.160447 
L 315.168595 132.042575 
L 318.242975 125.300275 
L 321.317355 125.358442 
L 324.391736 125.995019 
L 327.466116 128.693484 
L 330.540496 130.64167 
L 333.614876 131.573069 
L 336.689256 134.774893 
L 339.763636 131.244188 
L 342.838017 132.687481 
L 345.912397 132.669459 
L 348.986777 132.528356 
L 352.061157 133.891261 
L 355.135537 127.62299 
L 358.209917 125.06432 
L 361.284298 127.262768 
L 364.358678 128.303623 
L 367.433058 127.916919 
L 370.507438 128.277314 
L 373.581818 129.67364 
" clip-path="url(#p7385e842ea)" style="fill: none; stroke-dasharray: 1.5,2.475; stroke-dashoffset: 0; stroke: #000000; stroke-width: 1.5"/>
   </g>
   <g id="line2d_20">
    <path d="M 69.218182 149.099912 
L 72.292562 164.708045 
L 75.366942 172.821961 
L 78.441322 179.521659 
L 81.515702 174.970007 
L 84.590083 184.710576 
L 87.664463 183.488066 
L 90.738843 185.778274 
L 93.813223 184.54835 
L 96.887603 192.711029 
L 99.961983 185.521081 
L 103.036364 182.999504 
L 106.110744 187.639392 
L 109.185124 195.372349 
L 112.259504 190.930785 
L 115.333884 189.655623 
L 118.408264 190.570376 
L 121.482645 195.491183 
L 124.557025 188.09203 
L 127.631405 189.634959 
L 130.705785 193.242581 
L 133.780165 196.551237 
L 136.854545 197.406322 
L 139.928926 195.191447 
L 143.003306 196.2132 
L 146.077686 200.1821 
L 149.152066 199.551127 
L 152.226446 199.741063 
L 155.300826 196.1534 
L 158.375207 196.120303 
L 161.449587 193.80948 
L 164.523967 197.065967 
L 167.598347 204.709077 
L 170.672727 193.660913 
L 173.747107 201.171447 
L 176.821488 198.09021 
L 179.895868 196.388111 
L 182.970248 197.096935 
L 186.044628 201.415257 
L 189.119008 201.928341 
L 192.193388 202.12555 
L 195.267769 200.085274 
L 198.342149 205.600289 
L 201.416529 199.93102 
L 204.490909 201.682076 
L 207.565289 206.681866 
L 210.639669 200.651252 
L 213.71405 197.351519 
L 216.78843 202.23602 
L 219.86281 202.244596 
L 222.93719 200.633771 
L 226.01157 199.272689 
L 229.08595 204.319573 
L 232.160331 203.576836 
L 235.234711 206.605067 
L 238.309091 202.71269 
L 241.383471 201.605928 
L 244.457851 201.568584 
L 247.532231 201.731148 
L 250.606612 202.128119 
L 253.680992 202.781236 
L 256.755372 200.061079 
L 259.829752 202.352521 
L 262.904132 204.788552 
L 265.978512 204.533384 
L 269.052893 201.138081 
L 272.127273 203.506628 
L 275.201653 203.470784 
L 278.276033 202.782335 
L 281.350413 207.04255 
L 284.424793 204.370782 
L 287.499174 202.666514 
L 290.573554 198.681869 
L 293.647934 199.371959 
L 296.722314 203.038445 
L 299.796694 205.547606 
L 302.871074 201.0473 
L 305.945455 200.938122 
L 309.019835 200.38121 
L 312.094215 204.961633 
L 315.168595 201.249881 
L 318.242975 203.440154 
L 321.317355 204.472589 
L 324.391736 204.668216 
L 327.466116 202.331782 
L 330.540496 202.501312 
L 333.614876 203.071276 
L 336.689256 204.547176 
L 339.763636 205.976433 
L 342.838017 204.566494 
L 345.912397 204.315006 
L 348.986777 205.615165 
L 352.061157 204.02756 
L 355.135537 202.516185 
L 358.209917 205.376009 
L 361.284298 203.652232 
L 364.358678 203.464231 
L 367.433058 203.059156 
L 370.507438 206.006181 
L 373.581818 203.326881 
" clip-path="url(#p7385e842ea)" style="fill: none; stroke-dasharray: 9.6,2.4,1.5,2.4; stroke-dashoffset: 0; stroke: #000000; stroke-width: 1.5"/>
   </g>
   <g id="line2d_21">
    <path d="M 69.218182 175.210834 
L 72.292562 191.160945 
L 75.366942 195.148082 
L 78.441322 201.576432 
L 81.515702 213.850222 
L 84.590083 217.475116 
L 87.664463 210.489024 
L 90.738843 214.76312 
L 93.813223 216.306144 
L 96.887603 222.44023 
L 99.961983 218.927809 
L 103.036364 219.236332 
L 106.110744 224.967848 
L 109.185124 219.024955 
L 112.259504 219.340826 
L 115.333884 220.821274 
L 118.408264 224.050651 
L 121.482645 229.255983 
L 124.557025 225.055058 
L 127.631405 225.205987 
L 130.705785 229.83048 
L 133.780165 230.281371 
L 136.854545 224.043265 
L 139.928926 228.39061 
L 143.003306 224.231735 
L 146.077686 225.328553 
L 149.152066 230.616473 
L 152.226446 232.585966 
L 155.300826 230.105858 
L 158.375207 232.632415 
L 161.449587 230.753915 
L 164.523967 231.664817 
L 167.598347 231.442873 
L 170.672727 232.081243 
L 173.747107 226.462255 
L 176.821488 232.678998 
L 179.895868 230.892054 
L 182.970248 230.309209 
L 186.044628 229.318669 
L 189.119008 228.157696 
L 192.193388 227.173489 
L 195.267769 226.574699 
L 198.342149 231.207757 
L 201.416529 229.636443 
L 204.490909 235.56066 
L 207.565289 228.504862 
L 210.639669 230.561187 
L 213.71405 232.550217 
L 216.78843 233.572528 
L 219.86281 228.000162 
L 222.93719 231.471176 
L 226.01157 230.20782 
L 229.08595 233.38034 
L 232.160331 231.114564 
L 235.234711 233.713102 
L 238.309091 235.336383 
L 241.383471 231.89293 
L 244.457851 234.063032 
L 247.532231 233.316123 
L 250.606612 231.015049 
L 253.680992 235.827335 
L 256.755372 234.201723 
L 259.829752 236.60963 
L 262.904132 233.38988 
L 265.978512 232.156781 
L 269.052893 237.062092 
L 272.127273 239.363292 
L 275.201653 236.507611 
L 278.276033 233.84772 
L 281.350413 237.26353 
L 284.424793 237.405213 
L 287.499174 236.911738 
L 290.573554 234.650542 
L 293.647934 237.277837 
L 296.722314 233.671512 
L 299.796694 237.703268 
L 302.871074 238.983757 
L 305.945455 236.619623 
L 309.019835 240.575869 
L 312.094215 238.728014 
L 315.168595 233.068108 
L 318.242975 233.596532 
L 321.317355 236.290799 
L 324.391736 235.182184 
L 327.466116 236.725045 
L 330.540496 237.901548 
L 333.614876 239.248034 
L 336.689256 237.481589 
L 339.763636 241.654312 
L 342.838017 241.774321 
L 345.912397 236.472909 
L 348.986777 238.041375 
L 352.061157 235.100486 
L 355.135537 232.243649 
L 358.209917 235.664025 
L 361.284298 240.452187 
L 364.358678 242.116364 
L 367.433058 239.095321 
L 370.507438 236.972244 
L 373.581818 237.373804 
" clip-path="url(#p7385e842ea)" style="fill: none; stroke: #000000; stroke-width: 1.5; stroke-linecap: square"/>
    <defs>
     <path id="mfac00c543a" d="M 0 1.5 
C 0.397805 1.5 0.77937 1.341951 1.06066 1.06066 
C 1.341951 0.77937 1.5 0.397805 1.5 0 
C 1.5 -0.397805 1.341951 -0.77937 1.06066 -1.06066 
C 0.77937 -1.341951 0.397805 -1.5 0 -1.5 
C -0.397805 -1.5 -0.77937 -1.341951 -1.06066 -1.06066 
C -1.341951 -0.77937 -1.5 -0.397805 -1.5 0 
C -1.5 0.397805 -1.341951 0.77937 -1.06066 1.06066 
C -0.77937 1.341951 -0.397805 1.5 0 1.5 
z
" style="stroke: #000000"/>
    </defs>
    <g clip-path="url(#p7385e842ea)">
     <use xlink:href="#mfac00c543a" x="69.218182" y="175.210834" style="stroke: #000000"/>
     <use xlink:href="#mfac00c543a" x="72.292562" y="191.160945" style="stroke: #000000"/>
     <use xlink:href="#mfac00c543a" x="75.366942" y="195.148082" style="stroke: #000000"/>
     <use xlink:href="#mfac00c543a" x="78.441322" y="201.576432" style="stroke: #000000"/>
     <use xlink:href="#mfac00c543a" x="81.515702" y="213.850222" style="stroke: #000000"/>
     <use xlink:href="#mfac00c543a" x="84.590083" y="217.475116" style="stroke: #000000"/>
     <use xlink:href="#mfac00c543a" x="87.664463" y="210.489024" style="stroke: #000000"/>
     <use xlink:href="#mfac00c543a" x="90.738843" y="214.76312" style="stroke: #000000"/>
     <use xlink:href="#mfac00c543a" x="93.813223" y="216.306144" style="stroke: #000000"/>
     <use xlink:href="#mfac00c543a" x="96.887603" y="222.44023" style="stroke: #000000"/>
     <use xlink:href="#mfac00c543a" x="99.961983" y="218.927809" style="stroke: #000000"/>
     <use xlink:href="#mfac00c543a" x="103.036364" y="219.236332" style="stroke: #000000"/>
     <use xlink:href="#mfac00c543a" x="106.110744" y="224.967848" style="stroke: #000000"/>
     <use xlink:href="#mfac00c543a" x="109.185124" y="219.024955" style="stroke: #000000"/>
     <use xlink:href="#mfac00c543a" x="112.259504" y="219.340826" style="stroke: #000000"/>
     <use xlink:href="#mfac00c543a" x="115.333884" y="220.821274" style="stroke: #000000"/>
     <use xlink:href="#mfac00c543a" x="118.408264" y="224.050651" style="stroke: #000000"/>
     <use xlink:href="#mfac00c543a" x="121.482645" y="229.255983" style="stroke: #000000"/>
     <use xlink:href="#mfac00c543a" x="124.557025" y="225.055058" style="stroke: #000000"/>
     <use xlink:href="#mfac00c543a" x="127.631405" y="225.205987" style="stroke: #000000"/>
     <use xlink:href="#mfac00c543a" x="130.705785" y="229.83048" style="stroke: #000000"/>
     <use xlink:href="#mfac00c543a" x="133.780165" y="230.281371" style="stroke: #000000"/>
     <use xlink:href="#mfac00c543a" x="136.854545" y="224.043265" style="stroke: #000000"/>
     <use xlink:href="#mfac00c543a" x="139.928926" y="228.39061" style="stroke: #000000"/>
     <use xlink:href="#mfac00c543a" x="143.003306" y="224.231735" style="stroke: #000000"/>
     <use xlink:href="#mfac00c543a" x="146.077686" y="225.328553" style="stroke: #000000"/>
     <use xlink:href="#mfac00c543a" x="149.152066" y="230.616473" style="stroke: #000000"/>
     <use xlink:href="#mfac00c543a" x="152.226446" y="232.585966" style="stroke: #000000"/>
     <use xlink:href="#mfac00c543a" x="155.300826" y="230.105858" style="stroke: #000000"/>
     <use xlink:href="#mfac00c543a" x="158.375207" y="232.632415" style="stroke: #000000"/>
     <use xlink:href="#mfac00c543a" x="161.449587" y="230.753915" style="stroke: #000000"/>
     <use xlink:href="#mfac00c543a" x="164.523967" y="231.664817" style="stroke: #000000"/>
     <use xlink:href="#mfac00c543a" x="167.598347" y="231.442873" style="stroke: #000000"/>
     <use xlink:href="#mfac00c543a" x="170.672727" y="232.081243" style="stroke: #000000"/>
     <use xlink:href="#mfac00c543a" x="173.747107" y="226.462255" style="stroke: #000000"/>
     <use xlink:href="#mfac00c543a" x="176.821488" y="232.678998" style="stroke: #000000"/>
     <use xlink:href="#mfac00c543a" x="179.895868" y="230.892054" style="stroke: #000000"/>
     <use xlink:href="#mfac00c543a" x="182.970248" y="230.309209" style="stroke: #000000"/>
     <use xlink:href="#mfac00c543a" x="186.044628" y="229.318669" style="stroke: #000000"/>
     <use xlink:href="#mfac00c543a" x="189.119008" y="228.157696" style="stroke: #000000"/>
     <use xlink:href="#mfac00c543a" x="192.193388" y="227.173489" style="stroke: #000000"/>
     <use xlink:href="#mfac00c543a" x="195.267769" y="226.574699" style="stroke: #000000"/>
     <use xlink:href="#mfac00c543a" x="198.342149" y="231.207757" style="stroke: #000000"/>
     <use xlink:href="#mfac00c543a" x="201.416529" y="229.636443" style="stroke: #000000"/>
     <use xlink:href="#mfac00c543a" x="204.490909" y="235.56066" style="stroke: #000000"/>
     <use xlink:href="#mfac00c543a" x="207.565289" y="228.504862" style="stroke: #000000"/>
     <use xlink:href="#mfac00c543a" x="210.639669" y="230.561187" style="stroke: #000000"/>
     <use xlink:href="#mfac00c543a" x="213.71405" y="232.550217" style="stroke: #000000"/>
     <use xlink:href="#mfac00c543a" x="216.78843" y="233.572528" style="stroke: #000000"/>
     <use xlink:href="#mfac00c543a" x="219.86281" y="228.000162" style="stroke: #000000"/>
     <use xlink:href="#mfac00c543a" x="222.93719" y="231.471176" style="stroke: #000000"/>
     <use xlink:href="#mfac00c543a" x="226.01157" y="230.20782" style="stroke: #000000"/>
     <use xlink:href="#mfac00c543a" x="229.08595" y="233.38034" style="stroke: #000000"/>
     <use xlink:href="#mfac00c543a" x="232.160331" y="231.114564" style="stroke: #000000"/>
     <use xlink:href="#mfac00c543a" x="235.234711" y="233.713102" style="stroke: #000000"/>
     <use xlink:href="#mfac00c543a" x="238.309091" y="235.336383" style="stroke: #000000"/>
     <use xlink:href="#mfac00c543a" x="241.383471" y="231.89293" style="stroke: #000000"/>
     <use xlink:href="#mfac00c543a" x="244.457851" y="234.063032" style="stroke: #000000"/>
     <use xlink:href="#mfac00c543a" x="247.532231" y="233.316123" style="stroke: #000000"/>
     <use xlink:href="#mfac00c543a" x="250.606612" y="231.015049" style="stroke: #000000"/>
     <use xlink:href="#mfac00c543a" x="253.680992" y="235.827335" style="stroke: #000000"/>
     <use xlink:href="#mfac00c543a" x="256.755372" y="234.201723" style="stroke: #000000"/>
     <use xlink:href="#mfac00c543a" x="259.829752" y="236.60963" style="stroke: #000000"/>
     <use xlink:href="#mfac00c543a" x="262.904132" y="233.38988" style="stroke: #000000"/>
     <use xlink:href="#mfac00c543a" x="265.978512" y="232.156781" style="stroke: #000000"/>
     <use xlink:href="#mfac00c543a" x="269.052893" y="237.062092" style="stroke: #000000"/>
     <use xlink:href="#mfac00c543a" x="272.127273" y="239.363292" style="stroke: #000000"/>
     <use xlink:href="#mfac00c543a" x="275.201653" y="236.507611" style="stroke: #000000"/>
     <use xlink:href="#mfac00c543a" x="278.276033" y="233.84772" style="stroke: #000000"/>
     <use xlink:href="#mfac00c543a" x="281.350413" y="237.26353" style="stroke: #000000"/>
     <use xlink:href="#mfac00c543a" x="284.424793" y="237.405213" style="stroke: #000000"/>
     <use xlink:href="#mfac00c543a" x="287.499174" y="236.911738" style="stroke: #000000"/>
     <use xlink:href="#mfac00c543a" x="290.573554" y="234.650542" style="stroke: #000000"/>
     <use xlink:href="#mfac00c543a" x="293.647934" y="237.277837" style="stroke: #000000"/>
     <use xlink:href="#mfac00c543a" x="296.722314" y="233.671512" style="stroke: #000000"/>
     <use xlink:href="#mfac00c543a" x="299.796694" y="237.703268" style="stroke: #000000"/>
     <use xlink:href="#mfac00c543a" x="302.871074" y="238.983757" style="stroke: #000000"/>
     <use xlink:href="#mfac00c543a" x="305.945455" y="236.619623" style="stroke: #000000"/>
     <use xlink:href="#mfac00c543a" x="309.019835" y="240.575869" style="stroke: #000000"/>
     <use xlink:href="#mfac00c543a" x="312.094215" y="238.728014" style="stroke: #000000"/>
     <use xlink:href="#mfac00c543a" x="315.168595" y="233.068108" style="stroke: #000000"/>
     <use xlink:href="#mfac00c543a" x="318.242975" y="233.596532" style="stroke: #000000"/>
     <use xlink:href="#mfac00c543a" x="321.317355" y="236.290799" style="stroke: #000000"/>
     <use xlink:href="#mfac00c543a" x="324.391736" y="235.182184" style="stroke: #000000"/>
     <use xlink:href="#mfac00c543a" x="327.466116" y="236.725045" style="stroke: #000000"/>
     <use xlink:href="#mfac00c543a" x="330.540496" y="237.901548" style="stroke: #000000"/>
     <use xlink:href="#mfac00c543a" x="333.614876" y="239.248034" style="stroke: #000000"/>
     <use xlink:href="#mfac00c543a" x="336.689256" y="237.481589" style="stroke: #000000"/>
     <use xlink:href="#mfac00c543a" x="339.763636" y="241.654312" style="stroke: #000000"/>
     <use xlink:href="#mfac00c543a" x="342.838017" y="241.774321" style="stroke: #000000"/>
     <use xlink:href="#mfac00c543a" x="345.912397" y="236.472909" style="stroke: #000000"/>
     <use xlink:href="#mfac00c543a" x="348.986777" y="238.041375" style="stroke: #000000"/>
     <use xlink:href="#mfac00c543a" x="352.061157" y="235.100486" style="stroke: #000000"/>
     <use xlink:href="#mfac00c543a" x="355.135537" y="232.243649" style="stroke: #000000"/>
     <use xlink:href="#mfac00c543a" x="358.209917" y="235.664025" style="stroke: #000000"/>
     <use xlink:href="#mfac00c543a" x="361.284298" y="240.452187" style="stroke: #000000"/>
     <use xlink:href="#mfac00c543a" x="364.358678" y="242.116364" style="stroke: #000000"/>
     <use xlink:href="#mfac00c543a" x="367.433058" y="239.095321" style="stroke: #000000"/>
     <use xlink:href="#mfac00c543a" x="370.507438" y="236.972244" style="stroke: #000000"/>
     <use xlink:href="#mfac00c543a" x="373.581818" y="237.373804" style="stroke: #000000"/>
    </g>
   </g>
   <g id="patch_3">
    <path d="M 54 252 
L 54 34.56 
" style="fill: none; stroke: #000000; stroke-width: 0.8; stroke-linejoin: miter; stroke-linecap: square"/>
   </g>
   <g id="patch_4">
    <path d="M 388.8 252 
L 388.8 34.56 
" style="fill: none; stroke: #000000; stroke-width: 0.8; stroke-linejoin: miter; stroke-linecap: square"/>
   </g>
   <g id="patch_5">
    <path d="M 54 252 
L 388.8 252 
" style="fill: none; stroke: #000000; stroke-width: 0.8; stroke-linejoin: miter; stroke-linecap: square"/>
   </g>
   <g id="patch_6">
    <path d="M 54 34.56 
L 388.8 34.56 
" style="fill: none; stroke: #000000; stroke-width: 0.8; stroke-linejoin: miter; stroke-linecap: square"/>
   </g>
   <g id="legend_1">
    <g id="patch_7">
     <path d="M 294.9 181.475313 
L 381.8 181.475313 
Q 383.8 181.475313 383.8 179.475313 
L 383.8 107.084688 
Q 383.8 105.084688 381.8 105.084688 
L 294.9 105.084688 
Q 292.9 105.084688 292.9 107.084688 
L 292.9 179.475313 
Q 292.9 181.475313 294.9 181.475313 
z
" style="fill: #ffffff; opacity: 0.8; stroke: #cccccc; stroke-linejoin: miter"/>
    </g>
    <g id="line2d_22">
     <path d="M 296.9 113.183125 
L 306.9 113.183125 
L 316.9 113.183125 
" style="fill: none; stroke: #000000; stroke-width: 1.5; stroke-linecap: square"/>
    </g>
    <g id="text_10">
     <!-- $2^{7}$ actions -->
     <g transform="translate(324.9 116.683125)scale(0.1 -0.1)">
      <defs>
       <path id="DejaVuSans-37" d="M 525 4666 
L 3525 4666 
L 3525 4397 
L 1831 0 
L 1172 0 
L 2766 4134 
L 525 4134 
L 525 4666 
z
" transform="scale(0.015625)"/>
       <path id="DejaVuSans-20" transform="scale(0.015625)"/>
       <path id="DejaVuSans-63" d="M 3122 3366 
L 3122 2828 
Q 2878 2963 2633 3030 
Q 2388 3097 2138 3097 
Q 1578 3097 1268 2742 
Q 959 2388 959 1747 
Q 959 1106 1268 751 
Q 1578 397 2138 397 
Q 2388 397 2633 464 
Q 2878 531 3122 666 
L 3122 134 
Q 2881 22 2623 -34 
Q 2366 -91 2075 -91 
Q 1284 -91 818 406 
Q 353 903 353 1747 
Q 353 2603 823 3093 
Q 1294 3584 2113 3584 
Q 2378 3584 2631 3529 
Q 2884 3475 3122 3366 
z
" transform="scale(0.015625)"/>
      </defs>
      <use xlink:href="#DejaVuSans-32" transform="translate(0 0.684375)"/>
      <use xlink:href="#DejaVuSans-37" transform="translate(64.580078 38.965625)scale(0.7)"/>
      <use xlink:href="#DejaVuSans-20" transform="translate(111.850586 0.684375)"/>
      <use xlink:href="#DejaVuSans-61" transform="translate(143.637695 0.684375)"/>
      <use xlink:href="#DejaVuSans-63" transform="translate(204.916992 0.684375)"/>
      <use xlink:href="#DejaVuSans-74" transform="translate(259.897461 0.684375)"/>
      <use xlink:href="#DejaVuSans-69" transform="translate(299.106445 0.684375)"/>
      <use xlink:href="#DejaVuSans-6f" transform="translate(326.889648 0.684375)"/>
      <use xlink:href="#DejaVuSans-6e" transform="translate(388.071289 0.684375)"/>
      <use xlink:href="#DejaVuSans-73" transform="translate(451.450195 0.684375)"/>
     </g>
    </g>
    <g id="line2d_23">
     <path d="M 296.9 127.86125 
L 306.9 127.86125 
L 316.9 127.86125 
" style="fill: none; stroke-dasharray: 5.55,2.4; stroke-dashoffset: 0; stroke: #000000; stroke-width: 1.5"/>
    </g>
    <g id="text_11">
     <!-- $2^{8}$ actions -->
     <g transform="translate(324.9 131.36125)scale(0.1 -0.1)">
      <use xlink:href="#DejaVuSans-32" transform="translate(0 0.765625)"/>
      <use xlink:href="#DejaVuSans-38" transform="translate(64.580078 39.046875)scale(0.7)"/>
      <use xlink:href="#DejaVuSans-20" transform="translate(111.850586 0.765625)"/>
      <use xlink:href="#DejaVuSans-61" transform="translate(143.637695 0.765625)"/>
      <use xlink:href="#DejaVuSans-63" transform="translate(204.916992 0.765625)"/>
      <use xlink:href="#DejaVuSans-74" transform="translate(259.897461 0.765625)"/>
      <use xlink:href="#DejaVuSans-69" transform="translate(299.106445 0.765625)"/>
      <use xlink:href="#DejaVuSans-6f" transform="translate(326.889648 0.765625)"/>
      <use xlink:href="#DejaVuSans-6e" transform="translate(388.071289 0.765625)"/>
      <use xlink:href="#DejaVuSans-73" transform="translate(451.450195 0.765625)"/>
     </g>
    </g>
    <g id="line2d_24">
     <path d="M 296.9 142.539375 
L 306.9 142.539375 
L 316.9 142.539375 
" style="fill: none; stroke-dasharray: 1.5,2.475; stroke-dashoffset: 0; stroke: #000000; stroke-width: 1.5"/>
    </g>
    <g id="text_12">
     <!-- $2^{9}$ actions -->
     <g transform="translate(324.9 146.039375)scale(0.1 -0.1)">
      <defs>
       <path id="DejaVuSans-39" d="M 703 97 
L 703 672 
Q 941 559 1184 500 
Q 1428 441 1663 441 
Q 2288 441 2617 861 
Q 2947 1281 2994 2138 
Q 2813 1869 2534 1725 
Q 2256 1581 1919 1581 
Q 1219 1581 811 2004 
Q 403 2428 403 3163 
Q 403 3881 828 4315 
Q 1253 4750 1959 4750 
Q 2769 4750 3195 4129 
Q 3622 3509 3622 2328 
Q 3622 1225 3098 567 
Q 2575 -91 1691 -91 
Q 1453 -91 1209 -44 
Q 966 3 703 97 
z
M 1959 2075 
Q 2384 2075 2632 2365 
Q 2881 2656 2881 3163 
Q 2881 3666 2632 3958 
Q 2384 4250 1959 4250 
Q 1534 4250 1286 3958 
Q 1038 3666 1038 3163 
Q 1038 2656 1286 2365 
Q 1534 2075 1959 2075 
z
" transform="scale(0.015625)"/>
      </defs>
      <use xlink:href="#DejaVuSans-32" transform="translate(0 0.765625)"/>
      <use xlink:href="#DejaVuSans-39" transform="translate(64.580078 39.046875)scale(0.7)"/>
      <use xlink:href="#DejaVuSans-20" transform="translate(111.850586 0.765625)"/>
      <use xlink:href="#DejaVuSans-61" transform="translate(143.637695 0.765625)"/>
      <use xlink:href="#DejaVuSans-63" transform="translate(204.916992 0.765625)"/>
      <use xlink:href="#DejaVuSans-74" transform="translate(259.897461 0.765625)"/>
      <use xlink:href="#DejaVuSans-69" transform="translate(299.106445 0.765625)"/>
      <use xlink:href="#DejaVuSans-6f" transform="translate(326.889648 0.765625)"/>
      <use xlink:href="#DejaVuSans-6e" transform="translate(388.071289 0.765625)"/>
      <use xlink:href="#DejaVuSans-73" transform="translate(451.450195 0.765625)"/>
     </g>
    </g>
    <g id="line2d_25">
     <path d="M 296.9 157.2175 
L 306.9 157.2175 
L 316.9 157.2175 
" style="fill: none; stroke-dasharray: 9.6,2.4,1.5,2.4; stroke-dashoffset: 0; stroke: #000000; stroke-width: 1.5"/>
    </g>
    <g id="text_13">
     <!-- $2^{10}$ actions -->
     <g transform="translate(324.9 160.7175)scale(0.1 -0.1)">
      <use xlink:href="#DejaVuSans-32" transform="translate(0 0.765625)"/>
      <use xlink:href="#DejaVuSans-31" transform="translate(64.580078 39.046875)scale(0.7)"/>
      <use xlink:href="#DejaVuSans-30" transform="translate(109.116211 39.046875)scale(0.7)"/>
      <use xlink:href="#DejaVuSans-20" transform="translate(156.386719 0.765625)"/>
      <use xlink:href="#DejaVuSans-61" transform="translate(188.173828 0.765625)"/>
      <use xlink:href="#DejaVuSans-63" transform="translate(249.453125 0.765625)"/>
      <use xlink:href="#DejaVuSans-74" transform="translate(304.433594 0.765625)"/>
      <use xlink:href="#DejaVuSans-69" transform="translate(343.642578 0.765625)"/>
      <use xlink:href="#DejaVuSans-6f" transform="translate(371.425781 0.765625)"/>
      <use xlink:href="#DejaVuSans-6e" transform="translate(432.607422 0.765625)"/>
      <use xlink:href="#DejaVuSans-73" transform="translate(495.986328 0.765625)"/>
     </g>
    </g>
    <g id="line2d_26">
     <path d="M 296.9 171.895625 
L 306.9 171.895625 
L 316.9 171.895625 
" style="fill: none; stroke: #000000; stroke-width: 1.5; stroke-linecap: square"/>
     <g>
      <use xlink:href="#mfac00c543a" x="306.9" y="171.895625" style="stroke: #000000"/>
     </g>
    </g>
    <g id="text_14">
     <!-- $2^{11}$ actions -->
     <g transform="translate(324.9 175.395625)scale(0.1 -0.1)">
      <use xlink:href="#DejaVuSans-32" transform="translate(0 0.684375)"/>
      <use xlink:href="#DejaVuSans-31" transform="translate(64.580078 38.965625)scale(0.7)"/>
      <use xlink:href="#DejaVuSans-31" transform="translate(109.116211 38.965625)scale(0.7)"/>
      <use xlink:href="#DejaVuSans-20" transform="translate(156.386719 0.684375)"/>
      <use xlink:href="#DejaVuSans-61" transform="translate(188.173828 0.684375)"/>
      <use xlink:href="#DejaVuSans-63" transform="translate(249.453125 0.684375)"/>
      <use xlink:href="#DejaVuSans-74" transform="translate(304.433594 0.684375)"/>
      <use xlink:href="#DejaVuSans-69" transform="translate(343.642578 0.684375)"/>
      <use xlink:href="#DejaVuSans-6f" transform="translate(371.425781 0.684375)"/>
      <use xlink:href="#DejaVuSans-6e" transform="translate(432.607422 0.684375)"/>
      <use xlink:href="#DejaVuSans-73" transform="translate(495.986328 0.684375)"/>
     </g>
    </g>
   </g>
  </g>
 </g>
 <defs>
  <clipPath id="p7385e842ea">
   <rect x="54" y="34.56" width="334.8" height="217.44"/>
  </clipPath>
 </defs>
</svg>
