<?xml version="1.0" encoding="utf-8" standalone="no"?>
<!DOCTYPE svg PUBLIC "-//W3C//DTD SVG 1.1//EN"
  "http://www.w3.org/Graphics/SVG/1.1/DTD/svg11.dtd">
<svg xmlns:xlink="http://www.w3.org/1999/xlink" width="432pt" height="288pt" viewBox="0 0 432 288" xmlns="http://www.w3.org/2000/svg" version="1.1">
 <metadata>
  <rdf:RDF xmlns:dc="http://purl.org/dc/elements/1.1/" xmlns:cc="http://creativecommons.org/ns#" xmlns:rdf="http://www.w3.org/1999/02/22-rdf-syntax-ns#">
   <cc:Work>
    <dc:type rdf:resource="http://purl.org/dc/dcmitype/StillImage"/>
    <dc:date>2023-05-29T18:05:17.828525</dc:date>
    <dc:format>image/svg+xml</dc:format>
    <dc:creator>
     <cc:Agent>
      <dc:title>Matplotlib v3.5.1, https://matplotlib.org/</dc:title>
     </cc:Agent>
    </dc:creator>
   </cc:Work>
  </rdf:RDF>
 </metadata>
 <defs>
  <style type="text/css">*{stroke-linejoin: round; stroke-linecap: butt}</style>
 </defs>
 <g id="figure_1">
  <g id="patch_1">
   <path d="M 0 288 
L 432 288 
L 432 0 
L 0 0 
L 0 288 
z
" style="fill: none"/>
  </g>
  <g id="axes_1">
   <g id="patch_2">
    <path d="M 54 252 
L 388.8 252 
L 388.8 34.56 
L 54 34.56 
z
" style="fill: #ffffff"/>
   </g>
   <g id="matplotlib.axis_1">
    <g id="xtick_1">
     <g id="line2d_1">
      <defs>
       <path id="m818a34e5da" d="M 0 0 
L 0 3.5 
" style="stroke: #000000; stroke-width: 0.8"/>
      </defs>
      <g>
       <use xlink:href="#m818a34e5da" x="131.892111" y="252" style="stroke: #000000; stroke-width: 0.8"/>
      </g>
     </g>
     <g id="text_1">
      <!-- $\mathdefault{10^{1}}$ -->
      <g transform="translate(123.092111 266.598437)scale(0.1 -0.1)">
       <defs>
        <path id="DejaVuSans-31" d="M 794 531 
L 1825 531 
L 1825 4091 
L 703 3866 
L 703 4441 
L 1819 4666 
L 2450 4666 
L 2450 531 
L 3481 531 
L 3481 0 
L 794 0 
L 794 531 
z
" transform="scale(0.015625)"/>
        <path id="DejaVuSans-30" d="M 2034 4250 
Q 1547 4250 1301 3770 
Q 1056 3291 1056 2328 
Q 1056 1369 1301 889 
Q 1547 409 2034 409 
Q 2525 409 2770 889 
Q 3016 1369 3016 2328 
Q 3016 3291 2770 3770 
Q 2525 4250 2034 4250 
z
M 2034 4750 
Q 2819 4750 3233 4129 
Q 3647 3509 3647 2328 
Q 3647 1150 3233 529 
Q 2819 -91 2034 -91 
Q 1250 -91 836 529 
Q 422 1150 422 2328 
Q 422 3509 836 4129 
Q 1250 4750 2034 4750 
z
" transform="scale(0.015625)"/>
       </defs>
       <use xlink:href="#DejaVuSans-31" transform="translate(0 0.684375)"/>
       <use xlink:href="#DejaVuSans-30" transform="translate(63.623047 0.684375)"/>
       <use xlink:href="#DejaVuSans-31" transform="translate(128.203125 38.965625)scale(0.7)"/>
      </g>
     </g>
    </g>
    <g id="xtick_2">
     <g id="line2d_2">
      <g>
       <use xlink:href="#m818a34e5da" x="255.2798" y="252" style="stroke: #000000; stroke-width: 0.8"/>
      </g>
     </g>
     <g id="text_2">
      <!-- $\mathdefault{10^{2}}$ -->
      <g transform="translate(246.4798 266.598437)scale(0.1 -0.1)">
       <defs>
        <path id="DejaVuSans-32" d="M 1228 531 
L 3431 531 
L 3431 0 
L 469 0 
L 469 531 
Q 828 903 1448 1529 
Q 2069 2156 2228 2338 
Q 2531 2678 2651 2914 
Q 2772 3150 2772 3378 
Q 2772 3750 2511 3984 
Q 2250 4219 1831 4219 
Q 1534 4219 1204 4116 
Q 875 4013 500 3803 
L 500 4441 
Q 881 4594 1212 4672 
Q 1544 4750 1819 4750 
Q 2544 4750 2975 4387 
Q 3406 4025 3406 3419 
Q 3406 3131 3298 2873 
Q 3191 2616 2906 2266 
Q 2828 2175 2409 1742 
Q 1991 1309 1228 531 
z
" transform="scale(0.015625)"/>
       </defs>
       <use xlink:href="#DejaVuSans-31" transform="translate(0 0.765625)"/>
       <use xlink:href="#DejaVuSans-30" transform="translate(63.623047 0.765625)"/>
       <use xlink:href="#DejaVuSans-32" transform="translate(128.203125 39.046875)scale(0.7)"/>
      </g>
     </g>
    </g>
    <g id="xtick_3">
     <g id="line2d_3">
      <g>
       <use xlink:href="#m818a34e5da" x="378.66749" y="252" style="stroke: #000000; stroke-width: 0.8"/>
      </g>
     </g>
     <g id="text_3">
      <!-- $\mathdefault{10^{3}}$ -->
      <g transform="translate(369.86749 266.598437)scale(0.1 -0.1)">
       <defs>
        <path id="DejaVuSans-33" d="M 2597 2516 
Q 3050 2419 3304 2112 
Q 3559 1806 3559 1356 
Q 3559 666 3084 287 
Q 2609 -91 1734 -91 
Q 1441 -91 1130 -33 
Q 819 25 488 141 
L 488 750 
Q 750 597 1062 519 
Q 1375 441 1716 441 
Q 2309 441 2620 675 
Q 2931 909 2931 1356 
Q 2931 1769 2642 2001 
Q 2353 2234 1838 2234 
L 1294 2234 
L 1294 2753 
L 1863 2753 
Q 2328 2753 2575 2939 
Q 2822 3125 2822 3475 
Q 2822 3834 2567 4026 
Q 2313 4219 1838 4219 
Q 1578 4219 1281 4162 
Q 984 4106 628 3988 
L 628 4550 
Q 988 4650 1302 4700 
Q 1616 4750 1894 4750 
Q 2613 4750 3031 4423 
Q 3450 4097 3450 3541 
Q 3450 3153 3228 2886 
Q 3006 2619 2597 2516 
z
" transform="scale(0.015625)"/>
       </defs>
       <use xlink:href="#DejaVuSans-31" transform="translate(0 0.765625)"/>
       <use xlink:href="#DejaVuSans-30" transform="translate(63.623047 0.765625)"/>
       <use xlink:href="#DejaVuSans-33" transform="translate(128.203125 39.046875)scale(0.7)"/>
      </g>
     </g>
    </g>
    <g id="xtick_4">
     <g id="line2d_4">
      <defs>
       <path id="m833c0cf6a7" d="M 0 0 
L 0 2 
" style="stroke: #000000; stroke-width: 0.6"/>
      </defs>
      <g>
       <use xlink:href="#m833c0cf6a7" x="67.375311" y="252" style="stroke: #000000; stroke-width: 0.6"/>
      </g>
     </g>
    </g>
    <g id="xtick_5">
     <g id="line2d_5">
      <g>
       <use xlink:href="#m833c0cf6a7" x="82.791213" y="252" style="stroke: #000000; stroke-width: 0.6"/>
      </g>
     </g>
    </g>
    <g id="xtick_6">
     <g id="line2d_6">
      <g>
       <use xlink:href="#m833c0cf6a7" x="94.748715" y="252" style="stroke: #000000; stroke-width: 0.6"/>
      </g>
     </g>
    </g>
    <g id="xtick_7">
     <g id="line2d_7">
      <g>
       <use xlink:href="#m833c0cf6a7" x="104.518706" y="252" style="stroke: #000000; stroke-width: 0.6"/>
      </g>
     </g>
    </g>
    <g id="xtick_8">
     <g id="line2d_8">
      <g>
       <use xlink:href="#m833c0cf6a7" x="112.779116" y="252" style="stroke: #000000; stroke-width: 0.6"/>
      </g>
     </g>
    </g>
    <g id="xtick_9">
     <g id="line2d_9">
      <g>
       <use xlink:href="#m833c0cf6a7" x="119.934608" y="252" style="stroke: #000000; stroke-width: 0.6"/>
      </g>
     </g>
    </g>
    <g id="xtick_10">
     <g id="line2d_10">
      <g>
       <use xlink:href="#m833c0cf6a7" x="126.2462" y="252" style="stroke: #000000; stroke-width: 0.6"/>
      </g>
     </g>
    </g>
    <g id="xtick_11">
     <g id="line2d_11">
      <g>
       <use xlink:href="#m833c0cf6a7" x="169.035506" y="252" style="stroke: #000000; stroke-width: 0.6"/>
      </g>
     </g>
    </g>
    <g id="xtick_12">
     <g id="line2d_12">
      <g>
       <use xlink:href="#m833c0cf6a7" x="190.763" y="252" style="stroke: #000000; stroke-width: 0.6"/>
      </g>
     </g>
    </g>
    <g id="xtick_13">
     <g id="line2d_13">
      <g>
       <use xlink:href="#m833c0cf6a7" x="206.178902" y="252" style="stroke: #000000; stroke-width: 0.6"/>
      </g>
     </g>
    </g>
    <g id="xtick_14">
     <g id="line2d_14">
      <g>
       <use xlink:href="#m833c0cf6a7" x="218.136405" y="252" style="stroke: #000000; stroke-width: 0.6"/>
      </g>
     </g>
    </g>
    <g id="xtick_15">
     <g id="line2d_15">
      <g>
       <use xlink:href="#m833c0cf6a7" x="227.906396" y="252" style="stroke: #000000; stroke-width: 0.6"/>
      </g>
     </g>
    </g>
    <g id="xtick_16">
     <g id="line2d_16">
      <g>
       <use xlink:href="#m833c0cf6a7" x="236.166805" y="252" style="stroke: #000000; stroke-width: 0.6"/>
      </g>
     </g>
    </g>
    <g id="xtick_17">
     <g id="line2d_17">
      <g>
       <use xlink:href="#m833c0cf6a7" x="243.322298" y="252" style="stroke: #000000; stroke-width: 0.6"/>
      </g>
     </g>
    </g>
    <g id="xtick_18">
     <g id="line2d_18">
      <g>
       <use xlink:href="#m833c0cf6a7" x="249.633889" y="252" style="stroke: #000000; stroke-width: 0.6"/>
      </g>
     </g>
    </g>
    <g id="xtick_19">
     <g id="line2d_19">
      <g>
       <use xlink:href="#m833c0cf6a7" x="292.423196" y="252" style="stroke: #000000; stroke-width: 0.6"/>
      </g>
     </g>
    </g>
    <g id="xtick_20">
     <g id="line2d_20">
      <g>
       <use xlink:href="#m833c0cf6a7" x="314.15069" y="252" style="stroke: #000000; stroke-width: 0.6"/>
      </g>
     </g>
    </g>
    <g id="xtick_21">
     <g id="line2d_21">
      <g>
       <use xlink:href="#m833c0cf6a7" x="329.566592" y="252" style="stroke: #000000; stroke-width: 0.6"/>
      </g>
     </g>
    </g>
    <g id="xtick_22">
     <g id="line2d_22">
      <g>
       <use xlink:href="#m833c0cf6a7" x="341.524094" y="252" style="stroke: #000000; stroke-width: 0.6"/>
      </g>
     </g>
    </g>
    <g id="xtick_23">
     <g id="line2d_23">
      <g>
       <use xlink:href="#m833c0cf6a7" x="351.294085" y="252" style="stroke: #000000; stroke-width: 0.6"/>
      </g>
     </g>
    </g>
    <g id="xtick_24">
     <g id="line2d_24">
      <g>
       <use xlink:href="#m833c0cf6a7" x="359.554495" y="252" style="stroke: #000000; stroke-width: 0.6"/>
      </g>
     </g>
    </g>
    <g id="xtick_25">
     <g id="line2d_25">
      <g>
       <use xlink:href="#m833c0cf6a7" x="366.709987" y="252" style="stroke: #000000; stroke-width: 0.6"/>
      </g>
     </g>
    </g>
    <g id="xtick_26">
     <g id="line2d_26">
      <g>
       <use xlink:href="#m833c0cf6a7" x="373.021579" y="252" style="stroke: #000000; stroke-width: 0.6"/>
      </g>
     </g>
    </g>
    <g id="text_4">
     <!-- time (s) -->
     <g transform="translate(202.008594 280.276563)scale(0.1 -0.1)">
      <defs>
       <path id="DejaVuSans-74" d="M 1172 4494 
L 1172 3500 
L 2356 3500 
L 2356 3053 
L 1172 3053 
L 1172 1153 
Q 1172 725 1289 603 
Q 1406 481 1766 481 
L 2356 481 
L 2356 0 
L 1766 0 
Q 1100 0 847 248 
Q 594 497 594 1153 
L 594 3053 
L 172 3053 
L 172 3500 
L 594 3500 
L 594 4494 
L 1172 4494 
z
" transform="scale(0.015625)"/>
       <path id="DejaVuSans-69" d="M 603 3500 
L 1178 3500 
L 1178 0 
L 603 0 
L 603 3500 
z
M 603 4863 
L 1178 4863 
L 1178 4134 
L 603 4134 
L 603 4863 
z
" transform="scale(0.015625)"/>
       <path id="DejaVuSans-6d" d="M 3328 2828 
Q 3544 3216 3844 3400 
Q 4144 3584 4550 3584 
Q 5097 3584 5394 3201 
Q 5691 2819 5691 2113 
L 5691 0 
L 5113 0 
L 5113 2094 
Q 5113 2597 4934 2840 
Q 4756 3084 4391 3084 
Q 3944 3084 3684 2787 
Q 3425 2491 3425 1978 
L 3425 0 
L 2847 0 
L 2847 2094 
Q 2847 2600 2669 2842 
Q 2491 3084 2119 3084 
Q 1678 3084 1418 2786 
Q 1159 2488 1159 1978 
L 1159 0 
L 581 0 
L 581 3500 
L 1159 3500 
L 1159 2956 
Q 1356 3278 1631 3431 
Q 1906 3584 2284 3584 
Q 2666 3584 2933 3390 
Q 3200 3197 3328 2828 
z
" transform="scale(0.015625)"/>
       <path id="DejaVuSans-65" d="M 3597 1894 
L 3597 1613 
L 953 1613 
Q 991 1019 1311 708 
Q 1631 397 2203 397 
Q 2534 397 2845 478 
Q 3156 559 3463 722 
L 3463 178 
Q 3153 47 2828 -22 
Q 2503 -91 2169 -91 
Q 1331 -91 842 396 
Q 353 884 353 1716 
Q 353 2575 817 3079 
Q 1281 3584 2069 3584 
Q 2775 3584 3186 3129 
Q 3597 2675 3597 1894 
z
M 3022 2063 
Q 3016 2534 2758 2815 
Q 2500 3097 2075 3097 
Q 1594 3097 1305 2825 
Q 1016 2553 972 2059 
L 3022 2063 
z
" transform="scale(0.015625)"/>
       <path id="DejaVuSans-20" transform="scale(0.015625)"/>
       <path id="DejaVuSans-28" d="M 1984 4856 
Q 1566 4138 1362 3434 
Q 1159 2731 1159 2009 
Q 1159 1288 1364 580 
Q 1569 -128 1984 -844 
L 1484 -844 
Q 1016 -109 783 600 
Q 550 1309 550 2009 
Q 550 2706 781 3412 
Q 1013 4119 1484 4856 
L 1984 4856 
z
" transform="scale(0.015625)"/>
       <path id="DejaVuSans-73" d="M 2834 3397 
L 2834 2853 
Q 2591 2978 2328 3040 
Q 2066 3103 1784 3103 
Q 1356 3103 1142 2972 
Q 928 2841 928 2578 
Q 928 2378 1081 2264 
Q 1234 2150 1697 2047 
L 1894 2003 
Q 2506 1872 2764 1633 
Q 3022 1394 3022 966 
Q 3022 478 2636 193 
Q 2250 -91 1575 -91 
Q 1294 -91 989 -36 
Q 684 19 347 128 
L 347 722 
Q 666 556 975 473 
Q 1284 391 1588 391 
Q 1994 391 2212 530 
Q 2431 669 2431 922 
Q 2431 1156 2273 1281 
Q 2116 1406 1581 1522 
L 1381 1569 
Q 847 1681 609 1914 
Q 372 2147 372 2553 
Q 372 3047 722 3315 
Q 1072 3584 1716 3584 
Q 2034 3584 2315 3537 
Q 2597 3491 2834 3397 
z
" transform="scale(0.015625)"/>
       <path id="DejaVuSans-29" d="M 513 4856 
L 1013 4856 
Q 1481 4119 1714 3412 
Q 1947 2706 1947 2009 
Q 1947 1309 1714 600 
Q 1481 -109 1013 -844 
L 513 -844 
Q 928 -128 1133 580 
Q 1338 1288 1338 2009 
Q 1338 2731 1133 3434 
Q 928 4138 513 4856 
z
" transform="scale(0.015625)"/>
      </defs>
      <use xlink:href="#DejaVuSans-74"/>
      <use xlink:href="#DejaVuSans-69" x="39.208984"/>
      <use xlink:href="#DejaVuSans-6d" x="66.992188"/>
      <use xlink:href="#DejaVuSans-65" x="164.404297"/>
      <use xlink:href="#DejaVuSans-20" x="225.927734"/>
      <use xlink:href="#DejaVuSans-28" x="257.714844"/>
      <use xlink:href="#DejaVuSans-73" x="296.728516"/>
      <use xlink:href="#DejaVuSans-29" x="348.828125"/>
     </g>
    </g>
   </g>
   <g id="matplotlib.axis_2">
    <g id="ytick_1">
     <g id="line2d_27">
      <defs>
       <path id="m2934b7fe67" d="M 0 0 
L -3.5 0 
" style="stroke: #000000; stroke-width: 0.8"/>
      </defs>
      <g>
       <use xlink:href="#m2934b7fe67" x="54" y="199.934212" style="stroke: #000000; stroke-width: 0.8"/>
      </g>
     </g>
     <g id="text_5">
      <!-- $\mathdefault{10^{-3}}$ -->
      <g transform="translate(23.5 203.733431)scale(0.1 -0.1)">
       <defs>
        <path id="DejaVuSans-2212" d="M 678 2272 
L 4684 2272 
L 4684 1741 
L 678 1741 
L 678 2272 
z
" transform="scale(0.015625)"/>
       </defs>
       <use xlink:href="#DejaVuSans-31" transform="translate(0 0.765625)"/>
       <use xlink:href="#DejaVuSans-30" transform="translate(63.623047 0.765625)"/>
       <use xlink:href="#DejaVuSans-2212" transform="translate(128.203125 39.046875)scale(0.7)"/>
       <use xlink:href="#DejaVuSans-33" transform="translate(186.855469 39.046875)scale(0.7)"/>
      </g>
     </g>
    </g>
    <g id="ytick_2">
     <g id="line2d_28">
      <g>
       <use xlink:href="#m2934b7fe67" x="54" y="106.888456" style="stroke: #000000; stroke-width: 0.8"/>
      </g>
     </g>
     <g id="text_6">
      <!-- $\mathdefault{10^{-2}}$ -->
      <g transform="translate(23.5 110.687674)scale(0.1 -0.1)">
       <use xlink:href="#DejaVuSans-31" transform="translate(0 0.765625)"/>
       <use xlink:href="#DejaVuSans-30" transform="translate(63.623047 0.765625)"/>
       <use xlink:href="#DejaVuSans-2212" transform="translate(128.203125 39.046875)scale(0.7)"/>
       <use xlink:href="#DejaVuSans-32" transform="translate(186.855469 39.046875)scale(0.7)"/>
      </g>
     </g>
    </g>
    <g id="ytick_3">
     <g id="line2d_29">
      <defs>
       <path id="m77d6e3315d" d="M 0 0 
L -2 0 
" style="stroke: #000000; stroke-width: 0.6"/>
      </defs>
      <g>
       <use xlink:href="#m77d6e3315d" x="54" y="248.58586" style="stroke: #000000; stroke-width: 0.6"/>
      </g>
     </g>
    </g>
    <g id="ytick_4">
     <g id="line2d_30">
      <g>
       <use xlink:href="#m77d6e3315d" x="54" y="236.960841" style="stroke: #000000; stroke-width: 0.6"/>
      </g>
     </g>
    </g>
    <g id="ytick_5">
     <g id="line2d_31">
      <g>
       <use xlink:href="#m77d6e3315d" x="54" y="227.943776" style="stroke: #000000; stroke-width: 0.6"/>
      </g>
     </g>
    </g>
    <g id="ytick_6">
     <g id="line2d_32">
      <g>
       <use xlink:href="#m77d6e3315d" x="54" y="220.576297" style="stroke: #000000; stroke-width: 0.6"/>
      </g>
     </g>
    </g>
    <g id="ytick_7">
     <g id="line2d_33">
      <g>
       <use xlink:href="#m77d6e3315d" x="54" y="214.347182" style="stroke: #000000; stroke-width: 0.6"/>
      </g>
     </g>
    </g>
    <g id="ytick_8">
     <g id="line2d_34">
      <g>
       <use xlink:href="#m77d6e3315d" x="54" y="208.951277" style="stroke: #000000; stroke-width: 0.6"/>
      </g>
     </g>
    </g>
    <g id="ytick_9">
     <g id="line2d_35">
      <g>
       <use xlink:href="#m77d6e3315d" x="54" y="204.191752" style="stroke: #000000; stroke-width: 0.6"/>
      </g>
     </g>
    </g>
    <g id="ytick_10">
     <g id="line2d_36">
      <g>
       <use xlink:href="#m77d6e3315d" x="54" y="171.924648" style="stroke: #000000; stroke-width: 0.6"/>
      </g>
     </g>
    </g>
    <g id="ytick_11">
     <g id="line2d_37">
      <g>
       <use xlink:href="#m77d6e3315d" x="54" y="155.540104" style="stroke: #000000; stroke-width: 0.6"/>
      </g>
     </g>
    </g>
    <g id="ytick_12">
     <g id="line2d_38">
      <g>
       <use xlink:href="#m77d6e3315d" x="54" y="143.915085" style="stroke: #000000; stroke-width: 0.6"/>
      </g>
     </g>
    </g>
    <g id="ytick_13">
     <g id="line2d_39">
      <g>
       <use xlink:href="#m77d6e3315d" x="54" y="134.898019" style="stroke: #000000; stroke-width: 0.6"/>
      </g>
     </g>
    </g>
    <g id="ytick_14">
     <g id="line2d_40">
      <g>
       <use xlink:href="#m77d6e3315d" x="54" y="127.53054" style="stroke: #000000; stroke-width: 0.6"/>
      </g>
     </g>
    </g>
    <g id="ytick_15">
     <g id="line2d_41">
      <g>
       <use xlink:href="#m77d6e3315d" x="54" y="121.301426" style="stroke: #000000; stroke-width: 0.6"/>
      </g>
     </g>
    </g>
    <g id="ytick_16">
     <g id="line2d_42">
      <g>
       <use xlink:href="#m77d6e3315d" x="54" y="115.905521" style="stroke: #000000; stroke-width: 0.6"/>
      </g>
     </g>
    </g>
    <g id="ytick_17">
     <g id="line2d_43">
      <g>
       <use xlink:href="#m77d6e3315d" x="54" y="111.145996" style="stroke: #000000; stroke-width: 0.6"/>
      </g>
     </g>
    </g>
    <g id="ytick_18">
     <g id="line2d_44">
      <g>
       <use xlink:href="#m77d6e3315d" x="54" y="78.878892" style="stroke: #000000; stroke-width: 0.6"/>
      </g>
     </g>
    </g>
    <g id="ytick_19">
     <g id="line2d_45">
      <g>
       <use xlink:href="#m77d6e3315d" x="54" y="62.494348" style="stroke: #000000; stroke-width: 0.6"/>
      </g>
     </g>
    </g>
    <g id="ytick_20">
     <g id="line2d_46">
      <g>
       <use xlink:href="#m77d6e3315d" x="54" y="50.869328" style="stroke: #000000; stroke-width: 0.6"/>
      </g>
     </g>
    </g>
    <g id="ytick_21">
     <g id="line2d_47">
      <g>
       <use xlink:href="#m77d6e3315d" x="54" y="41.852263" style="stroke: #000000; stroke-width: 0.6"/>
      </g>
     </g>
    </g>
    <g id="text_7">
     <!-- NashConv -->
     <g transform="translate(17.420312 168.537031)rotate(-90)scale(0.1 -0.1)">
      <defs>
       <path id="DejaVuSans-4e" d="M 628 4666 
L 1478 4666 
L 3547 763 
L 3547 4666 
L 4159 4666 
L 4159 0 
L 3309 0 
L 1241 3903 
L 1241 0 
L 628 0 
L 628 4666 
z
" transform="scale(0.015625)"/>
       <path id="DejaVuSans-61" d="M 2194 1759 
Q 1497 1759 1228 1600 
Q 959 1441 959 1056 
Q 959 750 1161 570 
Q 1363 391 1709 391 
Q 2188 391 2477 730 
Q 2766 1069 2766 1631 
L 2766 1759 
L 2194 1759 
z
M 3341 1997 
L 3341 0 
L 2766 0 
L 2766 531 
Q 2569 213 2275 61 
Q 1981 -91 1556 -91 
Q 1019 -91 701 211 
Q 384 513 384 1019 
Q 384 1609 779 1909 
Q 1175 2209 1959 2209 
L 2766 2209 
L 2766 2266 
Q 2766 2663 2505 2880 
Q 2244 3097 1772 3097 
Q 1472 3097 1187 3025 
Q 903 2953 641 2809 
L 641 3341 
Q 956 3463 1253 3523 
Q 1550 3584 1831 3584 
Q 2591 3584 2966 3190 
Q 3341 2797 3341 1997 
z
" transform="scale(0.015625)"/>
       <path id="DejaVuSans-68" d="M 3513 2113 
L 3513 0 
L 2938 0 
L 2938 2094 
Q 2938 2591 2744 2837 
Q 2550 3084 2163 3084 
Q 1697 3084 1428 2787 
Q 1159 2491 1159 1978 
L 1159 0 
L 581 0 
L 581 4863 
L 1159 4863 
L 1159 2956 
Q 1366 3272 1645 3428 
Q 1925 3584 2291 3584 
Q 2894 3584 3203 3211 
Q 3513 2838 3513 2113 
z
" transform="scale(0.015625)"/>
       <path id="DejaVuSans-43" d="M 4122 4306 
L 4122 3641 
Q 3803 3938 3442 4084 
Q 3081 4231 2675 4231 
Q 1875 4231 1450 3742 
Q 1025 3253 1025 2328 
Q 1025 1406 1450 917 
Q 1875 428 2675 428 
Q 3081 428 3442 575 
Q 3803 722 4122 1019 
L 4122 359 
Q 3791 134 3420 21 
Q 3050 -91 2638 -91 
Q 1578 -91 968 557 
Q 359 1206 359 2328 
Q 359 3453 968 4101 
Q 1578 4750 2638 4750 
Q 3056 4750 3426 4639 
Q 3797 4528 4122 4306 
z
" transform="scale(0.015625)"/>
       <path id="DejaVuSans-6f" d="M 1959 3097 
Q 1497 3097 1228 2736 
Q 959 2375 959 1747 
Q 959 1119 1226 758 
Q 1494 397 1959 397 
Q 2419 397 2687 759 
Q 2956 1122 2956 1747 
Q 2956 2369 2687 2733 
Q 2419 3097 1959 3097 
z
M 1959 3584 
Q 2709 3584 3137 3096 
Q 3566 2609 3566 1747 
Q 3566 888 3137 398 
Q 2709 -91 1959 -91 
Q 1206 -91 779 398 
Q 353 888 353 1747 
Q 353 2609 779 3096 
Q 1206 3584 1959 3584 
z
" transform="scale(0.015625)"/>
       <path id="DejaVuSans-6e" d="M 3513 2113 
L 3513 0 
L 2938 0 
L 2938 2094 
Q 2938 2591 2744 2837 
Q 2550 3084 2163 3084 
Q 1697 3084 1428 2787 
Q 1159 2491 1159 1978 
L 1159 0 
L 581 0 
L 581 3500 
L 1159 3500 
L 1159 2956 
Q 1366 3272 1645 3428 
Q 1925 3584 2291 3584 
Q 2894 3584 3203 3211 
Q 3513 2838 3513 2113 
z
" transform="scale(0.015625)"/>
       <path id="DejaVuSans-76" d="M 191 3500 
L 800 3500 
L 1894 563 
L 2988 3500 
L 3597 3500 
L 2284 0 
L 1503 0 
L 191 3500 
z
" transform="scale(0.015625)"/>
      </defs>
      <use xlink:href="#DejaVuSans-4e"/>
      <use xlink:href="#DejaVuSans-61" x="74.804688"/>
      <use xlink:href="#DejaVuSans-73" x="136.083984"/>
      <use xlink:href="#DejaVuSans-68" x="188.183594"/>
      <use xlink:href="#DejaVuSans-43" x="251.5625"/>
      <use xlink:href="#DejaVuSans-6f" x="321.386719"/>
      <use xlink:href="#DejaVuSans-6e" x="382.568359"/>
      <use xlink:href="#DejaVuSans-76" x="445.947266"/>
     </g>
    </g>
   </g>
   <g id="line2d_48">
    <path d="M 112.758336 161.623631 
L 139.267926 175.338369 
L 157.43716 180.307755 
L 170.800756 186.726513 
L 181.266488 198.477153 
L 190.252749 198.190984 
L 198.781385 194.919633 
L 206.29133 200.239359 
L 213.239025 202.930363 
L 218.385026 210.051534 
L 223.175634 207.087751 
L 227.298113 206.304349 
L 231.654181 207.03192 
L 235.4744 206.532658 
L 238.940958 207.411791 
L 241.9118 208.106613 
L 244.739282 210.887389 
L 247.421943 217.772014 
L 249.98845 215.14275 
L 252.400012 208.559608 
L 254.720175 215.873965 
L 256.95321 216.566842 
L 259.303177 212.357051 
L 261.577207 217.901663 
L 263.664583 211.236157 
L 265.619996 212.875224 
L 267.506402 218.937864 
L 269.463662 217.080525 
L 271.146519 219.826255 
L 272.859717 218.316336 
L 274.543895 220.087539 
L 276.165468 218.351014 
L 277.809076 224.017743 
L 279.292161 222.704024 
L 280.812043 217.402186 
L 282.307118 224.949337 
L 283.799862 221.631982 
L 285.259278 220.877342 
L 286.563867 218.384291 
L 287.896297 214.572726 
L 289.220897 216.597951 
L 290.540038 216.590769 
L 292.122937 222.600173 
L 293.361931 217.65084 
L 294.564501 223.6214 
L 295.67185 220.686886 
L 296.834828 223.292335 
L 298.028069 219.208791 
L 299.184532 223.309853 
L 300.215874 215.566688 
L 301.258369 223.372888 
L 302.336415 219.187077 
L 303.388191 220.076047 
L 304.412308 221.720338 
L 305.388579 228.926526 
L 306.335143 230.045542 
L 307.362294 235.648651 
L 308.285574 226.098531 
L 309.192219 224.39783 
L 310.081522 222.975069 
L 311.022521 228.038705 
L 311.879668 228.624502 
L 312.905716 229.919477 
L 313.779707 228.66515 
L 314.781429 225.512848 
L 315.628485 231.930793 
L 316.445584 232.319486 
L 317.378114 233.382363 
L 318.396831 226.77083 
L 319.305174 227.996094 
L 320.046305 230.857563 
L 320.761489 229.487274 
L 321.494069 232.601381 
L 322.255329 233.993466 
L 322.977621 231.545657 
L 323.830348 230.525157 
L 324.522296 233.522767 
L 325.265201 233.459541 
L 326.058098 229.634009 
L 326.825577 233.397373 
L 327.489723 234.00211 
L 328.297263 237.624853 
L 328.973259 236.277258 
L 329.653058 235.489266 
L 330.303047 232.482689 
L 330.975164 236.22216 
L 331.57078 236.335091 
L 332.229237 231.753952 
L 332.899115 236.848428 
L 333.576202 240.693151 
L 334.203273 232.872446 
L 334.80008 231.412054 
L 335.456097 231.801474 
L 336.049278 236.252503 
L 336.649407 237.868068 
L 337.326618 234.548427 
L 337.952427 231.601632 
L 338.661235 238.547248 
L 339.311512 236.050397 
L 339.892155 234.438842 
" clip-path="url(#p9017c32ffa)" style="fill: none; stroke: #000000; stroke-width: 0.5; stroke-linecap: square"/>
   </g>
   <g id="line2d_49">
    <path d="M 88.140978 164.826098 
L 125.89892 167.926539 
L 147.649329 167.171718 
L 164.843656 184.048752 
L 178.072763 179.271264 
L 189.28402 190.936435 
L 197.128934 201.282108 
L 204.077879 209.275883 
L 209.766181 202.100918 
L 215.609521 208.290546 
L 220.888525 201.312335 
L 225.429796 206.737679 
L 229.709311 207.817775 
L 233.257893 209.356459 
L 236.554513 206.663739 
L 239.744863 209.791535 
L 242.666805 205.95967 
L 245.426546 210.972116 
L 248.104334 212.081458 
L 251.017803 213.934839 
L 253.447089 214.919988 
L 255.786424 218.143399 
L 258.131279 218.88655 
L 260.35362 213.527415 
L 262.389111 215.425881 
L 264.540315 215.876038 
L 266.408361 218.056825 
L 268.292226 219.888299 
L 270.029214 220.838368 
L 271.83668 215.752158 
L 273.594321 208.724791 
L 275.235975 220.086936 
L 276.936584 216.600848 
L 278.561832 223.369699 
L 280.096705 223.437445 
L 281.481054 230.692836 
L 282.884223 217.989399 
L 284.236348 219.94272 
L 285.790416 222.900969 
L 287.393016 220.689428 
L 288.7523 217.623251 
L 289.965383 216.191029 
L 291.140678 222.503449 
L 292.286306 217.273022 
L 293.592746 222.219046 
L 294.835005 223.855434 
L 295.984272 221.753915 
L 297.129695 222.003835 
L 298.301833 224.08791 
L 299.455636 223.801261 
L 300.4946 223.847228 
L 301.546039 219.870925 
L 302.608752 222.903672 
L 303.614685 227.386309 
L 304.642491 229.187297 
L 305.646772 219.569455 
L 306.60045 231.037863 
L 307.622551 228.10657 
L 308.742249 231.284549 
L 309.689715 226.093307 
L 310.684138 227.941054 
L 311.631577 227.648711 
L 312.524389 224.997472 
L 313.531725 228.672925 
L 314.475803 224.875781 
L 315.599034 230.62056 
L 316.438884 231.230474 
L 317.253174 233.153313 
L 318.028973 238.54613 
L 318.816256 232.549731 
L 319.589201 232.101933 
L 320.508225 230.337403 
L 321.283375 237.719651 
L 322.04452 236.710749 
L 322.811775 234.343865 
L 323.580626 226.951578 
L 324.276433 229.474373 
L 325.063677 231.813789 
L 325.810358 235.641302 
L 326.550431 234.065605 
L 327.229282 237.053491 
L 327.899816 224.665416 
L 328.567368 225.797907 
L 329.21817 238.617261 
L 329.913891 229.518978 
L 330.602858 233.376031 
L 331.23428 236.956344 
L 331.858162 236.651128 
L 332.582577 229.564925 
L 333.197991 233.61684 
L 333.84515 234.228441 
L 334.537938 236.24916 
L 335.167764 237.020139 
L 335.930699 242.116364 
L 336.572617 230.761017 
L 337.205734 234.198057 
L 337.7885 238.865972 
L 338.319681 231.182342 
L 338.901172 237.671923 
L 339.644941 234.033537 
" clip-path="url(#p9017c32ffa)" style="fill: none; stroke-dasharray: 1.85,0.8; stroke-dashoffset: 0; stroke: #000000; stroke-width: 0.5"/>
   </g>
   <g id="line2d_50">
    <path d="M 129.618579 147.691467 
L 167.378317 161.246705 
L 188.834683 165.495369 
L 202.697067 167.814226 
L 214.000061 170.156869 
L 222.923571 173.289242 
L 231.231095 175.365103 
L 237.973823 176.670095 
L 244.063055 177.293614 
L 249.461459 177.427374 
L 254.211182 180.684462 
L 258.676044 180.506131 
L 262.805971 180.950087 
L 266.61338 182.491381 
L 270.295443 183.434581 
L 273.613233 184.017155 
L 276.727034 185.016275 
L 280.24393 184.542578 
L 283.192271 186.438204 
L 285.797639 187.21922 
L 288.650385 186.506569 
L 290.990657 187.775307 
L 293.3299 189.860236 
L 295.590656 189.385701 
L 297.853335 189.367851 
L 299.84851 189.799111 
L 301.701463 190.769549 
L 303.682689 190.191682 
L 305.766322 190.781017 
L 307.753526 191.31644 
L 309.471147 191.967725 
L 311.326992 192.214064 
L 313.29798 193.149957 
L 314.851442 193.001513 
L 316.377511 192.987266 
L 317.948836 192.577623 
L 319.334726 191.323245 
L 320.715791 193.809012 
L 322.092939 193.76048 
L 323.584929 194.670319 
L 324.951003 194.171865 
L 326.187019 194.633599 
L 327.33062 195.645313 
L 328.533654 195.418135 
L 329.757389 196.387322 
L 330.996315 197.966144 
L 332.113545 198.297445 
L 333.279452 198.777465 
L 334.495498 199.20315 
L 335.749769 198.307779 
L 336.861994 198.305879 
L 337.828648 198.923544 
L 339.045448 198.854431 
L 340.084367 198.909542 
L 341.071139 199.050032 
L 342.038264 200.160913 
L 343.033 200.398444 
L 344.153137 200.499027 
L 345.332366 200.861586 
L 346.553151 200.904223 
L 347.618683 200.822904 
L 348.639721 201.09295 
L 349.642036 202.615955 
L 350.709595 202.510773 
L 351.607339 203.036223 
L 352.532651 203.118023 
L 353.428313 204.25579 
L 354.467719 204.389943 
L 355.376658 203.281607 
L 356.241308 204.618487 
L 356.981221 204.517847 
L 357.800292 204.266795 
L 358.607454 204.533929 
L 359.44422 204.235114 
L 360.176715 205.01178 
L 360.904982 205.285921 
L 361.614692 204.914483 
L 362.267817 205.024596 
L 362.87519 205.846057 
L 363.409247 205.055391 
L 363.896203 205.8296 
L 364.368028 205.113228 
L 364.892357 206.342439 
L 365.976661 205.854042 
L 366.521576 206.185132 
L 367.03672 205.654363 
L 367.536124 206.143681 
L 368.014913 205.967887 
L 368.512191 207.202605 
L 368.986533 206.525886 
L 369.499879 205.659756 
L 369.992134 207.395629 
L 370.485241 207.03413 
L 370.93948 206.63545 
L 371.401919 206.471116 
L 371.862659 206.766264 
L 372.308806 206.908817 
L 372.727583 206.780206 
L 373.166419 207.465717 
L 373.581818 207.496701 
" clip-path="url(#p9017c32ffa)" style="fill: none; stroke-dasharray: 0.5,0.825; stroke-dashoffset: 0; stroke: #000000; stroke-width: 0.5"/>
   </g>
   <g id="line2d_51">
    <path d="M 125.550061 109.356344 
L 162.444415 162.054145 
L 184.535411 167.561478 
L 199.9128 168.699027 
L 212.665578 170.062326 
L 222.061623 172.210409 
L 230.320808 172.750907 
L 238.231976 172.732251 
L 244.266064 174.731516 
L 249.57202 175.044393 
L 254.773174 175.694504 
L 259.238057 176.727268 
L 263.343055 180.042181 
L 267.29424 180.360187 
L 270.97101 181.733038 
L 274.297566 182.452343 
L 277.470249 183.544499 
L 280.534109 184.151937 
L 283.56485 184.738979 
L 286.531672 185.852626 
L 289.299748 185.794053 
L 292.247266 186.436678 
L 294.534656 187.388495 
L 296.818239 187.372849 
L 298.91128 188.000017 
L 301.171252 188.614278 
L 303.069976 189.513224 
L 305.05309 190.128976 
L 306.822547 190.139996 
L 308.828334 190.966653 
L 310.529489 190.775534 
L 312.086529 192.058792 
L 313.616916 192.537425 
L 315.259639 193.252628 
L 316.79154 194.229837 
L 318.367133 194.302713 
L 319.868076 194.684964 
L 321.455633 195.049017 
L 323.039717 196.237016 
L 324.394127 196.749271 
L 325.654873 197.222957 
L 327.122605 197.545244 
L 328.461296 197.472155 
L 329.642611 198.32503 
L 330.854575 198.171574 
L 332.054985 198.698542 
L 333.44703 198.047191 
L 334.926986 198.045404 
L 336.346429 198.15187 
L 337.726651 198.592983 
L 338.921974 198.739789 
L 340.074341 198.496862 
L 341.290008 198.777303 
L 342.395433 198.75326 
L 343.475745 199.049944 
L 344.450101 199.298666 
L 345.630494 200.474509 
L 346.66315 199.477885 
L 347.810028 200.549469 
L 348.651328 200.49258 
L 349.559389 200.619372 
L 350.489552 200.773002 
L 351.466234 200.727587 
L 352.326501 200.587481 
L 353.172781 201.848171 
L 353.953555 201.700133 
L 354.712703 201.375409 
L 355.402475 201.742667 
L 356.030216 201.632614 
L 356.589361 201.873567 
L 357.132247 202.616476 
L 357.726284 202.516867 
L 358.938475 202.382165 
L 359.552705 202.253903 
L 360.13546 202.713349 
L 360.709154 203.037865 
L 361.272236 203.76345 
L 361.835553 203.370935 
L 362.386063 203.715329 
L 362.964426 203.915008 
L 363.522922 203.362867 
L 364.063731 203.380132 
L 364.560788 202.96199 
L 365.080658 203.391084 
L 365.608269 203.536162 
L 366.100626 204.135087 
L 366.568676 204.492265 
L 367.057906 204.524576 
L 367.543218 204.383329 
L 367.994869 204.621863 
L 368.393414 205.089055 
L 368.801762 205.365139 
L 369.196729 205.67593 
L 369.596614 205.5904 
L 370.023325 205.779383 
L 370.442406 205.024054 
L 370.815753 205.049072 
L 371.192156 205.317787 
L 371.561709 205.752747 
L 371.922129 205.09286 
" clip-path="url(#p9017c32ffa)" style="fill: none; stroke-dasharray: 3.2,0.8,0.5,0.8; stroke-dashoffset: 0; stroke: #000000; stroke-width: 0.5"/>
   </g>
   <g id="line2d_52">
    <path d="M 83.358989 60.41915 
L 110.094685 80.098044 
L 127.424634 89.971614 
L 141.720494 95.880544 
L 152.996764 102.709952 
L 163.817954 102.798109 
L 171.385032 101.506795 
L 179.918553 114.38314 
L 185.774773 118.96412 
L 191.178518 105.776471 
L 196.811462 132.732218 
L 200.921206 127.889835 
L 204.799867 130.142057 
L 208.821147 138.214312 
L 212.34425 116.732784 
L 216.412852 140.352232 
L 220.443324 121.452487 
L 222.954214 149.98858 
L 225.414935 128.90808 
L 227.652253 151.766253 
L 229.830268 131.901476 
L 232.3349 151.987951 
L 234.43943 135.427429 
L 236.520726 165.284487 
L 239.269271 134.558477 
L 241.375012 160.325793 
L 243.623696 138.196455 
L 245.642121 174.465286 
L 247.880518 136.986832 
L 250.067904 169.15108 
L 251.799267 141.861795 
L 253.699142 174.322167 
L 256.031211 155.253583 
L 257.99462 162.132197 
L 259.838009 162.915895 
L 261.682296 153.101503 
L 263.216511 181.707583 
L 264.707406 149.48213 
L 266.088813 181.685548 
L 267.447424 149.8783 
L 268.84082 176.061144 
L 270.144541 163.862453 
L 271.476121 164.812358 
L 272.887078 175.809603 
L 274.33189 153.331289 
L 275.778282 182.822855 
L 277.157575 156.636436 
L 278.524802 182.606012 
L 279.993533 170.170815 
L 281.177766 167.322973 
L 282.430948 180.004256 
L 283.704352 159.623737 
L 284.623679 185.860266 
L 285.472751 162.575228 
L 286.431604 176.014158 
L 287.437418 173.929369 
L 288.89935 167.629278 
L 290.303129 190.823169 
L 291.760944 165.887625 
L 293.004058 183.720715 
L 294.285293 171.247975 
L 295.333951 172.312641 
L 296.281445 186.873444 
L 297.311631 168.853021 
L 298.602036 187.959554 
L 299.864722 171.723118 
L 301.232764 177.390887 
L 302.59185 185.262786 
L 303.872264 172.283219 
L 305.21985 190.215237 
L 306.232845 173.667638 
L 307.262755 180.925648 
L 308.328715 185.906273 
L 309.367614 175.321777 
L 310.366598 191.273591 
L 311.523622 176.087989 
L 312.489577 181.631265 
L 313.379574 187.101024 
L 314.319676 177.836409 
L 315.211759 193.765363 
L 316.224861 181.529271 
L 317.29004 183.17028 
L 318.177049 189.037994 
L 319.196103 178.257331 
L 320.155075 191.298526 
L 320.922006 184.324301 
L 321.729005 183.3728 
L 322.530714 192.518765 
L 323.337777 182.076396 
L 324.159266 192.721946 
L 324.942087 190.644767 
L 325.693714 184.092657 
L 326.420689 192.657994 
L 327.213781 182.950786 
L 327.935068 189.040088 
L 328.787766 193.449598 
L 329.463262 185.625234 
L 330.061805 194.596202 
L 330.62023 188.340097 
L 331.07218 188.859651 
" clip-path="url(#p9017c32ffa)" style="fill: none; stroke: #000000; stroke-width: 0.5; stroke-linecap: square"/>
    <defs>
     <path id="m3e2a799ec2" d="M 0 0.25 
C 0.066301 0.25 0.129895 0.223658 0.176777 0.176777 
C 0.223658 0.129895 0.25 0.066301 0.25 0 
C 0.25 -0.066301 0.223658 -0.129895 0.176777 -0.176777 
C 0.129895 -0.223658 0.066301 -0.25 0 -0.25 
C -0.066301 -0.25 -0.129895 -0.223658 -0.176777 -0.176777 
C -0.223658 -0.129895 -0.25 -0.066301 -0.25 0 
C -0.25 0.066301 -0.223658 0.129895 -0.176777 0.176777 
C -0.129895 0.223658 -0.066301 0.25 0 0.25 
z
" style="stroke: #000000"/>
    </defs>
    <g clip-path="url(#p9017c32ffa)">
     <use xlink:href="#m3e2a799ec2" x="83.358989" y="60.41915" style="stroke: #000000"/>
     <use xlink:href="#m3e2a799ec2" x="110.094685" y="80.098044" style="stroke: #000000"/>
     <use xlink:href="#m3e2a799ec2" x="127.424634" y="89.971614" style="stroke: #000000"/>
     <use xlink:href="#m3e2a799ec2" x="141.720494" y="95.880544" style="stroke: #000000"/>
     <use xlink:href="#m3e2a799ec2" x="152.996764" y="102.709952" style="stroke: #000000"/>
     <use xlink:href="#m3e2a799ec2" x="163.817954" y="102.798109" style="stroke: #000000"/>
     <use xlink:href="#m3e2a799ec2" x="171.385032" y="101.506795" style="stroke: #000000"/>
     <use xlink:href="#m3e2a799ec2" x="179.918553" y="114.38314" style="stroke: #000000"/>
     <use xlink:href="#m3e2a799ec2" x="185.774773" y="118.96412" style="stroke: #000000"/>
     <use xlink:href="#m3e2a799ec2" x="191.178518" y="105.776471" style="stroke: #000000"/>
     <use xlink:href="#m3e2a799ec2" x="196.811462" y="132.732218" style="stroke: #000000"/>
     <use xlink:href="#m3e2a799ec2" x="200.921206" y="127.889835" style="stroke: #000000"/>
     <use xlink:href="#m3e2a799ec2" x="204.799867" y="130.142057" style="stroke: #000000"/>
     <use xlink:href="#m3e2a799ec2" x="208.821147" y="138.214312" style="stroke: #000000"/>
     <use xlink:href="#m3e2a799ec2" x="212.34425" y="116.732784" style="stroke: #000000"/>
     <use xlink:href="#m3e2a799ec2" x="216.412852" y="140.352232" style="stroke: #000000"/>
     <use xlink:href="#m3e2a799ec2" x="220.443324" y="121.452487" style="stroke: #000000"/>
     <use xlink:href="#m3e2a799ec2" x="222.954214" y="149.98858" style="stroke: #000000"/>
     <use xlink:href="#m3e2a799ec2" x="225.414935" y="128.90808" style="stroke: #000000"/>
     <use xlink:href="#m3e2a799ec2" x="227.652253" y="151.766253" style="stroke: #000000"/>
     <use xlink:href="#m3e2a799ec2" x="229.830268" y="131.901476" style="stroke: #000000"/>
     <use xlink:href="#m3e2a799ec2" x="232.3349" y="151.987951" style="stroke: #000000"/>
     <use xlink:href="#m3e2a799ec2" x="234.43943" y="135.427429" style="stroke: #000000"/>
     <use xlink:href="#m3e2a799ec2" x="236.520726" y="165.284487" style="stroke: #000000"/>
     <use xlink:href="#m3e2a799ec2" x="239.269271" y="134.558477" style="stroke: #000000"/>
     <use xlink:href="#m3e2a799ec2" x="241.375012" y="160.325793" style="stroke: #000000"/>
     <use xlink:href="#m3e2a799ec2" x="243.623696" y="138.196455" style="stroke: #000000"/>
     <use xlink:href="#m3e2a799ec2" x="245.642121" y="174.465286" style="stroke: #000000"/>
     <use xlink:href="#m3e2a799ec2" x="247.880518" y="136.986832" style="stroke: #000000"/>
     <use xlink:href="#m3e2a799ec2" x="250.067904" y="169.15108" style="stroke: #000000"/>
     <use xlink:href="#m3e2a799ec2" x="251.799267" y="141.861795" style="stroke: #000000"/>
     <use xlink:href="#m3e2a799ec2" x="253.699142" y="174.322167" style="stroke: #000000"/>
     <use xlink:href="#m3e2a799ec2" x="256.031211" y="155.253583" style="stroke: #000000"/>
     <use xlink:href="#m3e2a799ec2" x="257.99462" y="162.132197" style="stroke: #000000"/>
     <use xlink:href="#m3e2a799ec2" x="259.838009" y="162.915895" style="stroke: #000000"/>
     <use xlink:href="#m3e2a799ec2" x="261.682296" y="153.101503" style="stroke: #000000"/>
     <use xlink:href="#m3e2a799ec2" x="263.216511" y="181.707583" style="stroke: #000000"/>
     <use xlink:href="#m3e2a799ec2" x="264.707406" y="149.48213" style="stroke: #000000"/>
     <use xlink:href="#m3e2a799ec2" x="266.088813" y="181.685548" style="stroke: #000000"/>
     <use xlink:href="#m3e2a799ec2" x="267.447424" y="149.8783" style="stroke: #000000"/>
     <use xlink:href="#m3e2a799ec2" x="268.84082" y="176.061144" style="stroke: #000000"/>
     <use xlink:href="#m3e2a799ec2" x="270.144541" y="163.862453" style="stroke: #000000"/>
     <use xlink:href="#m3e2a799ec2" x="271.476121" y="164.812358" style="stroke: #000000"/>
     <use xlink:href="#m3e2a799ec2" x="272.887078" y="175.809603" style="stroke: #000000"/>
     <use xlink:href="#m3e2a799ec2" x="274.33189" y="153.331289" style="stroke: #000000"/>
     <use xlink:href="#m3e2a799ec2" x="275.778282" y="182.822855" style="stroke: #000000"/>
     <use xlink:href="#m3e2a799ec2" x="277.157575" y="156.636436" style="stroke: #000000"/>
     <use xlink:href="#m3e2a799ec2" x="278.524802" y="182.606012" style="stroke: #000000"/>
     <use xlink:href="#m3e2a799ec2" x="279.993533" y="170.170815" style="stroke: #000000"/>
     <use xlink:href="#m3e2a799ec2" x="281.177766" y="167.322973" style="stroke: #000000"/>
     <use xlink:href="#m3e2a799ec2" x="282.430948" y="180.004256" style="stroke: #000000"/>
     <use xlink:href="#m3e2a799ec2" x="283.704352" y="159.623737" style="stroke: #000000"/>
     <use xlink:href="#m3e2a799ec2" x="284.623679" y="185.860266" style="stroke: #000000"/>
     <use xlink:href="#m3e2a799ec2" x="285.472751" y="162.575228" style="stroke: #000000"/>
     <use xlink:href="#m3e2a799ec2" x="286.431604" y="176.014158" style="stroke: #000000"/>
     <use xlink:href="#m3e2a799ec2" x="287.437418" y="173.929369" style="stroke: #000000"/>
     <use xlink:href="#m3e2a799ec2" x="288.89935" y="167.629278" style="stroke: #000000"/>
     <use xlink:href="#m3e2a799ec2" x="290.303129" y="190.823169" style="stroke: #000000"/>
     <use xlink:href="#m3e2a799ec2" x="291.760944" y="165.887625" style="stroke: #000000"/>
     <use xlink:href="#m3e2a799ec2" x="293.004058" y="183.720715" style="stroke: #000000"/>
     <use xlink:href="#m3e2a799ec2" x="294.285293" y="171.247975" style="stroke: #000000"/>
     <use xlink:href="#m3e2a799ec2" x="295.333951" y="172.312641" style="stroke: #000000"/>
     <use xlink:href="#m3e2a799ec2" x="296.281445" y="186.873444" style="stroke: #000000"/>
     <use xlink:href="#m3e2a799ec2" x="297.311631" y="168.853021" style="stroke: #000000"/>
     <use xlink:href="#m3e2a799ec2" x="298.602036" y="187.959554" style="stroke: #000000"/>
     <use xlink:href="#m3e2a799ec2" x="299.864722" y="171.723118" style="stroke: #000000"/>
     <use xlink:href="#m3e2a799ec2" x="301.232764" y="177.390887" style="stroke: #000000"/>
     <use xlink:href="#m3e2a799ec2" x="302.59185" y="185.262786" style="stroke: #000000"/>
     <use xlink:href="#m3e2a799ec2" x="303.872264" y="172.283219" style="stroke: #000000"/>
     <use xlink:href="#m3e2a799ec2" x="305.21985" y="190.215237" style="stroke: #000000"/>
     <use xlink:href="#m3e2a799ec2" x="306.232845" y="173.667638" style="stroke: #000000"/>
     <use xlink:href="#m3e2a799ec2" x="307.262755" y="180.925648" style="stroke: #000000"/>
     <use xlink:href="#m3e2a799ec2" x="308.328715" y="185.906273" style="stroke: #000000"/>
     <use xlink:href="#m3e2a799ec2" x="309.367614" y="175.321777" style="stroke: #000000"/>
     <use xlink:href="#m3e2a799ec2" x="310.366598" y="191.273591" style="stroke: #000000"/>
     <use xlink:href="#m3e2a799ec2" x="311.523622" y="176.087989" style="stroke: #000000"/>
     <use xlink:href="#m3e2a799ec2" x="312.489577" y="181.631265" style="stroke: #000000"/>
     <use xlink:href="#m3e2a799ec2" x="313.379574" y="187.101024" style="stroke: #000000"/>
     <use xlink:href="#m3e2a799ec2" x="314.319676" y="177.836409" style="stroke: #000000"/>
     <use xlink:href="#m3e2a799ec2" x="315.211759" y="193.765363" style="stroke: #000000"/>
     <use xlink:href="#m3e2a799ec2" x="316.224861" y="181.529271" style="stroke: #000000"/>
     <use xlink:href="#m3e2a799ec2" x="317.29004" y="183.17028" style="stroke: #000000"/>
     <use xlink:href="#m3e2a799ec2" x="318.177049" y="189.037994" style="stroke: #000000"/>
     <use xlink:href="#m3e2a799ec2" x="319.196103" y="178.257331" style="stroke: #000000"/>
     <use xlink:href="#m3e2a799ec2" x="320.155075" y="191.298526" style="stroke: #000000"/>
     <use xlink:href="#m3e2a799ec2" x="320.922006" y="184.324301" style="stroke: #000000"/>
     <use xlink:href="#m3e2a799ec2" x="321.729005" y="183.3728" style="stroke: #000000"/>
     <use xlink:href="#m3e2a799ec2" x="322.530714" y="192.518765" style="stroke: #000000"/>
     <use xlink:href="#m3e2a799ec2" x="323.337777" y="182.076396" style="stroke: #000000"/>
     <use xlink:href="#m3e2a799ec2" x="324.159266" y="192.721946" style="stroke: #000000"/>
     <use xlink:href="#m3e2a799ec2" x="324.942087" y="190.644767" style="stroke: #000000"/>
     <use xlink:href="#m3e2a799ec2" x="325.693714" y="184.092657" style="stroke: #000000"/>
     <use xlink:href="#m3e2a799ec2" x="326.420689" y="192.657994" style="stroke: #000000"/>
     <use xlink:href="#m3e2a799ec2" x="327.213781" y="182.950786" style="stroke: #000000"/>
     <use xlink:href="#m3e2a799ec2" x="327.935068" y="189.040088" style="stroke: #000000"/>
     <use xlink:href="#m3e2a799ec2" x="328.787766" y="193.449598" style="stroke: #000000"/>
     <use xlink:href="#m3e2a799ec2" x="329.463262" y="185.625234" style="stroke: #000000"/>
     <use xlink:href="#m3e2a799ec2" x="330.061805" y="194.596202" style="stroke: #000000"/>
     <use xlink:href="#m3e2a799ec2" x="330.62023" y="188.340097" style="stroke: #000000"/>
     <use xlink:href="#m3e2a799ec2" x="331.07218" y="188.859651" style="stroke: #000000"/>
    </g>
   </g>
   <g id="line2d_53">
    <path d="M 69.218182 60.418256 
L 109.998999 80.096191 
L 136.379204 89.971147 
L 151.293711 95.882831 
L 163.337312 102.711958 
L 173.435412 102.797445 
L 181.117901 101.520183 
L 187.672019 114.38079 
L 193.711979 118.963432 
L 199.407267 105.784592 
L 204.86768 132.735231 
L 209.346958 127.874684 
L 213.530563 130.194775 
L 218.070356 138.199877 
L 221.888802 116.765986 
L 225.590744 140.359567 
L 229.2757 121.457808 
L 232.56345 149.991211 
L 235.7418 128.901917 
L 238.558688 151.761457 
L 241.276773 131.887205 
L 243.181135 152.00345 
L 245.444159 135.413854 
L 247.367495 165.224671 
L 250.341451 134.539426 
L 253.147744 160.30981 
L 256.097907 138.206586 
L 258.626042 174.510367 
L 260.925123 137.010258 
L 262.836025 169.126881 
L 264.600063 141.944667 
L 266.753427 174.283744 
L 268.8627 155.401035 
L 271.114595 162.101806 
L 273.306569 163.088255 
L 275.265945 153.060418 
L 277.483284 181.74629 
L 279.311065 149.461664 
L 280.97686 181.753916 
L 282.56002 149.980719 
L 284.042331 176.061776 
L 285.558051 164.088667 
L 287.127129 164.762585 
L 288.619878 176.000213 
L 289.880663 153.322019 
L 291.306381 182.953235 
L 292.593033 156.741052 
L 293.963565 182.620051 
L 295.528184 170.445751 
L 296.764084 167.299589 
L 298.286047 180.251696 
L 299.699978 159.59864 
L 300.77119 185.854699 
L 301.953087 162.71919 
L 303.151504 175.990498 
L 304.163465 174.192517 
L 305.281189 167.613221 
L 306.299858 191.035924 
L 307.2944 166.00568 
L 308.224965 183.771154 
L 309.180224 171.503664 
L 310.070761 172.216266 
L 310.971967 187.054766 
L 311.859095 168.861763 
L 312.702825 187.977829 
L 313.469842 171.972976 
L 314.126015 177.345416 
L 314.747195 185.627987 
L 315.360275 172.330748 
L 315.967294 190.326718 
L 316.541369 173.958715 
L 317.100338 180.837538 
L 319.129773 186.304331 
L 319.788156 175.342512 
L 320.410912 191.386267 
L 321.021984 176.420266 
L 321.630499 181.396233 
L 322.196158 187.297092 
L 322.691575 177.83238 
L 323.21342 193.881474 
L 323.715823 182.06725 
L 324.218111 183.211118 
L 324.726774 189.306279 
L 325.324228 178.319639 
L 325.878064 191.372601 
L 326.395178 184.636392 
L 326.893567 183.456851 
L 327.341541 192.527848 
L 327.820196 182.104037 
L 328.279577 193.202923 
L 328.774447 191.33482 
L 329.262993 184.788464 
L 329.69972 192.969001 
L 330.128476 182.970083 
L 330.568222 189.335646 
L 331.025623 193.089979 
L 331.456038 185.765021 
L 331.850024 194.890418 
L 332.270264 188.229206 
L 332.713549 189.40841 
" clip-path="url(#p9017c32ffa)" style="fill: none; stroke-dasharray: 1.85,0.8; stroke-dashoffset: 0; stroke: #000000; stroke-width: 0.5"/>
    <g clip-path="url(#p9017c32ffa)">
     <use xlink:href="#m3e2a799ec2" x="69.218182" y="60.418256" style="stroke: #000000"/>
     <use xlink:href="#m3e2a799ec2" x="109.998999" y="80.096191" style="stroke: #000000"/>
     <use xlink:href="#m3e2a799ec2" x="136.379204" y="89.971147" style="stroke: #000000"/>
     <use xlink:href="#m3e2a799ec2" x="151.293711" y="95.882831" style="stroke: #000000"/>
     <use xlink:href="#m3e2a799ec2" x="163.337312" y="102.711958" style="stroke: #000000"/>
     <use xlink:href="#m3e2a799ec2" x="173.435412" y="102.797445" style="stroke: #000000"/>
     <use xlink:href="#m3e2a799ec2" x="181.117901" y="101.520183" style="stroke: #000000"/>
     <use xlink:href="#m3e2a799ec2" x="187.672019" y="114.38079" style="stroke: #000000"/>
     <use xlink:href="#m3e2a799ec2" x="193.711979" y="118.963432" style="stroke: #000000"/>
     <use xlink:href="#m3e2a799ec2" x="199.407267" y="105.784592" style="stroke: #000000"/>
     <use xlink:href="#m3e2a799ec2" x="204.86768" y="132.735231" style="stroke: #000000"/>
     <use xlink:href="#m3e2a799ec2" x="209.346958" y="127.874684" style="stroke: #000000"/>
     <use xlink:href="#m3e2a799ec2" x="213.530563" y="130.194775" style="stroke: #000000"/>
     <use xlink:href="#m3e2a799ec2" x="218.070356" y="138.199877" style="stroke: #000000"/>
     <use xlink:href="#m3e2a799ec2" x="221.888802" y="116.765986" style="stroke: #000000"/>
     <use xlink:href="#m3e2a799ec2" x="225.590744" y="140.359567" style="stroke: #000000"/>
     <use xlink:href="#m3e2a799ec2" x="229.2757" y="121.457808" style="stroke: #000000"/>
     <use xlink:href="#m3e2a799ec2" x="232.56345" y="149.991211" style="stroke: #000000"/>
     <use xlink:href="#m3e2a799ec2" x="235.7418" y="128.901917" style="stroke: #000000"/>
     <use xlink:href="#m3e2a799ec2" x="238.558688" y="151.761457" style="stroke: #000000"/>
     <use xlink:href="#m3e2a799ec2" x="241.276773" y="131.887205" style="stroke: #000000"/>
     <use xlink:href="#m3e2a799ec2" x="243.181135" y="152.00345" style="stroke: #000000"/>
     <use xlink:href="#m3e2a799ec2" x="245.444159" y="135.413854" style="stroke: #000000"/>
     <use xlink:href="#m3e2a799ec2" x="247.367495" y="165.224671" style="stroke: #000000"/>
     <use xlink:href="#m3e2a799ec2" x="250.341451" y="134.539426" style="stroke: #000000"/>
     <use xlink:href="#m3e2a799ec2" x="253.147744" y="160.30981" style="stroke: #000000"/>
     <use xlink:href="#m3e2a799ec2" x="256.097907" y="138.206586" style="stroke: #000000"/>
     <use xlink:href="#m3e2a799ec2" x="258.626042" y="174.510367" style="stroke: #000000"/>
     <use xlink:href="#m3e2a799ec2" x="260.925123" y="137.010258" style="stroke: #000000"/>
     <use xlink:href="#m3e2a799ec2" x="262.836025" y="169.126881" style="stroke: #000000"/>
     <use xlink:href="#m3e2a799ec2" x="264.600063" y="141.944667" style="stroke: #000000"/>
     <use xlink:href="#m3e2a799ec2" x="266.753427" y="174.283744" style="stroke: #000000"/>
     <use xlink:href="#m3e2a799ec2" x="268.8627" y="155.401035" style="stroke: #000000"/>
     <use xlink:href="#m3e2a799ec2" x="271.114595" y="162.101806" style="stroke: #000000"/>
     <use xlink:href="#m3e2a799ec2" x="273.306569" y="163.088255" style="stroke: #000000"/>
     <use xlink:href="#m3e2a799ec2" x="275.265945" y="153.060418" style="stroke: #000000"/>
     <use xlink:href="#m3e2a799ec2" x="277.483284" y="181.74629" style="stroke: #000000"/>
     <use xlink:href="#m3e2a799ec2" x="279.311065" y="149.461664" style="stroke: #000000"/>
     <use xlink:href="#m3e2a799ec2" x="280.97686" y="181.753916" style="stroke: #000000"/>
     <use xlink:href="#m3e2a799ec2" x="282.56002" y="149.980719" style="stroke: #000000"/>
     <use xlink:href="#m3e2a799ec2" x="284.042331" y="176.061776" style="stroke: #000000"/>
     <use xlink:href="#m3e2a799ec2" x="285.558051" y="164.088667" style="stroke: #000000"/>
     <use xlink:href="#m3e2a799ec2" x="287.127129" y="164.762585" style="stroke: #000000"/>
     <use xlink:href="#m3e2a799ec2" x="288.619878" y="176.000213" style="stroke: #000000"/>
     <use xlink:href="#m3e2a799ec2" x="289.880663" y="153.322019" style="stroke: #000000"/>
     <use xlink:href="#m3e2a799ec2" x="291.306381" y="182.953235" style="stroke: #000000"/>
     <use xlink:href="#m3e2a799ec2" x="292.593033" y="156.741052" style="stroke: #000000"/>
     <use xlink:href="#m3e2a799ec2" x="293.963565" y="182.620051" style="stroke: #000000"/>
     <use xlink:href="#m3e2a799ec2" x="295.528184" y="170.445751" style="stroke: #000000"/>
     <use xlink:href="#m3e2a799ec2" x="296.764084" y="167.299589" style="stroke: #000000"/>
     <use xlink:href="#m3e2a799ec2" x="298.286047" y="180.251696" style="stroke: #000000"/>
     <use xlink:href="#m3e2a799ec2" x="299.699978" y="159.59864" style="stroke: #000000"/>
     <use xlink:href="#m3e2a799ec2" x="300.77119" y="185.854699" style="stroke: #000000"/>
     <use xlink:href="#m3e2a799ec2" x="301.953087" y="162.71919" style="stroke: #000000"/>
     <use xlink:href="#m3e2a799ec2" x="303.151504" y="175.990498" style="stroke: #000000"/>
     <use xlink:href="#m3e2a799ec2" x="304.163465" y="174.192517" style="stroke: #000000"/>
     <use xlink:href="#m3e2a799ec2" x="305.281189" y="167.613221" style="stroke: #000000"/>
     <use xlink:href="#m3e2a799ec2" x="306.299858" y="191.035924" style="stroke: #000000"/>
     <use xlink:href="#m3e2a799ec2" x="307.2944" y="166.00568" style="stroke: #000000"/>
     <use xlink:href="#m3e2a799ec2" x="308.224965" y="183.771154" style="stroke: #000000"/>
     <use xlink:href="#m3e2a799ec2" x="309.180224" y="171.503664" style="stroke: #000000"/>
     <use xlink:href="#m3e2a799ec2" x="310.070761" y="172.216266" style="stroke: #000000"/>
     <use xlink:href="#m3e2a799ec2" x="310.971967" y="187.054766" style="stroke: #000000"/>
     <use xlink:href="#m3e2a799ec2" x="311.859095" y="168.861763" style="stroke: #000000"/>
     <use xlink:href="#m3e2a799ec2" x="312.702825" y="187.977829" style="stroke: #000000"/>
     <use xlink:href="#m3e2a799ec2" x="313.469842" y="171.972976" style="stroke: #000000"/>
     <use xlink:href="#m3e2a799ec2" x="314.126015" y="177.345416" style="stroke: #000000"/>
     <use xlink:href="#m3e2a799ec2" x="314.747195" y="185.627987" style="stroke: #000000"/>
     <use xlink:href="#m3e2a799ec2" x="315.360275" y="172.330748" style="stroke: #000000"/>
     <use xlink:href="#m3e2a799ec2" x="315.967294" y="190.326718" style="stroke: #000000"/>
     <use xlink:href="#m3e2a799ec2" x="316.541369" y="173.958715" style="stroke: #000000"/>
     <use xlink:href="#m3e2a799ec2" x="317.100338" y="180.837538" style="stroke: #000000"/>
     <use xlink:href="#m3e2a799ec2" x="319.129773" y="186.304331" style="stroke: #000000"/>
     <use xlink:href="#m3e2a799ec2" x="319.788156" y="175.342512" style="stroke: #000000"/>
     <use xlink:href="#m3e2a799ec2" x="320.410912" y="191.386267" style="stroke: #000000"/>
     <use xlink:href="#m3e2a799ec2" x="321.021984" y="176.420266" style="stroke: #000000"/>
     <use xlink:href="#m3e2a799ec2" x="321.630499" y="181.396233" style="stroke: #000000"/>
     <use xlink:href="#m3e2a799ec2" x="322.196158" y="187.297092" style="stroke: #000000"/>
     <use xlink:href="#m3e2a799ec2" x="322.691575" y="177.83238" style="stroke: #000000"/>
     <use xlink:href="#m3e2a799ec2" x="323.21342" y="193.881474" style="stroke: #000000"/>
     <use xlink:href="#m3e2a799ec2" x="323.715823" y="182.06725" style="stroke: #000000"/>
     <use xlink:href="#m3e2a799ec2" x="324.218111" y="183.211118" style="stroke: #000000"/>
     <use xlink:href="#m3e2a799ec2" x="324.726774" y="189.306279" style="stroke: #000000"/>
     <use xlink:href="#m3e2a799ec2" x="325.324228" y="178.319639" style="stroke: #000000"/>
     <use xlink:href="#m3e2a799ec2" x="325.878064" y="191.372601" style="stroke: #000000"/>
     <use xlink:href="#m3e2a799ec2" x="326.395178" y="184.636392" style="stroke: #000000"/>
     <use xlink:href="#m3e2a799ec2" x="326.893567" y="183.456851" style="stroke: #000000"/>
     <use xlink:href="#m3e2a799ec2" x="327.341541" y="192.527848" style="stroke: #000000"/>
     <use xlink:href="#m3e2a799ec2" x="327.820196" y="182.104037" style="stroke: #000000"/>
     <use xlink:href="#m3e2a799ec2" x="328.279577" y="193.202923" style="stroke: #000000"/>
     <use xlink:href="#m3e2a799ec2" x="328.774447" y="191.33482" style="stroke: #000000"/>
     <use xlink:href="#m3e2a799ec2" x="329.262993" y="184.788464" style="stroke: #000000"/>
     <use xlink:href="#m3e2a799ec2" x="329.69972" y="192.969001" style="stroke: #000000"/>
     <use xlink:href="#m3e2a799ec2" x="330.128476" y="182.970083" style="stroke: #000000"/>
     <use xlink:href="#m3e2a799ec2" x="330.568222" y="189.335646" style="stroke: #000000"/>
     <use xlink:href="#m3e2a799ec2" x="331.025623" y="193.089979" style="stroke: #000000"/>
     <use xlink:href="#m3e2a799ec2" x="331.456038" y="185.765021" style="stroke: #000000"/>
     <use xlink:href="#m3e2a799ec2" x="331.850024" y="194.890418" style="stroke: #000000"/>
     <use xlink:href="#m3e2a799ec2" x="332.270264" y="188.229206" style="stroke: #000000"/>
     <use xlink:href="#m3e2a799ec2" x="332.713549" y="189.40841" style="stroke: #000000"/>
    </g>
   </g>
   <g id="line2d_54">
    <path d="M 114.237432 44.443636 
L 141.361947 57.815813 
L 160.19842 69.939764 
L 172.068879 81.417538 
L 181.188602 87.037329 
L 189.895283 88.470459 
L 199.367339 81.571994 
L 206.889916 82.958615 
L 213.112626 87.0901 
L 219.043889 83.960635 
L 224.515278 87.149773 
L 230.292537 85.522618 
L 234.272747 85.973237 
L 238.274734 84.980423 
L 241.836522 86.791204 
L 245.211686 84.082736 
L 248.536949 84.353771 
L 252.242507 85.773443 
L 255.0833 82.955794 
L 257.781475 83.626458 
L 260.363831 83.295368 
L 262.781341 84.946895 
L 265.385729 83.399683 
L 268.056193 81.619396 
L 270.284612 82.772913 
L 272.701846 84.444577 
L 274.807972 83.728752 
L 276.516462 82.078074 
L 278.312691 81.734211 
L 280.02414 81.512945 
L 281.882755 82.266716 
L 283.758716 83.624266 
L 285.482059 82.091687 
L 287.140241 81.154324 
L 288.633966 80.576764 
L 290.14052 80.653995 
L 291.623704 81.549442 
L 293.170326 82.475603 
L 294.412438 82.533496 
L 295.506155 81.552728 
L 296.506081 80.903813 
L 297.352375 80.10885 
L 298.092439 80.184439 
L 298.908321 80.457582 
L 299.7326 80.881861 
L 300.544594 81.854049 
L 301.292627 82.559054 
L 302.098664 81.365238 
L 304.379283 80.895005 
L 305.12118 80.118824 
L 305.922252 80.026627 
L 306.698578 79.651812 
L 307.468995 79.658682 
L 308.219833 80.112358 
L 308.944228 80.623196 
L 309.597082 81.367766 
L 310.212968 81.808349 
L 310.776956 81.358807 
L 311.301813 80.841675 
L 311.872688 80.091554 
L 312.497461 79.757157 
L 313.24614 79.258842 
L 313.932647 79.289478 
L 314.601667 79.157402 
L 315.232859 79.496011 
L 315.857365 79.842844 
L 316.465545 80.288402 
L 317.100036 80.727315 
L 317.687367 81.779654 
L 318.207949 81.532105 
L 318.682203 80.812209 
L 319.142681 80.280676 
L 319.617567 79.928425 
L 320.136249 79.458628 
L 320.691837 79.138176 
L 321.229237 79.054136 
L 321.737985 78.810297 
L 322.289674 78.926462 
L 322.833561 78.899964 
L 323.216738 79.242973 
L 323.604229 79.465046 
L 324.017294 79.843373 
L 324.410291 80.460648 
L 324.763326 80.880092 
L 325.100902 80.994534 
L 325.45264 80.638527 
L 325.789299 80.367729 
L 326.110407 80.017911 
L 326.432593 79.53119 
L 326.825771 79.192776 
L 327.179768 78.972359 
L 327.534884 78.664198 
L 327.890089 78.494386 
L 328.245641 78.488611 
L 328.595723 78.42923 
L 328.908179 78.474211 
L 329.186875 78.669572 
L 329.465067 78.780593 
L 329.737124 79.10863 
L 330.013171 79.410628 
" clip-path="url(#p9017c32ffa)" style="fill: none; stroke-dasharray: 0.5,0.825; stroke-dashoffset: 0; stroke: #000000; stroke-width: 0.5"/>
    <g clip-path="url(#p9017c32ffa)">
     <use xlink:href="#m3e2a799ec2" x="114.237432" y="44.443636" style="stroke: #000000"/>
     <use xlink:href="#m3e2a799ec2" x="141.361947" y="57.815813" style="stroke: #000000"/>
     <use xlink:href="#m3e2a799ec2" x="160.19842" y="69.939764" style="stroke: #000000"/>
     <use xlink:href="#m3e2a799ec2" x="172.068879" y="81.417538" style="stroke: #000000"/>
     <use xlink:href="#m3e2a799ec2" x="181.188602" y="87.037329" style="stroke: #000000"/>
     <use xlink:href="#m3e2a799ec2" x="189.895283" y="88.470459" style="stroke: #000000"/>
     <use xlink:href="#m3e2a799ec2" x="199.367339" y="81.571994" style="stroke: #000000"/>
     <use xlink:href="#m3e2a799ec2" x="206.889916" y="82.958615" style="stroke: #000000"/>
     <use xlink:href="#m3e2a799ec2" x="213.112626" y="87.0901" style="stroke: #000000"/>
     <use xlink:href="#m3e2a799ec2" x="219.043889" y="83.960635" style="stroke: #000000"/>
     <use xlink:href="#m3e2a799ec2" x="224.515278" y="87.149773" style="stroke: #000000"/>
     <use xlink:href="#m3e2a799ec2" x="230.292537" y="85.522618" style="stroke: #000000"/>
     <use xlink:href="#m3e2a799ec2" x="234.272747" y="85.973237" style="stroke: #000000"/>
     <use xlink:href="#m3e2a799ec2" x="238.274734" y="84.980423" style="stroke: #000000"/>
     <use xlink:href="#m3e2a799ec2" x="241.836522" y="86.791204" style="stroke: #000000"/>
     <use xlink:href="#m3e2a799ec2" x="245.211686" y="84.082736" style="stroke: #000000"/>
     <use xlink:href="#m3e2a799ec2" x="248.536949" y="84.353771" style="stroke: #000000"/>
     <use xlink:href="#m3e2a799ec2" x="252.242507" y="85.773443" style="stroke: #000000"/>
     <use xlink:href="#m3e2a799ec2" x="255.0833" y="82.955794" style="stroke: #000000"/>
     <use xlink:href="#m3e2a799ec2" x="257.781475" y="83.626458" style="stroke: #000000"/>
     <use xlink:href="#m3e2a799ec2" x="260.363831" y="83.295368" style="stroke: #000000"/>
     <use xlink:href="#m3e2a799ec2" x="262.781341" y="84.946895" style="stroke: #000000"/>
     <use xlink:href="#m3e2a799ec2" x="265.385729" y="83.399683" style="stroke: #000000"/>
     <use xlink:href="#m3e2a799ec2" x="268.056193" y="81.619396" style="stroke: #000000"/>
     <use xlink:href="#m3e2a799ec2" x="270.284612" y="82.772913" style="stroke: #000000"/>
     <use xlink:href="#m3e2a799ec2" x="272.701846" y="84.444577" style="stroke: #000000"/>
     <use xlink:href="#m3e2a799ec2" x="274.807972" y="83.728752" style="stroke: #000000"/>
     <use xlink:href="#m3e2a799ec2" x="276.516462" y="82.078074" style="stroke: #000000"/>
     <use xlink:href="#m3e2a799ec2" x="278.312691" y="81.734211" style="stroke: #000000"/>
     <use xlink:href="#m3e2a799ec2" x="280.02414" y="81.512945" style="stroke: #000000"/>
     <use xlink:href="#m3e2a799ec2" x="281.882755" y="82.266716" style="stroke: #000000"/>
     <use xlink:href="#m3e2a799ec2" x="283.758716" y="83.624266" style="stroke: #000000"/>
     <use xlink:href="#m3e2a799ec2" x="285.482059" y="82.091687" style="stroke: #000000"/>
     <use xlink:href="#m3e2a799ec2" x="287.140241" y="81.154324" style="stroke: #000000"/>
     <use xlink:href="#m3e2a799ec2" x="288.633966" y="80.576764" style="stroke: #000000"/>
     <use xlink:href="#m3e2a799ec2" x="290.14052" y="80.653995" style="stroke: #000000"/>
     <use xlink:href="#m3e2a799ec2" x="291.623704" y="81.549442" style="stroke: #000000"/>
     <use xlink:href="#m3e2a799ec2" x="293.170326" y="82.475603" style="stroke: #000000"/>
     <use xlink:href="#m3e2a799ec2" x="294.412438" y="82.533496" style="stroke: #000000"/>
     <use xlink:href="#m3e2a799ec2" x="295.506155" y="81.552728" style="stroke: #000000"/>
     <use xlink:href="#m3e2a799ec2" x="296.506081" y="80.903813" style="stroke: #000000"/>
     <use xlink:href="#m3e2a799ec2" x="297.352375" y="80.10885" style="stroke: #000000"/>
     <use xlink:href="#m3e2a799ec2" x="298.092439" y="80.184439" style="stroke: #000000"/>
     <use xlink:href="#m3e2a799ec2" x="298.908321" y="80.457582" style="stroke: #000000"/>
     <use xlink:href="#m3e2a799ec2" x="299.7326" y="80.881861" style="stroke: #000000"/>
     <use xlink:href="#m3e2a799ec2" x="300.544594" y="81.854049" style="stroke: #000000"/>
     <use xlink:href="#m3e2a799ec2" x="301.292627" y="82.559054" style="stroke: #000000"/>
     <use xlink:href="#m3e2a799ec2" x="302.098664" y="81.365238" style="stroke: #000000"/>
     <use xlink:href="#m3e2a799ec2" x="304.379283" y="80.895005" style="stroke: #000000"/>
     <use xlink:href="#m3e2a799ec2" x="305.12118" y="80.118824" style="stroke: #000000"/>
     <use xlink:href="#m3e2a799ec2" x="305.922252" y="80.026627" style="stroke: #000000"/>
     <use xlink:href="#m3e2a799ec2" x="306.698578" y="79.651812" style="stroke: #000000"/>
     <use xlink:href="#m3e2a799ec2" x="307.468995" y="79.658682" style="stroke: #000000"/>
     <use xlink:href="#m3e2a799ec2" x="308.219833" y="80.112358" style="stroke: #000000"/>
     <use xlink:href="#m3e2a799ec2" x="308.944228" y="80.623196" style="stroke: #000000"/>
     <use xlink:href="#m3e2a799ec2" x="309.597082" y="81.367766" style="stroke: #000000"/>
     <use xlink:href="#m3e2a799ec2" x="310.212968" y="81.808349" style="stroke: #000000"/>
     <use xlink:href="#m3e2a799ec2" x="310.776956" y="81.358807" style="stroke: #000000"/>
     <use xlink:href="#m3e2a799ec2" x="311.301813" y="80.841675" style="stroke: #000000"/>
     <use xlink:href="#m3e2a799ec2" x="311.872688" y="80.091554" style="stroke: #000000"/>
     <use xlink:href="#m3e2a799ec2" x="312.497461" y="79.757157" style="stroke: #000000"/>
     <use xlink:href="#m3e2a799ec2" x="313.24614" y="79.258842" style="stroke: #000000"/>
     <use xlink:href="#m3e2a799ec2" x="313.932647" y="79.289478" style="stroke: #000000"/>
     <use xlink:href="#m3e2a799ec2" x="314.601667" y="79.157402" style="stroke: #000000"/>
     <use xlink:href="#m3e2a799ec2" x="315.232859" y="79.496011" style="stroke: #000000"/>
     <use xlink:href="#m3e2a799ec2" x="315.857365" y="79.842844" style="stroke: #000000"/>
     <use xlink:href="#m3e2a799ec2" x="316.465545" y="80.288402" style="stroke: #000000"/>
     <use xlink:href="#m3e2a799ec2" x="317.100036" y="80.727315" style="stroke: #000000"/>
     <use xlink:href="#m3e2a799ec2" x="317.687367" y="81.779654" style="stroke: #000000"/>
     <use xlink:href="#m3e2a799ec2" x="318.207949" y="81.532105" style="stroke: #000000"/>
     <use xlink:href="#m3e2a799ec2" x="318.682203" y="80.812209" style="stroke: #000000"/>
     <use xlink:href="#m3e2a799ec2" x="319.142681" y="80.280676" style="stroke: #000000"/>
     <use xlink:href="#m3e2a799ec2" x="319.617567" y="79.928425" style="stroke: #000000"/>
     <use xlink:href="#m3e2a799ec2" x="320.136249" y="79.458628" style="stroke: #000000"/>
     <use xlink:href="#m3e2a799ec2" x="320.691837" y="79.138176" style="stroke: #000000"/>
     <use xlink:href="#m3e2a799ec2" x="321.229237" y="79.054136" style="stroke: #000000"/>
     <use xlink:href="#m3e2a799ec2" x="321.737985" y="78.810297" style="stroke: #000000"/>
     <use xlink:href="#m3e2a799ec2" x="322.289674" y="78.926462" style="stroke: #000000"/>
     <use xlink:href="#m3e2a799ec2" x="322.833561" y="78.899964" style="stroke: #000000"/>
     <use xlink:href="#m3e2a799ec2" x="323.216738" y="79.242973" style="stroke: #000000"/>
     <use xlink:href="#m3e2a799ec2" x="323.604229" y="79.465046" style="stroke: #000000"/>
     <use xlink:href="#m3e2a799ec2" x="324.017294" y="79.843373" style="stroke: #000000"/>
     <use xlink:href="#m3e2a799ec2" x="324.410291" y="80.460648" style="stroke: #000000"/>
     <use xlink:href="#m3e2a799ec2" x="324.763326" y="80.880092" style="stroke: #000000"/>
     <use xlink:href="#m3e2a799ec2" x="325.100902" y="80.994534" style="stroke: #000000"/>
     <use xlink:href="#m3e2a799ec2" x="325.45264" y="80.638527" style="stroke: #000000"/>
     <use xlink:href="#m3e2a799ec2" x="325.789299" y="80.367729" style="stroke: #000000"/>
     <use xlink:href="#m3e2a799ec2" x="326.110407" y="80.017911" style="stroke: #000000"/>
     <use xlink:href="#m3e2a799ec2" x="326.432593" y="79.53119" style="stroke: #000000"/>
     <use xlink:href="#m3e2a799ec2" x="326.825771" y="79.192776" style="stroke: #000000"/>
     <use xlink:href="#m3e2a799ec2" x="327.179768" y="78.972359" style="stroke: #000000"/>
     <use xlink:href="#m3e2a799ec2" x="327.534884" y="78.664198" style="stroke: #000000"/>
     <use xlink:href="#m3e2a799ec2" x="327.890089" y="78.494386" style="stroke: #000000"/>
     <use xlink:href="#m3e2a799ec2" x="328.245641" y="78.488611" style="stroke: #000000"/>
     <use xlink:href="#m3e2a799ec2" x="328.595723" y="78.42923" style="stroke: #000000"/>
     <use xlink:href="#m3e2a799ec2" x="328.908179" y="78.474211" style="stroke: #000000"/>
     <use xlink:href="#m3e2a799ec2" x="329.186875" y="78.669572" style="stroke: #000000"/>
     <use xlink:href="#m3e2a799ec2" x="329.465067" y="78.780593" style="stroke: #000000"/>
     <use xlink:href="#m3e2a799ec2" x="329.737124" y="79.10863" style="stroke: #000000"/>
     <use xlink:href="#m3e2a799ec2" x="330.013171" y="79.410628" style="stroke: #000000"/>
    </g>
   </g>
   <g id="line2d_55">
    <path d="M 100.242708 44.443846 
L 133.935445 57.82935 
L 155.156521 69.916778 
L 169.884106 81.438166 
L 181.134759 87.024238 
L 190.81937 88.497865 
L 198.853145 81.577806 
L 206.158125 82.962394 
L 212.620607 87.09268 
L 218.762838 83.96249 
L 223.698531 87.1528 
L 228.717134 85.533075 
L 233.263675 85.979374 
L 237.800425 84.988139 
L 241.448778 86.79567 
L 244.615256 84.086565 
L 247.502691 84.356616 
L 249.800824 85.775824 
L 251.811949 82.957164 
L 253.742221 83.626528 
L 255.651945 83.301543 
L 257.423919 84.947272 
L 259.114214 83.400587 
L 264.846508 81.618484 
L 266.629233 82.763794 
L 268.281955 84.441951 
L 269.828268 83.728185 
L 271.312692 82.071685 
L 272.760104 81.722507 
L 274.075817 81.511107 
L 275.373188 82.256375 
L 276.584407 83.620165 
L 277.782008 82.080184 
L 278.931327 81.143036 
L 280.188876 80.563414 
L 281.439162 80.641701 
L 282.584025 81.51715 
L 283.754826 82.421371 
L 284.821803 82.516846 
L 285.891867 81.543618 
L 287.020563 80.883643 
L 288.097179 80.088571 
L 289.135168 80.167162 
L 290.052996 80.442049 
L 290.94049 80.841429 
L 291.799462 81.767828 
L 292.667244 82.539735 
L 293.493452 81.345712 
L 294.310237 80.866177 
L 295.14874 80.092071 
L 295.926349 80.000175 
L 296.576917 79.606967 
L 297.2135 79.617765 
L 297.880445 80.082491 
L 298.529856 80.584984 
L 299.123775 81.341824 
L 299.660888 81.777689 
L 300.239136 81.313621 
L 300.758162 80.821421 
L 301.466259 80.051044 
L 302.007511 79.718825 
L 302.595008 79.210713 
L 303.152974 79.226779 
L 303.70789 79.094314 
L 304.268447 79.440158 
L 304.824507 79.735014 
L 305.314363 80.159735 
L 305.774143 80.702627 
L 306.221548 81.163165 
L 306.682886 81.483587 
L 307.031487 80.771152 
L 307.380225 80.222668 
L 307.729196 79.866776 
L 308.084906 79.40208 
L 308.424231 79.059227 
L 308.753563 78.979047 
L 309.093538 78.720428 
L 309.435327 78.820829 
L 309.781244 78.790639 
L 310.109451 79.125652 
L 310.442503 79.310221 
L 310.808313 79.698662 
L 311.129097 80.220447 
L 311.462303 80.923886 
L 311.78597 80.923038 
L 312.139138 80.555817 
L 312.462226 80.271546 
L 312.801865 79.947693 
L 313.122244 79.451963 
L 313.481034 79.092054 
L 313.809572 78.871869 
L 314.128317 78.56514 
L 314.458401 78.362664 
L 314.788038 78.344909 
L 315.121671 78.290989 
L 315.414539 78.300088 
L 315.710051 78.506518 
L 316.024943 78.590694 
L 316.321521 78.935088 
L 316.636685 79.151944 
" clip-path="url(#p9017c32ffa)" style="fill: none; stroke-dasharray: 3.2,0.8,0.5,0.8; stroke-dashoffset: 0; stroke: #000000; stroke-width: 0.5"/>
    <g clip-path="url(#p9017c32ffa)">
     <use xlink:href="#m3e2a799ec2" x="100.242708" y="44.443846" style="stroke: #000000"/>
     <use xlink:href="#m3e2a799ec2" x="133.935445" y="57.82935" style="stroke: #000000"/>
     <use xlink:href="#m3e2a799ec2" x="155.156521" y="69.916778" style="stroke: #000000"/>
     <use xlink:href="#m3e2a799ec2" x="169.884106" y="81.438166" style="stroke: #000000"/>
     <use xlink:href="#m3e2a799ec2" x="181.134759" y="87.024238" style="stroke: #000000"/>
     <use xlink:href="#m3e2a799ec2" x="190.81937" y="88.497865" style="stroke: #000000"/>
     <use xlink:href="#m3e2a799ec2" x="198.853145" y="81.577806" style="stroke: #000000"/>
     <use xlink:href="#m3e2a799ec2" x="206.158125" y="82.962394" style="stroke: #000000"/>
     <use xlink:href="#m3e2a799ec2" x="212.620607" y="87.09268" style="stroke: #000000"/>
     <use xlink:href="#m3e2a799ec2" x="218.762838" y="83.96249" style="stroke: #000000"/>
     <use xlink:href="#m3e2a799ec2" x="223.698531" y="87.1528" style="stroke: #000000"/>
     <use xlink:href="#m3e2a799ec2" x="228.717134" y="85.533075" style="stroke: #000000"/>
     <use xlink:href="#m3e2a799ec2" x="233.263675" y="85.979374" style="stroke: #000000"/>
     <use xlink:href="#m3e2a799ec2" x="237.800425" y="84.988139" style="stroke: #000000"/>
     <use xlink:href="#m3e2a799ec2" x="241.448778" y="86.79567" style="stroke: #000000"/>
     <use xlink:href="#m3e2a799ec2" x="244.615256" y="84.086565" style="stroke: #000000"/>
     <use xlink:href="#m3e2a799ec2" x="247.502691" y="84.356616" style="stroke: #000000"/>
     <use xlink:href="#m3e2a799ec2" x="249.800824" y="85.775824" style="stroke: #000000"/>
     <use xlink:href="#m3e2a799ec2" x="251.811949" y="82.957164" style="stroke: #000000"/>
     <use xlink:href="#m3e2a799ec2" x="253.742221" y="83.626528" style="stroke: #000000"/>
     <use xlink:href="#m3e2a799ec2" x="255.651945" y="83.301543" style="stroke: #000000"/>
     <use xlink:href="#m3e2a799ec2" x="257.423919" y="84.947272" style="stroke: #000000"/>
     <use xlink:href="#m3e2a799ec2" x="259.114214" y="83.400587" style="stroke: #000000"/>
     <use xlink:href="#m3e2a799ec2" x="264.846508" y="81.618484" style="stroke: #000000"/>
     <use xlink:href="#m3e2a799ec2" x="266.629233" y="82.763794" style="stroke: #000000"/>
     <use xlink:href="#m3e2a799ec2" x="268.281955" y="84.441951" style="stroke: #000000"/>
     <use xlink:href="#m3e2a799ec2" x="269.828268" y="83.728185" style="stroke: #000000"/>
     <use xlink:href="#m3e2a799ec2" x="271.312692" y="82.071685" style="stroke: #000000"/>
     <use xlink:href="#m3e2a799ec2" x="272.760104" y="81.722507" style="stroke: #000000"/>
     <use xlink:href="#m3e2a799ec2" x="274.075817" y="81.511107" style="stroke: #000000"/>
     <use xlink:href="#m3e2a799ec2" x="275.373188" y="82.256375" style="stroke: #000000"/>
     <use xlink:href="#m3e2a799ec2" x="276.584407" y="83.620165" style="stroke: #000000"/>
     <use xlink:href="#m3e2a799ec2" x="277.782008" y="82.080184" style="stroke: #000000"/>
     <use xlink:href="#m3e2a799ec2" x="278.931327" y="81.143036" style="stroke: #000000"/>
     <use xlink:href="#m3e2a799ec2" x="280.188876" y="80.563414" style="stroke: #000000"/>
     <use xlink:href="#m3e2a799ec2" x="281.439162" y="80.641701" style="stroke: #000000"/>
     <use xlink:href="#m3e2a799ec2" x="282.584025" y="81.51715" style="stroke: #000000"/>
     <use xlink:href="#m3e2a799ec2" x="283.754826" y="82.421371" style="stroke: #000000"/>
     <use xlink:href="#m3e2a799ec2" x="284.821803" y="82.516846" style="stroke: #000000"/>
     <use xlink:href="#m3e2a799ec2" x="285.891867" y="81.543618" style="stroke: #000000"/>
     <use xlink:href="#m3e2a799ec2" x="287.020563" y="80.883643" style="stroke: #000000"/>
     <use xlink:href="#m3e2a799ec2" x="288.097179" y="80.088571" style="stroke: #000000"/>
     <use xlink:href="#m3e2a799ec2" x="289.135168" y="80.167162" style="stroke: #000000"/>
     <use xlink:href="#m3e2a799ec2" x="290.052996" y="80.442049" style="stroke: #000000"/>
     <use xlink:href="#m3e2a799ec2" x="290.94049" y="80.841429" style="stroke: #000000"/>
     <use xlink:href="#m3e2a799ec2" x="291.799462" y="81.767828" style="stroke: #000000"/>
     <use xlink:href="#m3e2a799ec2" x="292.667244" y="82.539735" style="stroke: #000000"/>
     <use xlink:href="#m3e2a799ec2" x="293.493452" y="81.345712" style="stroke: #000000"/>
     <use xlink:href="#m3e2a799ec2" x="294.310237" y="80.866177" style="stroke: #000000"/>
     <use xlink:href="#m3e2a799ec2" x="295.14874" y="80.092071" style="stroke: #000000"/>
     <use xlink:href="#m3e2a799ec2" x="295.926349" y="80.000175" style="stroke: #000000"/>
     <use xlink:href="#m3e2a799ec2" x="296.576917" y="79.606967" style="stroke: #000000"/>
     <use xlink:href="#m3e2a799ec2" x="297.2135" y="79.617765" style="stroke: #000000"/>
     <use xlink:href="#m3e2a799ec2" x="297.880445" y="80.082491" style="stroke: #000000"/>
     <use xlink:href="#m3e2a799ec2" x="298.529856" y="80.584984" style="stroke: #000000"/>
     <use xlink:href="#m3e2a799ec2" x="299.123775" y="81.341824" style="stroke: #000000"/>
     <use xlink:href="#m3e2a799ec2" x="299.660888" y="81.777689" style="stroke: #000000"/>
     <use xlink:href="#m3e2a799ec2" x="300.239136" y="81.313621" style="stroke: #000000"/>
     <use xlink:href="#m3e2a799ec2" x="300.758162" y="80.821421" style="stroke: #000000"/>
     <use xlink:href="#m3e2a799ec2" x="301.466259" y="80.051044" style="stroke: #000000"/>
     <use xlink:href="#m3e2a799ec2" x="302.007511" y="79.718825" style="stroke: #000000"/>
     <use xlink:href="#m3e2a799ec2" x="302.595008" y="79.210713" style="stroke: #000000"/>
     <use xlink:href="#m3e2a799ec2" x="303.152974" y="79.226779" style="stroke: #000000"/>
     <use xlink:href="#m3e2a799ec2" x="303.70789" y="79.094314" style="stroke: #000000"/>
     <use xlink:href="#m3e2a799ec2" x="304.268447" y="79.440158" style="stroke: #000000"/>
     <use xlink:href="#m3e2a799ec2" x="304.824507" y="79.735014" style="stroke: #000000"/>
     <use xlink:href="#m3e2a799ec2" x="305.314363" y="80.159735" style="stroke: #000000"/>
     <use xlink:href="#m3e2a799ec2" x="305.774143" y="80.702627" style="stroke: #000000"/>
     <use xlink:href="#m3e2a799ec2" x="306.221548" y="81.163165" style="stroke: #000000"/>
     <use xlink:href="#m3e2a799ec2" x="306.682886" y="81.483587" style="stroke: #000000"/>
     <use xlink:href="#m3e2a799ec2" x="307.031487" y="80.771152" style="stroke: #000000"/>
     <use xlink:href="#m3e2a799ec2" x="307.380225" y="80.222668" style="stroke: #000000"/>
     <use xlink:href="#m3e2a799ec2" x="307.729196" y="79.866776" style="stroke: #000000"/>
     <use xlink:href="#m3e2a799ec2" x="308.084906" y="79.40208" style="stroke: #000000"/>
     <use xlink:href="#m3e2a799ec2" x="308.424231" y="79.059227" style="stroke: #000000"/>
     <use xlink:href="#m3e2a799ec2" x="308.753563" y="78.979047" style="stroke: #000000"/>
     <use xlink:href="#m3e2a799ec2" x="309.093538" y="78.720428" style="stroke: #000000"/>
     <use xlink:href="#m3e2a799ec2" x="309.435327" y="78.820829" style="stroke: #000000"/>
     <use xlink:href="#m3e2a799ec2" x="309.781244" y="78.790639" style="stroke: #000000"/>
     <use xlink:href="#m3e2a799ec2" x="310.109451" y="79.125652" style="stroke: #000000"/>
     <use xlink:href="#m3e2a799ec2" x="310.442503" y="79.310221" style="stroke: #000000"/>
     <use xlink:href="#m3e2a799ec2" x="310.808313" y="79.698662" style="stroke: #000000"/>
     <use xlink:href="#m3e2a799ec2" x="311.129097" y="80.220447" style="stroke: #000000"/>
     <use xlink:href="#m3e2a799ec2" x="311.462303" y="80.923886" style="stroke: #000000"/>
     <use xlink:href="#m3e2a799ec2" x="311.78597" y="80.923038" style="stroke: #000000"/>
     <use xlink:href="#m3e2a799ec2" x="312.139138" y="80.555817" style="stroke: #000000"/>
     <use xlink:href="#m3e2a799ec2" x="312.462226" y="80.271546" style="stroke: #000000"/>
     <use xlink:href="#m3e2a799ec2" x="312.801865" y="79.947693" style="stroke: #000000"/>
     <use xlink:href="#m3e2a799ec2" x="313.122244" y="79.451963" style="stroke: #000000"/>
     <use xlink:href="#m3e2a799ec2" x="313.481034" y="79.092054" style="stroke: #000000"/>
     <use xlink:href="#m3e2a799ec2" x="313.809572" y="78.871869" style="stroke: #000000"/>
     <use xlink:href="#m3e2a799ec2" x="314.128317" y="78.56514" style="stroke: #000000"/>
     <use xlink:href="#m3e2a799ec2" x="314.458401" y="78.362664" style="stroke: #000000"/>
     <use xlink:href="#m3e2a799ec2" x="314.788038" y="78.344909" style="stroke: #000000"/>
     <use xlink:href="#m3e2a799ec2" x="315.121671" y="78.290989" style="stroke: #000000"/>
     <use xlink:href="#m3e2a799ec2" x="315.414539" y="78.300088" style="stroke: #000000"/>
     <use xlink:href="#m3e2a799ec2" x="315.710051" y="78.506518" style="stroke: #000000"/>
     <use xlink:href="#m3e2a799ec2" x="316.024943" y="78.590694" style="stroke: #000000"/>
     <use xlink:href="#m3e2a799ec2" x="316.321521" y="78.935088" style="stroke: #000000"/>
     <use xlink:href="#m3e2a799ec2" x="316.636685" y="79.151944" style="stroke: #000000"/>
    </g>
   </g>
   <g id="patch_3">
    <path d="M 54 252 
L 54 34.56 
" style="fill: none; stroke: #000000; stroke-width: 0.8; stroke-linejoin: miter; stroke-linecap: square"/>
   </g>
   <g id="patch_4">
    <path d="M 388.8 252 
L 388.8 34.56 
" style="fill: none; stroke: #000000; stroke-width: 0.8; stroke-linejoin: miter; stroke-linecap: square"/>
   </g>
   <g id="patch_5">
    <path d="M 54 252 
L 388.8 252 
" style="fill: none; stroke: #000000; stroke-width: 0.8; stroke-linejoin: miter; stroke-linecap: square"/>
   </g>
   <g id="patch_6">
    <path d="M 54 34.56 
L 388.8 34.56 
" style="fill: none; stroke: #000000; stroke-width: 0.8; stroke-linejoin: miter; stroke-linecap: square"/>
   </g>
   <g id="legend_1">
    <g id="patch_7">
     <path d="M 266.86 125.56 
L 383.9 125.56 
Q 385.3 125.56 385.3 124.16 
L 385.3 39.46 
Q 385.3 38.06 383.9 38.06 
L 266.86 38.06 
Q 265.46 38.06 265.46 39.46 
L 265.46 124.16 
Q 265.46 125.56 266.86 125.56 
z
" style="fill: #ffffff; fill-opacity: 0.6; stroke: #cccccc; stroke-linejoin: miter"/>
    </g>
    <g id="line2d_56">
     <path d="M 268.26 44.094219 
L 275.26 44.094219 
L 282.26 44.094219 
" style="fill: none; stroke: #000000; stroke-width: 0.5; stroke-linecap: square"/>
    </g>
    <g id="text_8">
     <!-- RM, $a=2^{11}$ -->
     <g transform="translate(287.86 46.544219)scale(0.07 -0.07)">
      <defs>
       <path id="DejaVuSans-52" d="M 2841 2188 
Q 3044 2119 3236 1894 
Q 3428 1669 3622 1275 
L 4263 0 
L 3584 0 
L 2988 1197 
Q 2756 1666 2539 1819 
Q 2322 1972 1947 1972 
L 1259 1972 
L 1259 0 
L 628 0 
L 628 4666 
L 2053 4666 
Q 2853 4666 3247 4331 
Q 3641 3997 3641 3322 
Q 3641 2881 3436 2590 
Q 3231 2300 2841 2188 
z
M 1259 4147 
L 1259 2491 
L 2053 2491 
Q 2509 2491 2742 2702 
Q 2975 2913 2975 3322 
Q 2975 3731 2742 3939 
Q 2509 4147 2053 4147 
L 1259 4147 
z
" transform="scale(0.015625)"/>
       <path id="DejaVuSans-4d" d="M 628 4666 
L 1569 4666 
L 2759 1491 
L 3956 4666 
L 4897 4666 
L 4897 0 
L 4281 0 
L 4281 4097 
L 3078 897 
L 2444 897 
L 1241 4097 
L 1241 0 
L 628 0 
L 628 4666 
z
" transform="scale(0.015625)"/>
       <path id="DejaVuSans-2c" d="M 750 794 
L 1409 794 
L 1409 256 
L 897 -744 
L 494 -744 
L 750 256 
L 750 794 
z
" transform="scale(0.015625)"/>
       <path id="DejaVuSans-Oblique-61" d="M 3438 1997 
L 3047 0 
L 2472 0 
L 2578 531 
Q 2325 219 2001 64 
Q 1678 -91 1281 -91 
Q 834 -91 548 182 
Q 263 456 263 884 
Q 263 1497 752 1853 
Q 1241 2209 2100 2209 
L 2900 2209 
L 2931 2363 
Q 2938 2388 2941 2417 
Q 2944 2447 2944 2509 
Q 2944 2788 2717 2942 
Q 2491 3097 2081 3097 
Q 1800 3097 1504 3025 
Q 1209 2953 897 2809 
L 997 3341 
Q 1322 3463 1633 3523 
Q 1944 3584 2234 3584 
Q 2853 3584 3176 3315 
Q 3500 3047 3500 2534 
Q 3500 2431 3484 2292 
Q 3469 2153 3438 1997 
z
M 2816 1759 
L 2241 1759 
Q 1534 1759 1195 1570 
Q 856 1381 856 984 
Q 856 709 1029 553 
Q 1203 397 1509 397 
Q 1978 397 2328 733 
Q 2678 1069 2791 1631 
L 2816 1759 
z
" transform="scale(0.015625)"/>
       <path id="DejaVuSans-3d" d="M 678 2906 
L 4684 2906 
L 4684 2381 
L 678 2381 
L 678 2906 
z
M 678 1631 
L 4684 1631 
L 4684 1100 
L 678 1100 
L 678 1631 
z
" transform="scale(0.015625)"/>
      </defs>
      <use xlink:href="#DejaVuSans-52" transform="translate(0 0.684375)"/>
      <use xlink:href="#DejaVuSans-4d" transform="translate(69.482422 0.684375)"/>
      <use xlink:href="#DejaVuSans-2c" transform="translate(155.761719 0.684375)"/>
      <use xlink:href="#DejaVuSans-20" transform="translate(187.548828 0.684375)"/>
      <use xlink:href="#DejaVuSans-Oblique-61" transform="translate(219.335938 0.684375)"/>
      <use xlink:href="#DejaVuSans-3d" transform="translate(300.097656 0.684375)"/>
      <use xlink:href="#DejaVuSans-32" transform="translate(403.369141 0.684375)"/>
      <use xlink:href="#DejaVuSans-31" transform="translate(467.949219 38.965625)scale(0.7)"/>
      <use xlink:href="#DejaVuSans-31" transform="translate(512.485352 38.965625)scale(0.7)"/>
     </g>
    </g>
    <g id="line2d_57">
     <path d="M 268.26 54.734219 
L 275.26 54.734219 
L 282.26 54.734219 
" style="fill: none; stroke-dasharray: 1.85,0.8; stroke-dashoffset: 0; stroke: #000000; stroke-width: 0.5"/>
    </g>
    <g id="text_9">
     <!-- RM, shift, $a=2^{11}$ -->
     <g transform="translate(287.86 57.184219)scale(0.07 -0.07)">
      <defs>
       <path id="DejaVuSans-66" d="M 2375 4863 
L 2375 4384 
L 1825 4384 
Q 1516 4384 1395 4259 
Q 1275 4134 1275 3809 
L 1275 3500 
L 2222 3500 
L 2222 3053 
L 1275 3053 
L 1275 0 
L 697 0 
L 697 3053 
L 147 3053 
L 147 3500 
L 697 3500 
L 697 3744 
Q 697 4328 969 4595 
Q 1241 4863 1831 4863 
L 2375 4863 
z
" transform="scale(0.015625)"/>
      </defs>
      <use xlink:href="#DejaVuSans-52" transform="translate(0 0.684375)"/>
      <use xlink:href="#DejaVuSans-4d" transform="translate(69.482422 0.684375)"/>
      <use xlink:href="#DejaVuSans-2c" transform="translate(155.761719 0.684375)"/>
      <use xlink:href="#DejaVuSans-20" transform="translate(187.548828 0.684375)"/>
      <use xlink:href="#DejaVuSans-73" transform="translate(219.335938 0.684375)"/>
      <use xlink:href="#DejaVuSans-68" transform="translate(271.435547 0.684375)"/>
      <use xlink:href="#DejaVuSans-69" transform="translate(334.814453 0.684375)"/>
      <use xlink:href="#DejaVuSans-66" transform="translate(362.597656 0.684375)"/>
      <use xlink:href="#DejaVuSans-74" transform="translate(397.802734 0.684375)"/>
      <use xlink:href="#DejaVuSans-2c" transform="translate(437.011719 0.684375)"/>
      <use xlink:href="#DejaVuSans-20" transform="translate(468.798828 0.684375)"/>
      <use xlink:href="#DejaVuSans-Oblique-61" transform="translate(500.585938 0.684375)"/>
      <use xlink:href="#DejaVuSans-3d" transform="translate(581.347656 0.684375)"/>
      <use xlink:href="#DejaVuSans-32" transform="translate(684.619141 0.684375)"/>
      <use xlink:href="#DejaVuSans-31" transform="translate(749.199219 38.965625)scale(0.7)"/>
      <use xlink:href="#DejaVuSans-31" transform="translate(793.735352 38.965625)scale(0.7)"/>
     </g>
    </g>
    <g id="line2d_58">
     <path d="M 268.26 65.374219 
L 275.26 65.374219 
L 282.26 65.374219 
" style="fill: none; stroke-dasharray: 0.5,0.825; stroke-dashoffset: 0; stroke: #000000; stroke-width: 0.5"/>
    </g>
    <g id="text_10">
     <!-- RM, softmax, $a=2^{11}$ -->
     <g transform="translate(287.86 67.824219)scale(0.07 -0.07)">
      <defs>
       <path id="DejaVuSans-78" d="M 3513 3500 
L 2247 1797 
L 3578 0 
L 2900 0 
L 1881 1375 
L 863 0 
L 184 0 
L 1544 1831 
L 300 3500 
L 978 3500 
L 1906 2253 
L 2834 3500 
L 3513 3500 
z
" transform="scale(0.015625)"/>
      </defs>
      <use xlink:href="#DejaVuSans-52" transform="translate(0 0.684375)"/>
      <use xlink:href="#DejaVuSans-4d" transform="translate(69.482422 0.684375)"/>
      <use xlink:href="#DejaVuSans-2c" transform="translate(155.761719 0.684375)"/>
      <use xlink:href="#DejaVuSans-20" transform="translate(187.548828 0.684375)"/>
      <use xlink:href="#DejaVuSans-73" transform="translate(219.335938 0.684375)"/>
      <use xlink:href="#DejaVuSans-6f" transform="translate(271.435547 0.684375)"/>
      <use xlink:href="#DejaVuSans-66" transform="translate(332.617188 0.684375)"/>
      <use xlink:href="#DejaVuSans-74" transform="translate(367.822266 0.684375)"/>
      <use xlink:href="#DejaVuSans-6d" transform="translate(407.03125 0.684375)"/>
      <use xlink:href="#DejaVuSans-61" transform="translate(504.443359 0.684375)"/>
      <use xlink:href="#DejaVuSans-78" transform="translate(565.722656 0.684375)"/>
      <use xlink:href="#DejaVuSans-2c" transform="translate(624.902344 0.684375)"/>
      <use xlink:href="#DejaVuSans-20" transform="translate(656.689453 0.684375)"/>
      <use xlink:href="#DejaVuSans-Oblique-61" transform="translate(688.476562 0.684375)"/>
      <use xlink:href="#DejaVuSans-3d" transform="translate(769.238281 0.684375)"/>
      <use xlink:href="#DejaVuSans-32" transform="translate(872.509766 0.684375)"/>
      <use xlink:href="#DejaVuSans-31" transform="translate(937.089844 38.965625)scale(0.7)"/>
      <use xlink:href="#DejaVuSans-31" transform="translate(981.625977 38.965625)scale(0.7)"/>
     </g>
    </g>
    <g id="line2d_59">
     <path d="M 268.26 76.014219 
L 275.26 76.014219 
L 282.26 76.014219 
" style="fill: none; stroke-dasharray: 3.2,0.8,0.5,0.8; stroke-dashoffset: 0; stroke: #000000; stroke-width: 0.5"/>
    </g>
    <g id="text_11">
     <!-- RM, softmax, shift, $a=2^{11}$ -->
     <g transform="translate(287.86 78.464219)scale(0.07 -0.07)">
      <use xlink:href="#DejaVuSans-52" transform="translate(0 0.684375)"/>
      <use xlink:href="#DejaVuSans-4d" transform="translate(69.482422 0.684375)"/>
      <use xlink:href="#DejaVuSans-2c" transform="translate(155.761719 0.684375)"/>
      <use xlink:href="#DejaVuSans-20" transform="translate(187.548828 0.684375)"/>
      <use xlink:href="#DejaVuSans-73" transform="translate(219.335938 0.684375)"/>
      <use xlink:href="#DejaVuSans-6f" transform="translate(271.435547 0.684375)"/>
      <use xlink:href="#DejaVuSans-66" transform="translate(332.617188 0.684375)"/>
      <use xlink:href="#DejaVuSans-74" transform="translate(367.822266 0.684375)"/>
      <use xlink:href="#DejaVuSans-6d" transform="translate(407.03125 0.684375)"/>
      <use xlink:href="#DejaVuSans-61" transform="translate(504.443359 0.684375)"/>
      <use xlink:href="#DejaVuSans-78" transform="translate(565.722656 0.684375)"/>
      <use xlink:href="#DejaVuSans-2c" transform="translate(624.902344 0.684375)"/>
      <use xlink:href="#DejaVuSans-20" transform="translate(656.689453 0.684375)"/>
      <use xlink:href="#DejaVuSans-73" transform="translate(688.476562 0.684375)"/>
      <use xlink:href="#DejaVuSans-68" transform="translate(740.576172 0.684375)"/>
      <use xlink:href="#DejaVuSans-69" transform="translate(803.955078 0.684375)"/>
      <use xlink:href="#DejaVuSans-66" transform="translate(831.738281 0.684375)"/>
      <use xlink:href="#DejaVuSans-74" transform="translate(866.943359 0.684375)"/>
      <use xlink:href="#DejaVuSans-2c" transform="translate(906.152344 0.684375)"/>
      <use xlink:href="#DejaVuSans-20" transform="translate(937.939453 0.684375)"/>
      <use xlink:href="#DejaVuSans-Oblique-61" transform="translate(969.726562 0.684375)"/>
      <use xlink:href="#DejaVuSans-3d" transform="translate(1050.488281 0.684375)"/>
      <use xlink:href="#DejaVuSans-32" transform="translate(1153.759766 0.684375)"/>
      <use xlink:href="#DejaVuSans-31" transform="translate(1218.339844 38.965625)scale(0.7)"/>
      <use xlink:href="#DejaVuSans-31" transform="translate(1262.875977 38.965625)scale(0.7)"/>
     </g>
    </g>
    <g id="line2d_60">
     <path d="M 268.26 86.724219 
L 275.26 86.724219 
L 282.26 86.724219 
" style="fill: none; stroke: #000000; stroke-width: 0.5; stroke-linecap: square"/>
     <g>
      <use xlink:href="#m3e2a799ec2" x="275.26" y="86.724219" style="stroke: #000000"/>
     </g>
    </g>
    <g id="text_12">
     <!-- CFR, $a=2^{12}$ -->
     <g transform="translate(287.86 89.174219)scale(0.07 -0.07)">
      <defs>
       <path id="DejaVuSans-46" d="M 628 4666 
L 3309 4666 
L 3309 4134 
L 1259 4134 
L 1259 2759 
L 3109 2759 
L 3109 2228 
L 1259 2228 
L 1259 0 
L 628 0 
L 628 4666 
z
" transform="scale(0.015625)"/>
      </defs>
      <use xlink:href="#DejaVuSans-43" transform="translate(0 0.765625)"/>
      <use xlink:href="#DejaVuSans-46" transform="translate(69.824219 0.765625)"/>
      <use xlink:href="#DejaVuSans-52" transform="translate(127.34375 0.765625)"/>
      <use xlink:href="#DejaVuSans-2c" transform="translate(196.826172 0.765625)"/>
      <use xlink:href="#DejaVuSans-20" transform="translate(228.613281 0.765625)"/>
      <use xlink:href="#DejaVuSans-Oblique-61" transform="translate(260.400391 0.765625)"/>
      <use xlink:href="#DejaVuSans-3d" transform="translate(341.162109 0.765625)"/>
      <use xlink:href="#DejaVuSans-32" transform="translate(444.433594 0.765625)"/>
      <use xlink:href="#DejaVuSans-31" transform="translate(509.013672 39.046875)scale(0.7)"/>
      <use xlink:href="#DejaVuSans-32" transform="translate(553.549805 39.046875)scale(0.7)"/>
     </g>
    </g>
    <g id="line2d_61">
     <path d="M 268.26 97.434219 
L 275.26 97.434219 
L 282.26 97.434219 
" style="fill: none; stroke-dasharray: 1.85,0.8; stroke-dashoffset: 0; stroke: #000000; stroke-width: 0.5"/>
     <g>
      <use xlink:href="#m3e2a799ec2" x="275.26" y="97.434219" style="stroke: #000000"/>
     </g>
    </g>
    <g id="text_13">
     <!-- CFR, shift, $a=2^{12}$ -->
     <g transform="translate(287.86 99.884219)scale(0.07 -0.07)">
      <use xlink:href="#DejaVuSans-43" transform="translate(0 0.765625)"/>
      <use xlink:href="#DejaVuSans-46" transform="translate(69.824219 0.765625)"/>
      <use xlink:href="#DejaVuSans-52" transform="translate(127.34375 0.765625)"/>
      <use xlink:href="#DejaVuSans-2c" transform="translate(196.826172 0.765625)"/>
      <use xlink:href="#DejaVuSans-20" transform="translate(228.613281 0.765625)"/>
      <use xlink:href="#DejaVuSans-73" transform="translate(260.400391 0.765625)"/>
      <use xlink:href="#DejaVuSans-68" transform="translate(312.5 0.765625)"/>
      <use xlink:href="#DejaVuSans-69" transform="translate(375.878906 0.765625)"/>
      <use xlink:href="#DejaVuSans-66" transform="translate(403.662109 0.765625)"/>
      <use xlink:href="#DejaVuSans-74" transform="translate(438.867188 0.765625)"/>
      <use xlink:href="#DejaVuSans-2c" transform="translate(478.076172 0.765625)"/>
      <use xlink:href="#DejaVuSans-20" transform="translate(509.863281 0.765625)"/>
      <use xlink:href="#DejaVuSans-Oblique-61" transform="translate(541.650391 0.765625)"/>
      <use xlink:href="#DejaVuSans-3d" transform="translate(622.412109 0.765625)"/>
      <use xlink:href="#DejaVuSans-32" transform="translate(725.683594 0.765625)"/>
      <use xlink:href="#DejaVuSans-31" transform="translate(790.263672 39.046875)scale(0.7)"/>
      <use xlink:href="#DejaVuSans-32" transform="translate(834.799805 39.046875)scale(0.7)"/>
     </g>
    </g>
    <g id="line2d_62">
     <path d="M 268.26 108.144219 
L 275.26 108.144219 
L 282.26 108.144219 
" style="fill: none; stroke-dasharray: 0.5,0.825; stroke-dashoffset: 0; stroke: #000000; stroke-width: 0.5"/>
     <g>
      <use xlink:href="#m3e2a799ec2" x="275.26" y="108.144219" style="stroke: #000000"/>
     </g>
    </g>
    <g id="text_14">
     <!-- CFR, softmax, $a=2^{12}$ -->
     <g transform="translate(287.86 110.594219)scale(0.07 -0.07)">
      <use xlink:href="#DejaVuSans-43" transform="translate(0 0.765625)"/>
      <use xlink:href="#DejaVuSans-46" transform="translate(69.824219 0.765625)"/>
      <use xlink:href="#DejaVuSans-52" transform="translate(127.34375 0.765625)"/>
      <use xlink:href="#DejaVuSans-2c" transform="translate(196.826172 0.765625)"/>
      <use xlink:href="#DejaVuSans-20" transform="translate(228.613281 0.765625)"/>
      <use xlink:href="#DejaVuSans-73" transform="translate(260.400391 0.765625)"/>
      <use xlink:href="#DejaVuSans-6f" transform="translate(312.5 0.765625)"/>
      <use xlink:href="#DejaVuSans-66" transform="translate(373.681641 0.765625)"/>
      <use xlink:href="#DejaVuSans-74" transform="translate(408.886719 0.765625)"/>
      <use xlink:href="#DejaVuSans-6d" transform="translate(448.095703 0.765625)"/>
      <use xlink:href="#DejaVuSans-61" transform="translate(545.507812 0.765625)"/>
      <use xlink:href="#DejaVuSans-78" transform="translate(606.787109 0.765625)"/>
      <use xlink:href="#DejaVuSans-2c" transform="translate(665.966797 0.765625)"/>
      <use xlink:href="#DejaVuSans-20" transform="translate(697.753906 0.765625)"/>
      <use xlink:href="#DejaVuSans-Oblique-61" transform="translate(729.541016 0.765625)"/>
      <use xlink:href="#DejaVuSans-3d" transform="translate(810.302734 0.765625)"/>
      <use xlink:href="#DejaVuSans-32" transform="translate(913.574219 0.765625)"/>
      <use xlink:href="#DejaVuSans-31" transform="translate(978.154297 39.046875)scale(0.7)"/>
      <use xlink:href="#DejaVuSans-32" transform="translate(1022.69043 39.046875)scale(0.7)"/>
     </g>
    </g>
    <g id="line2d_63">
     <path d="M 268.26 118.854219 
L 275.26 118.854219 
L 282.26 118.854219 
" style="fill: none; stroke-dasharray: 3.2,0.8,0.5,0.8; stroke-dashoffset: 0; stroke: #000000; stroke-width: 0.5"/>
     <g>
      <use xlink:href="#m3e2a799ec2" x="275.26" y="118.854219" style="stroke: #000000"/>
     </g>
    </g>
    <g id="text_15">
     <!-- CFR, softmax, shift, $a=2^{12}$ -->
     <g transform="translate(287.86 121.304219)scale(0.07 -0.07)">
      <use xlink:href="#DejaVuSans-43" transform="translate(0 0.765625)"/>
      <use xlink:href="#DejaVuSans-46" transform="translate(69.824219 0.765625)"/>
      <use xlink:href="#DejaVuSans-52" transform="translate(127.34375 0.765625)"/>
      <use xlink:href="#DejaVuSans-2c" transform="translate(196.826172 0.765625)"/>
      <use xlink:href="#DejaVuSans-20" transform="translate(228.613281 0.765625)"/>
      <use xlink:href="#DejaVuSans-73" transform="translate(260.400391 0.765625)"/>
      <use xlink:href="#DejaVuSans-6f" transform="translate(312.5 0.765625)"/>
      <use xlink:href="#DejaVuSans-66" transform="translate(373.681641 0.765625)"/>
      <use xlink:href="#DejaVuSans-74" transform="translate(408.886719 0.765625)"/>
      <use xlink:href="#DejaVuSans-6d" transform="translate(448.095703 0.765625)"/>
      <use xlink:href="#DejaVuSans-61" transform="translate(545.507812 0.765625)"/>
      <use xlink:href="#DejaVuSans-78" transform="translate(606.787109 0.765625)"/>
      <use xlink:href="#DejaVuSans-2c" transform="translate(665.966797 0.765625)"/>
      <use xlink:href="#DejaVuSans-20" transform="translate(697.753906 0.765625)"/>
      <use xlink:href="#DejaVuSans-73" transform="translate(729.541016 0.765625)"/>
      <use xlink:href="#DejaVuSans-68" transform="translate(781.640625 0.765625)"/>
      <use xlink:href="#DejaVuSans-69" transform="translate(845.019531 0.765625)"/>
      <use xlink:href="#DejaVuSans-66" transform="translate(872.802734 0.765625)"/>
      <use xlink:href="#DejaVuSans-74" transform="translate(908.007812 0.765625)"/>
      <use xlink:href="#DejaVuSans-2c" transform="translate(947.216797 0.765625)"/>
      <use xlink:href="#DejaVuSans-20" transform="translate(979.003906 0.765625)"/>
      <use xlink:href="#DejaVuSans-Oblique-61" transform="translate(1010.791016 0.765625)"/>
      <use xlink:href="#DejaVuSans-3d" transform="translate(1091.552734 0.765625)"/>
      <use xlink:href="#DejaVuSans-32" transform="translate(1194.824219 0.765625)"/>
      <use xlink:href="#DejaVuSans-31" transform="translate(1259.404297 39.046875)scale(0.7)"/>
      <use xlink:href="#DejaVuSans-32" transform="translate(1303.94043 39.046875)scale(0.7)"/>
     </g>
    </g>
   </g>
  </g>
 </g>
 <defs>
  <clipPath id="p9017c32ffa">
   <rect x="54" y="34.56" width="334.8" height="217.44"/>
  </clipPath>
 </defs>
</svg>
