<?xml version="1.0" encoding="utf-8" standalone="no"?>
<!DOCTYPE svg PUBLIC "-//W3C//DTD SVG 1.1//EN"
  "http://www.w3.org/Graphics/SVG/1.1/DTD/svg11.dtd">
<svg xmlns:xlink="http://www.w3.org/1999/xlink" width="432pt" height="288pt" viewBox="0 0 432 288" xmlns="http://www.w3.org/2000/svg" version="1.1">
 <metadata>
  <rdf:RDF xmlns:dc="http://purl.org/dc/elements/1.1/" xmlns:cc="http://creativecommons.org/ns#" xmlns:rdf="http://www.w3.org/1999/02/22-rdf-syntax-ns#">
   <cc:Work>
    <dc:type rdf:resource="http://purl.org/dc/dcmitype/StillImage"/>
    <dc:date>2023-04-17T02:06:00.670668</dc:date>
    <dc:format>image/svg+xml</dc:format>
    <dc:creator>
     <cc:Agent>
      <dc:title>Matplotlib v3.5.1, https://matplotlib.org/</dc:title>
     </cc:Agent>
    </dc:creator>
   </cc:Work>
  </rdf:RDF>
 </metadata>
 <defs>
  <style type="text/css">*{stroke-linejoin: round; stroke-linecap: butt}</style>
 </defs>
 <g id="figure_1">
  <g id="patch_1">
   <path d="M 0 288 
L 432 288 
L 432 0 
L 0 0 
L 0 288 
z
" style="fill: none"/>
  </g>
  <g id="axes_1">
   <g id="patch_2">
    <path d="M 54 252 
L 388.8 252 
L 388.8 34.56 
L 54 34.56 
z
" style="fill: #ffffff"/>
   </g>
   <g id="matplotlib.axis_1">
    <g id="xtick_1">
     <g id="line2d_1">
      <defs>
       <path id="mfd032f30e2" d="M 0 0 
L 0 3.5 
" style="stroke: #000000; stroke-width: 0.8"/>
      </defs>
      <g>
       <use xlink:href="#mfd032f30e2" x="66.284125" y="252" style="stroke: #000000; stroke-width: 0.8"/>
      </g>
     </g>
     <g id="text_1">
      <!-- 0 -->
      <g transform="translate(63.102875 266.598437)scale(0.1 -0.1)">
       <defs>
        <path id="DejaVuSans-30" d="M 2034 4250 
Q 1547 4250 1301 3770 
Q 1056 3291 1056 2328 
Q 1056 1369 1301 889 
Q 1547 409 2034 409 
Q 2525 409 2770 889 
Q 3016 1369 3016 2328 
Q 3016 3291 2770 3770 
Q 2525 4250 2034 4250 
z
M 2034 4750 
Q 2819 4750 3233 4129 
Q 3647 3509 3647 2328 
Q 3647 1150 3233 529 
Q 2819 -91 2034 -91 
Q 1250 -91 836 529 
Q 422 1150 422 2328 
Q 422 3509 836 4129 
Q 1250 4750 2034 4750 
z
" transform="scale(0.015625)"/>
       </defs>
       <use xlink:href="#DejaVuSans-30"/>
      </g>
     </g>
    </g>
    <g id="xtick_2">
     <g id="line2d_2">
      <g>
       <use xlink:href="#mfd032f30e2" x="109.281591" y="252" style="stroke: #000000; stroke-width: 0.8"/>
      </g>
     </g>
     <g id="text_2">
      <!-- 250 -->
      <g transform="translate(99.737841 266.598437)scale(0.1 -0.1)">
       <defs>
        <path id="DejaVuSans-32" d="M 1228 531 
L 3431 531 
L 3431 0 
L 469 0 
L 469 531 
Q 828 903 1448 1529 
Q 2069 2156 2228 2338 
Q 2531 2678 2651 2914 
Q 2772 3150 2772 3378 
Q 2772 3750 2511 3984 
Q 2250 4219 1831 4219 
Q 1534 4219 1204 4116 
Q 875 4013 500 3803 
L 500 4441 
Q 881 4594 1212 4672 
Q 1544 4750 1819 4750 
Q 2544 4750 2975 4387 
Q 3406 4025 3406 3419 
Q 3406 3131 3298 2873 
Q 3191 2616 2906 2266 
Q 2828 2175 2409 1742 
Q 1991 1309 1228 531 
z
" transform="scale(0.015625)"/>
        <path id="DejaVuSans-35" d="M 691 4666 
L 3169 4666 
L 3169 4134 
L 1269 4134 
L 1269 2991 
Q 1406 3038 1543 3061 
Q 1681 3084 1819 3084 
Q 2600 3084 3056 2656 
Q 3513 2228 3513 1497 
Q 3513 744 3044 326 
Q 2575 -91 1722 -91 
Q 1428 -91 1123 -41 
Q 819 9 494 109 
L 494 744 
Q 775 591 1075 516 
Q 1375 441 1709 441 
Q 2250 441 2565 725 
Q 2881 1009 2881 1497 
Q 2881 1984 2565 2268 
Q 2250 2553 1709 2553 
Q 1456 2553 1204 2497 
Q 953 2441 691 2322 
L 691 4666 
z
" transform="scale(0.015625)"/>
       </defs>
       <use xlink:href="#DejaVuSans-32"/>
       <use xlink:href="#DejaVuSans-35" x="63.623047"/>
       <use xlink:href="#DejaVuSans-30" x="127.246094"/>
      </g>
     </g>
    </g>
    <g id="xtick_3">
     <g id="line2d_3">
      <g>
       <use xlink:href="#mfd032f30e2" x="152.279057" y="252" style="stroke: #000000; stroke-width: 0.8"/>
      </g>
     </g>
     <g id="text_3">
      <!-- 500 -->
      <g transform="translate(142.735307 266.598437)scale(0.1 -0.1)">
       <use xlink:href="#DejaVuSans-35"/>
       <use xlink:href="#DejaVuSans-30" x="63.623047"/>
       <use xlink:href="#DejaVuSans-30" x="127.246094"/>
      </g>
     </g>
    </g>
    <g id="xtick_4">
     <g id="line2d_4">
      <g>
       <use xlink:href="#mfd032f30e2" x="195.276522" y="252" style="stroke: #000000; stroke-width: 0.8"/>
      </g>
     </g>
     <g id="text_4">
      <!-- 750 -->
      <g transform="translate(185.732772 266.598437)scale(0.1 -0.1)">
       <defs>
        <path id="DejaVuSans-37" d="M 525 4666 
L 3525 4666 
L 3525 4397 
L 1831 0 
L 1172 0 
L 2766 4134 
L 525 4134 
L 525 4666 
z
" transform="scale(0.015625)"/>
       </defs>
       <use xlink:href="#DejaVuSans-37"/>
       <use xlink:href="#DejaVuSans-35" x="63.623047"/>
       <use xlink:href="#DejaVuSans-30" x="127.246094"/>
      </g>
     </g>
    </g>
    <g id="xtick_5">
     <g id="line2d_5">
      <g>
       <use xlink:href="#mfd032f30e2" x="238.273988" y="252" style="stroke: #000000; stroke-width: 0.8"/>
      </g>
     </g>
     <g id="text_5">
      <!-- 1000 -->
      <g transform="translate(225.548988 266.598437)scale(0.1 -0.1)">
       <defs>
        <path id="DejaVuSans-31" d="M 794 531 
L 1825 531 
L 1825 4091 
L 703 3866 
L 703 4441 
L 1819 4666 
L 2450 4666 
L 2450 531 
L 3481 531 
L 3481 0 
L 794 0 
L 794 531 
z
" transform="scale(0.015625)"/>
       </defs>
       <use xlink:href="#DejaVuSans-31"/>
       <use xlink:href="#DejaVuSans-30" x="63.623047"/>
       <use xlink:href="#DejaVuSans-30" x="127.246094"/>
       <use xlink:href="#DejaVuSans-30" x="190.869141"/>
      </g>
     </g>
    </g>
    <g id="xtick_6">
     <g id="line2d_6">
      <g>
       <use xlink:href="#mfd032f30e2" x="281.271454" y="252" style="stroke: #000000; stroke-width: 0.8"/>
      </g>
     </g>
     <g id="text_6">
      <!-- 1250 -->
      <g transform="translate(268.546454 266.598437)scale(0.1 -0.1)">
       <use xlink:href="#DejaVuSans-31"/>
       <use xlink:href="#DejaVuSans-32" x="63.623047"/>
       <use xlink:href="#DejaVuSans-35" x="127.246094"/>
       <use xlink:href="#DejaVuSans-30" x="190.869141"/>
      </g>
     </g>
    </g>
    <g id="xtick_7">
     <g id="line2d_7">
      <g>
       <use xlink:href="#mfd032f30e2" x="324.26892" y="252" style="stroke: #000000; stroke-width: 0.8"/>
      </g>
     </g>
     <g id="text_7">
      <!-- 1500 -->
      <g transform="translate(311.54392 266.598437)scale(0.1 -0.1)">
       <use xlink:href="#DejaVuSans-31"/>
       <use xlink:href="#DejaVuSans-35" x="63.623047"/>
       <use xlink:href="#DejaVuSans-30" x="127.246094"/>
       <use xlink:href="#DejaVuSans-30" x="190.869141"/>
      </g>
     </g>
    </g>
    <g id="xtick_8">
     <g id="line2d_8">
      <g>
       <use xlink:href="#mfd032f30e2" x="367.266386" y="252" style="stroke: #000000; stroke-width: 0.8"/>
      </g>
     </g>
     <g id="text_8">
      <!-- 1750 -->
      <g transform="translate(354.541386 266.598437)scale(0.1 -0.1)">
       <use xlink:href="#DejaVuSans-31"/>
       <use xlink:href="#DejaVuSans-37" x="63.623047"/>
       <use xlink:href="#DejaVuSans-35" x="127.246094"/>
       <use xlink:href="#DejaVuSans-30" x="190.869141"/>
      </g>
     </g>
    </g>
    <g id="text_9">
     <!-- time (s) -->
     <g transform="translate(202.008594 280.276563)scale(0.1 -0.1)">
      <defs>
       <path id="DejaVuSans-74" d="M 1172 4494 
L 1172 3500 
L 2356 3500 
L 2356 3053 
L 1172 3053 
L 1172 1153 
Q 1172 725 1289 603 
Q 1406 481 1766 481 
L 2356 481 
L 2356 0 
L 1766 0 
Q 1100 0 847 248 
Q 594 497 594 1153 
L 594 3053 
L 172 3053 
L 172 3500 
L 594 3500 
L 594 4494 
L 1172 4494 
z
" transform="scale(0.015625)"/>
       <path id="DejaVuSans-69" d="M 603 3500 
L 1178 3500 
L 1178 0 
L 603 0 
L 603 3500 
z
M 603 4863 
L 1178 4863 
L 1178 4134 
L 603 4134 
L 603 4863 
z
" transform="scale(0.015625)"/>
       <path id="DejaVuSans-6d" d="M 3328 2828 
Q 3544 3216 3844 3400 
Q 4144 3584 4550 3584 
Q 5097 3584 5394 3201 
Q 5691 2819 5691 2113 
L 5691 0 
L 5113 0 
L 5113 2094 
Q 5113 2597 4934 2840 
Q 4756 3084 4391 3084 
Q 3944 3084 3684 2787 
Q 3425 2491 3425 1978 
L 3425 0 
L 2847 0 
L 2847 2094 
Q 2847 2600 2669 2842 
Q 2491 3084 2119 3084 
Q 1678 3084 1418 2786 
Q 1159 2488 1159 1978 
L 1159 0 
L 581 0 
L 581 3500 
L 1159 3500 
L 1159 2956 
Q 1356 3278 1631 3431 
Q 1906 3584 2284 3584 
Q 2666 3584 2933 3390 
Q 3200 3197 3328 2828 
z
" transform="scale(0.015625)"/>
       <path id="DejaVuSans-65" d="M 3597 1894 
L 3597 1613 
L 953 1613 
Q 991 1019 1311 708 
Q 1631 397 2203 397 
Q 2534 397 2845 478 
Q 3156 559 3463 722 
L 3463 178 
Q 3153 47 2828 -22 
Q 2503 -91 2169 -91 
Q 1331 -91 842 396 
Q 353 884 353 1716 
Q 353 2575 817 3079 
Q 1281 3584 2069 3584 
Q 2775 3584 3186 3129 
Q 3597 2675 3597 1894 
z
M 3022 2063 
Q 3016 2534 2758 2815 
Q 2500 3097 2075 3097 
Q 1594 3097 1305 2825 
Q 1016 2553 972 2059 
L 3022 2063 
z
" transform="scale(0.015625)"/>
       <path id="DejaVuSans-20" transform="scale(0.015625)"/>
       <path id="DejaVuSans-28" d="M 1984 4856 
Q 1566 4138 1362 3434 
Q 1159 2731 1159 2009 
Q 1159 1288 1364 580 
Q 1569 -128 1984 -844 
L 1484 -844 
Q 1016 -109 783 600 
Q 550 1309 550 2009 
Q 550 2706 781 3412 
Q 1013 4119 1484 4856 
L 1984 4856 
z
" transform="scale(0.015625)"/>
       <path id="DejaVuSans-73" d="M 2834 3397 
L 2834 2853 
Q 2591 2978 2328 3040 
Q 2066 3103 1784 3103 
Q 1356 3103 1142 2972 
Q 928 2841 928 2578 
Q 928 2378 1081 2264 
Q 1234 2150 1697 2047 
L 1894 2003 
Q 2506 1872 2764 1633 
Q 3022 1394 3022 966 
Q 3022 478 2636 193 
Q 2250 -91 1575 -91 
Q 1294 -91 989 -36 
Q 684 19 347 128 
L 347 722 
Q 666 556 975 473 
Q 1284 391 1588 391 
Q 1994 391 2212 530 
Q 2431 669 2431 922 
Q 2431 1156 2273 1281 
Q 2116 1406 1581 1522 
L 1381 1569 
Q 847 1681 609 1914 
Q 372 2147 372 2553 
Q 372 3047 722 3315 
Q 1072 3584 1716 3584 
Q 2034 3584 2315 3537 
Q 2597 3491 2834 3397 
z
" transform="scale(0.015625)"/>
       <path id="DejaVuSans-29" d="M 513 4856 
L 1013 4856 
Q 1481 4119 1714 3412 
Q 1947 2706 1947 2009 
Q 1947 1309 1714 600 
Q 1481 -109 1013 -844 
L 513 -844 
Q 928 -128 1133 580 
Q 1338 1288 1338 2009 
Q 1338 2731 1133 3434 
Q 928 4138 513 4856 
z
" transform="scale(0.015625)"/>
      </defs>
      <use xlink:href="#DejaVuSans-74"/>
      <use xlink:href="#DejaVuSans-69" x="39.208984"/>
      <use xlink:href="#DejaVuSans-6d" x="66.992188"/>
      <use xlink:href="#DejaVuSans-65" x="164.404297"/>
      <use xlink:href="#DejaVuSans-20" x="225.927734"/>
      <use xlink:href="#DejaVuSans-28" x="257.714844"/>
      <use xlink:href="#DejaVuSans-73" x="296.728516"/>
      <use xlink:href="#DejaVuSans-29" x="348.828125"/>
     </g>
    </g>
   </g>
   <g id="matplotlib.axis_2">
    <g id="ytick_1">
     <g id="line2d_9">
      <defs>
       <path id="mb9d9032b65" d="M 0 0 
L -3.5 0 
" style="stroke: #000000; stroke-width: 0.8"/>
      </defs>
      <g>
       <use xlink:href="#mb9d9032b65" x="54" y="118.451837" style="stroke: #000000; stroke-width: 0.8"/>
      </g>
     </g>
     <g id="text_10">
      <!-- $\mathdefault{10^{-3}}$ -->
      <g transform="translate(23.5 122.251056)scale(0.1 -0.1)">
       <defs>
        <path id="DejaVuSans-2212" d="M 678 2272 
L 4684 2272 
L 4684 1741 
L 678 1741 
L 678 2272 
z
" transform="scale(0.015625)"/>
        <path id="DejaVuSans-33" d="M 2597 2516 
Q 3050 2419 3304 2112 
Q 3559 1806 3559 1356 
Q 3559 666 3084 287 
Q 2609 -91 1734 -91 
Q 1441 -91 1130 -33 
Q 819 25 488 141 
L 488 750 
Q 750 597 1062 519 
Q 1375 441 1716 441 
Q 2309 441 2620 675 
Q 2931 909 2931 1356 
Q 2931 1769 2642 2001 
Q 2353 2234 1838 2234 
L 1294 2234 
L 1294 2753 
L 1863 2753 
Q 2328 2753 2575 2939 
Q 2822 3125 2822 3475 
Q 2822 3834 2567 4026 
Q 2313 4219 1838 4219 
Q 1578 4219 1281 4162 
Q 984 4106 628 3988 
L 628 4550 
Q 988 4650 1302 4700 
Q 1616 4750 1894 4750 
Q 2613 4750 3031 4423 
Q 3450 4097 3450 3541 
Q 3450 3153 3228 2886 
Q 3006 2619 2597 2516 
z
" transform="scale(0.015625)"/>
       </defs>
       <use xlink:href="#DejaVuSans-31" transform="translate(0 0.765625)"/>
       <use xlink:href="#DejaVuSans-30" transform="translate(63.623047 0.765625)"/>
       <use xlink:href="#DejaVuSans-2212" transform="translate(128.203125 39.046875)scale(0.7)"/>
       <use xlink:href="#DejaVuSans-33" transform="translate(186.855469 39.046875)scale(0.7)"/>
      </g>
     </g>
    </g>
    <g id="ytick_2">
     <g id="line2d_10">
      <defs>
       <path id="m9f965685f0" d="M 0 0 
L -2 0 
" style="stroke: #000000; stroke-width: 0.6"/>
      </defs>
      <g>
       <use xlink:href="#m9f965685f0" x="54" y="224.179006" style="stroke: #000000; stroke-width: 0.6"/>
      </g>
     </g>
    </g>
    <g id="ytick_3">
     <g id="line2d_11">
      <g>
       <use xlink:href="#m9f965685f0" x="54" y="198.916133" style="stroke: #000000; stroke-width: 0.6"/>
      </g>
     </g>
    </g>
    <g id="ytick_4">
     <g id="line2d_12">
      <g>
       <use xlink:href="#m9f965685f0" x="54" y="179.320727" style="stroke: #000000; stroke-width: 0.6"/>
      </g>
     </g>
    </g>
    <g id="ytick_5">
     <g id="line2d_13">
      <g>
       <use xlink:href="#m9f965685f0" x="54" y="163.310115" style="stroke: #000000; stroke-width: 0.6"/>
      </g>
     </g>
    </g>
    <g id="ytick_6">
     <g id="line2d_14">
      <g>
       <use xlink:href="#m9f965685f0" x="54" y="149.773335" style="stroke: #000000; stroke-width: 0.6"/>
      </g>
     </g>
    </g>
    <g id="ytick_7">
     <g id="line2d_15">
      <g>
       <use xlink:href="#m9f965685f0" x="54" y="138.047243" style="stroke: #000000; stroke-width: 0.6"/>
      </g>
     </g>
    </g>
    <g id="ytick_8">
     <g id="line2d_16">
      <g>
       <use xlink:href="#m9f965685f0" x="54" y="127.704096" style="stroke: #000000; stroke-width: 0.6"/>
      </g>
     </g>
    </g>
    <g id="ytick_9">
     <g id="line2d_17">
      <g>
       <use xlink:href="#m9f965685f0" x="54" y="57.582946" style="stroke: #000000; stroke-width: 0.6"/>
      </g>
     </g>
    </g>
    <g id="text_11">
     <!-- NashConv -->
     <g transform="translate(17.420312 168.537031)rotate(-90)scale(0.1 -0.1)">
      <defs>
       <path id="DejaVuSans-4e" d="M 628 4666 
L 1478 4666 
L 3547 763 
L 3547 4666 
L 4159 4666 
L 4159 0 
L 3309 0 
L 1241 3903 
L 1241 0 
L 628 0 
L 628 4666 
z
" transform="scale(0.015625)"/>
       <path id="DejaVuSans-61" d="M 2194 1759 
Q 1497 1759 1228 1600 
Q 959 1441 959 1056 
Q 959 750 1161 570 
Q 1363 391 1709 391 
Q 2188 391 2477 730 
Q 2766 1069 2766 1631 
L 2766 1759 
L 2194 1759 
z
M 3341 1997 
L 3341 0 
L 2766 0 
L 2766 531 
Q 2569 213 2275 61 
Q 1981 -91 1556 -91 
Q 1019 -91 701 211 
Q 384 513 384 1019 
Q 384 1609 779 1909 
Q 1175 2209 1959 2209 
L 2766 2209 
L 2766 2266 
Q 2766 2663 2505 2880 
Q 2244 3097 1772 3097 
Q 1472 3097 1187 3025 
Q 903 2953 641 2809 
L 641 3341 
Q 956 3463 1253 3523 
Q 1550 3584 1831 3584 
Q 2591 3584 2966 3190 
Q 3341 2797 3341 1997 
z
" transform="scale(0.015625)"/>
       <path id="DejaVuSans-68" d="M 3513 2113 
L 3513 0 
L 2938 0 
L 2938 2094 
Q 2938 2591 2744 2837 
Q 2550 3084 2163 3084 
Q 1697 3084 1428 2787 
Q 1159 2491 1159 1978 
L 1159 0 
L 581 0 
L 581 4863 
L 1159 4863 
L 1159 2956 
Q 1366 3272 1645 3428 
Q 1925 3584 2291 3584 
Q 2894 3584 3203 3211 
Q 3513 2838 3513 2113 
z
" transform="scale(0.015625)"/>
       <path id="DejaVuSans-43" d="M 4122 4306 
L 4122 3641 
Q 3803 3938 3442 4084 
Q 3081 4231 2675 4231 
Q 1875 4231 1450 3742 
Q 1025 3253 1025 2328 
Q 1025 1406 1450 917 
Q 1875 428 2675 428 
Q 3081 428 3442 575 
Q 3803 722 4122 1019 
L 4122 359 
Q 3791 134 3420 21 
Q 3050 -91 2638 -91 
Q 1578 -91 968 557 
Q 359 1206 359 2328 
Q 359 3453 968 4101 
Q 1578 4750 2638 4750 
Q 3056 4750 3426 4639 
Q 3797 4528 4122 4306 
z
" transform="scale(0.015625)"/>
       <path id="DejaVuSans-6f" d="M 1959 3097 
Q 1497 3097 1228 2736 
Q 959 2375 959 1747 
Q 959 1119 1226 758 
Q 1494 397 1959 397 
Q 2419 397 2687 759 
Q 2956 1122 2956 1747 
Q 2956 2369 2687 2733 
Q 2419 3097 1959 3097 
z
M 1959 3584 
Q 2709 3584 3137 3096 
Q 3566 2609 3566 1747 
Q 3566 888 3137 398 
Q 2709 -91 1959 -91 
Q 1206 -91 779 398 
Q 353 888 353 1747 
Q 353 2609 779 3096 
Q 1206 3584 1959 3584 
z
" transform="scale(0.015625)"/>
       <path id="DejaVuSans-6e" d="M 3513 2113 
L 3513 0 
L 2938 0 
L 2938 2094 
Q 2938 2591 2744 2837 
Q 2550 3084 2163 3084 
Q 1697 3084 1428 2787 
Q 1159 2491 1159 1978 
L 1159 0 
L 581 0 
L 581 3500 
L 1159 3500 
L 1159 2956 
Q 1366 3272 1645 3428 
Q 1925 3584 2291 3584 
Q 2894 3584 3203 3211 
Q 3513 2838 3513 2113 
z
" transform="scale(0.015625)"/>
       <path id="DejaVuSans-76" d="M 191 3500 
L 800 3500 
L 1894 563 
L 2988 3500 
L 3597 3500 
L 2284 0 
L 1503 0 
L 191 3500 
z
" transform="scale(0.015625)"/>
      </defs>
      <use xlink:href="#DejaVuSans-4e"/>
      <use xlink:href="#DejaVuSans-61" x="74.804688"/>
      <use xlink:href="#DejaVuSans-73" x="136.083984"/>
      <use xlink:href="#DejaVuSans-68" x="188.183594"/>
      <use xlink:href="#DejaVuSans-43" x="251.5625"/>
      <use xlink:href="#DejaVuSans-6f" x="321.386719"/>
      <use xlink:href="#DejaVuSans-6e" x="382.568359"/>
      <use xlink:href="#DejaVuSans-76" x="445.947266"/>
     </g>
    </g>
   </g>
   <g id="line2d_18">
    <path d="M 69.863666 70.901756 
L 72.969926 76.779419 
L 75.860389 110.550992 
L 78.7732 122.894381 
L 81.623483 126.767631 
L 84.474199 135.089187 
L 87.334776 144.75256 
L 90.245075 155.134408 
L 93.268233 152.56158 
L 96.160356 152.132073 
L 99.312985 141.58392 
L 102.278897 159.886163 
L 105.206449 182.78044 
L 108.139938 174.695177 
L 111.26637 160.916165 
L 114.391188 176.547921 
L 117.31665 172.977681 
L 120.308753 204.474267 
L 123.245092 180.608309 
L 126.356735 173.724824 
L 129.432382 176.093918 
L 132.385123 181.356564 
L 135.420983 190.298885 
L 138.533028 199.238496 
L 141.833606 193.616134 
L 144.882276 185.901356 
L 147.903489 192.62986 
L 150.813129 195.655815 
L 153.962512 198.020417 
L 157.04108 196.086189 
L 160.09684 198.166199 
L 163.134378 191.825912 
L 166.10984 201.254619 
L 169.093449 205.149882 
L 172.147741 195.4697 
L 175.228176 188.878739 
L 178.20037 198.677512 
L 181.268854 205.562103 
L 184.240941 188.605467 
L 187.287959 197.937789 
L 190.313136 204.749712 
L 193.226103 197.693524 
L 196.366414 193.078342 
L 199.35016 191.953799 
L 202.421901 199.725308 
L 205.510886 202.07409 
L 208.571751 194.723777 
L 211.653847 219.246744 
L 214.64024 194.300214 
L 217.714436 202.739867 
L 220.776534 206.83297 
L 223.768404 207.396199 
L 226.790245 199.69778 
L 229.747448 206.757228 
L 232.796589 199.514144 
L 235.865132 209.661913 
L 239.120794 206.952219 
L 242.476257 201.439808 
L 245.602981 199.463254 
L 248.595322 205.43301 
L 251.546085 201.813868 
L 254.556734 206.32321 
L 257.689342 209.233951 
L 260.713117 200.989584 
L 263.823883 206.218536 
L 267.027951 206.344809 
L 270.010882 190.830998 
L 273.001302 200.597874 
L 276.076847 202.929613 
L 279.050367 203.088012 
L 282.061611 217.411702 
L 285.187311 207.473299 
L 288.325304 207.977974 
L 291.281131 207.333124 
L 294.274184 215.079527 
L 297.251005 209.605642 
L 300.271624 201.018636 
L 303.316495 214.383646 
L 306.303099 222.496344 
L 309.212788 203.241563 
L 312.173169 203.149556 
L 315.152725 208.561251 
L 318.170903 216.389524 
L 321.202245 220.489342 
L 324.111475 218.663525 
L 327.199388 209.600704 
L 330.168202 223.429714 
L 333.148488 215.163965 
L 336.059013 201.520931 
L 339.078532 200.073211 
L 342.086834 218.148142 
L 345.042372 218.032651 
L 348.074653 225.385664 
L 351.114643 213.402355 
L 354.202444 208.431562 
L 357.194994 226.787768 
L 360.370031 223.97408 
L 363.672417 220.733023 
L 367.307877 219.870088 
L 370.368483 223.944604 
" clip-path="url(#p43af13c5e6)" style="fill: none; stroke: #000000; stroke-width: 0.5; stroke-linecap: square"/>
   </g>
   <g id="line2d_19">
    <path d="M 69.218182 67.402604 
L 72.11196 86.096544 
L 75.012984 116.618098 
L 78.064022 120.719878 
L 81.101718 106.379573 
L 84.376698 135.806311 
L 87.453886 140.527559 
L 90.412391 152.917092 
L 93.360609 151.557334 
L 96.426774 147.777129 
L 99.620441 161.420391 
L 102.650798 163.885607 
L 105.60987 160.621048 
L 108.657485 171.747661 
L 111.770085 178.173104 
L 114.817755 168.379179 
L 117.79758 165.536679 
L 120.835619 174.455549 
L 123.887472 170.463981 
L 127.351391 161.275613 
L 130.417193 151.183443 
L 133.527906 173.942496 
L 136.49133 175.671131 
L 139.627049 159.571327 
L 142.684081 173.057482 
L 146.033304 166.789915 
L 149.083513 171.049155 
L 152.093948 163.259108 
L 155.075138 160.319088 
L 158.272932 185.271719 
L 161.409301 175.323113 
L 164.366763 193.398628 
L 167.410301 194.450265 
L 170.405679 188.805439 
L 173.426822 186.739533 
L 176.351032 197.655021 
L 179.414778 205.91321 
L 182.563737 195.119885 
L 185.538524 187.934692 
L 188.650716 205.473024 
L 191.708542 189.922349 
L 194.661613 209.384603 
L 197.632258 194.371259 
L 200.677435 203.481593 
L 203.757163 190.960472 
L 206.828933 201.416212 
L 209.91152 204.737188 
L 212.956646 205.327111 
L 215.989158 186.414722 
L 218.94772 206.278819 
L 222.072925 208.803642 
L 225.238221 213.934852 
L 228.385672 198.946251 
L 231.455073 203.877169 
L 234.504925 206.247772 
L 237.514068 202.126954 
L 240.646497 219.220556 
L 243.713781 213.131591 
L 246.736163 209.044359 
L 249.845727 214.8962 
L 253.048205 206.301015 
L 256.111398 208.662192 
L 259.128461 208.010869 
L 262.1575 211.763339 
L 265.126334 211.073651 
L 268.053545 206.164716 
L 271.109123 209.005247 
L 274.248571 217.023637 
L 277.196904 215.299269 
L 280.220257 205.677337 
L 283.147985 213.973913 
L 286.143387 216.945414 
L 289.236672 219.480238 
L 292.257099 219.253342 
L 295.215691 207.666895 
L 298.149506 216.280665 
L 301.090482 198.68126 
L 304.01216 203.893029 
L 307.007301 212.276078 
L 309.885903 215.854941 
L 312.939688 213.155813 
L 315.955311 222.310474 
L 318.912103 215.478056 
L 321.870185 212.352512 
L 324.730573 201.486603 
L 327.677111 201.888545 
L 330.610133 207.268422 
L 333.742385 213.67181 
L 336.854011 200.359284 
L 339.786171 204.048979 
L 342.702894 206.635285 
L 345.861558 206.207921 
L 348.998378 208.118974 
L 352.693343 205.049802 
L 355.76208 207.710789 
L 358.83987 215.784663 
L 361.805494 217.237676 
L 364.834576 212.123742 
L 367.801065 215.027597 
L 370.812058 216.040069 
" clip-path="url(#p43af13c5e6)" style="fill: none; stroke-dasharray: 1.85,0.8; stroke-dashoffset: 0; stroke: #000000; stroke-width: 0.5"/>
   </g>
   <g id="line2d_20">
    <path d="M 69.406029 44.443636 
L 72.515078 96.394427 
L 75.587189 103.306419 
L 78.529273 114.925724 
L 81.532633 109.589291 
L 84.709446 122.90133 
L 87.811135 126.847597 
L 90.741121 137.101951 
L 93.743846 129.804215 
L 96.843397 128.452547 
L 100.43992 143.19249 
L 103.548413 154.212267 
L 106.676362 140.275326 
L 109.703006 152.080543 
L 112.911386 155.067265 
L 116.080492 144.606327 
L 119.194178 148.51601 
L 122.224115 161.300399 
L 125.204556 172.490836 
L 128.132316 144.824313 
L 131.262144 150.796216 
L 134.335199 173.83609 
L 137.284428 163.294279 
L 140.39716 171.360172 
L 143.368618 180.365972 
L 146.439329 172.43673 
L 149.46135 176.939647 
L 152.478975 169.834423 
L 155.593168 183.84942 
L 158.674492 174.375562 
L 161.749493 172.857869 
L 164.811867 176.348668 
L 167.76341 174.711631 
L 170.76854 188.213396 
L 173.769304 181.180522 
L 176.837028 184.569371 
L 179.933744 178.318688 
L 182.99848 175.988628 
L 186.052438 189.860455 
L 189.04227 173.324055 
L 192.074342 169.635053 
L 195.27577 174.064991 
L 198.664024 181.620329 
L 201.962408 185.914278 
L 205.067786 195.710875 
L 208.03405 183.846446 
L 211.033965 192.292414 
L 214.092338 181.045227 
L 217.28794 173.451627 
L 220.318203 195.309135 
L 223.44834 177.513613 
L 226.697832 184.312227 
L 229.744948 194.651725 
L 232.705177 177.487369 
L 235.721364 180.853433 
L 238.727198 196.066567 
L 241.729003 195.84819 
L 244.757824 178.503651 
L 247.880318 179.872273 
L 250.956041 188.125872 
L 253.894133 170.949595 
L 256.869098 184.357773 
L 259.959839 191.704648 
L 263.016221 203.175517 
L 266.030571 184.36217 
L 269.088925 190.99142 
L 272.101303 202.557823 
L 275.064531 185.476523 
L 278.125906 194.91026 
L 281.139948 201.101276 
L 284.157507 200.807154 
L 287.321408 193.531598 
L 290.342752 195.681001 
L 293.350749 195.539742 
L 296.302041 174.671985 
L 299.226823 202.73318 
L 302.22174 185.387369 
L 305.214506 200.350229 
L 308.325397 194.15325 
L 311.371388 192.368317 
L 314.385318 190.848508 
L 317.372117 205.940689 
L 320.447347 195.116354 
L 323.945676 210.894598 
L 327.376292 199.12403 
L 330.450139 205.575987 
L 333.741456 225.168062 
L 336.896368 221.433263 
L 339.904881 206.577027 
L 342.835224 210.831307 
L 345.936046 206.62329 
L 348.997851 206.227956 
L 352.044265 204.522678 
L 355.156096 225.721846 
L 358.312596 214.630564 
L 361.350979 220.868726 
L 364.487205 210.035768 
L 367.477002 226.063545 
L 370.465867 223.232887 
L 373.581818 221.543064 
" clip-path="url(#p43af13c5e6)" style="fill: none; stroke-dasharray: 0.5,0.825; stroke-dashoffset: 0; stroke: #000000; stroke-width: 0.5"/>
   </g>
   <g id="line2d_21">
    <path d="M 69.334743 75.42066 
L 72.390655 96.943133 
L 75.476691 122.920063 
L 78.535941 121.741289 
L 81.524931 131.580412 
L 84.760173 140.900624 
L 87.819257 126.711303 
L 90.792928 131.872963 
L 93.834171 142.413062 
L 96.908611 131.168981 
L 99.883123 164.008856 
L 102.926001 151.057214 
L 106.152556 142.932386 
L 109.41332 154.731409 
L 112.520312 157.809126 
L 115.588036 162.345456 
L 118.528338 157.154247 
L 121.473051 168.925014 
L 124.348133 153.799569 
L 127.394013 163.516579 
L 130.345679 169.41846 
L 133.806865 168.581171 
L 137.140306 181.822445 
L 140.323146 153.772447 
L 143.304955 162.239709 
L 146.324112 153.208932 
L 149.37762 148.939745 
L 152.595131 160.612954 
L 155.786763 171.106471 
L 158.83992 160.063292 
L 161.907874 162.387698 
L 164.840269 158.863276 
L 167.858081 148.919307 
L 170.81634 174.237097 
L 173.902047 166.049552 
L 176.860054 180.267074 
L 179.908299 182.608644 
L 183.138779 181.469077 
L 186.136023 168.417906 
L 189.015081 174.693694 
L 191.968817 189.602394 
L 195.005328 172.506786 
L 197.990086 189.782694 
L 200.948147 191.923177 
L 203.971364 182.828346 
L 207.052363 180.391147 
L 209.971234 179.567057 
L 212.951674 187.050167 
L 216.010837 191.51866 
L 218.971116 188.942582 
L 222.055374 189.711513 
L 225.030352 185.294967 
L 228.135833 179.035927 
L 231.052431 195.105106 
L 233.944324 197.237614 
L 236.853554 191.900545 
L 239.936825 192.895513 
L 242.947377 188.518612 
L 246.024857 198.139793 
L 249.039293 192.369417 
L 252.022982 189.352486 
L 255.022986 191.696021 
L 258.570677 192.444359 
L 261.976398 188.088949 
L 265.081694 203.969152 
L 268.321555 200.070542 
L 271.480764 201.160784 
L 274.449726 195.002571 
L 277.450738 197.873296 
L 280.40744 198.063588 
L 283.559429 203.863506 
L 286.605155 200.953696 
L 289.624131 199.612892 
L 292.706503 205.602669 
L 295.740786 196.424213 
L 299.019113 199.71161 
L 301.958529 198.264605 
L 304.893215 197.815876 
L 307.895475 205.545045 
L 310.843108 204.180694 
L 313.859062 197.707059 
L 316.877998 199.049988 
L 320.057022 199.520782 
L 323.103057 206.067096 
L 326.129081 203.484037 
L 329.285131 192.826571 
L 332.812356 204.91827 
L 336.03733 201.410215 
L 339.146388 216.479621 
L 342.185198 210.768737 
L 345.42934 202.986248 
L 348.575335 210.883112 
L 351.790311 201.308372 
L 354.777064 213.161864 
L 357.77731 205.639852 
L 360.833549 209.164688 
L 363.776931 217.088662 
L 366.777217 210.527695 
L 369.911468 215.153965 
L 373.211781 198.794208 
" clip-path="url(#p43af13c5e6)" style="fill: none; stroke-dasharray: 3.2,0.8,0.5,0.8; stroke-dashoffset: 0; stroke: #000000; stroke-width: 0.5"/>
   </g>
   <g id="line2d_22">
    <path d="M 69.405634 65.025518 
L 72.449509 59.790146 
L 75.461727 105.293592 
L 78.520581 109.74057 
L 81.710915 112.989632 
L 84.838819 141.948248 
L 87.983294 121.537075 
L 91.163385 131.934337 
L 94.075021 151.440577 
L 97.163872 136.819949 
L 100.188508 136.995375 
L 103.198912 160.901916 
L 106.169171 153.624268 
L 109.333316 152.319189 
L 112.344049 155.473624 
L 115.379399 147.672346 
L 118.395557 136.339994 
L 121.398602 170.302757 
L 124.348165 174.801347 
L 127.347585 170.82195 
L 130.397066 184.229195 
L 133.347678 153.611806 
L 136.343334 182.444098 
L 139.362379 165.247054 
L 142.454339 165.361707 
L 145.440751 185.054567 
L 148.376523 171.810136 
L 151.41315 191.557214 
L 154.463382 191.059603 
L 157.513295 173.236069 
L 160.424139 180.346161 
L 163.321139 190.982183 
L 166.304848 182.64274 
L 169.453745 180.972413 
L 172.538287 199.748833 
L 175.588572 189.571145 
L 178.675445 200.630141 
L 181.673654 191.040278 
L 184.734391 202.001673 
L 188.340321 187.174233 
L 191.38407 189.428378 
L 194.380233 183.282557 
L 197.618048 184.738998 
L 200.625064 188.767311 
L 203.590047 187.161875 
L 206.646522 202.467226 
L 209.590747 189.439728 
L 212.725246 184.197798 
L 215.683066 195.104339 
L 218.733003 192.438055 
L 221.756942 195.392037 
L 224.65705 208.385057 
L 227.753457 197.244544 
L 230.79165 193.120331 
L 233.895438 196.605844 
L 236.896071 194.542412 
L 239.916105 190.073989 
L 242.994938 206.67618 
L 245.884781 200.533727 
L 249.083403 206.314688 
L 252.29486 198.889054 
L 255.359675 203.652274 
L 258.354441 202.504296 
L 261.829254 215.025434 
L 264.970801 210.7411 
L 268.042747 216.88563 
L 271.149252 205.661934 
L 274.141509 206.529334 
L 277.288171 214.501295 
L 280.397019 206.059245 
L 283.356875 212.563715 
L 286.314845 195.573524 
L 289.294803 202.581532 
L 292.368967 204.223255 
L 295.390654 216.191007 
L 298.691827 219.202538 
L 301.611142 215.818711 
L 304.366569 223.233457 
L 307.034104 214.828793 
L 309.75415 214.144894 
L 312.501821 217.495471 
L 315.022617 200.987843 
L 317.657425 204.520307 
L 320.179623 210.491579 
L 322.666205 206.226685 
L 325.226219 221.549833 
L 327.88733 201.234436 
L 330.400368 215.584362 
L 332.911914 211.667917 
L 335.42867 213.683938 
L 337.963441 205.747148 
L 340.490977 213.396288 
L 342.993318 212.43319 
L 345.51578 206.512507 
L 347.872488 218.362455 
L 350.208521 205.127732 
L 352.451085 201.686377 
L 354.724597 216.770953 
L 356.951912 211.025043 
L 359.220541 211.512577 
" clip-path="url(#p43af13c5e6)" style="fill: none; stroke: #000000; stroke-width: 0.5; stroke-linecap: square"/>
    <defs>
     <path id="mef72cb56ef" d="M 0 0.25 
C 0.066301 0.25 0.129895 0.223658 0.176777 0.176777 
C 0.223658 0.129895 0.25 0.066301 0.25 0 
C 0.25 -0.066301 0.223658 -0.129895 0.176777 -0.176777 
C 0.129895 -0.223658 0.066301 -0.25 0 -0.25 
C -0.066301 -0.25 -0.129895 -0.223658 -0.176777 -0.176777 
C -0.223658 -0.129895 -0.25 -0.066301 -0.25 0 
C -0.25 0.066301 -0.223658 0.129895 -0.176777 0.176777 
C -0.129895 0.223658 -0.066301 0.25 0 0.25 
z
" style="stroke: #000000"/>
    </defs>
    <g clip-path="url(#p43af13c5e6)">
     <use xlink:href="#mef72cb56ef" x="69.405634" y="65.025518" style="stroke: #000000"/>
     <use xlink:href="#mef72cb56ef" x="72.449509" y="59.790146" style="stroke: #000000"/>
     <use xlink:href="#mef72cb56ef" x="75.461727" y="105.293592" style="stroke: #000000"/>
     <use xlink:href="#mef72cb56ef" x="78.520581" y="109.74057" style="stroke: #000000"/>
     <use xlink:href="#mef72cb56ef" x="81.710915" y="112.989632" style="stroke: #000000"/>
     <use xlink:href="#mef72cb56ef" x="84.838819" y="141.948248" style="stroke: #000000"/>
     <use xlink:href="#mef72cb56ef" x="87.983294" y="121.537075" style="stroke: #000000"/>
     <use xlink:href="#mef72cb56ef" x="91.163385" y="131.934337" style="stroke: #000000"/>
     <use xlink:href="#mef72cb56ef" x="94.075021" y="151.440577" style="stroke: #000000"/>
     <use xlink:href="#mef72cb56ef" x="97.163872" y="136.819949" style="stroke: #000000"/>
     <use xlink:href="#mef72cb56ef" x="100.188508" y="136.995375" style="stroke: #000000"/>
     <use xlink:href="#mef72cb56ef" x="103.198912" y="160.901916" style="stroke: #000000"/>
     <use xlink:href="#mef72cb56ef" x="106.169171" y="153.624268" style="stroke: #000000"/>
     <use xlink:href="#mef72cb56ef" x="109.333316" y="152.319189" style="stroke: #000000"/>
     <use xlink:href="#mef72cb56ef" x="112.344049" y="155.473624" style="stroke: #000000"/>
     <use xlink:href="#mef72cb56ef" x="115.379399" y="147.672346" style="stroke: #000000"/>
     <use xlink:href="#mef72cb56ef" x="118.395557" y="136.339994" style="stroke: #000000"/>
     <use xlink:href="#mef72cb56ef" x="121.398602" y="170.302757" style="stroke: #000000"/>
     <use xlink:href="#mef72cb56ef" x="124.348165" y="174.801347" style="stroke: #000000"/>
     <use xlink:href="#mef72cb56ef" x="127.347585" y="170.82195" style="stroke: #000000"/>
     <use xlink:href="#mef72cb56ef" x="130.397066" y="184.229195" style="stroke: #000000"/>
     <use xlink:href="#mef72cb56ef" x="133.347678" y="153.611806" style="stroke: #000000"/>
     <use xlink:href="#mef72cb56ef" x="136.343334" y="182.444098" style="stroke: #000000"/>
     <use xlink:href="#mef72cb56ef" x="139.362379" y="165.247054" style="stroke: #000000"/>
     <use xlink:href="#mef72cb56ef" x="142.454339" y="165.361707" style="stroke: #000000"/>
     <use xlink:href="#mef72cb56ef" x="145.440751" y="185.054567" style="stroke: #000000"/>
     <use xlink:href="#mef72cb56ef" x="148.376523" y="171.810136" style="stroke: #000000"/>
     <use xlink:href="#mef72cb56ef" x="151.41315" y="191.557214" style="stroke: #000000"/>
     <use xlink:href="#mef72cb56ef" x="154.463382" y="191.059603" style="stroke: #000000"/>
     <use xlink:href="#mef72cb56ef" x="157.513295" y="173.236069" style="stroke: #000000"/>
     <use xlink:href="#mef72cb56ef" x="160.424139" y="180.346161" style="stroke: #000000"/>
     <use xlink:href="#mef72cb56ef" x="163.321139" y="190.982183" style="stroke: #000000"/>
     <use xlink:href="#mef72cb56ef" x="166.304848" y="182.64274" style="stroke: #000000"/>
     <use xlink:href="#mef72cb56ef" x="169.453745" y="180.972413" style="stroke: #000000"/>
     <use xlink:href="#mef72cb56ef" x="172.538287" y="199.748833" style="stroke: #000000"/>
     <use xlink:href="#mef72cb56ef" x="175.588572" y="189.571145" style="stroke: #000000"/>
     <use xlink:href="#mef72cb56ef" x="178.675445" y="200.630141" style="stroke: #000000"/>
     <use xlink:href="#mef72cb56ef" x="181.673654" y="191.040278" style="stroke: #000000"/>
     <use xlink:href="#mef72cb56ef" x="184.734391" y="202.001673" style="stroke: #000000"/>
     <use xlink:href="#mef72cb56ef" x="188.340321" y="187.174233" style="stroke: #000000"/>
     <use xlink:href="#mef72cb56ef" x="191.38407" y="189.428378" style="stroke: #000000"/>
     <use xlink:href="#mef72cb56ef" x="194.380233" y="183.282557" style="stroke: #000000"/>
     <use xlink:href="#mef72cb56ef" x="197.618048" y="184.738998" style="stroke: #000000"/>
     <use xlink:href="#mef72cb56ef" x="200.625064" y="188.767311" style="stroke: #000000"/>
     <use xlink:href="#mef72cb56ef" x="203.590047" y="187.161875" style="stroke: #000000"/>
     <use xlink:href="#mef72cb56ef" x="206.646522" y="202.467226" style="stroke: #000000"/>
     <use xlink:href="#mef72cb56ef" x="209.590747" y="189.439728" style="stroke: #000000"/>
     <use xlink:href="#mef72cb56ef" x="212.725246" y="184.197798" style="stroke: #000000"/>
     <use xlink:href="#mef72cb56ef" x="215.683066" y="195.104339" style="stroke: #000000"/>
     <use xlink:href="#mef72cb56ef" x="218.733003" y="192.438055" style="stroke: #000000"/>
     <use xlink:href="#mef72cb56ef" x="221.756942" y="195.392037" style="stroke: #000000"/>
     <use xlink:href="#mef72cb56ef" x="224.65705" y="208.385057" style="stroke: #000000"/>
     <use xlink:href="#mef72cb56ef" x="227.753457" y="197.244544" style="stroke: #000000"/>
     <use xlink:href="#mef72cb56ef" x="230.79165" y="193.120331" style="stroke: #000000"/>
     <use xlink:href="#mef72cb56ef" x="233.895438" y="196.605844" style="stroke: #000000"/>
     <use xlink:href="#mef72cb56ef" x="236.896071" y="194.542412" style="stroke: #000000"/>
     <use xlink:href="#mef72cb56ef" x="239.916105" y="190.073989" style="stroke: #000000"/>
     <use xlink:href="#mef72cb56ef" x="242.994938" y="206.67618" style="stroke: #000000"/>
     <use xlink:href="#mef72cb56ef" x="245.884781" y="200.533727" style="stroke: #000000"/>
     <use xlink:href="#mef72cb56ef" x="249.083403" y="206.314688" style="stroke: #000000"/>
     <use xlink:href="#mef72cb56ef" x="252.29486" y="198.889054" style="stroke: #000000"/>
     <use xlink:href="#mef72cb56ef" x="255.359675" y="203.652274" style="stroke: #000000"/>
     <use xlink:href="#mef72cb56ef" x="258.354441" y="202.504296" style="stroke: #000000"/>
     <use xlink:href="#mef72cb56ef" x="261.829254" y="215.025434" style="stroke: #000000"/>
     <use xlink:href="#mef72cb56ef" x="264.970801" y="210.7411" style="stroke: #000000"/>
     <use xlink:href="#mef72cb56ef" x="268.042747" y="216.88563" style="stroke: #000000"/>
     <use xlink:href="#mef72cb56ef" x="271.149252" y="205.661934" style="stroke: #000000"/>
     <use xlink:href="#mef72cb56ef" x="274.141509" y="206.529334" style="stroke: #000000"/>
     <use xlink:href="#mef72cb56ef" x="277.288171" y="214.501295" style="stroke: #000000"/>
     <use xlink:href="#mef72cb56ef" x="280.397019" y="206.059245" style="stroke: #000000"/>
     <use xlink:href="#mef72cb56ef" x="283.356875" y="212.563715" style="stroke: #000000"/>
     <use xlink:href="#mef72cb56ef" x="286.314845" y="195.573524" style="stroke: #000000"/>
     <use xlink:href="#mef72cb56ef" x="289.294803" y="202.581532" style="stroke: #000000"/>
     <use xlink:href="#mef72cb56ef" x="292.368967" y="204.223255" style="stroke: #000000"/>
     <use xlink:href="#mef72cb56ef" x="295.390654" y="216.191007" style="stroke: #000000"/>
     <use xlink:href="#mef72cb56ef" x="298.691827" y="219.202538" style="stroke: #000000"/>
     <use xlink:href="#mef72cb56ef" x="301.611142" y="215.818711" style="stroke: #000000"/>
     <use xlink:href="#mef72cb56ef" x="304.366569" y="223.233457" style="stroke: #000000"/>
     <use xlink:href="#mef72cb56ef" x="307.034104" y="214.828793" style="stroke: #000000"/>
     <use xlink:href="#mef72cb56ef" x="309.75415" y="214.144894" style="stroke: #000000"/>
     <use xlink:href="#mef72cb56ef" x="312.501821" y="217.495471" style="stroke: #000000"/>
     <use xlink:href="#mef72cb56ef" x="315.022617" y="200.987843" style="stroke: #000000"/>
     <use xlink:href="#mef72cb56ef" x="317.657425" y="204.520307" style="stroke: #000000"/>
     <use xlink:href="#mef72cb56ef" x="320.179623" y="210.491579" style="stroke: #000000"/>
     <use xlink:href="#mef72cb56ef" x="322.666205" y="206.226685" style="stroke: #000000"/>
     <use xlink:href="#mef72cb56ef" x="325.226219" y="221.549833" style="stroke: #000000"/>
     <use xlink:href="#mef72cb56ef" x="327.88733" y="201.234436" style="stroke: #000000"/>
     <use xlink:href="#mef72cb56ef" x="330.400368" y="215.584362" style="stroke: #000000"/>
     <use xlink:href="#mef72cb56ef" x="332.911914" y="211.667917" style="stroke: #000000"/>
     <use xlink:href="#mef72cb56ef" x="335.42867" y="213.683938" style="stroke: #000000"/>
     <use xlink:href="#mef72cb56ef" x="337.963441" y="205.747148" style="stroke: #000000"/>
     <use xlink:href="#mef72cb56ef" x="340.490977" y="213.396288" style="stroke: #000000"/>
     <use xlink:href="#mef72cb56ef" x="342.993318" y="212.43319" style="stroke: #000000"/>
     <use xlink:href="#mef72cb56ef" x="345.51578" y="206.512507" style="stroke: #000000"/>
     <use xlink:href="#mef72cb56ef" x="347.872488" y="218.362455" style="stroke: #000000"/>
     <use xlink:href="#mef72cb56ef" x="350.208521" y="205.127732" style="stroke: #000000"/>
     <use xlink:href="#mef72cb56ef" x="352.451085" y="201.686377" style="stroke: #000000"/>
     <use xlink:href="#mef72cb56ef" x="354.724597" y="216.770953" style="stroke: #000000"/>
     <use xlink:href="#mef72cb56ef" x="356.951912" y="211.025043" style="stroke: #000000"/>
     <use xlink:href="#mef72cb56ef" x="359.220541" y="211.512577" style="stroke: #000000"/>
    </g>
   </g>
   <g id="line2d_23">
    <path d="M 69.268204 76.242912 
L 72.382246 103.342583 
L 75.344407 98.730938 
L 78.465306 106.474063 
L 81.458257 116.035369 
L 84.265783 117.636733 
L 87.173317 113.642917 
L 90.230387 118.861742 
L 93.284905 119.82284 
L 96.382841 136.209757 
L 99.407927 128.726092 
L 102.501703 137.231366 
L 105.680546 154.846512 
L 109.127381 146.070601 
L 112.632094 167.460586 
L 115.75989 164.053324 
L 119.094469 159.029382 
L 122.327054 168.189142 
L 125.307016 165.10336 
L 128.236078 173.607495 
L 131.240577 159.021196 
L 134.371944 166.445346 
L 137.383374 155.93358 
L 140.542906 166.790701 
L 143.71757 158.178424 
L 146.765288 151.235342 
L 149.901758 174.858385 
L 152.808858 181.55104 
L 155.74713 179.397943 
L 158.903575 186.648952 
L 161.831618 174.308035 
L 164.783189 175.90348 
L 167.785458 185.308264 
L 170.952851 178.359723 
L 174.076348 194.257993 
L 177.104366 172.258261 
L 180.234902 198.364286 
L 183.5907 176.549238 
L 186.817905 165.489676 
L 189.993315 192.006012 
L 193.054271 180.971144 
L 196.245469 174.463102 
L 199.342868 187.640179 
L 202.469163 198.117318 
L 205.450069 194.451185 
L 208.629862 199.855706 
L 211.536256 197.86381 
L 214.545441 202.119119 
L 217.548522 193.192204 
L 220.71893 197.28575 
L 223.943498 200.080538 
L 226.662147 194.567088 
L 229.436862 199.360284 
L 232.121493 194.738015 
L 234.916434 206.730252 
L 237.584092 207.991326 
L 240.099098 193.739966 
L 242.692136 189.84711 
L 245.213105 195.28811 
L 247.703974 194.295095 
L 250.199517 182.985514 
L 252.843777 180.507493 
L 255.306613 191.097219 
L 257.761531 192.808733 
L 260.303236 179.352121 
L 262.829522 181.855133 
L 265.280676 186.962477 
L 267.866856 199.352295 
L 270.36288 191.393094 
L 272.6911 182.585712 
L 274.913881 190.769049 
L 277.125566 190.688694 
L 279.360202 203.254566 
L 281.548575 194.68363 
L 283.788556 200.387464 
L 286.044912 191.615911 
L 288.226424 194.219768 
L 290.401486 199.724296 
L 292.587119 194.126564 
L 294.835605 203.33692 
L 297.093263 194.102613 
L 299.278207 197.289663 
L 301.447316 204.839641 
L 303.624583 210.395208 
L 305.801074 198.647778 
L 307.97568 198.697854 
L 310.202273 207.071744 
L 312.426127 189.108881 
L 314.592127 198.122296 
L 316.754379 202.303033 
L 318.980933 203.795939 
L 321.175127 209.021269 
L 323.345974 202.339203 
L 325.518611 202.158351 
L 327.682328 212.670796 
L 329.842645 202.608994 
L 332.008614 207.764144 
L 334.171836 203.908634 
L 336.338455 203.609098 
L 338.5078 209.471388 
" clip-path="url(#p43af13c5e6)" style="fill: none; stroke-dasharray: 1.85,0.8; stroke-dashoffset: 0; stroke: #000000; stroke-width: 0.5"/>
    <g clip-path="url(#p43af13c5e6)">
     <use xlink:href="#mef72cb56ef" x="69.268204" y="76.242912" style="stroke: #000000"/>
     <use xlink:href="#mef72cb56ef" x="72.382246" y="103.342583" style="stroke: #000000"/>
     <use xlink:href="#mef72cb56ef" x="75.344407" y="98.730938" style="stroke: #000000"/>
     <use xlink:href="#mef72cb56ef" x="78.465306" y="106.474063" style="stroke: #000000"/>
     <use xlink:href="#mef72cb56ef" x="81.458257" y="116.035369" style="stroke: #000000"/>
     <use xlink:href="#mef72cb56ef" x="84.265783" y="117.636733" style="stroke: #000000"/>
     <use xlink:href="#mef72cb56ef" x="87.173317" y="113.642917" style="stroke: #000000"/>
     <use xlink:href="#mef72cb56ef" x="90.230387" y="118.861742" style="stroke: #000000"/>
     <use xlink:href="#mef72cb56ef" x="93.284905" y="119.82284" style="stroke: #000000"/>
     <use xlink:href="#mef72cb56ef" x="96.382841" y="136.209757" style="stroke: #000000"/>
     <use xlink:href="#mef72cb56ef" x="99.407927" y="128.726092" style="stroke: #000000"/>
     <use xlink:href="#mef72cb56ef" x="102.501703" y="137.231366" style="stroke: #000000"/>
     <use xlink:href="#mef72cb56ef" x="105.680546" y="154.846512" style="stroke: #000000"/>
     <use xlink:href="#mef72cb56ef" x="109.127381" y="146.070601" style="stroke: #000000"/>
     <use xlink:href="#mef72cb56ef" x="112.632094" y="167.460586" style="stroke: #000000"/>
     <use xlink:href="#mef72cb56ef" x="115.75989" y="164.053324" style="stroke: #000000"/>
     <use xlink:href="#mef72cb56ef" x="119.094469" y="159.029382" style="stroke: #000000"/>
     <use xlink:href="#mef72cb56ef" x="122.327054" y="168.189142" style="stroke: #000000"/>
     <use xlink:href="#mef72cb56ef" x="125.307016" y="165.10336" style="stroke: #000000"/>
     <use xlink:href="#mef72cb56ef" x="128.236078" y="173.607495" style="stroke: #000000"/>
     <use xlink:href="#mef72cb56ef" x="131.240577" y="159.021196" style="stroke: #000000"/>
     <use xlink:href="#mef72cb56ef" x="134.371944" y="166.445346" style="stroke: #000000"/>
     <use xlink:href="#mef72cb56ef" x="137.383374" y="155.93358" style="stroke: #000000"/>
     <use xlink:href="#mef72cb56ef" x="140.542906" y="166.790701" style="stroke: #000000"/>
     <use xlink:href="#mef72cb56ef" x="143.71757" y="158.178424" style="stroke: #000000"/>
     <use xlink:href="#mef72cb56ef" x="146.765288" y="151.235342" style="stroke: #000000"/>
     <use xlink:href="#mef72cb56ef" x="149.901758" y="174.858385" style="stroke: #000000"/>
     <use xlink:href="#mef72cb56ef" x="152.808858" y="181.55104" style="stroke: #000000"/>
     <use xlink:href="#mef72cb56ef" x="155.74713" y="179.397943" style="stroke: #000000"/>
     <use xlink:href="#mef72cb56ef" x="158.903575" y="186.648952" style="stroke: #000000"/>
     <use xlink:href="#mef72cb56ef" x="161.831618" y="174.308035" style="stroke: #000000"/>
     <use xlink:href="#mef72cb56ef" x="164.783189" y="175.90348" style="stroke: #000000"/>
     <use xlink:href="#mef72cb56ef" x="167.785458" y="185.308264" style="stroke: #000000"/>
     <use xlink:href="#mef72cb56ef" x="170.952851" y="178.359723" style="stroke: #000000"/>
     <use xlink:href="#mef72cb56ef" x="174.076348" y="194.257993" style="stroke: #000000"/>
     <use xlink:href="#mef72cb56ef" x="177.104366" y="172.258261" style="stroke: #000000"/>
     <use xlink:href="#mef72cb56ef" x="180.234902" y="198.364286" style="stroke: #000000"/>
     <use xlink:href="#mef72cb56ef" x="183.5907" y="176.549238" style="stroke: #000000"/>
     <use xlink:href="#mef72cb56ef" x="186.817905" y="165.489676" style="stroke: #000000"/>
     <use xlink:href="#mef72cb56ef" x="189.993315" y="192.006012" style="stroke: #000000"/>
     <use xlink:href="#mef72cb56ef" x="193.054271" y="180.971144" style="stroke: #000000"/>
     <use xlink:href="#mef72cb56ef" x="196.245469" y="174.463102" style="stroke: #000000"/>
     <use xlink:href="#mef72cb56ef" x="199.342868" y="187.640179" style="stroke: #000000"/>
     <use xlink:href="#mef72cb56ef" x="202.469163" y="198.117318" style="stroke: #000000"/>
     <use xlink:href="#mef72cb56ef" x="205.450069" y="194.451185" style="stroke: #000000"/>
     <use xlink:href="#mef72cb56ef" x="208.629862" y="199.855706" style="stroke: #000000"/>
     <use xlink:href="#mef72cb56ef" x="211.536256" y="197.86381" style="stroke: #000000"/>
     <use xlink:href="#mef72cb56ef" x="214.545441" y="202.119119" style="stroke: #000000"/>
     <use xlink:href="#mef72cb56ef" x="217.548522" y="193.192204" style="stroke: #000000"/>
     <use xlink:href="#mef72cb56ef" x="220.71893" y="197.28575" style="stroke: #000000"/>
     <use xlink:href="#mef72cb56ef" x="223.943498" y="200.080538" style="stroke: #000000"/>
     <use xlink:href="#mef72cb56ef" x="226.662147" y="194.567088" style="stroke: #000000"/>
     <use xlink:href="#mef72cb56ef" x="229.436862" y="199.360284" style="stroke: #000000"/>
     <use xlink:href="#mef72cb56ef" x="232.121493" y="194.738015" style="stroke: #000000"/>
     <use xlink:href="#mef72cb56ef" x="234.916434" y="206.730252" style="stroke: #000000"/>
     <use xlink:href="#mef72cb56ef" x="237.584092" y="207.991326" style="stroke: #000000"/>
     <use xlink:href="#mef72cb56ef" x="240.099098" y="193.739966" style="stroke: #000000"/>
     <use xlink:href="#mef72cb56ef" x="242.692136" y="189.84711" style="stroke: #000000"/>
     <use xlink:href="#mef72cb56ef" x="245.213105" y="195.28811" style="stroke: #000000"/>
     <use xlink:href="#mef72cb56ef" x="247.703974" y="194.295095" style="stroke: #000000"/>
     <use xlink:href="#mef72cb56ef" x="250.199517" y="182.985514" style="stroke: #000000"/>
     <use xlink:href="#mef72cb56ef" x="252.843777" y="180.507493" style="stroke: #000000"/>
     <use xlink:href="#mef72cb56ef" x="255.306613" y="191.097219" style="stroke: #000000"/>
     <use xlink:href="#mef72cb56ef" x="257.761531" y="192.808733" style="stroke: #000000"/>
     <use xlink:href="#mef72cb56ef" x="260.303236" y="179.352121" style="stroke: #000000"/>
     <use xlink:href="#mef72cb56ef" x="262.829522" y="181.855133" style="stroke: #000000"/>
     <use xlink:href="#mef72cb56ef" x="265.280676" y="186.962477" style="stroke: #000000"/>
     <use xlink:href="#mef72cb56ef" x="267.866856" y="199.352295" style="stroke: #000000"/>
     <use xlink:href="#mef72cb56ef" x="270.36288" y="191.393094" style="stroke: #000000"/>
     <use xlink:href="#mef72cb56ef" x="272.6911" y="182.585712" style="stroke: #000000"/>
     <use xlink:href="#mef72cb56ef" x="274.913881" y="190.769049" style="stroke: #000000"/>
     <use xlink:href="#mef72cb56ef" x="277.125566" y="190.688694" style="stroke: #000000"/>
     <use xlink:href="#mef72cb56ef" x="279.360202" y="203.254566" style="stroke: #000000"/>
     <use xlink:href="#mef72cb56ef" x="281.548575" y="194.68363" style="stroke: #000000"/>
     <use xlink:href="#mef72cb56ef" x="283.788556" y="200.387464" style="stroke: #000000"/>
     <use xlink:href="#mef72cb56ef" x="286.044912" y="191.615911" style="stroke: #000000"/>
     <use xlink:href="#mef72cb56ef" x="288.226424" y="194.219768" style="stroke: #000000"/>
     <use xlink:href="#mef72cb56ef" x="290.401486" y="199.724296" style="stroke: #000000"/>
     <use xlink:href="#mef72cb56ef" x="292.587119" y="194.126564" style="stroke: #000000"/>
     <use xlink:href="#mef72cb56ef" x="294.835605" y="203.33692" style="stroke: #000000"/>
     <use xlink:href="#mef72cb56ef" x="297.093263" y="194.102613" style="stroke: #000000"/>
     <use xlink:href="#mef72cb56ef" x="299.278207" y="197.289663" style="stroke: #000000"/>
     <use xlink:href="#mef72cb56ef" x="301.447316" y="204.839641" style="stroke: #000000"/>
     <use xlink:href="#mef72cb56ef" x="303.624583" y="210.395208" style="stroke: #000000"/>
     <use xlink:href="#mef72cb56ef" x="305.801074" y="198.647778" style="stroke: #000000"/>
     <use xlink:href="#mef72cb56ef" x="307.97568" y="198.697854" style="stroke: #000000"/>
     <use xlink:href="#mef72cb56ef" x="310.202273" y="207.071744" style="stroke: #000000"/>
     <use xlink:href="#mef72cb56ef" x="312.426127" y="189.108881" style="stroke: #000000"/>
     <use xlink:href="#mef72cb56ef" x="314.592127" y="198.122296" style="stroke: #000000"/>
     <use xlink:href="#mef72cb56ef" x="316.754379" y="202.303033" style="stroke: #000000"/>
     <use xlink:href="#mef72cb56ef" x="318.980933" y="203.795939" style="stroke: #000000"/>
     <use xlink:href="#mef72cb56ef" x="321.175127" y="209.021269" style="stroke: #000000"/>
     <use xlink:href="#mef72cb56ef" x="323.345974" y="202.339203" style="stroke: #000000"/>
     <use xlink:href="#mef72cb56ef" x="325.518611" y="202.158351" style="stroke: #000000"/>
     <use xlink:href="#mef72cb56ef" x="327.682328" y="212.670796" style="stroke: #000000"/>
     <use xlink:href="#mef72cb56ef" x="329.842645" y="202.608994" style="stroke: #000000"/>
     <use xlink:href="#mef72cb56ef" x="332.008614" y="207.764144" style="stroke: #000000"/>
     <use xlink:href="#mef72cb56ef" x="334.171836" y="203.908634" style="stroke: #000000"/>
     <use xlink:href="#mef72cb56ef" x="336.338455" y="203.609098" style="stroke: #000000"/>
     <use xlink:href="#mef72cb56ef" x="338.5078" y="209.471388" style="stroke: #000000"/>
    </g>
   </g>
   <g id="line2d_24">
    <path d="M 69.341986 58.70511 
L 72.456526 100.18076 
L 75.502854 93.516216 
L 78.754171 100.83774 
L 82.010463 124.843141 
L 85.055665 129.634748 
L 88.141309 150.32461 
L 91.623275 130.532485 
L 94.819835 143.917808 
L 97.906802 146.629029 
L 101.007703 147.459839 
L 104.088399 142.710805 
L 107.142929 155.362939 
L 110.388102 140.232957 
L 113.39693 145.259849 
L 116.417088 154.292341 
L 119.462361 153.005555 
L 122.426516 155.402107 
L 125.465575 160.307773 
L 128.60159 162.59673 
L 131.615705 171.290424 
L 134.368129 174.46542 
L 137.142249 150.500249 
L 139.833275 153.855255 
L 142.597828 155.637113 
L 145.18674 164.110651 
L 147.855271 178.202779 
L 150.424092 171.431464 
L 152.954747 184.452843 
L 155.527295 182.941262 
L 158.124342 176.752883 
L 160.683663 171.823788 
L 163.201186 187.737465 
L 165.715628 177.950349 
L 168.283423 184.241317 
L 170.840876 169.709722 
L 173.347181 189.725209 
L 175.964294 196.453356 
L 178.454482 193.757246 
L 180.893187 194.261705 
L 183.154007 182.07786 
L 185.426857 206.833785 
L 187.677524 202.999795 
L 189.964554 192.534272 
L 192.2424 194.300427 
L 194.462697 186.723914 
L 196.678232 208.66433 
L 198.903113 198.24916 
L 201.142576 197.44633 
L 203.42356 199.472633 
L 205.668014 200.353454 
L 207.888101 212.163214 
L 210.144752 200.43913 
L 212.367392 199.501143 
L 214.583095 204.649124 
L 216.840124 206.956642 
L 219.101713 207.681932 
L 221.303766 211.436828 
L 223.50584 213.692672 
L 225.758904 204.530298 
L 227.982897 195.028658 
L 230.194588 203.515725 
L 232.403336 208.018385 
L 234.613186 219.902361 
L 236.812077 214.776575 
L 239.01175 205.624456 
L 241.215999 210.020015 
L 243.419979 208.040854 
L 245.632219 209.834403 
L 247.7672 212.202086 
L 249.901719 209.896893 
L 252.025464 219.509398 
L 254.148503 216.907809 
L 256.26409 217.823211 
L 258.387179 228.223118 
L 260.513179 216.271223 
L 262.6337 224.783403 
L 264.754247 230.702658 
L 266.882671 210.323623 
L 269.010013 227.335512 
L 271.144718 242.116364 
L 273.323015 226.159511 
L 275.470382 223.000176 
L 277.607894 215.124535 
L 279.730876 219.12759 
L 281.857309 216.250102 
L 283.991037 234.852525 
L 286.11639 222.437729 
L 288.238143 231.952663 
L 290.35925 227.303913 
L 292.51654 234.845851 
L 294.638588 234.96262 
L 296.751721 231.531307 
L 298.871619 225.300092 
L 300.997419 215.424002 
L 303.122695 232.585738 
L 305.249703 235.509003 
L 307.379349 229.891903 
L 309.502776 230.726677 
L 311.689738 226.014175 
" clip-path="url(#p43af13c5e6)" style="fill: none; stroke-dasharray: 0.5,0.825; stroke-dashoffset: 0; stroke: #000000; stroke-width: 0.5"/>
    <g clip-path="url(#p43af13c5e6)">
     <use xlink:href="#mef72cb56ef" x="69.341986" y="58.70511" style="stroke: #000000"/>
     <use xlink:href="#mef72cb56ef" x="72.456526" y="100.18076" style="stroke: #000000"/>
     <use xlink:href="#mef72cb56ef" x="75.502854" y="93.516216" style="stroke: #000000"/>
     <use xlink:href="#mef72cb56ef" x="78.754171" y="100.83774" style="stroke: #000000"/>
     <use xlink:href="#mef72cb56ef" x="82.010463" y="124.843141" style="stroke: #000000"/>
     <use xlink:href="#mef72cb56ef" x="85.055665" y="129.634748" style="stroke: #000000"/>
     <use xlink:href="#mef72cb56ef" x="88.141309" y="150.32461" style="stroke: #000000"/>
     <use xlink:href="#mef72cb56ef" x="91.623275" y="130.532485" style="stroke: #000000"/>
     <use xlink:href="#mef72cb56ef" x="94.819835" y="143.917808" style="stroke: #000000"/>
     <use xlink:href="#mef72cb56ef" x="97.906802" y="146.629029" style="stroke: #000000"/>
     <use xlink:href="#mef72cb56ef" x="101.007703" y="147.459839" style="stroke: #000000"/>
     <use xlink:href="#mef72cb56ef" x="104.088399" y="142.710805" style="stroke: #000000"/>
     <use xlink:href="#mef72cb56ef" x="107.142929" y="155.362939" style="stroke: #000000"/>
     <use xlink:href="#mef72cb56ef" x="110.388102" y="140.232957" style="stroke: #000000"/>
     <use xlink:href="#mef72cb56ef" x="113.39693" y="145.259849" style="stroke: #000000"/>
     <use xlink:href="#mef72cb56ef" x="116.417088" y="154.292341" style="stroke: #000000"/>
     <use xlink:href="#mef72cb56ef" x="119.462361" y="153.005555" style="stroke: #000000"/>
     <use xlink:href="#mef72cb56ef" x="122.426516" y="155.402107" style="stroke: #000000"/>
     <use xlink:href="#mef72cb56ef" x="125.465575" y="160.307773" style="stroke: #000000"/>
     <use xlink:href="#mef72cb56ef" x="128.60159" y="162.59673" style="stroke: #000000"/>
     <use xlink:href="#mef72cb56ef" x="131.615705" y="171.290424" style="stroke: #000000"/>
     <use xlink:href="#mef72cb56ef" x="134.368129" y="174.46542" style="stroke: #000000"/>
     <use xlink:href="#mef72cb56ef" x="137.142249" y="150.500249" style="stroke: #000000"/>
     <use xlink:href="#mef72cb56ef" x="139.833275" y="153.855255" style="stroke: #000000"/>
     <use xlink:href="#mef72cb56ef" x="142.597828" y="155.637113" style="stroke: #000000"/>
     <use xlink:href="#mef72cb56ef" x="145.18674" y="164.110651" style="stroke: #000000"/>
     <use xlink:href="#mef72cb56ef" x="147.855271" y="178.202779" style="stroke: #000000"/>
     <use xlink:href="#mef72cb56ef" x="150.424092" y="171.431464" style="stroke: #000000"/>
     <use xlink:href="#mef72cb56ef" x="152.954747" y="184.452843" style="stroke: #000000"/>
     <use xlink:href="#mef72cb56ef" x="155.527295" y="182.941262" style="stroke: #000000"/>
     <use xlink:href="#mef72cb56ef" x="158.124342" y="176.752883" style="stroke: #000000"/>
     <use xlink:href="#mef72cb56ef" x="160.683663" y="171.823788" style="stroke: #000000"/>
     <use xlink:href="#mef72cb56ef" x="163.201186" y="187.737465" style="stroke: #000000"/>
     <use xlink:href="#mef72cb56ef" x="165.715628" y="177.950349" style="stroke: #000000"/>
     <use xlink:href="#mef72cb56ef" x="168.283423" y="184.241317" style="stroke: #000000"/>
     <use xlink:href="#mef72cb56ef" x="170.840876" y="169.709722" style="stroke: #000000"/>
     <use xlink:href="#mef72cb56ef" x="173.347181" y="189.725209" style="stroke: #000000"/>
     <use xlink:href="#mef72cb56ef" x="175.964294" y="196.453356" style="stroke: #000000"/>
     <use xlink:href="#mef72cb56ef" x="178.454482" y="193.757246" style="stroke: #000000"/>
     <use xlink:href="#mef72cb56ef" x="180.893187" y="194.261705" style="stroke: #000000"/>
     <use xlink:href="#mef72cb56ef" x="183.154007" y="182.07786" style="stroke: #000000"/>
     <use xlink:href="#mef72cb56ef" x="185.426857" y="206.833785" style="stroke: #000000"/>
     <use xlink:href="#mef72cb56ef" x="187.677524" y="202.999795" style="stroke: #000000"/>
     <use xlink:href="#mef72cb56ef" x="189.964554" y="192.534272" style="stroke: #000000"/>
     <use xlink:href="#mef72cb56ef" x="192.2424" y="194.300427" style="stroke: #000000"/>
     <use xlink:href="#mef72cb56ef" x="194.462697" y="186.723914" style="stroke: #000000"/>
     <use xlink:href="#mef72cb56ef" x="196.678232" y="208.66433" style="stroke: #000000"/>
     <use xlink:href="#mef72cb56ef" x="198.903113" y="198.24916" style="stroke: #000000"/>
     <use xlink:href="#mef72cb56ef" x="201.142576" y="197.44633" style="stroke: #000000"/>
     <use xlink:href="#mef72cb56ef" x="203.42356" y="199.472633" style="stroke: #000000"/>
     <use xlink:href="#mef72cb56ef" x="205.668014" y="200.353454" style="stroke: #000000"/>
     <use xlink:href="#mef72cb56ef" x="207.888101" y="212.163214" style="stroke: #000000"/>
     <use xlink:href="#mef72cb56ef" x="210.144752" y="200.43913" style="stroke: #000000"/>
     <use xlink:href="#mef72cb56ef" x="212.367392" y="199.501143" style="stroke: #000000"/>
     <use xlink:href="#mef72cb56ef" x="214.583095" y="204.649124" style="stroke: #000000"/>
     <use xlink:href="#mef72cb56ef" x="216.840124" y="206.956642" style="stroke: #000000"/>
     <use xlink:href="#mef72cb56ef" x="219.101713" y="207.681932" style="stroke: #000000"/>
     <use xlink:href="#mef72cb56ef" x="221.303766" y="211.436828" style="stroke: #000000"/>
     <use xlink:href="#mef72cb56ef" x="223.50584" y="213.692672" style="stroke: #000000"/>
     <use xlink:href="#mef72cb56ef" x="225.758904" y="204.530298" style="stroke: #000000"/>
     <use xlink:href="#mef72cb56ef" x="227.982897" y="195.028658" style="stroke: #000000"/>
     <use xlink:href="#mef72cb56ef" x="230.194588" y="203.515725" style="stroke: #000000"/>
     <use xlink:href="#mef72cb56ef" x="232.403336" y="208.018385" style="stroke: #000000"/>
     <use xlink:href="#mef72cb56ef" x="234.613186" y="219.902361" style="stroke: #000000"/>
     <use xlink:href="#mef72cb56ef" x="236.812077" y="214.776575" style="stroke: #000000"/>
     <use xlink:href="#mef72cb56ef" x="239.01175" y="205.624456" style="stroke: #000000"/>
     <use xlink:href="#mef72cb56ef" x="241.215999" y="210.020015" style="stroke: #000000"/>
     <use xlink:href="#mef72cb56ef" x="243.419979" y="208.040854" style="stroke: #000000"/>
     <use xlink:href="#mef72cb56ef" x="245.632219" y="209.834403" style="stroke: #000000"/>
     <use xlink:href="#mef72cb56ef" x="247.7672" y="212.202086" style="stroke: #000000"/>
     <use xlink:href="#mef72cb56ef" x="249.901719" y="209.896893" style="stroke: #000000"/>
     <use xlink:href="#mef72cb56ef" x="252.025464" y="219.509398" style="stroke: #000000"/>
     <use xlink:href="#mef72cb56ef" x="254.148503" y="216.907809" style="stroke: #000000"/>
     <use xlink:href="#mef72cb56ef" x="256.26409" y="217.823211" style="stroke: #000000"/>
     <use xlink:href="#mef72cb56ef" x="258.387179" y="228.223118" style="stroke: #000000"/>
     <use xlink:href="#mef72cb56ef" x="260.513179" y="216.271223" style="stroke: #000000"/>
     <use xlink:href="#mef72cb56ef" x="262.6337" y="224.783403" style="stroke: #000000"/>
     <use xlink:href="#mef72cb56ef" x="264.754247" y="230.702658" style="stroke: #000000"/>
     <use xlink:href="#mef72cb56ef" x="266.882671" y="210.323623" style="stroke: #000000"/>
     <use xlink:href="#mef72cb56ef" x="269.010013" y="227.335512" style="stroke: #000000"/>
     <use xlink:href="#mef72cb56ef" x="271.144718" y="242.116364" style="stroke: #000000"/>
     <use xlink:href="#mef72cb56ef" x="273.323015" y="226.159511" style="stroke: #000000"/>
     <use xlink:href="#mef72cb56ef" x="275.470382" y="223.000176" style="stroke: #000000"/>
     <use xlink:href="#mef72cb56ef" x="277.607894" y="215.124535" style="stroke: #000000"/>
     <use xlink:href="#mef72cb56ef" x="279.730876" y="219.12759" style="stroke: #000000"/>
     <use xlink:href="#mef72cb56ef" x="281.857309" y="216.250102" style="stroke: #000000"/>
     <use xlink:href="#mef72cb56ef" x="283.991037" y="234.852525" style="stroke: #000000"/>
     <use xlink:href="#mef72cb56ef" x="286.11639" y="222.437729" style="stroke: #000000"/>
     <use xlink:href="#mef72cb56ef" x="288.238143" y="231.952663" style="stroke: #000000"/>
     <use xlink:href="#mef72cb56ef" x="290.35925" y="227.303913" style="stroke: #000000"/>
     <use xlink:href="#mef72cb56ef" x="292.51654" y="234.845851" style="stroke: #000000"/>
     <use xlink:href="#mef72cb56ef" x="294.638588" y="234.96262" style="stroke: #000000"/>
     <use xlink:href="#mef72cb56ef" x="296.751721" y="231.531307" style="stroke: #000000"/>
     <use xlink:href="#mef72cb56ef" x="298.871619" y="225.300092" style="stroke: #000000"/>
     <use xlink:href="#mef72cb56ef" x="300.997419" y="215.424002" style="stroke: #000000"/>
     <use xlink:href="#mef72cb56ef" x="303.122695" y="232.585738" style="stroke: #000000"/>
     <use xlink:href="#mef72cb56ef" x="305.249703" y="235.509003" style="stroke: #000000"/>
     <use xlink:href="#mef72cb56ef" x="307.379349" y="229.891903" style="stroke: #000000"/>
     <use xlink:href="#mef72cb56ef" x="309.502776" y="230.726677" style="stroke: #000000"/>
     <use xlink:href="#mef72cb56ef" x="311.689738" y="226.014175" style="stroke: #000000"/>
    </g>
   </g>
   <g id="line2d_25">
    <path d="M 69.292615 55.166377 
L 72.303211 85.499798 
L 75.38892 93.811092 
L 78.495615 119.795365 
L 81.770311 126.602505 
L 84.493646 99.265119 
L 87.279246 115.788739 
L 89.966898 131.151316 
L 92.735146 136.914819 
L 95.415701 131.030263 
L 97.939788 131.66113 
L 100.569734 135.684747 
L 103.105556 132.950103 
L 105.602552 133.660843 
L 108.119608 147.642372 
L 110.802548 143.227339 
L 113.306941 151.237662 
L 115.848136 152.954267 
L 118.40627 142.830976 
L 120.969604 138.510708 
L 123.444469 166.077514 
L 126.0995 138.786018 
L 128.657226 158.480837 
L 131.02769 158.328087 
L 133.279895 156.711117 
L 135.525068 169.384009 
L 137.787444 153.634189 
L 140.035651 168.564836 
L 142.293453 166.66374 
L 144.541776 173.66044 
L 146.746709 171.442411 
L 148.948667 158.946577 
L 151.151051 169.131302 
L 153.43791 168.949165 
L 155.697991 175.057396 
L 157.914778 175.974075 
L 160.158251 169.509161 
L 162.358399 193.488417 
L 164.572433 182.024868 
L 166.779875 162.249158 
L 169.021141 194.428868 
L 171.232554 174.63542 
L 173.42343 184.443224 
L 175.61847 188.23239 
L 177.841459 187.97683 
L 180.090571 199.32268 
L 182.28622 182.919433 
L 184.480126 197.311064 
L 186.668174 198.163831 
L 188.854091 198.031762 
L 191.053278 194.361129 
L 193.240581 170.687119 
L 195.429904 192.534613 
L 197.611625 198.60441 
L 199.726045 200.822065 
L 201.831686 198.568418 
L 203.938626 192.461049 
L 206.044877 187.736328 
L 208.145547 196.354132 
L 210.246649 196.90562 
L 212.350234 198.458454 
L 214.450278 195.464638 
L 216.553501 203.238066 
L 218.654268 195.287205 
L 220.769967 211.789921 
L 222.880064 201.951858 
L 225.018945 201.167362 
L 227.152527 187.303998 
L 229.257912 197.138953 
L 231.362008 199.059438 
L 233.472957 201.55022 
L 235.601668 192.395829 
L 237.702216 202.398032 
L 239.797714 200.89247 
L 241.908928 203.801066 
L 244.015601 193.488268 
L 246.112659 204.309421 
L 248.211376 198.120328 
L 250.319615 200.033804 
L 252.427455 201.324317 
L 254.536595 201.026876 
L 256.647637 200.268936 
L 258.752598 202.138055 
L 260.88649 208.088786 
L 262.974835 207.335518 
L 265.036333 216.839211 
L 267.125733 210.361671 
L 269.212527 201.850013 
L 271.304838 215.560667 
L 273.379365 214.739729 
L 275.467197 206.841141 
L 277.546142 213.890127 
L 279.629394 218.433586 
L 281.724682 199.655619 
L 283.812315 210.608108 
L 285.88735 218.094536 
L 287.96725 212.84731 
L 290.054306 212.654956 
L 292.121974 216.99395 
L 294.209208 220.455529 
" clip-path="url(#p43af13c5e6)" style="fill: none; stroke-dasharray: 3.2,0.8,0.5,0.8; stroke-dashoffset: 0; stroke: #000000; stroke-width: 0.5"/>
    <g clip-path="url(#p43af13c5e6)">
     <use xlink:href="#mef72cb56ef" x="69.292615" y="55.166377" style="stroke: #000000"/>
     <use xlink:href="#mef72cb56ef" x="72.303211" y="85.499798" style="stroke: #000000"/>
     <use xlink:href="#mef72cb56ef" x="75.38892" y="93.811092" style="stroke: #000000"/>
     <use xlink:href="#mef72cb56ef" x="78.495615" y="119.795365" style="stroke: #000000"/>
     <use xlink:href="#mef72cb56ef" x="81.770311" y="126.602505" style="stroke: #000000"/>
     <use xlink:href="#mef72cb56ef" x="84.493646" y="99.265119" style="stroke: #000000"/>
     <use xlink:href="#mef72cb56ef" x="87.279246" y="115.788739" style="stroke: #000000"/>
     <use xlink:href="#mef72cb56ef" x="89.966898" y="131.151316" style="stroke: #000000"/>
     <use xlink:href="#mef72cb56ef" x="92.735146" y="136.914819" style="stroke: #000000"/>
     <use xlink:href="#mef72cb56ef" x="95.415701" y="131.030263" style="stroke: #000000"/>
     <use xlink:href="#mef72cb56ef" x="97.939788" y="131.66113" style="stroke: #000000"/>
     <use xlink:href="#mef72cb56ef" x="100.569734" y="135.684747" style="stroke: #000000"/>
     <use xlink:href="#mef72cb56ef" x="103.105556" y="132.950103" style="stroke: #000000"/>
     <use xlink:href="#mef72cb56ef" x="105.602552" y="133.660843" style="stroke: #000000"/>
     <use xlink:href="#mef72cb56ef" x="108.119608" y="147.642372" style="stroke: #000000"/>
     <use xlink:href="#mef72cb56ef" x="110.802548" y="143.227339" style="stroke: #000000"/>
     <use xlink:href="#mef72cb56ef" x="113.306941" y="151.237662" style="stroke: #000000"/>
     <use xlink:href="#mef72cb56ef" x="115.848136" y="152.954267" style="stroke: #000000"/>
     <use xlink:href="#mef72cb56ef" x="118.40627" y="142.830976" style="stroke: #000000"/>
     <use xlink:href="#mef72cb56ef" x="120.969604" y="138.510708" style="stroke: #000000"/>
     <use xlink:href="#mef72cb56ef" x="123.444469" y="166.077514" style="stroke: #000000"/>
     <use xlink:href="#mef72cb56ef" x="126.0995" y="138.786018" style="stroke: #000000"/>
     <use xlink:href="#mef72cb56ef" x="128.657226" y="158.480837" style="stroke: #000000"/>
     <use xlink:href="#mef72cb56ef" x="131.02769" y="158.328087" style="stroke: #000000"/>
     <use xlink:href="#mef72cb56ef" x="133.279895" y="156.711117" style="stroke: #000000"/>
     <use xlink:href="#mef72cb56ef" x="135.525068" y="169.384009" style="stroke: #000000"/>
     <use xlink:href="#mef72cb56ef" x="137.787444" y="153.634189" style="stroke: #000000"/>
     <use xlink:href="#mef72cb56ef" x="140.035651" y="168.564836" style="stroke: #000000"/>
     <use xlink:href="#mef72cb56ef" x="142.293453" y="166.66374" style="stroke: #000000"/>
     <use xlink:href="#mef72cb56ef" x="144.541776" y="173.66044" style="stroke: #000000"/>
     <use xlink:href="#mef72cb56ef" x="146.746709" y="171.442411" style="stroke: #000000"/>
     <use xlink:href="#mef72cb56ef" x="148.948667" y="158.946577" style="stroke: #000000"/>
     <use xlink:href="#mef72cb56ef" x="151.151051" y="169.131302" style="stroke: #000000"/>
     <use xlink:href="#mef72cb56ef" x="153.43791" y="168.949165" style="stroke: #000000"/>
     <use xlink:href="#mef72cb56ef" x="155.697991" y="175.057396" style="stroke: #000000"/>
     <use xlink:href="#mef72cb56ef" x="157.914778" y="175.974075" style="stroke: #000000"/>
     <use xlink:href="#mef72cb56ef" x="160.158251" y="169.509161" style="stroke: #000000"/>
     <use xlink:href="#mef72cb56ef" x="162.358399" y="193.488417" style="stroke: #000000"/>
     <use xlink:href="#mef72cb56ef" x="164.572433" y="182.024868" style="stroke: #000000"/>
     <use xlink:href="#mef72cb56ef" x="166.779875" y="162.249158" style="stroke: #000000"/>
     <use xlink:href="#mef72cb56ef" x="169.021141" y="194.428868" style="stroke: #000000"/>
     <use xlink:href="#mef72cb56ef" x="171.232554" y="174.63542" style="stroke: #000000"/>
     <use xlink:href="#mef72cb56ef" x="173.42343" y="184.443224" style="stroke: #000000"/>
     <use xlink:href="#mef72cb56ef" x="175.61847" y="188.23239" style="stroke: #000000"/>
     <use xlink:href="#mef72cb56ef" x="177.841459" y="187.97683" style="stroke: #000000"/>
     <use xlink:href="#mef72cb56ef" x="180.090571" y="199.32268" style="stroke: #000000"/>
     <use xlink:href="#mef72cb56ef" x="182.28622" y="182.919433" style="stroke: #000000"/>
     <use xlink:href="#mef72cb56ef" x="184.480126" y="197.311064" style="stroke: #000000"/>
     <use xlink:href="#mef72cb56ef" x="186.668174" y="198.163831" style="stroke: #000000"/>
     <use xlink:href="#mef72cb56ef" x="188.854091" y="198.031762" style="stroke: #000000"/>
     <use xlink:href="#mef72cb56ef" x="191.053278" y="194.361129" style="stroke: #000000"/>
     <use xlink:href="#mef72cb56ef" x="193.240581" y="170.687119" style="stroke: #000000"/>
     <use xlink:href="#mef72cb56ef" x="195.429904" y="192.534613" style="stroke: #000000"/>
     <use xlink:href="#mef72cb56ef" x="197.611625" y="198.60441" style="stroke: #000000"/>
     <use xlink:href="#mef72cb56ef" x="199.726045" y="200.822065" style="stroke: #000000"/>
     <use xlink:href="#mef72cb56ef" x="201.831686" y="198.568418" style="stroke: #000000"/>
     <use xlink:href="#mef72cb56ef" x="203.938626" y="192.461049" style="stroke: #000000"/>
     <use xlink:href="#mef72cb56ef" x="206.044877" y="187.736328" style="stroke: #000000"/>
     <use xlink:href="#mef72cb56ef" x="208.145547" y="196.354132" style="stroke: #000000"/>
     <use xlink:href="#mef72cb56ef" x="210.246649" y="196.90562" style="stroke: #000000"/>
     <use xlink:href="#mef72cb56ef" x="212.350234" y="198.458454" style="stroke: #000000"/>
     <use xlink:href="#mef72cb56ef" x="214.450278" y="195.464638" style="stroke: #000000"/>
     <use xlink:href="#mef72cb56ef" x="216.553501" y="203.238066" style="stroke: #000000"/>
     <use xlink:href="#mef72cb56ef" x="218.654268" y="195.287205" style="stroke: #000000"/>
     <use xlink:href="#mef72cb56ef" x="220.769967" y="211.789921" style="stroke: #000000"/>
     <use xlink:href="#mef72cb56ef" x="222.880064" y="201.951858" style="stroke: #000000"/>
     <use xlink:href="#mef72cb56ef" x="225.018945" y="201.167362" style="stroke: #000000"/>
     <use xlink:href="#mef72cb56ef" x="227.152527" y="187.303998" style="stroke: #000000"/>
     <use xlink:href="#mef72cb56ef" x="229.257912" y="197.138953" style="stroke: #000000"/>
     <use xlink:href="#mef72cb56ef" x="231.362008" y="199.059438" style="stroke: #000000"/>
     <use xlink:href="#mef72cb56ef" x="233.472957" y="201.55022" style="stroke: #000000"/>
     <use xlink:href="#mef72cb56ef" x="235.601668" y="192.395829" style="stroke: #000000"/>
     <use xlink:href="#mef72cb56ef" x="237.702216" y="202.398032" style="stroke: #000000"/>
     <use xlink:href="#mef72cb56ef" x="239.797714" y="200.89247" style="stroke: #000000"/>
     <use xlink:href="#mef72cb56ef" x="241.908928" y="203.801066" style="stroke: #000000"/>
     <use xlink:href="#mef72cb56ef" x="244.015601" y="193.488268" style="stroke: #000000"/>
     <use xlink:href="#mef72cb56ef" x="246.112659" y="204.309421" style="stroke: #000000"/>
     <use xlink:href="#mef72cb56ef" x="248.211376" y="198.120328" style="stroke: #000000"/>
     <use xlink:href="#mef72cb56ef" x="250.319615" y="200.033804" style="stroke: #000000"/>
     <use xlink:href="#mef72cb56ef" x="252.427455" y="201.324317" style="stroke: #000000"/>
     <use xlink:href="#mef72cb56ef" x="254.536595" y="201.026876" style="stroke: #000000"/>
     <use xlink:href="#mef72cb56ef" x="256.647637" y="200.268936" style="stroke: #000000"/>
     <use xlink:href="#mef72cb56ef" x="258.752598" y="202.138055" style="stroke: #000000"/>
     <use xlink:href="#mef72cb56ef" x="260.88649" y="208.088786" style="stroke: #000000"/>
     <use xlink:href="#mef72cb56ef" x="262.974835" y="207.335518" style="stroke: #000000"/>
     <use xlink:href="#mef72cb56ef" x="265.036333" y="216.839211" style="stroke: #000000"/>
     <use xlink:href="#mef72cb56ef" x="267.125733" y="210.361671" style="stroke: #000000"/>
     <use xlink:href="#mef72cb56ef" x="269.212527" y="201.850013" style="stroke: #000000"/>
     <use xlink:href="#mef72cb56ef" x="271.304838" y="215.560667" style="stroke: #000000"/>
     <use xlink:href="#mef72cb56ef" x="273.379365" y="214.739729" style="stroke: #000000"/>
     <use xlink:href="#mef72cb56ef" x="275.467197" y="206.841141" style="stroke: #000000"/>
     <use xlink:href="#mef72cb56ef" x="277.546142" y="213.890127" style="stroke: #000000"/>
     <use xlink:href="#mef72cb56ef" x="279.629394" y="218.433586" style="stroke: #000000"/>
     <use xlink:href="#mef72cb56ef" x="281.724682" y="199.655619" style="stroke: #000000"/>
     <use xlink:href="#mef72cb56ef" x="283.812315" y="210.608108" style="stroke: #000000"/>
     <use xlink:href="#mef72cb56ef" x="285.88735" y="218.094536" style="stroke: #000000"/>
     <use xlink:href="#mef72cb56ef" x="287.96725" y="212.84731" style="stroke: #000000"/>
     <use xlink:href="#mef72cb56ef" x="290.054306" y="212.654956" style="stroke: #000000"/>
     <use xlink:href="#mef72cb56ef" x="292.121974" y="216.99395" style="stroke: #000000"/>
     <use xlink:href="#mef72cb56ef" x="294.209208" y="220.455529" style="stroke: #000000"/>
    </g>
   </g>
   <g id="patch_3">
    <path d="M 54 252 
L 54 34.56 
" style="fill: none; stroke: #000000; stroke-width: 0.8; stroke-linejoin: miter; stroke-linecap: square"/>
   </g>
   <g id="patch_4">
    <path d="M 388.8 252 
L 388.8 34.56 
" style="fill: none; stroke: #000000; stroke-width: 0.8; stroke-linejoin: miter; stroke-linecap: square"/>
   </g>
   <g id="patch_5">
    <path d="M 54 252 
L 388.8 252 
" style="fill: none; stroke: #000000; stroke-width: 0.8; stroke-linejoin: miter; stroke-linecap: square"/>
   </g>
   <g id="patch_6">
    <path d="M 54 34.56 
L 388.8 34.56 
" style="fill: none; stroke: #000000; stroke-width: 0.8; stroke-linejoin: miter; stroke-linecap: square"/>
   </g>
   <g id="legend_1">
    <g id="patch_7">
     <path d="M 255.432813 159.985 
L 381.8 159.985 
Q 383.8 159.985 383.8 157.985 
L 383.8 41.56 
Q 383.8 39.56 381.8 39.56 
L 255.432813 39.56 
Q 253.432813 39.56 253.432813 41.56 
L 253.432813 157.985 
Q 253.432813 159.985 255.432813 159.985 
z
" style="fill: #ffffff; opacity: 0.8; stroke: #cccccc; stroke-linejoin: miter"/>
    </g>
    <g id="line2d_26">
     <path d="M 257.432813 47.658437 
L 267.432813 47.658437 
L 277.432813 47.658437 
" style="fill: none; stroke: #000000; stroke-width: 0.5; stroke-linecap: square"/>
    </g>
    <g id="text_12">
     <!-- RM -->
     <g transform="translate(285.432813 51.158437)scale(0.1 -0.1)">
      <defs>
       <path id="DejaVuSans-52" d="M 2841 2188 
Q 3044 2119 3236 1894 
Q 3428 1669 3622 1275 
L 4263 0 
L 3584 0 
L 2988 1197 
Q 2756 1666 2539 1819 
Q 2322 1972 1947 1972 
L 1259 1972 
L 1259 0 
L 628 0 
L 628 4666 
L 2053 4666 
Q 2853 4666 3247 4331 
Q 3641 3997 3641 3322 
Q 3641 2881 3436 2590 
Q 3231 2300 2841 2188 
z
M 1259 4147 
L 1259 2491 
L 2053 2491 
Q 2509 2491 2742 2702 
Q 2975 2913 2975 3322 
Q 2975 3731 2742 3939 
Q 2509 4147 2053 4147 
L 1259 4147 
z
" transform="scale(0.015625)"/>
       <path id="DejaVuSans-4d" d="M 628 4666 
L 1569 4666 
L 2759 1491 
L 3956 4666 
L 4897 4666 
L 4897 0 
L 4281 0 
L 4281 4097 
L 3078 897 
L 2444 897 
L 1241 4097 
L 1241 0 
L 628 0 
L 628 4666 
z
" transform="scale(0.015625)"/>
      </defs>
      <use xlink:href="#DejaVuSans-52"/>
      <use xlink:href="#DejaVuSans-4d" x="69.482422"/>
     </g>
    </g>
    <g id="line2d_27">
     <path d="M 257.432813 62.336563 
L 267.432813 62.336563 
L 277.432813 62.336563 
" style="fill: none; stroke-dasharray: 1.85,0.8; stroke-dashoffset: 0; stroke: #000000; stroke-width: 0.5"/>
    </g>
    <g id="text_13">
     <!-- RM, shift -->
     <g transform="translate(285.432813 65.836563)scale(0.1 -0.1)">
      <defs>
       <path id="DejaVuSans-2c" d="M 750 794 
L 1409 794 
L 1409 256 
L 897 -744 
L 494 -744 
L 750 256 
L 750 794 
z
" transform="scale(0.015625)"/>
       <path id="DejaVuSans-66" d="M 2375 4863 
L 2375 4384 
L 1825 4384 
Q 1516 4384 1395 4259 
Q 1275 4134 1275 3809 
L 1275 3500 
L 2222 3500 
L 2222 3053 
L 1275 3053 
L 1275 0 
L 697 0 
L 697 3053 
L 147 3053 
L 147 3500 
L 697 3500 
L 697 3744 
Q 697 4328 969 4595 
Q 1241 4863 1831 4863 
L 2375 4863 
z
" transform="scale(0.015625)"/>
      </defs>
      <use xlink:href="#DejaVuSans-52"/>
      <use xlink:href="#DejaVuSans-4d" x="69.482422"/>
      <use xlink:href="#DejaVuSans-2c" x="155.761719"/>
      <use xlink:href="#DejaVuSans-20" x="187.548828"/>
      <use xlink:href="#DejaVuSans-73" x="219.335938"/>
      <use xlink:href="#DejaVuSans-68" x="271.435547"/>
      <use xlink:href="#DejaVuSans-69" x="334.814453"/>
      <use xlink:href="#DejaVuSans-66" x="362.597656"/>
      <use xlink:href="#DejaVuSans-74" x="396.052734"/>
     </g>
    </g>
    <g id="line2d_28">
     <path d="M 257.432813 77.014687 
L 267.432813 77.014687 
L 277.432813 77.014687 
" style="fill: none; stroke-dasharray: 0.5,0.825; stroke-dashoffset: 0; stroke: #000000; stroke-width: 0.5"/>
    </g>
    <g id="text_14">
     <!-- RM, softmax -->
     <g transform="translate(285.432813 80.514687)scale(0.1 -0.1)">
      <defs>
       <path id="DejaVuSans-78" d="M 3513 3500 
L 2247 1797 
L 3578 0 
L 2900 0 
L 1881 1375 
L 863 0 
L 184 0 
L 1544 1831 
L 300 3500 
L 978 3500 
L 1906 2253 
L 2834 3500 
L 3513 3500 
z
" transform="scale(0.015625)"/>
      </defs>
      <use xlink:href="#DejaVuSans-52"/>
      <use xlink:href="#DejaVuSans-4d" x="69.482422"/>
      <use xlink:href="#DejaVuSans-2c" x="155.761719"/>
      <use xlink:href="#DejaVuSans-20" x="187.548828"/>
      <use xlink:href="#DejaVuSans-73" x="219.335938"/>
      <use xlink:href="#DejaVuSans-6f" x="271.435547"/>
      <use xlink:href="#DejaVuSans-66" x="332.617188"/>
      <use xlink:href="#DejaVuSans-74" x="366.072266"/>
      <use xlink:href="#DejaVuSans-6d" x="405.28125"/>
      <use xlink:href="#DejaVuSans-61" x="502.693359"/>
      <use xlink:href="#DejaVuSans-78" x="563.972656"/>
     </g>
    </g>
    <g id="line2d_29">
     <path d="M 257.432813 91.692813 
L 267.432813 91.692813 
L 277.432813 91.692813 
" style="fill: none; stroke-dasharray: 3.2,0.8,0.5,0.8; stroke-dashoffset: 0; stroke: #000000; stroke-width: 0.5"/>
    </g>
    <g id="text_15">
     <!-- RM, softmax, shift -->
     <g transform="translate(285.432813 95.192813)scale(0.1 -0.1)">
      <use xlink:href="#DejaVuSans-52"/>
      <use xlink:href="#DejaVuSans-4d" x="69.482422"/>
      <use xlink:href="#DejaVuSans-2c" x="155.761719"/>
      <use xlink:href="#DejaVuSans-20" x="187.548828"/>
      <use xlink:href="#DejaVuSans-73" x="219.335938"/>
      <use xlink:href="#DejaVuSans-6f" x="271.435547"/>
      <use xlink:href="#DejaVuSans-66" x="332.617188"/>
      <use xlink:href="#DejaVuSans-74" x="366.072266"/>
      <use xlink:href="#DejaVuSans-6d" x="405.28125"/>
      <use xlink:href="#DejaVuSans-61" x="502.693359"/>
      <use xlink:href="#DejaVuSans-78" x="563.972656"/>
      <use xlink:href="#DejaVuSans-2c" x="623.152344"/>
      <use xlink:href="#DejaVuSans-20" x="654.939453"/>
      <use xlink:href="#DejaVuSans-73" x="686.726562"/>
      <use xlink:href="#DejaVuSans-68" x="738.826172"/>
      <use xlink:href="#DejaVuSans-69" x="802.205078"/>
      <use xlink:href="#DejaVuSans-66" x="829.988281"/>
      <use xlink:href="#DejaVuSans-74" x="863.443359"/>
     </g>
    </g>
    <g id="line2d_30">
     <path d="M 257.432813 106.370937 
L 267.432813 106.370937 
L 277.432813 106.370937 
" style="fill: none; stroke: #000000; stroke-width: 0.5; stroke-linecap: square"/>
     <g>
      <use xlink:href="#mef72cb56ef" x="267.432813" y="106.370937" style="stroke: #000000"/>
     </g>
    </g>
    <g id="text_16">
     <!-- CFR -->
     <g transform="translate(285.432813 109.870937)scale(0.1 -0.1)">
      <defs>
       <path id="DejaVuSans-46" d="M 628 4666 
L 3309 4666 
L 3309 4134 
L 1259 4134 
L 1259 2759 
L 3109 2759 
L 3109 2228 
L 1259 2228 
L 1259 0 
L 628 0 
L 628 4666 
z
" transform="scale(0.015625)"/>
      </defs>
      <use xlink:href="#DejaVuSans-43"/>
      <use xlink:href="#DejaVuSans-46" x="69.824219"/>
      <use xlink:href="#DejaVuSans-52" x="127.34375"/>
     </g>
    </g>
    <g id="line2d_31">
     <path d="M 257.432813 121.049062 
L 267.432813 121.049062 
L 277.432813 121.049062 
" style="fill: none; stroke-dasharray: 1.85,0.8; stroke-dashoffset: 0; stroke: #000000; stroke-width: 0.5"/>
     <g>
      <use xlink:href="#mef72cb56ef" x="267.432813" y="121.049062" style="stroke: #000000"/>
     </g>
    </g>
    <g id="text_17">
     <!-- CFR, shift -->
     <g transform="translate(285.432813 124.549062)scale(0.1 -0.1)">
      <use xlink:href="#DejaVuSans-43"/>
      <use xlink:href="#DejaVuSans-46" x="69.824219"/>
      <use xlink:href="#DejaVuSans-52" x="127.34375"/>
      <use xlink:href="#DejaVuSans-2c" x="196.826172"/>
      <use xlink:href="#DejaVuSans-20" x="228.613281"/>
      <use xlink:href="#DejaVuSans-73" x="260.400391"/>
      <use xlink:href="#DejaVuSans-68" x="312.5"/>
      <use xlink:href="#DejaVuSans-69" x="375.878906"/>
      <use xlink:href="#DejaVuSans-66" x="403.662109"/>
      <use xlink:href="#DejaVuSans-74" x="437.117188"/>
     </g>
    </g>
    <g id="line2d_32">
     <path d="M 257.432813 135.727187 
L 267.432813 135.727187 
L 277.432813 135.727187 
" style="fill: none; stroke-dasharray: 0.5,0.825; stroke-dashoffset: 0; stroke: #000000; stroke-width: 0.5"/>
     <g>
      <use xlink:href="#mef72cb56ef" x="267.432813" y="135.727187" style="stroke: #000000"/>
     </g>
    </g>
    <g id="text_18">
     <!-- CFR, softmax -->
     <g transform="translate(285.432813 139.227187)scale(0.1 -0.1)">
      <use xlink:href="#DejaVuSans-43"/>
      <use xlink:href="#DejaVuSans-46" x="69.824219"/>
      <use xlink:href="#DejaVuSans-52" x="127.34375"/>
      <use xlink:href="#DejaVuSans-2c" x="196.826172"/>
      <use xlink:href="#DejaVuSans-20" x="228.613281"/>
      <use xlink:href="#DejaVuSans-73" x="260.400391"/>
      <use xlink:href="#DejaVuSans-6f" x="312.5"/>
      <use xlink:href="#DejaVuSans-66" x="373.681641"/>
      <use xlink:href="#DejaVuSans-74" x="407.136719"/>
      <use xlink:href="#DejaVuSans-6d" x="446.345703"/>
      <use xlink:href="#DejaVuSans-61" x="543.757812"/>
      <use xlink:href="#DejaVuSans-78" x="605.037109"/>
     </g>
    </g>
    <g id="line2d_33">
     <path d="M 257.432813 150.405312 
L 267.432813 150.405312 
L 277.432813 150.405312 
" style="fill: none; stroke-dasharray: 3.2,0.8,0.5,0.8; stroke-dashoffset: 0; stroke: #000000; stroke-width: 0.5"/>
     <g>
      <use xlink:href="#mef72cb56ef" x="267.432813" y="150.405312" style="stroke: #000000"/>
     </g>
    </g>
    <g id="text_19">
     <!-- CFR, softmax, shift -->
     <g transform="translate(285.432813 153.905312)scale(0.1 -0.1)">
      <use xlink:href="#DejaVuSans-43"/>
      <use xlink:href="#DejaVuSans-46" x="69.824219"/>
      <use xlink:href="#DejaVuSans-52" x="127.34375"/>
      <use xlink:href="#DejaVuSans-2c" x="196.826172"/>
      <use xlink:href="#DejaVuSans-20" x="228.613281"/>
      <use xlink:href="#DejaVuSans-73" x="260.400391"/>
      <use xlink:href="#DejaVuSans-6f" x="312.5"/>
      <use xlink:href="#DejaVuSans-66" x="373.681641"/>
      <use xlink:href="#DejaVuSans-74" x="407.136719"/>
      <use xlink:href="#DejaVuSans-6d" x="446.345703"/>
      <use xlink:href="#DejaVuSans-61" x="543.757812"/>
      <use xlink:href="#DejaVuSans-78" x="605.037109"/>
      <use xlink:href="#DejaVuSans-2c" x="664.216797"/>
      <use xlink:href="#DejaVuSans-20" x="696.003906"/>
      <use xlink:href="#DejaVuSans-73" x="727.791016"/>
      <use xlink:href="#DejaVuSans-68" x="779.890625"/>
      <use xlink:href="#DejaVuSans-69" x="843.269531"/>
      <use xlink:href="#DejaVuSans-66" x="871.052734"/>
      <use xlink:href="#DejaVuSans-74" x="904.507812"/>
     </g>
    </g>
   </g>
  </g>
 </g>
 <defs>
  <clipPath id="p43af13c5e6">
   <rect x="54" y="34.56" width="334.8" height="217.44"/>
  </clipPath>
 </defs>
</svg>
