<?xml version="1.0" encoding="utf-8" standalone="no"?>
<!DOCTYPE svg PUBLIC "-//W3C//DTD SVG 1.1//EN"
  "http://www.w3.org/Graphics/SVG/1.1/DTD/svg11.dtd">
<svg xmlns:xlink="http://www.w3.org/1999/xlink" width="432pt" height="288pt" viewBox="0 0 432 288" xmlns="http://www.w3.org/2000/svg" version="1.1">
 <metadata>
  <rdf:RDF xmlns:dc="http://purl.org/dc/elements/1.1/" xmlns:cc="http://creativecommons.org/ns#" xmlns:rdf="http://www.w3.org/1999/02/22-rdf-syntax-ns#">
   <cc:Work>
    <dc:type rdf:resource="http://purl.org/dc/dcmitype/StillImage"/>
    <dc:date>2023-04-17T02:06:01.094414</dc:date>
    <dc:format>image/svg+xml</dc:format>
    <dc:creator>
     <cc:Agent>
      <dc:title>Matplotlib v3.5.1, https://matplotlib.org/</dc:title>
     </cc:Agent>
    </dc:creator>
   </cc:Work>
  </rdf:RDF>
 </metadata>
 <defs>
  <style type="text/css">*{stroke-linejoin: round; stroke-linecap: butt}</style>
 </defs>
 <g id="figure_1">
  <g id="patch_1">
   <path d="M 0 288 
L 432 288 
L 432 0 
L 0 0 
L 0 288 
z
" style="fill: none"/>
  </g>
  <g id="axes_1">
   <g id="patch_2">
    <path d="M 54 252 
L 388.8 252 
L 388.8 34.56 
L 54 34.56 
z
" style="fill: #ffffff"/>
   </g>
   <g id="matplotlib.axis_1">
    <g id="xtick_1">
     <g id="line2d_1">
      <defs>
       <path id="m572287b1c6" d="M 0 0 
L 0 3.5 
" style="stroke: #000000; stroke-width: 0.8"/>
      </defs>
      <g>
       <use xlink:href="#m572287b1c6" x="66.143802" y="252" style="stroke: #000000; stroke-width: 0.8"/>
      </g>
     </g>
     <g id="text_1">
      <!-- 0 -->
      <g transform="translate(62.962552 266.598437)scale(0.1 -0.1)">
       <defs>
        <path id="DejaVuSans-30" d="M 2034 4250 
Q 1547 4250 1301 3770 
Q 1056 3291 1056 2328 
Q 1056 1369 1301 889 
Q 1547 409 2034 409 
Q 2525 409 2770 889 
Q 3016 1369 3016 2328 
Q 3016 3291 2770 3770 
Q 2525 4250 2034 4250 
z
M 2034 4750 
Q 2819 4750 3233 4129 
Q 3647 3509 3647 2328 
Q 3647 1150 3233 529 
Q 2819 -91 2034 -91 
Q 1250 -91 836 529 
Q 422 1150 422 2328 
Q 422 3509 836 4129 
Q 1250 4750 2034 4750 
z
" transform="scale(0.015625)"/>
       </defs>
       <use xlink:href="#DejaVuSans-30"/>
      </g>
     </g>
    </g>
    <g id="xtick_2">
     <g id="line2d_2">
      <g>
       <use xlink:href="#m572287b1c6" x="127.631405" y="252" style="stroke: #000000; stroke-width: 0.8"/>
      </g>
     </g>
     <g id="text_2">
      <!-- 2000 -->
      <g transform="translate(114.906405 266.598437)scale(0.1 -0.1)">
       <defs>
        <path id="DejaVuSans-32" d="M 1228 531 
L 3431 531 
L 3431 0 
L 469 0 
L 469 531 
Q 828 903 1448 1529 
Q 2069 2156 2228 2338 
Q 2531 2678 2651 2914 
Q 2772 3150 2772 3378 
Q 2772 3750 2511 3984 
Q 2250 4219 1831 4219 
Q 1534 4219 1204 4116 
Q 875 4013 500 3803 
L 500 4441 
Q 881 4594 1212 4672 
Q 1544 4750 1819 4750 
Q 2544 4750 2975 4387 
Q 3406 4025 3406 3419 
Q 3406 3131 3298 2873 
Q 3191 2616 2906 2266 
Q 2828 2175 2409 1742 
Q 1991 1309 1228 531 
z
" transform="scale(0.015625)"/>
       </defs>
       <use xlink:href="#DejaVuSans-32"/>
       <use xlink:href="#DejaVuSans-30" x="63.623047"/>
       <use xlink:href="#DejaVuSans-30" x="127.246094"/>
       <use xlink:href="#DejaVuSans-30" x="190.869141"/>
      </g>
     </g>
    </g>
    <g id="xtick_3">
     <g id="line2d_3">
      <g>
       <use xlink:href="#m572287b1c6" x="189.119008" y="252" style="stroke: #000000; stroke-width: 0.8"/>
      </g>
     </g>
     <g id="text_3">
      <!-- 4000 -->
      <g transform="translate(176.394008 266.598437)scale(0.1 -0.1)">
       <defs>
        <path id="DejaVuSans-34" d="M 2419 4116 
L 825 1625 
L 2419 1625 
L 2419 4116 
z
M 2253 4666 
L 3047 4666 
L 3047 1625 
L 3713 1625 
L 3713 1100 
L 3047 1100 
L 3047 0 
L 2419 0 
L 2419 1100 
L 313 1100 
L 313 1709 
L 2253 4666 
z
" transform="scale(0.015625)"/>
       </defs>
       <use xlink:href="#DejaVuSans-34"/>
       <use xlink:href="#DejaVuSans-30" x="63.623047"/>
       <use xlink:href="#DejaVuSans-30" x="127.246094"/>
       <use xlink:href="#DejaVuSans-30" x="190.869141"/>
      </g>
     </g>
    </g>
    <g id="xtick_4">
     <g id="line2d_4">
      <g>
       <use xlink:href="#m572287b1c6" x="250.606612" y="252" style="stroke: #000000; stroke-width: 0.8"/>
      </g>
     </g>
     <g id="text_4">
      <!-- 6000 -->
      <g transform="translate(237.881612 266.598437)scale(0.1 -0.1)">
       <defs>
        <path id="DejaVuSans-36" d="M 2113 2584 
Q 1688 2584 1439 2293 
Q 1191 2003 1191 1497 
Q 1191 994 1439 701 
Q 1688 409 2113 409 
Q 2538 409 2786 701 
Q 3034 994 3034 1497 
Q 3034 2003 2786 2293 
Q 2538 2584 2113 2584 
z
M 3366 4563 
L 3366 3988 
Q 3128 4100 2886 4159 
Q 2644 4219 2406 4219 
Q 1781 4219 1451 3797 
Q 1122 3375 1075 2522 
Q 1259 2794 1537 2939 
Q 1816 3084 2150 3084 
Q 2853 3084 3261 2657 
Q 3669 2231 3669 1497 
Q 3669 778 3244 343 
Q 2819 -91 2113 -91 
Q 1303 -91 875 529 
Q 447 1150 447 2328 
Q 447 3434 972 4092 
Q 1497 4750 2381 4750 
Q 2619 4750 2861 4703 
Q 3103 4656 3366 4563 
z
" transform="scale(0.015625)"/>
       </defs>
       <use xlink:href="#DejaVuSans-36"/>
       <use xlink:href="#DejaVuSans-30" x="63.623047"/>
       <use xlink:href="#DejaVuSans-30" x="127.246094"/>
       <use xlink:href="#DejaVuSans-30" x="190.869141"/>
      </g>
     </g>
    </g>
    <g id="xtick_5">
     <g id="line2d_5">
      <g>
       <use xlink:href="#m572287b1c6" x="312.094215" y="252" style="stroke: #000000; stroke-width: 0.8"/>
      </g>
     </g>
     <g id="text_5">
      <!-- 8000 -->
      <g transform="translate(299.369215 266.598437)scale(0.1 -0.1)">
       <defs>
        <path id="DejaVuSans-38" d="M 2034 2216 
Q 1584 2216 1326 1975 
Q 1069 1734 1069 1313 
Q 1069 891 1326 650 
Q 1584 409 2034 409 
Q 2484 409 2743 651 
Q 3003 894 3003 1313 
Q 3003 1734 2745 1975 
Q 2488 2216 2034 2216 
z
M 1403 2484 
Q 997 2584 770 2862 
Q 544 3141 544 3541 
Q 544 4100 942 4425 
Q 1341 4750 2034 4750 
Q 2731 4750 3128 4425 
Q 3525 4100 3525 3541 
Q 3525 3141 3298 2862 
Q 3072 2584 2669 2484 
Q 3125 2378 3379 2068 
Q 3634 1759 3634 1313 
Q 3634 634 3220 271 
Q 2806 -91 2034 -91 
Q 1263 -91 848 271 
Q 434 634 434 1313 
Q 434 1759 690 2068 
Q 947 2378 1403 2484 
z
M 1172 3481 
Q 1172 3119 1398 2916 
Q 1625 2713 2034 2713 
Q 2441 2713 2670 2916 
Q 2900 3119 2900 3481 
Q 2900 3844 2670 4047 
Q 2441 4250 2034 4250 
Q 1625 4250 1398 4047 
Q 1172 3844 1172 3481 
z
" transform="scale(0.015625)"/>
       </defs>
       <use xlink:href="#DejaVuSans-38"/>
       <use xlink:href="#DejaVuSans-30" x="63.623047"/>
       <use xlink:href="#DejaVuSans-30" x="127.246094"/>
       <use xlink:href="#DejaVuSans-30" x="190.869141"/>
      </g>
     </g>
    </g>
    <g id="xtick_6">
     <g id="line2d_6">
      <g>
       <use xlink:href="#m572287b1c6" x="373.581818" y="252" style="stroke: #000000; stroke-width: 0.8"/>
      </g>
     </g>
     <g id="text_6">
      <!-- 10000 -->
      <g transform="translate(357.675568 266.598437)scale(0.1 -0.1)">
       <defs>
        <path id="DejaVuSans-31" d="M 794 531 
L 1825 531 
L 1825 4091 
L 703 3866 
L 703 4441 
L 1819 4666 
L 2450 4666 
L 2450 531 
L 3481 531 
L 3481 0 
L 794 0 
L 794 531 
z
" transform="scale(0.015625)"/>
       </defs>
       <use xlink:href="#DejaVuSans-31"/>
       <use xlink:href="#DejaVuSans-30" x="63.623047"/>
       <use xlink:href="#DejaVuSans-30" x="127.246094"/>
       <use xlink:href="#DejaVuSans-30" x="190.869141"/>
       <use xlink:href="#DejaVuSans-30" x="254.492188"/>
      </g>
     </g>
    </g>
    <g id="text_7">
     <!-- iterations -->
     <g transform="translate(197.672656 280.276563)scale(0.1 -0.1)">
      <defs>
       <path id="DejaVuSans-69" d="M 603 3500 
L 1178 3500 
L 1178 0 
L 603 0 
L 603 3500 
z
M 603 4863 
L 1178 4863 
L 1178 4134 
L 603 4134 
L 603 4863 
z
" transform="scale(0.015625)"/>
       <path id="DejaVuSans-74" d="M 1172 4494 
L 1172 3500 
L 2356 3500 
L 2356 3053 
L 1172 3053 
L 1172 1153 
Q 1172 725 1289 603 
Q 1406 481 1766 481 
L 2356 481 
L 2356 0 
L 1766 0 
Q 1100 0 847 248 
Q 594 497 594 1153 
L 594 3053 
L 172 3053 
L 172 3500 
L 594 3500 
L 594 4494 
L 1172 4494 
z
" transform="scale(0.015625)"/>
       <path id="DejaVuSans-65" d="M 3597 1894 
L 3597 1613 
L 953 1613 
Q 991 1019 1311 708 
Q 1631 397 2203 397 
Q 2534 397 2845 478 
Q 3156 559 3463 722 
L 3463 178 
Q 3153 47 2828 -22 
Q 2503 -91 2169 -91 
Q 1331 -91 842 396 
Q 353 884 353 1716 
Q 353 2575 817 3079 
Q 1281 3584 2069 3584 
Q 2775 3584 3186 3129 
Q 3597 2675 3597 1894 
z
M 3022 2063 
Q 3016 2534 2758 2815 
Q 2500 3097 2075 3097 
Q 1594 3097 1305 2825 
Q 1016 2553 972 2059 
L 3022 2063 
z
" transform="scale(0.015625)"/>
       <path id="DejaVuSans-72" d="M 2631 2963 
Q 2534 3019 2420 3045 
Q 2306 3072 2169 3072 
Q 1681 3072 1420 2755 
Q 1159 2438 1159 1844 
L 1159 0 
L 581 0 
L 581 3500 
L 1159 3500 
L 1159 2956 
Q 1341 3275 1631 3429 
Q 1922 3584 2338 3584 
Q 2397 3584 2469 3576 
Q 2541 3569 2628 3553 
L 2631 2963 
z
" transform="scale(0.015625)"/>
       <path id="DejaVuSans-61" d="M 2194 1759 
Q 1497 1759 1228 1600 
Q 959 1441 959 1056 
Q 959 750 1161 570 
Q 1363 391 1709 391 
Q 2188 391 2477 730 
Q 2766 1069 2766 1631 
L 2766 1759 
L 2194 1759 
z
M 3341 1997 
L 3341 0 
L 2766 0 
L 2766 531 
Q 2569 213 2275 61 
Q 1981 -91 1556 -91 
Q 1019 -91 701 211 
Q 384 513 384 1019 
Q 384 1609 779 1909 
Q 1175 2209 1959 2209 
L 2766 2209 
L 2766 2266 
Q 2766 2663 2505 2880 
Q 2244 3097 1772 3097 
Q 1472 3097 1187 3025 
Q 903 2953 641 2809 
L 641 3341 
Q 956 3463 1253 3523 
Q 1550 3584 1831 3584 
Q 2591 3584 2966 3190 
Q 3341 2797 3341 1997 
z
" transform="scale(0.015625)"/>
       <path id="DejaVuSans-6f" d="M 1959 3097 
Q 1497 3097 1228 2736 
Q 959 2375 959 1747 
Q 959 1119 1226 758 
Q 1494 397 1959 397 
Q 2419 397 2687 759 
Q 2956 1122 2956 1747 
Q 2956 2369 2687 2733 
Q 2419 3097 1959 3097 
z
M 1959 3584 
Q 2709 3584 3137 3096 
Q 3566 2609 3566 1747 
Q 3566 888 3137 398 
Q 2709 -91 1959 -91 
Q 1206 -91 779 398 
Q 353 888 353 1747 
Q 353 2609 779 3096 
Q 1206 3584 1959 3584 
z
" transform="scale(0.015625)"/>
       <path id="DejaVuSans-6e" d="M 3513 2113 
L 3513 0 
L 2938 0 
L 2938 2094 
Q 2938 2591 2744 2837 
Q 2550 3084 2163 3084 
Q 1697 3084 1428 2787 
Q 1159 2491 1159 1978 
L 1159 0 
L 581 0 
L 581 3500 
L 1159 3500 
L 1159 2956 
Q 1366 3272 1645 3428 
Q 1925 3584 2291 3584 
Q 2894 3584 3203 3211 
Q 3513 2838 3513 2113 
z
" transform="scale(0.015625)"/>
       <path id="DejaVuSans-73" d="M 2834 3397 
L 2834 2853 
Q 2591 2978 2328 3040 
Q 2066 3103 1784 3103 
Q 1356 3103 1142 2972 
Q 928 2841 928 2578 
Q 928 2378 1081 2264 
Q 1234 2150 1697 2047 
L 1894 2003 
Q 2506 1872 2764 1633 
Q 3022 1394 3022 966 
Q 3022 478 2636 193 
Q 2250 -91 1575 -91 
Q 1294 -91 989 -36 
Q 684 19 347 128 
L 347 722 
Q 666 556 975 473 
Q 1284 391 1588 391 
Q 1994 391 2212 530 
Q 2431 669 2431 922 
Q 2431 1156 2273 1281 
Q 2116 1406 1581 1522 
L 1381 1569 
Q 847 1681 609 1914 
Q 372 2147 372 2553 
Q 372 3047 722 3315 
Q 1072 3584 1716 3584 
Q 2034 3584 2315 3537 
Q 2597 3491 2834 3397 
z
" transform="scale(0.015625)"/>
      </defs>
      <use xlink:href="#DejaVuSans-69"/>
      <use xlink:href="#DejaVuSans-74" x="27.783203"/>
      <use xlink:href="#DejaVuSans-65" x="66.992188"/>
      <use xlink:href="#DejaVuSans-72" x="128.515625"/>
      <use xlink:href="#DejaVuSans-61" x="169.628906"/>
      <use xlink:href="#DejaVuSans-74" x="230.908203"/>
      <use xlink:href="#DejaVuSans-69" x="270.117188"/>
      <use xlink:href="#DejaVuSans-6f" x="297.900391"/>
      <use xlink:href="#DejaVuSans-6e" x="359.082031"/>
      <use xlink:href="#DejaVuSans-73" x="422.460938"/>
     </g>
    </g>
   </g>
   <g id="matplotlib.axis_2">
    <g id="ytick_1">
     <g id="line2d_7">
      <defs>
       <path id="m4916168e4c" d="M 0 0 
L -3.5 0 
" style="stroke: #000000; stroke-width: 0.8"/>
      </defs>
      <g>
       <use xlink:href="#m4916168e4c" x="54" y="220.988155" style="stroke: #000000; stroke-width: 0.8"/>
      </g>
     </g>
     <g id="text_8">
      <!-- $\mathdefault{10^{-3}}$ -->
      <g transform="translate(23.5 224.787374)scale(0.1 -0.1)">
       <defs>
        <path id="DejaVuSans-2212" d="M 678 2272 
L 4684 2272 
L 4684 1741 
L 678 1741 
L 678 2272 
z
" transform="scale(0.015625)"/>
        <path id="DejaVuSans-33" d="M 2597 2516 
Q 3050 2419 3304 2112 
Q 3559 1806 3559 1356 
Q 3559 666 3084 287 
Q 2609 -91 1734 -91 
Q 1441 -91 1130 -33 
Q 819 25 488 141 
L 488 750 
Q 750 597 1062 519 
Q 1375 441 1716 441 
Q 2309 441 2620 675 
Q 2931 909 2931 1356 
Q 2931 1769 2642 2001 
Q 2353 2234 1838 2234 
L 1294 2234 
L 1294 2753 
L 1863 2753 
Q 2328 2753 2575 2939 
Q 2822 3125 2822 3475 
Q 2822 3834 2567 4026 
Q 2313 4219 1838 4219 
Q 1578 4219 1281 4162 
Q 984 4106 628 3988 
L 628 4550 
Q 988 4650 1302 4700 
Q 1616 4750 1894 4750 
Q 2613 4750 3031 4423 
Q 3450 4097 3450 3541 
Q 3450 3153 3228 2886 
Q 3006 2619 2597 2516 
z
" transform="scale(0.015625)"/>
       </defs>
       <use xlink:href="#DejaVuSans-31" transform="translate(0 0.765625)"/>
       <use xlink:href="#DejaVuSans-30" transform="translate(63.623047 0.765625)"/>
       <use xlink:href="#DejaVuSans-2212" transform="translate(128.203125 39.046875)scale(0.7)"/>
       <use xlink:href="#DejaVuSans-33" transform="translate(186.855469 39.046875)scale(0.7)"/>
      </g>
     </g>
    </g>
    <g id="ytick_2">
     <g id="line2d_8">
      <g>
       <use xlink:href="#m4916168e4c" x="54" y="92.853803" style="stroke: #000000; stroke-width: 0.8"/>
      </g>
     </g>
     <g id="text_9">
      <!-- $\mathdefault{10^{-2}}$ -->
      <g transform="translate(23.5 96.653022)scale(0.1 -0.1)">
       <use xlink:href="#DejaVuSans-31" transform="translate(0 0.765625)"/>
       <use xlink:href="#DejaVuSans-30" transform="translate(63.623047 0.765625)"/>
       <use xlink:href="#DejaVuSans-2212" transform="translate(128.203125 39.046875)scale(0.7)"/>
       <use xlink:href="#DejaVuSans-32" transform="translate(186.855469 39.046875)scale(0.7)"/>
      </g>
     </g>
    </g>
    <g id="ytick_3">
     <g id="line2d_9">
      <defs>
       <path id="m48f0104f5f" d="M 0 0 
L -2 0 
" style="stroke: #000000; stroke-width: 0.6"/>
      </defs>
      <g>
       <use xlink:href="#m48f0104f5f" x="54" y="249.414601" style="stroke: #000000; stroke-width: 0.6"/>
      </g>
     </g>
    </g>
    <g id="ytick_4">
     <g id="line2d_10">
      <g>
       <use xlink:href="#m48f0104f5f" x="54" y="240.836418" style="stroke: #000000; stroke-width: 0.6"/>
      </g>
     </g>
    </g>
    <g id="ytick_5">
     <g id="line2d_11">
      <g>
       <use xlink:href="#m48f0104f5f" x="54" y="233.405657" style="stroke: #000000; stroke-width: 0.6"/>
      </g>
     </g>
    </g>
    <g id="ytick_6">
     <g id="line2d_12">
      <g>
       <use xlink:href="#m48f0104f5f" x="54" y="226.851262" style="stroke: #000000; stroke-width: 0.6"/>
      </g>
     </g>
    </g>
    <g id="ytick_7">
     <g id="line2d_13">
      <g>
       <use xlink:href="#m48f0104f5f" x="54" y="182.415872" style="stroke: #000000; stroke-width: 0.6"/>
      </g>
     </g>
    </g>
    <g id="ytick_8">
     <g id="line2d_14">
      <g>
       <use xlink:href="#m48f0104f5f" x="54" y="159.852532" style="stroke: #000000; stroke-width: 0.6"/>
      </g>
     </g>
    </g>
    <g id="ytick_9">
     <g id="line2d_15">
      <g>
       <use xlink:href="#m48f0104f5f" x="54" y="143.843588" style="stroke: #000000; stroke-width: 0.6"/>
      </g>
     </g>
    </g>
    <g id="ytick_10">
     <g id="line2d_16">
      <g>
       <use xlink:href="#m48f0104f5f" x="54" y="131.426086" style="stroke: #000000; stroke-width: 0.6"/>
      </g>
     </g>
    </g>
    <g id="ytick_11">
     <g id="line2d_17">
      <g>
       <use xlink:href="#m48f0104f5f" x="54" y="121.280249" style="stroke: #000000; stroke-width: 0.6"/>
      </g>
     </g>
    </g>
    <g id="ytick_12">
     <g id="line2d_18">
      <g>
       <use xlink:href="#m48f0104f5f" x="54" y="112.702065" style="stroke: #000000; stroke-width: 0.6"/>
      </g>
     </g>
    </g>
    <g id="ytick_13">
     <g id="line2d_19">
      <g>
       <use xlink:href="#m48f0104f5f" x="54" y="105.271305" style="stroke: #000000; stroke-width: 0.6"/>
      </g>
     </g>
    </g>
    <g id="ytick_14">
     <g id="line2d_20">
      <g>
       <use xlink:href="#m48f0104f5f" x="54" y="98.716909" style="stroke: #000000; stroke-width: 0.6"/>
      </g>
     </g>
    </g>
    <g id="ytick_15">
     <g id="line2d_21">
      <g>
       <use xlink:href="#m48f0104f5f" x="54" y="54.281519" style="stroke: #000000; stroke-width: 0.6"/>
      </g>
     </g>
    </g>
    <g id="text_10">
     <!-- QuasiNashConv -->
     <g transform="translate(17.420312 182.699531)rotate(-90)scale(0.1 -0.1)">
      <defs>
       <path id="DejaVuSans-51" d="M 2522 4238 
Q 1834 4238 1429 3725 
Q 1025 3213 1025 2328 
Q 1025 1447 1429 934 
Q 1834 422 2522 422 
Q 3209 422 3611 934 
Q 4013 1447 4013 2328 
Q 4013 3213 3611 3725 
Q 3209 4238 2522 4238 
z
M 3406 84 
L 4238 -825 
L 3475 -825 
L 2784 -78 
Q 2681 -84 2626 -87 
Q 2572 -91 2522 -91 
Q 1538 -91 948 567 
Q 359 1225 359 2328 
Q 359 3434 948 4092 
Q 1538 4750 2522 4750 
Q 3503 4750 4090 4092 
Q 4678 3434 4678 2328 
Q 4678 1516 4351 937 
Q 4025 359 3406 84 
z
" transform="scale(0.015625)"/>
       <path id="DejaVuSans-75" d="M 544 1381 
L 544 3500 
L 1119 3500 
L 1119 1403 
Q 1119 906 1312 657 
Q 1506 409 1894 409 
Q 2359 409 2629 706 
Q 2900 1003 2900 1516 
L 2900 3500 
L 3475 3500 
L 3475 0 
L 2900 0 
L 2900 538 
Q 2691 219 2414 64 
Q 2138 -91 1772 -91 
Q 1169 -91 856 284 
Q 544 659 544 1381 
z
M 1991 3584 
L 1991 3584 
z
" transform="scale(0.015625)"/>
       <path id="DejaVuSans-4e" d="M 628 4666 
L 1478 4666 
L 3547 763 
L 3547 4666 
L 4159 4666 
L 4159 0 
L 3309 0 
L 1241 3903 
L 1241 0 
L 628 0 
L 628 4666 
z
" transform="scale(0.015625)"/>
       <path id="DejaVuSans-68" d="M 3513 2113 
L 3513 0 
L 2938 0 
L 2938 2094 
Q 2938 2591 2744 2837 
Q 2550 3084 2163 3084 
Q 1697 3084 1428 2787 
Q 1159 2491 1159 1978 
L 1159 0 
L 581 0 
L 581 4863 
L 1159 4863 
L 1159 2956 
Q 1366 3272 1645 3428 
Q 1925 3584 2291 3584 
Q 2894 3584 3203 3211 
Q 3513 2838 3513 2113 
z
" transform="scale(0.015625)"/>
       <path id="DejaVuSans-43" d="M 4122 4306 
L 4122 3641 
Q 3803 3938 3442 4084 
Q 3081 4231 2675 4231 
Q 1875 4231 1450 3742 
Q 1025 3253 1025 2328 
Q 1025 1406 1450 917 
Q 1875 428 2675 428 
Q 3081 428 3442 575 
Q 3803 722 4122 1019 
L 4122 359 
Q 3791 134 3420 21 
Q 3050 -91 2638 -91 
Q 1578 -91 968 557 
Q 359 1206 359 2328 
Q 359 3453 968 4101 
Q 1578 4750 2638 4750 
Q 3056 4750 3426 4639 
Q 3797 4528 4122 4306 
z
" transform="scale(0.015625)"/>
       <path id="DejaVuSans-76" d="M 191 3500 
L 800 3500 
L 1894 563 
L 2988 3500 
L 3597 3500 
L 2284 0 
L 1503 0 
L 191 3500 
z
" transform="scale(0.015625)"/>
      </defs>
      <use xlink:href="#DejaVuSans-51"/>
      <use xlink:href="#DejaVuSans-75" x="78.710938"/>
      <use xlink:href="#DejaVuSans-61" x="142.089844"/>
      <use xlink:href="#DejaVuSans-73" x="203.369141"/>
      <use xlink:href="#DejaVuSans-69" x="255.46875"/>
      <use xlink:href="#DejaVuSans-4e" x="283.251953"/>
      <use xlink:href="#DejaVuSans-61" x="358.056641"/>
      <use xlink:href="#DejaVuSans-73" x="419.335938"/>
      <use xlink:href="#DejaVuSans-68" x="471.435547"/>
      <use xlink:href="#DejaVuSans-43" x="534.814453"/>
      <use xlink:href="#DejaVuSans-6f" x="604.638672"/>
      <use xlink:href="#DejaVuSans-6e" x="665.820312"/>
      <use xlink:href="#DejaVuSans-76" x="729.199219"/>
     </g>
    </g>
   </g>
   <g id="line2d_22">
    <path d="M 69.218182 44.443636 
L 72.292562 48.646771 
L 75.366942 50.051453 
L 78.441322 52.008996 
L 81.515702 56.099858 
L 84.590083 51.138212 
L 87.664463 50.640338 
L 90.738843 51.418068 
L 93.813223 54.806074 
L 96.887603 53.84575 
L 99.961983 53.692199 
L 103.036364 51.649252 
L 106.110744 54.457332 
L 109.185124 49.585377 
L 112.259504 51.170387 
L 115.333884 51.847368 
L 118.408264 55.621093 
L 121.482645 55.100206 
L 124.557025 54.848281 
L 127.631405 50.15416 
L 130.705785 50.29617 
L 133.780165 57.095813 
L 136.854545 52.598953 
L 139.928926 52.099761 
L 143.003306 54.905531 
L 146.077686 48.586579 
L 149.152066 53.36202 
L 152.226446 54.788554 
L 155.300826 57.402975 
L 158.375207 52.857502 
L 161.449587 53.70809 
L 164.523967 56.303021 
L 167.598347 55.250265 
L 170.672727 56.440143 
L 173.747107 51.892733 
L 176.821488 54.201458 
L 179.895868 54.427232 
L 182.970248 56.866664 
L 186.044628 58.883369 
L 189.119008 56.099968 
L 192.193388 54.137889 
L 195.267769 54.612474 
L 198.342149 53.515501 
L 201.416529 52.275791 
L 204.490909 57.821436 
L 207.565289 55.245879 
L 210.639669 57.822543 
L 213.71405 58.586634 
L 216.78843 56.7225 
L 219.86281 54.647666 
L 222.93719 55.100319 
L 226.01157 57.272787 
L 229.08595 52.53748 
L 232.160331 54.968783 
L 235.234711 51.698362 
L 238.309091 52.284092 
L 241.383471 55.552942 
L 244.457851 55.357975 
L 247.532231 51.783989 
L 250.606612 54.006501 
L 253.680992 56.737023 
L 256.755372 56.815152 
L 259.829752 55.805878 
L 262.904132 56.197677 
L 265.978512 58.56513 
L 269.052893 55.574923 
L 272.127273 55.795613 
L 275.201653 55.467973 
L 278.276033 56.062267 
L 281.350413 56.729181 
L 284.424793 55.525146 
L 287.499174 57.289189 
L 290.573554 58.461011 
L 293.647934 54.731222 
L 296.722314 54.62064 
L 299.796694 55.6517 
L 302.871074 55.840174 
L 305.945455 53.299409 
L 309.019835 58.919536 
L 312.094215 57.269948 
L 315.168595 56.20012 
L 318.242975 58.204187 
L 321.317355 57.106175 
L 324.391736 53.808938 
L 327.466116 54.82403 
L 330.540496 53.307008 
L 333.614876 55.892575 
L 336.689256 56.494264 
L 339.763636 55.645114 
L 342.838017 56.946849 
L 345.912397 55.023374 
L 348.986777 53.194431 
L 352.061157 53.744457 
L 355.135537 56.52465 
L 358.209917 52.76824 
L 361.284298 55.217542 
L 364.358678 56.506423 
L 367.433058 53.973934 
L 370.507438 56.445736 
L 373.581818 55.276566 
" clip-path="url(#p3b721f1052)" style="fill: none; stroke: #000000; stroke-width: 1.5; stroke-linecap: square"/>
   </g>
   <g id="line2d_23">
    <path d="M 69.218182 73.117053 
L 72.292562 78.850765 
L 75.366942 77.041965 
L 78.441322 84.981613 
L 81.515702 75.024881 
L 84.590083 80.490448 
L 87.664463 77.066335 
L 90.738843 80.88017 
L 93.813223 82.075951 
L 96.887603 82.972062 
L 99.961983 80.227924 
L 103.036364 81.034238 
L 106.110744 86.473468 
L 109.185124 80.525241 
L 112.259504 87.171817 
L 115.333884 84.627032 
L 118.408264 82.369417 
L 121.482645 84.333241 
L 124.557025 82.148376 
L 127.631405 82.601816 
L 130.705785 84.391142 
L 133.780165 83.134499 
L 136.854545 84.416107 
L 139.928926 82.604963 
L 143.003306 85.219408 
L 146.077686 87.204467 
L 149.152066 85.725528 
L 152.226446 86.834106 
L 155.300826 79.980677 
L 158.375207 83.665276 
L 161.449587 82.381431 
L 164.523967 85.109747 
L 167.598347 87.21609 
L 170.672727 84.583592 
L 173.747107 82.447758 
L 176.821488 85.328912 
L 179.895868 83.927661 
L 182.970248 82.871473 
L 186.044628 81.896377 
L 189.119008 81.739294 
L 192.193388 90.320019 
L 195.267769 84.268549 
L 198.342149 81.475086 
L 201.416529 88.852395 
L 204.490909 82.091149 
L 207.565289 83.383332 
L 210.639669 83.566121 
L 213.71405 83.268851 
L 216.78843 87.405993 
L 219.86281 85.604847 
L 222.93719 87.678725 
L 226.01157 88.200287 
L 229.08595 86.800453 
L 232.160331 84.203987 
L 235.234711 86.447939 
L 238.309091 83.09171 
L 241.383471 84.67169 
L 244.457851 85.55666 
L 247.532231 85.916241 
L 250.606612 83.813135 
L 253.680992 84.081438 
L 256.755372 85.12485 
L 259.829752 86.557168 
L 262.904132 83.415884 
L 265.978512 85.187684 
L 269.052893 84.728041 
L 272.127273 84.222188 
L 275.201653 81.575248 
L 278.276033 82.424797 
L 281.350413 84.418731 
L 284.424793 86.542383 
L 287.499174 84.871623 
L 290.573554 82.169872 
L 293.647934 82.716409 
L 296.722314 83.223131 
L 299.796694 87.34629 
L 302.871074 84.971167 
L 305.945455 84.31312 
L 309.019835 81.989491 
L 312.094215 84.711224 
L 315.168595 84.365549 
L 318.242975 82.137912 
L 321.317355 81.714722 
L 324.391736 84.161268 
L 327.466116 83.237068 
L 330.540496 82.874745 
L 333.614876 83.387293 
L 336.689256 83.446644 
L 339.763636 83.459013 
L 342.838017 84.008072 
L 345.912397 84.541454 
L 348.986777 84.911314 
L 352.061157 83.348556 
L 355.135537 83.233057 
L 358.209917 83.04338 
L 361.284298 82.435514 
L 364.358678 84.509066 
L 367.433058 85.120346 
L 370.507438 81.684001 
L 373.581818 84.288458 
" clip-path="url(#p3b721f1052)" style="fill: none; stroke-dasharray: 5.55,2.4; stroke-dashoffset: 0; stroke: #000000; stroke-width: 1.5"/>
   </g>
   <g id="line2d_24">
    <path d="M 69.218182 111.330441 
L 72.292562 118.802468 
L 75.366942 124.21507 
L 78.441322 116.994762 
L 81.515702 114.285669 
L 84.590083 116.219842 
L 87.664463 124.364788 
L 90.738843 115.581496 
L 93.813223 119.895366 
L 96.887603 123.483514 
L 99.961983 114.104846 
L 103.036364 118.680094 
L 106.110744 112.943781 
L 109.185124 113.382992 
L 112.259504 120.313937 
L 115.333884 118.101094 
L 118.408264 119.110066 
L 121.482645 121.732076 
L 124.557025 121.681985 
L 127.631405 116.590093 
L 130.705785 117.464031 
L 133.780165 114.795011 
L 136.854545 113.840279 
L 139.928926 113.627567 
L 143.003306 117.053485 
L 146.077686 116.924222 
L 149.152066 119.428311 
L 152.226446 124.636502 
L 155.300826 117.719043 
L 158.375207 115.079556 
L 161.449587 118.432789 
L 164.523967 115.624861 
L 167.598347 114.991311 
L 170.672727 120.023499 
L 173.747107 115.081115 
L 176.821488 111.629672 
L 179.895868 115.447949 
L 182.970248 119.42139 
L 186.044628 121.73104 
L 189.119008 117.68095 
L 192.193388 118.38949 
L 195.267769 119.900654 
L 198.342149 118.015656 
L 201.416529 117.472952 
L 204.490909 112.257592 
L 207.565289 119.286981 
L 210.639669 117.346333 
L 213.71405 115.797318 
L 216.78843 114.993331 
L 219.86281 115.487495 
L 222.93719 113.893295 
L 226.01157 111.88811 
L 229.08595 114.234076 
L 232.160331 118.907489 
L 235.234711 114.175897 
L 238.309091 115.806352 
L 241.383471 113.952075 
L 244.457851 114.303598 
L 247.532231 122.790871 
L 250.606612 114.555674 
L 253.680992 118.078358 
L 256.755372 120.370118 
L 259.829752 117.718781 
L 262.904132 114.548662 
L 265.978512 118.436998 
L 269.052893 116.434926 
L 272.127273 119.146225 
L 275.201653 118.537366 
L 278.276033 119.919735 
L 281.350413 117.915146 
L 284.424793 115.788083 
L 287.499174 117.089225 
L 290.573554 114.562321 
L 293.647934 119.965953 
L 296.722314 123.976479 
L 299.796694 117.735984 
L 302.871074 119.46267 
L 305.945455 117.289243 
L 309.019835 118.854728 
L 312.094215 115.276191 
L 315.168595 115.338549 
L 318.242975 114.564755 
L 321.317355 117.254794 
L 324.391736 114.521187 
L 327.466116 118.551173 
L 330.540496 113.446366 
L 333.614876 117.585477 
L 336.689256 116.254035 
L 339.763636 112.697675 
L 342.838017 112.740274 
L 345.912397 117.081614 
L 348.986777 117.823248 
L 352.061157 117.235076 
L 355.135537 119.225672 
L 358.209917 118.651361 
L 361.284298 114.490023 
L 364.358678 115.478664 
L 367.433058 114.332148 
L 370.507438 112.350716 
L 373.581818 114.779082 
" clip-path="url(#p3b721f1052)" style="fill: none; stroke-dasharray: 1.5,2.475; stroke-dashoffset: 0; stroke: #000000; stroke-width: 1.5"/>
   </g>
   <g id="line2d_25">
    <path d="M 69.218182 125.633515 
L 72.292562 144.446446 
L 75.366942 149.976227 
L 78.441322 152.93379 
L 81.515702 157.978455 
L 84.590083 154.924925 
L 87.664463 153.004671 
L 90.738843 161.435024 
L 93.813223 158.81485 
L 96.887603 155.24651 
L 99.961983 162.597183 
L 103.036364 161.406318 
L 106.110744 160.827817 
L 109.185124 160.553419 
L 112.259504 167.602678 
L 115.333884 162.72938 
L 118.408264 171.041985 
L 121.482645 169.353909 
L 124.557025 167.235541 
L 127.631405 167.53961 
L 130.705785 167.809941 
L 133.780165 167.91701 
L 136.854545 167.391983 
L 139.928926 167.965725 
L 143.003306 172.003755 
L 146.077686 169.02612 
L 149.152066 168.689828 
L 152.226446 172.499742 
L 155.300826 170.228869 
L 158.375207 173.905693 
L 161.449587 166.719444 
L 164.523967 173.660976 
L 167.598347 170.596037 
L 170.672727 171.655121 
L 173.747107 169.570231 
L 176.821488 174.571708 
L 179.895868 171.605335 
L 182.970248 169.62924 
L 186.044628 170.658274 
L 189.119008 173.042817 
L 192.193388 175.008416 
L 195.267769 172.459772 
L 198.342149 174.845416 
L 201.416529 170.189292 
L 204.490909 175.18779 
L 207.565289 176.038473 
L 210.639669 176.599019 
L 213.71405 177.07414 
L 216.78843 175.001878 
L 219.86281 175.843957 
L 222.93719 173.880756 
L 226.01157 175.001142 
L 229.08595 173.562937 
L 232.160331 175.201718 
L 235.234711 171.614267 
L 238.309091 173.441749 
L 241.383471 173.595918 
L 244.457851 173.685193 
L 247.532231 176.076737 
L 250.606612 174.498333 
L 253.680992 173.517281 
L 256.755372 175.550517 
L 259.829752 176.759748 
L 262.904132 174.077762 
L 265.978512 171.427794 
L 269.052893 175.40638 
L 272.127273 175.179774 
L 275.201653 174.076245 
L 278.276033 175.992307 
L 281.350413 175.228422 
L 284.424793 174.661459 
L 287.499174 174.252062 
L 290.573554 172.479354 
L 293.647934 175.232408 
L 296.722314 176.980059 
L 299.796694 174.631263 
L 302.871074 173.852122 
L 305.945455 176.070253 
L 309.019835 171.46511 
L 312.094215 175.33273 
L 315.168595 178.579968 
L 318.242975 176.240188 
L 321.317355 175.424291 
L 324.391736 173.428724 
L 327.466116 174.882785 
L 330.540496 174.806215 
L 333.614876 176.259407 
L 336.689256 174.634234 
L 339.763636 175.406873 
L 342.838017 176.172439 
L 345.912397 173.770382 
L 348.986777 174.547191 
L 352.061157 174.820266 
L 355.135537 172.149624 
L 358.209917 175.799528 
L 361.284298 172.890993 
L 364.358678 175.265015 
L 367.433058 174.242949 
L 370.507438 176.556765 
L 373.581818 176.441609 
" clip-path="url(#p3b721f1052)" style="fill: none; stroke-dasharray: 9.6,2.4,1.5,2.4; stroke-dashoffset: 0; stroke: #000000; stroke-width: 1.5"/>
   </g>
   <g id="line2d_26">
    <path d="M 69.218182 156.58007 
L 72.292562 164.934027 
L 75.366942 170.270743 
L 78.441322 175.317091 
L 81.515702 184.047707 
L 84.590083 174.569798 
L 87.664463 180.568074 
L 90.738843 189.040032 
L 93.813223 195.044821 
L 96.887603 188.90073 
L 99.961983 197.14942 
L 103.036364 197.053624 
L 106.110744 194.704988 
L 109.185124 194.444602 
L 112.259504 197.702932 
L 115.333884 197.992075 
L 118.408264 196.828733 
L 121.482645 200.307463 
L 124.557025 198.35639 
L 127.631405 195.186221 
L 130.705785 199.398197 
L 133.780165 197.004453 
L 136.854545 196.622923 
L 139.928926 199.684014 
L 143.003306 198.486809 
L 146.077686 205.169384 
L 149.152066 201.64803 
L 152.226446 204.513438 
L 155.300826 202.793117 
L 158.375207 200.241359 
L 161.449587 202.57565 
L 164.523967 198.252371 
L 167.598347 203.38873 
L 170.672727 201.351728 
L 173.747107 199.249046 
L 176.821488 205.433373 
L 179.895868 204.339949 
L 182.970248 203.960053 
L 186.044628 201.950155 
L 189.119008 204.371258 
L 192.193388 202.57431 
L 195.267769 200.896633 
L 198.342149 203.763544 
L 201.416529 199.5252 
L 204.490909 194.337088 
L 207.565289 198.903654 
L 210.639669 201.322729 
L 213.71405 204.691011 
L 216.78843 200.783213 
L 219.86281 203.133063 
L 222.93719 202.010491 
L 226.01157 198.781931 
L 229.08595 201.746486 
L 232.160331 203.238896 
L 235.234711 198.206897 
L 238.309091 203.21373 
L 241.383471 203.920761 
L 244.457851 202.088919 
L 247.532231 206.449727 
L 250.606612 201.599347 
L 253.680992 203.631981 
L 256.755372 204.065904 
L 259.829752 200.918042 
L 262.904132 203.983215 
L 265.978512 203.277031 
L 269.052893 198.920004 
L 272.127273 203.867221 
L 275.201653 204.414148 
L 278.276033 206.53182 
L 281.350413 205.109087 
L 284.424793 203.69452 
L 287.499174 204.145309 
L 290.573554 204.865568 
L 293.647934 202.49734 
L 296.722314 202.762233 
L 299.796694 199.360187 
L 302.871074 201.35329 
L 305.945455 199.865187 
L 309.019835 207.405349 
L 312.094215 203.814136 
L 315.168595 205.387308 
L 318.242975 202.722323 
L 321.317355 206.92414 
L 324.391736 205.593652 
L 327.466116 207.694188 
L 330.540496 205.572648 
L 333.614876 207.939812 
L 336.689256 204.805999 
L 339.763636 204.762099 
L 342.838017 201.820403 
L 345.912397 203.51677 
L 348.986777 200.728226 
L 352.061157 203.773022 
L 355.135537 199.666031 
L 358.209917 202.601194 
L 361.284298 207.101492 
L 364.358678 205.183578 
L 367.433058 204.483506 
L 370.507438 204.615108 
L 373.581818 204.681703 
" clip-path="url(#p3b721f1052)" style="fill: none; stroke: #000000; stroke-width: 1.5; stroke-linecap: square"/>
    <defs>
     <path id="me24c2b8c97" d="M 0 1.5 
C 0.397805 1.5 0.77937 1.341951 1.06066 1.06066 
C 1.341951 0.77937 1.5 0.397805 1.5 0 
C 1.5 -0.397805 1.341951 -0.77937 1.06066 -1.06066 
C 0.77937 -1.341951 0.397805 -1.5 0 -1.5 
C -0.397805 -1.5 -0.77937 -1.341951 -1.06066 -1.06066 
C -1.341951 -0.77937 -1.5 -0.397805 -1.5 0 
C -1.5 0.397805 -1.341951 0.77937 -1.06066 1.06066 
C -0.77937 1.341951 -0.397805 1.5 0 1.5 
z
" style="stroke: #000000"/>
    </defs>
    <g clip-path="url(#p3b721f1052)">
     <use xlink:href="#me24c2b8c97" x="69.218182" y="156.58007" style="stroke: #000000"/>
     <use xlink:href="#me24c2b8c97" x="72.292562" y="164.934027" style="stroke: #000000"/>
     <use xlink:href="#me24c2b8c97" x="75.366942" y="170.270743" style="stroke: #000000"/>
     <use xlink:href="#me24c2b8c97" x="78.441322" y="175.317091" style="stroke: #000000"/>
     <use xlink:href="#me24c2b8c97" x="81.515702" y="184.047707" style="stroke: #000000"/>
     <use xlink:href="#me24c2b8c97" x="84.590083" y="174.569798" style="stroke: #000000"/>
     <use xlink:href="#me24c2b8c97" x="87.664463" y="180.568074" style="stroke: #000000"/>
     <use xlink:href="#me24c2b8c97" x="90.738843" y="189.040032" style="stroke: #000000"/>
     <use xlink:href="#me24c2b8c97" x="93.813223" y="195.044821" style="stroke: #000000"/>
     <use xlink:href="#me24c2b8c97" x="96.887603" y="188.90073" style="stroke: #000000"/>
     <use xlink:href="#me24c2b8c97" x="99.961983" y="197.14942" style="stroke: #000000"/>
     <use xlink:href="#me24c2b8c97" x="103.036364" y="197.053624" style="stroke: #000000"/>
     <use xlink:href="#me24c2b8c97" x="106.110744" y="194.704988" style="stroke: #000000"/>
     <use xlink:href="#me24c2b8c97" x="109.185124" y="194.444602" style="stroke: #000000"/>
     <use xlink:href="#me24c2b8c97" x="112.259504" y="197.702932" style="stroke: #000000"/>
     <use xlink:href="#me24c2b8c97" x="115.333884" y="197.992075" style="stroke: #000000"/>
     <use xlink:href="#me24c2b8c97" x="118.408264" y="196.828733" style="stroke: #000000"/>
     <use xlink:href="#me24c2b8c97" x="121.482645" y="200.307463" style="stroke: #000000"/>
     <use xlink:href="#me24c2b8c97" x="124.557025" y="198.35639" style="stroke: #000000"/>
     <use xlink:href="#me24c2b8c97" x="127.631405" y="195.186221" style="stroke: #000000"/>
     <use xlink:href="#me24c2b8c97" x="130.705785" y="199.398197" style="stroke: #000000"/>
     <use xlink:href="#me24c2b8c97" x="133.780165" y="197.004453" style="stroke: #000000"/>
     <use xlink:href="#me24c2b8c97" x="136.854545" y="196.622923" style="stroke: #000000"/>
     <use xlink:href="#me24c2b8c97" x="139.928926" y="199.684014" style="stroke: #000000"/>
     <use xlink:href="#me24c2b8c97" x="143.003306" y="198.486809" style="stroke: #000000"/>
     <use xlink:href="#me24c2b8c97" x="146.077686" y="205.169384" style="stroke: #000000"/>
     <use xlink:href="#me24c2b8c97" x="149.152066" y="201.64803" style="stroke: #000000"/>
     <use xlink:href="#me24c2b8c97" x="152.226446" y="204.513438" style="stroke: #000000"/>
     <use xlink:href="#me24c2b8c97" x="155.300826" y="202.793117" style="stroke: #000000"/>
     <use xlink:href="#me24c2b8c97" x="158.375207" y="200.241359" style="stroke: #000000"/>
     <use xlink:href="#me24c2b8c97" x="161.449587" y="202.57565" style="stroke: #000000"/>
     <use xlink:href="#me24c2b8c97" x="164.523967" y="198.252371" style="stroke: #000000"/>
     <use xlink:href="#me24c2b8c97" x="167.598347" y="203.38873" style="stroke: #000000"/>
     <use xlink:href="#me24c2b8c97" x="170.672727" y="201.351728" style="stroke: #000000"/>
     <use xlink:href="#me24c2b8c97" x="173.747107" y="199.249046" style="stroke: #000000"/>
     <use xlink:href="#me24c2b8c97" x="176.821488" y="205.433373" style="stroke: #000000"/>
     <use xlink:href="#me24c2b8c97" x="179.895868" y="204.339949" style="stroke: #000000"/>
     <use xlink:href="#me24c2b8c97" x="182.970248" y="203.960053" style="stroke: #000000"/>
     <use xlink:href="#me24c2b8c97" x="186.044628" y="201.950155" style="stroke: #000000"/>
     <use xlink:href="#me24c2b8c97" x="189.119008" y="204.371258" style="stroke: #000000"/>
     <use xlink:href="#me24c2b8c97" x="192.193388" y="202.57431" style="stroke: #000000"/>
     <use xlink:href="#me24c2b8c97" x="195.267769" y="200.896633" style="stroke: #000000"/>
     <use xlink:href="#me24c2b8c97" x="198.342149" y="203.763544" style="stroke: #000000"/>
     <use xlink:href="#me24c2b8c97" x="201.416529" y="199.5252" style="stroke: #000000"/>
     <use xlink:href="#me24c2b8c97" x="204.490909" y="194.337088" style="stroke: #000000"/>
     <use xlink:href="#me24c2b8c97" x="207.565289" y="198.903654" style="stroke: #000000"/>
     <use xlink:href="#me24c2b8c97" x="210.639669" y="201.322729" style="stroke: #000000"/>
     <use xlink:href="#me24c2b8c97" x="213.71405" y="204.691011" style="stroke: #000000"/>
     <use xlink:href="#me24c2b8c97" x="216.78843" y="200.783213" style="stroke: #000000"/>
     <use xlink:href="#me24c2b8c97" x="219.86281" y="203.133063" style="stroke: #000000"/>
     <use xlink:href="#me24c2b8c97" x="222.93719" y="202.010491" style="stroke: #000000"/>
     <use xlink:href="#me24c2b8c97" x="226.01157" y="198.781931" style="stroke: #000000"/>
     <use xlink:href="#me24c2b8c97" x="229.08595" y="201.746486" style="stroke: #000000"/>
     <use xlink:href="#me24c2b8c97" x="232.160331" y="203.238896" style="stroke: #000000"/>
     <use xlink:href="#me24c2b8c97" x="235.234711" y="198.206897" style="stroke: #000000"/>
     <use xlink:href="#me24c2b8c97" x="238.309091" y="203.21373" style="stroke: #000000"/>
     <use xlink:href="#me24c2b8c97" x="241.383471" y="203.920761" style="stroke: #000000"/>
     <use xlink:href="#me24c2b8c97" x="244.457851" y="202.088919" style="stroke: #000000"/>
     <use xlink:href="#me24c2b8c97" x="247.532231" y="206.449727" style="stroke: #000000"/>
     <use xlink:href="#me24c2b8c97" x="250.606612" y="201.599347" style="stroke: #000000"/>
     <use xlink:href="#me24c2b8c97" x="253.680992" y="203.631981" style="stroke: #000000"/>
     <use xlink:href="#me24c2b8c97" x="256.755372" y="204.065904" style="stroke: #000000"/>
     <use xlink:href="#me24c2b8c97" x="259.829752" y="200.918042" style="stroke: #000000"/>
     <use xlink:href="#me24c2b8c97" x="262.904132" y="203.983215" style="stroke: #000000"/>
     <use xlink:href="#me24c2b8c97" x="265.978512" y="203.277031" style="stroke: #000000"/>
     <use xlink:href="#me24c2b8c97" x="269.052893" y="198.920004" style="stroke: #000000"/>
     <use xlink:href="#me24c2b8c97" x="272.127273" y="203.867221" style="stroke: #000000"/>
     <use xlink:href="#me24c2b8c97" x="275.201653" y="204.414148" style="stroke: #000000"/>
     <use xlink:href="#me24c2b8c97" x="278.276033" y="206.53182" style="stroke: #000000"/>
     <use xlink:href="#me24c2b8c97" x="281.350413" y="205.109087" style="stroke: #000000"/>
     <use xlink:href="#me24c2b8c97" x="284.424793" y="203.69452" style="stroke: #000000"/>
     <use xlink:href="#me24c2b8c97" x="287.499174" y="204.145309" style="stroke: #000000"/>
     <use xlink:href="#me24c2b8c97" x="290.573554" y="204.865568" style="stroke: #000000"/>
     <use xlink:href="#me24c2b8c97" x="293.647934" y="202.49734" style="stroke: #000000"/>
     <use xlink:href="#me24c2b8c97" x="296.722314" y="202.762233" style="stroke: #000000"/>
     <use xlink:href="#me24c2b8c97" x="299.796694" y="199.360187" style="stroke: #000000"/>
     <use xlink:href="#me24c2b8c97" x="302.871074" y="201.35329" style="stroke: #000000"/>
     <use xlink:href="#me24c2b8c97" x="305.945455" y="199.865187" style="stroke: #000000"/>
     <use xlink:href="#me24c2b8c97" x="309.019835" y="207.405349" style="stroke: #000000"/>
     <use xlink:href="#me24c2b8c97" x="312.094215" y="203.814136" style="stroke: #000000"/>
     <use xlink:href="#me24c2b8c97" x="315.168595" y="205.387308" style="stroke: #000000"/>
     <use xlink:href="#me24c2b8c97" x="318.242975" y="202.722323" style="stroke: #000000"/>
     <use xlink:href="#me24c2b8c97" x="321.317355" y="206.92414" style="stroke: #000000"/>
     <use xlink:href="#me24c2b8c97" x="324.391736" y="205.593652" style="stroke: #000000"/>
     <use xlink:href="#me24c2b8c97" x="327.466116" y="207.694188" style="stroke: #000000"/>
     <use xlink:href="#me24c2b8c97" x="330.540496" y="205.572648" style="stroke: #000000"/>
     <use xlink:href="#me24c2b8c97" x="333.614876" y="207.939812" style="stroke: #000000"/>
     <use xlink:href="#me24c2b8c97" x="336.689256" y="204.805999" style="stroke: #000000"/>
     <use xlink:href="#me24c2b8c97" x="339.763636" y="204.762099" style="stroke: #000000"/>
     <use xlink:href="#me24c2b8c97" x="342.838017" y="201.820403" style="stroke: #000000"/>
     <use xlink:href="#me24c2b8c97" x="345.912397" y="203.51677" style="stroke: #000000"/>
     <use xlink:href="#me24c2b8c97" x="348.986777" y="200.728226" style="stroke: #000000"/>
     <use xlink:href="#me24c2b8c97" x="352.061157" y="203.773022" style="stroke: #000000"/>
     <use xlink:href="#me24c2b8c97" x="355.135537" y="199.666031" style="stroke: #000000"/>
     <use xlink:href="#me24c2b8c97" x="358.209917" y="202.601194" style="stroke: #000000"/>
     <use xlink:href="#me24c2b8c97" x="361.284298" y="207.101492" style="stroke: #000000"/>
     <use xlink:href="#me24c2b8c97" x="364.358678" y="205.183578" style="stroke: #000000"/>
     <use xlink:href="#me24c2b8c97" x="367.433058" y="204.483506" style="stroke: #000000"/>
     <use xlink:href="#me24c2b8c97" x="370.507438" y="204.615108" style="stroke: #000000"/>
     <use xlink:href="#me24c2b8c97" x="373.581818" y="204.681703" style="stroke: #000000"/>
    </g>
   </g>
   <g id="line2d_27">
    <path d="M 69.218182 180.344984 
L 72.292562 184.524246 
L 75.366942 198.221277 
L 78.441322 203.980283 
L 81.515702 209.167804 
L 84.590083 212.234358 
L 87.664463 212.349491 
L 90.738843 220.047171 
L 93.813223 217.666887 
L 96.887603 217.697168 
L 99.961983 215.232234 
L 103.036364 224.704917 
L 106.110744 226.218681 
L 109.185124 226.354651 
L 112.259504 220.527721 
L 115.333884 229.295856 
L 118.408264 225.889871 
L 121.482645 233.497547 
L 124.557025 225.498573 
L 127.631405 228.379172 
L 130.705785 226.21503 
L 133.780165 226.176871 
L 136.854545 229.914411 
L 139.928926 231.950199 
L 143.003306 230.898125 
L 146.077686 227.586849 
L 149.152066 232.464163 
L 152.226446 234.073242 
L 155.300826 225.573283 
L 158.375207 232.007013 
L 161.449587 231.974046 
L 164.523967 230.125262 
L 167.598347 230.494309 
L 170.672727 226.021295 
L 173.747107 235.733153 
L 176.821488 230.215437 
L 179.895868 232.579392 
L 182.970248 226.816804 
L 186.044628 226.121009 
L 189.119008 230.860983 
L 192.193388 228.609462 
L 195.267769 231.748315 
L 198.342149 226.663256 
L 201.416529 234.916075 
L 204.490909 231.23823 
L 207.565289 232.511378 
L 210.639669 231.696107 
L 213.71405 231.487242 
L 216.78843 231.053335 
L 219.86281 230.440855 
L 222.93719 235.041348 
L 226.01157 233.261045 
L 229.08595 233.296048 
L 232.160331 233.924658 
L 235.234711 231.132919 
L 238.309091 234.113396 
L 241.383471 223.415872 
L 244.457851 225.375455 
L 247.532231 236.022206 
L 250.606612 229.9477 
L 253.680992 235.466219 
L 256.755372 235.416008 
L 259.829752 233.599783 
L 262.904132 224.110515 
L 265.978512 234.961939 
L 269.052893 236.688593 
L 272.127273 226.865916 
L 275.201653 227.762023 
L 278.276033 236.262762 
L 281.350413 230.894906 
L 284.424793 226.281492 
L 287.499174 219.69465 
L 290.573554 227.736953 
L 293.647934 231.588861 
L 296.722314 234.171229 
L 299.796694 227.596281 
L 302.871074 239.467827 
L 305.945455 238.625005 
L 309.019835 231.975205 
L 312.094215 228.65147 
L 315.168595 227.279457 
L 318.242975 229.917315 
L 321.317355 233.909627 
L 324.391736 232.606653 
L 327.466116 232.327625 
L 330.540496 222.534104 
L 333.614876 223.410407 
L 336.689256 230.775523 
L 339.763636 236.146541 
L 342.838017 237.224532 
L 345.912397 239.624426 
L 348.986777 242.116364 
L 352.061157 239.578367 
L 355.135537 239.637749 
L 358.209917 236.904006 
L 361.284298 236.327367 
L 364.358678 239.084622 
L 367.433058 238.56031 
L 370.507438 232.484839 
L 373.581818 232.467938 
" clip-path="url(#p3b721f1052)" style="fill: none; stroke-dasharray: 5.55,2.4; stroke-dashoffset: 0; stroke: #000000; stroke-width: 1.5"/>
    <g clip-path="url(#p3b721f1052)">
     <use xlink:href="#me24c2b8c97" x="69.218182" y="180.344984" style="stroke: #000000"/>
     <use xlink:href="#me24c2b8c97" x="72.292562" y="184.524246" style="stroke: #000000"/>
     <use xlink:href="#me24c2b8c97" x="75.366942" y="198.221277" style="stroke: #000000"/>
     <use xlink:href="#me24c2b8c97" x="78.441322" y="203.980283" style="stroke: #000000"/>
     <use xlink:href="#me24c2b8c97" x="81.515702" y="209.167804" style="stroke: #000000"/>
     <use xlink:href="#me24c2b8c97" x="84.590083" y="212.234358" style="stroke: #000000"/>
     <use xlink:href="#me24c2b8c97" x="87.664463" y="212.349491" style="stroke: #000000"/>
     <use xlink:href="#me24c2b8c97" x="90.738843" y="220.047171" style="stroke: #000000"/>
     <use xlink:href="#me24c2b8c97" x="93.813223" y="217.666887" style="stroke: #000000"/>
     <use xlink:href="#me24c2b8c97" x="96.887603" y="217.697168" style="stroke: #000000"/>
     <use xlink:href="#me24c2b8c97" x="99.961983" y="215.232234" style="stroke: #000000"/>
     <use xlink:href="#me24c2b8c97" x="103.036364" y="224.704917" style="stroke: #000000"/>
     <use xlink:href="#me24c2b8c97" x="106.110744" y="226.218681" style="stroke: #000000"/>
     <use xlink:href="#me24c2b8c97" x="109.185124" y="226.354651" style="stroke: #000000"/>
     <use xlink:href="#me24c2b8c97" x="112.259504" y="220.527721" style="stroke: #000000"/>
     <use xlink:href="#me24c2b8c97" x="115.333884" y="229.295856" style="stroke: #000000"/>
     <use xlink:href="#me24c2b8c97" x="118.408264" y="225.889871" style="stroke: #000000"/>
     <use xlink:href="#me24c2b8c97" x="121.482645" y="233.497547" style="stroke: #000000"/>
     <use xlink:href="#me24c2b8c97" x="124.557025" y="225.498573" style="stroke: #000000"/>
     <use xlink:href="#me24c2b8c97" x="127.631405" y="228.379172" style="stroke: #000000"/>
     <use xlink:href="#me24c2b8c97" x="130.705785" y="226.21503" style="stroke: #000000"/>
     <use xlink:href="#me24c2b8c97" x="133.780165" y="226.176871" style="stroke: #000000"/>
     <use xlink:href="#me24c2b8c97" x="136.854545" y="229.914411" style="stroke: #000000"/>
     <use xlink:href="#me24c2b8c97" x="139.928926" y="231.950199" style="stroke: #000000"/>
     <use xlink:href="#me24c2b8c97" x="143.003306" y="230.898125" style="stroke: #000000"/>
     <use xlink:href="#me24c2b8c97" x="146.077686" y="227.586849" style="stroke: #000000"/>
     <use xlink:href="#me24c2b8c97" x="149.152066" y="232.464163" style="stroke: #000000"/>
     <use xlink:href="#me24c2b8c97" x="152.226446" y="234.073242" style="stroke: #000000"/>
     <use xlink:href="#me24c2b8c97" x="155.300826" y="225.573283" style="stroke: #000000"/>
     <use xlink:href="#me24c2b8c97" x="158.375207" y="232.007013" style="stroke: #000000"/>
     <use xlink:href="#me24c2b8c97" x="161.449587" y="231.974046" style="stroke: #000000"/>
     <use xlink:href="#me24c2b8c97" x="164.523967" y="230.125262" style="stroke: #000000"/>
     <use xlink:href="#me24c2b8c97" x="167.598347" y="230.494309" style="stroke: #000000"/>
     <use xlink:href="#me24c2b8c97" x="170.672727" y="226.021295" style="stroke: #000000"/>
     <use xlink:href="#me24c2b8c97" x="173.747107" y="235.733153" style="stroke: #000000"/>
     <use xlink:href="#me24c2b8c97" x="176.821488" y="230.215437" style="stroke: #000000"/>
     <use xlink:href="#me24c2b8c97" x="179.895868" y="232.579392" style="stroke: #000000"/>
     <use xlink:href="#me24c2b8c97" x="182.970248" y="226.816804" style="stroke: #000000"/>
     <use xlink:href="#me24c2b8c97" x="186.044628" y="226.121009" style="stroke: #000000"/>
     <use xlink:href="#me24c2b8c97" x="189.119008" y="230.860983" style="stroke: #000000"/>
     <use xlink:href="#me24c2b8c97" x="192.193388" y="228.609462" style="stroke: #000000"/>
     <use xlink:href="#me24c2b8c97" x="195.267769" y="231.748315" style="stroke: #000000"/>
     <use xlink:href="#me24c2b8c97" x="198.342149" y="226.663256" style="stroke: #000000"/>
     <use xlink:href="#me24c2b8c97" x="201.416529" y="234.916075" style="stroke: #000000"/>
     <use xlink:href="#me24c2b8c97" x="204.490909" y="231.23823" style="stroke: #000000"/>
     <use xlink:href="#me24c2b8c97" x="207.565289" y="232.511378" style="stroke: #000000"/>
     <use xlink:href="#me24c2b8c97" x="210.639669" y="231.696107" style="stroke: #000000"/>
     <use xlink:href="#me24c2b8c97" x="213.71405" y="231.487242" style="stroke: #000000"/>
     <use xlink:href="#me24c2b8c97" x="216.78843" y="231.053335" style="stroke: #000000"/>
     <use xlink:href="#me24c2b8c97" x="219.86281" y="230.440855" style="stroke: #000000"/>
     <use xlink:href="#me24c2b8c97" x="222.93719" y="235.041348" style="stroke: #000000"/>
     <use xlink:href="#me24c2b8c97" x="226.01157" y="233.261045" style="stroke: #000000"/>
     <use xlink:href="#me24c2b8c97" x="229.08595" y="233.296048" style="stroke: #000000"/>
     <use xlink:href="#me24c2b8c97" x="232.160331" y="233.924658" style="stroke: #000000"/>
     <use xlink:href="#me24c2b8c97" x="235.234711" y="231.132919" style="stroke: #000000"/>
     <use xlink:href="#me24c2b8c97" x="238.309091" y="234.113396" style="stroke: #000000"/>
     <use xlink:href="#me24c2b8c97" x="241.383471" y="223.415872" style="stroke: #000000"/>
     <use xlink:href="#me24c2b8c97" x="244.457851" y="225.375455" style="stroke: #000000"/>
     <use xlink:href="#me24c2b8c97" x="247.532231" y="236.022206" style="stroke: #000000"/>
     <use xlink:href="#me24c2b8c97" x="250.606612" y="229.9477" style="stroke: #000000"/>
     <use xlink:href="#me24c2b8c97" x="253.680992" y="235.466219" style="stroke: #000000"/>
     <use xlink:href="#me24c2b8c97" x="256.755372" y="235.416008" style="stroke: #000000"/>
     <use xlink:href="#me24c2b8c97" x="259.829752" y="233.599783" style="stroke: #000000"/>
     <use xlink:href="#me24c2b8c97" x="262.904132" y="224.110515" style="stroke: #000000"/>
     <use xlink:href="#me24c2b8c97" x="265.978512" y="234.961939" style="stroke: #000000"/>
     <use xlink:href="#me24c2b8c97" x="269.052893" y="236.688593" style="stroke: #000000"/>
     <use xlink:href="#me24c2b8c97" x="272.127273" y="226.865916" style="stroke: #000000"/>
     <use xlink:href="#me24c2b8c97" x="275.201653" y="227.762023" style="stroke: #000000"/>
     <use xlink:href="#me24c2b8c97" x="278.276033" y="236.262762" style="stroke: #000000"/>
     <use xlink:href="#me24c2b8c97" x="281.350413" y="230.894906" style="stroke: #000000"/>
     <use xlink:href="#me24c2b8c97" x="284.424793" y="226.281492" style="stroke: #000000"/>
     <use xlink:href="#me24c2b8c97" x="287.499174" y="219.69465" style="stroke: #000000"/>
     <use xlink:href="#me24c2b8c97" x="290.573554" y="227.736953" style="stroke: #000000"/>
     <use xlink:href="#me24c2b8c97" x="293.647934" y="231.588861" style="stroke: #000000"/>
     <use xlink:href="#me24c2b8c97" x="296.722314" y="234.171229" style="stroke: #000000"/>
     <use xlink:href="#me24c2b8c97" x="299.796694" y="227.596281" style="stroke: #000000"/>
     <use xlink:href="#me24c2b8c97" x="302.871074" y="239.467827" style="stroke: #000000"/>
     <use xlink:href="#me24c2b8c97" x="305.945455" y="238.625005" style="stroke: #000000"/>
     <use xlink:href="#me24c2b8c97" x="309.019835" y="231.975205" style="stroke: #000000"/>
     <use xlink:href="#me24c2b8c97" x="312.094215" y="228.65147" style="stroke: #000000"/>
     <use xlink:href="#me24c2b8c97" x="315.168595" y="227.279457" style="stroke: #000000"/>
     <use xlink:href="#me24c2b8c97" x="318.242975" y="229.917315" style="stroke: #000000"/>
     <use xlink:href="#me24c2b8c97" x="321.317355" y="233.909627" style="stroke: #000000"/>
     <use xlink:href="#me24c2b8c97" x="324.391736" y="232.606653" style="stroke: #000000"/>
     <use xlink:href="#me24c2b8c97" x="327.466116" y="232.327625" style="stroke: #000000"/>
     <use xlink:href="#me24c2b8c97" x="330.540496" y="222.534104" style="stroke: #000000"/>
     <use xlink:href="#me24c2b8c97" x="333.614876" y="223.410407" style="stroke: #000000"/>
     <use xlink:href="#me24c2b8c97" x="336.689256" y="230.775523" style="stroke: #000000"/>
     <use xlink:href="#me24c2b8c97" x="339.763636" y="236.146541" style="stroke: #000000"/>
     <use xlink:href="#me24c2b8c97" x="342.838017" y="237.224532" style="stroke: #000000"/>
     <use xlink:href="#me24c2b8c97" x="345.912397" y="239.624426" style="stroke: #000000"/>
     <use xlink:href="#me24c2b8c97" x="348.986777" y="242.116364" style="stroke: #000000"/>
     <use xlink:href="#me24c2b8c97" x="352.061157" y="239.578367" style="stroke: #000000"/>
     <use xlink:href="#me24c2b8c97" x="355.135537" y="239.637749" style="stroke: #000000"/>
     <use xlink:href="#me24c2b8c97" x="358.209917" y="236.904006" style="stroke: #000000"/>
     <use xlink:href="#me24c2b8c97" x="361.284298" y="236.327367" style="stroke: #000000"/>
     <use xlink:href="#me24c2b8c97" x="364.358678" y="239.084622" style="stroke: #000000"/>
     <use xlink:href="#me24c2b8c97" x="367.433058" y="238.56031" style="stroke: #000000"/>
     <use xlink:href="#me24c2b8c97" x="370.507438" y="232.484839" style="stroke: #000000"/>
     <use xlink:href="#me24c2b8c97" x="373.581818" y="232.467938" style="stroke: #000000"/>
    </g>
   </g>
   <g id="patch_3">
    <path d="M 54 252 
L 54 34.56 
" style="fill: none; stroke: #000000; stroke-width: 0.8; stroke-linejoin: miter; stroke-linecap: square"/>
   </g>
   <g id="patch_4">
    <path d="M 388.8 252 
L 388.8 34.56 
" style="fill: none; stroke: #000000; stroke-width: 0.8; stroke-linejoin: miter; stroke-linecap: square"/>
   </g>
   <g id="patch_5">
    <path d="M 54 252 
L 388.8 252 
" style="fill: none; stroke: #000000; stroke-width: 0.8; stroke-linejoin: miter; stroke-linecap: square"/>
   </g>
   <g id="patch_6">
    <path d="M 54 34.56 
L 388.8 34.56 
" style="fill: none; stroke: #000000; stroke-width: 0.8; stroke-linejoin: miter; stroke-linecap: square"/>
   </g>
   <g id="legend_1">
    <g id="patch_7">
     <path d="M 294.9 188.814375 
L 381.8 188.814375 
Q 383.8 188.814375 383.8 186.814375 
L 383.8 99.745625 
Q 383.8 97.745625 381.8 97.745625 
L 294.9 97.745625 
Q 292.9 97.745625 292.9 99.745625 
L 292.9 186.814375 
Q 292.9 188.814375 294.9 188.814375 
z
" style="fill: #ffffff; opacity: 0.8; stroke: #cccccc; stroke-linejoin: miter"/>
    </g>
    <g id="line2d_28">
     <path d="M 296.9 105.844063 
L 306.9 105.844063 
L 316.9 105.844063 
" style="fill: none; stroke: #000000; stroke-width: 1.5; stroke-linecap: square"/>
    </g>
    <g id="text_11">
     <!-- $2^{7}$ actions -->
     <g transform="translate(324.9 109.344063)scale(0.1 -0.1)">
      <defs>
       <path id="DejaVuSans-37" d="M 525 4666 
L 3525 4666 
L 3525 4397 
L 1831 0 
L 1172 0 
L 2766 4134 
L 525 4134 
L 525 4666 
z
" transform="scale(0.015625)"/>
       <path id="DejaVuSans-20" transform="scale(0.015625)"/>
       <path id="DejaVuSans-63" d="M 3122 3366 
L 3122 2828 
Q 2878 2963 2633 3030 
Q 2388 3097 2138 3097 
Q 1578 3097 1268 2742 
Q 959 2388 959 1747 
Q 959 1106 1268 751 
Q 1578 397 2138 397 
Q 2388 397 2633 464 
Q 2878 531 3122 666 
L 3122 134 
Q 2881 22 2623 -34 
Q 2366 -91 2075 -91 
Q 1284 -91 818 406 
Q 353 903 353 1747 
Q 353 2603 823 3093 
Q 1294 3584 2113 3584 
Q 2378 3584 2631 3529 
Q 2884 3475 3122 3366 
z
" transform="scale(0.015625)"/>
      </defs>
      <use xlink:href="#DejaVuSans-32" transform="translate(0 0.684375)"/>
      <use xlink:href="#DejaVuSans-37" transform="translate(64.580078 38.965625)scale(0.7)"/>
      <use xlink:href="#DejaVuSans-20" transform="translate(111.850586 0.684375)"/>
      <use xlink:href="#DejaVuSans-61" transform="translate(143.637695 0.684375)"/>
      <use xlink:href="#DejaVuSans-63" transform="translate(204.916992 0.684375)"/>
      <use xlink:href="#DejaVuSans-74" transform="translate(259.897461 0.684375)"/>
      <use xlink:href="#DejaVuSans-69" transform="translate(299.106445 0.684375)"/>
      <use xlink:href="#DejaVuSans-6f" transform="translate(326.889648 0.684375)"/>
      <use xlink:href="#DejaVuSans-6e" transform="translate(388.071289 0.684375)"/>
      <use xlink:href="#DejaVuSans-73" transform="translate(451.450195 0.684375)"/>
     </g>
    </g>
    <g id="line2d_29">
     <path d="M 296.9 120.522188 
L 306.9 120.522188 
L 316.9 120.522188 
" style="fill: none; stroke-dasharray: 5.55,2.4; stroke-dashoffset: 0; stroke: #000000; stroke-width: 1.5"/>
    </g>
    <g id="text_12">
     <!-- $2^{8}$ actions -->
     <g transform="translate(324.9 124.022188)scale(0.1 -0.1)">
      <use xlink:href="#DejaVuSans-32" transform="translate(0 0.765625)"/>
      <use xlink:href="#DejaVuSans-38" transform="translate(64.580078 39.046875)scale(0.7)"/>
      <use xlink:href="#DejaVuSans-20" transform="translate(111.850586 0.765625)"/>
      <use xlink:href="#DejaVuSans-61" transform="translate(143.637695 0.765625)"/>
      <use xlink:href="#DejaVuSans-63" transform="translate(204.916992 0.765625)"/>
      <use xlink:href="#DejaVuSans-74" transform="translate(259.897461 0.765625)"/>
      <use xlink:href="#DejaVuSans-69" transform="translate(299.106445 0.765625)"/>
      <use xlink:href="#DejaVuSans-6f" transform="translate(326.889648 0.765625)"/>
      <use xlink:href="#DejaVuSans-6e" transform="translate(388.071289 0.765625)"/>
      <use xlink:href="#DejaVuSans-73" transform="translate(451.450195 0.765625)"/>
     </g>
    </g>
    <g id="line2d_30">
     <path d="M 296.9 135.200312 
L 306.9 135.200312 
L 316.9 135.200312 
" style="fill: none; stroke-dasharray: 1.5,2.475; stroke-dashoffset: 0; stroke: #000000; stroke-width: 1.5"/>
    </g>
    <g id="text_13">
     <!-- $2^{9}$ actions -->
     <g transform="translate(324.9 138.700312)scale(0.1 -0.1)">
      <defs>
       <path id="DejaVuSans-39" d="M 703 97 
L 703 672 
Q 941 559 1184 500 
Q 1428 441 1663 441 
Q 2288 441 2617 861 
Q 2947 1281 2994 2138 
Q 2813 1869 2534 1725 
Q 2256 1581 1919 1581 
Q 1219 1581 811 2004 
Q 403 2428 403 3163 
Q 403 3881 828 4315 
Q 1253 4750 1959 4750 
Q 2769 4750 3195 4129 
Q 3622 3509 3622 2328 
Q 3622 1225 3098 567 
Q 2575 -91 1691 -91 
Q 1453 -91 1209 -44 
Q 966 3 703 97 
z
M 1959 2075 
Q 2384 2075 2632 2365 
Q 2881 2656 2881 3163 
Q 2881 3666 2632 3958 
Q 2384 4250 1959 4250 
Q 1534 4250 1286 3958 
Q 1038 3666 1038 3163 
Q 1038 2656 1286 2365 
Q 1534 2075 1959 2075 
z
" transform="scale(0.015625)"/>
      </defs>
      <use xlink:href="#DejaVuSans-32" transform="translate(0 0.765625)"/>
      <use xlink:href="#DejaVuSans-39" transform="translate(64.580078 39.046875)scale(0.7)"/>
      <use xlink:href="#DejaVuSans-20" transform="translate(111.850586 0.765625)"/>
      <use xlink:href="#DejaVuSans-61" transform="translate(143.637695 0.765625)"/>
      <use xlink:href="#DejaVuSans-63" transform="translate(204.916992 0.765625)"/>
      <use xlink:href="#DejaVuSans-74" transform="translate(259.897461 0.765625)"/>
      <use xlink:href="#DejaVuSans-69" transform="translate(299.106445 0.765625)"/>
      <use xlink:href="#DejaVuSans-6f" transform="translate(326.889648 0.765625)"/>
      <use xlink:href="#DejaVuSans-6e" transform="translate(388.071289 0.765625)"/>
      <use xlink:href="#DejaVuSans-73" transform="translate(451.450195 0.765625)"/>
     </g>
    </g>
    <g id="line2d_31">
     <path d="M 296.9 149.878438 
L 306.9 149.878438 
L 316.9 149.878438 
" style="fill: none; stroke-dasharray: 9.6,2.4,1.5,2.4; stroke-dashoffset: 0; stroke: #000000; stroke-width: 1.5"/>
    </g>
    <g id="text_14">
     <!-- $2^{10}$ actions -->
     <g transform="translate(324.9 153.378438)scale(0.1 -0.1)">
      <use xlink:href="#DejaVuSans-32" transform="translate(0 0.765625)"/>
      <use xlink:href="#DejaVuSans-31" transform="translate(64.580078 39.046875)scale(0.7)"/>
      <use xlink:href="#DejaVuSans-30" transform="translate(109.116211 39.046875)scale(0.7)"/>
      <use xlink:href="#DejaVuSans-20" transform="translate(156.386719 0.765625)"/>
      <use xlink:href="#DejaVuSans-61" transform="translate(188.173828 0.765625)"/>
      <use xlink:href="#DejaVuSans-63" transform="translate(249.453125 0.765625)"/>
      <use xlink:href="#DejaVuSans-74" transform="translate(304.433594 0.765625)"/>
      <use xlink:href="#DejaVuSans-69" transform="translate(343.642578 0.765625)"/>
      <use xlink:href="#DejaVuSans-6f" transform="translate(371.425781 0.765625)"/>
      <use xlink:href="#DejaVuSans-6e" transform="translate(432.607422 0.765625)"/>
      <use xlink:href="#DejaVuSans-73" transform="translate(495.986328 0.765625)"/>
     </g>
    </g>
    <g id="line2d_32">
     <path d="M 296.9 164.556563 
L 306.9 164.556563 
L 316.9 164.556563 
" style="fill: none; stroke: #000000; stroke-width: 1.5; stroke-linecap: square"/>
     <g>
      <use xlink:href="#me24c2b8c97" x="306.9" y="164.556563" style="stroke: #000000"/>
     </g>
    </g>
    <g id="text_15">
     <!-- $2^{11}$ actions -->
     <g transform="translate(324.9 168.056563)scale(0.1 -0.1)">
      <use xlink:href="#DejaVuSans-32" transform="translate(0 0.684375)"/>
      <use xlink:href="#DejaVuSans-31" transform="translate(64.580078 38.965625)scale(0.7)"/>
      <use xlink:href="#DejaVuSans-31" transform="translate(109.116211 38.965625)scale(0.7)"/>
      <use xlink:href="#DejaVuSans-20" transform="translate(156.386719 0.684375)"/>
      <use xlink:href="#DejaVuSans-61" transform="translate(188.173828 0.684375)"/>
      <use xlink:href="#DejaVuSans-63" transform="translate(249.453125 0.684375)"/>
      <use xlink:href="#DejaVuSans-74" transform="translate(304.433594 0.684375)"/>
      <use xlink:href="#DejaVuSans-69" transform="translate(343.642578 0.684375)"/>
      <use xlink:href="#DejaVuSans-6f" transform="translate(371.425781 0.684375)"/>
      <use xlink:href="#DejaVuSans-6e" transform="translate(432.607422 0.684375)"/>
      <use xlink:href="#DejaVuSans-73" transform="translate(495.986328 0.684375)"/>
     </g>
    </g>
    <g id="line2d_33">
     <path d="M 296.9 179.234688 
L 306.9 179.234688 
L 316.9 179.234688 
" style="fill: none; stroke-dasharray: 5.55,2.4; stroke-dashoffset: 0; stroke: #000000; stroke-width: 1.5"/>
     <g>
      <use xlink:href="#me24c2b8c97" x="306.9" y="179.234688" style="stroke: #000000"/>
     </g>
    </g>
    <g id="text_16">
     <!-- $2^{12}$ actions -->
     <g transform="translate(324.9 182.734688)scale(0.1 -0.1)">
      <use xlink:href="#DejaVuSans-32" transform="translate(0 0.765625)"/>
      <use xlink:href="#DejaVuSans-31" transform="translate(64.580078 39.046875)scale(0.7)"/>
      <use xlink:href="#DejaVuSans-32" transform="translate(109.116211 39.046875)scale(0.7)"/>
      <use xlink:href="#DejaVuSans-20" transform="translate(156.386719 0.765625)"/>
      <use xlink:href="#DejaVuSans-61" transform="translate(188.173828 0.765625)"/>
      <use xlink:href="#DejaVuSans-63" transform="translate(249.453125 0.765625)"/>
      <use xlink:href="#DejaVuSans-74" transform="translate(304.433594 0.765625)"/>
      <use xlink:href="#DejaVuSans-69" transform="translate(343.642578 0.765625)"/>
      <use xlink:href="#DejaVuSans-6f" transform="translate(371.425781 0.765625)"/>
      <use xlink:href="#DejaVuSans-6e" transform="translate(432.607422 0.765625)"/>
      <use xlink:href="#DejaVuSans-73" transform="translate(495.986328 0.765625)"/>
     </g>
    </g>
   </g>
  </g>
 </g>
 <defs>
  <clipPath id="p3b721f1052">
   <rect x="54" y="34.56" width="334.8" height="217.44"/>
  </clipPath>
 </defs>
</svg>
