<?xml version="1.0" encoding="utf-8" standalone="no"?>
<!DOCTYPE svg PUBLIC "-//W3C//DTD SVG 1.1//EN"
  "http://www.w3.org/Graphics/SVG/1.1/DTD/svg11.dtd">
<svg xmlns:xlink="http://www.w3.org/1999/xlink" width="432pt" height="288pt" viewBox="0 0 432 288" xmlns="http://www.w3.org/2000/svg" version="1.1">
 <metadata>
  <rdf:RDF xmlns:dc="http://purl.org/dc/elements/1.1/" xmlns:cc="http://creativecommons.org/ns#" xmlns:rdf="http://www.w3.org/1999/02/22-rdf-syntax-ns#">
   <cc:Work>
    <dc:type rdf:resource="http://purl.org/dc/dcmitype/StillImage"/>
    <dc:date>2023-05-29T17:30:31.718917</dc:date>
    <dc:format>image/svg+xml</dc:format>
    <dc:creator>
     <cc:Agent>
      <dc:title>Matplotlib v3.5.1, https://matplotlib.org/</dc:title>
     </cc:Agent>
    </dc:creator>
   </cc:Work>
  </rdf:RDF>
 </metadata>
 <defs>
  <style type="text/css">*{stroke-linejoin: round; stroke-linecap: butt}</style>
 </defs>
 <g id="figure_1">
  <g id="patch_1">
   <path d="M 0 288 
L 432 288 
L 432 0 
L 0 0 
L 0 288 
z
" style="fill: none"/>
  </g>
  <g id="axes_1">
   <g id="patch_2">
    <path d="M 54 252 
L 388.8 252 
L 388.8 34.56 
L 54 34.56 
z
" style="fill: #ffffff"/>
   </g>
   <g id="matplotlib.axis_1">
    <g id="xtick_1">
     <g id="line2d_1">
      <defs>
       <path id="m73cc840e1b" d="M 0 0 
L 0 3.5 
" style="stroke: #000000; stroke-width: 0.8"/>
      </defs>
      <g>
       <use xlink:href="#m73cc840e1b" x="66.143802" y="252" style="stroke: #000000; stroke-width: 0.8"/>
      </g>
     </g>
     <g id="text_1">
      <!-- 0 -->
      <g transform="translate(62.962552 266.598437)scale(0.1 -0.1)">
       <defs>
        <path id="DejaVuSans-30" d="M 2034 4250 
Q 1547 4250 1301 3770 
Q 1056 3291 1056 2328 
Q 1056 1369 1301 889 
Q 1547 409 2034 409 
Q 2525 409 2770 889 
Q 3016 1369 3016 2328 
Q 3016 3291 2770 3770 
Q 2525 4250 2034 4250 
z
M 2034 4750 
Q 2819 4750 3233 4129 
Q 3647 3509 3647 2328 
Q 3647 1150 3233 529 
Q 2819 -91 2034 -91 
Q 1250 -91 836 529 
Q 422 1150 422 2328 
Q 422 3509 836 4129 
Q 1250 4750 2034 4750 
z
" transform="scale(0.015625)"/>
       </defs>
       <use xlink:href="#DejaVuSans-30"/>
      </g>
     </g>
    </g>
    <g id="xtick_2">
     <g id="line2d_2">
      <g>
       <use xlink:href="#m73cc840e1b" x="127.631405" y="252" style="stroke: #000000; stroke-width: 0.8"/>
      </g>
     </g>
     <g id="text_2">
      <!-- 2000 -->
      <g transform="translate(114.906405 266.598437)scale(0.1 -0.1)">
       <defs>
        <path id="DejaVuSans-32" d="M 1228 531 
L 3431 531 
L 3431 0 
L 469 0 
L 469 531 
Q 828 903 1448 1529 
Q 2069 2156 2228 2338 
Q 2531 2678 2651 2914 
Q 2772 3150 2772 3378 
Q 2772 3750 2511 3984 
Q 2250 4219 1831 4219 
Q 1534 4219 1204 4116 
Q 875 4013 500 3803 
L 500 4441 
Q 881 4594 1212 4672 
Q 1544 4750 1819 4750 
Q 2544 4750 2975 4387 
Q 3406 4025 3406 3419 
Q 3406 3131 3298 2873 
Q 3191 2616 2906 2266 
Q 2828 2175 2409 1742 
Q 1991 1309 1228 531 
z
" transform="scale(0.015625)"/>
       </defs>
       <use xlink:href="#DejaVuSans-32"/>
       <use xlink:href="#DejaVuSans-30" x="63.623047"/>
       <use xlink:href="#DejaVuSans-30" x="127.246094"/>
       <use xlink:href="#DejaVuSans-30" x="190.869141"/>
      </g>
     </g>
    </g>
    <g id="xtick_3">
     <g id="line2d_3">
      <g>
       <use xlink:href="#m73cc840e1b" x="189.119008" y="252" style="stroke: #000000; stroke-width: 0.8"/>
      </g>
     </g>
     <g id="text_3">
      <!-- 4000 -->
      <g transform="translate(176.394008 266.598437)scale(0.1 -0.1)">
       <defs>
        <path id="DejaVuSans-34" d="M 2419 4116 
L 825 1625 
L 2419 1625 
L 2419 4116 
z
M 2253 4666 
L 3047 4666 
L 3047 1625 
L 3713 1625 
L 3713 1100 
L 3047 1100 
L 3047 0 
L 2419 0 
L 2419 1100 
L 313 1100 
L 313 1709 
L 2253 4666 
z
" transform="scale(0.015625)"/>
       </defs>
       <use xlink:href="#DejaVuSans-34"/>
       <use xlink:href="#DejaVuSans-30" x="63.623047"/>
       <use xlink:href="#DejaVuSans-30" x="127.246094"/>
       <use xlink:href="#DejaVuSans-30" x="190.869141"/>
      </g>
     </g>
    </g>
    <g id="xtick_4">
     <g id="line2d_4">
      <g>
       <use xlink:href="#m73cc840e1b" x="250.606612" y="252" style="stroke: #000000; stroke-width: 0.8"/>
      </g>
     </g>
     <g id="text_4">
      <!-- 6000 -->
      <g transform="translate(237.881612 266.598437)scale(0.1 -0.1)">
       <defs>
        <path id="DejaVuSans-36" d="M 2113 2584 
Q 1688 2584 1439 2293 
Q 1191 2003 1191 1497 
Q 1191 994 1439 701 
Q 1688 409 2113 409 
Q 2538 409 2786 701 
Q 3034 994 3034 1497 
Q 3034 2003 2786 2293 
Q 2538 2584 2113 2584 
z
M 3366 4563 
L 3366 3988 
Q 3128 4100 2886 4159 
Q 2644 4219 2406 4219 
Q 1781 4219 1451 3797 
Q 1122 3375 1075 2522 
Q 1259 2794 1537 2939 
Q 1816 3084 2150 3084 
Q 2853 3084 3261 2657 
Q 3669 2231 3669 1497 
Q 3669 778 3244 343 
Q 2819 -91 2113 -91 
Q 1303 -91 875 529 
Q 447 1150 447 2328 
Q 447 3434 972 4092 
Q 1497 4750 2381 4750 
Q 2619 4750 2861 4703 
Q 3103 4656 3366 4563 
z
" transform="scale(0.015625)"/>
       </defs>
       <use xlink:href="#DejaVuSans-36"/>
       <use xlink:href="#DejaVuSans-30" x="63.623047"/>
       <use xlink:href="#DejaVuSans-30" x="127.246094"/>
       <use xlink:href="#DejaVuSans-30" x="190.869141"/>
      </g>
     </g>
    </g>
    <g id="xtick_5">
     <g id="line2d_5">
      <g>
       <use xlink:href="#m73cc840e1b" x="312.094215" y="252" style="stroke: #000000; stroke-width: 0.8"/>
      </g>
     </g>
     <g id="text_5">
      <!-- 8000 -->
      <g transform="translate(299.369215 266.598437)scale(0.1 -0.1)">
       <defs>
        <path id="DejaVuSans-38" d="M 2034 2216 
Q 1584 2216 1326 1975 
Q 1069 1734 1069 1313 
Q 1069 891 1326 650 
Q 1584 409 2034 409 
Q 2484 409 2743 651 
Q 3003 894 3003 1313 
Q 3003 1734 2745 1975 
Q 2488 2216 2034 2216 
z
M 1403 2484 
Q 997 2584 770 2862 
Q 544 3141 544 3541 
Q 544 4100 942 4425 
Q 1341 4750 2034 4750 
Q 2731 4750 3128 4425 
Q 3525 4100 3525 3541 
Q 3525 3141 3298 2862 
Q 3072 2584 2669 2484 
Q 3125 2378 3379 2068 
Q 3634 1759 3634 1313 
Q 3634 634 3220 271 
Q 2806 -91 2034 -91 
Q 1263 -91 848 271 
Q 434 634 434 1313 
Q 434 1759 690 2068 
Q 947 2378 1403 2484 
z
M 1172 3481 
Q 1172 3119 1398 2916 
Q 1625 2713 2034 2713 
Q 2441 2713 2670 2916 
Q 2900 3119 2900 3481 
Q 2900 3844 2670 4047 
Q 2441 4250 2034 4250 
Q 1625 4250 1398 4047 
Q 1172 3844 1172 3481 
z
" transform="scale(0.015625)"/>
       </defs>
       <use xlink:href="#DejaVuSans-38"/>
       <use xlink:href="#DejaVuSans-30" x="63.623047"/>
       <use xlink:href="#DejaVuSans-30" x="127.246094"/>
       <use xlink:href="#DejaVuSans-30" x="190.869141"/>
      </g>
     </g>
    </g>
    <g id="xtick_6">
     <g id="line2d_6">
      <g>
       <use xlink:href="#m73cc840e1b" x="373.581818" y="252" style="stroke: #000000; stroke-width: 0.8"/>
      </g>
     </g>
     <g id="text_6">
      <!-- 10000 -->
      <g transform="translate(357.675568 266.598437)scale(0.1 -0.1)">
       <defs>
        <path id="DejaVuSans-31" d="M 794 531 
L 1825 531 
L 1825 4091 
L 703 3866 
L 703 4441 
L 1819 4666 
L 2450 4666 
L 2450 531 
L 3481 531 
L 3481 0 
L 794 0 
L 794 531 
z
" transform="scale(0.015625)"/>
       </defs>
       <use xlink:href="#DejaVuSans-31"/>
       <use xlink:href="#DejaVuSans-30" x="63.623047"/>
       <use xlink:href="#DejaVuSans-30" x="127.246094"/>
       <use xlink:href="#DejaVuSans-30" x="190.869141"/>
       <use xlink:href="#DejaVuSans-30" x="254.492188"/>
      </g>
     </g>
    </g>
    <g id="text_7">
     <!-- iterations -->
     <g transform="translate(197.672656 280.276563)scale(0.1 -0.1)">
      <defs>
       <path id="DejaVuSans-69" d="M 603 3500 
L 1178 3500 
L 1178 0 
L 603 0 
L 603 3500 
z
M 603 4863 
L 1178 4863 
L 1178 4134 
L 603 4134 
L 603 4863 
z
" transform="scale(0.015625)"/>
       <path id="DejaVuSans-74" d="M 1172 4494 
L 1172 3500 
L 2356 3500 
L 2356 3053 
L 1172 3053 
L 1172 1153 
Q 1172 725 1289 603 
Q 1406 481 1766 481 
L 2356 481 
L 2356 0 
L 1766 0 
Q 1100 0 847 248 
Q 594 497 594 1153 
L 594 3053 
L 172 3053 
L 172 3500 
L 594 3500 
L 594 4494 
L 1172 4494 
z
" transform="scale(0.015625)"/>
       <path id="DejaVuSans-65" d="M 3597 1894 
L 3597 1613 
L 953 1613 
Q 991 1019 1311 708 
Q 1631 397 2203 397 
Q 2534 397 2845 478 
Q 3156 559 3463 722 
L 3463 178 
Q 3153 47 2828 -22 
Q 2503 -91 2169 -91 
Q 1331 -91 842 396 
Q 353 884 353 1716 
Q 353 2575 817 3079 
Q 1281 3584 2069 3584 
Q 2775 3584 3186 3129 
Q 3597 2675 3597 1894 
z
M 3022 2063 
Q 3016 2534 2758 2815 
Q 2500 3097 2075 3097 
Q 1594 3097 1305 2825 
Q 1016 2553 972 2059 
L 3022 2063 
z
" transform="scale(0.015625)"/>
       <path id="DejaVuSans-72" d="M 2631 2963 
Q 2534 3019 2420 3045 
Q 2306 3072 2169 3072 
Q 1681 3072 1420 2755 
Q 1159 2438 1159 1844 
L 1159 0 
L 581 0 
L 581 3500 
L 1159 3500 
L 1159 2956 
Q 1341 3275 1631 3429 
Q 1922 3584 2338 3584 
Q 2397 3584 2469 3576 
Q 2541 3569 2628 3553 
L 2631 2963 
z
" transform="scale(0.015625)"/>
       <path id="DejaVuSans-61" d="M 2194 1759 
Q 1497 1759 1228 1600 
Q 959 1441 959 1056 
Q 959 750 1161 570 
Q 1363 391 1709 391 
Q 2188 391 2477 730 
Q 2766 1069 2766 1631 
L 2766 1759 
L 2194 1759 
z
M 3341 1997 
L 3341 0 
L 2766 0 
L 2766 531 
Q 2569 213 2275 61 
Q 1981 -91 1556 -91 
Q 1019 -91 701 211 
Q 384 513 384 1019 
Q 384 1609 779 1909 
Q 1175 2209 1959 2209 
L 2766 2209 
L 2766 2266 
Q 2766 2663 2505 2880 
Q 2244 3097 1772 3097 
Q 1472 3097 1187 3025 
Q 903 2953 641 2809 
L 641 3341 
Q 956 3463 1253 3523 
Q 1550 3584 1831 3584 
Q 2591 3584 2966 3190 
Q 3341 2797 3341 1997 
z
" transform="scale(0.015625)"/>
       <path id="DejaVuSans-6f" d="M 1959 3097 
Q 1497 3097 1228 2736 
Q 959 2375 959 1747 
Q 959 1119 1226 758 
Q 1494 397 1959 397 
Q 2419 397 2687 759 
Q 2956 1122 2956 1747 
Q 2956 2369 2687 2733 
Q 2419 3097 1959 3097 
z
M 1959 3584 
Q 2709 3584 3137 3096 
Q 3566 2609 3566 1747 
Q 3566 888 3137 398 
Q 2709 -91 1959 -91 
Q 1206 -91 779 398 
Q 353 888 353 1747 
Q 353 2609 779 3096 
Q 1206 3584 1959 3584 
z
" transform="scale(0.015625)"/>
       <path id="DejaVuSans-6e" d="M 3513 2113 
L 3513 0 
L 2938 0 
L 2938 2094 
Q 2938 2591 2744 2837 
Q 2550 3084 2163 3084 
Q 1697 3084 1428 2787 
Q 1159 2491 1159 1978 
L 1159 0 
L 581 0 
L 581 3500 
L 1159 3500 
L 1159 2956 
Q 1366 3272 1645 3428 
Q 1925 3584 2291 3584 
Q 2894 3584 3203 3211 
Q 3513 2838 3513 2113 
z
" transform="scale(0.015625)"/>
       <path id="DejaVuSans-73" d="M 2834 3397 
L 2834 2853 
Q 2591 2978 2328 3040 
Q 2066 3103 1784 3103 
Q 1356 3103 1142 2972 
Q 928 2841 928 2578 
Q 928 2378 1081 2264 
Q 1234 2150 1697 2047 
L 1894 2003 
Q 2506 1872 2764 1633 
Q 3022 1394 3022 966 
Q 3022 478 2636 193 
Q 2250 -91 1575 -91 
Q 1294 -91 989 -36 
Q 684 19 347 128 
L 347 722 
Q 666 556 975 473 
Q 1284 391 1588 391 
Q 1994 391 2212 530 
Q 2431 669 2431 922 
Q 2431 1156 2273 1281 
Q 2116 1406 1581 1522 
L 1381 1569 
Q 847 1681 609 1914 
Q 372 2147 372 2553 
Q 372 3047 722 3315 
Q 1072 3584 1716 3584 
Q 2034 3584 2315 3537 
Q 2597 3491 2834 3397 
z
" transform="scale(0.015625)"/>
      </defs>
      <use xlink:href="#DejaVuSans-69"/>
      <use xlink:href="#DejaVuSans-74" x="27.783203"/>
      <use xlink:href="#DejaVuSans-65" x="66.992188"/>
      <use xlink:href="#DejaVuSans-72" x="128.515625"/>
      <use xlink:href="#DejaVuSans-61" x="169.628906"/>
      <use xlink:href="#DejaVuSans-74" x="230.908203"/>
      <use xlink:href="#DejaVuSans-69" x="270.117188"/>
      <use xlink:href="#DejaVuSans-6f" x="297.900391"/>
      <use xlink:href="#DejaVuSans-6e" x="359.082031"/>
      <use xlink:href="#DejaVuSans-73" x="422.460938"/>
     </g>
    </g>
   </g>
   <g id="matplotlib.axis_2">
    <g id="ytick_1">
     <g id="line2d_7">
      <defs>
       <path id="m30f68d62a1" d="M 0 0 
L -3.5 0 
" style="stroke: #000000; stroke-width: 0.8"/>
      </defs>
      <g>
       <use xlink:href="#m30f68d62a1" x="54" y="183.147395" style="stroke: #000000; stroke-width: 0.8"/>
      </g>
     </g>
     <g id="text_8">
      <!-- $\mathdefault{10^{-3}}$ -->
      <g transform="translate(23.5 186.946614)scale(0.1 -0.1)">
       <defs>
        <path id="DejaVuSans-2212" d="M 678 2272 
L 4684 2272 
L 4684 1741 
L 678 1741 
L 678 2272 
z
" transform="scale(0.015625)"/>
        <path id="DejaVuSans-33" d="M 2597 2516 
Q 3050 2419 3304 2112 
Q 3559 1806 3559 1356 
Q 3559 666 3084 287 
Q 2609 -91 1734 -91 
Q 1441 -91 1130 -33 
Q 819 25 488 141 
L 488 750 
Q 750 597 1062 519 
Q 1375 441 1716 441 
Q 2309 441 2620 675 
Q 2931 909 2931 1356 
Q 2931 1769 2642 2001 
Q 2353 2234 1838 2234 
L 1294 2234 
L 1294 2753 
L 1863 2753 
Q 2328 2753 2575 2939 
Q 2822 3125 2822 3475 
Q 2822 3834 2567 4026 
Q 2313 4219 1838 4219 
Q 1578 4219 1281 4162 
Q 984 4106 628 3988 
L 628 4550 
Q 988 4650 1302 4700 
Q 1616 4750 1894 4750 
Q 2613 4750 3031 4423 
Q 3450 4097 3450 3541 
Q 3450 3153 3228 2886 
Q 3006 2619 2597 2516 
z
" transform="scale(0.015625)"/>
       </defs>
       <use xlink:href="#DejaVuSans-31" transform="translate(0 0.765625)"/>
       <use xlink:href="#DejaVuSans-30" transform="translate(63.623047 0.765625)"/>
       <use xlink:href="#DejaVuSans-2212" transform="translate(128.203125 39.046875)scale(0.7)"/>
       <use xlink:href="#DejaVuSans-33" transform="translate(186.855469 39.046875)scale(0.7)"/>
      </g>
     </g>
    </g>
    <g id="ytick_2">
     <g id="line2d_8">
      <g>
       <use xlink:href="#m30f68d62a1" x="54" y="48.531223" style="stroke: #000000; stroke-width: 0.8"/>
      </g>
     </g>
     <g id="text_9">
      <!-- $\mathdefault{10^{-2}}$ -->
      <g transform="translate(23.5 52.330442)scale(0.1 -0.1)">
       <use xlink:href="#DejaVuSans-31" transform="translate(0 0.765625)"/>
       <use xlink:href="#DejaVuSans-30" transform="translate(63.623047 0.765625)"/>
       <use xlink:href="#DejaVuSans-2212" transform="translate(128.203125 39.046875)scale(0.7)"/>
       <use xlink:href="#DejaVuSans-32" transform="translate(186.855469 39.046875)scale(0.7)"/>
      </g>
     </g>
    </g>
    <g id="ytick_3">
     <g id="line2d_9">
      <defs>
       <path id="m17a1383a4a" d="M 0 0 
L -2 0 
" style="stroke: #000000; stroke-width: 0.6"/>
      </defs>
      <g>
       <use xlink:href="#m17a1383a4a" x="54" y="236.716555" style="stroke: #000000; stroke-width: 0.6"/>
      </g>
     </g>
    </g>
    <g id="ytick_4">
     <g id="line2d_10">
      <g>
       <use xlink:href="#m17a1383a4a" x="54" y="223.6709" style="stroke: #000000; stroke-width: 0.6"/>
      </g>
     </g>
    </g>
    <g id="ytick_5">
     <g id="line2d_11">
      <g>
       <use xlink:href="#m17a1383a4a" x="54" y="213.011824" style="stroke: #000000; stroke-width: 0.6"/>
      </g>
     </g>
    </g>
    <g id="ytick_6">
     <g id="line2d_12">
      <g>
       <use xlink:href="#m17a1383a4a" x="54" y="203.999704" style="stroke: #000000; stroke-width: 0.6"/>
      </g>
     </g>
    </g>
    <g id="ytick_7">
     <g id="line2d_13">
      <g>
       <use xlink:href="#m17a1383a4a" x="54" y="196.19305" style="stroke: #000000; stroke-width: 0.6"/>
      </g>
     </g>
    </g>
    <g id="ytick_8">
     <g id="line2d_14">
      <g>
       <use xlink:href="#m17a1383a4a" x="54" y="189.307093" style="stroke: #000000; stroke-width: 0.6"/>
      </g>
     </g>
    </g>
    <g id="ytick_9">
     <g id="line2d_15">
      <g>
       <use xlink:href="#m17a1383a4a" x="54" y="142.623889" style="stroke: #000000; stroke-width: 0.6"/>
      </g>
     </g>
    </g>
    <g id="ytick_10">
     <g id="line2d_16">
      <g>
       <use xlink:href="#m17a1383a4a" x="54" y="118.919158" style="stroke: #000000; stroke-width: 0.6"/>
      </g>
     </g>
    </g>
    <g id="ytick_11">
     <g id="line2d_17">
      <g>
       <use xlink:href="#m17a1383a4a" x="54" y="102.100384" style="stroke: #000000; stroke-width: 0.6"/>
      </g>
     </g>
    </g>
    <g id="ytick_12">
     <g id="line2d_18">
      <g>
       <use xlink:href="#m17a1383a4a" x="54" y="89.054729" style="stroke: #000000; stroke-width: 0.6"/>
      </g>
     </g>
    </g>
    <g id="ytick_13">
     <g id="line2d_19">
      <g>
       <use xlink:href="#m17a1383a4a" x="54" y="78.395653" style="stroke: #000000; stroke-width: 0.6"/>
      </g>
     </g>
    </g>
    <g id="ytick_14">
     <g id="line2d_20">
      <g>
       <use xlink:href="#m17a1383a4a" x="54" y="69.383532" style="stroke: #000000; stroke-width: 0.6"/>
      </g>
     </g>
    </g>
    <g id="ytick_15">
     <g id="line2d_21">
      <g>
       <use xlink:href="#m17a1383a4a" x="54" y="61.576878" style="stroke: #000000; stroke-width: 0.6"/>
      </g>
     </g>
    </g>
    <g id="ytick_16">
     <g id="line2d_22">
      <g>
       <use xlink:href="#m17a1383a4a" x="54" y="54.690922" style="stroke: #000000; stroke-width: 0.6"/>
      </g>
     </g>
    </g>
    <g id="text_10">
     <!-- NashConv -->
     <g transform="translate(17.420312 168.537031)rotate(-90)scale(0.1 -0.1)">
      <defs>
       <path id="DejaVuSans-4e" d="M 628 4666 
L 1478 4666 
L 3547 763 
L 3547 4666 
L 4159 4666 
L 4159 0 
L 3309 0 
L 1241 3903 
L 1241 0 
L 628 0 
L 628 4666 
z
" transform="scale(0.015625)"/>
       <path id="DejaVuSans-68" d="M 3513 2113 
L 3513 0 
L 2938 0 
L 2938 2094 
Q 2938 2591 2744 2837 
Q 2550 3084 2163 3084 
Q 1697 3084 1428 2787 
Q 1159 2491 1159 1978 
L 1159 0 
L 581 0 
L 581 4863 
L 1159 4863 
L 1159 2956 
Q 1366 3272 1645 3428 
Q 1925 3584 2291 3584 
Q 2894 3584 3203 3211 
Q 3513 2838 3513 2113 
z
" transform="scale(0.015625)"/>
       <path id="DejaVuSans-43" d="M 4122 4306 
L 4122 3641 
Q 3803 3938 3442 4084 
Q 3081 4231 2675 4231 
Q 1875 4231 1450 3742 
Q 1025 3253 1025 2328 
Q 1025 1406 1450 917 
Q 1875 428 2675 428 
Q 3081 428 3442 575 
Q 3803 722 4122 1019 
L 4122 359 
Q 3791 134 3420 21 
Q 3050 -91 2638 -91 
Q 1578 -91 968 557 
Q 359 1206 359 2328 
Q 359 3453 968 4101 
Q 1578 4750 2638 4750 
Q 3056 4750 3426 4639 
Q 3797 4528 4122 4306 
z
" transform="scale(0.015625)"/>
       <path id="DejaVuSans-76" d="M 191 3500 
L 800 3500 
L 1894 563 
L 2988 3500 
L 3597 3500 
L 2284 0 
L 1503 0 
L 191 3500 
z
" transform="scale(0.015625)"/>
      </defs>
      <use xlink:href="#DejaVuSans-4e"/>
      <use xlink:href="#DejaVuSans-61" x="74.804688"/>
      <use xlink:href="#DejaVuSans-73" x="136.083984"/>
      <use xlink:href="#DejaVuSans-68" x="188.183594"/>
      <use xlink:href="#DejaVuSans-43" x="251.5625"/>
      <use xlink:href="#DejaVuSans-6f" x="321.386719"/>
      <use xlink:href="#DejaVuSans-6e" x="382.568359"/>
      <use xlink:href="#DejaVuSans-76" x="445.947266"/>
     </g>
    </g>
   </g>
   <g id="line2d_23">
    <path d="M 69.218182 44.443636 
L 72.292562 73.181567 
L 75.366942 107.149555 
L 78.441322 93.780081 
L 81.515702 104.749158 
L 84.590083 95.596066 
L 87.664463 114.245451 
L 90.738843 115.086836 
L 93.813223 131.57269 
L 96.887603 116.398597 
L 99.961983 127.847021 
L 103.036364 142.506698 
L 106.110744 133.790348 
L 109.185124 137.509741 
L 112.259504 136.547547 
L 115.333884 144.848025 
L 118.408264 127.140745 
L 121.482645 145.920151 
L 124.557025 149.018816 
L 127.631405 139.96158 
L 130.705785 125.820509 
L 133.780165 137.763544 
L 136.854545 146.327192 
L 139.928926 146.884972 
L 143.003306 141.495156 
L 146.077686 149.986901 
L 149.152066 138.033804 
L 152.226446 130.630441 
L 155.300826 150.858651 
L 158.375207 145.40597 
L 161.449587 143.570968 
L 164.523967 143.975091 
L 167.598347 151.946721 
L 170.672727 171.471537 
L 173.747107 166.109369 
L 176.821488 173.739809 
L 179.895868 149.108423 
L 182.970248 161.092918 
L 186.044628 150.503109 
L 189.119008 155.738178 
L 192.193388 160.964388 
L 195.267769 163.485797 
L 198.342149 173.64249 
L 201.416529 141.240855 
L 204.490909 152.048279 
L 207.565289 169.537923 
L 210.639669 165.473193 
L 213.71405 166.870442 
L 216.78843 149.901345 
L 219.86281 166.138539 
L 222.93719 170.153508 
L 226.01157 178.00599 
L 229.08595 162.110796 
L 232.160331 173.068442 
L 235.234711 171.820049 
L 238.309091 175.359561 
L 241.383471 171.985617 
L 244.457851 169.363755 
L 247.532231 177.612915 
L 250.606612 176.176862 
L 253.680992 170.071824 
L 256.755372 178.155971 
L 259.829752 187.202937 
L 262.904132 191.371317 
L 265.978512 183.140262 
L 269.052893 180.289994 
L 272.127273 180.306968 
L 275.201653 188.255888 
L 278.276033 191.928791 
L 281.350413 193.08725 
L 284.424793 196.567556 
L 287.499174 195.535452 
L 290.573554 181.003849 
L 293.647934 195.847998 
L 296.722314 200.254249 
L 299.796694 181.913975 
L 302.871074 192.556603 
L 305.945455 184.477346 
L 309.019835 205.519299 
L 312.094215 193.318856 
L 315.168595 185.780669 
L 318.242975 193.135832 
L 321.317355 187.268228 
L 324.391736 189.268088 
L 327.466116 205.832465 
L 330.540496 198.369316 
L 333.614876 181.448014 
L 336.689256 188.392271 
L 339.763636 182.155346 
L 342.838017 200.810247 
L 345.912397 190.737856 
L 348.986777 204.268843 
L 352.061157 186.369558 
L 355.135537 179.693949 
L 358.209917 184.158114 
L 361.284298 189.926717 
L 364.358678 190.867887 
L 367.433058 192.564066 
L 370.507438 185.073656 
L 373.581818 182.455018 
" clip-path="url(#p306383c3f8)" style="fill: none; stroke: #000000; stroke-width: 1.5; stroke-linecap: square"/>
   </g>
   <g id="line2d_24">
    <path d="M 69.218182 83.760701 
L 72.292562 111.833291 
L 75.366942 88.608485 
L 78.441322 103.460018 
L 81.515702 124.549308 
L 84.590083 119.325497 
L 87.664463 121.529515 
L 90.738843 129.940516 
L 93.813223 130.015703 
L 96.887603 122.264069 
L 99.961983 133.180213 
L 103.036364 121.31157 
L 106.110744 128.222772 
L 109.185124 149.529319 
L 112.259504 145.199567 
L 115.333884 147.279888 
L 118.408264 149.334129 
L 121.482645 137.832231 
L 124.557025 144.889387 
L 127.631405 142.447042 
L 130.705785 147.44707 
L 133.780165 152.777214 
L 136.854545 157.500223 
L 139.928926 141.723633 
L 143.003306 148.32956 
L 146.077686 154.763739 
L 149.152066 151.09586 
L 152.226446 156.297355 
L 155.300826 149.213868 
L 158.375207 156.283825 
L 161.449587 144.197859 
L 164.523967 154.049916 
L 167.598347 156.543423 
L 170.672727 157.993246 
L 173.747107 147.585395 
L 176.821488 153.170199 
L 179.895868 160.506096 
L 182.970248 162.171558 
L 186.044628 148.807367 
L 189.119008 156.482413 
L 192.193388 152.230693 
L 195.267769 154.155229 
L 198.342149 148.191941 
L 201.416529 149.590805 
L 204.490909 155.391909 
L 207.565289 167.547432 
L 210.639669 162.552998 
L 213.71405 163.283538 
L 216.78843 153.803304 
L 219.86281 155.226681 
L 222.93719 165.628801 
L 226.01157 167.382922 
L 229.08595 167.54939 
L 232.160331 163.657242 
L 235.234711 171.77131 
L 238.309091 165.674123 
L 241.383471 168.333394 
L 244.457851 170.413552 
L 247.532231 165.856797 
L 250.606612 180.047309 
L 253.680992 162.141694 
L 256.755372 166.814388 
L 259.829752 171.827968 
L 262.904132 168.040307 
L 265.978512 169.174007 
L 269.052893 165.808302 
L 272.127273 165.990844 
L 275.201653 166.842108 
L 278.276033 176.89201 
L 281.350413 157.610743 
L 284.424793 173.07127 
L 287.499174 171.637577 
L 290.573554 169.728445 
L 293.647934 175.679766 
L 296.722314 178.896301 
L 299.796694 171.923811 
L 302.871074 182.406829 
L 305.945455 172.351964 
L 309.019835 179.260558 
L 312.094215 174.243154 
L 315.168595 177.908367 
L 318.242975 185.53239 
L 321.317355 170.983547 
L 324.391736 182.032804 
L 327.466116 190.831892 
L 330.540496 170.521454 
L 333.614876 165.707394 
L 336.689256 171.001703 
L 339.763636 182.872101 
L 342.838017 158.112427 
L 345.912397 176.15964 
L 348.986777 175.430094 
L 352.061157 168.509967 
L 355.135537 164.978865 
L 358.209917 177.260679 
L 361.284298 183.363235 
L 364.358678 168.630835 
L 367.433058 187.163369 
L 370.507438 185.547282 
L 373.581818 173.187781 
" clip-path="url(#p306383c3f8)" style="fill: none; stroke-dasharray: 5.55,2.4; stroke-dashoffset: 0; stroke: #000000; stroke-width: 1.5"/>
   </g>
   <g id="line2d_25">
    <path d="M 69.218182 94.615003 
L 72.292562 101.974798 
L 75.366942 123.337 
L 78.441322 122.024873 
L 81.515702 119.649484 
L 84.590083 127.711963 
L 87.664463 143.832631 
L 90.738843 129.198873 
L 93.813223 145.882012 
L 96.887603 136.085389 
L 99.961983 144.47599 
L 103.036364 149.652792 
L 106.110744 153.124352 
L 109.185124 149.151087 
L 112.259504 143.648918 
L 115.333884 160.417217 
L 118.408264 160.349678 
L 121.482645 159.367566 
L 124.557025 161.410304 
L 127.631405 156.451512 
L 130.705785 158.041853 
L 133.780165 162.265731 
L 136.854545 157.673008 
L 139.928926 175.287364 
L 143.003306 161.346093 
L 146.077686 170.648963 
L 149.152066 163.064339 
L 152.226446 170.28174 
L 155.300826 175.725675 
L 158.375207 169.824273 
L 161.449587 165.263255 
L 164.523967 171.942191 
L 167.598347 162.013297 
L 170.672727 168.631054 
L 173.747107 179.81707 
L 176.821488 170.278796 
L 179.895868 174.680475 
L 182.970248 174.927911 
L 186.044628 170.935817 
L 189.119008 160.809712 
L 192.193388 177.958298 
L 195.267769 178.836215 
L 198.342149 178.266306 
L 201.416529 179.964205 
L 204.490909 188.37224 
L 207.565289 178.506088 
L 210.639669 181.728181 
L 213.71405 188.426769 
L 216.78843 195.293432 
L 219.86281 191.716486 
L 222.93719 178.138164 
L 226.01157 183.091985 
L 229.08595 202.844719 
L 232.160331 187.107038 
L 235.234711 192.08842 
L 238.309091 188.732503 
L 241.383471 193.824157 
L 244.457851 193.770091 
L 247.532231 190.676448 
L 250.606612 191.827845 
L 253.680992 191.540003 
L 256.755372 198.373698 
L 259.829752 184.629629 
L 262.904132 187.820705 
L 265.978512 193.002476 
L 269.052893 197.06229 
L 272.127273 183.306111 
L 275.201653 196.684708 
L 278.276033 187.242454 
L 281.350413 192.165318 
L 284.424793 195.619249 
L 287.499174 188.942901 
L 290.573554 193.035646 
L 293.647934 191.018988 
L 296.722314 188.999182 
L 299.796694 191.887493 
L 302.871074 197.377522 
L 305.945455 186.829742 
L 309.019835 199.889 
L 312.094215 193.255607 
L 315.168595 196.819774 
L 318.242975 184.966018 
L 321.317355 200.215103 
L 324.391736 196.975626 
L 327.466116 196.861189 
L 330.540496 188.437191 
L 333.614876 194.867329 
L 336.689256 205.257426 
L 339.763636 198.660729 
L 342.838017 190.915575 
L 345.912397 182.328509 
L 348.986777 190.569729 
L 352.061157 193.265367 
L 355.135537 200.470086 
L 358.209917 201.757974 
L 361.284298 198.409979 
L 364.358678 188.185575 
L 367.433058 188.707003 
L 370.507438 208.850903 
L 373.581818 202.695474 
" clip-path="url(#p306383c3f8)" style="fill: none; stroke-dasharray: 1.5,2.475; stroke-dashoffset: 0; stroke: #000000; stroke-width: 1.5"/>
   </g>
   <g id="line2d_26">
    <path d="M 69.218182 106.585634 
L 72.292562 130.477158 
L 75.366942 141.82084 
L 78.441322 154.84342 
L 81.515702 154.061873 
L 84.590083 167.213501 
L 87.664463 168.285971 
L 90.738843 165.384494 
L 93.813223 165.213411 
L 96.887603 184.490141 
L 99.961983 175.306319 
L 103.036364 168.237168 
L 106.110744 174.401228 
L 109.185124 192.939361 
L 112.259504 178.807343 
L 115.333884 184.347084 
L 118.408264 178.552179 
L 121.482645 190.924008 
L 124.557025 187.545435 
L 127.631405 188.371152 
L 130.705785 179.060308 
L 133.780165 198.603985 
L 136.854545 194.141188 
L 139.928926 186.12468 
L 143.003306 200.937784 
L 146.077686 202.711749 
L 149.152066 206.374451 
L 152.226446 204.127851 
L 155.300826 188.241631 
L 158.375207 202.618948 
L 161.449587 189.150937 
L 164.523967 203.319629 
L 167.598347 207.941489 
L 170.672727 192.896183 
L 173.747107 211.904854 
L 176.821488 199.670582 
L 179.895868 198.103059 
L 182.970248 196.648107 
L 186.044628 196.596483 
L 189.119008 204.037053 
L 192.193388 205.948104 
L 195.267769 209.031376 
L 198.342149 213.781503 
L 201.416529 191.201962 
L 204.490909 208.118026 
L 207.565289 211.917919 
L 210.639669 211.240751 
L 213.71405 215.774341 
L 216.78843 199.314412 
L 219.86281 207.372928 
L 222.93719 218.389526 
L 226.01157 222.720726 
L 229.08595 208.797414 
L 232.160331 210.795741 
L 235.234711 216.465303 
L 238.309091 212.473743 
L 241.383471 210.078396 
L 244.457851 203.237698 
L 247.532231 213.919438 
L 250.606612 212.843624 
L 253.680992 212.52839 
L 256.755372 206.091698 
L 259.829752 221.527986 
L 262.904132 216.902661 
L 265.978512 204.69375 
L 269.052893 219.467904 
L 272.127273 217.872552 
L 275.201653 223.803573 
L 278.276033 220.591408 
L 281.350413 221.751218 
L 284.424793 221.998093 
L 287.499174 210.597017 
L 290.573554 217.295962 
L 293.647934 220.000563 
L 296.722314 204.676238 
L 299.796694 227.057715 
L 302.871074 217.814758 
L 305.945455 216.716889 
L 309.019835 224.009772 
L 312.094215 208.640112 
L 315.168595 218.571691 
L 318.242975 224.945499 
L 321.317355 214.346568 
L 324.391736 219.686254 
L 327.466116 215.379884 
L 330.540496 217.564003 
L 333.614876 216.271716 
L 336.689256 218.74824 
L 339.763636 217.173181 
L 342.838017 216.811689 
L 345.912397 208.416295 
L 348.986777 214.500989 
L 352.061157 213.838758 
L 355.135537 218.084619 
L 358.209917 221.788717 
L 361.284298 220.907961 
L 364.358678 221.866195 
L 367.433058 214.405922 
L 370.507438 211.819099 
L 373.581818 217.540817 
" clip-path="url(#p306383c3f8)" style="fill: none; stroke-dasharray: 9.6,2.4,1.5,2.4; stroke-dashoffset: 0; stroke: #000000; stroke-width: 1.5"/>
   </g>
   <g id="line2d_27">
    <path d="M 69.218182 127.720647 
L 72.292562 147.562772 
L 75.366942 154.75235 
L 78.441322 164.038841 
L 81.515702 181.03936 
L 84.590083 180.625338 
L 87.664463 175.892433 
L 90.738843 183.588874 
L 93.813223 187.482148 
L 96.887603 197.784873 
L 99.961983 193.496948 
L 103.036364 192.363544 
L 106.110744 193.416174 
L 109.185124 192.693854 
L 112.259504 193.96576 
L 115.333884 194.971011 
L 118.408264 198.994165 
L 121.482645 208.954662 
L 124.557025 205.15071 
L 127.631405 195.626392 
L 130.705785 206.208614 
L 133.780165 207.21105 
L 136.854545 201.120434 
L 139.928926 209.142235 
L 143.003306 199.498754 
L 146.077686 201.870113 
L 149.152066 210.641383 
L 152.226446 207.954233 
L 155.300826 211.926684 
L 158.375207 209.742172 
L 161.449587 212.304702 
L 164.523967 209.792344 
L 167.598347 217.990819 
L 170.672727 216.090165 
L 173.747107 208.419604 
L 176.821488 219.338625 
L 179.895868 214.539162 
L 182.970248 213.44737 
L 186.044628 209.840487 
L 189.119008 204.326014 
L 192.193388 207.256058 
L 195.267769 207.245667 
L 198.342149 215.939916 
L 201.416529 208.779351 
L 204.490909 217.4174 
L 207.565289 213.171822 
L 210.639669 216.941318 
L 213.71405 211.033352 
L 216.78843 216.966662 
L 219.86281 205.764053 
L 222.93719 217.057859 
L 226.01157 211.001938 
L 229.08595 212.288077 
L 232.160331 214.666994 
L 235.234711 225.092718 
L 238.309091 226.711681 
L 241.383471 234.818113 
L 244.457851 221.001249 
L 247.532231 218.540719 
L 250.606612 216.482305 
L 253.680992 223.808243 
L 256.755372 224.655757 
L 259.829752 226.529294 
L 262.904132 224.714566 
L 265.978512 220.153898 
L 269.052893 229.439213 
L 272.127273 230.001564 
L 275.201653 231.539307 
L 278.276033 221.973914 
L 281.350413 223.746593 
L 284.424793 227.886492 
L 287.499174 225.903994 
L 290.573554 230.409402 
L 293.647934 232.423435 
L 296.722314 228.882009 
L 299.796694 227.405576 
L 302.871074 231.742439 
L 305.945455 231.650965 
L 309.019835 226.116286 
L 312.094215 231.561023 
L 315.168595 232.435941 
L 318.242975 237.67723 
L 321.317355 235.727566 
L 324.391736 234.587519 
L 327.466116 230.237682 
L 330.540496 235.647851 
L 333.614876 235.811236 
L 336.689256 229.183365 
L 339.763636 236.553919 
L 342.838017 242.116364 
L 345.912397 230.801572 
L 348.986777 228.688715 
L 352.061157 229.252119 
L 355.135537 235.69175 
L 358.209917 238.029108 
L 361.284298 233.226337 
L 364.358678 228.962991 
L 367.433058 239.011728 
L 370.507438 235.399348 
L 373.581818 233.067794 
" clip-path="url(#p306383c3f8)" style="fill: none; stroke: #000000; stroke-width: 1.5; stroke-linecap: square"/>
    <defs>
     <path id="m4d21f35cc0" d="M 0 1.5 
C 0.397805 1.5 0.77937 1.341951 1.06066 1.06066 
C 1.341951 0.77937 1.5 0.397805 1.5 0 
C 1.5 -0.397805 1.341951 -0.77937 1.06066 -1.06066 
C 0.77937 -1.341951 0.397805 -1.5 0 -1.5 
C -0.397805 -1.5 -0.77937 -1.341951 -1.06066 -1.06066 
C -1.341951 -0.77937 -1.5 -0.397805 -1.5 0 
C -1.5 0.397805 -1.341951 0.77937 -1.06066 1.06066 
C -0.77937 1.341951 -0.397805 1.5 0 1.5 
z
" style="stroke: #000000"/>
    </defs>
    <g clip-path="url(#p306383c3f8)">
     <use xlink:href="#m4d21f35cc0" x="69.218182" y="127.720647" style="stroke: #000000"/>
     <use xlink:href="#m4d21f35cc0" x="72.292562" y="147.562772" style="stroke: #000000"/>
     <use xlink:href="#m4d21f35cc0" x="75.366942" y="154.75235" style="stroke: #000000"/>
     <use xlink:href="#m4d21f35cc0" x="78.441322" y="164.038841" style="stroke: #000000"/>
     <use xlink:href="#m4d21f35cc0" x="81.515702" y="181.03936" style="stroke: #000000"/>
     <use xlink:href="#m4d21f35cc0" x="84.590083" y="180.625338" style="stroke: #000000"/>
     <use xlink:href="#m4d21f35cc0" x="87.664463" y="175.892433" style="stroke: #000000"/>
     <use xlink:href="#m4d21f35cc0" x="90.738843" y="183.588874" style="stroke: #000000"/>
     <use xlink:href="#m4d21f35cc0" x="93.813223" y="187.482148" style="stroke: #000000"/>
     <use xlink:href="#m4d21f35cc0" x="96.887603" y="197.784873" style="stroke: #000000"/>
     <use xlink:href="#m4d21f35cc0" x="99.961983" y="193.496948" style="stroke: #000000"/>
     <use xlink:href="#m4d21f35cc0" x="103.036364" y="192.363544" style="stroke: #000000"/>
     <use xlink:href="#m4d21f35cc0" x="106.110744" y="193.416174" style="stroke: #000000"/>
     <use xlink:href="#m4d21f35cc0" x="109.185124" y="192.693854" style="stroke: #000000"/>
     <use xlink:href="#m4d21f35cc0" x="112.259504" y="193.96576" style="stroke: #000000"/>
     <use xlink:href="#m4d21f35cc0" x="115.333884" y="194.971011" style="stroke: #000000"/>
     <use xlink:href="#m4d21f35cc0" x="118.408264" y="198.994165" style="stroke: #000000"/>
     <use xlink:href="#m4d21f35cc0" x="121.482645" y="208.954662" style="stroke: #000000"/>
     <use xlink:href="#m4d21f35cc0" x="124.557025" y="205.15071" style="stroke: #000000"/>
     <use xlink:href="#m4d21f35cc0" x="127.631405" y="195.626392" style="stroke: #000000"/>
     <use xlink:href="#m4d21f35cc0" x="130.705785" y="206.208614" style="stroke: #000000"/>
     <use xlink:href="#m4d21f35cc0" x="133.780165" y="207.21105" style="stroke: #000000"/>
     <use xlink:href="#m4d21f35cc0" x="136.854545" y="201.120434" style="stroke: #000000"/>
     <use xlink:href="#m4d21f35cc0" x="139.928926" y="209.142235" style="stroke: #000000"/>
     <use xlink:href="#m4d21f35cc0" x="143.003306" y="199.498754" style="stroke: #000000"/>
     <use xlink:href="#m4d21f35cc0" x="146.077686" y="201.870113" style="stroke: #000000"/>
     <use xlink:href="#m4d21f35cc0" x="149.152066" y="210.641383" style="stroke: #000000"/>
     <use xlink:href="#m4d21f35cc0" x="152.226446" y="207.954233" style="stroke: #000000"/>
     <use xlink:href="#m4d21f35cc0" x="155.300826" y="211.926684" style="stroke: #000000"/>
     <use xlink:href="#m4d21f35cc0" x="158.375207" y="209.742172" style="stroke: #000000"/>
     <use xlink:href="#m4d21f35cc0" x="161.449587" y="212.304702" style="stroke: #000000"/>
     <use xlink:href="#m4d21f35cc0" x="164.523967" y="209.792344" style="stroke: #000000"/>
     <use xlink:href="#m4d21f35cc0" x="167.598347" y="217.990819" style="stroke: #000000"/>
     <use xlink:href="#m4d21f35cc0" x="170.672727" y="216.090165" style="stroke: #000000"/>
     <use xlink:href="#m4d21f35cc0" x="173.747107" y="208.419604" style="stroke: #000000"/>
     <use xlink:href="#m4d21f35cc0" x="176.821488" y="219.338625" style="stroke: #000000"/>
     <use xlink:href="#m4d21f35cc0" x="179.895868" y="214.539162" style="stroke: #000000"/>
     <use xlink:href="#m4d21f35cc0" x="182.970248" y="213.44737" style="stroke: #000000"/>
     <use xlink:href="#m4d21f35cc0" x="186.044628" y="209.840487" style="stroke: #000000"/>
     <use xlink:href="#m4d21f35cc0" x="189.119008" y="204.326014" style="stroke: #000000"/>
     <use xlink:href="#m4d21f35cc0" x="192.193388" y="207.256058" style="stroke: #000000"/>
     <use xlink:href="#m4d21f35cc0" x="195.267769" y="207.245667" style="stroke: #000000"/>
     <use xlink:href="#m4d21f35cc0" x="198.342149" y="215.939916" style="stroke: #000000"/>
     <use xlink:href="#m4d21f35cc0" x="201.416529" y="208.779351" style="stroke: #000000"/>
     <use xlink:href="#m4d21f35cc0" x="204.490909" y="217.4174" style="stroke: #000000"/>
     <use xlink:href="#m4d21f35cc0" x="207.565289" y="213.171822" style="stroke: #000000"/>
     <use xlink:href="#m4d21f35cc0" x="210.639669" y="216.941318" style="stroke: #000000"/>
     <use xlink:href="#m4d21f35cc0" x="213.71405" y="211.033352" style="stroke: #000000"/>
     <use xlink:href="#m4d21f35cc0" x="216.78843" y="216.966662" style="stroke: #000000"/>
     <use xlink:href="#m4d21f35cc0" x="219.86281" y="205.764053" style="stroke: #000000"/>
     <use xlink:href="#m4d21f35cc0" x="222.93719" y="217.057859" style="stroke: #000000"/>
     <use xlink:href="#m4d21f35cc0" x="226.01157" y="211.001938" style="stroke: #000000"/>
     <use xlink:href="#m4d21f35cc0" x="229.08595" y="212.288077" style="stroke: #000000"/>
     <use xlink:href="#m4d21f35cc0" x="232.160331" y="214.666994" style="stroke: #000000"/>
     <use xlink:href="#m4d21f35cc0" x="235.234711" y="225.092718" style="stroke: #000000"/>
     <use xlink:href="#m4d21f35cc0" x="238.309091" y="226.711681" style="stroke: #000000"/>
     <use xlink:href="#m4d21f35cc0" x="241.383471" y="234.818113" style="stroke: #000000"/>
     <use xlink:href="#m4d21f35cc0" x="244.457851" y="221.001249" style="stroke: #000000"/>
     <use xlink:href="#m4d21f35cc0" x="247.532231" y="218.540719" style="stroke: #000000"/>
     <use xlink:href="#m4d21f35cc0" x="250.606612" y="216.482305" style="stroke: #000000"/>
     <use xlink:href="#m4d21f35cc0" x="253.680992" y="223.808243" style="stroke: #000000"/>
     <use xlink:href="#m4d21f35cc0" x="256.755372" y="224.655757" style="stroke: #000000"/>
     <use xlink:href="#m4d21f35cc0" x="259.829752" y="226.529294" style="stroke: #000000"/>
     <use xlink:href="#m4d21f35cc0" x="262.904132" y="224.714566" style="stroke: #000000"/>
     <use xlink:href="#m4d21f35cc0" x="265.978512" y="220.153898" style="stroke: #000000"/>
     <use xlink:href="#m4d21f35cc0" x="269.052893" y="229.439213" style="stroke: #000000"/>
     <use xlink:href="#m4d21f35cc0" x="272.127273" y="230.001564" style="stroke: #000000"/>
     <use xlink:href="#m4d21f35cc0" x="275.201653" y="231.539307" style="stroke: #000000"/>
     <use xlink:href="#m4d21f35cc0" x="278.276033" y="221.973914" style="stroke: #000000"/>
     <use xlink:href="#m4d21f35cc0" x="281.350413" y="223.746593" style="stroke: #000000"/>
     <use xlink:href="#m4d21f35cc0" x="284.424793" y="227.886492" style="stroke: #000000"/>
     <use xlink:href="#m4d21f35cc0" x="287.499174" y="225.903994" style="stroke: #000000"/>
     <use xlink:href="#m4d21f35cc0" x="290.573554" y="230.409402" style="stroke: #000000"/>
     <use xlink:href="#m4d21f35cc0" x="293.647934" y="232.423435" style="stroke: #000000"/>
     <use xlink:href="#m4d21f35cc0" x="296.722314" y="228.882009" style="stroke: #000000"/>
     <use xlink:href="#m4d21f35cc0" x="299.796694" y="227.405576" style="stroke: #000000"/>
     <use xlink:href="#m4d21f35cc0" x="302.871074" y="231.742439" style="stroke: #000000"/>
     <use xlink:href="#m4d21f35cc0" x="305.945455" y="231.650965" style="stroke: #000000"/>
     <use xlink:href="#m4d21f35cc0" x="309.019835" y="226.116286" style="stroke: #000000"/>
     <use xlink:href="#m4d21f35cc0" x="312.094215" y="231.561023" style="stroke: #000000"/>
     <use xlink:href="#m4d21f35cc0" x="315.168595" y="232.435941" style="stroke: #000000"/>
     <use xlink:href="#m4d21f35cc0" x="318.242975" y="237.67723" style="stroke: #000000"/>
     <use xlink:href="#m4d21f35cc0" x="321.317355" y="235.727566" style="stroke: #000000"/>
     <use xlink:href="#m4d21f35cc0" x="324.391736" y="234.587519" style="stroke: #000000"/>
     <use xlink:href="#m4d21f35cc0" x="327.466116" y="230.237682" style="stroke: #000000"/>
     <use xlink:href="#m4d21f35cc0" x="330.540496" y="235.647851" style="stroke: #000000"/>
     <use xlink:href="#m4d21f35cc0" x="333.614876" y="235.811236" style="stroke: #000000"/>
     <use xlink:href="#m4d21f35cc0" x="336.689256" y="229.183365" style="stroke: #000000"/>
     <use xlink:href="#m4d21f35cc0" x="339.763636" y="236.553919" style="stroke: #000000"/>
     <use xlink:href="#m4d21f35cc0" x="342.838017" y="242.116364" style="stroke: #000000"/>
     <use xlink:href="#m4d21f35cc0" x="345.912397" y="230.801572" style="stroke: #000000"/>
     <use xlink:href="#m4d21f35cc0" x="348.986777" y="228.688715" style="stroke: #000000"/>
     <use xlink:href="#m4d21f35cc0" x="352.061157" y="229.252119" style="stroke: #000000"/>
     <use xlink:href="#m4d21f35cc0" x="355.135537" y="235.69175" style="stroke: #000000"/>
     <use xlink:href="#m4d21f35cc0" x="358.209917" y="238.029108" style="stroke: #000000"/>
     <use xlink:href="#m4d21f35cc0" x="361.284298" y="233.226337" style="stroke: #000000"/>
     <use xlink:href="#m4d21f35cc0" x="364.358678" y="228.962991" style="stroke: #000000"/>
     <use xlink:href="#m4d21f35cc0" x="367.433058" y="239.011728" style="stroke: #000000"/>
     <use xlink:href="#m4d21f35cc0" x="370.507438" y="235.399348" style="stroke: #000000"/>
     <use xlink:href="#m4d21f35cc0" x="373.581818" y="233.067794" style="stroke: #000000"/>
    </g>
   </g>
   <g id="patch_3">
    <path d="M 54 252 
L 54 34.56 
" style="fill: none; stroke: #000000; stroke-width: 0.8; stroke-linejoin: miter; stroke-linecap: square"/>
   </g>
   <g id="patch_4">
    <path d="M 388.8 252 
L 388.8 34.56 
" style="fill: none; stroke: #000000; stroke-width: 0.8; stroke-linejoin: miter; stroke-linecap: square"/>
   </g>
   <g id="patch_5">
    <path d="M 54 252 
L 388.8 252 
" style="fill: none; stroke: #000000; stroke-width: 0.8; stroke-linejoin: miter; stroke-linecap: square"/>
   </g>
   <g id="patch_6">
    <path d="M 54 34.56 
L 388.8 34.56 
" style="fill: none; stroke: #000000; stroke-width: 0.8; stroke-linejoin: miter; stroke-linecap: square"/>
   </g>
   <g id="legend_1">
    <g id="patch_7">
     <path d="M 294.9 115.950625 
L 381.8 115.950625 
Q 383.8 115.950625 383.8 113.950625 
L 383.8 41.56 
Q 383.8 39.56 381.8 39.56 
L 294.9 39.56 
Q 292.9 39.56 292.9 41.56 
L 292.9 113.950625 
Q 292.9 115.950625 294.9 115.950625 
z
" style="fill: #ffffff; opacity: 0.8; stroke: #cccccc; stroke-linejoin: miter"/>
    </g>
    <g id="line2d_28">
     <path d="M 296.9 47.658437 
L 306.9 47.658437 
L 316.9 47.658437 
" style="fill: none; stroke: #000000; stroke-width: 1.5; stroke-linecap: square"/>
    </g>
    <g id="text_11">
     <!-- $2^{7}$ actions -->
     <g transform="translate(324.9 51.158437)scale(0.1 -0.1)">
      <defs>
       <path id="DejaVuSans-37" d="M 525 4666 
L 3525 4666 
L 3525 4397 
L 1831 0 
L 1172 0 
L 2766 4134 
L 525 4134 
L 525 4666 
z
" transform="scale(0.015625)"/>
       <path id="DejaVuSans-20" transform="scale(0.015625)"/>
       <path id="DejaVuSans-63" d="M 3122 3366 
L 3122 2828 
Q 2878 2963 2633 3030 
Q 2388 3097 2138 3097 
Q 1578 3097 1268 2742 
Q 959 2388 959 1747 
Q 959 1106 1268 751 
Q 1578 397 2138 397 
Q 2388 397 2633 464 
Q 2878 531 3122 666 
L 3122 134 
Q 2881 22 2623 -34 
Q 2366 -91 2075 -91 
Q 1284 -91 818 406 
Q 353 903 353 1747 
Q 353 2603 823 3093 
Q 1294 3584 2113 3584 
Q 2378 3584 2631 3529 
Q 2884 3475 3122 3366 
z
" transform="scale(0.015625)"/>
      </defs>
      <use xlink:href="#DejaVuSans-32" transform="translate(0 0.684375)"/>
      <use xlink:href="#DejaVuSans-37" transform="translate(64.580078 38.965625)scale(0.7)"/>
      <use xlink:href="#DejaVuSans-20" transform="translate(111.850586 0.684375)"/>
      <use xlink:href="#DejaVuSans-61" transform="translate(143.637695 0.684375)"/>
      <use xlink:href="#DejaVuSans-63" transform="translate(204.916992 0.684375)"/>
      <use xlink:href="#DejaVuSans-74" transform="translate(259.897461 0.684375)"/>
      <use xlink:href="#DejaVuSans-69" transform="translate(299.106445 0.684375)"/>
      <use xlink:href="#DejaVuSans-6f" transform="translate(326.889648 0.684375)"/>
      <use xlink:href="#DejaVuSans-6e" transform="translate(388.071289 0.684375)"/>
      <use xlink:href="#DejaVuSans-73" transform="translate(451.450195 0.684375)"/>
     </g>
    </g>
    <g id="line2d_29">
     <path d="M 296.9 62.336562 
L 306.9 62.336562 
L 316.9 62.336562 
" style="fill: none; stroke-dasharray: 5.55,2.4; stroke-dashoffset: 0; stroke: #000000; stroke-width: 1.5"/>
    </g>
    <g id="text_12">
     <!-- $2^{8}$ actions -->
     <g transform="translate(324.9 65.836562)scale(0.1 -0.1)">
      <use xlink:href="#DejaVuSans-32" transform="translate(0 0.765625)"/>
      <use xlink:href="#DejaVuSans-38" transform="translate(64.580078 39.046875)scale(0.7)"/>
      <use xlink:href="#DejaVuSans-20" transform="translate(111.850586 0.765625)"/>
      <use xlink:href="#DejaVuSans-61" transform="translate(143.637695 0.765625)"/>
      <use xlink:href="#DejaVuSans-63" transform="translate(204.916992 0.765625)"/>
      <use xlink:href="#DejaVuSans-74" transform="translate(259.897461 0.765625)"/>
      <use xlink:href="#DejaVuSans-69" transform="translate(299.106445 0.765625)"/>
      <use xlink:href="#DejaVuSans-6f" transform="translate(326.889648 0.765625)"/>
      <use xlink:href="#DejaVuSans-6e" transform="translate(388.071289 0.765625)"/>
      <use xlink:href="#DejaVuSans-73" transform="translate(451.450195 0.765625)"/>
     </g>
    </g>
    <g id="line2d_30">
     <path d="M 296.9 77.014687 
L 306.9 77.014687 
L 316.9 77.014687 
" style="fill: none; stroke-dasharray: 1.5,2.475; stroke-dashoffset: 0; stroke: #000000; stroke-width: 1.5"/>
    </g>
    <g id="text_13">
     <!-- $2^{9}$ actions -->
     <g transform="translate(324.9 80.514687)scale(0.1 -0.1)">
      <defs>
       <path id="DejaVuSans-39" d="M 703 97 
L 703 672 
Q 941 559 1184 500 
Q 1428 441 1663 441 
Q 2288 441 2617 861 
Q 2947 1281 2994 2138 
Q 2813 1869 2534 1725 
Q 2256 1581 1919 1581 
Q 1219 1581 811 2004 
Q 403 2428 403 3163 
Q 403 3881 828 4315 
Q 1253 4750 1959 4750 
Q 2769 4750 3195 4129 
Q 3622 3509 3622 2328 
Q 3622 1225 3098 567 
Q 2575 -91 1691 -91 
Q 1453 -91 1209 -44 
Q 966 3 703 97 
z
M 1959 2075 
Q 2384 2075 2632 2365 
Q 2881 2656 2881 3163 
Q 2881 3666 2632 3958 
Q 2384 4250 1959 4250 
Q 1534 4250 1286 3958 
Q 1038 3666 1038 3163 
Q 1038 2656 1286 2365 
Q 1534 2075 1959 2075 
z
" transform="scale(0.015625)"/>
      </defs>
      <use xlink:href="#DejaVuSans-32" transform="translate(0 0.765625)"/>
      <use xlink:href="#DejaVuSans-39" transform="translate(64.580078 39.046875)scale(0.7)"/>
      <use xlink:href="#DejaVuSans-20" transform="translate(111.850586 0.765625)"/>
      <use xlink:href="#DejaVuSans-61" transform="translate(143.637695 0.765625)"/>
      <use xlink:href="#DejaVuSans-63" transform="translate(204.916992 0.765625)"/>
      <use xlink:href="#DejaVuSans-74" transform="translate(259.897461 0.765625)"/>
      <use xlink:href="#DejaVuSans-69" transform="translate(299.106445 0.765625)"/>
      <use xlink:href="#DejaVuSans-6f" transform="translate(326.889648 0.765625)"/>
      <use xlink:href="#DejaVuSans-6e" transform="translate(388.071289 0.765625)"/>
      <use xlink:href="#DejaVuSans-73" transform="translate(451.450195 0.765625)"/>
     </g>
    </g>
    <g id="line2d_31">
     <path d="M 296.9 91.692813 
L 306.9 91.692813 
L 316.9 91.692813 
" style="fill: none; stroke-dasharray: 9.6,2.4,1.5,2.4; stroke-dashoffset: 0; stroke: #000000; stroke-width: 1.5"/>
    </g>
    <g id="text_14">
     <!-- $2^{10}$ actions -->
     <g transform="translate(324.9 95.192813)scale(0.1 -0.1)">
      <use xlink:href="#DejaVuSans-32" transform="translate(0 0.765625)"/>
      <use xlink:href="#DejaVuSans-31" transform="translate(64.580078 39.046875)scale(0.7)"/>
      <use xlink:href="#DejaVuSans-30" transform="translate(109.116211 39.046875)scale(0.7)"/>
      <use xlink:href="#DejaVuSans-20" transform="translate(156.386719 0.765625)"/>
      <use xlink:href="#DejaVuSans-61" transform="translate(188.173828 0.765625)"/>
      <use xlink:href="#DejaVuSans-63" transform="translate(249.453125 0.765625)"/>
      <use xlink:href="#DejaVuSans-74" transform="translate(304.433594 0.765625)"/>
      <use xlink:href="#DejaVuSans-69" transform="translate(343.642578 0.765625)"/>
      <use xlink:href="#DejaVuSans-6f" transform="translate(371.425781 0.765625)"/>
      <use xlink:href="#DejaVuSans-6e" transform="translate(432.607422 0.765625)"/>
      <use xlink:href="#DejaVuSans-73" transform="translate(495.986328 0.765625)"/>
     </g>
    </g>
    <g id="line2d_32">
     <path d="M 296.9 106.370937 
L 306.9 106.370937 
L 316.9 106.370937 
" style="fill: none; stroke: #000000; stroke-width: 1.5; stroke-linecap: square"/>
     <g>
      <use xlink:href="#m4d21f35cc0" x="306.9" y="106.370937" style="stroke: #000000"/>
     </g>
    </g>
    <g id="text_15">
     <!-- $2^{11}$ actions -->
     <g transform="translate(324.9 109.870937)scale(0.1 -0.1)">
      <use xlink:href="#DejaVuSans-32" transform="translate(0 0.684375)"/>
      <use xlink:href="#DejaVuSans-31" transform="translate(64.580078 38.965625)scale(0.7)"/>
      <use xlink:href="#DejaVuSans-31" transform="translate(109.116211 38.965625)scale(0.7)"/>
      <use xlink:href="#DejaVuSans-20" transform="translate(156.386719 0.684375)"/>
      <use xlink:href="#DejaVuSans-61" transform="translate(188.173828 0.684375)"/>
      <use xlink:href="#DejaVuSans-63" transform="translate(249.453125 0.684375)"/>
      <use xlink:href="#DejaVuSans-74" transform="translate(304.433594 0.684375)"/>
      <use xlink:href="#DejaVuSans-69" transform="translate(343.642578 0.684375)"/>
      <use xlink:href="#DejaVuSans-6f" transform="translate(371.425781 0.684375)"/>
      <use xlink:href="#DejaVuSans-6e" transform="translate(432.607422 0.684375)"/>
      <use xlink:href="#DejaVuSans-73" transform="translate(495.986328 0.684375)"/>
     </g>
    </g>
   </g>
  </g>
 </g>
 <defs>
  <clipPath id="p306383c3f8">
   <rect x="54" y="34.56" width="334.8" height="217.44"/>
  </clipPath>
 </defs>
</svg>
